<?xml version="1.0" encoding="utf-8"?>
<!-- Generator: Adobe Illustrator 23.0.1, SVG Export Plug-In . SVG Version: 6.00 Build 0)  -->
<svg version="1.1" id="Layer_1" xmlns="http://www.w3.org/2000/svg" xmlns:xlink="http://www.w3.org/1999/xlink" x="0px" y="0px"
	 viewBox="0 0 100 100" style="enable-background:new 0 0 100 100;" xml:space="preserve">
<g>
	<path d="M55.71,12.29c-5.63,0-11.62,1.14-16.02,3.04c-0.47,0.18-0.75,0.56-0.81,1.09c-0.06,0.5,0.08,1.16,0.41,2.02
		c0.27,0.7,1,2.55,2.4,2.01c4.5-1.72,9.48-2.66,14.01-2.66c5.14,0,10.12,1.01,14.81,2.99c3.73,1.58,7.24,3.85,11.07,7.17
		c0.28,0.24,0.57,0.36,0.88,0.36c0.75,0,1.46-0.73,2.07-1.42c1.02-1.15,1.72-2.1,0.72-3.05c-3.65-3.46-7.65-6.04-12.59-8.13
		C67.3,13.44,61.59,12.29,55.71,12.29z"/>
	<path d="M25.71,65.08c0.02,0.06,0.52,1.43,0.81,2.12c1.58,3.74,3.85,7.1,6.73,9.99c2.88,2.88,6.24,5.15,9.99,6.73
		c3.88,1.64,7.99,2.47,12.23,2.47c4.24,0,8.36-0.83,12.23-2.47c3.74-1.58,7.1-3.85,9.99-6.73c2.88-2.88,5.15-6.25,6.73-9.99
		c1.64-3.88,2.47-7.99,2.47-12.23c0-4.24-0.83-8.36-2.47-12.23c-1.58-3.74-3.85-7.1-6.73-9.99c-2.88-2.88-6.24-5.15-9.99-6.73
		c-3.88-1.64-7.99-2.47-12.23-2.47c-4.29,0-8.58,0.85-12.4,2.47c-3.05,1.29-8.22,4.62-11.25,7.74l-0.02,0.02V7.9l43.44,0
		c1.58-0.02,1.58-2.22,1.58-2.95c0-0.73,0-2.93-1.59-2.95L28.27,2c-1.28,0-2.07,1.06-2.07,2.05v36.4c0,1.17,1.46,2.02,2.82,2.31
		c2.65,0.57,3.27-0.28,3.92-1.18l0.09-0.12c0.99-1.47,4.09-4.6,4.12-4.63c4.84-4.84,11.31-7.51,18.22-7.51
		c6.88,0,13.33,2.67,18.17,7.51c4.86,4.86,7.53,11.29,7.53,18.12c0,6.85-2.66,13.29-7.49,18.12c-4.77,4.77-11.43,7.51-18.28,7.51
		c-4.64,0-9.12-1.24-12.95-3.57l0.02-22.13c0-2.95,1.28-6.16,3.43-8.58c2.45-2.77,5.83-4.29,9.52-4.29c3.57,0,6.9,1.35,9.39,3.81
		c2.47,2.44,3.82,5.7,3.82,9.16c0,7.4-5.82,13.19-13.24,13.19c-1.43,0-4.03-0.63-4.14-0.66c-1.5-0.45-2.14,1.63-2.35,2.32
		c-0.81,2.64,0.41,3.16,0.66,3.24c2.39,0.74,3.96,0.88,6.01,0.88c10.48,0,19.01-8.53,19.01-19.02c0-10.4-8.52-18.87-19-18.87
		c-5.13,0-9.95,1.96-13.57,5.52c-3.45,3.39-5.43,7.91-5.43,12.4l0,0.11c-0.02,0.56-0.03,13.83-0.03,18.18l-0.02-0.02
		c-1.97-2.18-3.92-5.52-5.21-8.93c-0.51-1.34-1.65-1.1-3.21-0.62c-0.68,0.21-2.75,0.85-2.3,2.35L25.71,65.08z"/>
	<path d="M86.05,81.79L86.05,81.79c-0.68-0.68-1.25-1.07-1.76-1.22c-0.51-0.15-0.97-0.04-1.33,0.32l-0.33,0.33
		c-3.49,3.49-7.55,6.23-12.07,8.14c-4.68,1.98-9.66,2.98-14.78,2.98c-5.13,0-10.1-1-14.78-2.98c-4.52-1.91-8.59-4.65-12.07-8.14
		c-3.63-3.63-6.37-7.7-8.14-12.07c-1.72-4.27-2.29-7.48-2.47-8.53c-0.02-0.1-0.03-0.18-0.04-0.23c-0.24-1.24-1.38-1.33-3.02-1.08
		c-0.68,0.1-2.76,0.42-2.56,1.92l0,0.03c0.55,3.46,1.52,6.86,2.89,10.09c2.2,5.2,5.34,9.86,9.35,13.87
		c4.01,4.01,8.67,7.15,13.87,9.35C44.16,96.85,49.88,98,55.77,98c5.89,0,11.6-1.15,16.99-3.43c5.19-2.2,9.86-5.34,13.87-9.35
		c0.01-0.01,0.23-0.23,0.35-0.36C87.41,84.38,87.8,83.54,86.05,81.79z"/>
	<path d="M48.04,59.88c0.01,0.64,0.59,1.19,0.94,1.53l0.11,0.11c0.6,0.59,1.16,0.88,1.69,0.88c0.43,0,0.7-0.21,0.8-0.29
		c0.26-0.24,3.23-3.26,3.52-3.54l3.31,3.3c0.31,0.35,0.64,0.52,1.03,0.53c0.53,0,1.11-0.31,1.71-0.94c1.43-1.46,0.71-2.25,0.37-2.63
		l-3.36-3.36l3.5-3.53c0.77-0.83,0.09-1.71-0.59-2.39c-0.98-0.98-1.93-1.24-2.54-0.68l-3.48,3.49l-3.52-3.52
		c-0.19-0.18-0.42-0.27-0.68-0.27c-0.47,0-1.02,0.32-1.65,0.94c-1.08,1.08-1.32,1.83-0.75,2.43l3.52,3.51l-3.5,3.51
		C48.18,59.25,48.04,59.56,48.04,59.88z"/>
</g>
</svg>
