<?xml version="1.0" encoding="utf-8"?>
<!-- Generator: Adobe Illustrator 22.0.1, SVG Export Plug-In . SVG Version: 6.00 Build 0)  -->
<svg version="1.1" id="Layer_2_1_" xmlns="http://www.w3.org/2000/svg" xmlns:xlink="http://www.w3.org/1999/xlink" x="0px" y="0px"
	 viewBox="0 0 100 100" style="enable-background:new 0 0 100 100;" xml:space="preserve">
<style type="text/css">
	.st0{display:none;fill:#F7F7F7;}
</style>
<rect x="5" y="5" class="st0" width="90" height="90"/>
<path d="M75.3,3.1H24.7c-2.6,0-4.8,2.1-4.8,4.8v73.6c0,1.9,1.1,3.5,2.8,4.3v9.9c0,1,1.2,1.6,2,0.8l4.3-4.1l4.3,4.1
	c0.7,0.7,2,0.2,2-0.8v-9.5h40c2.6,0,4.8-2.1,4.8-4.8V7.9C80.1,5.3,77.9,3.1,75.3,3.1z M74.6,25.9H62.7V8.6h11.9V25.9z M25.4,63.5
	h31.7v17.3H25.4V63.5z M25.4,58V31.4h31.7V58H25.4z M62.7,31.4h11.9V58H62.7V31.4z M57.2,8.6v17.3H25.4V8.6H57.2z M62.7,80.8V63.5
	h11.9v17.3H62.7z"/>
</svg>
