<?xml version="1.0" encoding="utf-8"?>
<!-- Generator: Adobe Illustrator 22.0.1, SVG Export Plug-In . SVG Version: 6.00 Build 0)  -->
<svg version="1.1" id="Layer_2_1_" xmlns="http://www.w3.org/2000/svg" xmlns:xlink="http://www.w3.org/1999/xlink" x="0px" y="0px"
	 viewBox="0 0 100 100" style="enable-background:new 0 0 100 100;" xml:space="preserve">
<path d="M85,82.6c-3.4-3.4-5.7-7.8-6.5-12.5c0-0.1,0-0.2,0-0.3l-4.4-29.1c-0.3-1.6-0.4-3-0.6-4.4c-0.6-11.6-9.7-20.9-21.1-22.2V5.4
	c0-1.5-1.2-2.8-2.8-2.8S47,3.9,47,5.4v8.8c-11.1,1.4-19.9,10.6-20.5,22.2c0,1-0.2,2.2-0.4,3.3l-4.5,28.9l-0.4,2.5
	c-1,4.5-3.1,8.5-6.3,11.5c-1.1,1.1-1.5,2.8-0.9,4.3c0.6,1.4,2,2.4,3.6,2.4h27.1c0,0.3-0.1,0.5-0.1,0.8l-0.1,2.2
	c-0.1,2.8,2.1,5.1,4.8,5.1c0.1,0,0.1,0,0.2,0c2.7,0,4.9-2.1,5-4.8l0.1-2.2c0-0.4,0-0.7-0.1-1.1h27.7c1.6,0,3-0.9,3.6-2.4
	C86.5,85.4,86.2,83.7,85,82.6z M21.3,83.8c2.6-3.3,4.5-7.3,5.4-11.6c0.2-0.7,0.3-1.4,0.3-2.1c0-0.2,0.1-0.5,0.1-0.8l4.3-27.9l0.1-1
	c0.2-1.2,0.3-2.5,0.4-3.8c0.5-9.4,8.1-16.8,17.4-17.1c0.1,0,0.2,0,0.4,0c0.2,0,0.3,0,0.5-0.1c9.5,0.2,17.3,7.6,17.8,17.2
	c0.1,1.6,0.3,3.2,0.6,4.8L73,70.3c0,0.1,0,0.3,0.1,0.4l0,0.2c0.8,4.7,2.7,9.1,5.6,12.9H21.3z"/>
</svg>
