<?xml version="1.0" encoding="utf-8"?>
<!-- Generator: Adobe Illustrator 22.0.1, SVG Export Plug-In . SVG Version: 6.00 Build 0)  -->
<svg version="1.1" id="Layer_1" xmlns="http://www.w3.org/2000/svg" xmlns:xlink="http://www.w3.org/1999/xlink" x="0px" y="0px"
	 viewBox="0 0 100 100" style="enable-background:new 0 0 100 100;" xml:space="preserve">
<g>
	<path d="M83.4,33.2c2.9-2.5,4.7-6.2,4.7-10.1c0-7.4-6-13.4-13.4-13.4c-5.4,0-10,3.2-12.1,7.9c-3.1-1-6.4-1.7-9.9-1.9v-7h5.2
		c1.5,0,2.8-1.2,2.8-2.8s-1.2-2.8-2.8-2.8H42.1c-1.5,0-2.8,1.2-2.8,2.8s1.2,2.8,2.8,2.8h5.2v7c-3.1,0.2-6.2,0.8-9.1,1.7
		c-2.2-4.5-6.8-7.5-12-7.5c-7.4,0-13.4,6-13.4,13.4c0,3.6,1.5,7,4.2,9.5c-4.7,6.6-7.5,14.7-7.5,23.4c0,22.4,18.2,40.6,40.6,40.6
		c22.4,0,40.6-18.2,40.6-40.6C90.6,47.7,87.9,39.8,83.4,33.2z M74.7,15.2c4.4,0,7.9,3.5,7.9,7.9c0,2.2-1,4.3-2.6,5.8
		c-3.5-3.8-7.6-6.9-12.3-9.2C69,17,71.7,15.2,74.7,15.2z M18.2,23.3c0-4.4,3.5-7.9,7.9-7.9c2.9,0,5.5,1.6,6.8,4
		c-4.8,2.2-9,5.3-12.6,9.1C19,27.1,18.2,25.2,18.2,23.3z M50,91.3c-19.3,0-35.1-15.7-35.1-35.1c0-8.2,2.8-15.8,7.6-21.7
		c0.3-0.2,0.5-0.4,0.7-0.7c0-0.1,0.1-0.1,0.1-0.2c3.7-4.3,8.3-7.7,13.6-9.9c0,0,0.1,0,0.1,0c0.4-0.1,0.7-0.2,1-0.4
		c3.5-1.3,7.3-2,11.2-2.1c0.2,0.1,0.5,0.1,0.8,0.1s0.5-0.1,0.8-0.1c4.4,0.1,8.5,1,12.3,2.5c0.2,0.1,0.3,0.2,0.5,0.2
		c5.3,2.2,9.9,5.7,13.5,10.1c0.1,0.2,0.3,0.4,0.5,0.6c4.7,6,7.5,13.5,7.5,21.6C85.1,75.5,69.3,91.3,50,91.3z"/>
	<path d="M70.6,55.7H52.7V34.9c0-1.5-1.2-2.8-2.8-2.8s-2.8,1.2-2.8,2.8v20.8h-4.2c-1.5,0-2.8,1.2-2.8,2.8s1.2,2.8,2.8,2.8h4.2v4.2
		c0,1.5,1.2,2.8,2.8,2.8s2.8-1.2,2.8-2.8v-4.2h17.8c1.5,0,2.8-1.2,2.8-2.8S72.1,55.7,70.6,55.7z"/>
</g>
</svg>
