<?xml version="1.0" encoding="utf-8"?>
<!-- Generator: Adobe Illustrator 22.0.1, SVG Export Plug-In . SVG Version: 6.00 Build 0)  -->
<svg version="1.1" id="Layer_1" xmlns="http://www.w3.org/2000/svg" xmlns:xlink="http://www.w3.org/1999/xlink" x="0px" y="0px"
	 viewBox="0 0 100 100" style="enable-background:new 0 0 100 100;" xml:space="preserve">
<g>
	<path d="M46.7,57c0.2,0,0.4,0,0.7-0.1c0.3-0.1,0.5-0.1,0.6-0.1c2.4-0.6,4.3-2.2,5.6-4.7c0.6-1.1,1.1-2.3,1.4-3.6
		c0.3-1.3,0.5-2.3,0.5-3.2c0-0.8,0-2.1,0-4v-2.2c-3.3,0-5.9,0.2-7.6,0.7c-5.1,1.4-7.6,4.6-7.6,9.6c0,2.2,0.6,4,1.7,5.4
		C43.3,56.3,44.8,57,46.7,57z M49.5,45.2c0.2,0,0.4-0.1,0.6-0.1c0,0,0,0.1,0,0.1c0,0.2,0,0.7-0.4,2c-0.2,0.8-0.5,1.5-0.8,2.1l0,0.1
		l0,0.1c-0.6,1.2-1.3,1.6-1.9,1.8c-0.1,0-0.3,0-0.5,0.1c0,0-0.1,0-0.1,0c0,0,0,0,0,0c-0.3-0.3-0.4-1-0.4-1.9
		C46,47.4,46.5,46.1,49.5,45.2z"/>
	<path d="M24,37.9c-2.6,3.7-3.9,8.2-3.9,13.3c0,6.5,2,11.8,6,15.6c3.9,3.7,8.9,5.6,14.7,5.6c3.4,0,6.3-0.4,8.8-1.1
		c2.5-0.7,4.9-2,7.3-3.8c0.1,0.1,0.3,0.3,0.5,0.5c0.7,0.8,1.6,1.6,2.5,2.4l0.7,0.6l0.8,0.3c1.1,0.5,2.2,0.7,3.3,0.7
		c1.7,0,3.3-0.5,4.6-1.5l0.1-0.1l0.1-0.1c0.4-0.3,3-2.6,7.7-6.7c1.7-1.4,2.7-3.3,2.7-5.5c0-1.5-0.5-3-1.4-4.4l-0.1-0.1l-0.1-0.1
		c-0.9-1.1-1.5-2-1.9-2.5c0-0.1-0.2-0.4-0.5-1.3c-0.2-0.6-0.3-1.4-0.3-2.3V26.5c0-0.2,0-0.6-0.1-2.5c-0.1-1.8-0.2-2.9-0.5-3.8
		c0-0.1-0.1-0.5-0.4-1.7c-0.4-1.5-0.8-2.7-1.3-3.7c-0.4-0.7-0.9-1.5-1.6-2.4c-0.6-0.9-1.4-1.7-2.1-2.5L69.4,10l-0.1-0.1
		c-4.7-4.3-11.1-6.6-19.1-6.6h-2.2h-0.2l-0.2,0c-6.1,0.3-11.5,2-16.1,5c-5.1,3.3-8.3,8.3-9.6,14.9c-0.1,0.6-0.2,1.2-0.2,1.8
		c0,3.4,2.2,6.1,5.7,6.9l0.3,0.1l0.3,0l1.6,0.2C27.5,33.8,25.6,35.7,24,37.9z M36.6,34.7c3.1-1.3,6.9-2.3,11.5-2.9
		c1.6-0.2,4.1-0.4,7.6-0.7v-1.5c0-3.7-0.4-6.2-1.2-7.4c-1.2-1.7-3.1-2.6-5.7-2.6h-0.7c-1.9,0.2-3.5,0.8-4.9,1.8
		c-1.4,1-2.3,2.5-2.7,4.3c-0.2,1.2-0.8,1.8-1.7,2l-9.9-1.2c-1-0.2-1.5-0.7-1.5-1.6c0-0.2,0-0.4,0.1-0.6c1-5.1,3.4-8.9,7.2-11.4
		c3.8-2.5,8.3-3.9,13.4-4.1h2.2c6.6,0,11.7,1.7,15.4,5.1c0.6,0.6,1.1,1.2,1.6,1.9c0.5,0.7,0.9,1.3,1.2,1.8c0.3,0.5,0.5,1.3,0.8,2.2
		c0.2,1,0.4,1.7,0.5,2c0.1,0.4,0.2,1.2,0.3,2.4c0.1,1.2,0.1,2,0.1,2.2v20.9c0,1.5,0.2,2.9,0.6,4.1c0.4,1.2,0.8,2.1,1.3,2.7
		s1.1,1.4,2,2.6c0.3,0.5,0.5,1,0.5,1.4c0,0.5-0.2,0.9-0.7,1.2c-4.8,4.1-7.4,6.4-7.8,6.7c-0.4,0.3-0.8,0.4-1.3,0.4
		c-0.4,0-0.8-0.1-1.2-0.3c-0.8-0.7-1.5-1.4-2.1-2c-0.6-0.6-1-1.1-1.3-1.4c-0.3-0.3-0.7-0.8-1.3-1.7c-0.6-0.8-1-1.4-1.2-1.7
		c-3.2,3.5-6.4,5.7-9.5,6.6c-2,0.6-4.4,0.9-7.3,0.9c-4.4,0-8.1-1.4-10.9-4.1c-2.9-2.7-4.3-6.6-4.3-11.6c0-4,1-7.4,2.9-10.2
		C30.5,38.2,33.2,36.1,36.6,34.7z M45.9,26.6c0.2-0.5,0.4-0.6,0.5-0.7c0.5-0.4,1.1-0.6,1.9-0.7h0.4c0.1,0,0.7,0,1.1,0.1
		c0,0.2,0.1,0.4,0.2,0.8c-1,0.1-1.8,0.2-2.5,0.3l0,0l0,0C46.9,26.4,46.4,26.5,45.9,26.6z"/>
	<path d="M81.1,79.2c-0.2,0.1-0.5,0.2-1,0.4c-0.5,0.2-0.8,0.3-1.1,0.4c-9.3,3.5-18.6,5.3-28.1,5.3c-14.3,0-27.4-3.5-39.6-10.5
		c-0.5-0.3-0.9-0.3-1.2,0.1C10,75,10,75.2,10,75.3c0,0.2,0.1,0.5,0.4,0.7c5.3,4.8,11.4,8.5,18.1,11.2c6.7,2.6,13.9,4,21.5,4
		c4.9,0,9.9-0.7,15.1-2c5.1-1.4,9.8-3.3,14-5.7c1.4-0.8,2.5-1.6,3.3-2.2c0.7-0.5,0.8-1,0.4-1.6C82.4,79,81.8,78.9,81.1,79.2z"/>
	<path d="M89.7,74.2c-0.4-0.5-1.7-0.9-3.9-1.1c-0.4-0.1-0.9-0.1-1.4-0.1c-1.7,0-3.5,0.3-5.4,0.8c-1.1,0.3-2.3,0.8-3.5,1.7
		c-0.2,0.2-0.3,0.4-0.4,0.6c0,0.1-0.1,0.2-0.1,0.2c0,0.1,0,0.2,0.1,0.3c0.1,0.1,0.3,0.1,0.6,0.1c1-0.1,2.1-0.3,3.3-0.4
		c1.1-0.1,2.1-0.1,2.9-0.1c2.2,0,3.6,0.3,4.1,0.9c0.2,0.2,0.3,0.6,0.3,1.2c0,1.6-0.9,4.6-2.7,8.8c-0.1,0.4-0.1,0.7,0.2,0.8
		c0.1,0,0.2,0.1,0.3,0.1c0.2,0,0.4-0.1,0.7-0.3c1.6-1.4,2.9-3.3,3.9-5.6s1.4-4.3,1.4-6v-0.5C90,74.9,89.9,74.5,89.7,74.2z"/>
</g>
</svg>
