<?xml version="1.0" encoding="utf-8"?>
<!-- Generator: Adobe Illustrator 21.0.0, SVG Export Plug-In . SVG Version: 6.00 Build 0)  -->
<svg version="1.1" id="Layer_1" xmlns="http://www.w3.org/2000/svg" xmlns:xlink="http://www.w3.org/1999/xlink" x="0px" y="0px"
	 viewBox="0 0 100 100" style="enable-background:new 0 0 100 100;" xml:space="preserve">
<style type="text/css">
	.st0{fill-rule:evenodd;clip-rule:evenodd;}
</style>
<g>
	<path class="st0" d="M85.7,71.2C74.4,76,62.1,78.3,51,78.3c-16.5,0-32.6-4.5-45.5-12.1c-1.1-0.7-2,0.5-1,1.4
		C16.4,78.4,32.3,85,49.9,85c12.6,0,27.2-4,37.2-11.4C88.8,72.3,87.4,70.5,85.7,71.2z"/>
	<path class="st0" d="M95.6,65.5C94.5,64.1,85.1,63,79.3,67c-0.9,0.6-0.7,1.5,0.3,1.4c3.2-0.4,10.5-1.3,11.8,0.4
		c1.3,1.7-1.4,8.4-2.6,11.5c-0.4,0.9,0.4,1.3,1.3,0.6C95.4,76.3,96.8,66.9,95.6,65.5z"/>
	<path class="st0" d="M54.6,33.2c-4.8,0.5-11.2,0.9-15.7,2.9C33.7,38.4,30,43,30,49.8c0,8.7,5.5,13,12.5,13c5.9,0,9.2-1.4,13.8-6.1
		c1.5,2.2,2,3.3,4.8,5.6c0.6,0.3,1.4,0.3,2-0.2l0,0c1.7-1.5,4.7-4.1,6.4-5.5c0.7-0.6,0.6-1.5,0-2.2c-1.5-2.1-3.2-3.8-3.2-7.7v-13
		c0-5.5,0.4-10.6-3.7-14.4c-3.2-3.1-8.5-4.2-12.6-4.2c-8,0-16.8,3-18.7,12.8c-0.2,1,0.6,1.6,1.2,1.7l8.1,0.9c0.8,0,1.3-0.8,1.5-1.5
		c0.7-3.4,3.5-5,6.7-5c1.7,0,3.7,0.6,4.7,2.2c1.2,1.7,1,4.1,1,6.1V33.2z M53.1,50.6c-1.3,2.3-3.4,3.8-5.8,3.8
		c-3.2,0-5.1-2.4-5.1-6.1c0-7.1,6.4-8.4,12.4-8.4v1.8C54.6,45,54.7,47.7,53.1,50.6z"/>
</g>
</svg>
