<?xml version="1.0" encoding="utf-8"?>
<!-- Generator: Adobe Illustrator 22.0.1, SVG Export Plug-In . SVG Version: 6.00 Build 0)  -->
<svg version="1.1" id="Layer_1" xmlns="http://www.w3.org/2000/svg" xmlns:xlink="http://www.w3.org/1999/xlink" x="0px" y="0px"
	 viewBox="0 0 100 100" style="enable-background:new 0 0 100 100;" xml:space="preserve">
<g>
	<path d="M90.7,18.1H38.4c-2.7,0-4.9,2.2-4.9,4.9v5.7h-6.4v-1.9c0-1.1-0.9-2-2-2h-3c-1.1,0-2,0.9-2,2v1.9H16c-1.9,0-3.7,1.2-4.4,2.9
		L10,35.3l-5.5,13v3.3v13.8c0,2.7,2.2,4.9,4.9,4.9h1.3c0,0.1,0,0.3,0,0.4c0,6.2,5,11.2,11.2,11.2c6.2,0,11.2-5,11.2-11.2
		c0-0.1,0-0.3,0-0.4h3.3v0h28.2c0,0.1,0,0.3,0,0.4c0,6.2,5,11.2,11.2,11.2c6.2,0,11.2-5,11.2-11.2c0-0.1,0-0.3,0-0.4h3.8
		c2.7,0,4.9-2.2,4.9-4.9V23C95.5,20.3,93.3,18.1,90.7,18.1z M16.5,34.2h17.1v11.9H11.4L16.5,34.2z M21.8,76.4
		c-3.1,0-5.7-2.6-5.7-5.7c0-3.1,2.6-5.7,5.7-5.7c3.1,0,5.7,2.6,5.7,5.7C27.5,73.8,24.9,76.4,21.8,76.4z M21.8,59.5
		c-4,0-7.5,2.1-9.5,5.3H10V51.6h23.5v13.2h-2.2c0,0,0,0,0,0C29.3,61.6,25.8,59.5,21.8,59.5z M75.7,76.4c-3.1,0-5.7-2.6-5.7-5.7
		c0-3.1,2.6-5.7,5.7-5.7s5.7,2.6,5.7,5.7C81.4,73.8,78.8,76.4,75.7,76.4z M90,64.8h-4.9c-2-3.2-5.5-5.3-9.5-5.3
		c-4,0-7.5,2.1-9.5,5.3H39V51.6V28.7v-5.1h51V64.8z"/>
	<path d="M55.9,45.1h7.2v7.2c0,1.5,1.2,2.8,2.8,2.8s2.8-1.2,2.8-2.8v-7.2h7.2c1.5,0,2.8-1.2,2.8-2.8s-1.2-2.8-2.8-2.8h-7.2v-7.2
		c0-1.5-1.2-2.8-2.8-2.8s-2.8,1.2-2.8,2.8v7.2h-7.2c-1.5,0-2.8,1.2-2.8,2.8S54.4,45.1,55.9,45.1z"/>
</g>
</svg>
