<?xml version="1.0" encoding="utf-8"?>
<!-- Generator: Adobe Illustrator 22.0.1, SVG Export Plug-In . SVG Version: 6.00 Build 0)  -->
<svg version="1.1" id="Layer_2_1_" xmlns="http://www.w3.org/2000/svg" xmlns:xlink="http://www.w3.org/1999/xlink" x="0px" y="0px"
	 viewBox="0 0 100 100" style="enable-background:new 0 0 100 100;" xml:space="preserve">
<path d="M82.8,73.2l-8.1-8.1c-0.8-0.8-2-0.8-2.8,0l-8.5,8.5c-1.1,1.1-1.1,2.8,0,3.9h0c1.1,1.1,2.8,1.1,3.9,0l2.9-2.9
	c-1,9.3-8.2,16.6-17.4,17.9c0,0,0,0,0,0V36.9l14.4,0c1.3,0,2.5-0.9,2.8-2.2c0.3-1.8-1-3.3-2.7-3.3H52.8v-5.7
	c5.4-1.3,9.5-6.2,9.4-12.1C62,7.3,56.8,2,50.5,1.8C43.6,1.5,37.9,7,37.9,13.9c0,5.7,4,10.6,9.4,11.8v5.7l-14.6,0
	c-1.3,0-2.5,0.9-2.8,2.2c-0.3,1.8,1,3.3,2.7,3.3h14.7v55.6c0,0,0,0,0,0c-9.3-1.3-16.6-8.9-17.4-18.3l2.9,2.9c1.1,1.1,2.8,1.1,3.9,0
	h0c1.1-1.1,1.1-2.8,0-3.9l-8.1-8.1c-0.8-0.8-2-0.8-2.8,0l-8.5,8.5c-1.1,1.1-1.1,2.8,0,3.9l0,0c1.1,1.1,2.8,1.1,3.9,0l3.2-3.2
	C25.3,87.7,36.4,98.3,50,98.3c13.7,0,25-10.8,25.7-24.3l3.2,3.2c1.1,1.1,2.8,1.1,3.9,0l0,0C83.9,76.1,83.9,74.3,82.8,73.2z
	 M43.4,13.9c0-3.7,3-6.6,6.6-6.6s6.6,3,6.6,6.6s-3,6.6-6.6,6.6S43.4,17.5,43.4,13.9z"/>
</svg>
