<?xml version="1.0" encoding="utf-8"?>
<!-- Generator: Adobe Illustrator 22.0.1, SVG Export Plug-In . SVG Version: 6.00 Build 0)  -->
<svg version="1.1" id="Layer_1" xmlns="http://www.w3.org/2000/svg" xmlns:xlink="http://www.w3.org/1999/xlink" x="0px" y="0px"
	 viewBox="0 0 100 100" style="enable-background:new 0 0 100 100;" xml:space="preserve">
<g>
	<circle cx="41.3" cy="20.4" r="2.6"/>
	<circle cx="57.1" cy="20.4" r="2.6"/>
	<path d="M85.5,29h-1.2c-1.2,0-2.3,0.2-3.3,0.6l-0.3-1c-1.9-6.1-5.6-11.2-10.3-15l7.2-7.5c1.1-1.1,1-2.8-0.1-3.9
		c-1.1-1.1-2.8-1-3.9,0.1l-7.6,7.8c-0.1,0.1-0.2,0.2-0.3,0.4c-4.6-2.6-9.9-4-15.5-4c-5.5,0-10.7,1.4-15.3,3.9
		c-0.1-0.1-0.1-0.2-0.2-0.2l-7.6-7.8c-1.1-1.1-2.8-1.1-3.9-0.1c-1.1,1.1-1.1,2.8-0.1,3.9l7.1,7.3c-4.8,3.8-8.5,9-10.5,15.2l-0.4,1.3
		c-1.2-0.6-2.6-1-4-1h-1.2c-5,0-9,4-9,9v18.5c0,5,4,9,9,9h1.2c2,0,3.8-0.7,5.3-1.7v10.8c0,1.9,1.5,3.3,3.4,3.3H25v11.7c0,5,4,9,9,9
		h1.2c5,0,9-4,9-9V77.8h12.6v11.7c0,5,4,9,9,9h1.2c5,0,9-4,9-9V77.8c1.8-0.1,3.2-1.5,3.2-3.3V63.6c1.5,1.1,3.4,1.8,5.4,1.8h1.2
		c5,0,9-4,9-9V38C94.5,33,90.5,29,85.5,29z M26.4,72.3V33.2h47.1v39.1h-4.2H30.7H26.4z M50.4,12c10.2,0,19.3,5.8,23.7,14.8H26.7
		C31.1,17.8,40.2,12,50.4,12z M19.1,56.5c0,1.9-1.6,3.5-3.5,3.5h-1.2c-1.9,0-3.5-1.6-3.5-3.5V38c0-1.9,1.6-3.5,3.5-3.5h1.2
		c1.9,0,3.5,1.6,3.5,3.5V56.5z M38.6,89.6c0,1.9-1.6,3.5-3.5,3.5H34c-1.9,0-3.5-1.6-3.5-3.5V78.5h8.1V89.6z M70.3,89.6
		c0,1.9-1.6,3.5-3.5,3.5h-1.2c-1.9,0-3.5-1.6-3.5-3.5V78.5h8.1V89.6z M89,56.5c0,1.9-1.6,3.5-3.5,3.5h-1.2c-1.9,0-3.5-1.6-3.5-3.5
		V38c0-1.9,1.6-3.5,3.5-3.5h1.2c1.9,0,3.5,1.6,3.5,3.5V56.5z"/>
</g>
</svg>
