<?xml version="1.0" encoding="utf-8"?>
<!-- Generator: Adobe Illustrator 21.0.2, SVG Export Plug-In . SVG Version: 6.00 Build 0)  -->
<svg version="1.1" id="Layer_1" xmlns="http://www.w3.org/2000/svg" xmlns:xlink="http://www.w3.org/1999/xlink" x="0px" y="0px"
	 viewBox="0 0 100 100" style="enable-background:new 0 0 100 100;" xml:space="preserve">
<g>
	<path d="M50,87.2l42.7-42.7c1.1-1.1,2.8-1.1,3.9,0c1.1,1.1,1.1,2.8,0,3.9L52.7,92.3C52,93,51,93.4,50,93.4s-2-0.4-2.7-1.1L3.4,48.4
		c-0.5-0.5-0.8-1.2-0.8-1.9s0.3-1.4,0.8-1.9c1.1-1.1,2.8-1.1,3.9,0L50,87.2z"/>
	<path d="M50,50.1L92.7,7.4c1.1-1.1,2.8-1.1,3.9,0c1.1,1.1,1.1,2.8,0,3.9L52.7,55.2C52,55.9,51,56.3,50,56.3s-2-0.4-2.7-1.1
		L3.4,11.3C2.8,10.7,2.6,10,2.6,9.3s0.3-1.4,0.8-1.9c1.1-1.1,2.8-1.1,3.9,0L50,50.1z"/>
</g>
</svg>
