<?xml version="1.0" encoding="utf-8"?>
<!-- Generator: Adobe Illustrator 21.0.2, SVG Export Plug-In . SVG Version: 6.00 Build 0)  -->
<svg version="1.1" id="Layer_1" xmlns="http://www.w3.org/2000/svg" xmlns:xlink="http://www.w3.org/1999/xlink" x="0px" y="0px"
	 viewBox="0 0 100 100" style="enable-background:new 0 0 100 100;" xml:space="preserve">
<g>
	<path d="M87.2,50L44.5,7.3c-1.1-1.1-1.1-2.8,0-3.9c1.1-1.1,2.8-1.1,3.9,0l43.9,43.9C93,48,93.4,49,93.4,50s-0.4,2-1.1,2.7
		L48.4,96.6c-0.5,0.5-1.2,0.8-1.9,0.8s-1.4-0.3-1.9-0.8c-1.1-1.1-1.1-2.8,0-3.9L87.2,50z"/>
	<path d="M50.1,50L7.4,7.3c-1.1-1.1-1.1-2.8,0-3.9c1.1-1.1,2.8-1.1,3.9,0l43.9,43.9c0.7,0.7,1.1,1.7,1.1,2.7s-0.4,2-1.1,2.7
		L11.3,96.6c-0.5,0.5-1.2,0.8-1.9,0.8s-1.4-0.3-1.9-0.8c-1.1-1.1-1.1-2.8,0-3.9L50.1,50z"/>
</g>
</svg>
