<?xml version="1.0" encoding="utf-8"?>
<!-- Generator: Adobe Illustrator 21.0.2, SVG Export Plug-In . SVG Version: 6.00 Build 0)  -->
<svg version="1.1" id="Layer_1" xmlns="http://www.w3.org/2000/svg" xmlns:xlink="http://www.w3.org/1999/xlink" x="0px" y="0px"
	 viewBox="0 0 100 100" style="enable-background:new 0 0 100 100;" xml:space="preserve">
<g>
	<path d="M50,12.8L7.3,55.5c-1.1,1.1-2.8,1.1-3.9,0c-1.1-1.1-1.1-2.8,0-3.9L47.3,7.7C48,7,49,6.6,50,6.6s2,0.4,2.7,1.1l43.9,43.9
		c0.5,0.5,0.8,1.2,0.8,1.9s-0.3,1.4-0.8,1.9c-1.1,1.1-2.8,1.1-3.9,0L50,12.8z"/>
	<path d="M50,49.9L7.3,92.6c-1.1,1.1-2.8,1.1-3.9,0c-1.1-1.1-1.1-2.8,0-3.9l43.9-43.9c0.7-0.7,1.7-1.1,2.7-1.1s2,0.4,2.7,1.1
		l43.9,43.9c0.5,0.5,0.8,1.2,0.8,1.9s-0.3,1.4-0.8,1.9c-1.1,1.1-2.8,1.1-3.9,0L50,49.9z"/>
</g>
</svg>
