<?xml version="1.0" encoding="utf-8"?>
<!-- Generator: Adobe Illustrator 22.0.1, SVG Export Plug-In . SVG Version: 6.00 Build 0)  -->
<svg version="1.1" id="Layer_1" xmlns="http://www.w3.org/2000/svg" xmlns:xlink="http://www.w3.org/1999/xlink" x="0px" y="0px"
	 viewBox="0 0 100 100" style="enable-background:new 0 0 100 100;" xml:space="preserve">
<g>
	<path d="M75.1,23.7h2.2c0.5,0,0.7-0.2,0.7-0.7v-2.2c0-0.4-0.2-0.7-0.7-0.7h-2.2c-0.5,0-0.7,0.2-0.7,0.7V23
		C74.3,23.3,74.7,23.7,75.1,23.7z"/>
	<path d="M75.1,60.6h2.2c0.5,0,0.7-0.2,0.7-0.7v-2.2c0-0.4-0.2-0.7-0.7-0.7h-2.2c-0.5,0-0.7,0.2-0.7,0.7v2.2
		C74.3,60.3,74.7,60.6,75.1,60.6z"/>
	<path d="M75.1,79h2.2c0.5,0,0.7-0.2,0.7-0.7V76c0-0.4-0.2-0.7-0.7-0.7h-2.2c-0.5,0-0.7,0.2-0.7,0.7v2.2C74.3,78.7,74.7,79,75.1,79z
		"/>
	<path d="M20.5,33.1h-2.2c-0.5,0-0.7,0.2-0.7,0.7v2.2c0,0.5,0.4,0.7,0.7,0.7h2.2c0.5,0,0.7-0.2,0.7-0.7v-2.2
		C21.3,33.4,21,33.1,20.5,33.1z"/>
	<path d="M20.5,55.7h-2.2c-0.5,0-0.7,0.2-0.7,0.7v2.2c0,0.5,0.4,0.7,0.7,0.7h2.2c0.5,0,0.7-0.2,0.7-0.7v-2.2
		C21.3,56,21,55.7,20.5,55.7z"/>
	<path d="M20.5,78.3h-2.2c-0.5,0-0.7,0.2-0.7,0.7v2.2c0,0.5,0.4,0.7,0.7,0.7h2.2c0.5,0,0.7-0.2,0.7-0.7V79
		C21.3,78.5,21,78.3,20.5,78.3z"/>
	<path d="M42.8,50.5h-2.2c-0.5,0-0.7,0.2-0.7,0.7v2.2c0,0.4,0.2,0.7,0.7,0.7h2.2c0.5,0,0.7-0.2,0.7-0.7v-2.2
		C43.6,50.9,43.3,50.5,42.8,50.5z"/>
	<path d="M52.6,50.5h-2.2c-0.5,0-0.7,0.2-0.7,0.7v2.2c0,0.4,0.2,0.7,0.7,0.7h2.2c0.5,0,0.7-0.2,0.7-0.7v-2.2
		C53.3,50.9,53.1,50.5,52.6,50.5z"/>
	<path d="M75.1,42.2h2.2c0.5,0,0.7-0.2,0.7-0.7v-2.2c0-0.4-0.2-0.7-0.7-0.7h-2.2c-0.5,0-0.7,0.2-0.7,0.7v2.2
		C74.3,41.9,74.7,42.2,75.1,42.2z"/>
	<path d="M93.7,2.8c-0.8-0.7-2-1-3-0.9L45.4,6.8l-0.2,0c-1.9,0.4-3.3,2-3.3,3.9V16h-33c-2.3,0-4,1.7-4,4v74.1c0,2.3,1.7,4,4,4h17.2
		h7h27.4h25h5.6c2.3,0,4-1.7,4-4V5.9C95.2,4.7,94.6,3.6,93.7,2.8z M26.1,92.6H10.3V21.5h31.5v13.1l-10.2,0c-2.3,0-4,1.7-4,4v53.9
		H26.1z M51.7,92.6V83c0-1.1-0.9-2-2-2h-6.4c-1.1,0-2,0.9-2,2v9.6h-8.2V40.2l11.5-0.1l15.9-0.1v52.5H51.7z M89.7,92.6h-4.1H66v-54
		c0-2.3-1.7-4-4-4l-14.7,0.1V16v-3.9l42.3-4.5V92.6z"/>
	<path d="M42.8,66.7h-2.2c-0.5,0-0.7,0.2-0.7,0.7v2.2c0,0.4,0.2,0.7,0.7,0.7h2.2c0.5,0,0.7-0.2,0.7-0.7v-2.2
		C43.6,67.1,43.3,66.7,42.8,66.7z"/>
	<path d="M52.6,66.7h-2.2c-0.5,0-0.7,0.2-0.7,0.7v2.2c0,0.4,0.2,0.7,0.7,0.7h2.2c0.5,0,0.7-0.2,0.7-0.7v-2.2
		C53.3,67.1,53.1,66.7,52.6,66.7z"/>
	<path d="M57.1,23.7h2.2c0.5,0,0.7-0.2,0.7-0.7v-2.2c0-0.4-0.2-0.7-0.7-0.7h-2.2c-0.5,0-0.7,0.2-0.7,0.7V23
		C56.3,23.3,56.7,23.7,57.1,23.7z"/>
</g>
</svg>
