<?xml version="1.0" encoding="utf-8"?>
<!-- Generator: Adobe Illustrator 22.0.1, SVG Export Plug-In . SVG Version: 6.00 Build 0)  -->
<svg version="1.1" id="Layer_1" xmlns="http://www.w3.org/2000/svg" xmlns:xlink="http://www.w3.org/1999/xlink" x="0px" y="0px"
	 viewBox="0 0 100 100" style="enable-background:new 0 0 100 100;" xml:space="preserve">
<g>
	<path d="M86,70.5c-2.4-0.7-4.6-2.5-6.6-5.4c-2-2.9-3-6.1-3-9.8c0-3.3,0.9-6.2,2.8-9c1-1.5,2.8-3.4,5.3-5.5l2.1-1.7L84.9,37
		C83,34.6,81,32.7,79,31.4c-3.7-2.5-7.8-3.8-12.4-3.8c-2.7,0-5.9,0.6-9.7,1.9c-4,1.4-5.7,1.6-6.4,1.6c-0.4,0-1.8-0.1-6.3-1.4
		c-3.9-1.1-7.1-1.6-9.8-1.6c-6.7,0-12.3,2.8-16.7,8.4c-4.2,5.4-6.3,12.4-6.3,20.8c0,8.7,2.6,17.8,7.9,27
		c5.7,9.8,11.5,14.6,17.8,14.6c2.1,0,4.7-0.6,7.8-1.9c2.4-1,4.5-1.5,6.2-1.5c1.9,0,4.1,0.5,6.8,1.5c3.4,1.2,6.1,1.8,8.1,1.8
		c5.4,0,10.4-3.7,15.4-11.2c3-4.5,5.2-9,6.6-13.5l0.8-2.6L86,70.5z M76.6,84.4c-3.8,5.8-7.5,8.8-10.8,8.8c-0.9,0-2.8-0.3-6.2-1.5
		c-3.2-1.2-6.1-1.8-8.7-1.8c-2.5,0-5.2,0.6-8.3,1.9c-3,1.3-4.7,1.5-5.7,1.5c-4,0-8.5-4.1-13-11.8c-4.7-8.4-7.2-16.6-7.2-24.3
		c0-7.1,1.7-13,5.2-17.4c3.3-4.2,7.3-6.3,12.3-6.3c2.2,0,5,0.5,8.3,1.4c5,1.5,6.8,1.6,7.8,1.6c1.9,0,4.5-0.6,8.2-1.9
		c3.2-1.1,5.8-1.6,8-1.6c3.5,0,6.6,0.9,9.3,2.8c1,0.7,2,1.6,3,2.6c-1.8,1.7-3.2,3.3-4.2,4.7c-2.5,3.7-3.8,7.7-3.8,12.1
		c0,4.8,1.4,9.1,4,13c2,2.9,4.3,5,6.9,6.4C80.5,77.9,78.8,81.2,76.6,84.4z"/>
	<path d="M47.4,25.7l2.4,0.1c0.4,0,0.8,0,1.3,0c5.5,0,10.8-2.2,14.7-6.1c4.2-4.2,6.4-10,6.1-16l-0.1-2.4l-2.4-0.1
		c-6-0.4-11.8,1.9-16,6.1v0c-4.2,4.2-6.4,10-6.1,16L47.4,25.7z M57.2,11.2L57.2,11.2c2.5-2.5,5.7-4,9.1-4.4
		c-0.4,3.4-1.9,6.7-4.4,9.1c-2.5,2.5-5.7,4-9.1,4.4C53.2,16.9,54.8,13.6,57.2,11.2z"/>
</g>
</svg>
