<?xml version="1.0" encoding="utf-8"?>
<!-- Generator: Adobe Illustrator 22.0.1, SVG Export Plug-In . SVG Version: 6.00 Build 0)  -->
<svg version="1.1" id="Layer_2_1_" xmlns="http://www.w3.org/2000/svg" xmlns:xlink="http://www.w3.org/1999/xlink" x="0px" y="0px"
	 viewBox="0 0 100 100" style="enable-background:new 0 0 100 100;" xml:space="preserve">
<g>
	<path d="M92.2,3.3H7.8c-2.4,0-4.2,1.8-4.2,4.2v17.2c0,2.4,1.8,4.2,4.2,4.2h1.1v63.8c0,2.4,1.8,4.2,4.2,4.2h74
		c2.4,0,4.2-1.8,4.2-4.2V28.8h1c2.4,0,4.2-1.8,4.2-4.2V7.4C96.4,5.1,94.6,3.3,92.2,3.3z M9.1,8.8h81.8v14.5H9.1V8.8z M85.7,91.2
		H14.3V28.8h71.3V91.2z"/>
	<path d="M31.6,65h36.9c0.8,0,1.4-0.6,1.5-1.4V51.2c0-0.8-0.6-1.4-1.4-1.4h-37c-0.8,0-1.4,0.6-1.4,1.4v12.4
		C30.2,64.4,30.7,65,31.6,65z"/>
</g>
</svg>
