<?xml version="1.0" encoding="utf-8"?>
<!-- Generator: Adobe Illustrator 22.0.1, SVG Export Plug-In . SVG Version: 6.00 Build 0)  -->
<svg version="1.1" id="Layer_2_1_" xmlns="http://www.w3.org/2000/svg" xmlns:xlink="http://www.w3.org/1999/xlink" x="0px" y="0px"
	 viewBox="0 0 100 100" style="enable-background:new 0 0 100 100;" xml:space="preserve">
<path d="M61.1,79.5l-8.3,8.3v-2V14.2v-2l8.4,8.4c0.5,0.5,1.2,0.8,1.9,0.8c0.8,0,1.5-0.3,2.1-1c1-1.1,0.8-2.8-0.2-3.8L51.4,3
	c-0.8-0.8-2-0.8-2.8,0L35,16.6c-0.9,0.9-1.2,2.4-0.4,3.5c1,1.5,3,1.6,4.2,0.4l8.4-8.4v2v71.7v2l-8.3-8.3c-1.1-1.1-2.8-1.2-3.9-0.2
	c-1.2,1.1-1.2,2.9-0.1,4l13.1,13.1c0,0,0,0,0,0l0.5,0.5c0.8,0.8,2,0.8,2.8,0l0.5-0.5c0,0,0,0,0,0l13.1-13.1c1.1-1.1,1.1-2.9-0.1-4
	C63.9,78.3,62.1,78.5,61.1,79.5z"/>
</svg>
