<?xml version="1.0" encoding="utf-8"?>
<!-- Generator: Adobe Illustrator 22.0.1, SVG Export Plug-In . SVG Version: 6.00 Build 0)  -->
<svg version="1.1" id="Layer_1" xmlns="http://www.w3.org/2000/svg" xmlns:xlink="http://www.w3.org/1999/xlink" x="0px" y="0px"
	 viewBox="0 0 100 100" style="enable-background:new 0 0 100 100;" xml:space="preserve">
<path d="M21.5,62.1l-8.3-8.3h2h71.7h2l-8.4,8.4c-0.5,0.5-0.8,1.2-0.8,1.9c0,0.8,0.3,1.5,1,2.1c1.1,1,2.8,0.8,3.8-0.2L98,52.4
	c0.8-0.8,0.8-2,0-2.8L84.4,36c-0.9-0.9-2.4-1.2-3.5-0.4c-1.5,1-1.6,3-0.4,4.2l8.4,8.4h-2H15.2h-2l8.3-8.3c1.1-1.1,1.2-2.8,0.2-3.9
	c-1.1-1.2-2.9-1.2-4-0.1L4.6,49.1c0,0,0,0,0,0L4,49.6c-0.8,0.8-0.8,2,0,2.8l0.5,0.5c0,0,0,0,0,0l13.1,13.1c1.1,1.1,2.9,1.1,4-0.1
	C22.7,64.9,22.5,63.1,21.5,62.1z"/>
</svg>
