<?xml version="1.0" encoding="utf-8"?>
<!-- Generator: Adobe Illustrator 22.0.1, SVG Export Plug-In . SVG Version: 6.00 Build 0)  -->
<svg version="1.1" id="Layer_1" xmlns="http://www.w3.org/2000/svg" xmlns:xlink="http://www.w3.org/1999/xlink" x="0px" y="0px"
	 viewBox="0 0 100 100" style="enable-background:new 0 0 100 100;" xml:space="preserve">
<g>
	<path d="M57.6,67.6l-4.8,4.8V21c0-1.5-1.2-2.8-2.8-2.8s-2.8,1.2-2.8,2.8v51.4l-4.8-4.8c-1.1-1.1-2.8-1.1-3.9,0
		c-1.1,1.1-1.1,2.8,0,3.9L50,82.9l11.4-11.4c1.1-1.1,1.1-2.8,0-3.9S58.6,66.5,57.6,67.6z"/>
	<path d="M50,2.3C23.7,2.3,2.3,23.7,2.3,50c0,26.3,21.4,47.8,47.8,47.8c26.3,0,47.8-21.4,47.8-47.8C97.8,23.7,76.3,2.3,50,2.3z
		 M50,92.3c-23.3,0-42.3-19-42.3-42.3S26.7,7.8,50,7.8s42.3,19,42.3,42.3S73.3,92.3,50,92.3z"/>
</g>
</svg>
