<?xml version="1.0" encoding="utf-8"?>
<!-- Generator: Adobe Illustrator 22.0.1, SVG Export Plug-In . SVG Version: 6.00 Build 0)  -->
<svg version="1.1" id="Layer_1" xmlns="http://www.w3.org/2000/svg" xmlns:xlink="http://www.w3.org/1999/xlink" x="0px" y="0px"
	 viewBox="0 0 100 100" style="enable-background:new 0 0 100 100;" xml:space="preserve">
<g>
	<path d="M32.4,57.6l-4.8-4.8H79c1.5,0,2.8-1.2,2.8-2.8s-1.2-2.8-2.8-2.8H27.6l4.8-4.8c1.1-1.1,1.1-2.8,0-3.9
		c-1.1-1.1-2.8-1.1-3.9,0L17.1,50l11.4,11.4c1.1,1.1,2.8,1.1,3.9,0S33.5,58.6,32.4,57.6z"/>
	<path d="M97.8,50C97.8,23.7,76.3,2.3,50,2.3C23.7,2.3,2.3,23.7,2.3,50c0,26.3,21.4,47.8,47.8,47.8C76.3,97.8,97.8,76.3,97.8,50z
		 M7.8,50c0-23.3,19-42.3,42.3-42.3s42.3,19,42.3,42.3S73.3,92.3,50,92.3S7.8,73.3,7.8,50z"/>
</g>
</svg>
