<?xml version="1.0" encoding="utf-8"?>
<!-- Generator: Adobe Illustrator 22.0.1, SVG Export Plug-In . SVG Version: 6.00 Build 0)  -->
<svg version="1.1" id="Layer_1" xmlns="http://www.w3.org/2000/svg" xmlns:xlink="http://www.w3.org/1999/xlink" x="0px" y="0px"
	 viewBox="0 0 100 100" style="enable-background:new 0 0 100 100;" xml:space="preserve">
<g>
	<path d="M42.4,32.4l4.8-4.8V79c0,1.5,1.2,2.8,2.8,2.8s2.8-1.2,2.8-2.8V27.6l4.8,4.8c1.1,1.1,2.8,1.1,3.9,0c1.1-1.1,1.1-2.8,0-3.9
		L50,17.1L38.6,28.5c-1.1,1.1-1.1,2.8,0,3.9S41.4,33.5,42.4,32.4z"/>
	<path d="M50,97.8c26.3,0,47.8-21.4,47.8-47.8C97.8,23.7,76.3,2.3,50,2.3C23.7,2.3,2.3,23.7,2.3,50C2.3,76.3,23.7,97.8,50,97.8z
		 M50,7.8c23.3,0,42.3,19,42.3,42.3S73.3,92.3,50,92.3S7.8,73.3,7.8,50S26.7,7.8,50,7.8z"/>
</g>
</svg>
