<?xml version="1.0" encoding="utf-8"?>
<!-- Generator: Adobe Illustrator 22.0.1, SVG Export Plug-In . SVG Version: 6.00 Build 0)  -->
<svg version="1.1" id="Layer_1" xmlns="http://www.w3.org/2000/svg" xmlns:xlink="http://www.w3.org/1999/xlink" x="0px" y="0px"
	 viewBox="0 0 100 100" style="enable-background:new 0 0 100 100;" xml:space="preserve">
<path d="M53.2,95.5V12.6l9.9,9.9c1.1,1.1,2.8,1.1,3.9,0c1.1-1.1,1.1-2.8,0-3.9L50.4,2.1L48.5,4c0,0,0,0,0,0L33.9,18.6
	c-0.5,0.5-0.8,1.2-0.8,1.9s0.3,1.4,0.8,1.9c1.1,1.1,2.8,1.1,3.9,0l9.9-9.9v82.9c0,1.5,1.2,2.8,2.8,2.8C51.9,98.2,53.2,97,53.2,95.5z
	"/>
</svg>
