<?xml version="1.0" encoding="utf-8"?>
<!-- Generator: Adobe Illustrator 22.0.1, SVG Export Plug-In . SVG Version: 6.00 Build 0)  -->
<svg version="1.1" id="Layer_1" xmlns="http://www.w3.org/2000/svg" xmlns:xlink="http://www.w3.org/1999/xlink" x="0px" y="0px"
	 viewBox="0 0 100 100" style="enable-background:new 0 0 100 100;" xml:space="preserve">
<path d="M16.1,96.8c1.5,0,2.8-1.2,2.8-2.8V54.3l61.8,41.8c1.2,0.8,2.7,0.9,4,0.2c1.3-0.7,2.1-2,2.1-3.4V7.1c0-1.4-0.8-2.7-2.1-3.4
	c-0.6-0.3-1.2-0.5-1.8-0.5c-0.8,0-1.5,0.2-2.2,0.7L18.9,45.7V6c0-1.5-1.2-2.8-2.8-2.8S13.4,4.5,13.4,6v88
	C13.4,95.5,14.6,96.8,16.1,96.8z M81.1,10.2v79.6L22.3,50L81.1,10.2z"/>
</svg>
