<?xml version="1.0" encoding="utf-8"?>
<!-- Generator: Adobe Illustrator 22.0.1, SVG Export Plug-In . SVG Version: 6.00 Build 0)  -->
<svg version="1.1" id="Layer_1" xmlns="http://www.w3.org/2000/svg" xmlns:xlink="http://www.w3.org/1999/xlink" x="0px" y="0px"
	 viewBox="0 0 100 100" style="enable-background:new 0 0 100 100;" xml:space="preserve">
<path d="M85.3,27.3c0-13.8-9.4-25-20.9-25c-7.5,0-14.3,4.7-18,12.3c-2.9-1.6-6.1-2.5-9.4-2.5c-12.3,0-22.4,12.1-22.4,26.9
	c0,12.9,7.6,27,18.3,30l-1.6,6.1h2c-0.3,1.1-0.5,2.1-0.5,2.6c0.1,2.4,0.7,4.7,1.3,6.8c0.2,0.8,0.5,1.6,0.7,2.5
	c0.7,2.9,0.5,5.1-0.4,6.5c-0.8,1.3-0.5,3,0.8,3.8c0.5,0.3,1,0.5,1.5,0.5c0.9,0,1.8-0.4,2.3-1.2c1.8-2.7,2.2-6.4,1.2-10.8
	c-0.2-0.9-0.5-1.8-0.7-2.7c-0.5-1.9-1-3.7-1.1-5.4c0-0.5,0.5-2,0.8-2.5c0,0,0,0,0.1-0.1h2.7l-1.6-5.9c7-1.6,12.7-7.9,16-15.7
	c1.3,0.8,2.6,1.4,3.9,1.8c0,0,0.1,0,0.1,0l-1.3,4.8h2c-0.4,1.3-0.6,2.6-0.6,3.2c0.1,2.4,0.7,4.7,1.3,6.8c0.2,0.8,0.5,1.6,0.7,2.5
	c0.7,2.9,0.5,5.1-0.4,6.5c-0.8,1.3-0.5,3,0.8,3.8c0.5,0.3,1,0.5,1.5,0.5c0.9,0,1.8-0.4,2.3-1.2c1.8-2.7,2.2-6.4,1.1-10.8
	c-0.2-0.9-0.5-1.8-0.7-2.7c-0.5-1.9-1-3.7-1.1-5.4c0-0.5,0.5-2,0.8-2.5c0.2-0.2,0.4-0.4,0.5-0.6h2.4l-1.3-4.8c0,0,0.1,0,0.1,0
	C77.8,52.5,85.3,39.9,85.3,27.3z M37.1,64c-8.5,0-16.9-12.4-16.9-25.1c0-11.8,7.6-21.4,16.9-21.4S54,27.1,54,38.9
	C54,51.6,45.6,64,37.1,64z M58.2,48.1c0.8-3,1.2-6.1,1.2-9.1c0-8.5-3.3-16.1-8.4-21c2.7-6.2,7.8-10.2,13.5-10.2
	c8.5,0,15.4,8.7,15.4,19.5c0,10-6,20.7-12.8,22.8c-1.7,0.5-3.4,0.5-5.1,0C60.7,49.7,59.5,49,58.2,48.1z"/>
</svg>
