<?xml version="1.0" encoding="utf-8"?>
<!-- Generator: Adobe Illustrator 22.0.1, SVG Export Plug-In . SVG Version: 6.00 Build 0)  -->
<svg version="1.1" id="Layer_2_1_" xmlns="http://www.w3.org/2000/svg" xmlns:xlink="http://www.w3.org/1999/xlink" x="0px" y="0px"
	 viewBox="0 0 100 100" style="enable-background:new 0 0 100 100;" xml:space="preserve">
<path d="M94,91.3h-9V56.3c0-3.1-2.5-5.6-5.6-5.6H65.9c-3.1,0-5.6,2.5-5.6,5.6v34.9H47V34c0-3.1-2.5-5.6-5.6-5.6H27.9
	c-3.1,0-5.6,2.5-5.6,5.6v57.3H8.8V6c0-1.5-1.2-2.8-2.8-2.8S3.3,4.5,3.3,6v87c0,2.1,1.7,3.8,3.8,3.8h15.4H47h13.3H85h9
	c1.5,0,2.8-1.2,2.8-2.8S95.5,91.3,94,91.3z M27.9,91.3l0.1-57.3L41.5,34v57.3H27.9z M65.8,91.3l0.1-35l13.6,0.1v34.9H65.8z"/>
</svg>
