<?xml version="1.0" encoding="utf-8"?>
<!-- Generator: Adobe Illustrator 22.0.1, SVG Export Plug-In . SVG Version: 6.00 Build 0)  -->
<svg version="1.1" id="Layer_1" xmlns="http://www.w3.org/2000/svg" xmlns:xlink="http://www.w3.org/1999/xlink" x="0px" y="0px"
	 viewBox="0 0 100 100" style="enable-background:new 0 0 100 100;" xml:space="preserve">
<path d="M90.1,21.4C83.9,12.6,75.2,6.3,64.9,3C58.1,0.8,51.1,0.2,44,1.1c-8.2,1.1-16,4.1-22.6,8.8C14.6,14.7,9.2,21.1,5.7,28.4
	c-3.2,6.7-4.9,13.5-5,20.4c-0.2,10.8,3,21.1,9.2,29.8c6.4,8.9,15.1,15.3,25.2,18.4c4.9,1.5,9.9,2.3,14.9,2.3c2,0,4-0.1,6-0.4
	c8.2-1.1,16-4.1,22.6-8.8c6.8-4.8,12.2-11.3,15.7-18.5c3.2-6.7,4.9-13.5,5-20.4C99.6,40.5,96.4,30.1,90.1,21.4z M93.8,51.1
	c0,2.4-0.3,4.9-0.8,7.3c-9.6,1-18.8,4.2-26.9,9.5L54,50.8L87.3,27C91.8,34.3,94,42.5,93.8,51.1z M84.1,22.5L50.8,46.3L38.6,29.2
	c7.7-6,13.8-13.7,17.8-22.6C58.7,7,61,7.5,63.3,8.2C71.6,10.9,78.7,15.8,84.1,22.5z M44.7,6.5c1.8-0.2,3.6-0.3,5.4-0.3
	c0.2,0,0.3,0,0.5,0c-3.6,7.2-8.8,13.5-15.1,18.5l-8.5-11.9C32.2,9.5,38.3,7.3,44.7,6.5z M22.4,16l8.5,11.9
	c-6.8,4.4-14.5,7.2-22.5,8.4c0.6-1.9,1.4-3.7,2.2-5.5C13.3,25.1,17.4,20.1,22.4,16z M6.2,48.9c0-2.3,0.3-4.6,0.7-6.9
	c9.7-1,19-4.3,27.2-9.6l12.2,17.1L12.9,73.3C8.3,66,6,57.6,6.2,48.9z M16.1,77.8L49.5,54l12.2,17.1C54.1,77.1,48,84.7,43.9,93.4
	c-2.4-0.3-4.8-0.9-7.2-1.6C28.6,89.3,21.6,84.5,16.1,77.8z M55.3,93.5c-1.8,0.2-3.7,0.3-5.5,0.3c3.6-7.1,8.8-13.3,15.1-18.2
	l8.3,11.6C67.8,90.5,61.7,92.7,55.3,93.5z M77.6,84l-8.3-11.6c6.7-4.3,14.2-7.1,22.1-8.2c-0.6,1.7-1.3,3.4-2.1,5
	C86.7,74.9,82.6,79.9,77.6,84z"/>
</svg>
