<?xml version="1.0" encoding="utf-8"?>
<!-- Generator: Adobe Illustrator 22.0.1, SVG Export Plug-In . SVG Version: 6.00 Build 0)  -->
<svg version="1.1" id="Layer_1" xmlns="http://www.w3.org/2000/svg" xmlns:xlink="http://www.w3.org/1999/xlink" x="0px" y="0px"
	 viewBox="0 0 100 100" style="enable-background:new 0 0 100 100;" xml:space="preserve">
<g>
	<path d="M44.9,35.1c0-9.7-7.9-17.7-17.7-17.7H7.2c-2.6,0-4.8,2.1-4.8,4.8v25.1v5.5v25.1c0,2.6,2.1,4.8,4.8,4.8h20.1
		c9.7,0,17.7-7.9,17.7-17.7c0-6.3-3.3-11.8-8.2-14.9C41.6,46.9,44.9,41.4,44.9,35.1z M39.4,64.9c0,6.7-5.5,12.2-12.2,12.2H7.9V52.8
		h19.3c0,0,0,0,0,0C34,52.8,39.4,58.2,39.4,64.9z M27.3,47.3H7.9V22.9h19.3c6.7,0,12.2,5.5,12.2,12.2S34,47.3,27.3,47.3z"/>
	<path d="M96.4,61.8c0.9-1,1.3-2.3,1.2-3.6c-1.2-11.1-10.6-19.4-21.8-19.4c-6.9,0-13.5,3.3-17.6,8.9c-2.8,3.8-4.3,8.3-4.3,13
		c0,12.1,9.8,21.9,21.9,21.9c8.7,0,16.6-5.2,20.1-13.1c0.6-1.4,0-3-1.4-3.6c-1.4-0.6-3,0-3.6,1.4c-2.6,6-8.5,9.8-15.1,9.8
		c-8.1,0-14.9-5.9-16.2-13.7h33.3C94.2,63.4,95.5,62.8,96.4,61.8z M59.6,57.9c0.4-2.5,1.4-4.9,3-7c3.1-4.2,8-6.7,13.2-6.7
		c8.1,0,14.9,5.8,16.2,13.7H59.6z"/>
	<path d="M60.4,31.4h30c1.5,0,2.8-1.2,2.8-2.8s-1.2-2.8-2.8-2.8h-30c-1.5,0-2.8,1.2-2.8,2.8S58.9,31.4,60.4,31.4z"/>
</g>
</svg>
