<?xml version="1.0" encoding="utf-8"?>
<!-- Generator: Adobe Illustrator 23.0.1, SVG Export Plug-In . SVG Version: 6.00 Build 0)  -->
<svg version="1.1" id="Layer_1" xmlns="http://www.w3.org/2000/svg" xmlns:xlink="http://www.w3.org/1999/xlink" x="0px" y="0px"
	 viewBox="0 0 100 100" style="enable-background:new 0 0 100 100;" xml:space="preserve">
<g>
	<path d="M41.05,46.98c2.56-1.21,4.47-2.77,5.78-4.67c1.29-1.9,1.94-4.28,1.94-7.13c0-2.63-0.43-4.86-1.29-6.64
		c-0.88-1.81-2.12-3.24-3.69-4.32c-1.6-1.08-3.5-1.86-5.72-2.33c-2.23-0.48-4.68-0.72-7.38-0.72H4v56.59h27.43
		c2.53,0,5.01-0.32,7.4-0.95c2.41-0.63,4.56-1.61,6.44-2.93c1.86-1.32,3.37-3.02,4.48-5.12c1.1-2.08,1.65-4.55,1.65-7.42
		c0-3.54-0.84-6.56-2.56-9.08C47.12,49.74,44.54,47.98,41.05,46.98z M16.46,30.81h11.66c1.1,0,2.18,0.08,3.2,0.28
		c1.04,0.18,1.95,0.51,2.74,0.99c0.8,0.46,1.44,1.12,1.92,1.97c0.46,0.84,0.69,1.93,0.69,3.25c0,2.37-0.69,4.1-2.13,5.15
		c-1.45,1.06-3.28,1.59-5.48,1.59h-12.6V30.81z M38.21,64.31c-0.5,0.96-1.19,1.71-2.03,2.26c-0.83,0.57-1.82,0.96-2.94,1.2
		c-1.1,0.25-2.26,0.35-3.49,0.35h-13.3V52.54H30c2.68,0,4.86,0.62,6.5,1.86c1.63,1.26,2.45,3.33,2.45,6.25
		C38.96,62.13,38.72,63.36,38.21,64.31z"/>
	<path d="M95.15,50.86c-0.74-2.91-1.93-5.51-3.6-7.78c-1.67-2.27-3.8-4.09-6.39-5.43c-2.6-1.36-5.64-2.03-9.11-2.03
		c-3.14,0-5.97,0.56-8.55,1.67c-2.57,1.11-4.78,2.64-6.64,4.57c-1.86,1.92-3.27,4.21-4.29,6.87c-1,2.65-1.51,5.51-1.51,8.57
		c0,3.17,0.49,6.09,1.47,8.73c0.99,2.66,2.38,4.92,4.16,6.83c1.83,1.9,4.01,3.36,6.62,4.41c2.61,1.03,5.51,1.55,8.74,1.55
		c4.63,0,8.61-1.06,11.86-3.19c3.3-2.12,5.71-5.64,7.31-10.57h-9.91c-0.38,1.27-1.38,2.49-3.01,3.63c-1.65,1.14-3.61,1.72-5.88,1.72
		c-3.16,0-5.59-0.83-7.28-2.47c-1.69-1.65-2.79-4.71-2.79-7.95h29.57C96.14,56.81,95.88,53.77,95.15,50.86z M66.36,52.89
		c0.05-0.8,0.22-1.7,0.51-2.7c0.29-1.02,0.78-1.98,1.51-2.89c0.73-0.89,1.69-1.65,2.85-2.26c1.19-0.62,2.68-0.92,4.48-0.92
		c2.76,0,5.03,0.8,6.37,2.28c1.34,1.49,2.33,3.61,2.59,6.48L66.36,52.89L66.36,52.89z"/>
	<rect x="64.06" y="24.97" width="22.94" height="5.58"/>
</g>
</svg>
