<?xml version="1.0" encoding="utf-8"?>
<!-- Generator: Adobe Illustrator 22.0.1, SVG Export Plug-In . SVG Version: 6.00 Build 0)  -->
<svg version="1.1" id="Layer_2_1_" xmlns="http://www.w3.org/2000/svg" xmlns:xlink="http://www.w3.org/1999/xlink" x="0px" y="0px"
	 viewBox="0 0 100 100" style="enable-background:new 0 0 100 100;" xml:space="preserve">
<g>
	<path d="M21.3,53.3C10.1,53.3,1,62.4,1,73.5c0,11.1,9.1,20.2,20.3,20.2c11.2,0,20.3-9.1,20.3-20.3C41.6,62.1,32.7,53.3,21.3,53.3z
		 M21.3,88.2c-8.2,0-14.8-6.6-14.8-14.7c0-8.2,6.6-14.8,14.8-14.8c8.3,0,14.8,6.4,14.8,14.7C36.1,81.6,29.5,88.2,21.3,88.2z"/>
	<path d="M78.7,53.3c-11.2,0-20.3,9.1-20.3,20.3c0,11.1,9.1,20.2,20.3,20.2c11.2,0,20.3-9.1,20.3-20.3C99,62.1,90.1,53.3,78.7,53.3z
		 M78.7,88.2c-8.2,0-14.8-6.6-14.8-14.7c0-8.2,6.6-14.8,14.8-14.8c8.3,0,14.8,6.4,14.8,14.7C93.5,81.6,86.8,88.2,78.7,88.2z"/>
	<path d="M60.2,32.5l12.6,15.9c1.3,1.8,4,2.1,5.8,0.6c1.8-1.3,2.1-4,0.6-5.8L65.1,25.3c-1.6-2.1-4.6-2.7-6.9-1.3l-19,11.1
		c-1.5,0.9-2.4,2.2-2.5,3.9s0.3,3.1,1.3,4.3l7.6,9v14.8c0,2.2,1.8,4.2,4.2,4.2c2.2,0,4-1.8,4-4.2V49.4l-7.5-8.8L60.2,32.5z"/>
	<ellipse transform="matrix(0.7071 -0.7071 0.7071 0.7071 11.693 59.4089)" cx="77.6" cy="15.6" rx="9.3" ry="9.3"/>
</g>
</svg>
