<?xml version="1.0" encoding="utf-8"?>
<!-- Generator: Adobe Illustrator 22.0.1, SVG Export Plug-In . SVG Version: 6.00 Build 0)  -->
<svg version="1.1" id="Layer_1" xmlns="http://www.w3.org/2000/svg" xmlns:xlink="http://www.w3.org/1999/xlink" x="0px" y="0px"
	 viewBox="0 0 100 100" style="enable-background:new 0 0 100 100;" xml:space="preserve">
<g>
	<path d="M50,11.5c-9.4,0-20.5,2.1-20.5,8s11,8,20.5,8c9.4,0,20.5-2.1,20.5-8S59.4,11.5,50,11.5z M50,22c-7.7,0-12.7-1.5-14.5-2.5
		C37.3,18.4,42.3,17,50,17s12.7,1.5,14.5,2.5C62.7,20.6,57.7,22,50,22z"/>
	<path d="M50,2.2c-17.6,0-36.6,4-36.6,12.8v0.2l5.7,42.7c0.4,2.9,2.4,5.2,5.2,6c8.9,2.4,17.3,3.7,25.7,3.7c8.3,0,16.7-1.2,25.5-3.6
		V64h0l0-0.1c0.1,0,0.1,0,0.2-0.1c2.8-0.8,4.8-3.1,5.2-6l5.7-42.5l0-0.4C86.6,6.2,67.6,2.2,50,2.2z M75.5,57.1
		c-0.1,0.7-0.6,1.2-1.2,1.4c-16.8,4.6-31.7,4.6-48.5,0c-0.6-0.2-1.1-0.7-1.2-1.4l-5.7-42.2c0.4-2.2,10.9-7.2,31.1-7.2
		c20.2,0,30.8,5,31.1,7.2L75.5,57.1z"/>
	<path d="M78,70.3l-1.5-1L75,70.1c-5,2.6-14.6,4.3-25,4.3s-20.1-1.6-25.1-4.3c-0.9-0.5-2.1-0.4-2.9,0.2l-1.4,1L23,89.2
		c0.4,2.8,2.4,5.1,5.1,5.9c5.9,1.7,13.7,2.7,21.9,2.7s16-1,21.9-2.7c2.7-0.8,4.7-3.1,5.1-5.9L79.2,73C79.3,71.9,78.9,70.9,78,70.3z
		 M71.6,88.5c-0.1,0.7-0.5,1.2-1.2,1.4c-5.4,1.6-12.7,2.5-20.4,2.5s-14.9-0.9-20.4-2.5c-0.6-0.2-1.1-0.7-1.2-1.4l-1.6-11.7
		c5.9,1.9,14.2,3,23.1,3c8.9,0,17.2-1.1,23.1-3L71.6,88.5z"/>
	<path d="M50,36.9c-5.5,0-9.9,4.5-9.9,9.9s4.5,9.9,9.9,9.9s9.9-4.5,9.9-9.9S55.5,36.9,50,36.9z M50,51.3c-2.4,0-4.4-2-4.4-4.4
		s2-4.4,4.4-4.4s4.4,2,4.4,4.4S52.4,51.3,50,51.3z"/>
</g>
</svg>
