<?xml version="1.0" encoding="utf-8"?>
<!-- Generator: Adobe Illustrator 22.0.1, SVG Export Plug-In . SVG Version: 6.00 Build 0)  -->
<svg version="1.1" id="Layer_1" xmlns="http://www.w3.org/2000/svg" xmlns:xlink="http://www.w3.org/1999/xlink" x="0px" y="0px"
	 viewBox="0 0 100 100" style="enable-background:new 0 0 100 100;" xml:space="preserve">
<path d="M69.5,49.6C76,46,80.4,39,80.4,31.1c0-11.7-9.5-21.2-21.2-21.2h-2.8V5.7c0-1.5-1.2-2.8-2.8-2.8S51,4.1,51,5.7v4.2h-8.5V5.7
	c0-1.5-1.2-2.8-2.8-2.8S37,4.1,37,5.7v4.2h-7.2h-2.8h-4.8c-1.5,0-2.8,1.2-2.8,2.8s1.2,2.8,2.8,2.8h4.8v31.3v5.5v32.4h-4.8
	c-1.5,0-2.8,1.2-2.8,2.8s1.2,2.8,2.8,2.8h4.8h2.8H37v4.2c0,1.5,1.2,2.8,2.8,2.8s2.8-1.2,2.8-2.8v-4.2H51v4.2c0,1.5,1.2,2.8,2.8,2.8
	s2.8-1.2,2.8-2.8v-4.2h2.2c12,0,21.7-9.7,21.7-21.7C80.4,60.4,76,53.3,69.5,49.6z M32.6,15.4h26.7c8.6,0,15.7,7,15.7,15.7
	c0,8.6-7,15.7-15.7,15.7h-0.5H32.6V15.4z M58.7,84.6H32.6V52.2h26.2c8.9,0,16.2,7.3,16.2,16.2C74.9,77.3,67.7,84.6,58.7,84.6z"/>
</svg>
