<?xml version="1.0" encoding="utf-8"?>
<!-- Generator: Adobe Illustrator 22.0.1, SVG Export Plug-In . SVG Version: 6.00 Build 0)  -->
<svg version="1.1" id="Layer_1" xmlns="http://www.w3.org/2000/svg" xmlns:xlink="http://www.w3.org/1999/xlink" x="0px" y="0px"
	 viewBox="0 0 100 100" style="enable-background:new 0 0 100 100;" xml:space="preserve">
<path d="M91.8,16.3H52.6V8.7c0-1.5-1.2-2.8-2.8-2.8s-2.8,1.2-2.8,2.8v7.6H8.2c-2.9,0-5.3,2.4-5.3,5.3v40.1c0,2.9,2.4,5.3,5.3,5.3
	h17.9l-13.4,23c-0.8,1.3-0.3,3,1,3.8c0.4,0.3,0.9,0.4,1.4,0.4c0.9,0,1.9-0.5,2.4-1.4l15-25.8h15v24.4c0,1.5,1.2,2.8,2.8,2.8
	c1.5,0,2.8-1.2,2.8-2.8V66.9h14.8l15,25.8c0.5,0.9,1.4,1.4,2.4,1.4c0.5,0,0.9-0.1,1.4-0.4c1.3-0.8,1.8-2.4,1-3.8l-13.4-23h17.7
	c2.9,0,5.3-2.4,5.3-5.3V21.5C97.1,18.6,94.7,16.3,91.8,16.3z M91.6,61.4H8.4V21.8h83.2V61.4z"/>
</svg>
