<?xml version="1.0" encoding="utf-8"?>
<!-- Generator: Adobe Illustrator 23.0.1, SVG Export Plug-In . SVG Version: 6.00 Build 0)  -->
<svg version="1.1" id="Layer_1" xmlns="http://www.w3.org/2000/svg" xmlns:xlink="http://www.w3.org/1999/xlink" x="0px" y="0px"
	 viewBox="0 0 100 100" style="enable-background:new 0 0 100 100;" xml:space="preserve">
<path d="M94.18,43.39c-0.35-1.59-1.34-3.06-2.47-3.68c-0.35-0.19-2.58-0.43-4.96-0.54c-3.99-0.18-4.43-0.25-5.69-0.99
	c-2-1.17-2.55-2.43-2.55-5.86c-0.01-6.55-2.74-12.63-8.12-18.12c-3.84-3.91-8.12-6.56-13.01-8.04c-1.17-0.36-3.79-0.48-12.56-0.58
	C31.05,5.42,28,5.7,23.31,7.57C14.67,11.01,8.47,18.26,6.2,27.56C5.78,29.3,5.69,32.1,5.59,48.18c-0.13,20.14,0.01,23.1,1.27,27.09
	c1.04,3.3,2.09,5.32,4.25,8.19c4.12,5.46,10.29,9.41,16.46,10.53c2.94,0.53,39.16,0.66,42.87,0.16v0
	c6.45-0.88,11.51-3.47,16.25-8.31c3.43-3.51,5.58-7.3,6.98-12.34c0.58-2.09,0.63-3.11,0.74-15.39
	C94.49,48.83,94.43,44.49,94.18,43.39z M30.26,30.76c1.55-1.56,1.98-1.62,11.68-1.62c8.71,0,9,0.02,10.28,0.67
	c1.85,0.93,2.65,2.25,2.65,4.35c0,1.89-0.75,3.22-2.44,4.29c-0.9,0.57-1.44,0.61-9.97,0.66c-5.27,0.03-9.46-0.07-10.09-0.24
	C29.07,37.94,27.84,33.21,30.26,30.76z M68.31,70.43l-2.95,0.48l-15.37,0.18c-13.51,0.16-17.33-0.09-18.04-0.4
	c-1.42-0.62-2.73-2.33-2.96-3.85c-0.22-1.45,0.51-3.44,1.63-4.45c1.41-1.27,2.02-1.31,19.31-1.33c17.78-0.01,17.69-0.02,19.37,1.55
	C71.68,64.85,71.18,68.81,68.31,70.43z"/>
</svg>
