<?xml version="1.0" encoding="utf-8"?>
<!-- Generator: Adobe Illustrator 22.0.1, SVG Export Plug-In . SVG Version: 6.00 Build 0)  -->
<svg version="1.1" id="Layer_1" xmlns="http://www.w3.org/2000/svg" xmlns:xlink="http://www.w3.org/1999/xlink" x="0px" y="0px"
	 viewBox="0 0 100 100" style="enable-background:new 0 0 100 100;" xml:space="preserve">
<path d="M80.3,69.3L50.9,50.5c-0.3-0.2-0.5-0.3-0.8-0.4l25-16.1l3.4-2.2l1.7-1.1c0,0,0.1-0.1,0.1-0.1c1.4-1,2.2-2.5,2.2-4.2
	c0-1.8-0.9-3.4-2.4-4.3L50.9,3.2c-1.6-1-3.6-1.1-5.3-0.2C44,3.9,43,5.7,43,7.6v37.6c0,0,0,0.1,0,0.1L21.6,31.5
	c-1.3-0.8-3-0.5-3.8,0.8c-0.8,1.3-0.5,3,0.8,3.8L40.1,50L18.8,63.6c-1.3,0.8-1.6,2.5-0.8,3.8c0.5,0.8,1.4,1.3,2.3,1.3
	c0.5,0,1-0.1,1.5-0.4L43,54.6c0,0.1,0,0.1,0,0.2v37.6c0,1.9,1,3.6,2.7,4.5c0.8,0.4,1.6,0.6,2.5,0.6c1,0,1.9-0.3,2.8-0.8L80.3,78
	c1.5-1,2.4-2.6,2.4-4.3C82.7,71.9,81.8,70.2,80.3,69.3z M48.5,8.2l28.4,18.2L48.5,44.6V8.2z M48.5,91.8V55.4l28.4,18.2L48.5,91.8z"
	/>
</svg>
