<?xml version="1.0" encoding="utf-8"?>
<!-- Generator: Adobe Illustrator 22.0.1, SVG Export Plug-In . SVG Version: 6.00 Build 0)  -->
<svg version="1.1" id="Layer_1" xmlns="http://www.w3.org/2000/svg" xmlns:xlink="http://www.w3.org/1999/xlink" x="0px" y="0px"
	 viewBox="0 0 100 100" style="enable-background:new 0 0 100 100;" xml:space="preserve">
<path d="M66.1,46.1c7.3-2.6,11.6-9.4,11.6-18.3c0-6.8-2.1-12.7-7.3-16.8c-4.7-4.8-11-6.9-18.5-6.9H19.5c-2.2,0-3.9,1.7-3.9,3.9v84.1
	c0,2.2,1.7,3.9,3.9,3.9h37c8,0,14.8-2.6,20-8c5.2-5.2,8-11.6,8-19.5C84.4,57.1,77.6,48.2,66.1,46.1z M35.6,21.8h13.1
	c5.9,0,10.1,4.2,10.1,9.4s-4.3,9.6-10.1,9.6H35.6V21.8z M52.9,78.1H35.6V56.5h17.3c6.8,0,12,4.2,12,10.5S59.8,78.1,52.9,78.1z"/>
</svg>
