<?xml version="1.0" encoding="utf-8"?>
<!-- Generator: Adobe Illustrator 22.0.1, SVG Export Plug-In . SVG Version: 6.00 Build 0)  -->
<svg version="1.1" id="Layer_1" xmlns="http://www.w3.org/2000/svg" xmlns:xlink="http://www.w3.org/1999/xlink" x="0px" y="0px"
	 viewBox="0 0 100 100" style="enable-background:new 0 0 100 100;" xml:space="preserve">
<g>
	<path d="M28.6,96.9c-0.6,0-1.3-0.2-1.9-0.5c-1.7-0.9-2.4-2.8-1.8-4.7l13.4-39.9h-13c-1.3,0-2.5-0.7-3.3-1.7s-0.8-2.5-0.3-3.7
		l17.5-41C39.8,4,41.2,3,42.8,3h31.9C76,3,77.3,3.7,78,4.8c0.7,1.1,0.8,2.5,0.3,3.7L69,29.3h5.1c1.5,0,2.8,0.8,3.5,2.2
		c0.7,1.3,0.5,2.9-0.4,4.1L31.6,95.4C30.8,96.4,29.7,96.9,28.6,96.9z M27.7,46.4h18.2L33.2,84.3l37.7-49.5H60.5L72.3,8.6H43.8
		L27.7,46.4z"/>
</g>
</svg>
