<?xml version="1.0" encoding="utf-8"?>
<!-- Generator: Adobe Illustrator 22.0.1, SVG Export Plug-In . SVG Version: 6.00 Build 0)  -->
<svg version="1.1" id="Layer_1" xmlns="http://www.w3.org/2000/svg" xmlns:xlink="http://www.w3.org/1999/xlink" x="0px" y="0px"
	 viewBox="0 0 100 100" style="enable-background:new 0 0 100 100;" xml:space="preserve">
<path d="M92.9,27.2H44.1V15.3c0-2.1-1.7-3.8-3.8-3.8H20.2c-2.1,0-3.8,1.7-3.8,3.8v11.9H7.1c-2.7,0-4.8,2.2-4.8,4.8v51.6
	c0,2.7,2.2,4.8,4.8,4.8h85.8c2.7,0,4.8-2.2,4.8-4.8V32.1C97.8,29.4,95.6,27.2,92.9,27.2z M21.9,17h16.7v26.6l-5.9-5
	c-0.7-0.6-1.6-0.9-2.5-0.9s-1.7,0.3-2.5,0.9l-5.9,5V17z M92.3,83H7.8V32.7h8.6v14.6c0,1.5,0.8,2.8,2.2,3.4c0.5,0.2,1.1,0.4,1.6,0.4
	c0.9,0,1.7-0.3,2.4-0.9l7.6-6.5l7.6,6.5c1.1,1,2.7,1.2,4,0.5c1.4-0.6,2.2-1.9,2.2-3.4V32.7h48.1V83z"/>
</svg>
