<?xml version="1.0" encoding="utf-8"?>
<!-- Generator: Adobe Illustrator 22.0.1, SVG Export Plug-In . SVG Version: 6.00 Build 0)  -->
<svg version="1.1" id="Layer_1" xmlns="http://www.w3.org/2000/svg" xmlns:xlink="http://www.w3.org/1999/xlink" x="0px" y="0px"
	 viewBox="0 0 100 100" style="enable-background:new 0 0 100 100;" xml:space="preserve">
<g>
	<path d="M25.7,96.8c-0.7,0-1.4-0.1-2-0.4c-1.9-0.9-3.2-2.8-3.2-5.1V8.6c0-2.9,2.3-5.3,5.2-5.3h48.6c2.8,0,5.2,2.4,5.2,5.3v82.6
		c0.2,2-0.8,3.9-2.5,4.9c-1.8,1-4.1,0.8-5.8-0.5L71,95.4l-20.9-19l-20.9,19C28.2,96.3,27,96.8,25.7,96.8z M26,8.7l0,82.1l20.7-18.8
		c2-1.6,4.8-1.6,6.8,0l0.1,0.1L74,90.6V8.7H26z"/>
</g>
</svg>
