<?xml version="1.0" encoding="utf-8"?>
<!-- Generator: Adobe Illustrator 23.0.1, SVG Export Plug-In . SVG Version: 6.00 Build 0)  -->
<svg version="1.1" id="Layer_1" xmlns="http://www.w3.org/2000/svg" xmlns:xlink="http://www.w3.org/1999/xlink" x="0px" y="0px"
	 viewBox="0 0 100 100" style="enable-background:new 0 0 100 100;" xml:space="preserve">
<g>
	<path d="M54.79,53.07H38.9v16.05h15.89c2.73,0,4.86-0.7,6.36-2.13c1.51-1.41,2.27-3.42,2.27-6.01c0-2.55-0.75-4.49-2.27-5.87
		C59.63,53.73,57.53,53.07,54.79,53.07z"/>
	<path d="M58.96,44.78c1.44-1.24,2.16-2.99,2.16-5.29c0-2.59-0.65-4.41-1.94-5.46c-1.29-1.05-3.16-1.58-5.61-1.58H38.9v14.17h14.67
		C55.73,46.62,57.52,46.02,58.96,44.78z"/>
	<path d="M79.34,6H20.67C12.6,6,6,12.6,6,20.67v58.66C6,87.4,12.6,94,20.67,94h58.66C87.4,94,94,87.4,94,79.33V20.67
		C94,12.6,87.4,6,79.34,6z M71.31,67.77c-0.72,1.75-1.84,3.26-3.38,4.53c-1.54,1.27-3.49,2.27-5.9,3.02
		c-2.4,0.75-5.25,1.12-8.56,1.12H29.91V25.12h24.95c4.6,0,8.3,1.05,11.07,3.16c2.78,2.11,4.17,5.29,4.17,9.56
		c0,2.59-0.63,4.8-1.9,6.64c-1.27,1.84-3.08,3.28-5.44,4.28v0.14c3.16,0.68,5.56,2.17,7.19,4.49c1.62,2.33,2.44,5.23,2.44,8.74
		C72.39,64.14,72.03,66.03,71.31,67.77z"/>
</g>
</svg>
