<?xml version="1.0" encoding="utf-8"?>
<!-- Generator: Adobe Illustrator 22.0.1, SVG Export Plug-In . SVG Version: 6.00 Build 0)  -->
<svg version="1.1" id="Layer_1" xmlns="http://www.w3.org/2000/svg" xmlns:xlink="http://www.w3.org/1999/xlink" x="0px" y="0px"
	 viewBox="0 0 100 100" style="enable-background:new 0 0 100 100;" xml:space="preserve">
<path d="M92.6,47.3h-10V36.2c0-2.6-2.1-4.8-4.8-4.8h-25h-5.5h-25c-2.6,0-4.8,2.1-4.8,4.8v11.1H7.4c-2.6,0-4.8,2.1-4.8,4.8v11.8
	c0,2.6,2.1,4.8,4.8,4.8h25h5.5h24.2h5.5h25c2.6,0,4.8-2.1,4.8-4.8V52C97.3,49.4,95.2,47.3,92.6,47.3z M52.9,36.9h24.2v10.3H66.9h-4
	h-10V36.9z M23.2,36.9h24.2v10.3H37.1h-4h-10V36.9z M32.4,63.1H8.2V52.8h14.3h10V63.1z M62.1,63.1H37.9V52.8h10.3h4h10V63.1z
	 M91.8,63.1H67.6V52.8h10.3h14V63.1z"/>
</svg>
