<?xml version="1.0" encoding="utf-8"?>
<!-- Generator: Adobe Illustrator 21.0.2, SVG Export Plug-In . SVG Version: 6.00 Build 0)  -->
<svg version="1.1" id="Layer_1" xmlns="http://www.w3.org/2000/svg" xmlns:xlink="http://www.w3.org/1999/xlink" x="0px" y="0px"
	 viewBox="0 0 100 100" style="enable-background:new 0 0 100 100;" xml:space="preserve">
<path d="M96.1,46.8h-8.4c-7.3-13.6-21.9-22.2-37.9-22.2c-16,0-30.6,8.7-37.9,22.2h-8c-1.5,0-2.8,1.2-2.8,2.8s1.2,2.8,2.8,2.8h4.5
	v20.5c0,1.5,1.2,2.8,2.8,2.8s2.8-1.2,2.8-2.8v-16c0.4-1.5,0.9-3,1.5-4.5h68.8c0.4,0.9,0.7,1.8,1,2.7v17.8c0,1.5,1.2,2.8,2.8,2.8
	s2.8-1.2,2.8-2.8V52.3h5.3c1.5,0,2.8-1.2,2.8-2.8S97.6,46.8,96.1,46.8z M81.3,46.8h-9.5v-9.8C75.6,39.6,78.8,42.9,81.3,46.8z
	 M47.1,46.8H33.3v-13c4.2-2,8.9-3.3,13.7-3.6V46.8z M52.6,30.1c4.8,0.3,9.5,1.6,13.7,3.6v13H52.6V30.1z M27.8,36.9v9.8h-9.5
	C20.8,42.9,24.1,39.6,27.8,36.9z"/>
</svg>
