<?xml version="1.0" encoding="utf-8"?>
<!-- Generator: Adobe Illustrator 21.0.2, SVG Export Plug-In . SVG Version: 6.00 Build 0)  -->
<svg version="1.1" id="Layer_2_1_" xmlns="http://www.w3.org/2000/svg" xmlns:xlink="http://www.w3.org/1999/xlink" x="0px" y="0px"
	 viewBox="0 0 100 100" style="enable-background:new 0 0 100 100;" xml:space="preserve">
<path d="M89.5,27.9H67.9v-6.3c0-5.2-4.2-9.4-9.4-9.4H41.6c-5.2,0-9.4,4.2-9.4,9.4v6.3H10.5c-4.7,0-8.6,3.9-8.6,8.6v42.7
	c0,4.7,3.9,8.6,8.6,8.6h79c4.7,0,8.6-3.9,8.6-8.6V36.5C98.1,31.8,94.2,27.9,89.5,27.9z M37.6,21.6c0-2.2,1.8-3.9,3.9-3.9h16.9
	c2.2,0,3.9,1.8,3.9,3.9v6.3H37.6V21.6z M10.5,33.4h21.6h35.7h21.6c1.7,0,3.1,1.4,3.1,3.1v9.4l-42.6,7l-42.6-7v-9.4
	C7.4,34.8,8.8,33.4,10.5,33.4z M89.5,82.3h-79c-1.7,0-3.1-1.4-3.1-3.1V51.5l42.6,7l42.6-7v27.8C92.6,80.9,91.2,82.3,89.5,82.3z"/>
</svg>
