<?xml version="1.0" encoding="utf-8"?>
<!-- Generator: Adobe Illustrator 22.0.1, SVG Export Plug-In . SVG Version: 6.00 Build 0)  -->
<svg version="1.1" id="Layer_2_1_" xmlns="http://www.w3.org/2000/svg" xmlns:xlink="http://www.w3.org/1999/xlink" x="0px" y="0px"
	 viewBox="0 0 100 100" style="enable-background:new 0 0 100 100;" xml:space="preserve">
<g>
	<path d="M97.5,36.1L64,2.6c-0.8-0.8-1.8-1.2-3-1.2c-1.1,0-2.2,0.4-3,1.2L30.3,30.5c-7.1,7.1-7.7,17.8-1.9,25.5l-24,24
		c-4.3,4.3-4.3,11.2,0,15.4c2.1,2.1,4.9,3.2,7.7,3.2s5.6-1.1,7.7-3.2l23.9-23.9c3.5,2.7,7.7,4.1,11.9,4.1c5,0,10-1.9,13.9-5.7
		L97.5,42c0.8-0.8,1.2-1.8,1.2-3S98.3,36.9,97.5,36.1z M16,91.5c-2.1,2.1-5.5,2.1-7.7,0c-2.1-2.1-2.1-5.5,0-7.7l23.7-23.7l7.7,7.7
		L16,91.5z M65.8,66c-5.6,5.4-14.5,5.5-19.9,0L34.2,54.3c-5.6-5.6-5.6-14.3,0-19.9l4.6-4.6l31.6,31.6L65.8,66z M74.2,57.5L42.6,25.9
		L61.1,7.5l31.6,31.6L74.2,57.5z"/>
	<path d="M42.2,43.1c-2,0-3.6,1.6-3.6,3.6s1.6,3.6,3.6,3.6s3.6-1.6,3.6-3.6S44.2,43.1,42.2,43.1z"/>
	<path d="M53.3,54.2c-2,0-3.6,1.6-3.6,3.6c0,2,1.6,3.6,3.6,3.6s3.6-1.6,3.6-3.6C56.9,55.8,55.3,54.2,53.3,54.2z"/>
</g>
</svg>
