<?xml version="1.0" encoding="utf-8"?>
<!-- Generator: Adobe Illustrator 22.0.1, SVG Export Plug-In . SVG Version: 6.00 Build 0)  -->
<svg version="1.1" id="Layer_2_1_" xmlns="http://www.w3.org/2000/svg" xmlns:xlink="http://www.w3.org/1999/xlink" x="0px" y="0px"
	 viewBox="0 0 100 100" style="enable-background:new 0 0 100 100;" xml:space="preserve">
<path d="M93.7,13.2L93.7,13.2c-4.6-4.6-11.8-4.7-16.5-0.4L30.1,56.1c-1.7,0-3.4,0.5-5,1.2c-4,1.7-5.8,4.8-7.2,7.1
	c-1.2,2.1-2.6,4.5-6.7,7l-8.3,5.2l8.3,5c3.3,2,14.8,8.5,24.6,8.5c3.8,0,7-1,9.4-2.8c5-3.8,5.7-8.2,5.6-10.7l43.3-47.1
	C98.3,24.9,98.2,17.9,93.7,13.2z M41.9,83.1c-1.4,1.1-3.5,1.7-6.1,1.7c-8.6,0-19.6-6.4-21.8-7.7l-0.7-0.4l0.7-0.5
	c4.9-3,6.9-5.9,8.6-9c1.3-2.3,2.4-3.9,4.6-4.9c1-0.5,2.1-0.7,3.1-0.7c6.1,3.4,11.1,8.3,14.5,14.3l0.4,0.8l0,0.1
	C45.4,78.4,44.9,80.8,41.9,83.1z M90,26L48.5,71.2c-3.3-5.1-7.7-9.5-12.8-12.8l45.2-41.5c2.5-2.3,6.4-2.3,8.8,0.2
	C92.2,19.6,92.3,23.4,90,26z"/>
</svg>
