<?xml version="1.0" encoding="utf-8"?>
<!-- Generator: Adobe Illustrator 22.0.1, SVG Export Plug-In . SVG Version: 6.00 Build 0)  -->
<svg version="1.1" id="Layer_2_1_" xmlns="http://www.w3.org/2000/svg" xmlns:xlink="http://www.w3.org/1999/xlink" x="0px" y="0px"
	 viewBox="0 0 100 100" style="enable-background:new 0 0 100 100;" xml:space="preserve">
<g>
	<path d="M15.2,88.1c-0.5,0-1-0.1-1.5-0.3c-1.5-0.6-2.4-2.1-2.4-3.7v-15H7.1c-2.2,0-3.9-1.8-3.9-4V15.8c0-2.2,1.8-3.9,3.9-3.9h85.7
		c2.2,0,4,1.8,4,3.9v49.5c0,2.2-1.8,3.9-4,3.9H37.3L17.8,87C17.1,87.7,16.2,88.1,15.2,88.1z M8.7,63.7H13c2.1,0,3.8,1.7,3.8,3.8
		v13.1l17.3-15.8c0.7-0.6,1.6-1,2.5-1h54.7V17.4H8.7V63.7z"/>
</g>
</svg>
