<?xml version="1.0" encoding="utf-8"?>
<!-- Generator: Adobe Illustrator 22.0.1, SVG Export Plug-In . SVG Version: 6.00 Build 0)  -->
<svg version="1.1" id="Layer_1" xmlns="http://www.w3.org/2000/svg" xmlns:xlink="http://www.w3.org/1999/xlink" x="0px" y="0px"
	 viewBox="0 0 100 100" style="enable-background:new 0 0 100 100;" xml:space="preserve">
<path d="M87.6,60.1H75c-0.2-3.7-0.8-7.2-1.9-10.4c0,0,0,0,0,0l11.4-11.4c1.1-1.1,1.1-2.8,0-3.9c-1.1-1.1-2.8-1.1-3.9,0l-9.8,9.8
	c-2.5-5-6.1-9.1-10.3-11.6c2.1-0.3,4.1-1.3,5.7-2.9l0.1-0.1c1.8-2,2.7-4.6,2.4-7.3C67.8,12.4,59.7,5,49.9,5c-9.8,0-18,7.4-19,17.2
	c-0.3,2.7,0.6,5.4,2.4,7.4c1.5,1.6,3.6,2.7,5.7,3c-4.1,2.5-7.7,6.5-10.2,11.4l-9.6-9.6c-1.1-1.1-2.8-1.1-3.9,0
	c-1.1,1.1-1.1,2.8,0,3.9l11.2,11.2c-1.1,3.3-1.8,7-2,10.7H12.4c-1.5,0-2.8,1.2-2.8,2.8s1.2,2.8,2.8,2.8h12.2
	c0.3,3.7,1.1,7.2,2.2,10.4c0,0-0.1,0.1-0.1,0.1L15.4,87.5c-1.1,1.1-1.1,2.8,0,3.9c0.5,0.5,1.2,0.8,1.9,0.8s1.4-0.3,1.9-0.8
	l10.1-10.1C33.9,89.6,41.4,95,49.8,95c8.5,0,16-5.5,20.6-13.9l10.3,10.3c0.5,0.5,1.2,0.8,1.9,0.8s1.4-0.3,1.9-0.8
	c1.1-1.1,1.1-2.8,0-3.9L73.2,76.1c-0.1-0.1-0.3-0.2-0.4-0.3c1.1-3.1,1.9-6.6,2.1-10.1h12.6c1.5,0,2.8-1.2,2.8-2.8
	S89.1,60.1,87.6,60.1z M36.3,22.8c0.7-7,6.6-12.2,13.6-12.2c7,0,12.7,5.2,13.4,12.2c0.1,1.1-0.2,2.2-0.9,3c-0.9,0.9-2,1.4-3,1.4h-19
	c-1.1,0-2.2-0.5-3-1.3C36.6,25,36.2,23.9,36.3,22.8z M49.8,89.5C38.9,89.5,30,77.2,30,62.2s8.9-27.3,19.8-27.3
	c10.9,0,19.8,12.2,19.8,27.3S60.7,89.5,49.8,89.5z"/>
</svg>
