<?xml version="1.0" encoding="utf-8"?>
<!-- Generator: Adobe Illustrator 22.0.1, SVG Export Plug-In . SVG Version: 6.00 Build 0)  -->
<svg version="1.1" id="Layer_2_1_" xmlns="http://www.w3.org/2000/svg" xmlns:xlink="http://www.w3.org/1999/xlink" x="0px" y="0px"
	 viewBox="0 0 100 100" style="enable-background:new 0 0 100 100;" xml:space="preserve">
<path d="M74.4,12.1L74.4,12.1C67.2,5.3,57.7,1.8,47.9,2.4C29.6,3.5,15,18.8,14.7,37.3c-0.1,12.1,5.6,23.1,15.5,29.9v17.7
	c0,7,5.7,12.7,12.7,12.7h14c7,0,12.7-5.7,12.7-12.7V67.2c9.8-6.5,15.6-17.4,15.6-29.4C85.4,28.1,81.6,18.9,74.4,12.1z M56.9,92.1
	h-14c-4,0-7.2-3.3-7.2-7.2V68.5h28.5v16.4C64.2,88.9,60.9,92.1,56.9,92.1z M66.1,63H52.8V49.1l9.3-7.3c1.2-0.9,1.4-2.7,0.5-3.9
	c-0.9-1.2-2.7-1.4-3.9-0.5l-6,4.6v-7.9c0-1.5-1.2-2.8-2.7-2.8c-1.5,0-2.8,1.2-2.8,2.8v8.2l-7-5c-1.2-0.9-3-0.6-3.8,0.6
	c-0.9,1.2-0.6,3,0.6,3.8l10.2,7.3V63H33.8c-8.6-5.7-13.7-15.2-13.6-25.6c0.3-15.7,12.5-28.6,28-29.5c0.6,0,1.2-0.1,1.8-0.1
	c7.7,0,14.9,2.9,20.6,8.2c6,5.8,9.3,13.5,9.1,21.7C79.8,48.1,74.7,57.5,66.1,63z"/>
</svg>
