<?xml version="1.0" encoding="utf-8"?>
<!-- Generator: Adobe Illustrator 21.0.0, SVG Export Plug-In . SVG Version: 6.00 Build 0)  -->
<svg version="1.1" id="Layer_2_1_" xmlns="http://www.w3.org/2000/svg" xmlns:xlink="http://www.w3.org/1999/xlink" x="0px" y="0px"
	 viewBox="0 0 100 100" style="enable-background:new 0 0 100 100;" xml:space="preserve">
<path d="M81.9,1.8c-6,0-11.1,3.5-13.5,8.6l0.1-0.2l-39.9,3.4H12.8c-5.3,0-9.6,4.3-9.6,9.6v30.3c0,4,2.5,7.4,5.9,8.9l5.2,27.8
	c0.9,4.7,5.1,8.1,9.8,8.1c3,0,5.8-1.3,7.7-3.6c1.9-2.3,2.7-5.2,2.1-8.1l-4.3-23.4l38.8,3.3l-0.1-0.2c2.4,5.1,7.5,8.6,13.5,8.6
	c8.2,0,14.9-6.7,14.9-14.9V16.7C96.8,8.6,90,1.8,81.9,1.8z M8.7,23.1c0-2.3,1.8-4.1,4.1-4.1h13.3v38.5H12.8c-2.3,0-4.1-1.8-4.1-4.1
	C8.7,53.4,8.7,23.1,8.7,23.1z M27.6,91.1c-0.9,1-2.1,1.6-3.5,1.6c-2.1,0-4-1.5-4.4-3.6L14.9,63h9.2l4.5,24.5
	C28.8,88.8,28.5,90.1,27.6,91.1z M31.6,57.8v-39l35.4-3c0,0.3,0,0.6,0,0.9v43.2c0,0.3,0,0.6,0,0.9L31.6,57.8z M91.3,59.9
	c0,5.2-4.2,9.4-9.4,9.4s-9.4-4.2-9.4-9.4V16.7c0-5.2,4.2-9.4,9.4-9.4c5.1,0,9.4,4.3,9.4,9.4V59.9z"/>
</svg>
