<?xml version="1.0" encoding="utf-8"?>
<!-- Generator: Adobe Illustrator 22.0.1, SVG Export Plug-In . SVG Version: 6.00 Build 0)  -->
<svg version="1.1" id="Layer_1" xmlns="http://www.w3.org/2000/svg" xmlns:xlink="http://www.w3.org/1999/xlink" x="0px" y="0px"
	 viewBox="0 0 100 100" style="enable-background:new 0 0 100 100;" xml:space="preserve">
<g>
	<path d="M89.7,36.1C88.5,21.4,76.1,9.7,61.1,9.7H38.9c-7.7,0-14.9,3-20.3,8.4C13.7,23,10.8,29.3,10.3,36c-4.8,2.5-8,7.4-8,13.2v1.3
		c0,5.7,3.3,10.7,8,13.1c1.1,14.9,13.5,26.7,28.6,26.7h22.2c7.7,0,14.9-3,20.3-8.4c4.9-4.9,7.9-11.4,8.3-18.3c4.7-2.5,8-7.4,8-13.1
		v-1.3C97.8,43.5,94.5,38.5,89.7,36.1z M22.5,22c4.4-4.4,10.2-6.8,16.4-6.8h22.2c11.4,0,21,8.4,22.9,19.2c-0.3,0-0.7-0.1-1-0.1H17.1
		c-0.3,0-0.7,0-1,0.1C16.8,29.8,19,25.4,22.5,22z M17.1,39.9H83c5.1,0,9.3,4.2,9.3,9.3v1.3c0,0,0,0,0,0.1l-3.2-2
		c-5.6-3.5-12.7-3.9-18.5-0.9c-3.8,1.9-8.2,1.9-12,0l-0.9-0.5c-5.3-2.7-11.6-2.7-16.9,0l-0.9,0.5c-3.8,1.9-8.2,1.9-12,0
		c-5.9-3-13-2.6-18.5,0.9l-1.5,1v-0.3C7.8,44.1,12,39.9,17.1,39.9z M77.5,78c-4.4,4.4-10.2,6.8-16.4,6.8H38.9
		c-11.6,0-21.2-8.5-22.9-19.6c0.4,0,0.7,0.1,1.1,0.1H83c0.4,0,0.7,0,1.1-0.1C83.3,70,81,74.5,77.5,78z M83,59.8H17.1
		c-3.4,0-6.4-1.9-8-4.6l3.2-2c3.9-2.5,9-2.7,13.1-0.6c5.3,2.7,11.6,2.7,16.9,0l0.9-0.5c3.8-1.9,8.2-1.9,12,0l0.9,0.5
		c5.3,2.7,11.6,2.7,16.9,0c4.2-2.1,9.2-1.9,13.1,0.6l4.3,2.7C88.8,58.3,86.1,59.8,83,59.8z"/>
	<circle cx="31.4" cy="27.5" r="2"/>
	<circle cx="50.2" cy="22.1" r="2"/>
	<circle cx="69" cy="27.5" r="2"/>
	<circle cx="69" cy="72.1" r="2"/>
	<circle cx="50.2" cy="77.5" r="2"/>
	<circle cx="31.4" cy="72.1" r="2"/>
</g>
</svg>
