<?xml version="1.0" encoding="utf-8"?>
<!-- Generator: Adobe Illustrator 22.0.1, SVG Export Plug-In . SVG Version: 6.00 Build 0)  -->
<svg version="1.1" id="Layer_2_1_" xmlns="http://www.w3.org/2000/svg" xmlns:xlink="http://www.w3.org/1999/xlink" x="0px" y="0px"
	 viewBox="0 0 100 100" style="enable-background:new 0 0 100 100;" xml:space="preserve">
<g>
	<ellipse cx="33.3" cy="65.6" rx="7.1" ry="7.1"/>
	<ellipse cx="66.8" cy="65.6" rx="7.1" ry="7.1"/>
	<path d="M88.4,9.1h-3.2c-0.5-3.2-3.3-5.7-6.7-5.7h-57c-3.4,0-6.2,2.5-6.7,5.7h-3.1c-1.8,0-3.2,1.5-3.3,3.3v8.5
		c0,1.8,1.5,3.3,3.3,3.3h3.1v54.4c0,2.6,2.1,4.8,4.8,4.8h1.1V91c0,3.1,2.5,5.7,5.7,5.7h7.5c3.1,0,5.7-2.5,5.7-5.7v-7.7h21.2V91
		c0,3.1,2.5,5.7,5.7,5.7H74c3.1,0,5.7-2.5,5.7-5.7v-7.7h1c2.6,0,4.8-2.1,4.8-4.8V24.3h3.2c1.8,0,3.3-1.5,3.3-3.3v-8.6
		C91.6,10.6,90.1,9.1,88.4,9.1z M20.2,48.6V24.4h27v24.2H20.2z M52.7,24.4h27v24.2h-27C52.7,48.6,52.7,24.4,52.7,24.4z M21.5,8.8h57
		c0.7,0,1.3,0.6,1.3,1.3v8.8H20.2v-8.8C20.2,9.4,20.8,8.8,21.5,8.8z M33.7,91.2h-7.5c-0.1,0-0.2-0.1-0.2-0.2v-7.7h7.8V91
		C33.8,91,33.8,91.2,33.7,91.2z M73.7,91.2h-7.5c-0.1,0-0.2-0.1-0.2-0.2v-7.7h7.8V91C73.8,91,73.8,91.2,73.7,91.2z M20.2,77.8V54.1
		h59.5v23.7H20.2z"/>
</g>
</svg>
