<?xml version="1.0" encoding="utf-8"?>
<!-- Generator: Adobe Illustrator 21.0.0, SVG Export Plug-In . SVG Version: 6.00 Build 0)  -->
<svg version="1.1" id="Layer_2_1_" xmlns="http://www.w3.org/2000/svg" xmlns:xlink="http://www.w3.org/1999/xlink" x="0px" y="0px"
	 viewBox="0 0 100 100" style="enable-background:new 0 0 100 100;" xml:space="preserve">
<g>
	<circle cx="33.2" cy="64.2" r="7.1"/>
	<circle cx="66.8" cy="64.2" r="7.1"/>
	<path d="M88.3,7.7h-3.2C84.6,4.5,81.8,2,78.4,2h-57c-3.4,0-6.2,2.5-6.7,5.7h-3.1c-1.8,0-3.3,1.5-3.3,3.3v8.6c0,1.8,1.5,3.3,3.3,3.3
		h3v54.4c0,2.6,2.1,4.8,4.8,4.8H21v5.3C21,93.2,25.9,98,31.8,98s10.8-4.8,10.8-10.8V82h14.7v5.3c0,5.9,4.8,10.8,10.8,10.8
		s10.8-4.8,10.8-10.8V82h1.6c2.6,0,4.8-2.1,4.8-4.8V22.8h3.1c1.8,0,3.3-1.5,3.3-3.3V11C91.6,9.2,90.1,7.7,88.3,7.7z M21.5,7.5h57
		c0.7,0,1.3,0.6,1.3,1.3v8.8H20.2V8.7C20.2,8,20.8,7.5,21.5,7.5z M20.2,23h27v24.3h-27V23z M52.7,23h27v24.3h-27
		C52.7,47.3,52.7,23,52.7,23z M37.1,87.3c0,2.9-2.4,5.3-5.3,5.3s-5.3-2.4-5.3-5.3V82H37L37.1,87.3z M73.3,87.3
		c0,2.9-2.4,5.3-5.3,5.3s-5.3-2.4-5.3-5.3V82h10.5L73.3,87.3z M20.2,76.5V52.7h59.5v23.7L20.2,76.5L20.2,76.5z"/>
</g>
</svg>
