<?xml version="1.0" encoding="utf-8"?>
<!-- Generator: Adobe Illustrator 22.0.1, SVG Export Plug-In . SVG Version: 6.00 Build 0)  -->
<svg version="1.1" id="Layer_1" xmlns="http://www.w3.org/2000/svg" xmlns:xlink="http://www.w3.org/1999/xlink" x="0px" y="0px"
	 viewBox="0 0 100 100" style="enable-background:new 0 0 100 100;" xml:space="preserve">
<path d="M91.5,44.9h-3.8V13.3c0-3.2-2.6-5.8-5.8-5.8H18c-3.2,0-5.8,2.6-5.8,5.8v31.6H8.5c-3.2,0-5.8,2.6-5.8,5.7v36
	c0,3.2,2.6,5.8,5.8,5.8h83c3.2,0,5.8-2.6,5.8-5.8v-36C97.3,47.5,94.7,44.9,91.5,44.9z M18,13.1h64c0.1,0,0.3,0.1,0.3,0.3v10.1
	l-5.7,2.8c-4.8,2.3-9.1,2.5-13.6,0.6C61.2,26,59.5,25,57.7,24c-1.1-0.6-2.2-1.3-3.4-1.9C53.2,21.6,52,21,50.4,21
	c-2.6-0.1-4.6,1.5-6.1,2.7l-0.5,0.4c-7.8,6.1-17.8,3.4-26,0V13.3C17.8,13.2,17.9,13.1,18,13.1z M17.8,30c8.8,3.4,20.1,5.7,29.4-1.6
	l0.6-0.4c0.9-0.7,1.9-1.5,2.5-1.5c0,0,0,0,0,0c0.4,0,1.1,0.4,1.5,0.6c1.1,0.5,2.1,1.1,3.2,1.8c1.8,1,3.7,2.1,5.7,3
	c2.7,1.2,5.5,1.8,8.3,1.8c3.3,0,6.6-0.8,9.9-2.4l3.3-1.6v15.4H17.8V30z M8.5,50.4h3.8v0h75.5v0h3.8c0.1,0,0.3,0.1,0.3,0.3v7.3
	l-15.2,7.5c-4.5,2.2-8.7,2.5-12.9,0.8c-2.2-0.9-4.3-2.1-6.6-3.4c-0.8-0.5-1.6-0.9-2.4-1.4c-0.8-0.4-2.2-1.2-3.7-1.3
	c-2.7-0.2-4.8,1.5-6.4,2.6l-0.5,0.4c-6.2,4.7-13.2,4-22.4,1.3c-4.7-1.4-9.1-3.5-13.3-6.2v-7.7C8.3,50.5,8.4,50.4,8.5,50.4z
	 M91.5,86.9h-83c-0.1,0-0.3-0.1-0.3-0.3V64.8c3.7,2.1,7.7,3.8,11.7,5c8.5,2.5,18.3,4.6,27.3-2.2l0.6-0.4c0.9-0.7,2-1.5,2.6-1.5
	c0.4,0,1.1,0.4,1.5,0.6c0.8,0.4,1.6,0.9,2.3,1.3c2.3,1.3,4.7,2.7,7.3,3.7c2.5,1,4.9,1.4,7.5,1.4c3.3,0,6.6-0.8,9.9-2.5l12.8-6.3
	v22.6C91.8,86.8,91.6,86.9,91.5,86.9z"/>
</svg>
