<?xml version="1.0" encoding="utf-8"?>
<!-- Generator: Adobe Illustrator 22.0.1, SVG Export Plug-In . SVG Version: 6.00 Build 0)  -->
<svg version="1.1" id="Layer_1" xmlns="http://www.w3.org/2000/svg" xmlns:xlink="http://www.w3.org/1999/xlink" x="0px" y="0px"
	 viewBox="0 0 100 100" style="enable-background:new 0 0 100 100;" xml:space="preserve">
<g>
	<path d="M20,31.1h4.6v4.6c0,1.5,1.2,2.8,2.8,2.8c1.6,0,2.8-1.2,2.8-2.8v-4.6h4.6c1.5,0,2.8-1.2,2.8-2.8c0-1.6-1.2-2.8-2.8-2.8h-4.6
		V21c0-1.5-1.2-2.8-2.8-2.8c-1.6,0-2.8,1.2-2.8,2.8v4.6H20c-1.5,0-2.8,1.2-2.8,2.8C17.2,30,18.5,31.1,20,31.1z"/>
	<path d="M68.5,28.4l-3.3,3.3c-1.1,1.1-1.1,2.8,0,3.9c0.5,0.5,1.2,0.8,1.9,0.8c0.7,0,1.4-0.3,1.9-0.8l3.3-3.3l3.3,3.3
		c0.5,0.5,1.2,0.8,1.9,0.8s1.4-0.3,1.9-0.8c1.1-1.1,1.1-2.8,0-3.9l-3.3-3.3l3.3-3.3c1.1-1.1,1.1-2.8,0-3.9c-1.1-1.1-2.8-1.1-3.9,0
		l-3.3,3.3l-3.3-3.3c-1.1-1.1-2.8-1.1-3.9,0c-1.1,1.1-1.1,2.8,0,3.9L68.5,28.4z"/>
	<path d="M20,76.2h14.8c1.5,0,2.8-1.2,2.8-2.8c0-1.6-1.3-2.8-2.9-2.8H20c-1.5,0-2.8,1.2-2.8,2.8C17.2,75,18.4,76.2,20,76.2z"/>
	<path d="M67.8,82.6c0.4,0.2,0.8,0.3,1.3,0.3c1,0,1.9-0.5,2.4-1.5l6.8-13.1c0.6-1.3,0.1-3-1.2-3.7c-1.3-0.7-3-0.2-3.7,1.2l-6.8,13.1
		C65.9,80.2,66.4,81.9,67.8,82.6z"/>
	<path d="M94,1.3H6C3.4,1.3,1.3,3.4,1.3,6v88c0,2.6,2.1,4.8,4.8,4.8h88c2.6,0,4.8-2.1,4.8-4.8V6C98.8,3.4,96.6,1.3,94,1.3z
		 M47.3,93.3H6.8V52.8h40.5V93.3z M47.3,47.3H6.8V6.8h40.5V47.3z M93.3,93.3H52.8V52.8h40.5V93.3z M93.3,47.3H52.8V6.8h40.5V47.3z"
		/>
</g>
</svg>
