<?xml version="1.0" encoding="utf-8"?>
<!-- Generator: Adobe Illustrator 22.0.1, SVG Export Plug-In . SVG Version: 6.00 Build 0)  -->
<svg version="1.1" id="Layer_2_1_" xmlns="http://www.w3.org/2000/svg" xmlns:xlink="http://www.w3.org/1999/xlink" x="0px" y="0px"
	 viewBox="0 0 100 100" style="enable-background:new 0 0 100 100;" xml:space="preserve">
<style type="text/css">
	.st0{fill:#1D1D1B;}
</style>
<g>
	<path class="st0" d="M23.6,53.6h-1.2c-1.3,0-2.3,0.9-2.3,2.3v1.2c0,1.5,1.2,2.3,2.3,2.3h1.2c1.3,0,2.3-0.9,2.3-2.3v-1.2
		C25.9,54.5,25,53.6,23.6,53.6z"/>
	<path class="st0" d="M42,53.6h-1.2c-1.3,0-2.3,0.9-2.3,2.3v1.2c-0.1,1.5,0.8,2.3,2.3,2.3H42c1.3,0,2.3-0.9,2.3-2.3v-1.2
		C44.2,54.5,43.3,53.6,42,53.6z"/>
	<path class="st0" d="M59.9,53.6h-1.2c-1.3,0-2.3,0.9-2.3,2.3v1.2c0,1.5,0.9,2.3,2.3,2.3h1.2c1.3,0,2.3-0.9,2.3-2.3v-1.2
		C62.2,54.5,61.2,53.6,59.9,53.6z"/>
	<path class="st0" d="M75.6,53.6h-1.2c-1.3,0-2.3,0.9-2.3,2.3v1.2c0,1.5,1.1,2.3,2.3,2.3h1.2c1.3,0,2.3-0.9,2.3-2.3v-1.2
		C77.8,54.5,76.9,53.6,75.6,53.6z"/>
	<path class="st0" d="M23.6,65.8h-1.2c-1.3,0-2.3,0.9-2.3,2.3v1.2c0,1.5,1.2,2.3,2.3,2.3h1.2c1.3,0,2.3-0.9,2.3-2.3V68
		C25.9,66.7,25,65.8,23.6,65.8z"/>
	<path class="st0" d="M42,65.8h-1.2c-1.3,0-2.3,0.9-2.3,2.3v1.2c-0.1,1.5,0.8,2.3,2.3,2.3H42c1.3,0,2.3-0.9,2.3-2.3V68
		C44.2,66.7,43.3,65.8,42,65.8z"/>
	<path class="st0" d="M59.9,65.8h-1.2c-1.3,0-2.3,0.9-2.3,2.3v1.2c0,1.5,0.9,2.3,2.3,2.3h1.2c1.3,0,2.3-0.9,2.3-2.3V68
		C62.2,66.7,61.2,65.8,59.9,65.8z"/>
	<path class="st0" d="M75.6,65.8h-1.2c-1.3,0-2.3,0.9-2.3,2.3v1.2c0,1.5,1.1,2.3,2.3,2.3h1.2c1.3,0,2.3-0.9,2.3-2.3V68
		C77.8,66.7,76.9,65.8,75.6,65.8z"/>
	<path class="st0" d="M23.6,78.6h-1.2c-1.3,0-2.3,0.9-2.3,2.3v1.2c0,1.3,1.2,2.3,2.3,2.3h1.2c1.3,0,2.3-0.9,2.3-2.3v-1.2
		C25.9,79.5,25,78.6,23.6,78.6z"/>
	<path class="st0" d="M42,78.6h-1.2c-1.3,0-2.3,0.9-2.3,2.3v1.2c-0.1,1.3,0.8,2.3,2.3,2.3H42c1.3,0,2.3-0.9,2.3-2.3v-1.2
		C44.2,79.5,43.3,78.6,42,78.6z"/>
	<path class="st0" d="M93.6,24.7H52.5v-6.5c2.5-1.1,4.2-3.5,4.2-6.4c0-3.8-3.1-7-7-7s-7,3.1-7,7c0,2.9,1.7,5.3,4.2,6.4v6.5H6.4
		c-2.6,0-4.8,2.1-4.8,4.8v60.9c0,2.6,2.1,4.8,4.8,4.8h87.3c2.6,0,4.8-2.1,4.8-4.8V29.5C98.4,26.9,96.3,24.7,93.6,24.7z M92.9,30.2
		v10.3H7.1V30.2H92.9z M7.1,89.7V46h85.8v43.6H7.1z"/>
</g>
</svg>
