<?xml version="1.0" encoding="utf-8"?>
<!-- Generator: Adobe Illustrator 22.0.1, SVG Export Plug-In . SVG Version: 6.00 Build 0)  -->
<svg version="1.1" id="Layer_1" xmlns="http://www.w3.org/2000/svg" xmlns:xlink="http://www.w3.org/1999/xlink" x="0px" y="0px"
	 viewBox="0 0 100 100" style="enable-background:new 0 0 100 100;" xml:space="preserve">
<path d="M88.4,19.6C84.5,11.9,78,6.1,69.8,3.3C61.6,0.6,52.9,1.2,45.2,5C37.5,8.8,31.7,15.4,29,23.6L8.9,83.1
	c-2,6.1,1.2,12.6,7.3,14.7h0c1.2,0.4,2.5,0.6,3.7,0.6c4.8,0,9.4-3.1,11-7.9l20-59.2c1.6-4.7,6.4-7.4,10.9-6.2
	c2.5,0.7,4.7,2.4,5.8,4.7c1.1,2.2,1.2,4.6,0.5,6.9l-7.6,22.5c-2,6.1,1.2,12.6,7.3,14.7c2.9,1,6.1,0.8,8.8-0.6
	c2.8-1.4,4.8-3.7,5.8-6.7L90,44.2C92.8,36,92.2,27.3,88.4,19.6z M31.4,71.7l-13,0.4L23,58.5l13-0.4L31.4,71.7z M37.8,52.6l-13,0.4
	l4.3-12.8l13-0.4L37.8,52.6z M25.6,88.7c-1.1,3.2-4.5,4.9-7.7,3.8c-3.2-1.1-4.9-4.5-3.8-7.7l2.4-7.2l13-0.4L25.6,88.7z M63.2,19.8
	c-7.3-1.9-15.1,2.4-17.5,9.8L44,34.2l-13,0.4l3.1-9.3c2.3-6.8,7.1-12.2,13.5-15.4C54,6.8,61.3,6.3,68,8.5
	c6.8,2.3,12.2,7.1,15.4,13.5c1.7,3.5,2.7,7.3,2.8,11.1L74,33.4c-0.1-2-0.6-4.1-1.5-6C70.7,23.7,67.2,20.9,63.2,19.8z M77.2,64.9
	c-0.5,1.5-1.6,2.8-3.1,3.5c-1.5,0.7-3.1,0.8-4.6,0.3c-3.2-1.1-4.9-4.5-3.8-7.7l1.3-3.7l13-0.4L77.2,64.9z M81.8,51.4l-13,0.4
	l4.3-12.8l12.7-0.3c-0.2,1.3-0.6,2.6-1,3.8L81.8,51.4z"/>
</svg>
