<?xml version="1.0" encoding="utf-8"?>
<!-- Generator: Adobe Illustrator 22.0.1, SVG Export Plug-In . SVG Version: 6.00 Build 0)  -->
<svg version="1.1" id="Layer_1" xmlns="http://www.w3.org/2000/svg" xmlns:xlink="http://www.w3.org/1999/xlink" x="0px" y="0px"
	 viewBox="0 0 100 100" style="enable-background:new 0 0 100 100;" xml:space="preserve">
<path d="M93.2,19.9L80.1,6.8c-1.2-1.2-2.9-1.8-4.7-1.7c-1.7,0.2-3.3,1.1-4.2,2.6L63,20.6c-7.5-2.3-16-0.5-21.9,5.4L25.4,41.7
	c-5.9,5.9-7.7,14.2-5.5,21.7L7.7,71.2c-1.5,0.9-2.4,2.5-2.6,4.2c-0.2,1.7,0.4,3.4,1.6,4.7l13.1,13.1c1.1,1.1,2.5,1.7,4.1,1.7
	c0.2,0,0.4,0,0.6,0c1.7-0.2,3.3-1.1,4.2-2.6l7.7-11.9c2.2,0.7,4.6,1.1,6.9,1.1c5.6,0,11.2-2.1,15.4-6.4l15.7-15.7
	c6.1-6.1,7.8-14.9,5.2-22.5l12.6-8.1c1.5-0.9,2.4-2.5,2.6-4.2C95,22.8,94.4,21.1,93.2,19.9z M24.1,89.3c0,0-0.1,0.1-0.2,0.1
	c-0.1,0-0.2-0.1-0.2-0.1L10.7,76.2c0,0-0.1-0.1-0.1-0.2s0.1-0.2,0.1-0.2l11.5-7.4c0.9,1.4,1.9,2.8,3.2,4.1l2.6,2.6
	c1.1,1.1,2.3,2,3.5,2.8L24.1,89.3z M54.9,71.2c-6.4,6.4-16.7,6.4-23,0l-2.6-2.6c-6.4-6.4-6.4-16.7,0-23l4.6-4.6l7.3-0.5
	c1-0.1,2,0.3,2.8,1.1c0.7,0.8,1.1,1.7,1,2.8c-0.2,2.5,0.7,5,2.4,6.9c1.7,1.9,4.1,2.9,6.7,2.9h2.2c2,0,3.6,1.6,3.6,3.6v8.7L54.9,71.2
	z M70.6,55.5l-5.4,5.4v-3.2c0-5-4.1-9.1-9.1-9.1H54c-1,0-1.9-0.4-2.6-1.1c-0.7-0.7-1-1.7-0.9-2.7c0.2-2.6-0.7-5.2-2.6-7.1
	c-1.9-1.9-4.4-2.9-7.1-2.7l-1,0.1l5.2-5.2c3.2-3.2,7.3-4.8,11.5-4.8c4.2,0,8.3,1.6,11.5,4.8l2.6,2.6C76.9,38.8,76.9,49.1,70.6,55.5z
	 M89.3,24.1l-12.1,7.8c-0.8-1.2-1.7-2.3-2.7-3.3L71.9,26c-1.2-1.2-2.5-2.2-3.9-3.1l7.9-12.2c0,0,0.1-0.1,0.2-0.1
	c0.1,0,0.2,0.1,0.2,0.1l13.1,13.1c0,0,0.1,0.1,0.1,0.2C89.4,24.1,89.3,24.1,89.3,24.1z"/>
</svg>
