<?xml version="1.0" encoding="utf-8"?>
<!-- Generator: Adobe Illustrator 21.0.2, SVG Export Plug-In . SVG Version: 6.00 Build 0)  -->
<svg version="1.1" id="Layer_1" xmlns="http://www.w3.org/2000/svg" xmlns:xlink="http://www.w3.org/1999/xlink" x="0px" y="0px"
	 viewBox="0 0 100 100" style="enable-background:new 0 0 100 100;" xml:space="preserve">
<path d="M89.4,10.6C84.4,5.7,77.9,3,70.9,3s-13.5,2.7-18.5,7.6L10.6,52.4C5.7,57.4,3,63.9,3,70.9s2.7,13.5,7.6,18.5
	c4.9,4.9,11.5,7.6,18.5,7.6s13.5-2.7,18.5-7.6l41.8-41.8c4.9-4.9,7.6-11.5,7.6-18.5C97,22.1,94.3,15.6,89.4,10.6z M43.7,85.5
	c-8,8-21.1,8-29.1,0c-8-8-8-21.1,0-29.1l19-19l29.1,29.1L43.7,85.5z M85.5,43.7l-19,19L37.4,33.5l19-19c3.9-3.9,9.1-6,14.6-6
	c5.5,0,10.7,2.1,14.6,6c3.9,3.9,6,9.1,6,14.6C91.5,34.6,89.4,39.8,85.5,43.7z"/>
</svg>
