<?xml version="1.0" encoding="utf-8"?>
<!-- Generator: Adobe Illustrator 22.0.1, SVG Export Plug-In . SVG Version: 6.00 Build 0)  -->
<svg version="1.1" id="Layer_2_1_" xmlns="http://www.w3.org/2000/svg" xmlns:xlink="http://www.w3.org/1999/xlink" x="0px" y="0px"
	 viewBox="0 0 100 100" style="enable-background:new 0 0 100 100;" xml:space="preserve">
<g>
	<path d="M20.5,59.3h11.6c1.5,0,2.8-1.2,2.8-2.8s-1.2-2.8-2.8-2.8H20.5c-1.5,0-2.8,1.2-2.8,2.8S19,59.3,20.5,59.3z"/>
	<path d="M65,59.3h11.6c1.5,0,2.8-1.2,2.8-2.8s-1.2-2.8-2.8-2.8H65c-1.5,0-2.8,1.2-2.8,2.8S63.5,59.3,65,59.3z"/>
	<path d="M92.8,32.2h-5.9c-0.1,0-0.2,0-0.3,0l-6.7-17.4c-1-2.6-3.5-4.3-6.2-4.3H25c-2.7,0-5.2,1.7-6.2,4.3l-6.7,17.4H7
		c-1.5,0-2.8,1.2-2.8,2.8s1.2,2.8,2.8,2.8h2.7c-1.9,0.3-3.3,1.9-3.3,3.9v29.8c0,2.3,1.7,4,4,4h2.3v8.3c0,3.1,2.5,5.7,5.6,5.7h7.5
		c3.1,0,5.6-2.5,5.6-5.7v-8.4l35.2-0.1v8.4c0,3.1,2.5,5.7,5.7,5.7h7.5c3.1,0,5.6-2.5,5.6-5.7v-8.5h2.4c2.2,0,4-1.8,4-4V41.6
		c0-1.9-1.2-3.4-2.9-3.8v-0.1H93c1.5,0,2.8-1.2,2.8-2.8C95.8,33.3,94.3,32.2,92.8,32.2z M25.8,84h-7.5c-0.1,0-0.1-0.1-0.1-0.2v-7.6
		H26v7.6L25.8,84z M79.9,83.8c0,0.1-0.1,0.2-0.1,0.2h-7.5c-0.1,0-0.2-0.1-0.2-0.2v-7.6h7.8C79.9,76.2,79.9,83.8,79.9,83.8z
		 M23.9,16.7c0.2-0.4,0.6-0.7,1.1-0.7h48.7c0.5,0,0.9,0.3,1.1,0.7l8,20.9H15.9L23.9,16.7z M86.2,69.8H11.9V43.1h74.3
		C86.2,43.1,86.2,69.8,86.2,69.8z"/>
</g>
</svg>
