<?xml version="1.0" encoding="utf-8"?>
<!-- Generator: Adobe Illustrator 22.0.1, SVG Export Plug-In . SVG Version: 6.00 Build 0)  -->
<svg version="1.1" id="Layer_2_1_" xmlns="http://www.w3.org/2000/svg" xmlns:xlink="http://www.w3.org/1999/xlink" x="0px" y="0px"
	 viewBox="0 0 100 100" style="enable-background:new 0 0 100 100;" xml:space="preserve">
<g>
	<path d="M91.7,40.3h-0.6l-1.4-18.1c-0.7-9.3-8.6-16.5-18-16.5H28.4c-9.3,0-17.2,7.3-18,16.5L8.9,40.3H8.3c-2.3,0-4,1.7-4,4v32.1
		c0,2.3,1.7,4,4,4h2.5v8.2c0,3.1,2.5,5.7,5.6,5.7h7.5c3.1,0,5.6-2.5,5.6-5.7v-8.2h41.2v8.2c0,3.1,2.5,5.7,5.7,5.7h7.5
		c3.1,0,5.6-2.5,5.6-5.7v-8.2h2.2c2.2,0,4-1.8,4-4V44.3C95.8,42,94,40.3,91.7,40.3z M24,88.6c0,0.1-0.1,0.2-0.1,0.2h-7.5
		c-0.1,0-0.1-0.1-0.1-0.2V81H24V88.6z M84,88.6c0,0.1-0.1,0.2-0.1,0.2h-7.5c-0.1,0-0.2-0.1-0.2-0.2V81H84V88.6z M15.9,22.6
		c0.5-6.4,6-11.4,12.5-11.4h43.3c6.5,0,12,5,12.5,11.4l1.4,17.7H14.4L15.9,22.6z M90.3,74.9H9.8V45.8h80.5V74.9z"/>
	<ellipse transform="matrix(0.997 -7.693648e-02 7.693648e-02 0.997 -4.5904 2.2882)" cx="27.4" cy="60.7" rx="9.4" ry="9.4"/>
	<circle cx="71.5" cy="60.7" r="9.4"/>
	<path d="M45.3,63.2h8.4c1.5,0,2.8-1.2,2.8-2.8c0-1.6-1.2-2.8-2.8-2.8h-8.4c-1.5,0-2.8,1.2-2.8,2.8C42.5,62,43.8,63.2,45.3,63.2z"/>
</g>
</svg>
