<?xml version="1.0" encoding="utf-8"?>
<!-- Generator: Adobe Illustrator 22.0.1, SVG Export Plug-In . SVG Version: 6.00 Build 0)  -->
<svg version="1.1" id="Layer_1" xmlns="http://www.w3.org/2000/svg" xmlns:xlink="http://www.w3.org/1999/xlink" x="0px" y="0px"
	 viewBox="0 0 100 100" style="enable-background:new 0 0 100 100;" xml:space="preserve">
<g>
	<path d="M29,32.4H18.7c-2.1,0-3.8,1.7-3.8,3.8v11c0,2.1,1.7,3.8,3.8,3.8H29c2.1,0,3.8-1.7,3.8-3.8v-11C32.8,34.1,31.1,32.4,29,32.4
		z M27.3,45.4h-6.8v-7.5h6.8V45.4z"/>
	<path d="M95.1,56.1c-1.5,0-2.8,1.2-2.8,2.8v3.6H88V40.2c0-0.7-0.2-1.4-0.6-2L75.3,18.6c-0.7-1.1-1.9-1.8-3.2-1.8H7.4
		c-2.1,0-3.8,1.7-3.8,3.8v43.6c0,2.1,1.7,3.8,3.8,3.8h4.8c-0.4,1.1-0.6,2.3-0.6,3.6c0,6.5,5.3,11.7,11.7,11.7
		c6.4,0,11.9-5.3,11.9-11.8c0-1.2-0.2-2.4-0.6-3.6h13.5H66h19.2c0,0,0,0,0.1,0H95c0.6,0,1.1-0.2,1.6-0.5c0,0,0,0,0,0
		c0.1-0.1,0.2-0.2,0.3-0.3c0.5-0.5,0.8-1.2,0.8-2v-6.3C97.8,57.3,96.6,56.1,95.1,56.1z M23.4,77.7c-3.4,0-6.2-2.8-6.2-6.2
		c0-3.4,2.8-6.2,6.2-6.2c3.4,0,6.2,2.8,6.2,6.2C29.6,74.9,26.9,77.7,23.4,77.7z M60.5,62.4h-6.8V38h6.8V62.4z M82.5,62.5H66V36.3
		c0-2.1-1.7-3.8-3.8-3.8H51.9c-2.1,0-3.7,1.7-3.7,3.8v26.1H30.9c-2-1.7-4.6-2.7-7.5-2.7c-2.9,0-5.4,1-7.5,2.7H9.1V22.3h62l11.4,18.4
		V62.5z"/>
</g>
</svg>
