<?xml version="1.0" encoding="utf-8"?>
<!-- Generator: Adobe Illustrator 22.0.1, SVG Export Plug-In . SVG Version: 6.00 Build 0)  -->
<svg version="1.1" id="Layer_2_1_" xmlns="http://www.w3.org/2000/svg" xmlns:xlink="http://www.w3.org/1999/xlink" x="0px" y="0px"
	 viewBox="0 0 100 100" style="enable-background:new 0 0 100 100;" xml:space="preserve">
<g>
	<path d="M90.6,2.5h-8c-1.9,0-3.5,1.4-3.7,3.4L77,24.9H11.4c-1.5,0-2.8,0.7-3.8,1.8c-0.9,1.2-1.2,2.7-0.8,4.1l10.7,41.9
		c0.5,2.1,2.4,3.6,4.6,3.6H73c0.3,0,0.7,0,1-0.1c0.2,0,0.3,0.1,0.5,0.1c0.1,0,0.2,0,0.3,0c1.4,0,2.6-1.1,2.7-2.5l0.2-1.7
		c0,0,0,0,0,0l4.9-47.1h-0.1L84.2,8h6.4c1.5,0,2.8-1.2,2.8-2.8S92.2,2.5,90.6,2.5z M12.3,30.4h64.1l-4.1,40.4H22.7L12.3,30.4z"/>
	<circle cx="31.2" cy="89.4" r="8"/>
	<circle cx="64.2" cy="89.4" r="8"/>
</g>
</svg>
