<?xml version="1.0" encoding="utf-8"?>
<!-- Generator: Adobe Illustrator 22.0.1, SVG Export Plug-In . SVG Version: 6.00 Build 0)  -->
<svg version="1.1" id="Layer_1" xmlns="http://www.w3.org/2000/svg" xmlns:xlink="http://www.w3.org/1999/xlink" x="0px" y="0px"
	 viewBox="0 0 100 100" style="enable-background:new 0 0 100 100;" xml:space="preserve">
<path d="M92.7,56.7H81.5V14.8c0-6.5-5.3-11.9-11.8-11.9l0,0h-0.1l0,0l0,0c-0.4,0-0.9,0-1.3,0H59H20c-9.7,0-17.7,7.9-17.7,17.7v6.6
	c0,2.8,2.3,5.1,5.1,5.1h9.8V78c0,5.3,4.3,9.7,9.7,9.7h11.9v6.4c0,1.2,0.7,2.4,1.8,2.9c0.5,0.3,1,0.4,1.6,0.4s1.3-0.2,1.8-0.6l7-4.7
	l7,4.7c1,0.7,2.3,0.7,3.4,0.2c1.1-0.6,1.8-1.7,1.8-2.9v-6.5c0.2,0.1,0.5,0.1,0.7,0.1H87c0.4,0,0.7,0,1-0.1h0.1h0.1l0,0
	c0.2,0,0.5-0.1,0.8-0.1c0.1,0,0.2,0,0.2,0c0.1,0,0.2,0,0.2-0.1c0.2,0,0.3-0.1,0.5-0.1c0.1,0,0.3-0.1,0.4-0.1s0.2,0,0.2-0.1l0,0
	c0.3-0.1,0.6-0.2,0.8-0.3c0.1,0,0.2-0.1,0.2-0.1l0,0c0.1,0,0.1-0.1,0.2-0.1c0.3-0.1,0.5-0.3,0.8-0.4l0,0c0.2-0.1,0.5-0.3,0.7-0.5
	c0,0,0.1,0,0.1-0.1l0.1-0.1l0.1-0.1c0.2-0.2,0.4-0.3,0.6-0.5c0.3-0.3,0.7-0.6,0.9-1l0,0l0,0c0.2-0.2,0.5-0.6,0.7-1
	c0-0.1,0.1-0.1,0.1-0.2s0.1-0.1,0.1-0.2s0.1-0.1,0.1-0.2c0.1-0.2,0.2-0.3,0.3-0.5c0.1-0.2,0.2-0.4,0.3-0.6l0,0l0,0
	c0-0.1,0.1-0.2,0.1-0.3c0.2-0.6,0.4-1.2,0.5-1.8c0.1-0.7,0.2-1.4,0.2-2.2V61.8C97.8,59,95.5,56.7,92.7,56.7z M7.8,20.5
	c0-6.7,5.5-12.2,12.2-12.2h38.5c-1.4,2-2.2,4.5-2.2,7.1v11.2H7.8V20.5z M50.9,74.4c-5.9,0-10.7-4.8-10.7-10.7S45,53.1,50.9,53.1
	s10.7,4.8,10.7,10.7S56.8,74.4,50.9,74.4z M50.9,85.3l-6.7,4.4V78.5c2,0.9,4.3,1.5,6.7,1.5s4.6-0.5,6.7-1.5v11.3L50.9,85.3z
	 M63.1,82.1v-7.7c2.5-2.8,4-6.5,4-10.6c0-8.9-7.2-16.2-16.2-16.2c-8.9,0-16.2,7.2-16.2,16.2c0,4,1.5,7.7,4,10.6V82H26.8
	c-2.3,0-4.2-1.9-4.2-4.2V32.1h34c2.8,0,5.1-2.3,5.1-5.1V15.5c0-3.7,2.9-6.9,6.6-7.1h1.3c3.5,0,6.4,2.9,6.4,6.4v61.9
	c0,1.9,0.5,3.8,1.4,5.4H63.8C63.5,82,63.3,82,63.1,82.1z M92.1,77.7c-0.1,0.3-0.2,0.7-0.3,1l0,0c-0.1,0.2-0.2,0.3-0.2,0.5l-0.2,0.3
	c-0.1,0.1-0.2,0.3-0.3,0.4L91,80c-0.1,0.1-0.2,0.3-0.4,0.4l0,0l0,0c-0.1,0.1-0.2,0.2-0.4,0.3l-0.1,0.1c-0.3,0.2-0.6,0.4-0.9,0.5l0,0
	c-0.1,0.1-0.2,0.1-0.3,0.1c-0.1,0-0.2,0.1-0.3,0.1l-0.2,0.1c-0.1,0-0.3,0.1-0.4,0.1l0,0h-0.1c-0.1,0-0.3,0.1-0.4,0.1h-0.2
	c-0.2,0-0.3,0-0.5,0c-3,0-5.4-2.4-5.4-5.4V62.2h10.7C92.1,62.2,92.2,77.4,92.1,77.7z"/>
</svg>
