<?xml version="1.0" encoding="utf-8"?>
<!-- Generator: Adobe Illustrator 22.0.1, SVG Export Plug-In . SVG Version: 6.00 Build 0)  -->
<svg version="1.1" id="Layer_1" xmlns="http://www.w3.org/2000/svg" xmlns:xlink="http://www.w3.org/1999/xlink" x="0px" y="0px"
	 viewBox="0 0 100 100" style="enable-background:new 0 0 100 100;" xml:space="preserve">
<g id="Layer_2_1_">
</g>
<path d="M95.9,10.6c-1.1-1.1-2.8-1.1-3.9,0L79.6,23v-2.3c0-2.6-2.1-4.8-4.8-4.8H8c-2.6,0-4.8,2.1-4.8,4.8v64.8
	c0,2.6,2.1,4.8,4.8,4.8h66.9c2.6,0,4.8-2.1,4.8-4.8V30.8l16.3-16.3C97,13.4,97,11.7,95.9,10.6z M74.1,84.7H8.7V21.5h65.4v7.1
	L61.3,41.3L50.2,30.2c-1.1-1.1-2.8-1.1-3.9,0c-1.1,1.1-1.1,2.8,0,3.9l12.3,12.3c0.8,0.8,1.7,1.1,2.7,1.1s1.9-0.4,2.7-1.1l10.1-10.1
	V84.7z"/>
</svg>
