<?xml version="1.0" encoding="utf-8"?>
<!-- Generator: Adobe Illustrator 22.0.1, SVG Export Plug-In . SVG Version: 6.00 Build 0)  -->
<svg version="1.1" id="Layer_1" xmlns="http://www.w3.org/2000/svg" xmlns:xlink="http://www.w3.org/1999/xlink" x="0px" y="0px"
	 viewBox="0 0 100 100" style="enable-background:new 0 0 100 100;" xml:space="preserve">
<path d="M74.7,20.6C71.3,9.9,61.4,2.6,50,2.6c-11.4,0-21.3,7.3-24.7,18C12.7,23.1,3.4,34.3,3.4,47.3v0.2c0.1,9.9,7.6,18.2,17.5,19.5
	L21.4,92c0,3,2.4,5.4,5.4,5.4h46.4c3,0,5.5-2.4,5.4-5.4l0.7-25c9.8-1.3,17.2-9.7,17.2-19.7C96.6,34.3,87.3,23.1,74.7,20.6z
	 M26.9,91.9l-0.2-8.8h46.7l-0.2,8.8L26.9,91.9z M77.5,61.7c-2,0.1-3.5,1.7-3.6,3.6l-0.3,12.3h-47l-0.2-12.2c0-2-1.6-3.6-3.6-3.7
	C15.1,61.3,9,55,8.9,47.5v-0.2c0-10.9,8.1-20.1,18.9-21.5l1.9-0.2l0.4-1.8C32.3,14.5,40.5,8.1,50,8.1c9.5,0,17.7,6.4,19.9,15.6
	l0.4,1.8l1.9,0.2C83,27.2,91.1,36.4,91.1,47.3C91.1,54.9,85.1,61.3,77.5,61.7z"/>
</svg>
