<?xml version="1.0" encoding="utf-8"?>
<!-- Generator: Adobe Illustrator 22.0.1, SVG Export Plug-In . SVG Version: 6.00 Build 0)  -->
<svg version="1.1" id="Layer_1" xmlns="http://www.w3.org/2000/svg" xmlns:xlink="http://www.w3.org/1999/xlink" x="0px" y="0px"
	 viewBox="0 0 100 100" style="enable-background:new 0 0 100 100;" xml:space="preserve">
<g>
	<g>
		<path d="M35.7,77.2c-1.1-1.1-1.1-2.8,0-3.9L59,50.1L35.7,26.7c-1.1-1.1-1.1-2.8,0-3.9c1.1-1.1,2.8-1.1,3.9,0L64,47.4
			c0.7,0.7,1.1,1.7,1.1,2.7c0,1-0.4,2-1.1,2.7L39.6,77.2C39,77.8,38.3,78,37.6,78S36.2,77.8,35.7,77.2z M60.2,51.3L60.2,51.3
			C60.1,51.3,60.1,51.3,60.2,51.3z"/>
	</g>
</g>
<g>
	<path d="M1,50C1,23,23,1,50,1s49,22,49,49S77,99,50,99S1,77,1,50z M6.5,50C6.5,74,26,93.5,50,93.5C74,93.5,93.5,74,93.5,50
		C93.5,26,74,6.5,50,6.5C26,6.5,6.5,26,6.5,50z"/>
</g>
</svg>
