<?xml version="1.0" encoding="utf-8"?>
<!-- Generator: Adobe Illustrator 22.0.1, SVG Export Plug-In . SVG Version: 6.00 Build 0)  -->
<svg version="1.1" id="Layer_1" xmlns="http://www.w3.org/2000/svg" xmlns:xlink="http://www.w3.org/1999/xlink" x="0px" y="0px"
	 viewBox="0 0 100 100" style="enable-background:new 0 0 100 100;" xml:space="preserve">
<g>
	<g>
		<path d="M62.4,78c-0.7,0-1.4-0.3-1.9-0.8L36,52.8c-0.7-0.7-1.1-1.7-1.1-2.7c0-1,0.4-2,1.1-2.7l24.5-24.6c1.1-1.1,2.8-1.1,3.9,0
			c1.1,1.1,1.1,2.8,0,3.9L41,50.1l23.3,23.3c1.1,1.1,1.1,2.8,0,3.9C63.8,77.8,63.1,78,62.4,78z M39.9,51.3L39.9,51.3
			C39.9,51.3,39.9,51.3,39.9,51.3z"/>
	</g>
</g>
<g>
	<path d="M50,99C23,99,1,77,1,50S23,1,50,1s49,22,49,49S77,99,50,99z M50,6.5C26,6.5,6.5,26,6.5,50C6.5,74,26,93.5,50,93.5
		C74,93.5,93.5,74,93.5,50C93.5,26,74,6.5,50,6.5z"/>
</g>
</svg>
