<?xml version="1.0" encoding="utf-8"?>
<!-- Generator: Adobe Illustrator 22.0.1, SVG Export Plug-In . SVG Version: 6.00 Build 0)  -->
<svg version="1.1" id="Layer_1" xmlns="http://www.w3.org/2000/svg" xmlns:xlink="http://www.w3.org/1999/xlink" x="0px" y="0px"
	 viewBox="0 0 100 100" style="enable-background:new 0 0 100 100;" xml:space="preserve">
<g>
	<g>
		<path d="M22.8,35.7c1.1-1.1,2.8-1.1,3.9,0L49.9,59l23.4-23.3c1.1-1.1,2.8-1.1,3.9,0c1.1,1.1,1.1,2.8,0,3.9L52.6,64
			c-0.7,0.7-1.7,1.1-2.7,1.1c-1,0-2-0.4-2.7-1.1L22.8,39.6C22.2,39,22,38.3,22,37.6S22.2,36.2,22.8,35.7z M48.7,60.2L48.7,60.2
			C48.7,60.1,48.7,60.1,48.7,60.2z"/>
	</g>
</g>
<g>
	<path d="M50,1c27,0,49,22,49,49S77,99,50,99S1,77,1,50S23,1,50,1z M50,6.5C26,6.5,6.5,26,6.5,50C6.5,74,26,93.5,50,93.5
		C74,93.5,93.5,74,93.5,50C93.5,26,74,6.5,50,6.5z"/>
</g>
</svg>
