<?xml version="1.0" encoding="utf-8"?>
<!-- Generator: Adobe Illustrator 22.0.1, SVG Export Plug-In . SVG Version: 6.00 Build 0)  -->
<svg version="1.1" id="Layer_2_1_" xmlns="http://www.w3.org/2000/svg" xmlns:xlink="http://www.w3.org/1999/xlink" x="0px" y="0px"
	 viewBox="0 0 100 100" style="enable-background:new 0 0 100 100;" xml:space="preserve">
<path d="M78.9,13.2H68.7v-3c0-1.7-1.4-3.1-3.1-3.1H53.5V4.7c0-1.9-1.6-3.5-3.5-3.5c-1.9,0-3.5,1.6-3.5,3.5v2.5H34.6
	c-1.7,0-3.1,1.4-3.1,3.1v3H21.1c-2.4,0-4.3,1.8-4.3,4.3v77c0,2.4,1.8,4.3,4.3,4.3h57.7c2.4,0,4.3-1.9,4.3-4.3v-77
	C83.2,15,81.3,13.2,78.9,13.2z M77.7,93.3H22.3V18.7h9.1v1.9c0,1.7,1.4,3.1,3.1,3.1h31c1.7,0,3.1-1.4,3.1-3.1v-1.9h9V93.3z"/>
</svg>
