<?xml version="1.0" encoding="utf-8"?>
<!-- Generator: Adobe Illustrator 21.0.2, SVG Export Plug-In . SVG Version: 6.00 Build 0)  -->
<svg version="1.1" id="Layer_1" xmlns="http://www.w3.org/2000/svg" xmlns:xlink="http://www.w3.org/1999/xlink" x="0px" y="0px"
	 viewBox="0 0 100 100" style="enable-background:new 0 0 100 100;" xml:space="preserve">
<style type="text/css">
	.st0{fill:#020203;}
</style>
<g>
	<path class="st0" d="M79.6,37.4c0-9.8-7.9-17.7-17.7-17.7c-5.5,0-10.6,2.6-14,6.8c-1.7-0.4-3.5-0.6-5.4-0.6
		c-12.7,0-23.1,10-23.7,22.5c-9.5,1-16.9,9-16.9,18.8c0,10.3,8.3,18.7,18.6,18.9l37.8,0C72,86,83.1,75,83.1,61.3
		c0-5.7-2-11.1-5.6-15.5C78.9,43.2,79.6,40.3,79.6,37.4z M74.1,37.4c0,1.5-0.3,3-0.8,4.3c-3.1-2.4-6.8-4-10.8-4.7
		c-2.3-3.6-5.4-6.5-9.1-8.5c2.2-2.2,5.2-3.4,8.5-3.4C68.7,25.2,74.1,30.6,74.1,37.4z M58.3,80.5H20.9c-7.4,0-13.4-6-13.4-13.4
		s6-13.4,13.4-13.4h3.5v-4.1c0-10.1,8.2-18.2,18.2-18.2c2.2,0,4.1,0.3,5.7,1l0.1,0c4.2,1.4,7.9,4.6,10,8.6l0.7,1.3l1.4,0.2
		c4.6,0.5,8.9,2.7,11.9,6c3.3,3.6,5.1,8.2,5.1,13C77.6,71.9,68.9,80.5,58.3,80.5z"/>
	<path class="st0" d="M61.9,13.8c1.5,0,2.8-1.2,2.8-2.8V4c0-1.5-1.2-2.8-2.8-2.8S59.2,2.5,59.2,4v7C59.2,12.5,60.4,13.8,61.9,13.8z"
		/>
	<path class="st0" d="M80.6,21.5c0.7,0,1.4-0.3,1.9-0.8l5-5c1.1-1.1,1.1-2.8,0-3.9c-1.1-1.1-2.8-1.1-3.9,0l-5,5
		c-1.1,1.1-1.1,2.8,0,3.9C79.2,21.2,79.9,21.5,80.6,21.5z"/>
	<path class="st0" d="M95.3,34.6h-7c-1.5,0-2.8,1.2-2.8,2.8s1.2,2.8,2.8,2.8h7c1.5,0,2.8-1.2,2.8-2.8S96.8,34.6,95.3,34.6z"/>
	<path class="st0" d="M41.3,20.7c0.5,0.5,1.2,0.8,1.9,0.8s1.4-0.3,1.9-0.8c1.1-1.1,1.1-2.8,0-3.9l-5-5c-1.1-1.1-2.8-1.1-3.9,0
		c-1.1,1.1-1.1,2.8,0,3.9L41.3,20.7z"/>
</g>
</svg>
