<?xml version="1.0" encoding="utf-8"?>
<!-- Generator: Adobe Illustrator 22.0.1, SVG Export Plug-In . SVG Version: 6.00 Build 0)  -->
<svg version="1.1" id="Layer_1" xmlns="http://www.w3.org/2000/svg" xmlns:xlink="http://www.w3.org/1999/xlink" x="0px" y="0px"
	 viewBox="0 0 100 100" style="enable-background:new 0 0 100 100;" xml:space="preserve">
<g>
	<path d="M90.8,36.7c-4.3-4.7-10.4-8-16.8-9c-3.4-5.6-8.6-9.9-14.7-12c-2.7-1.1-5.8-1.6-9.2-1.6c-15.3,0-27.7,12.2-28.3,27.3
		c-11.4,1-20.5,10.6-20.5,22.3c0,12.2,9.8,22.1,21.9,22.3v0h45.8c16.2,0,29.4-13.2,29.4-29.4C98.6,49.2,95.8,42.1,90.8,36.7z
		 M69.2,80.5H23.8c-9.3,0-16.9-7.6-16.9-16.9s7.6-16.9,16.9-16.9h3.6v-4.4c0-12.6,10.2-22.8,22.8-22.8c2.7,0,5.1,0.4,7.3,1.3
		c5.3,1.9,9.7,5.7,12.4,10.7l0.7,1.3l1.4,0.2c5.7,0.6,11,3.3,14.8,7.4c4.1,4.5,6.3,10.2,6.3,16.2C93.1,69.7,82.4,80.5,69.2,80.5z"/>
	<path d="M64,43.2L45.7,60.8l-5.9-6c-1.1-1.1-2.8-1.1-3.9,0c-1.1,1.1-1.1,2.8,0,3.9l7.1,7.2c0.7,0.7,1.7,1.1,2.7,1.1
		c1,0,2-0.4,2.7-1.1l19.5-18.8c1.1-1.1,1.1-2.8,0.1-3.9C66.9,42.1,65.1,42.1,64,43.2z"/>
</g>
</svg>
