<?xml version="1.0" encoding="utf-8"?>
<!-- Generator: Adobe Illustrator 22.0.1, SVG Export Plug-In . SVG Version: 6.00 Build 0)  -->
<svg version="1.1" id="Layer_1" xmlns="http://www.w3.org/2000/svg" xmlns:xlink="http://www.w3.org/1999/xlink" x="0px" y="0px"
	 viewBox="0 0 100 100" style="enable-background:new 0 0 100 100;" xml:space="preserve">
<g>
	<path d="M97.8,56.4c0-7.2-2.7-14.2-7.6-19.6c-0.2-0.2-0.3-0.3-0.5-0.4c-4.3-4.5-9.9-7.5-16-8.4c-3.3-5.5-8.4-9.6-14.5-11.8
		c0,0,0,0,0,0c0,0,0,0,0,0c0,0,0,0-0.1,0l0,0c-2.7-1-5.6-1.6-8.9-1.6c-15,0-27.3,12-27.8,26.9c-11.2,1-20,10.5-20,22
		c0,11.9,9.6,21.7,21.4,21.9c0,0,0.1,0,0.1,0h46c0.1,0,0.2,0,0.3,0C85.5,84.7,97.8,72,97.8,56.4z M68.8,79.9H24.2
		c-9.1,0-16.5-7.4-16.5-16.5c0-9.1,7.4-16.5,16.5-16.5h3.5v-4.5c0-12.3,10-22.3,22.4-22.3c2.7,0,5,0.4,7,1.2c0,0,0.1,0,0.1,0l0,0
		c5.3,1.8,9.6,5.6,12.3,10.5l0.7,1.3l1.4,0.2c5.5,0.6,10.6,3.2,14.4,7.3l0.1-0.1c0,0,0,0,0,0.1c4,4.4,6.2,10,6.2,15.8
		C92.3,69.4,81.7,79.9,68.8,79.9z"/>
	<path d="M60.2,47.4L50,39.5l-10.2,7.9c-1.2,0.9-1.4,2.7-0.5,3.9c0.5,0.7,1.4,1.1,2.2,1.1c0.6,0,1.2-0.2,1.7-0.6l4.1-3.2v20.9
		c0,1.5,1.2,2.8,2.8,2.8s2.8-1.2,2.8-2.8V48.6l4.1,3.2c1.2,0.9,2.9,0.7,3.9-0.5C61.6,50.1,61.4,48.4,60.2,47.4z"/>
</g>
</svg>
