<?xml version="1.0" encoding="utf-8"?>
<!-- Generator: Adobe Illustrator 22.0.1, SVG Export Plug-In . SVG Version: 6.00 Build 0)  -->
<svg version="1.1" id="Layer_1" xmlns="http://www.w3.org/2000/svg" xmlns:xlink="http://www.w3.org/1999/xlink" x="0px" y="0px"
	 viewBox="0 0 100 100" style="enable-background:new 0 0 100 100;" xml:space="preserve">
<g>
	<g>
		<path d="M32,52.6c0.5,0.5,1.2,0.8,1.9,0.8s1.4-0.3,1.9-0.8c1.1-1.1,1.1-2.8,0-3.9l-8.4-8.4l8.4-8.4c1.1-1.1,1.1-2.8,0-3.9
			C34.8,27,33.1,27,32,28L22,38c-1.3,1.3-1.3,3.3,0,4.6L32,52.6z"/>
		<path d="M64.1,52.6c0.5,0.5,1.2,0.8,1.9,0.8s1.4-0.3,1.9-0.8l10-10c1.3-1.3,1.3-3.3,0-4.6L68,28c-1.1-1.1-2.8-1.1-3.9,0
			c-1.1,1.1-1.1,2.8,0,3.9l8.4,8.4l-8.4,8.4C63.1,49.8,63.1,51.5,64.1,52.6z"/>
		<path d="M44.2,53c0.4,0.2,0.8,0.3,1.2,0.3c1,0,2-0.6,2.5-1.5L57,33c0.7-1.4,0.1-3-1.3-3.7c-1.4-0.7-3-0.1-3.7,1.3L43,49.3
			C42.3,50.7,42.9,52.3,44.2,53z"/>
	</g>
	<path d="M93,14.7H7c-2.6,0-4.8,2.1-4.8,4.8V62c0,2.6,2.1,4.8,4.8,4.8h39v13.1H35.6c-1.5,0-2.8,1.2-2.8,2.8s1.2,2.8,2.8,2.8h28.8
		c1.5,0,2.8-1.2,2.8-2.8s-1.2-2.8-2.8-2.8H54V66.8h39c2.6,0,4.8-2.1,4.8-4.8V19.4C97.8,16.8,95.6,14.7,93,14.7z M92.3,61.3H7.8V20.2
		h84.5V61.3z"/>
</g>
</svg>
