<?xml version="1.0" encoding="utf-8"?>
<!-- Generator: Adobe Illustrator 22.0.1, SVG Export Plug-In . SVG Version: 6.00 Build 0)  -->
<svg version="1.1" id="Layer_1" xmlns="http://www.w3.org/2000/svg" xmlns:xlink="http://www.w3.org/1999/xlink" x="0px" y="0px"
	 viewBox="0 0 100 100" style="enable-background:new 0 0 100 100;" xml:space="preserve">
<g>
	<path d="M27.8,27.4c-1.1-1.1-2.8-1.1-3.9,0L4,47.3C3.3,48.1,2.9,49,2.9,50c0,1,0.4,1.9,1.1,2.7l19.9,19.9c0.5,0.5,1.2,0.8,1.9,0.8
		s1.4-0.3,1.9-0.8c1.1-1.1,1.1-2.8,0-3.9L9.1,50l18.7-18.7C28.9,30.2,28.9,28.5,27.8,27.4z"/>
	<path d="M96,47.3L76.1,27.4c-1.1-1.1-2.8-1.1-3.9,0c-1.1,1.1-1.1,2.8,0,3.9L90.9,50L72.2,68.7c-1.1,1.1-1.1,2.8,0,3.9
		c0.5,0.5,1.2,0.8,1.9,0.8s1.4-0.3,1.9-0.8L96,52.7c0.7-0.7,1.1-1.6,1.1-2.7C97.1,49,96.7,48.1,96,47.3z"/>
	<path d="M60.3,30.7c-1.4-0.7-3-0.1-3.7,1.3L38.5,69.2c-0.7,1.4-0.1,3,1.3,3.7c0.4,0.2,0.8,0.3,1.2,0.3c1,0,2-0.6,2.5-1.5l18.1-37.3
		C62.2,33,61.6,31.3,60.3,30.7z"/>
</g>
</svg>
