<?xml version="1.0" encoding="utf-8"?>
<!-- Generator: Adobe Illustrator 22.0.1, SVG Export Plug-In . SVG Version: 6.00 Build 0)  -->
<svg version="1.1" id="Layer_1" xmlns="http://www.w3.org/2000/svg" xmlns:xlink="http://www.w3.org/1999/xlink" x="0px" y="0px"
	 viewBox="0 0 100 100" style="enable-background:new 0 0 100 100;" xml:space="preserve">
<g>
	<path d="M86.6,42.1c-2.3,0-4.5,0.7-6.3,1.9v-5.5c0-2.1-1.6-3.8-3.8-3.8H13.1c-2.1,0-3.8,1.6-3.8,3.8v19.4c0,13,7.9,24.2,19.1,29
		h-24c-1.5,0-2.8,1.2-2.8,2.8s1.2,2.8,2.8,2.8H85c1.5,0,2.8-1.2,2.8-2.8S86.6,87,85,87H61.1c8.2-3.5,14.5-10.4,17.4-18.8
		c2.1,2,4.9,3.3,8.1,3.3c3.2,0,6.3-1.3,8.5-3.6c2.1-2.2,3.2-5,3.1-8v-6.2C98.2,47.3,93,42.1,86.6,42.1z M74.8,57.9
		c0,14.4-11.8,26.1-26.3,26.1H41c-14.4,0-26.1-11.7-26.1-26.1V40.3h59.9V57.9z M91.2,64.1C90,65.3,88.4,66,86.6,66c-3.3,0-6-2.8-6-6
		v-6.3c0-3.3,2.8-6,6-6s6,2.8,6,6v6.3l0,0.1C92.8,61.6,92.2,63,91.2,64.1z"/>
	<path d="M24.5,26.6c1.5,0,2.8-1.2,2.8-2.8V10.3c0-1.5-1.2-2.8-2.8-2.8s-2.8,1.2-2.8,2.8v13.6C21.7,25.3,23,26.6,24.5,26.6z"/>
	<path d="M44.5,26.6c1.5,0,2.8-1.2,2.8-2.8V10.3c0-1.5-1.2-2.8-2.8-2.8s-2.8,1.2-2.8,2.8v13.6C41.7,25.3,43,26.6,44.5,26.6z"/>
	<path d="M64.5,26.6c1.5,0,2.8-1.2,2.8-2.8V10.3c0-1.5-1.2-2.8-2.8-2.8c-1.5,0-2.8,1.2-2.8,2.8v13.6C61.7,25.3,63,26.6,64.5,26.6z"
		/>
</g>
</svg>
