<?xml version="1.0" encoding="utf-8"?>
<!-- Generator: Adobe Illustrator 22.0.1, SVG Export Plug-In . SVG Version: 6.00 Build 0)  -->
<svg version="1.1" id="Layer_2_1_" xmlns="http://www.w3.org/2000/svg" xmlns:xlink="http://www.w3.org/1999/xlink" x="0px" y="0px"
	 viewBox="0 0 100 100" style="enable-background:new 0 0 100 100;" xml:space="preserve">
<g>
	<path d="M67.8,49c0-0.3,0-0.5-0.1-0.8c0-0.3-0.1-0.6-0.1-0.9c0-0.3-0.1-0.7-0.2-1c0-0.2-0.1-0.3-0.1-0.5c0-0.1,0-0.1-0.1-0.2
		c-0.1-0.3-0.2-0.7-0.3-1c-0.1-0.2-0.1-0.5-0.2-0.7c-0.1-0.2-0.2-0.5-0.3-0.7c-0.1-0.3-0.3-0.6-0.4-1c-0.1-0.2-0.2-0.3-0.2-0.5
		c-0.2-0.4-0.4-0.8-0.6-1.1c0,0,0-0.1-0.1-0.1c-0.1-0.1-0.1-0.2-0.2-0.2c-0.2-0.4-0.5-0.7-0.7-1.1c-0.1-0.2-0.3-0.3-0.4-0.5
		c-0.2-0.3-0.4-0.5-0.7-0.8c-0.2-0.2-0.5-0.5-0.7-0.7c-0.1-0.1-0.3-0.3-0.4-0.4c-0.3-0.3-0.7-0.6-1.1-0.9c-0.1,0-0.1-0.1-0.2-0.1
		c-0.4-0.3-0.9-0.7-1.4-0.9c0,0,0,0,0,0c0,0,0,0,0,0c-0.5-0.3-0.9-0.6-1.4-0.8c0,0-0.1,0-0.1-0.1c-0.4-0.2-0.8-0.4-1.3-0.6
		c-0.1-0.1-0.3-0.1-0.4-0.2c-0.3-0.1-0.7-0.2-1.1-0.3c-0.2-0.1-0.4-0.1-0.7-0.2c-0.1,0-0.2-0.1-0.3-0.1c-0.2-0.1-0.5-0.1-0.7-0.1
		c-0.2,0-0.5-0.1-0.7-0.1c-0.4-0.1-0.8-0.1-1.2-0.1c-0.1,0-0.3,0-0.4,0c-0.5,0-1.1,0-1.6,0c0,0,0,0,0,0c-3.1,0.1-6.1,1-8.7,2.6
		c-3.8,2.4-6.6,6-7.8,10.4c0,0.1,0,0.1,0,0.2c0,0.2-0.1,0.3-0.1,0.5c-0.1,0.3-0.1,0.6-0.2,0.9c0,0.1,0,0.2-0.1,0.3
		c-0.1,0.5-0.1,0.9-0.2,1.4c0,0.1,0,0.2,0,0.3c0,0.5,0,1,0,1.5c0,0.1,0,0.2,0,0.2c0,0.5,0.1,1.1,0.1,1.6c0,0,0,0.1,0,0.1
		c0.1,0.6,0.2,1.1,0.3,1.7c0,0,0,0.1,0,0.1c0,0,0,0,0,0c0.1,0.4,0.2,0.8,0.3,1.2c0,0.2,0.1,0.3,0.2,0.5c0.1,0.3,0.2,0.6,0.3,0.9
		c0.1,0.3,0.2,0.5,0.3,0.7c0.1,0.2,0.2,0.4,0.3,0.6c0.2,0.3,0.3,0.6,0.5,1c0.1,0.1,0.1,0.2,0.2,0.3c0,0,0.1,0.1,0.1,0.1
		c0.2,0.4,0.5,0.7,0.7,1.1c0.1,0.1,0.1,0.2,0.2,0.3c0.3,0.4,0.7,0.8,1,1.2c0.2,0.2,0.4,0.4,0.6,0.6c0.2,0.1,0.3,0.3,0.5,0.4
		c0.3,0.2,0.5,0.4,0.8,0.7c0.1,0.1,0.3,0.2,0.4,0.3c0.3,0.2,0.6,0.4,0.8,0.6c0.2,0.1,0.3,0.2,0.5,0.3c0.3,0.2,0.6,0.3,0.8,0.5
		c0.2,0.1,0.5,0.2,0.7,0.4c0.2,0.1,0.4,0.2,0.7,0.3c1,0.5,2.1,0.8,3.2,1.1c0,0,0,0,0,0c0,0,0,0,0,0c0.6,0.2,1.3,0.3,2,0.3
		c0,0,0,0,0.1,0c0.7,0.1,1.3,0.1,2,0.1c1.3,0,2.7-0.2,4.1-0.5c4.5-1.1,8.3-3.8,10.8-7.6c0,0,0,0,0,0c0.1-0.1,0.1-0.2,0.2-0.3
		c0.2-0.3,0.3-0.5,0.4-0.8c0.1-0.1,0.1-0.2,0.2-0.3c0.2-0.4,0.4-0.7,0.5-1.1c0-0.1,0.1-0.2,0.1-0.3c0.2-0.4,0.3-0.9,0.5-1.3
		c0,0,0,0,0-0.1c0.5-1.6,0.8-3.2,0.9-4.9c0-0.1,0-0.2,0-0.4C67.8,49.9,67.8,49.5,67.8,49z M62.3,50.4c0,0.8-0.1,1.6-0.3,2.4
		c-0.3,1.2-0.7,2.3-1.3,3.3c0,0,0,0.1-0.1,0.1c-0.2,0.3-0.4,0.6-0.6,0.9c0,0,0,0.1-0.1,0.1c-0.9,1.3-2.1,2.4-3.5,3.2
		c-1,0.6-2.1,1.1-3.3,1.4c0,0,0,0,0,0c-0.3,0.1-0.7,0.2-1.1,0.2c0,0-0.1,0-0.1,0c-0.4,0.1-0.7,0.1-1.1,0.1c0,0-0.1,0-0.1,0
		c-1.2,0.1-2.4,0-3.6-0.3c-0.4-0.1-0.7-0.2-1.1-0.3c0,0-0.1,0-0.1,0c-0.3-0.1-0.6-0.2-0.8-0.3c-0.1-0.1-0.2-0.1-0.4-0.2
		c-0.2-0.1-0.4-0.2-0.6-0.3c-0.2-0.1-0.4-0.2-0.5-0.3c-0.1-0.1-0.3-0.2-0.4-0.2c-0.2-0.1-0.4-0.3-0.6-0.4c-0.1-0.1-0.2-0.2-0.3-0.2
		c-0.2-0.2-0.4-0.3-0.6-0.5c-0.1-0.1-0.2-0.2-0.3-0.3c-0.2-0.2-0.3-0.3-0.5-0.5c-0.1-0.1-0.3-0.3-0.4-0.5c-0.1-0.1-0.2-0.3-0.4-0.4
		c-0.1-0.2-0.3-0.4-0.4-0.6c-0.1-0.1-0.2-0.3-0.3-0.4c-0.1-0.2-0.2-0.4-0.3-0.6c-0.1-0.2-0.2-0.4-0.3-0.5c-0.1-0.1-0.1-0.2-0.2-0.4
		c-0.1-0.3-0.2-0.5-0.3-0.8c0,0,0-0.1,0-0.1c-0.1-0.4-0.2-0.7-0.3-1.1c0,0,0,0,0,0C38,52.4,38,52,37.9,51.6c0,0,0,0,0,0
		c-0.1-0.4-0.1-0.8-0.1-1.2c0,0,0,0,0-0.1c0-0.4,0-0.8,0-1.1c0,0,0-0.1,0-0.1c0-0.4,0.1-0.7,0.1-1.1c0,0,0-0.1,0-0.1
		c0.8-4.7,4.3-8.7,9.3-9.8c1.1-0.3,2.3-0.4,3.4-0.3c0.1,0,0.3,0,0.4,0c0.3,0,0.5,0.1,0.8,0.1c0.2,0,0.4,0.1,0.6,0.1
		c0.2,0,0.5,0.1,0.7,0.2c0.1,0,0.2,0.1,0.3,0.1c0.3,0.1,0.6,0.2,0.9,0.3c0,0,0.1,0,0.1,0.1c0.7,0.3,1.4,0.6,2.1,1
		c0.3,0.2,0.7,0.4,1,0.7c0,0,0,0,0,0c0.3,0.2,0.6,0.4,0.8,0.7c0.1,0.1,0.2,0.2,0.3,0.2c0.2,0.2,0.4,0.4,0.5,0.5
		c0.1,0.2,0.3,0.3,0.4,0.5c0.1,0.1,0.2,0.2,0.3,0.4c0.2,0.2,0.3,0.5,0.5,0.7c0.1,0.1,0.1,0.2,0.2,0.3c0.2,0.3,0.3,0.5,0.4,0.8
		c0.1,0.1,0.1,0.2,0.2,0.3c0.1,0.2,0.2,0.4,0.3,0.7c0.1,0.2,0.1,0.3,0.2,0.5c0.1,0.2,0.1,0.4,0.2,0.5c0.1,0.2,0.1,0.4,0.2,0.7
		c0,0.2,0.1,0.3,0.1,0.5c0,0.2,0.1,0.4,0.1,0.6c0,0.2,0.1,0.5,0.1,0.7c0,0.1,0,0.3,0,0.4C62.3,49.6,62.3,50,62.3,50.4
		C62.3,50.4,62.3,50.4,62.3,50.4z"/>
	<path d="M94.1,61l-9.2-5.2c0.3-2.1,0.5-4,0.5-5.7c0-2-0.2-4-0.5-5.8l9.3-5.3c0.9-0.5,1.5-1.3,1.8-2.3c0.3-1,0.1-2-0.4-2.9
		l-8.7-15.1c-1-1.8-3.3-2.4-5.1-1.4l-9.3,5.3c-2.9-2.4-6.3-4.3-9.9-5.7V6.2c0-2.1-1.7-3.8-3.8-3.8H41.4c-2.1,0-3.8,1.7-3.8,3.8V17
		c-3.7,1.4-7,3.4-9.9,5.7l-9.3-5.3c-1.8-1-4.1-0.4-5.1,1.4L4.5,33.9c-0.5,0.9-0.6,1.9-0.4,2.9c0.3,1,0.9,1.8,1.8,2.3l9.3,5.2
		C14.9,46,14.7,48,14.7,50c0,1.9,0.1,3.9,0.4,5.7l-9.4,5.4c-0.9,0.5-1.5,1.3-1.8,2.3c-0.3,1-0.1,2,0.4,2.8l8.7,15.1
		c1,1.8,3.3,2.4,5.1,1.4l9.3-5.3c2.9,2.4,6.3,4.3,9.9,5.7v10.7c0,2.1,1.7,3.8,3.8,3.8h17.4c2.1,0,3.8-1.7,3.8-3.8V83
		c3.7-1.4,7-3.4,9.9-5.7l9.3,5.3c1.8,1,4.1,0.4,5.1-1.4l8.7-15.1c0.5-0.9,0.6-1.9,0.4-2.9S95,61.5,94.1,61z M82.9,77l-11.3-6.5
		l-1.5,1.4c-3.1,2.9-7,5.2-11.3,6.6l-1.9,0.6v13H43V79.2l-1.9-0.6c-4.3-1.4-8.2-3.7-11.3-6.6l-1.5-1.4L17,77.1L10,65l11.2-6.4
		l-0.4-1.9c-0.4-2.1-0.6-4.3-0.6-6.6c0-2.4,0.2-4.6,0.7-6.5l0.5-2l-11.3-6.4L17.1,23l11.3,6.5l1.5-1.4c3.1-2.9,7-5.2,11.3-6.6
		l1.9-0.6v-13H57v12.9l1.9,0.6c4.3,1.4,8.2,3.7,11.3,6.6l1.5,1.4L83,22.9L90,35l-11.3,6.5l0.5,2c0.5,1.9,0.7,4.1,0.7,6.5
		c0,1.9-0.2,4-0.8,6.6l-0.4,1.9l11.1,6.3L82.9,77z"/>
</g>
</svg>
