<?xml version="1.0" encoding="utf-8"?>
<!-- Generator: Adobe Illustrator 22.0.1, SVG Export Plug-In . SVG Version: 6.00 Build 0)  -->
<svg version="1.1" id="Layer_1" xmlns="http://www.w3.org/2000/svg" xmlns:xlink="http://www.w3.org/1999/xlink" x="0px" y="0px"
	 viewBox="0 0 100 100" style="enable-background:new 0 0 100 100;" xml:space="preserve">
<g>
	<path d="M56.7,47.3H43.3c-3.5,0-6.4-2.9-6.4-6.4c0-1.7,0.7-3.3,1.9-4.5c1.2-1.2,2.8-1.9,4.5-1.9h19.4c1.5,0,2.8-1.2,2.8-2.8
		S64.2,29,62.7,29h-9.1v-4.2c0-1.5-1.2-2.8-2.8-2.8s-2.8,1.2-2.8,2.8V29h-4.8c-3.2,0-6.1,1.2-8.4,3.5c-2.2,2.2-3.5,5.2-3.5,8.4
		c0,6.5,5.3,11.9,11.9,11.9h13.4c3.5,0,6.4,2.9,6.4,6.4s-2.9,6.4-6.4,6.4h-5.6c-0.1,0-0.1,0-0.2,0s-0.1,0-0.2,0H37.3
		c-1.5,0-2.8,1.2-2.8,2.8s1.2,2.8,2.8,2.8h10.9v4.2c0,1.5,1.2,2.8,2.8,2.8s2.8-1.2,2.8-2.8V71h3.1c6.5,0,11.9-5.3,11.9-11.9
		S63.2,47.3,56.7,47.3z"/>
	<path d="M50,0.9C22.9,0.9,0.9,22.9,0.9,50c0,27.1,22,49.1,49.1,49.1c27.1,0,49.1-22,49.1-49.1C99.1,22.9,77.1,0.9,50,0.9z M50,93.6
		C26,93.6,6.4,74,6.4,50S26,6.4,50,6.4S93.6,26,93.6,50S74,93.6,50,93.6z"/>
</g>
</svg>
