<?xml version="1.0" encoding="utf-8"?>
<!-- Generator: Adobe Illustrator 22.0.1, SVG Export Plug-In . SVG Version: 6.00 Build 0)  -->
<svg version="1.1" id="Layer_1" xmlns="http://www.w3.org/2000/svg" xmlns:xlink="http://www.w3.org/1999/xlink" x="0px" y="0px"
	 viewBox="0 0 100 100" style="enable-background:new 0 0 100 100;" xml:space="preserve">
<g>
	<ellipse transform="matrix(0.9871 -0.1602 0.1602 0.9871 -5.7709 4.6661)" cx="26.1" cy="38.1" rx="5.3" ry="5.3"/>
	<circle cx="49.3" cy="38.1" r="5.3"/>
	<circle cx="72.5" cy="38.1" r="5.3"/>
	<path d="M97.5,79.4c-0.1-4-1.1-7.7-3-11c0.9-0.7,1.6-1.8,1.6-3.1V15.8c0-2.2-1.8-3.9-3.9-3.9H6.4c-2.2,0-3.9,1.8-3.9,3.9v49.5
		c0,2.2,1.8,3.9,3.9,3.9h4.1v15c0,1.5,0.9,3,2.3,3.6c0.5,0.2,1,0.3,1.6,0.3c1,0,1.9-0.4,2.6-1l19.5-17.7h14.7
		c0.2,0.3,0.4,0.5,0.7,0.8c2.3,2.4,8.9,8.5,12,11.4c0.8,0.7,1.3,1.2,1.4,1.3l0.2,0.2c1.2,1,2.7,1.6,4.2,1.6c3.5,0,6.4-2.8,6.4-6.4
		v-1.6c7.4,0.7,11.3,2.8,12.1,3.7c0.2,2.4,2.2,4.4,4.6,4.4h0.3l0.2,0c2.3-0.3,4.1-2,4.3-4.2l0.2-0.3L97.5,79.4z M34.4,63.8L16,80.6
		V67.5c0-2.1-1.7-3.8-3.8-3.8H8V17.4h82.6v45.9c-3.9-3.9-9-6.6-14.5-7.5v-2.2c0-3.5-2.8-6.4-6.4-6.4c-0.9,0-1.7,0.2-2.6,0.6
		c-0.7,0.3-1.3,0.6-1.9,1.1l-0.2,0.2L65,49.3c-0.4,0.4-2.1,2-3.7,3.5c-3.4,3.2-7.7,7.1-9.5,9c-0.6,0.6-1.1,1.3-1.4,2.1H34.4z
		 M73.3,70.9l-2.8-0.1v7.4c0,0.5-0.4,0.9-0.9,0.9c-0.1,0-0.3,0-0.6-0.3c-0.2-0.2-0.7-0.7-1.4-1.3c-2.9-2.7-9.6-8.9-11.9-11.3
		c0,0,0,0,0,0v-0.4c0-0.1,0-0.3,0.1-0.4c1.5-1.5,5.2-5,8.2-7.8c3.5-3.3,4.6-4.3,5.1-4.8c0,0,0,0,0.1,0c0.1,0,0.2-0.1,0.3,0
		c0.4,0,0.8,0.5,0.8,1v7.1l2.6,0.2c5.7,0.4,11,3,14.5,7.2l0.8,1h0.3c1.5,2,2.6,4.3,3.1,6.9C88.2,73,80.7,71.2,73.3,70.9z M97.4,80
		h-2.8H97.4C97.4,79.9,97.4,80,97.4,80z"/>
</g>
</svg>
