<?xml version="1.0" encoding="utf-8"?>
<!-- Generator: Adobe Illustrator 22.0.1, SVG Export Plug-In . SVG Version: 6.00 Build 0)  -->
<svg version="1.1" id="Layer_1" xmlns="http://www.w3.org/2000/svg" xmlns:xlink="http://www.w3.org/1999/xlink" x="0px" y="0px"
	 viewBox="0 0 100 100" style="enable-background:new 0 0 100 100;" xml:space="preserve">
<g>
	<ellipse transform="matrix(0.9732 -0.2298 0.2298 0.9732 -9.0342 6.8096)" cx="24.7" cy="42.2" rx="7.1" ry="7.1"/>
	<ellipse transform="matrix(0.7071 -0.7071 0.7071 0.7071 -15.1019 47.9407)" cx="50.3" cy="42.2" rx="7.1" ry="7.1"/>
	<path d="M75.8,49.3c3.9,0,7.1-3.2,7.1-7.1c0.1-4-3-7.1-7.1-7.1c-4,0-7.1,3-7.1,7.1C68.7,46.1,71.9,49.3,75.8,49.3z"/>
	<path d="M98.3,16.4c-0.4-2.5-2.1-4.2-4.4-4.2H6.4c-2.6,0-4.7,2.2-4.7,4.7v50.5c0,2.5,2.2,4.7,4.6,4.7h9.4V86c0,1.5,0.9,2.9,2.3,3.5
		c0.5,0.2,1,0.3,1.5,0.3c1,0,1.9-0.4,2.6-1.1l0.2-0.2l10.9-16.3h60.8c2.4,0,4.5-2.2,4.5-4.7V16.8L98.3,16.4z M92.9,66.7H32.1
		c-1.3,0-2.4,0.6-3.1,1.7l-7.9,11.9v-9.8c0-2.1-1.7-3.8-3.8-3.8H7.1v-49h85.8V66.7z"/>
</g>
</svg>
