<?xml version="1.0" encoding="utf-8"?>
<!-- Generator: Adobe Illustrator 22.0.1, SVG Export Plug-In . SVG Version: 6.00 Build 0)  -->
<svg version="1.1" id="Layer_1" xmlns="http://www.w3.org/2000/svg" xmlns:xlink="http://www.w3.org/1999/xlink" x="0px" y="0px"
	 viewBox="0 0 100 100" style="enable-background:new 0 0 100 100;" xml:space="preserve">
<g>
	<path d="M98.3,15.4c-0.4-2.5-2.1-4.2-4.4-4.2H6.4c-2.6,0-4.7,2.2-4.7,4.7v50.5c0,2.5,2.2,4.7,4.6,4.7h9.4V85c0,1.5,0.9,2.9,2.3,3.5
		c0.5,0.2,1,0.3,1.5,0.3c1,0,1.9-0.4,2.6-1.1l0.2-0.2l10.9-16.3h60.8c2.4,0,4.5-2.2,4.5-4.7V15.8L98.3,15.4z M92.9,65.7H32.1
		c-1.3,0-2.4,0.6-3.1,1.7l-7.9,11.9v-9.8c0-2.1-1.7-3.8-3.8-3.8H7.1v-49h85.8V65.7z"/>
	<path d="M18.3,31.1h58.3c1.5,0,2.8-1.2,2.8-2.8s-1.2-2.8-2.8-2.8H18.3c-1.5,0-2.8,1.2-2.8,2.8S16.7,31.1,18.3,31.1z"/>
	<path d="M18.3,43.6h45.4c1.5,0,2.8-1.2,2.8-2.8s-1.2-2.8-2.8-2.8H18.3c-1.5,0-2.8,1.2-2.8,2.8S16.7,43.6,18.3,43.6z"/>
	<path d="M18.3,56.2h51c1.5,0,2.8-1.2,2.8-2.8s-1.2-2.8-2.8-2.8h-51c-1.5,0-2.8,1.2-2.8,2.8S16.7,56.2,18.3,56.2z"/>
</g>
</svg>
