<?xml version="1.0" encoding="utf-8"?>
<!-- Generator: Adobe Illustrator 22.0.1, SVG Export Plug-In . SVG Version: 6.00 Build 0)  -->
<svg version="1.1" id="Layer_1" xmlns="http://www.w3.org/2000/svg" xmlns:xlink="http://www.w3.org/1999/xlink" x="0px" y="0px"
	 viewBox="0 0 100 100" style="enable-background:new 0 0 100 100;" xml:space="preserve">
<path d="M94.3,20.1L37.7,7.9c-0.6-1.4-2-2.4-3.7-2.4H18.4c-2.3,0-4,1.7-4,4v23c0,2.3,1.7,4,4,4h5v30.9H6.5c-2.3,0-4,1.7-4,4v18.8
	c0,2.3,1.7,4,4,4h39.1c2.2,0,4-1.8,4-4V71.6c0-2.3-1.7-4-4-4H28.9V36.7H34c1.4,0,2.7-0.8,3.4-2.1h45.7v19.3c0,1.3,0.6,2.5,1.6,3.3
	c2,1.6,3.2,4.1,3.2,6.8c0,4.2-3.9,8.2-8.2,8.3c-2.3,0.1-4.4-0.7-6-2.3c-1.6-1.6-2.6-3.7-2.6-6c0-2.7,1.4-5.3,3.6-6.9
	c1.2-0.9,1.5-2.6,0.6-3.8c-0.9-1.2-2.6-1.5-3.8-0.6c-3.7,2.7-5.9,6.9-5.9,11.4c0,3.8,1.5,7.4,4.2,10c2.6,2.5,5.9,3.8,9.5,3.8
	c0.2,0,0.4,0,0.6,0c7.2-0.2,13.5-6.6,13.5-13.8c0-4.2-1.8-8.1-4.9-10.7V34.6h5c1.2,0,2.3-0.5,3-1.4c0.7-0.8,1-1.8,0.9-2.8v-6.3
	C97.5,22.2,96.1,20.5,94.3,20.1z M44.2,89H8V73.1h36.2V89z M19.9,11h12.3c0,0.2-0.1,0.5-0.1,0.7v18.8c0,0.2,0,0.4,0.1,0.6H19.9V11z
	 M92,29.1H38V13.6l54,11.6V29.1z"/>
</svg>
