<?xml version="1.0" encoding="utf-8"?>
<!-- Generator: Adobe Illustrator 21.0.2, SVG Export Plug-In . SVG Version: 6.00 Build 0)  -->
<svg version="1.1" id="Layer_1" xmlns="http://www.w3.org/2000/svg" xmlns:xlink="http://www.w3.org/1999/xlink" x="0px" y="0px"
	 viewBox="0 0 100 100" style="enable-background:new 0 0 100 100;" xml:space="preserve">
<path d="M94.2,34.5l-8.9-21.1c-0.7-1.6-1.9-2.8-3.5-3.5c-1.6-0.7-3.4-0.6-5,0L20.6,33.7H8.9c-3.6,0-6.5,2.9-6.5,6.5V84
	c0,3.6,2.9,6.5,6.5,6.5h82.2c3.6,0,6.5-2.9,6.5-6.5V40.2C97.6,37.8,96.2,35.7,94.2,34.5z M79,15c0.3-0.1,0.6-0.1,0.8,0
	c0.1,0.1,0.4,0.2,0.5,0.5l7.7,18.2H34.7L79,15z M8.9,39.2h82.2c0.5,0,1,0.4,1,1v5.5H7.9v-5.5C7.9,39.7,8.3,39.2,8.9,39.2z
	 M92.1,51.3v5.5H7.9v-5.5H92.1z M91.1,85H8.9c-0.5,0-1-0.4-1-1V62.3h84.2V84C92.1,84.6,91.7,85,91.1,85z"/>
</svg>
