<?xml version="1.0" encoding="utf-8"?>
<!-- Generator: Adobe Illustrator 21.0.0, SVG Export Plug-In . SVG Version: 6.00 Build 0)  -->
<svg version="1.1" id="Layer_2_1_" xmlns="http://www.w3.org/2000/svg" xmlns:xlink="http://www.w3.org/1999/xlink" x="0px" y="0px"
	 viewBox="0 0 100 100" style="enable-background:new 0 0 100 100;" xml:space="preserve">
<path d="M95.5,83.4H89V14.8l4.6-4.6c1.1-1.1,1.1-2.8,0-3.9c-1.1-1.1-2.8-1.1-3.9,0L85,11.1H16.6V4.5c0-1.5-1.2-2.8-2.8-2.8
	c-1.6,0-2.7,1.3-2.7,2.8v6.6H4.8c-1.5,0-2.8,1.2-2.8,2.8c0,1.6,1.2,2.8,2.8,2.8h6.3v66.8H4.5c-1.5,0-2.8,1.2-2.8,2.8
	c0,1.6,1.2,2.8,2.8,2.8h6.6v6.4c0,1.5,1.2,2.8,2.8,2.8c1.6,0,2.8-1.2,2.8-2.8V89h66.8v6.5c0,1.5,1.2,2.8,2.8,2.8
	c1.6,0,2.8-1.2,2.8-2.8v-6.6h6.4c1.5,0,2.8-1.2,2.8-2.8C98.3,84.5,97,83.4,95.5,83.4z M16.6,79.5V16.6h62.9L16.6,79.5z M20.3,83.5
	l63.2-63.2v63.2H20.3z"/>
</svg>
