<?xml version="1.0" encoding="utf-8"?>
<!-- Generator: Adobe Illustrator 22.0.1, SVG Export Plug-In . SVG Version: 6.00 Build 0)  -->
<svg version="1.1" id="Layer_2_1_" xmlns="http://www.w3.org/2000/svg" xmlns:xlink="http://www.w3.org/1999/xlink" x="0px" y="0px"
	 viewBox="0 0 100 100" style="enable-background:new 0 0 100 100;" xml:space="preserve">
<path d="M95.5,83.4H89V14.8l4.6-4.6c1.1-1.1,1.1-2.8,0-3.9c-1.1-1.1-2.8-1.1-3.9,0L85,11.1H16.6V4.5c0-1.5-1.2-2.8-2.8-2.8
	S11.1,3,11.1,4.5v6.6H4.8c-1.5,0-2.8,1.2-2.8,2.8s1.2,2.8,2.8,2.8h6.3v66.8H4.5c-1.5,0-2.8,1.2-2.8,2.8s1.2,2.8,2.8,2.8h6.6V89v6.5
	c0,1.5,1.2,2.8,2.8,2.8s2.8-1.2,2.8-2.8V89h66.8v6.5c0,1.5,1.2,2.8,2.8,2.8s2.8-1.2,2.8-2.8V89H89v-0.1h6.5c1.5,0,2.8-1.2,2.8-2.8
	S97,83.4,95.5,83.4z M16.6,16.6h62.9L16.6,79.5V16.6z M20.3,83.5l63.2-63.2v63.1h-0.1v0.1H20.3z"/>
</svg>
