<?xml version="1.0" encoding="utf-8"?>
<!-- Generator: Adobe Illustrator 22.0.1, SVG Export Plug-In . SVG Version: 6.00 Build 0)  -->
<svg version="1.1" id="Layer_2_1_" xmlns="http://www.w3.org/2000/svg" xmlns:xlink="http://www.w3.org/1999/xlink" x="0px" y="0px"
	 viewBox="0 0 100 100" style="enable-background:new 0 0 100 100;" xml:space="preserve">
<g>
	<path d="M72.2,25.6L50.8,7.9c-0.4-0.3-0.9-0.3-1.3,0L27.7,26.1L2.5,9.3C1.8,8.8,0.9,9.4,1,10.2l7.3,79.4c0.1,1.5,1.4,2.7,3,2.7
		h77.2c1.5,0,2.8-1.2,3-2.7L99,9.4c0.1-0.8-0.9-1.4-1.6-0.9L72.2,25.6z M28.7,32.4l21.5-18L71.3,32c0.3,0.3,0.8,0.3,1.2,0.1
		l20.1-13.7l-3.8,41.1H11.1L7.3,19.1l20.1,13.4C27.8,32.8,28.3,32.7,28.7,32.4z M13.6,86.9l-2-21.9h76.7l-2,21.9H13.6z"/>
	<ellipse cx="25.7" cy="76.6" rx="5.2" ry="5"/>
	<ellipse cx="50" cy="76.6" rx="5.2" ry="5"/>
	<ellipse cx="74.3" cy="76.6" rx="5.2" ry="5"/>
</g>
</svg>
