<?xml version="1.0" encoding="utf-8"?>
<!-- Generator: Adobe Illustrator 22.0.1, SVG Export Plug-In . SVG Version: 6.00 Build 0)  -->
<svg version="1.1" id="Layer_2_1_" xmlns="http://www.w3.org/2000/svg" xmlns:xlink="http://www.w3.org/1999/xlink" x="0px" y="0px"
	 viewBox="0 0 100 100" style="enable-background:new 0 0 100 100;" xml:space="preserve">
<path d="M92,7.5H75.8V7.2c0-2.6-2.1-4.8-4.8-4.8H29c-2.6,0-4.8,2.1-4.8,4.8v0.3H8c-2.3,0-4,1.7-4,4.1v1.3c0,11.4,8.7,28.7,20.6,30.4
	c1.5,9.5,8.2,17.2,17,20.3v21.8H25.6c-2,0-3.6,1.6-3.6,3.6V94c0,2,1.6,3.6,3.6,3.6h49.8c2,0,3.6-1.6,3.6-3.6v-5.1
	c0-2-1.6-3.6-3.6-3.6H58.5V63.5c8.8-3.1,15.5-10.8,17-20.3c11.9-1.7,20.6-19,20.6-30.4v-1.3C96.1,9.2,94.3,7.5,92,7.5z M23.6,37.4
	C15.9,34.7,9.5,21.5,9.4,13h14.2V37.4z M52.5,85.3h-5V64.9c0.8,0.1,1.7,0.1,2.5,0.1c0.8,0,1.7,0,2.5-0.1V85.3z M70.3,39.2
	c0,11.2-9.1,20.3-20.3,20.3h0c-11.2,0-20.3-9.1-20.3-20.3V7.9h40.6V39.2z M76.4,37.4V13h14.2C90.5,21.5,84.1,34.7,76.4,37.4z"/>
</svg>
