<?xml version="1.0" encoding="utf-8"?>
<!-- Generator: Adobe Illustrator 21.0.2, SVG Export Plug-In . SVG Version: 6.00 Build 0)  -->
<svg version="1.1" id="Layer_1" xmlns="http://www.w3.org/2000/svg" xmlns:xlink="http://www.w3.org/1999/xlink" x="0px" y="0px"
	 viewBox="0 0 100 100" style="enable-background:new 0 0 100 100;" xml:space="preserve">
<g>
	<path d="M98.1,67.3c-1.7-5.1-7-8.1-12.2-6.7l-23.4,6c0.1-0.5,0.1-1,0.1-1.6c0-5.1-4.1-9.3-9.3-9.3H34.2c-1.1-3.1-4-5.3-7.5-5.3H9.4
		c-4.4,0-7.9,3.6-7.9,8v22c0,4.4,3.6,7.9,7.9,7.9h17.4c2.1,0,4.2-0.9,5.7-2.4c0,0,0.1-0.1,0.1-0.1l2.4,1.2c4.6,2.4,9.7,3.6,14.8,3.6
		c3,0,6.1-0.4,9.1-1.3l6.2-1.8c0,0,0,0,0,0l26.1-7.5c2.6-0.7,4.8-2.4,6.1-4.8C98.6,72.8,98.9,70,98.1,67.3z M28.6,82.1
		c-0.5,0.5-1.1,0.7-1.7,0.7H9.4c-1.4,0-2.4-1.1-2.4-2.4v-22C7,57,8.1,56,9.4,56h17.3c1.4,0,2.4,1.1,2.4,2.5l0,22.1
		C29.2,81.1,29,81.7,28.6,82.1z M92.4,72.6c-0.6,1.1-1.6,1.8-2.7,2.2l-7.2,2.1l0-0.1l-25.1,7.3c-6.7,1.9-13.7,1.2-19.8-1.9l-2.9-1.5
		c0-0.1,0-0.2,0-0.3V61.3h18.6c2.1,0,3.8,1.7,3.8,3.8c0,3.1-2.5,5.5-5.5,5.5h-5.7c-1.5,0-2.8,1.2-2.8,2.8s1.2,2.8,2.8,2.8h5.7
		c2.9,0,5.5-1.1,7.4-2.9l28.3-7.3c2.4-0.6,4.8,0.7,5.6,3C93.2,70.2,93,71.5,92.4,72.6z"/>
	<path d="M70.3,19.5c5.2,0,9.4-4.2,9.4-9.4c0-5.2-4.2-9.4-9.4-9.4c-5.2,0-9.4,4.2-9.4,9.4C60.9,15.3,65.1,19.5,70.3,19.5z M70.3,6.2
		c2.2,0,3.9,1.8,3.9,3.9c0,2.2-1.8,3.9-3.9,3.9s-3.9-1.8-3.9-3.9C66.4,7.9,68.1,6.2,70.3,6.2z"/>
	<path d="M66.8,51.6h6.8c5.1,0,9.3-4.2,9.3-9.3v-9.7c0-5.1-4.2-9.3-9.3-9.3h-6.8c-5.1,0-9.3,4.2-9.3,9.3v9.7
		C57.6,47.4,61.7,51.6,66.8,51.6z M63.1,32.6c0-2.1,1.7-3.8,3.8-3.8h6.8c2.1,0,3.8,1.7,3.8,3.8v9.7c0,2.1-1.7,3.8-3.8,3.8h-6.8
		c-2.1,0-3.8-1.7-3.8-3.8V32.6z"/>
</g>
</svg>
