<?xml version="1.0" encoding="utf-8"?>
<!-- Generator: Adobe Illustrator 22.0.1, SVG Export Plug-In . SVG Version: 6.00 Build 0)  -->
<svg version="1.1" id="Layer_2_1_" xmlns="http://www.w3.org/2000/svg" xmlns:xlink="http://www.w3.org/1999/xlink" x="0px" y="0px"
	 viewBox="0 0 100 100" style="enable-background:new 0 0 100 100;" xml:space="preserve">
<path d="M92.5,73.9c-1.6-4.3-4.7-7.7-8.8-9.6c-4.1-1.9-8.8-2.1-13-0.6s-7.3,4.5-9.2,8.1L53,48.7L68.2,6.9c0.5-1.4-0.2-3-1.6-3.5
	s-3,0.2-3.5,1.6l-13,35.7L37.1,5c-0.5-1.4-2.1-2.2-3.5-1.6c-1.4,0.5-2.2,2.1-1.6,3.5l15.2,41.8L38.7,72c-1.9-3.7-5.1-6.7-9.3-8.3
	c-8.8-3.2-18.6,1.4-21.9,10.2c-3.2,8.8,1.4,18.6,10.2,21.9c1.9,0.7,3.9,1,5.8,1c6.8,0,13.2-4.1,15.9-10.8
	c0.1-0.2,10.7-29.3,10.7-29.3S60.3,85,60.5,85.5c1.6,4.3,4.7,7.7,8.8,9.6c2.3,1.1,4.7,1.6,7.2,1.6c2,0,3.9-0.3,5.8-1
	c4.3-1.6,7.7-4.7,9.6-8.8C93.9,82.8,94.1,78.1,92.5,73.9z M19.6,90.6c-6-2.2-9.1-8.8-6.9-14.8c1.7-4.7,6.1-7.6,10.9-7.6
	c1.3,0,2.6,0.2,3.9,0.7c2.9,1.1,5.2,3.2,6.5,6s1.4,5.9,0.4,8.8C32.2,89.7,25.5,92.8,19.6,90.6z M80.4,90.5c-3,1.1-6.3,0.9-9.2-0.6
	c-8.8-4.5-8-17.8,1.3-21.1c1.3-0.5,2.6-0.7,4-0.7c1.7,0,3.3,0.4,4.9,1.1c2.8,1.3,4.9,3.6,6,6.5C89.5,81.7,86.4,88.4,80.4,90.5z"/>
</svg>
