<?xml version="1.0" encoding="utf-8"?>
<!-- Generator: Adobe Illustrator 22.0.1, SVG Export Plug-In . SVG Version: 6.00 Build 0)  -->
<svg version="1.1" id="Layer_2_1_" xmlns="http://www.w3.org/2000/svg" xmlns:xlink="http://www.w3.org/1999/xlink" x="0px" y="0px"
	 viewBox="0 0 100 100" style="enable-background:new 0 0 100 100;" xml:space="preserve">
<g>
	<path d="M98.8,70.4c-2-26.8-23.4-47.8-48.8-47.8S3.2,43.6,1.2,70.4c-0.1,1.8,0.5,3.5,1.7,4.9c1.2,1.3,2.9,2.1,4.7,2.1h84.8
		c1.8,0,3.5-0.7,4.7-2.1C98.3,74,98.9,72.2,98.8,70.4z M93.1,71.5c-0.1,0.1-0.3,0.3-0.7,0.3H55.2l-4.2-13c-0.3-0.9-1.6-0.9-1.9,0
		l-4.2,13H7.6c-0.3,0-0.6-0.2-0.7-0.3c-0.1-0.1-0.3-0.4-0.2-0.7C8.5,46.9,27.5,28.2,50,28.2s41.5,18.7,43.3,42.7
		C93.3,71.2,93.2,71.4,93.1,71.5z"/>
	<path d="M50,36.2c-1.5,0-2.8,1.2-2.8,2.8v3.6c0,1.5,1.2,2.8,2.8,2.8s2.8-1.2,2.8-2.8V39C52.8,37.4,51.5,36.2,50,36.2z"/>
	<path d="M74.4,48l-2.5,2.5c-1.1,1.1-1.1,2.8,0,3.9c0.5,0.5,1.2,0.8,1.9,0.8s1.4-0.3,1.9-0.8l2.5-2.5c1.1-1.1,1.1-2.8,0-3.9
		C77.2,46.9,75.5,46.9,74.4,48z"/>
	<path d="M25.6,48c-1-1.1-2.8-1.2-3.9-0.1c-1.1,1-1.2,2.8-0.1,3.9l2.4,2.5c0.5,0.6,1.3,0.9,2,0.9c0.7,0,1.4-0.2,1.9-0.7
		c1.1-1,1.2-2.8,0.1-3.9L25.6,48z"/>
</g>
</svg>
