<?xml version="1.0" encoding="utf-8"?>
<!-- Generator: Adobe Illustrator 22.0.1, SVG Export Plug-In . SVG Version: 6.00 Build 0)  -->
<svg version="1.1" id="Layer_1" xmlns="http://www.w3.org/2000/svg" xmlns:xlink="http://www.w3.org/1999/xlink" x="0px" y="0px"
	 viewBox="0 0 100 100" style="enable-background:new 0 0 100 100;" xml:space="preserve">
<path d="M94.2,19.4l-0.3-0.5C90.8,9,74,2.9,50,2.9l-1.3,0C44.7,3,40.5,3.2,36.2,3.7c-4,0.6-7.4,1.1-11,2.1c-2.8,0.8-6,1.8-8.9,3.3
	c-3.2,1.5-6.8,3.6-9,7.3L6.5,18c-0.3,0.4-1,1.2-1,2.4v8.9v21.5v21.5l0,0l0,5.7l0,0.1c0,0.4-0.1,0.9,0.1,1.6c0,0.2,0.1,0.4,0.2,0.7
	C8.4,90.3,26.6,97.1,50,97.1c19.9,0,41.4-5.1,44.3-16.6l0.2-1l0-7.3l0,0V50.7V29.3v-9.4L94.2,19.4z M89,46.4
	c-12.7,3-25.8,4.5-39,4.5c-13.2,0-26.3-1.5-39-4.5V30.6C23.7,33.5,36.8,35,50,35c13.2,0,26.3-1.5,39-4.4L89,46.4z M11,52.1
	c12.7,2.9,25.8,4.4,39,4.4c13.2,0,26.3-1.5,39-4.4l0,15.8c-12.7,3-25.8,4.5-39,4.5s-26.3-1.5-39-4.5V52.1z M12.2,19
	c1.4-2.3,4-3.8,6.6-5c2.6-1.3,5.5-2.2,7.9-2.9C30,10.2,33.2,9.7,37,9.2c3.9-0.5,8-0.7,11.9-0.8H50v0.1c24.1,0,37,6.4,38.7,12.3
	l0.1,0.3l0.2,0.3l0,3.5c-12.7,3-25.8,4.5-39,4.5c-13.2,0-26.3-1.5-39-4.5v-3.7c0.2-0.2,0.3-0.5,0.4-0.8L12.2,19z M88.9,79.3
	C87,86.2,70,91.6,50,91.6c-22.3,0-37.3-6.4-38.9-12.5c0,0,0-0.1-0.1-0.2v-0.4l0,0c0-0.1,0-0.3,0-0.4v-4.5c12.7,2.9,25.8,4.4,39,4.4
	c13.2,0,26.3-1.5,39-4.4v5.3L88.9,79.3z"/>
</svg>
