<?xml version="1.0" encoding="utf-8"?>
<!-- Generator: Adobe Illustrator 22.0.1, SVG Export Plug-In . SVG Version: 6.00 Build 0)  -->
<svg version="1.1" id="Layer_1" xmlns="http://www.w3.org/2000/svg" xmlns:xlink="http://www.w3.org/1999/xlink" x="0px" y="0px"
	 viewBox="0 0 100 100" style="enable-background:new 0 0 100 100;" xml:space="preserve">
<path d="M86.5,17.6H41c-3.7,0-6.8,3-6.8,6.8v7.3H17.8c-1.9,0-3.6,1.1-4.3,2.9L10.8,41l-4,9.4v3.3v13c0,2.6,2.1,4.8,4.8,4.8h1.1
	c0,0.1,0,0.2,0,0.3c0,5.9,4.8,10.8,10.8,10.8s10.8-4.8,10.8-10.8c0-0.1,0-0.2,0-0.3h0.2H37h26.6c0,0.1,0,0.2,0,0.3
	c0,5.9,4.8,10.8,10.8,10.8S85,77.5,85,71.6c0-0.1,0-0.2,0-0.3h4.5c2.1,0,3.8-1.6,3.8-3.8V24.4C93.3,20.7,90.2,17.6,86.5,17.6z
	 M18.3,37.1h15.9v11H13.7L18.3,37.1z M23.3,76.9c-2.9,0-5.3-2.4-5.3-5.3s2.4-5.3,5.3-5.3s5.3,2.4,5.3,5.3S26.2,76.9,23.3,76.9z
	 M32.4,65.9c-1.9-3-5.3-5-9.1-5s-7.2,2-9.1,5h-2V53.6h22v12.2h-1.8V65.9z M74.3,76.9c-2.9,0-5.3-2.4-5.3-5.3s2.4-5.3,5.3-5.3
	s5.3,2.4,5.3,5.3S77.2,76.9,74.3,76.9z M87.8,65.9h-4.4c-1.9-3-5.3-5-9.1-5s-7.2,2-9.1,5H39.8V53.6v-22V23h48.1L87.8,65.9L87.8,65.9
	z"/>
</svg>
