<?xml version="1.0" encoding="utf-8"?>
<!-- Generator: Adobe Illustrator 21.0.2, SVG Export Plug-In . SVG Version: 6.00 Build 0)  -->
<svg version="1.1" id="Layer_1" xmlns="http://www.w3.org/2000/svg" xmlns:xlink="http://www.w3.org/1999/xlink" x="0px" y="0px"
	 viewBox="0 0 100 100" style="enable-background:new 0 0 100 100;" xml:space="preserve">
<g>
	<path d="M50,94.4c-1.5,0-2.9-0.7-3.8-1.9L9.5,43.6c-1.1-1.5-1.3-3.6-0.3-5.2L27.5,6.6c0.8-1.5,2.4-2.4,4.1-2.4h36.8
		c1.7,0,3.3,0.9,4.1,2.4l18.3,31.7c1,1.7,0.8,3.7-0.3,5.2L53.8,92.5C52.9,93.7,51.5,94.4,50,94.4z M14.2,40.7L50,88.4l35.8-47.7
		L68,9.8H32L14.2,40.7z M13.9,41.1L13.9,41.1C13.9,41.1,13.9,41.1,13.9,41.1z"/>
</g>
</svg>
