<?xml version="1.0" encoding="utf-8"?>
<!-- Generator: Adobe Illustrator 22.0.1, SVG Export Plug-In . SVG Version: 6.00 Build 0)  -->
<svg version="1.1" id="Layer_2_1_" xmlns="http://www.w3.org/2000/svg" xmlns:xlink="http://www.w3.org/1999/xlink" x="0px" y="0px"
	 viewBox="0 0 100 100" style="enable-background:new 0 0 100 100;" xml:space="preserve">
<g>
	<path d="M70.5,2.5h-5.1c-2.7,0-5,2.2-5,5v83c0,3.9,3.2,7.2,7.2,7.2h4.5c3.9,0,7.2-3.2,7.2-7.2V57.7h3.3c2.7,0,5-2.2,5-5V19.3
		C87.4,10,79.8,2.5,70.5,2.5z M72.1,92h-4.5c-0.9,0-1.7-0.7-1.7-1.7V57.7h7.8v32.7C73.8,91.3,73.1,92,72.1,92z M82,52.2h-5.5h-2.8
		H66V8h4.6c6.2,0,11.4,5.1,11.5,11.4V52.2z"/>
	<path d="M43.5,4.9c-1.5,0-2.8,1.2-2.8,2.8v21.2h-8.6V7.7c0-1.5-1.2-2.8-2.8-2.8s-2.8,1.2-2.8,2.8v21.2H18V7.7
		c0-1.5-1.2-2.8-2.8-2.8s-2.8,1.2-2.8,2.8V45c0,2.3,1.7,4.1,4.1,4.1H20v41.4c0,3.9,3.2,7.2,7.2,7.2h4.3c3.9,0,7.2-3.2,7.2-7.2V49
		h3.5c2.3,0,4.1-1.7,4.1-4.1V7.7C46.2,6.2,45,4.9,43.5,4.9z M33.1,90.4c0,0.9-0.7,1.7-1.7,1.7h-4.3c-0.9,0-1.7-0.7-1.7-1.7V49h7.6
		V90.4z M18,43.5v-9.1h22.8v9.1H18z"/>
</g>
</svg>
