<?xml version="1.0" encoding="utf-8"?>
<!-- Generator: Adobe Illustrator 21.0.0, SVG Export Plug-In . SVG Version: 6.00 Build 0)  -->
<svg version="1.1" id="Layer_1" xmlns="http://www.w3.org/2000/svg" xmlns:xlink="http://www.w3.org/1999/xlink" x="0px" y="0px"
	 viewBox="0 0 100 100" style="enable-background:new 0 0 100 100;" xml:space="preserve">
<path d="M84.6,20.2l-10.1-6.5c-0.6-0.5-1.5-0.8-2.3-0.8H52.1V4.1c0-1.5-1.2-2.8-2.8-2.8s-2.8,1.2-2.8,2.8V13H32
	c-2.3,0-4.1,1.8-4.1,4.1v13.2c0,2.3,1.8,4.1,4.1,4.1h14.7v6.5H27.8c-0.4,0-0.7,0.1-1,0.1h-0.5l-11,7.1c-1.1,0.8-1.8,2-1.8,3.4
	s0.7,2.7,1.9,3.5l10.1,6.5c0.6,0.5,1.5,0.8,2.3,0.8h18.8V96c0,1.5,1.2,2.8,2.8,2.8s2.8-1.2,2.8-2.8V62.3H68c2.3,0,4.1-1.8,4.1-4.1
	V44.9c0-2.3-1.8-4.1-4.1-4.1H52.1v-6.5h20.1c0.4,0,1.4,0,2.3-0.7L84.7,27c1.1-0.8,1.8-2,1.8-3.4C86.5,22.3,85.8,21,84.6,20.2z
	 M66.6,56.8H28.4l-8.2-5.3l8-5.1h38.5L66.6,56.8L66.6,56.8z M71.9,28.8H33.4V18.4h38.3l8.2,5.3L71.9,28.8z"/>
</svg>
