<?xml version="1.0" encoding="utf-8"?>
<!-- Generator: Adobe Illustrator 22.0.1, SVG Export Plug-In . SVG Version: 6.00 Build 0)  -->
<svg version="1.1" id="Layer_2_1_" xmlns="http://www.w3.org/2000/svg" xmlns:xlink="http://www.w3.org/1999/xlink" x="0px" y="0px"
	 viewBox="0 0 100 100" style="enable-background:new 0 0 100 100;" xml:space="preserve">
<g>
	<path d="M39.8,39.4c1,0,1.8,0,2.4,0v22.1c0,1.5,1.2,2.8,2.8,2.8s2.8-1.2,2.8-2.8V8.9h13v52.7c0,1.5,1.2,2.8,2.8,2.8
		s2.8-1.2,2.8-2.8V8.9H87c1.5,0,2.8-1.2,2.8-2.8S88.5,3.4,87,3.4h-47c0,0,0,0,0,0c0,0-0.1,0-0.1,0c-9.9,0-18,8.1-18,18
		C21.8,31.3,29.8,39.4,39.8,39.4z M39.8,8.9c0.4,0,1.4,0,2.4,0.1v25c-0.6,0-1.4,0-2.4,0c-6.9,0-12.5-5.6-12.5-12.5
		C27.3,14.5,32.9,8.9,39.8,8.9z"/>
	<path d="M13,79.7h64.4l-8.2-6.6c-1.2-0.9-1.4-2.7-0.4-3.9c0.9-1.2,2.7-1.4,3.9-0.4L86.6,80c0.4,0.2,0.7,0.5,1,0.8l2.1,1.7l-2.1,1.7
		c-0.3,0.3-0.6,0.6-1,0.8L72.7,96c-0.5,0.4-1.1,0.6-1.7,0.6c-0.8,0-1.6-0.4-2.1-1c-0.9-1.2-0.8-2.9,0.4-3.9l8.2-6.6H13
		c-1.5,0-2.8-1.2-2.8-2.8S11.5,79.7,13,79.7z"/>
</g>
</svg>
