<?xml version="1.0" encoding="utf-8"?>
<!-- Generator: Adobe Illustrator 22.0.1, SVG Export Plug-In . SVG Version: 6.00 Build 0)  -->
<svg version="1.1" id="Layer_1" xmlns="http://www.w3.org/2000/svg" xmlns:xlink="http://www.w3.org/1999/xlink" x="0px" y="0px"
	 viewBox="0 0 100 100" style="enable-background:new 0 0 100 100;" xml:space="preserve">
<path d="M93,14.7H7c-2.6,0-4.8,2.1-4.8,4.8V62c0,2.6,2.1,4.8,4.8,4.8h39v13.1H35.6c-1.5,0-2.8,1.2-2.8,2.8s1.2,2.8,2.8,2.8h28.8
	c1.5,0,2.8-1.2,2.8-2.8s-1.2-2.8-2.8-2.8H54V66.8h39c2.6,0,4.8-2.1,4.8-4.8V19.4C97.8,16.8,95.6,14.7,93,14.7z M92.3,61.3H7.8V20.2
	h84.5V61.3z"/>
</svg>
