<?xml version="1.0" encoding="utf-8"?>
<!-- Generator: Adobe Illustrator 22.0.1, SVG Export Plug-In . SVG Version: 6.00 Build 0)  -->
<svg version="1.1" id="Layer_1" xmlns="http://www.w3.org/2000/svg" xmlns:xlink="http://www.w3.org/1999/xlink" x="0px" y="0px"
	 viewBox="0 0 100 100" style="enable-background:new 0 0 100 100;" xml:space="preserve">
<path d="M59.9,47.3H40.1c-7.6,0-13.8-6.2-13.8-13.8c0-3.7,1.4-7.2,4-9.8c2.6-2.6,6.1-4,9.8-4h30.8c1.5,0,2.8-1.2,2.8-2.8
	s-1.2-2.8-2.8-2.8H54.4V7.5c0-1.5-1.2-2.8-2.7-2.8c-1.5,0-2.8,1.2-2.8,2.8v6.6h-8.8c-5.2,0-10,2-13.7,5.7c-3.6,3.7-5.7,8.5-5.7,13.7
	c0,10.7,8.7,19.3,19.3,19.3h19.9c7.6,0,13.8,6.2,13.8,13.8c0,3.7-1.4,7.2-4,9.8c-2.6,2.6-6.1,4-9.8,4H29.1c-1.5,0-2.8,1.2-2.8,2.8
	s1.2,2.8,2.8,2.8h19.8v6.6c0,1.5,1.2,2.8,2.8,2.8c1.5,0,2.7-1.2,2.7-2.8v-6.6h5.6c5.2,0,10-2,13.7-5.7c3.6-3.7,5.7-8.5,5.7-13.7
	C79.3,55.9,70.6,47.3,59.9,47.3z"/>
</svg>
