<?xml version="1.0" encoding="utf-8"?>
<!-- Generator: Adobe Illustrator 22.0.1, SVG Export Plug-In . SVG Version: 6.00 Build 0)  -->
<svg version="1.1" id="Layer_1" xmlns="http://www.w3.org/2000/svg" xmlns:xlink="http://www.w3.org/1999/xlink" x="0px" y="0px"
	 viewBox="0 0 100 100" style="enable-background:new 0 0 100 100;" xml:space="preserve">
<g>
	<path d="M30.9,40.4c-1.3-0.4-2.6,0.2-3.3,1.4l-4.3,8l-2.6-5.9c-1.4-3.2-5.9-3.2-7.3,0l-2.6,5.9l-4.3-8c-0.8-1.5-2.8-1.9-4.2-0.8
		c-1,0.8-1.2,2.3-0.6,3.5l7.7,14.3c0.8,1.5,2.9,1.4,3.6-0.1l4.1-9.4l4.1,9.4c0.7,1.5,2.8,1.6,3.6,0.1l7.7-14.4
		C33.3,42.8,32.6,40.9,30.9,40.4z"/>
	<path d="M63.8,40.4c-1.3-0.4-2.6,0.2-3.3,1.4l-4.3,8l-2.6-5.9c-1.4-3.2-5.9-3.2-7.3,0l-2.6,5.9l-4.3-8c-0.8-1.5-2.8-1.9-4.2-0.8
		c-1,0.8-1.2,2.3-0.6,3.5l7.7,14.3c0.8,1.5,2.9,1.4,3.6-0.1l4.1-9.4l4.1,9.4c0.7,1.5,2.8,1.6,3.6,0.1l7.7-14.4
		C66.2,42.8,65.5,40.9,63.8,40.4z"/>
	<path d="M96.7,40.4c-1.3-0.4-2.6,0.2-3.3,1.4l-4.3,8l-2.6-5.9c-1.4-3.2-5.9-3.2-7.3,0l-2.6,5.9l-4.3-8c-0.8-1.5-2.8-1.9-4.2-0.8
		c-1,0.8-1.2,2.3-0.6,3.5l7.7,14.3c0.8,1.5,2.9,1.4,3.6-0.1l4.1-9.4l4.1,9.4c0.7,1.5,2.8,1.6,3.6,0.1l7.7-14.4
		C99.2,42.8,98.4,40.9,96.7,40.4z"/>
</g>
</svg>
