<?xml version="1.0" encoding="utf-8"?>
<!-- Generator: Adobe Illustrator 22.0.1, SVG Export Plug-In . SVG Version: 6.00 Build 0)  -->
<svg version="1.1" id="Layer_2_1_" xmlns="http://www.w3.org/2000/svg" xmlns:xlink="http://www.w3.org/1999/xlink" x="0px" y="0px"
	 viewBox="0 0 100 100" style="enable-background:new 0 0 100 100;" xml:space="preserve">
<g>
	<path d="M93.4,65c-1.5,0-2.8,1.2-2.8,2.8v23l-81.2,0v-23c0-1.5-1.2-2.8-2.8-2.8s-2.8,1.2-2.8,2.8v24.4c0,2.3,2.1,4.1,4.8,4.1h82.7
		c2.7,0,4.8-1.8,4.8-4.1V67.8C96.1,66.3,94.9,65,93.4,65z"/>
	<path d="M64.6,51.5c-0.7,0-1.4,0.3-1.9,0.8l-10,10V6.5c0-1.5-1.2-2.8-2.8-2.8S47.2,5,47.2,6.5v55.8l-9.9-10c-1.1-1.1-2.8-1.1-3.9,0
		c-1.1,1.1-1.1,2.8,0,3.9l16.5,16.7l16.7-16.7c1.1-1.1,1.1-2.8,0-3.9C66.1,51.8,65.4,51.5,64.6,51.5z"/>
</g>
</svg>
