<?xml version="1.0" encoding="utf-8"?>
<!-- Generator: Adobe Illustrator 23.0.1, SVG Export Plug-In . SVG Version: 6.00 Build 0)  -->
<svg version="1.1" id="Layer_1" xmlns="http://www.w3.org/2000/svg" xmlns:xlink="http://www.w3.org/1999/xlink" x="0px" y="0px"
	 viewBox="0 0 100 100" style="enable-background:new 0 0 100 100;" xml:space="preserve">
<style type="text/css">
	.st0{fill-rule:evenodd;clip-rule:evenodd;}
</style>
<path class="st0" d="M50,5.73C25.56,5.73,5.73,25.56,5.73,50S25.56,94.27,50,94.27c24.39,0,44.27-19.83,44.27-44.27
	S74.39,5.73,50,5.73z M79.24,26.14c5.28,6.43,8.45,14.64,8.55,23.53c-1.25-0.24-13.73-2.78-26.31-1.2c-0.29-0.62-0.53-1.3-0.82-1.97
	c-0.77-1.82-1.63-3.7-2.5-5.47C72.09,35.36,78.42,27.19,79.24,26.14z M50,12.26c9.6,0,18.39,3.6,25.06,9.51
	c-0.67,0.96-6.39,8.59-19.83,13.64c-6.19-11.38-13.06-20.69-14.12-22.13C43.95,12.6,46.93,12.26,50,12.26z M33.92,15.82
	c1.01,1.34,7.73,10.71,14.02,21.85c-17.67,4.71-33.27,4.61-34.95,4.61C15.43,30.56,23.35,20.81,33.92,15.82z M12.17,50.05
	c0-0.38,0-0.77,0-1.15c1.63,0.05,19.97,0.29,38.84-5.38c1.1,2.11,2.11,4.27,3.07,6.43c-0.48,0.14-1.01,0.29-1.49,0.43
	C33.1,56.67,22.73,73.86,21.87,75.3C15.86,68.63,12.17,59.75,12.17,50.05z M50,87.83c-8.74,0-16.8-2.98-23.19-7.97
	c0.67-1.39,8.35-16.18,29.67-23.62c0.1-0.05,0.14-0.05,0.24-0.1c5.33,13.78,7.49,25.35,8.07,28.66C60.23,86.78,55.23,87.83,50,87.83
	z M71.08,81.35c-0.38-2.3-2.4-13.35-7.35-26.93c11.86-1.87,22.23,1.2,23.53,1.63C85.62,66.56,79.58,75.64,71.08,81.35z"/>
</svg>
