<?xml version="1.0" encoding="utf-8"?>
<!-- Generator: Adobe Illustrator 22.0.1, SVG Export Plug-In . SVG Version: 6.00 Build 0)  -->
<svg version="1.1" id="Layer_1" xmlns="http://www.w3.org/2000/svg" xmlns:xlink="http://www.w3.org/1999/xlink" x="0px" y="0px"
	 viewBox="0 0 100 100" style="enable-background:new 0 0 100 100;" xml:space="preserve">
<path d="M94.6,48.4L79.1,38.2l15.5-10.3c1-0.7,1.7-1.9,1.7-3.1c0-1.3-0.6-2.4-1.7-3.1L72.3,6.9c-1.3-0.8-2.9-0.8-4.1,0L50,18.9l0,0
	l0,0l-18.2-12l0,0c-1.3-0.8-2.9-0.8-4.1,0L5.4,21.7c-1.1,0.7-1.7,1.9-1.7,3.1c0,1.3,0.6,2.4,1.7,3.1L21,38.2L5.4,48.5
	c-1.1,0.7-1.7,1.9-1.7,3.1c0,1.3,0.6,2.4,1.7,3.1l13.5,8.9v9.5c0,1.3,0.7,2.5,1.8,3.2l27.4,16.9c0.6,0.4,1.3,0.6,2,0.6
	c0.7,0,1.3-0.2,2-0.6l27.3-16.7c1.1-0.7,1.8-1.9,1.8-3.2v-9.8l13.5-8.9c1.1-0.7,1.7-1.9,1.7-3.1C96.3,50.2,95.7,49.1,94.6,48.4z
	 M50,25.5l19.1,12.7L50,50.9L30.9,38.2L47.7,27L50,25.5z M70.2,12.1l19.1,12.7L74.1,34.9L55,22.2L70.2,12.1z M29.8,12.1l15.3,10.1
	L33.3,30l-7.3,4.9L10.6,24.8L29.8,12.1z M25.9,41.5l19.1,12.7L29.8,64.3L10.6,51.6L25.9,41.5z M24.3,67.3l3.3,2.2
	c0.6,0.4,1.4,0.6,2.1,0.6c0.7,0,1.4-0.2,2.1-0.6l15.5-10.2v27l-23-14.1V67.3z M75.6,72.4L52.8,86.3v-27l15.4,10.1
	c0.6,0.4,1.3,0.6,2.1,0.6c0.7,0,1.4-0.2,2.1-0.6l3.3-2.2V72.4z M70.2,64.2L55,54.2l19.1-12.7l15.2,10L70.2,64.2z"/>
</svg>
