<?xml version="1.0" encoding="utf-8"?>
<!-- Generator: Adobe Illustrator 22.0.1, SVG Export Plug-In . SVG Version: 6.00 Build 0)  -->
<svg version="1.1" id="Layer_1" xmlns="http://www.w3.org/2000/svg" xmlns:xlink="http://www.w3.org/1999/xlink" x="0px" y="0px"
	 viewBox="0 0 100 100" style="enable-background:new 0 0 100 100;" xml:space="preserve">
<g>
	<path d="M50.1,97.2c-16.3,0-29.9-13.2-30.3-29.4l0-2.9c0-7.6,1.8-15.8,5.4-24.3c5-12.1,13.4-25.9,22.7-36.8c0.6-0.7,1.4-1,2.2-1
		c0.9,0,1.7,0.4,2.2,1l0,0C57,9.2,68.4,23.6,75,41c3.5,8.7,5.2,16.6,5.2,24v2.8C80,84.1,66.5,97.2,50.1,97.2z M50.1,9.7
		C42,19.8,34.7,32,30.3,42.7c-3.3,7.9-5,15.3-5,22.2v2.8c0.3,13.2,11.4,24,24.8,24c13.4,0,24.5-10.7,24.6-23.8v-2.8
		c0-6.7-1.6-13.9-4.8-22C65.8,32.2,58.5,20,50.1,9.7z"/>
</g>
</svg>
