<?xml version="1.0" encoding="utf-8"?>
<!-- Generator: Adobe Illustrator 21.0.0, SVG Export Plug-In . SVG Version: 6.00 Build 0)  -->
<svg version="1.1" id="Layer_1" xmlns="http://www.w3.org/2000/svg" xmlns:xlink="http://www.w3.org/1999/xlink" x="0px" y="0px"
	 viewBox="0 0 100 100" style="enable-background:new 0 0 100 100;" xml:space="preserve">
<path d="M70.7,20.2c-0.1,0-0.1-0.1-0.2-0.1c-4.1-2.6-8.1-3.8-12.1-6.1c-0.6-0.3-1.1-0.7-1.7-1C53.9,11,49.9,6.4,46.6,2.5
	c0,0,0,0,0,0c0,0,0,0,0,0c-0.2,1.9-0.5,3.5-0.9,4.9c-0.8,2.7-2.1,4.3-3.4,5.5c-0.1,0.1-0.3,0.2-0.4,0.3c-4.7,3.7-7.6,4.8-11.6,7
	c-0.3,0.2-0.9,0.5-1.5,0.9c-2.4,1.5-6.7,4.4-10.7,9.1c-5,5.9-9.6,14.5-9.6,26.3c0,1.4,0.1,2.8,0.2,4.2c0,0.1,0,0.2,0,0.3
	c0.1,0.6,0.2,1.3,0.3,1.9c0,0.1,0,0.2,0,0.2c0.3,2,0.8,3.9,1.4,5.7c0,0.1,0,0.2,0.1,0.2c0.2,0.6,0.4,1.1,0.6,1.6
	c0.1,0.2,0.1,0.3,0.2,0.5c0.2,0.5,0.4,1.1,0.7,1.6c0,0.1,0.1,0.2,0.1,0.3c0.6,1.3,1.2,2.5,1.9,3.7c0.2,0.3,0.4,0.6,0.6,0.9
	c0.2,0.3,0.3,0.5,0.5,0.8c0.3,0.4,0.5,0.8,0.8,1.1c0.2,0.3,0.4,0.6,0.6,0.8c0.4,0.5,0.8,1.1,1.3,1.6c0.3,0.3,0.6,0.7,0.8,1
	c0.3,0.3,0.5,0.6,0.8,0.9c0.3,0.3,0.6,0.6,0.9,0.9c0.3,0.3,0.5,0.5,0.8,0.8c0.4,0.4,0.8,0.8,1.2,1.1c0.3,0.3,0.6,0.5,0.9,0.8
	c0.4,0.4,0.9,0.7,1.3,1.1c0.3,0.2,0.5,0.4,0.8,0.6c0.4,0.3,0.9,0.6,1.3,0.9c0.2,0.2,0.5,0.3,0.7,0.5c0.7,0.4,1.3,0.8,2,1.2
	c0.1,0.1,0.3,0.1,0.4,0.2c0.6,0.3,1.2,0.6,1.8,0.9c0.2,0.1,0.4,0.2,0.6,0.3c0.6,0.3,1.2,0.6,1.9,0.8c0.1,0.1,0.2,0.1,0.4,0.2
	c0.8,0.3,1.6,0.6,2.4,0.9c0.1,0,0.2,0.1,0.3,0.1c0.7,0.2,1.5,0.5,2.2,0.7c0.1,0,0.3,0.1,0.4,0.1c1.7,0.4,3.4,0.8,5.2,1
	c0,0,0.1,0,0.1,0c0.9,0.1,1.7,0.2,2.6,0.3c0.1,0,0.1,0,0.2,0c0.9,0.1,1.8,0.1,2.8,0.1c22.1,0,41.2-16,41.2-40.3
	C91.6,33,73.6,22,70.7,20.2z M17.7,35.4c-0.3-0.2-1.6-1-0.3-3.1c4.5-6.9,13.1-11.6,15.5-12.8c0.9-0.5,4.9-2.4,9.1-5.5
	c2.5-1.9,4.3-3.8,5.1-9.8c0.6,2.1,0.8,3.8,0.7,6.1c-0.1,2.4-2.3,3.8-2.7,4.2c-0.5,0.4-2.4,1.3-2.8,1.6c-0.5,0.3-0.4,0.5,0,0.5
	c0.7,0.2,1.2,0.5,1.2,1.1c0,0.5-0.3,1.7-2.3,3.8c-3.8,3.9-6.7,6.3-13.4,10.3C21.1,36,18,35.6,17.7,35.4z M71.2,88.9
	c-0.5,0.5-4.7,3.4-9.6,3.8C56.7,93.2,50,93.5,46,89.8c-0.6-0.6-0.5-1.6,0-1.9c0.5-0.4,0.8-0.6,1.4-0.6c0.5,0,0.5,0,0.7,0.2
	c1.8,1.5,4.6,2.7,10.4,2.7c5.9,0,10-1.6,11.8-3c0.8-0.6,1.2-0.1,1.3,0.3C71.7,87.7,71.9,88.2,71.2,88.9z M55.2,80.6
	c1-0.9,2.7-2.4,4.2-3c1.6-0.6,2.4-0.5,3.8-0.5c1.5,0,3,0.1,4.1,0.8c1.1,0.7,1.7,2.4,2.1,3.3c0.4,0.9,0,1.5-0.7,1.8
	c-0.6,0.4-0.7,0.2-1.4-1c-0.6-1.2-1.2-2.4-4.4-2.4c-3.2,0-4.2,1.1-5.8,2.4c-1.6,1.3-2.1,1.7-2.7,1C54,82.2,54.2,81.5,55.2,80.6z
	 M79.5,81.3c-3.3-0.3-9.9-10.5-14.1-10.7c-5.3-0.2-16.8,11.1-25.9,11.1c-5.5,0-7.1-0.8-9-2c-2.7-1.9-4.1-4.9-4-8.9
	c0.1-7.1,6.8-13.8,15.2-13.9c10.7-0.1,18.1,10.6,23.5,10.5c4.6-0.1,13.4-9.1,17.7-9.1c4.6,0,5.9,4.8,5.9,7.6c0,2.8-0.9,8-3.1,11.2
	C83.4,80.3,82,81.5,79.5,81.3z"/>
</svg>
