<?xml version="1.0" encoding="utf-8"?>
<!-- Generator: Adobe Illustrator 22.0.1, SVG Export Plug-In . SVG Version: 6.00 Build 0)  -->
<svg version="1.1" id="Layer_1" xmlns="http://www.w3.org/2000/svg" xmlns:xlink="http://www.w3.org/1999/xlink" x="0px" y="0px"
	 viewBox="0 0 100 100" style="enable-background:new 0 0 100 100;" xml:space="preserve">
<g>
	<path d="M61.6,20.7c-2-0.6-3.9-2-5.2-3.8c-0.6-0.8-1.3-1.8-2.1-3L46.9,3.1c-0.6-0.9-1.8-1.4-2.9-1.2c-1.1,0.2-2,1.1-2.2,2.2
		l-2.5,11.8l0,0c-0.8,3-2.9,5.4-5.9,6.7C19,28.8,9.7,43,9.7,58.6c0,21.8,18.1,39.6,40.3,39.6c22.2,0,40.3-17.8,40.3-39.6
		C90.3,41.4,78.5,25.9,61.6,20.7z M50,92.7c-19.2,0-34.8-15.3-34.8-34.1c0-13.4,8-25.6,20.4-31c4.5-1.9,7.8-5.7,9-10.4l1.3-5.9
		l3.9,5.7c0.8,1.2,1.5,2.2,2.1,3.1c2,2.8,4.9,4.9,8.1,5.9c14.6,4.4,24.8,17.8,24.8,32.6C84.8,77.4,69.2,92.7,50,92.7z"/>
	<path d="M82.4,52.5c-0.6-2.6-2.1-4.7-4.1-5.9c-1.5-1-3.4-1.4-5.4-1.3c-1.5,0.1-3,0.4-4.5,1c-1.7,0.7-3.2,1.7-4.6,2.6
		c-0.8,0.5-1.5,1-2.3,1.4c-0.4,0.2-0.9,0.5-1.2,0.5c-0.6,0.1-1.4-0.2-2.4-0.9c-0.5-0.3-1-0.7-1.4-1c-1.1-0.8-2.2-1.7-3.6-2.3
		c-5.7-2.9-11.9-3.6-17.1-2.1c-3.4,1-6.3,3.3-8,6.2c-1.5,2.8-1.9,6.4-1.1,9.7c1,3.8,3.2,6.9,6.2,8.7c1.9,1.1,4,1.7,6.3,1.7
		c1.2,0,2.5-0.2,3.8-0.5c5.9-1.6,10.3-5.4,14.4-9.2c0.8-0.7,1.6-1.4,2.4-2.1c0.5-0.4,0.8-0.6,0.9-0.6c0.6,0.3,1.6,2.1,2.2,3.1
		c0.6,1,1.2,2.1,1.9,3c2.7,3.4,7.9,5.8,12.3,3.5c3-1.5,4.9-4.7,5.5-9.3C82.9,56.3,82.9,54.3,82.4,52.5z M53.8,56.9
		c-3.9,3.5-7.5,6.7-12.2,8c-2.2,0.6-4.2,0.4-5.8-0.6c-1.8-1-3.1-2.9-3.7-5.3c-0.5-2-0.3-4.1,0.6-5.7c0.9-1.7,2.6-3,4.7-3.6
		c1.2-0.4,2.6-0.6,4-0.6c2.9,0,6.1,0.8,9,2.3c0.9,0.5,1.8,1.1,2.7,1.8c0.5,0.4,1.1,0.8,1.6,1.2c0.4,0.3,0.7,0.5,1.1,0.7
		C55.2,55.7,54.5,56.3,53.8,56.9z M77.1,58c-0.2,1.5-0.8,4.3-2.6,5.2c-1.7,0.9-4.2-0.4-5.5-2c-0.5-0.6-0.9-1.4-1.4-2.3
		c-0.8-1.4-1.7-3-2.9-4.2c0.7-0.4,1.3-0.8,1.9-1.2c1.3-0.8,2.5-1.6,3.8-2.1c0.9-0.4,1.8-0.6,2.6-0.6h0c0.9,0,1.6,0.1,2.2,0.5
		c0.8,0.5,1.4,1.4,1.7,2.6C77.4,54.9,77.4,56.3,77.1,58z"/>
	<path d="M59.8,80.9c-2,1.2-4.5,2-6.9,2.1c-1,0-1.9,0-2.8-0.1c-1.8-0.3-3.6-0.8-5.2-1.5c-1.4-0.6-3,0-3.6,1.4c-0.6,1.4,0,3,1.4,3.6
		c2.1,0.9,4.4,1.6,6.7,1.9c1.3,0.2,2.5,0.2,3.5,0.2h0.2l0.1,0c3.4-0.2,6.7-1.2,9.5-2.9c1.3-0.8,1.7-2.5,0.9-3.8
		C62.8,80.5,61.1,80.1,59.8,80.9z"/>
	<path d="M62.7,71.1c-1.9-1.3-4.3-1.8-6.6-1.4c-2.5,0.5-4.7,2-6,4.1c-0.8,1.3-0.4,3,0.9,3.8c0.4,0.3,0.9,0.4,1.4,0.4
		c0.9,0,1.8-0.5,2.4-1.3c0.5-0.8,1.4-1.4,2.3-1.6c0.9-0.2,1.8,0,2.5,0.5c0.3,0.2,0.7,0.5,1.1,1c1,1.1,2.8,1.2,3.9,0.2
		c1.1-1,1.2-2.8,0.2-3.9C64.3,72.4,63.6,71.7,62.7,71.1z"/>
</g>
</svg>
