<?xml version="1.0" encoding="utf-8"?>
<!-- Generator: Adobe Illustrator 22.0.1, SVG Export Plug-In . SVG Version: 6.00 Build 0)  -->
<svg version="1.1" id="Layer_1" xmlns="http://www.w3.org/2000/svg" xmlns:xlink="http://www.w3.org/1999/xlink" x="0px" y="0px"
	 viewBox="0 0 100 100" style="enable-background:new 0 0 100 100;" xml:space="preserve">
<path d="M92.2,43.3v-3.5c0-4.3-3.5-7.8-7.8-7.8h-5.4c-4.3,0-7.8,3.5-7.8,7.8v3.4h-3.8c-1.1,0-2,0.9-2,2v2.4H34.6v-2.4
	c0-1.1-0.9-2-2-2h-3.8v-4.1c0-3.9-3.2-7.1-7.1-7.1H15c-3.9,0-7.1,3.2-7.1,7.1v4.2c-1.6,0.3-2.8,1.7-2.8,3.4v6.7
	c0,1.7,1.2,3.1,2.8,3.4v4.2C7.8,64.8,11,68,15,68h6.7c3.9,0,7.1-3.2,7.1-7.1v-4.1h3.8c1.1,0,2-0.9,2-2v-1.7h30.8v1.7
	c0,1.1,0.9,2,2,2h3.8v3.4c0,4.3,3.5,7.8,7.8,7.8h5.4c4.3,0,7.8-3.5,7.8-7.8v-3.5c1.6-0.3,2.8-1.7,2.8-3.4v-6.7
	C94.9,45,93.8,43.6,92.2,43.3z M23.3,60.9c0,0.9-0.7,1.6-1.6,1.6H15c-0.9,0-1.6-0.7-1.6-1.6V39.1c0-0.9,0.7-1.6,1.6-1.6h6.7
	c0.9,0,1.6,0.7,1.6,1.6V60.9z M86.7,60.2c0,1.3-1,2.3-2.3,2.3h-5.4c-1.3,0-2.3-1-2.3-2.3V39.8c0-1.3,1-2.3,2.3-2.3h5.4
	c1.3,0,2.3,1,2.3,2.3V60.2z"/>
</svg>
