<?xml version="1.0" encoding="utf-8"?>
<!-- Generator: Adobe Illustrator 22.0.1, SVG Export Plug-In . SVG Version: 6.00 Build 0)  -->
<svg version="1.1" id="Layer_2_1_" xmlns="http://www.w3.org/2000/svg" xmlns:xlink="http://www.w3.org/1999/xlink" x="0px" y="0px"
	 viewBox="0 0 100 100" style="enable-background:new 0 0 100 100;" xml:space="preserve">
<g>
	<path d="M92,0.9H47.5c-2.3,0-4.1,1.8-4.1,4.1v20.5c0,1.5,1.2,2.8,2.8,2.8s2.8-1.2,2.8-2.8V6.4h41.8v87.1H48.9V74.4
		c0-1.5-1.2-2.8-2.8-2.8s-2.8,1.2-2.8,2.8v20.5c0,2.3,1.8,4.2,4.1,4.2H92c2.3,0,4.2-1.8,4.2-4.2V5.1C96.2,2.8,94.4,0.9,92,0.9z"/>
	<path d="M60.1,62.7c-1,1-1.2,2.7-0.2,3.8c0.6,0.6,1.3,1,2.1,1c0.7,0,1.4-0.3,1.9-0.8l15.3-15.3c0.8-0.8,0.8-2,0-2.8L63.9,33.1
		c-1.2-1.2-3.2-1.1-4.2,0.4c-0.7,1.1-0.5,2.6,0.4,3.5l10.1,10.1l-63.5,0c-1.3,0-2.5,0.9-2.8,2.2c-0.3,1.8,1,3.3,2.7,3.3h63.6
		L60.1,62.7z"/>
</g>
</svg>
