<?xml version="1.0" encoding="utf-8"?>
<!-- Generator: Adobe Illustrator 22.0.1, SVG Export Plug-In . SVG Version: 6.00 Build 0)  -->
<svg version="1.1" id="Layer_1" xmlns="http://www.w3.org/2000/svg" xmlns:xlink="http://www.w3.org/1999/xlink" x="0px" y="0px"
	 viewBox="0 0 100 100" style="enable-background:new 0 0 100 100;" xml:space="preserve">
<path d="M93.7,22.5H6.3c-2.6,0-4.8,2.1-4.8,4.8v45.5c0,2.6,2.1,4.8,4.8,4.8h87.5c2.6,0,4.8-2.1,4.8-4.8V27.3
	C98.5,24.6,96.4,22.5,93.7,22.5z M50,48.7L13.7,28h72.6L50,48.7z M37.9,48.2L7,69.5v-39L37.9,48.2z M43.2,51.2l4.4,2.5
	c0.7,0.4,1.5,0.6,2.4,0.6c0.8,0,1.6-0.2,2.4-0.6l4.4-2.5L86.8,72H13.1L43.2,51.2z M62,48.2l31-17.7v39.1L62,48.2z"/>
</svg>
