<?xml version="1.0" encoding="utf-8"?>
<!-- Generator: Adobe Illustrator 22.0.1, SVG Export Plug-In . SVG Version: 6.00 Build 0)  -->
<svg version="1.1" id="Layer_2_1_" xmlns="http://www.w3.org/2000/svg" xmlns:xlink="http://www.w3.org/1999/xlink" x="0px" y="0px"
	 viewBox="0 0 100 100" style="enable-background:new 0 0 100 100;" xml:space="preserve">
<path d="M93.7,44.5c2.3-2.3,2.3-5.9,0-8.3L63.8,6.3c-1.1-1.1-2.6-1.7-4.1-1.7c-1.5,0-3,0.6-4.1,1.7L11.9,49.9
	c-4.7,4.7-7.4,11-7.4,17.7s2.6,12.9,7.4,17.7l2.8,2.8h0c4.7,4.7,11,7.4,17.7,7.4c0,0,0.1,0,0.1,0c0.9,0,1.8-0.1,2.7-0.2h50
	c1.5,0,2.8-1.2,2.8-2.8s-1.2-2.8-2.8-2.8h-37c0.6-0.5,1.3-1.1,1.8-1.7L93.7,44.5z M59.4,10.2c0,0,0.1-0.1,0.2-0.1
	c0.1,0,0.2,0.1,0.2,0.1l29.9,29.9c0.2,0.2,0.2,0.3,0,0.5L55.1,75.3L24.7,44.9L59.4,10.2z M33.8,89.8c-0.3,0-0.5,0.1-0.8,0.1
	c-0.2,0-0.3,0-0.5,0c0,0-0.1,0-0.1,0c-5.2,0-10.1-2-13.9-5.7l-2.8-2.8c-3.7-3.7-5.7-8.6-5.7-13.8s2-10.1,5.7-13.8l5-5l30.4,30.4
	l-5,5c-3.1,3.1-7,5-11.3,5.6H33.8z"/>
</svg>
