<?xml version="1.0" encoding="utf-8"?>
<!-- Generator: Adobe Illustrator 22.0.1, SVG Export Plug-In . SVG Version: 6.00 Build 0)  -->
<svg version="1.1" id="Layer_1" xmlns="http://www.w3.org/2000/svg" xmlns:xlink="http://www.w3.org/1999/xlink" x="0px" y="0px"
	 viewBox="0 0 100 100" style="enable-background:new 0 0 100 100;" xml:space="preserve">
<path d="M79.2,83.3c-0.7-1.4-2.4-1.9-3.7-1.2c-3.4,1.8-7.1,2.6-10.8,2.6c-12.8,0-23.7-10.6-27.1-25h26.6c1.5,0,2.8-1.2,2.8-2.8
	s-1.2-2.8-2.8-2.8H36.7c-0.1-1.4-0.2-2.8-0.2-4.3s0.1-2.9,0.2-4.3h27.5c1.5,0,2.8-1.2,2.8-2.8s-1.2-2.8-2.8-2.8H37.6
	c3.4-14.4,14.3-25,27.1-25c3.3,0,6.6,0.7,9.7,2.1c1.4,0.6,3,0,3.6-1.4c0.6-1.4,0-3-1.4-3.6c-3.8-1.7-7.8-2.6-11.9-2.6
	c-15.8,0-29.1,13-32.7,30.5h-8.8c-1.5,0-2.8,1.2-2.8,2.8s1.2,2.8,2.8,2.8h7.9C31,47.1,31,48.6,31,50s0.1,2.9,0.2,4.3h-7.9
	c-1.5,0-2.8,1.2-2.8,2.8s1.2,2.8,2.8,2.8H32c3.7,17.5,17,30.5,32.7,30.5c4.6,0,9.1-1.1,13.3-3.2C79.4,86.3,79.9,84.6,79.2,83.3z"/>
</svg>
