<?xml version="1.0" encoding="utf-8"?>
<!-- Generator: Adobe Illustrator 22.0.1, SVG Export Plug-In . SVG Version: 6.00 Build 0)  -->
<svg version="1.1" id="Layer_1" xmlns="http://www.w3.org/2000/svg" xmlns:xlink="http://www.w3.org/1999/xlink" x="0px" y="0px"
	 viewBox="0 0 100 100" style="enable-background:new 0 0 100 100;" xml:space="preserve">
<g>
	<path d="M92.6,0.9H48.1c-2.3,0-4.1,1.8-4.1,4.1v20.5c0,1.5,1.2,2.8,2.8,2.8s2.8-1.2,2.8-2.8V6.4h41.8v87.1H49.5V74.4
		c0-1.5-1.2-2.8-2.8-2.8S44,72.9,44,74.4v20.5c0,2.3,1.8,4.2,4.1,4.2h44.5c2.3,0,4.2-1.8,4.2-4.2V5.1C96.8,2.8,94.9,0.9,92.6,0.9z"
		/>
	<path d="M13.7,52.6h63.6c1.5,0,2.8-1.2,2.8-2.8s-1.2-2.8-2.8-2.8H13.8l10.1-10.1c1.1-1.1,1.1-2.8,0-3.9C22.8,32,21,32,20,33.1
		L3.2,49.8L20,66.6c0.5,0.5,1.2,0.8,2,0.8c0.7,0,1.4-0.3,1.9-0.8c1.1-1.1,1.1-2.8,0-3.9L13.7,52.6z"/>
</g>
</svg>
