<?xml version="1.0" encoding="utf-8"?>
<!-- Generator: Adobe Illustrator 22.0.1, SVG Export Plug-In . SVG Version: 6.00 Build 0)  -->
<svg version="1.1" id="Layer_1" xmlns="http://www.w3.org/2000/svg" xmlns:xlink="http://www.w3.org/1999/xlink" x="0px" y="0px"
	 viewBox="0 0 100 100" style="enable-background:new 0 0 100 100;" xml:space="preserve">
<g>
	<path d="M92.4,50.2H80.2c-1.5,0-2.8,1.2-2.8,2.8s1.2,2.8,2.8,2.8h10.4v35H9.4v-35h11.7c1.5,0,2.8-1.2,2.8-2.8s-1.2-2.8-2.8-2.8H7.6
		c-2.1,0-3.8,1.7-3.8,3.8v37.5c0,2.6,2.1,4.8,4.8,4.8h82.7c2.6,0,4.8-2.1,4.8-4.8V54C96.1,51.9,94.4,50.2,92.4,50.2z"/>
	<path d="M37.3,24.3l10-10v52.9c0,1.5,1.2,2.8,2.8,2.8c1.5,0,2.8-1.2,2.8-2.8V14.3l9.9,10c0.5,0.5,1.2,0.8,2,0.8
		c0.7,0,1.4-0.3,1.9-0.8c1.1-1.1,1.1-2.8,0-3.9L50.1,3.7L33.4,20.4c-1.1,1.1-1.1,2.8,0,3.9C34.5,25.3,36.2,25.3,37.3,24.3z"/>
</g>
</svg>
