<?xml version="1.0" encoding="utf-8"?>
<!-- Generator: Adobe Illustrator 22.0.1, SVG Export Plug-In . SVG Version: 6.00 Build 0)  -->
<svg version="1.1" id="Layer_1" xmlns="http://www.w3.org/2000/svg" xmlns:xlink="http://www.w3.org/1999/xlink" x="0px" y="0px"
	 viewBox="0 0 100 100" style="enable-background:new 0 0 100 100;" xml:space="preserve">
<g>
	<path d="M92.4,49.7H80.1c-1.5,0-2.8,1.2-2.8,2.8s1.2,2.8,2.8,2.8h10.5v35H9.4v-35H21c1.5,0,2.8-1.2,2.8-2.8s-1.2-2.8-2.8-2.8H7.6
		c-2.1,0-3.8,1.6-3.8,3.8v37.5c0,2.6,2.1,4.8,4.8,4.8h82.7c2.6,0,4.8-2.1,4.8-4.8V53.4C96.1,51.3,94.5,49.7,92.4,49.7z"/>
	<path d="M49.9,70.4l16.7-16.7c1.1-1.1,1.1-2.8,0-3.9s-2.8-1.1-3.9,0l-10,10V7.1c0-1.5-1.2-2.8-2.8-2.8s-2.8,1.2-2.8,2.8v52.8
		l-9.9-10c-1.1-1.1-2.8-1.1-3.9,0c-1.1,1.1-1.1,2.8,0,3.9L49.9,70.4z"/>
</g>
</svg>
