<?xml version="1.0" encoding="utf-8"?>
<!-- Generator: Adobe Illustrator 21.0.2, SVG Export Plug-In . SVG Version: 6.00 Build 0)  -->
<svg version="1.1" id="Layer_2_1_" xmlns="http://www.w3.org/2000/svg" xmlns:xlink="http://www.w3.org/1999/xlink" x="0px" y="0px"
	 viewBox="0 0 100 100" style="enable-background:new 0 0 100 100;" xml:space="preserve">
<g>
	<path d="M93.9,46.6C83.6,35,67.5,28.3,49.8,28.3C32,28.6,16,35.2,5.7,46.7l-2.9,3.4l3,3.3C16.2,65,32.3,71.7,49.9,71.7
		c17.8,0,33.9-6.7,44.1-18.3l3.2-3.4L93.9,46.6z M49.9,66.2c-16,0-30.4-5.9-39.8-16.2c9.3-10,23.7-15.9,39.7-16.1
		c16,0,30.5,5.9,39.8,16.2C80.4,60.3,65.9,66.2,49.9,66.2z"/>
	<circle cx="49.8" cy="50" r="7.7"/>
</g>
</svg>
