<?xml version="1.0" encoding="utf-8"?>
<!-- Generator: Adobe Illustrator 23.0.1, SVG Export Plug-In . SVG Version: 6.00 Build 0)  -->
<svg version="1.1" id="Layer_1" xmlns="http://www.w3.org/2000/svg" xmlns:xlink="http://www.w3.org/1999/xlink" x="0px" y="0px"
	 viewBox="0 0 100 100" style="enable-background:new 0 0 100 100;" xml:space="preserve">
<path d="M85.56,10H14.44C11.99,10,10,11.99,10,14.44v71.11c0,2.45,1.99,4.44,4.44,4.44h38.29V59.07H42.34V46.96h10.39v-8.89
	c0-10.33,6.31-15.97,15.56-15.97c3.11-0.01,6.22,0.15,9.31,0.48v10.76h-6.38c-5.01,0-5.99,2.39-5.99,5.89v7.71h11.99l-1.56,12.11
	H65.23V90h20.32c2.45,0,4.44-1.99,4.44-4.44V14.44C90,11.99,88.01,10,85.56,10z"/>
</svg>
