<?xml version="1.0" encoding="utf-8"?>
<!-- Generator: Adobe Illustrator 22.0.1, SVG Export Plug-In . SVG Version: 6.00 Build 0)  -->
<svg version="1.1" id="Layer_1" xmlns="http://www.w3.org/2000/svg" xmlns:xlink="http://www.w3.org/1999/xlink" x="0px" y="0px"
	 viewBox="0 0 100 100" style="enable-background:new 0 0 100 100;" xml:space="preserve">
<g>
	<path d="M57.1,98.2H43.8c-3.2,0-5.9-2.7-5.9-5.9V56.4h-11c-3.2,0-5.9-2.7-5.9-5.9V40.2c0-3.2,2.7-5.9,5.9-5.9h10.9v-9.3
		c0-13.8,9.1-23.1,22.7-23.1h10.1c3.2,0,5.9,2.7,5.9,5.9V20c0,3.2-2.7,5.9-5.9,5.9h-7c-0.2,0-0.4,0-0.5,0c0,0.2,0,0.3,0,0.4v8h10
		c1.8,0,3.5,0.8,4.6,2.2c1.1,1.4,1.6,3.2,1.2,4.9l0,0l-2.1,10.2c-0.5,2.7-3,4.7-5.8,4.7h-8v36C63,95.4,60.3,98.2,57.1,98.2z
		 M26.9,39.8c-0.2,0-0.4,0.2-0.4,0.4v10.4c0,0.2,0.2,0.4,0.4,0.4h16.5v41.3c0,0.2,0.2,0.4,0.4,0.4h13.3c0.2,0,0.4-0.2,0.4-0.4V50.8
		H71c0.2,0,0.4-0.1,0.4-0.2l2.1-10.3c0-0.2,0-0.3-0.1-0.4c-0.1-0.1-0.2-0.1-0.4-0.1H57.6V26.3c0-3.6,1-5.9,6-5.9h7
		c0.2,0,0.4-0.2,0.4-0.4V7.7c0-0.2-0.2-0.4-0.4-0.4H60.5c-10.4,0-17.2,6.9-17.2,17.6v14.8H26.9z"/>
</g>
</svg>
