<?xml version="1.0" encoding="utf-8"?>
<!-- Generator: Adobe Illustrator 22.0.1, SVG Export Plug-In . SVG Version: 6.00 Build 0)  -->
<svg version="1.1" id="Layer_1" xmlns="http://www.w3.org/2000/svg" xmlns:xlink="http://www.w3.org/1999/xlink" x="0px" y="0px"
	 viewBox="0 0 100 100" style="enable-background:new 0 0 100 100;" xml:space="preserve">
<path d="M50,7C25.8,7,7,24.8,7,48.7c0,12.5,5.1,23.4,13.5,30.8c0.7,0.6,1.1,1.5,1.2,2.4l0.2,7.7c0.1,2.4,2.6,4,4.8,3.1l8.5-3.8
	c0.7-0.3,1.5-0.4,2.3-0.2c3.9,1.1,8.1,1.7,12.5,1.7c24.2,0,43-17.8,43-41.7C93,24.8,74.2,7,50,7z M75.8,39.1l-12.6,20
	c-2,3.2-6.3,4-9.3,1.7l-10-7.5c-0.9-0.7-2.2-0.7-3.1,0L27.1,63.6c-1.8,1.4-4.2-0.8-3-2.7l12.6-20c2-3.2,6.3-4,9.3-1.7l10,7.5
	c0.9,0.7,2.2,0.7,3.1,0l13.6-10.3C74.7,35,77,37.2,75.8,39.1z"/>
</svg>
