<?xml version="1.0" encoding="utf-8"?>
<!-- Generator: Adobe Illustrator 22.0.1, SVG Export Plug-In . SVG Version: 6.00 Build 0)  -->
<svg version="1.1" id="Layer_1" xmlns="http://www.w3.org/2000/svg" xmlns:xlink="http://www.w3.org/1999/xlink" x="0px" y="0px"
	 viewBox="0 0 100 100" style="enable-background:new 0 0 100 100;" xml:space="preserve">
<path d="M61.2,23.5h11.6c2.2,0,4-1.8,4-4V9.6c0-2.2-1.8-4-4-4H57.2h0c-9.9,0-17.8,8-17.8,17.8v0V37c0,0.6-0.4,1-1,1H27.2
	c-2.2,0-4,1.8-4,4v9.9c0,2.2,1.8,4,4,4h11.2c0.6,0,1,0.4,1,1v33.5c0,2.2,1.8,4,4,4h9.9c2.2,0,4-1.8,4-4V56.9c0-0.6,0.4-1,1-1h14.6
	c2.2,0,4-1.8,4-4V42c0-2.2-1.8-4-4-4H58.2c-0.6,0-1-0.4-1-1v-9.5C57.2,25.3,59,23.5,61.2,23.5z"/>
</svg>
