<?xml version="1.0" encoding="utf-8"?>
<!-- Generator: Adobe Illustrator 21.0.2, SVG Export Plug-In . SVG Version: 6.00 Build 0)  -->
<svg version="1.1" id="Layer_1" xmlns="http://www.w3.org/2000/svg" xmlns:xlink="http://www.w3.org/1999/xlink" x="0px" y="0px"
	 viewBox="0 0 100 100" style="enable-background:new 0 0 100 100;" xml:space="preserve">
<path d="M94.4,2.3H46.6c-2.1,0-3.9,1.7-3.9,3.9v18.1H5.6c-2.1,0-3.9,1.7-3.9,3.9v44.5c0,0.3,0.1,0.5,0.3,0.7l24,23.9
	c0.2,0.2,0.4,0.3,0.7,0.3h26.4c2.1,0,3.9-1.7,3.9-3.9V65.4l10,9.9c0.2,0.2,0.4,0.3,0.7,0.3h26.6c2.1,0,3.8-1.7,3.8-3.8V6.2
	C98.3,4.1,96.5,2.3,94.4,2.3z M24.8,88.3L11.2,74.7h13.6V88.3z M51.5,92.2H30.3V73.1c0-2.1-1.8-3.8-3.9-3.8H7.3V29.8h44.3V92.2z
	 M57,52.8h8.7v13.4L57,57.7V52.8z M92.8,70H71.3V51.2c0-2.1-1.7-3.9-3.8-3.9H57V28.2c0-2.1-1.8-3.9-3.8-3.9h-5V7.8h44.5V70z"/>
</svg>
