<?xml version="1.0" encoding="utf-8"?>
<!-- Generator: Adobe Illustrator 22.0.1, SVG Export Plug-In . SVG Version: 6.00 Build 0)  -->
<svg version="1.1" id="Layer_1" xmlns="http://www.w3.org/2000/svg" xmlns:xlink="http://www.w3.org/1999/xlink" x="0px" y="0px"
	 viewBox="0 0 100 100" style="enable-background:new 0 0 100 100;" xml:space="preserve">
<g>
	<path d="M78.8,60.9c0-1-0.4-1.9-1.1-2.7L37.3,17.8l2.2-2.2c1-1,1.3-2.4,0.9-3.8c-0.4-1.3-1.6-2.3-2.9-2.5L9.1,4.4
		c-1.2-0.2-2.4,0.2-3.3,1C5,6.3,4.6,7.5,4.8,8.7l4.8,28.8v0c0.2,1.4,1.2,2.5,2.6,3c0.4,0.1,0.8,0.2,1.1,0.2c1,0,2-0.4,2.7-1.1
		l2.1-2.1l40.2,40.2c0.7,0.7,1.6,1.1,2.7,1.1s1.9-0.4,2.7-1.1l14.1-14.1C78.4,62.8,78.8,61.9,78.8,60.9z M10.6,10.3l22.6,3.9
		L14.5,33.2L10.6,10.3z M52.1,40.4l6.5,6.5L52.5,64L46,57.5L52.1,40.4z M41.7,53.2l-6.5-6.5l6.2-17.1l6.5,6.5L41.7,53.2z M33.6,21.9
		l3.4,3.4l-6.2,17.1L22,33.5L33.6,21.9z M61,72.5l-4.2-4.2L63,51.2l9.6,9.6L61,72.5z"/>
	<path d="M73.5,81.6c-1.1-1.1-2.8-1.1-3.9,0c-1.1,1.1-1.1,2.8,0,3.9l9.4,9.4c0.5,0.5,1.2,0.8,1.9,0.8s1.4-0.3,1.9-0.8
		c1.1-1.1,1.1-2.8,0-3.9L73.5,81.6z"/>
	<path d="M78.8,75.3c-1.1-1.1-2.8-1.1-3.9,0s-1.1,2.8,0,3.9l15.2,15.2c0.5,0.5,1.2,0.8,1.9,0.8s1.4-0.3,1.9-0.8
		c1.1-1.1,1.1-2.8,0-3.9L78.8,75.3z"/>
	<path d="M90.6,83.2c0.5,0.5,1.2,0.8,1.9,0.8s1.4-0.3,1.9-0.8c1.1-1.1,1.1-2.8,0-3.9l-9.4-9.4c-1.1-1.1-2.8-1.1-3.9,0
		s-1.1,2.8,0,3.9L90.6,83.2z"/>
</g>
</svg>
