<?xml version="1.0" encoding="utf-8"?>
<!-- Generator: Adobe Illustrator 22.0.1, SVG Export Plug-In . SVG Version: 6.00 Build 0)  -->
<svg version="1.1" id="Layer_1" xmlns="http://www.w3.org/2000/svg" xmlns:xlink="http://www.w3.org/1999/xlink" x="0px" y="0px"
	 viewBox="0 0 100 100" style="enable-background:new 0 0 100 100;" xml:space="preserve">
<g>
	<path d="M50,96c-7.7,0-15.4-1.9-22.3-5.5c-11.3-6-19.7-16-23.5-28.2C0.6,50.5,1.6,38,7,26.9c-2.1-6.2-0.6-13,3.9-17.8
		c0.9-0.9,2.1-1.4,3.3-1.4c0,0,0,0,0,0c2.5,0,4.5,2,4.6,4.4c0.3,2.1,1,4.1,2,6l0.1,0.2c0.1,0.2,0.2,0.4,0.3,0.6
		c2-0.2,3.9-0.2,5.9-0.1c3.2-4.1,8-6.8,13.2-7.2l0.1,0l0.1,0c2.1,0,3.8,1.3,4.4,3.3c0.5,1.6,0,3.4-1.2,4.6c-2.7,2.7-4.1,5.3-4.3,6.4
		c0.6,0.3,2.1,0.7,4.9,0.7h3.8c2.1,0,4,1.4,4.5,3.5c0.5,1.9-0.3,3.9-2,5.1l-6.7,4.5c-1.2,0.8-1.8,2.2-2.1,3.2
		c-0.3,1.1-0.9,2.1-1.6,2.9l-0.1,0.2c-1,0.9-2.3,1.4-3.6,1.3c-0.8-0.1-1.4,0-1.8,0.3l-0.3,0.2c-0.1,0.1-0.3,0.2-0.3,0.4
		c0.3,0.1,0.9,0.2,1.9,0.2c1.5,0.1,3,0.1,4.5,0.1l1.2,0l0.6,0c2,0,3,0,4.1-0.7c0.3-0.2,0.6-0.4,1-0.7c0.8-0.6,1.8-1.3,2.9-1.7
		c2-0.8,4.1-0.8,5.6-0.8c1.5,0.1,3.5,0.3,5.3,1.4c1.4,0.9,2.3,2.1,2.7,3.6c0.5,1.9-0.2,4-1.7,5.1c-0.8,0.6-1.5,0.8-2.1,0.9
		c-0.1,0-0.2,0.1-0.4,0.1c-0.5,0.2-1.1,0.7-1.8,1.2c-0.4,0.4-0.9,0.7-1.4,1.1c-0.7,0.5-1.5,0.9-2.2,1.3c-0.9,0.5-1.8,1-2.3,1.5
		c-0.6,0.7-1.1,1.8-1.6,2.9c-0.1,0.2-0.2,0.4-0.2,0.5c0.5,0,1,0,1.5,0l0.1,0c3.8,0,7.6-1.2,10.7-3.5c8-5.9,9.7-17.1,3.8-25.1
		c-1.2-1.6-1.2-3.9,0-5.5c0.7-1,1.8-1.6,3-1.8c1.2-0.2,2.4,0.1,3.4,0.9c0.5,0.4,0.9,0.7,1.4,1.1c-1.7-7.3-5.2-14.6-9.9-17.8
		c-1.7-1.1-2.4-3.2-1.8-5.2c0.7-2.4,3.3-3.8,5.8-3.1c14.3,4.3,29.6,17.6,29.6,42.1V50C97.9,75.8,76.9,96,50,96C50,96,50,96,50,96z
		 M13.7,14.4c-2.3,3.4-2.8,7.7-1.1,11.6l0.5,1.2l-0.6,1.2c-5.3,10-6.3,21.5-3,32.3c3.4,10.8,10.7,19.7,20.8,24.9
		c6.1,3.2,12.9,4.9,19.7,4.9c0,0,0,0,0,0c23.8,0,42.4-17.8,42.4-40.5v-3.8C92.4,27.3,82,16,71,11c5.8,6.4,9.1,17.1,9.8,26
		c0.1,1.5-0.8,2.9-2.2,3.4c-1.4,0.5-3-0.1-3.9-1.3c-0.3-0.5-0.7-1-1.1-1.5c3.8,9.7,0.9,21.1-7.9,27.5c-4,2.9-8.9,4.6-13.9,4.6
		c-1.6,0.1-3.1-0.1-4.7-0.4c-1.3-0.3-2.4-1.2-2.9-2.4c-0.5-1.2-0.5-2.6,0.2-3.7c0.3-0.6,0.6-1.2,0.9-1.9c0.6-1.4,1.3-2.9,2.5-4.2
		c1.1-1.3,2.5-2,3.7-2.7c0.6-0.3,1.1-0.6,1.6-1c0.3-0.3,0.7-0.5,1-0.8c0.9-0.8,2-1.7,3.5-2.2c0,0,0.1,0,0.1,0
		c-0.7-0.3-1.6-0.4-2.4-0.5c-1.5-0.1-2.5,0-3.3,0.3c-0.6,0.2-1.2,0.7-1.9,1.1c-0.4,0.3-0.8,0.5-1.2,0.8c-2.5,1.6-4.9,1.6-7.1,1.6
		l-0.5,0l-1.1,0c-1.6,0-3.3,0-4.9-0.1c-1.4-0.1-4.4-0.3-6.1-2.3c-0.8-1-1.2-2.2-1-3.5c0.2-1.9,1.2-3.7,2.8-4.8
		c0.1-0.1,0.2-0.2,0.4-0.3c1.3-0.9,2.9-1.3,4.8-1.2c0-0.1,0.1-0.2,0.1-0.3c0.7-2.7,2.3-4.9,4.3-6.3l4.4-2.9h-0.9
		c-5.6,0-9-1.3-10.1-3.9c-1.4-3.4,1.6-8,3.9-10.6c-3,0.9-5.6,2.9-7.3,5.6l-0.9,1.4l-1.7-0.2c-2.6-0.2-5.3-0.2-7.9,0.1l-1.4,0.2
		l-1-1.1c-0.8-0.8-1.4-1.8-1.9-2.8C15,18.8,14.2,16.6,13.7,14.4z M69.5,33.5C69.5,33.5,69.5,33.5,69.5,33.5
		C69.5,33.5,69.5,33.5,69.5,33.5z M70.7,32.3C70.7,32.3,70.7,32.3,70.7,32.3C70.7,32.3,70.7,32.3,70.7,32.3z M67.4,7.9
		C67.4,7.9,67.4,7.9,67.4,7.9C67.4,7.9,67.4,7.9,67.4,7.9z"/>
</g>
</svg>
