<svg enable-background="new 0 0 100 100" viewBox="0 0 100 100" xmlns="http://www.w3.org/2000/svg"><path d="m40.4 48.4h6.8v6.8c0 1.5 1.2 2.8 2.8 2.8s2.8-1.2 2.8-2.8v-6.8h6.8c1.5 0 2.8-1.2 2.8-2.8s-1.2-2.8-2.8-2.8h-6.8v-6.8c0-1.5-1.2-2.8-2.8-2.8s-2.8 1.2-2.8 2.8v6.8h-6.8c-1.5 0-2.8 1.2-2.8 2.8s1.2 2.8 2.8 2.8z"/><path d="m93.4 23h-25.7v-6.4c0-5.2-4.2-9.4-9.4-9.4h-16.8c-5.2 0-9.5 4.2-9.5 9.4v6.4h-25.4c-2.6 0-4.8 2.1-4.8 4.8v23.9c0 2.8 1.3 5.2 3.3 6.8v29.6c0 2.6 2.1 4.8 4.8 4.8h79.8c2.6 0 4.8-2.1 4.8-4.8v-29.4c2.2-1.6 3.6-4.2 3.6-7.1v-23.9c0-2.6-2.1-4.7-4.7-4.7zm-55.9-6.4c0-2.2 1.8-3.9 4-3.9h16.8c2.2 0 3.9 1.8 3.9 3.9v6.4h-24.7zm-30.1 11.9h24.6 35.7 24.9v23.1c0 1.5-1.1 2.9-2.5 3.2-1.6.2-2.8.5-3.9.8l-23.9 6.7c-8.1 2.3-16.7 2.3-24.8 0l-23.9-6.7c-1.1-.3-2.2-.5-3.2-.7h-.4c-1.6-.3-2.6-1.6-2.6-3.2zm3.3 58.8v-26.7c.5.1 1 .2 1.4.3l23.9 6.7c4.5 1.3 9.2 1.9 13.9 1.9s9.3-.6 13.9-1.9l23.9-6.7c.4-.1.8-.2 1.3-.3v26.7z"/></svg>