<?xml version="1.0" encoding="utf-8"?>
<!-- Generator: Adobe Illustrator 22.0.1, SVG Export Plug-In . SVG Version: 6.00 Build 0)  -->
<svg version="1.1" id="Layer_1" xmlns="http://www.w3.org/2000/svg" xmlns:xlink="http://www.w3.org/1999/xlink" x="0px" y="0px"
	 viewBox="0 0 100 100" style="enable-background:new 0 0 100 100;" xml:space="preserve">
<path d="M99.7,37.6c-0.4-1.5-1.9-2.3-3.4-2c-9.9,2.6-27,4.1-45.7,4.1c-19.4,0-37.3-1.7-46.8-4.4c-1.5-0.4-3,0.4-3.4,1.9
	c-0.3,1.2,0.2,2.4,1.2,3.1l7.6,19.4c0.5,1.3,1.7,2.2,3,2.4c0.2,0,0.4,0,0.5,0c1.2,0,2.3-0.5,3.1-1.5l12.6-16.1
	c2.6,0.2,5.4,0.4,8.2,0.5l10,17.8c0.7,1.2,2,1.9,3.4,1.9c0,0,0,0,0,0c1.4,0,2.7-0.7,3.3-1.9l10.2-17.7c2.8-0.1,5.6-0.3,8.3-0.4
	l12.5,16c0.7,0.9,1.9,1.5,3.1,1.5c0.2,0,0.4,0,0.6,0c1.4-0.2,2.5-1.1,3-2.4l7.5-19C99.4,40.2,100,38.9,99.7,37.6z M13.2,55.1
	l-5.1-13c3.9,0.8,8.6,1.4,13.7,1.9L13.2,55.1z M49.9,57.6L43,45.2c2.5,0.1,5,0.1,7.6,0.1c2.2,0,4.3,0,6.4-0.1L49.9,57.6z M86.8,55
	l-8.5-10.9c5-0.5,9.6-1.1,13.5-1.8L86.8,55z"/>
</svg>
