<?xml version="1.0" encoding="utf-8"?>
<!-- Generator: Adobe Illustrator 22.0.1, SVG Export Plug-In . SVG Version: 6.00 Build 0)  -->
<svg version="1.1" id="Layer_2_1_" xmlns="http://www.w3.org/2000/svg" xmlns:xlink="http://www.w3.org/1999/xlink" x="0px" y="0px"
	 viewBox="0 0 100 100" style="enable-background:new 0 0 100 100;" xml:space="preserve">
<path d="M76.7,52c0-0.1-0.1-0.3-0.1-0.4c0,0,0,0,0,0l-5.4-12.5c-0.1-0.3-0.1-0.5,0-0.8l5.4-12.5c0.1-0.2,0.1-0.4,0.2-0.6
	c0-0.2,0-0.3,0-0.5c0,0,0,0,0,0c0,0,0,0,0,0c0-0.2,0-0.3,0-0.5c0-0.1,0-0.1-0.1-0.2c0-0.1-0.1-0.2-0.1-0.3c0-0.1-0.1-0.1-0.1-0.2
	c-0.1-0.1-0.1-0.2-0.2-0.3c0,0-0.1-0.1-0.1-0.1c-0.1-0.1-0.2-0.2-0.3-0.3c0,0,0,0-0.1-0.1c-0.1-0.1-0.2-0.2-0.3-0.3c0,0,0,0,0,0
	c-0.1-0.1-0.3-0.2-0.4-0.2c-0.4-0.2-0.7-0.2-1.1-0.2H54.3v-7c0-1.5-1.2-2.8-2.8-2.8H28.8l0-7.6c0-1.3-0.9-2.5-2.2-2.8
	c-1.8-0.3-3.3,1-3.3,2.7v7.8v33.5l0,49.8c0,1.3,0.9,2.5,2.2,2.8c1.8,0.3,3.3-1,3.3-2.7V45.7h17v5.3c0,2.5,2,4.5,4.5,4.5H74
	c0.6,0,1.1-0.2,1.6-0.5c0,0,0.1,0,0.1-0.1c0.1-0.1,0.2-0.2,0.3-0.3c0,0,0.1-0.1,0.1-0.1c0.1-0.1,0.2-0.2,0.2-0.3
	c0-0.1,0.1-0.1,0.1-0.2c0.1-0.1,0.1-0.2,0.2-0.3c0-0.1,0-0.1,0.1-0.2c0-0.1,0.1-0.2,0.1-0.3c0-0.1,0-0.3,0-0.4c0,0,0-0.1,0-0.1
	c0,0,0,0,0,0C76.7,52.4,76.7,52.2,76.7,52z M28.8,17.7h20v22.5h-20V17.7z M51.3,45.7h0.3c1.5,0,2.8-1.2,2.8-2.8V27.4h15.6l-4.7,10.9
	c-0.1,0.3-0.1,0.5,0,0.8l4.7,10.9H52.3c-0.6,0-1-0.4-1-1V45.7z"/>
</svg>
