<?xml version="1.0" encoding="utf-8"?>
<!-- Generator: Adobe Illustrator 22.0.1, SVG Export Plug-In . SVG Version: 6.00 Build 0)  -->
<svg version="1.1" id="Layer_1" xmlns="http://www.w3.org/2000/svg" xmlns:xlink="http://www.w3.org/1999/xlink" x="0px" y="0px"
	 viewBox="0 0 100 100" style="enable-background:new 0 0 100 100;" xml:space="preserve">
<path d="M79.5,33.9c-3.6,0-9.8,1.8-18.7,5.4c0,0-0.1-0.1-0.1-0.1c3.6-9,5.4-15.1,5.4-18.7c0-10.3-7.2-18.7-16.1-18.7
	s-16.1,8.4-16.1,18.7c0,3.6,1.8,9.7,5.4,18.7c0,0-0.1,0.1-0.1,0.1c-8.9-3.6-15.1-5.4-18.7-5.4C10.2,33.9,1.8,41.1,1.8,50
	s8.4,16.1,18.7,16.1c3.6,0,9.7-1.8,18.7-5.4c0,0,0.1,0.1,0.1,0.1c-3.6,9-5.4,15.1-5.4,18.7c0,10.3,7.2,18.7,16.1,18.7
	s16.1-8.4,16.1-18.7c0-3.6-1.8-9.7-5.4-18.7c0,0,0.1-0.1,0.1-0.1c8.9,3.6,15,5.4,18.7,5.4c10.3,0,18.7-7.2,18.7-16.1
	S89.8,33.9,79.5,33.9z M40.3,50c0-5.4,4.4-9.8,9.8-9.8s9.8,4.4,9.8,9.8s-4.4,9.8-9.8,9.8S40.3,55.4,40.3,50z M39.4,20.5
	c0-7.3,4.8-13.2,10.6-13.2c5.9,0,10.6,5.9,10.6,13.2c0,1.9-0.8,6.1-4.6,15.5c-1.9-0.8-3.9-1.3-6.1-1.3c-2.2,0-4.2,0.5-6.1,1.3
	C40,26.1,39.4,22.1,39.4,20.5z M20.5,60.6c-7.3,0-13.2-4.8-13.2-10.6c0-5.9,5.9-10.6,13.2-10.6c1.6,0,5.7,0.6,15.5,4.6
	c-0.8,1.9-1.3,3.9-1.3,6.1c0,2.2,0.5,4.2,1.3,6.1C26.2,60,22.1,60.6,20.5,60.6z M60.6,79.5c0,7.3-4.8,13.2-10.6,13.2
	c-5.9,0-10.6-5.9-10.6-13.2c0-1.6,0.6-5.6,4.6-15.5c1.9,0.8,3.9,1.3,6.1,1.3c2.2,0,4.2-0.5,6.1-1.3C59.8,73.4,60.6,77.6,60.6,79.5z
	 M79.5,60.6c-1.6,0-5.7-0.6-15.5-4.6c0.8-1.9,1.3-3.9,1.3-6.1c0-2.2-0.5-4.2-1.3-6.1c9.8-4,13.9-4.6,15.5-4.6
	c7.3,0,13.2,4.8,13.2,10.6C92.8,55.9,86.8,60.6,79.5,60.6z"/>
</svg>
