<?xml version="1.0" encoding="utf-8"?>
<!-- Generator: Adobe Illustrator 22.0.1, SVG Export Plug-In . SVG Version: 6.00 Build 0)  -->
<svg version="1.1" id="Layer_1" xmlns="http://www.w3.org/2000/svg" xmlns:xlink="http://www.w3.org/1999/xlink" x="0px" y="0px"
	 viewBox="0 0 100 100" style="enable-background:new 0 0 100 100;" xml:space="preserve">
<path d="M83.9,3.3c-1.5,0-2.8,1.2-2.8,2.8v39.7L19.4,3.9c-1.2-0.8-2.7-0.9-4-0.2c-1.3,0.7-2.1,2-2.1,3.4v85.8c0,1.4,0.8,2.7,2.1,3.4
	c0.6,0.3,1.2,0.5,1.8,0.5c0.8,0,1.5-0.2,2.2-0.7l61.8-41.8V94c0,1.5,1.2,2.8,2.8,2.8s2.8-1.2,2.8-2.8V6C86.6,4.5,85.4,3.3,83.9,3.3z
	 M18.9,89.8V10.2L77.7,50L18.9,89.8z"/>
</svg>
