<?xml version="1.0" encoding="utf-8"?>
<!-- Generator: Adobe Illustrator 22.0.1, SVG Export Plug-In . SVG Version: 6.00 Build 0)  -->
<svg version="1.1" id="Layer_2_1_" xmlns="http://www.w3.org/2000/svg" xmlns:xlink="http://www.w3.org/1999/xlink" x="0px" y="0px"
	 viewBox="0 0 100 100" style="enable-background:new 0 0 100 100;" xml:space="preserve">
<g>
	<path d="M28.5,3.3H7C4.9,3.3,3.3,4.9,3.3,7v21.4c0,1.5,1.2,2.8,2.8,2.8s2.8-1.2,2.8-2.8V8.8h19.7c1.5,0,2.8-1.2,2.8-2.8
		S30,3.3,28.5,3.3z"/>
	<path d="M93,3.3H71.5c-1.5,0-2.8,1.2-2.8,2.8s1.2,2.8,2.8,2.8h19.7v19.7c0,1.5,1.2,2.8,2.8,2.8s2.8-1.2,2.8-2.8V7
		C96.8,4.9,95.1,3.3,93,3.3z"/>
	<path d="M94,68.8c-1.5,0-2.8,1.2-2.8,2.8v19.7H71.5c-1.5,0-2.8,1.2-2.8,2.8s1.2,2.8,2.8,2.8H93c2.1,0,3.8-1.7,3.8-3.8V71.5
		C96.8,70,95.5,68.8,94,68.8z"/>
	<path d="M28.5,91.3H8.8V71.5c0-1.5-1.2-2.8-2.8-2.8S3.3,70,3.3,71.5V93c0,2.1,1.7,3.8,3.8,3.8h21.4c1.5,0,2.8-1.2,2.8-2.8
		S30,91.3,28.5,91.3z"/>
</g>
</svg>
