<svg enable-background="new 0 0 100 100" viewBox="0 0 100 100" xmlns="http://www.w3.org/2000/svg"><path d="m59.2 31.5v-1.2c0-3.5-2.9-6.4-6.4-6.4h-13.9l1.8-10c.1-.4.5-.8.9-.8h15.6c1.5 0 2.8-1.2 2.8-2.8s-1.2-2.8-2.8-2.8h-15.6c-3.1 0-5.8 2.2-6.3 5.3l-2 11h-24.5c-3.5 0-6.4 2.9-6.4 6.4v1.2c0 3.3 2.5 6 5.7 6.3l2.4 45.4c.3 5.1 4.5 9.2 9.7 9.2h21.3c5.1 0 9.4-4 9.7-9.2l2.4-45.4c3.1-.2 5.6-2.9 5.6-6.2zm-17.8 55.4h-21.3c-2.2 0-4-1.7-4.2-3.9l-2.4-45.1h34.5l-2.4 45.1c-.1 2.2-1.9 3.9-4.2 3.9zm12.3-55.4c0 .5-.4.9-.9.9h-44c-.5 0-.9-.4-.9-.9v-1.2c0-.5.4-.9.9-.9h26.8.1.1 17.1c.5 0 .9.4.9.9v1.2z"/><path d="m87.9 57.1c-1.8-.3-3.5-.1-5.2.4l1.5-3.4c.6-1.4 0-3-1.4-3.6s-3 0-3.6 1.4l-3.3 7.5s-.1 0-.1-.1c-2.5-1.9-5.6-2.7-8.7-2.2-6.3 1-10.6 7.1-9.6 13.5 1.5 9.9 4.4 16.5 8.6 19.5 2.3 1.6 4.8 2.2 7.7 1.8 1.4-.2 2.6-.7 3.7-1.5 1 .8 2.3 1.3 3.7 1.5.6.1 1.2.1 1.8.1 2.1 0 4.1-.6 5.9-1.9 4.2-3.1 7.1-9.7 8.6-19.5 1-6.4-3.3-12.4-9.6-13.5zm4.2 12.7c-1.7 11-4.8 14.7-6.4 15.9-1.1.8-2.2 1-3.6.8-.9-.1-1.3-.5-1.6-.8-.8-.8-1.9-1.3-3-1.3s-2.2.5-3 1.3c-.3.3-.7.6-1.6.8-1.4.2-2.5 0-3.6-.8-1.7-1.2-4.8-4.9-6.4-15.9-.5-3.5 1.7-6.7 5.1-7.3 1.6-.3 3.2.2 4.5 1.1 1.5 1.1 3.2 1.7 4.9 1.7h.1.4c1.6-.1 3.2-.6 4.6-1.7 1.3-1 2.9-1.4 4.5-1.1 3.3.6 5.6 3.9 5.1 7.3z"/></svg>