<?xml version="1.0" encoding="utf-8"?>
<!-- Generator: Adobe Illustrator 21.0.2, SVG Export Plug-In . SVG Version: 6.00 Build 0)  -->
<svg version="1.1" id="Layer_2_1_" xmlns="http://www.w3.org/2000/svg" xmlns:xlink="http://www.w3.org/1999/xlink" x="0px" y="0px"
	 viewBox="0 0 100 100" style="enable-background:new 0 0 100 100;" xml:space="preserve">
<g>
	<path d="M40,97.3c-0.8,0-1.5-0.2-2.2-0.6c-1.3-0.8-2-2.1-2-3.6V40.7L10,9.5C9,8.1,8.8,6.4,9.6,5c0.7-1.4,2.2-2.3,3.9-2.3h73.2
		c1.7,0,3.2,1,3.9,2.6c0.7,1.5,0.4,3.2-0.6,4.4L64.5,40.5v39.2c0,0.8-0.2,2-1.4,3.1l-0.2,0.2l-0.2,0.2L42.2,96.7
		C41.5,97.1,40.8,97.3,40,97.3z M40.3,37.6c0.6,0.7,0.9,1.9,0.9,2.7v50.5L59,79.1V40.3c0-0.7,0-1.8,1-2.9L84,8.2H16.1L40.3,37.6
		L40.3,37.6z M36,41c0,0,0.1,0.1,0.1,0.2L36,41z"/>
</g>
</svg>
