<?xml version="1.0" encoding="utf-8"?>
<!-- Generator: Adobe Illustrator 21.0.2, SVG Export Plug-In . SVG Version: 6.00 Build 0)  -->
<svg version="1.1" id="Layer_1" xmlns="http://www.w3.org/2000/svg" xmlns:xlink="http://www.w3.org/1999/xlink" x="0px" y="0px"
	 viewBox="0 0 100 100" style="enable-background:new 0 0 100 100;" xml:space="preserve">
<g>
	<circle cx="39" cy="51.7" r="6.5"/>
	<path d="M93.2,5.4H46.8c-2.3,0-4,1.7-4,4v22.6h-36c-2.3,0-4,1.7-4,4.1v54.4c0,2.3,1.7,4.1,4,4.1h46.4c2.3,0,4-1.8,4-4.1V68h36
		c2.2,0,4-1.8,4-4V9.4C97.3,7.1,95.5,5.4,93.2,5.4z M48.3,10.9h43.5v26.8c-0.1,0.1-0.2,0.1-0.2,0.2c-0.3,0.2-0.6,0.4-0.9,0.6
		l-0.2,0.1c-1.5,1-2.9,2.3-4.3,3.5c-4.2,3.7-7,5.9-10.8,4.6c-0.8-0.4-1.6-1.1-2.6-1.9c-2.5-2.3-5.4-4.6-9-5.6
		c-2.1-0.6-4.2-0.7-6.5-0.2v-2.8c0-2.3-1.7-4.1-4-4.1h-5V10.9z M51.8,37.6v26.7c-0.5,0.3-1,0.6-1.5,1c-1.5,1-2.9,2.2-4.2,3.4
		c-4.2,3.7-7,5.9-10.8,4.6c-0.8-0.4-1.6-1.1-2.6-1.9c-2.5-2.3-5.4-4.6-8.9-5.6c-5.9-1.9-11.2,1.4-15.5,4.2V37.6H51.8z M8.3,89.1
		V76.5c0.9-0.6,1.9-1.1,2.8-1.7c3.8-2.5,7.5-4.8,11.1-3.6c2.4,0.7,4.5,2.3,6.9,4.5l0.1,0.1c1.3,1.1,2.4,1.9,3.8,2.6l0.3,0.1
		c1.5,0.6,2.9,0.8,4.3,0.8c5.1,0,9-3.5,12.2-6.4c0.7-0.6,1.4-1.2,2-1.7v18H8.3z M57.3,62.5V44.7c1.8-0.7,3.4-0.7,4.9-0.3
		c2.4,0.7,4.5,2.3,6.9,4.5l0.1,0.1c1.3,1.1,2.4,1.9,3.8,2.6l0.3,0.1c1.5,0.6,2.9,0.8,4.3,0.8c5.1,0,9-3.5,12.2-6.4
		c0.7-0.6,1.4-1.2,2-1.7v18.1H57.3z"/>
	<circle cx="79.1" cy="25" r="6.5"/>
</g>
</svg>
