<?xml version="1.0" encoding="utf-8"?>
<!-- Generator: Adobe Illustrator 21.0.2, SVG Export Plug-In . SVG Version: 6.00 Build 0)  -->
<svg version="1.1" id="Layer_1" xmlns="http://www.w3.org/2000/svg" xmlns:xlink="http://www.w3.org/1999/xlink" x="0px" y="0px"
	 viewBox="0 0 100 100" style="enable-background:new 0 0 100 100;" xml:space="preserve">
<g>
	<path d="M93.6,34.6c-2.9-3-7-4.7-11.1-4.7H52.8V12.8c0-1.5-1.2-2.8-2.8-2.8s-2.8,1.2-2.8,2.8v17.2H17.5c-8.6,0-15.6,7-15.6,15.6
		v28.7c0,8.6,7,15.7,15.6,15.7c8.1,0,14.7-6.1,15.6-13.9H67c0.8,7.9,7.5,14,15.6,14c8.6,0,15.5-7,15.5-15.6V45.6
		C98.2,41.5,96.6,37.6,93.6,34.6z M92.6,74.4c0,5.6-4.5,10.1-10,10.1c-5.6,0-10.2-4.6-10.2-10.1c0-2.2-1.7-3.9-3.8-3.9h-37
		c-2.2,0-3.9,1.7-3.9,3.9c0,5.5-4.6,10-10.1,10S7.4,79.8,7.4,74.3V45.6c0-5.6,4.6-10.1,10.1-10.1h65c2.7,0,5.3,1.1,7.2,3
		c1.9,1.9,2.9,4.4,2.9,7.1V74.4z"/>
	<path d="M34.1,50.7h-5.8v-5.6c0-1.5-1.2-2.8-2.8-2.8s-2.8,1.2-2.8,2.8v5.6h-5.6c-1.5,0-2.8,1.2-2.8,2.8s1.2,2.8,2.8,2.8h5.6V62
		c0,1.5,1.2,2.8,2.8,2.8s2.8-1.2,2.8-2.8v-5.8h5.8c1.5,0,2.8-1.2,2.8-2.8S35.7,50.7,34.1,50.7z"/>
	<path d="M81.1,53.4l4-4c1.1-1.1,1.1-2.8,0-3.9c-1.1-1.1-2.8-1.1-3.9,0l-4,4l-4-4c-1.1-1.1-2.8-1.1-3.9,0c-1.1,1.1-1.1,2.8,0,3.9
		l4,4l-4.1,4.1c-1.1,1.1-1.1,2.8,0,3.9c0.5,0.5,1.2,0.8,1.9,0.8s1.4-0.3,1.9-0.8l4.1-4.1l4.1,4.1c0.5,0.5,1.2,0.8,1.9,0.8
		s1.4-0.3,1.9-0.8c1.1-1.1,1.1-2.8,0-3.9L81.1,53.4z"/>
</g>
</svg>
