<?xml version="1.0" encoding="utf-8"?>
<!-- Generator: Adobe Illustrator 21.0.2, SVG Export Plug-In . SVG Version: 6.00 Build 0)  -->
<svg version="1.1" id="Layer_2_1_" xmlns="http://www.w3.org/2000/svg" xmlns:xlink="http://www.w3.org/1999/xlink" x="0px" y="0px"
	 viewBox="0 0 100 100" style="enable-background:new 0 0 100 100;" xml:space="preserve">
<path d="M87.2,28H71.3c5.3-1.6,9.9-4,11.2-7.7c1.3-3.4-0.1-7-4-10.7C74.2,5.5,69.8,4,65.4,5.2c-8,2.1-13.2,12.5-15.5,18.4
	c-2.3-5.9-7.5-16.3-15.5-18.4C29.9,4,25.5,5.5,21.2,9.6h0c-3.9,3.7-5.3,7.3-4,10.7c1.4,3.7,6,6.1,11.2,7.7H12.8
	C10.7,28,9,29.7,9,31.9v19c0,1.6,0.9,2.9,2.3,3.5v36.9c0,2.2,1.6,3.8,3.8,3.8h70c2.2,0,3.8-1.6,3.8-3.8v-37c1.3-0.6,2.2-1.9,2.2-3.5
	v-19C91,29.7,89.4,28,87.2,28z M85.5,49.2H85H52.9V33.5h32.7V49.2z M66.7,10.5c0.5-0.1,1-0.2,1.5-0.2c2,0,4.2,1.1,6.5,3.3
	c1.2,1.2,3.2,3.3,2.6,4.8c-1.3,3.4-11.8,6-22.3,6.9C57.4,19.7,61.6,11.9,66.7,10.5z M22.3,18.4c-0.6-1.5,1.4-3.6,2.6-4.8h0
	c2.9-2.7,5.5-3.7,8-3.1c5.1,1.3,9.4,9.2,11.7,14.8C34.2,24.4,23.6,21.8,22.3,18.4z M14.5,33.5h32.9v15.7H15.1h-0.6V33.5z M16.7,54.7
	h30.6v35H16.7V54.7z M83.4,89.7H52.9v-35h30.5V89.7z"/>
</svg>
