<?xml version="1.0" encoding="utf-8"?>
<!-- Generator: Adobe Illustrator 22.0.1, SVG Export Plug-In . SVG Version: 6.00 Build 0)  -->
<svg version="1.1" id="Layer_1" xmlns="http://www.w3.org/2000/svg" xmlns:xlink="http://www.w3.org/1999/xlink" x="0px" y="0px"
	 viewBox="0 0 100 100" style="enable-background:new 0 0 100 100;" xml:space="preserve">
<path d="M96.1,48.5L51.5,3.9c-0.8-0.8-2.1-0.8-2.9,0L36.3,16.1l11.4,11.4c0.9-0.4,1.9-0.6,2.9-0.6c4.2,0,7.5,3.4,7.5,7.5
	c0,1-0.2,2-0.6,2.9l9,9c0.9-0.4,1.9-0.6,2.9-0.6c4.2,0,7.5,3.4,7.5,7.5c0,4.2-3.4,7.5-7.5,7.5c-4.2,0-7.5-3.4-7.5-7.5
	c0-1,0.2-2,0.6-2.9l-9-9c0,0-0.1,0-0.1,0v17.3c2.8,1.1,4.7,3.8,4.7,7c0,4.2-3.4,7.5-7.5,7.5c-4.2,0-7.5-3.4-7.5-7.5
	c0-3.2,1.9-5.8,4.7-7V41.5c-2.8-1.1-4.7-3.8-4.7-7c0-1,0.2-2,0.6-2.9L32.3,20.1L3.9,48.5c-0.8,0.8-0.8,2.1,0,2.9l44.7,44.7
	c0.8,0.8,2.1,0.8,2.9,0l44.7-44.7C97,50.7,97,49.3,96.1,48.5z"/>
</svg>
