<?xml version="1.0" encoding="utf-8"?>
<!-- Generator: Adobe Illustrator 22.0.1, SVG Export Plug-In . SVG Version: 6.00 Build 0)  -->
<svg version="1.1" id="Layer_1" xmlns="http://www.w3.org/2000/svg" xmlns:xlink="http://www.w3.org/1999/xlink" x="0px" y="0px"
	 viewBox="0 0 100 100" style="enable-background:new 0 0 100 100;" xml:space="preserve">
<path d="M97.7,48.2C96.5,23.8,76.4,3.9,51.9,3c-13.1-0.5-25.6,4.2-35,13.3C7.4,25.4,2.2,37.6,2.2,50.7c0,21.6,14.5,40.5,35.3,46.1
	c0.5,0.1,1,0.2,1.5,0.2c1.3,0,2.5-0.4,3.5-1.2c1.4-1.1,2.3-2.8,2.3-4.6v-5.2c0-1.4,0.1-7.7,0.1-8.8c0.1-1,0.5-1.8,0.9-2.5l0.1-0.1
	c0.7-1,0.8-2.3,0.3-3.3c-0.5-1.1-1.5-1.8-2.6-2c-1.3-0.2-2.3-0.4-3.1-0.6l-0.1,0c-1.3-0.3-2.5-0.9-3.7-1.6c-1.2-0.6-2.1-1.5-2.9-2.4
	c-0.8-1-1.5-2.4-2-4c-0.6-1.8-0.8-3.8-0.8-6.1c0-3,1-5.5,2.9-7.6l1.2-1.3l-0.7-1.6c-0.7-1.6-0.8-3.5-0.2-5.5c0.3,0.1,0.6,0.2,1,0.3
	c1.1,0.5,2.7,1.1,3.4,1.6l0.5,0.3c0.6,0.3,1,0.6,1.3,0.8l1.1,0.8l1.3-0.3c2.6-0.7,5.4-1.1,8.2-1.1c2.8,0,5.5,0.4,8.2,1.1l1.2,0.3
	l2.8-1.7c1.1-0.7,2.4-1.3,3.7-1.8c0.3-0.1,0.6-0.2,0.9-0.3c0.5,2.1,0.5,3.9-0.2,5.6l-0.6,1.6l1.2,1.3c2,2.1,2.9,4.6,2.9,7.6
	c0,2.3-0.3,4.4-0.8,6.1c-0.6,1.8-1.2,3.1-2,4c-0.7,0.8-1.6,1.6-3,2.4c-1.3,0.7-2.5,1.2-3.7,1.6c-0.9,0.2-2,0.5-3.1,0.6l-0.1,0
	c-1.1,0.2-2.1,0.9-2.6,2c-0.5,1.1-0.4,2.3,0.3,3.3l0.1,0.1c0.7,0.9,1,2.2,1,4.1v12c0,1.8,0.9,3.5,2.3,4.6c1.5,1.1,3.4,1.4,5.1,0.9
	C85.1,89.8,98.8,70.1,97.7,48.2z M62.6,91.1c0,0-0.1,0-0.2,0c-0.1-0.1-0.1-0.2-0.1-0.2v-12c0-1.7-0.2-3.2-0.6-4.5
	c0.4-0.1,0.7-0.2,1-0.2c1.7-0.5,3.3-1.1,5-2.1c2-1.1,3.5-2.3,4.5-3.7c1.2-1.5,2.2-3.3,3-5.8c0.7-2.3,1.1-4.9,1.1-7.8
	c0-3.8-1.1-7.2-3.3-10.1c0.8-3,0.5-6.3-0.9-9.8l-0.5-1.3l-1.3-0.4c-1.5-0.4-3.2-0.2-5.5,0.6c-1.7,0.6-3.3,1.4-4.8,2.3l-0.8,0.5
	c-2.8-0.7-5.6-1-8.4-1s-5.7,0.3-8.4,1c-0.2-0.1-0.3-0.2-0.5-0.3l-0.5-0.3c-0.8-0.5-2.1-1.1-4.2-1.9c-2.4-1-4.2-1.2-5.8-0.7l-1.3,0.4
	l-0.5,1.3c-1.4,3.5-1.7,6.8-0.9,9.9c-2.2,2.9-3.3,6.3-3.3,10.1c0,3,0.4,5.5,1.1,7.7c0.7,2.3,1.6,4.2,2.9,5.8
	c1.2,1.5,2.7,2.8,4.5,3.8c1.6,0.9,3.2,1.6,4.9,2.1c0.3,0.1,0.7,0.2,1.1,0.3c-0.3,0.8-0.4,1.6-0.5,2.4l0,0.3c0,0,0,1.4,0,3.1
	c0,0.7-0.7,1.2-1.4,0.9c-3.3-1.3-6.1-3-8.4-5.4c-2-2.2-4.2-4.4-5.3-5c-2.3-1.1-3.7,1.2-3.3,2.4c0.5,1.6,2.8,2.5,4.1,3.8
	c1.4,1.5,1.7,3.4,2.8,5c1.6,2.3,7.2,5.2,11.5,4.8v4.6c0,0,0,0.1-0.1,0.2c-0.1,0.1-0.2,0.1-0.3,0h0c-18.4-5-31.2-21.8-31.2-40.8
	c0-11.6,4.6-22.4,13-30.5C28.6,12.6,39,8.4,50,8.4c0.6,0,1.1,0,1.7,0c21.6,0.8,39.4,18.4,40.5,40.1C93.2,67.8,81,85.3,62.6,91.1z"/>
</svg>
