<?xml version="1.0" encoding="utf-8"?>
<!-- Generator: Adobe Illustrator 21.0.0, SVG Export Plug-In . SVG Version: 6.00 Build 0)  -->
<svg version="1.1" id="Layer_1" xmlns="http://www.w3.org/2000/svg" xmlns:xlink="http://www.w3.org/1999/xlink" x="0px" y="0px"
	 viewBox="0 0 100 100" style="enable-background:new 0 0 100 100;" xml:space="preserve">
<path d="M93.1,45.9h-42v12.4h30C79.6,75.5,65.4,83,51.9,83c-17.3,0-32.6-13.5-32.6-33c0-18.8,14.6-33,32.6-33C65.8,17,74,26,74,26
	l8.6-9c0,0-11.3-12.4-31.1-12.4C25.6,4.6,5.7,26.4,5.7,50c0,22.9,18.8,45.4,46.5,45.4c24.4,0,42-16.5,42-41.3
	C93.9,48.9,93.1,45.9,93.1,45.9L93.1,45.9z"/>
</svg>
