<?xml version="1.0" encoding="utf-8"?>
<!-- Generator: Adobe Illustrator 22.0.1, SVG Export Plug-In . SVG Version: 6.00 Build 0)  -->
<svg version="1.1" id="Layer_1" xmlns="http://www.w3.org/2000/svg" xmlns:xlink="http://www.w3.org/1999/xlink" x="0px" y="0px"
	 viewBox="0 0 100 100" style="enable-background:new 0 0 100 100;" xml:space="preserve">
<g>
	<path d="M62.3,44.4H36c-1.1,0-2,0.9-2,2v8.2c0,1.1,0.9,2,2,2h15.3c-2.2,7.3-8.4,12.5-17.3,12.5c-11,0-20-9.4-19.1-20.6
		c0.7-10.2,9.7-18.2,19.9-17.8c3.9,0.1,7.5,1.5,10.5,3.6c0.8,0.6,1.9,0.5,2.6-0.2l6.1-6.1c0.8-0.8,0.8-2.3-0.2-3
		c-5.4-4.3-12.3-6.9-19.7-6.9C16.5,18.3,2.3,32.5,2.3,50.1S16.5,81.8,34,81.8c25.6,0,32-22.8,30.3-35.7
		C64.2,45.1,63.3,44.4,62.3,44.4z"/>
	<path d="M95,50.6h-6.9v-6.9c0-1.5-1.2-2.8-2.8-2.8s-2.8,1.2-2.8,2.8v6.9h-6.9c-1.5,0-2.8,1.2-2.8,2.8s1.2,2.8,2.8,2.8h6.9V63
		c0,1.5,1.2,2.8,2.8,2.8s2.8-1.2,2.8-2.8v-6.9H95c1.5,0,2.8-1.2,2.8-2.8S96.5,50.6,95,50.6z"/>
</g>
</svg>
