<?xml version="1.0" encoding="utf-8"?>
<!-- Generator: Adobe Illustrator 22.0.1, SVG Export Plug-In . SVG Version: 6.00 Build 0)  -->
<svg version="1.1" id="Layer_2_1_" xmlns="http://www.w3.org/2000/svg" xmlns:xlink="http://www.w3.org/1999/xlink" x="0px" y="0px"
	 viewBox="0 0 100 100" style="enable-background:new 0 0 100 100;" xml:space="preserve">
<path d="M92.4,55.1V40.3l0.3-0.1c0.8-0.4,1.6-1.1,1.9-2c0.6-1.7-0.3-3.4-1.8-4.1L51.5,15.9l-0.3-0.1c-1-0.3-2.1-0.3-3.1,0L5.8,34
	c-1.2,0.5-2,1.7-2,3s0.8,2.5,2,3l13.9,6.1v20.6c0,9.8,7.9,17.7,17.7,17.7h23.7c9.8,0,17.7-7.9,17.7-17.7V46.5l0.9-0.4l7.2-3.2v12.3
	l-3.6,3.6c-0.2,0.2-0.2,0.5,0,0.7l6,6c0.2,0.2,0.5,0.2,0.7,0l6-6c0.2-0.2,0.2-0.5,0-0.7L92.4,55.1z M73.4,66.7
	c0,6.7-5.5,12.2-12.2,12.2H37.4c-6.7,0-12.2-5.5-12.2-12.2V48.5l22.6,9.9l0.3,0.1c0.5,0.2,1,0.2,1.6,0.2c0.5,0,1.1-0.1,1.6-0.2
	l22.1-9.7V66.7z M77.5,41.1L49.7,53.3L19.4,39.9L12.6,37l36.9-15.9l36.5,16.1L77.5,41.1z"/>
</svg>
