<?xml version="1.0" encoding="utf-8"?>
<!-- Generator: Adobe Illustrator 22.0.1, SVG Export Plug-In . SVG Version: 6.00 Build 0)  -->
<svg version="1.1" id="Layer_1" xmlns="http://www.w3.org/2000/svg" xmlns:xlink="http://www.w3.org/1999/xlink" x="0px" y="0px"
	 viewBox="0 0 100 100" style="enable-background:new 0 0 100 100;" xml:space="preserve">
<path d="M96,52.8c1.5,0,2.8-1.2,2.8-2.8s-1.2-2.8-2.8-2.8h-9.7V19.2H96c1.5,0,2.8-1.2,2.8-2.8s-1.2-2.8-2.8-2.8h-9.7V4
	c0-1.5-1.2-2.8-2.8-2.8S80.8,2.5,80.8,4v9.7H52.8V4c0-1.5-1.2-2.8-2.8-2.8S47.3,2.5,47.3,4v9.7H19.2V4c0-1.5-1.2-2.8-2.8-2.8
	S13.7,2.5,13.7,4v9.7H4c-1.5,0-2.8,1.2-2.8,2.8s1.2,2.8,2.8,2.8h9.7v28.1H4c-1.5,0-2.8,1.2-2.8,2.8s1.2,2.8,2.8,2.8h9.7v28.1H4
	c-1.5,0-2.8,1.2-2.8,2.8s1.2,2.8,2.8,2.8h9.7V96c0,1.5,1.2,2.8,2.8,2.8s2.8-1.2,2.8-2.8v-9.7h28.1V96c0,1.5,1.2,2.8,2.8,2.8
	s2.8-1.2,2.8-2.8v-9.7h28.1V96c0,1.5,1.2,2.8,2.8,2.8s2.8-1.2,2.8-2.8v-9.7H96c1.5,0,2.8-1.2,2.8-2.8s-1.2-2.8-2.8-2.8h-9.7V52.8H96
	z M80.8,19.2v28.1H52.8V19.2H80.8z M19.2,19.2h28.1v28.1H19.2V19.2z M19.2,80.8V52.8h28.1v28.1H19.2z M80.8,80.8H52.8V52.8h28.1
	V80.8z"/>
</svg>
