<?xml version="1.0" encoding="utf-8"?>
<!-- Generator: Adobe Illustrator 22.0.1, SVG Export Plug-In . SVG Version: 6.00 Build 0)  -->
<svg version="1.1" id="Layer_1" xmlns="http://www.w3.org/2000/svg" xmlns:xlink="http://www.w3.org/1999/xlink" x="0px" y="0px"
	 viewBox="0 0 100 100" style="enable-background:new 0 0 100 100;" xml:space="preserve">
<g>
	<path d="M9.1,42.4h26.6c3.6,0,6.5-2.9,6.5-6.5V9.3c0-3.6-2.9-6.5-6.5-6.5H9.1c-3.6,0-6.6,2.9-6.6,6.5v26.5
		C2.5,39.4,5.5,42.4,9.1,42.4z M8,9.3c0-0.6,0.5-1,1.1-1h26.6c0.6,0,1,0.5,1,1v26.6c0,0.4-0.4,1-1,1H9.1c-0.6,0-1.1-0.5-1.1-1.1V9.3
		z"/>
	<path d="M64.1,42.4h26.5c3.5,0,6.5-2.8,6.6-6.3l0-26.7c0-3.6-2.9-6.5-6.5-6.5H64.1c-3.6,0-6.5,2.9-6.5,6.5v26.5
		C57.5,39.4,60.5,42.4,64.1,42.4z M63,9.3c0-0.6,0.5-1,1-1h26.6c0.6,0,1,0.5,1,1v26.5c-0.1,0.5-0.5,1-1.2,1H64.1c-0.6,0-1-0.5-1-1.1
		V9.3z"/>
	<path d="M35.9,57.7H9.3c-3.6,0-6.5,2.9-6.5,6.5v26.5c0,3.6,2.9,6.5,6.5,6.5h26.5c3.5,0,6.5-2.8,6.6-6.3l0-26.7
		C42.5,60.6,39.5,57.7,35.9,57.7z M37,90.7c-0.1,0.5-0.5,1-1.2,1H9.3c-0.6,0-1-0.5-1-1V64.2c0-0.6,0.5-1,1-1h26.6
		c0.6,0,1.1,0.5,1.1,1V90.7z"/>
	<path d="M90.8,57.7H64.2c-3.6,0-6.5,2.9-6.5,6.5v26.5c0,3.6,2.9,6.5,6.5,6.5h26.6c3.4,0,6.4-2.8,6.5-6.3l0-26.7
		C97.3,60.6,94.4,57.7,90.8,57.7z M91.8,90.7c-0.1,0.5-0.6,1-1,1H64.2c-0.6,0-1-0.5-1-1V64.2c0-0.6,0.5-1,1-1h26.6c0.6,0,1,0.5,1,1
		V90.7z"/>
</g>
</svg>
