<?xml version="1.0" encoding="utf-8"?>
<!-- Generator: Adobe Illustrator 21.0.2, SVG Export Plug-In . SVG Version: 6.00 Build 0)  -->
<svg version="1.1" id="Layer_1" xmlns="http://www.w3.org/2000/svg" xmlns:xlink="http://www.w3.org/1999/xlink" x="0px" y="0px"
	 viewBox="0 0 100 100" style="enable-background:new 0 0 100 100;" xml:space="preserve">
<g>
	<path d="M85.8,58.5l-23.4,6c0.1-0.5,0.1-1,0.1-1.6c0-5.1-4.1-9.3-9.3-9.3H34.2c-1.1-3.1-4-5.3-7.5-5.3H9.4c-4.4,0-7.9,3.6-7.9,8v22
		c0,4.4,3.6,7.9,7.9,7.9h17.4c2.1,0,4.2-0.9,5.7-2.4c0,0,0.1-0.1,0.1-0.1l2.4,1.2c4.6,2.4,9.7,3.6,14.8,3.6c3,0,6.1-0.4,9.1-1.3
		l6.2-1.8c0,0,0,0,0,0l26.1-7.5c2.6-0.7,4.8-2.4,6.1-4.8c1.3-2.4,1.6-5.3,0.8-8C96.4,60.1,91,57.2,85.8,58.5z M28.6,80.1
		c-0.5,0.5-1.1,0.7-1.7,0.7H9.4c-1.4,0-2.4-1.1-2.4-2.4v-22c0-1.4,1.1-2.5,2.4-2.5h17.3c1.4,0,2.4,1.1,2.4,2.5l0,22.1
		C29.2,79.1,29,79.7,28.6,80.1z M92.4,70.6c-0.6,1.1-1.6,1.8-2.7,2.2l-7.2,2.1l0-0.1l-25.1,7.3c-6.7,1.9-13.7,1.2-19.8-1.9l-2.9-1.5
		c0-0.1,0-0.2,0-0.3V59.2h18.6c2.1,0,3.8,1.7,3.8,3.8c0,3.1-2.5,5.5-5.5,5.5h-5.7c-1.5,0-2.8,1.2-2.8,2.8s1.2,2.8,2.8,2.8h5.7
		c2.9,0,5.5-1.1,7.4-2.9l28.3-7.3c2.4-0.6,4.8,0.7,5.6,3C93.2,68.2,93,69.5,92.4,70.6z"/>
	<path d="M68.1,29.8c0.9,0,1.8,0,2.5-0.1V50c0,1.5,1.2,2.8,2.8,2.8s2.8-1.2,2.8-2.8V37.2c0.7,0,1.5,0.1,2.3,0.1
		c4.6,0,11.2-0.9,15.6-5.3v0c7.1-7.1,5-20.1,4.9-20.7l-0.3-1.9l-1.9-0.3C96.2,9,83.1,6.9,76,14c-0.4,0.4-0.7,0.7-1,1.1
		C74.3,12,73,8.9,70.5,6.5v0c-7.1-7.1-20.1-5-20.7-4.9L47.9,2l-0.3,1.9c-0.1,0.6-2.2,13.6,4.9,20.7C56.9,29,63.6,29.8,68.1,29.8z
		 M79.9,17.9c3.7-3.7,10.5-3.8,13.9-3.6c0.3,3.8-0.1,10.3-3.6,13.8c-3.7,3.7-10.5,3.8-13.9,3.6C76.1,27.9,76.4,21.4,79.9,17.9z
		 M52.8,6.8c3.8-0.3,10.3,0.1,13.8,3.6c3.7,3.7,3.8,10.5,3.6,13.8c-3.4,0.2-10.1,0.2-13.8-3.6C52.7,16.9,52.6,10.2,52.8,6.8z"/>
</g>
</svg>
