<?xml version="1.0" encoding="utf-8"?>
<!-- Generator: Adobe Illustrator 21.0.2, SVG Export Plug-In . SVG Version: 6.00 Build 0)  -->
<svg version="1.1" id="Layer_2_1_" xmlns="http://www.w3.org/2000/svg" xmlns:xlink="http://www.w3.org/1999/xlink" x="0px" y="0px"
	 viewBox="0 0 100 100" style="enable-background:new 0 0 100 100;" xml:space="preserve">
<path d="M87.2,10.1l-9.7-7.4c-1-0.9-2.3-1-3-1H15.7c-2.6,0-4.8,2.1-4.8,4.8v15c0,2.6,2.1,4.8,4.8,4.8h26v25.9H35c-1.1,0-2,0.9-2,2
	v42.2c0,1.1,0.9,2,2,2h19c1.1,0,2-0.9,2-2V54.1c0-1.1-0.9-2-2-2h-6.8V26.2h27.4c0.9,0,1.9-0.3,2.7-0.9l10-7.6
	c1.1-0.9,1.8-2.3,1.8-3.7C89.1,12.4,88.4,11.1,87.2,10.1z M74.3,20.7H16.4V7.2h57.9l8.8,6.7L74.3,20.7z"/>
</svg>
