<?xml version="1.0" encoding="utf-8"?>
<!-- Generator: Adobe Illustrator 22.0.1, SVG Export Plug-In . SVG Version: 6.00 Build 0)  -->
<svg version="1.1" id="Layer_2_1_" xmlns="http://www.w3.org/2000/svg" xmlns:xlink="http://www.w3.org/1999/xlink" x="0px" y="0px"
	 viewBox="0 0 100 100" style="enable-background:new 0 0 100 100;" xml:space="preserve">
<path d="M87,19.5c-1.8-1.8-4.1-2.7-6.6-2.7c-1.4,0-2.7,0.3-3.8,0.8v-1c0-2.5-1-4.8-2.7-6.6c-1.8-1.8-4.1-2.7-6.6-2.7
	c-1.7,0-3.3,0.5-4.6,1.2c-0.5-0.9-1.1-1.8-1.8-2.6c-1.8-1.8-4.1-2.7-6.6-2.7c-4.5,0-8.2,3.2-9.1,7.4c-1.4-0.7-3.1-1-4.7-0.9l-0.1,0
	c-4.8,0.4-8.5,4.6-8.5,9.5v22.2c-1.4-3.4-3.2-6.9-6.5-9.3c-1.4-1-6.4-4.3-11.3-3L13.6,29c-1.4,0.5-2.6,1.5-3.1,2.8L10.5,32
	c-0.3,0.8-0.3,1.7-0.1,2.6c0.6,4.1,2.3,7.6,3.9,11c0.3,0.7,0.6,1.3,1,2.1c1.4,2.9,2.3,5.9,3.2,9c0.2,0.7,0.4,1.4,0.6,2.1
	c0.8,2.6,1.6,5.2,2.4,7.9c0.8,2.6,1.6,5.2,2.4,7.9l0.1,0.2c5.5,13.5,18.4,22.2,32.9,22.2c0.1,0,0.2,0,0.3,0
	c18,0,32.6-14.6,32.6-32.6V26C89.7,23.6,88.8,21.2,87,19.5z M84.2,64.2c0,15-12.2,27.1-27.2,27.1c-0.1,0-0.2,0-0.2,0
	c-12.2,0-23.1-7.3-27.8-18.7c-0.8-2.6-1.6-5.2-2.3-7.7c-0.8-2.6-1.6-5.2-2.4-7.9c-0.2-0.7-0.4-1.3-0.6-2c-1-3.2-1.9-6.5-3.5-9.8
	c-0.3-0.7-0.6-1.4-1-2.1c-1.4-3-2.8-5.9-3.3-9c1.9-0.1,4.3,1,6.1,2.3c2.6,1.8,3.9,5.1,5.3,8.5c0.3,0.8,0.6,1.6,1,2.4
	c1.9,4.9,3.6,5.6,4.2,5.9c0.9,0.4,1.9,0.3,2.8-0.1c2.3-1.2,2.1-4.2,2-6.4c0-0.2,0-0.4,0-0.5V19.1c0-2.1,1.5-3.8,3.5-4.1
	c1.2,0,2.2,0.4,3,1.1c0.5,0.5,1.1,1.4,1.1,2.7v27.9V47c0,1.5,1.2,2.8,2.8,2.8s2.8-1.2,2.8-2.8v-0.1V18.9v-6.5c0-2.1,1.7-3.8,3.8-3.8
	c1.3,0,2.2,0.6,2.7,1.1c0.5,0.5,1.1,1.4,1.1,2.7v4.1c0,11.7,0,29.4-0.1,31c-0.1,1.3,0.6,2.5,1.9,2.9c0.3,0.1,0.6,0.1,0.9,0.1
	c0,0,0,0,0,0h0.1v0c1.1,0,2.1-0.8,2.5-1.9c0.2-0.6,0.3-0.7,0.3-32.2c0-2.2,1.6-3.8,3.7-3.8c1.3,0,2.2,0.6,2.7,1.1
	c0.5,0.5,1.1,1.4,1.1,2.7v30.3c0,1.5,1.2,2.8,2.8,2.8s2.8-1.2,2.8-2.8V26c0-2.1,1.7-3.8,3.8-3.8c1.3,0,2.2,0.6,2.7,1.1
	c0.5,0.5,1.1,1.4,1.1,2.7V64.2z"/>
</svg>
