<?xml version="1.0" encoding="utf-8"?>
<!-- Generator: Adobe Illustrator 22.0.1, SVG Export Plug-In . SVG Version: 6.00 Build 0)  -->
<svg version="1.1" id="Layer_1" xmlns="http://www.w3.org/2000/svg" xmlns:xlink="http://www.w3.org/1999/xlink" x="0px" y="0px"
	 viewBox="0 0 100 100" style="enable-background:new 0 0 100 100;" xml:space="preserve">
<path d="M96.5,57.6H85.7c-0.4,0-0.7-0.3-0.7-0.7v-1.6l0,0V31.5v-2.8v-1.6c0-0.4,0.3-0.7,0.7-0.7h10.8c1.5,0,2.8-1.2,2.8-2.8
	S98,21,96.5,21H85.7c-3,0-5.5,2.2-6.1,5H63.7l-7.4-5.1c-2.1-1.4-4.5-2.2-7-2.2h-7.6c-3,0-5.9,0.9-8.4,2.7L26.8,26
	c-1.1,0.7-1.9,1.7-2.6,2.8h-5.5v-4.2c0-2-1.5-3.6-3.4-3.6H3.5c-1.5,0-2.8,1.2-2.8,2.8s1.2,2.8,2.8,2.8h9.7v31.3H3.5
	c-1.5,0-2.8,1.2-2.8,2.8s1.2,2.8,2.8,2.8h11.8c1.9,0,3.4-1.6,3.4-3.6v-4.5h0.8c-0.1,0.5-0.1,1-0.2,1.5c0,0.1,0,0.2,0,0.3v0.1v0.1
	c0,0,0,0,0,0.1v0.1c0.1,3.1,1.3,5.1,3.5,5.9c0.2,0.2,0.3,0.4,0.5,0.6c0.8,0.8,1.7,1.5,2.7,1.9c0.2,1.8,0.9,3.4,2.2,4.7
	c1.5,1.6,3.5,2.5,5.7,2.6c0.3,0,0.5,0,0.8,0c0.3,0.5,0.7,1,1.1,1.5c1.5,1.6,3.5,2.5,5.7,2.6c0.1,0,0.2,0,0.4,0
	c0.3,0.6,0.7,1.2,1.2,1.7c1.5,1.6,3.5,2.5,5.7,2.6h0.3c2.1,0,4.1-0.8,5.6-2.2L77.4,58h2.1c0.6,2.9,3.1,5,6.1,5h10.8
	c1.5,0,2.8-1.2,2.8-2.8S98,57.6,96.5,57.6z M19.7,34.3h1c0,0,0.2,0,0.3,0c1.7,0.2,6.4,0.7,7.4-1.1c0.1-0.2,0.2-0.5,0.2-0.7
	c0.2-0.8,0.7-1.6,1.4-2.1l6.6-4.7c1.5-1.1,3.3-1.7,5.2-1.7h7.6c1.4,0,2.7,0.4,3.8,1.2l11,7.6c0.6,0.4,0.7,1,0.8,1.3
	c0,0.3,0,0.9-0.5,1.4l-0.9,1c-2.6,3-3.4,2.5-5.3,1.2l-8-5.3H50c-1.6-0.9-3.5-0.7-4.8,0.5C44.4,33.6,31.7,45,24.7,51.4
	c-0.1-0.2-0.2-0.3-0.3-0.5c-0.7-0.8-1.6-1.2-2.6-1.2h-2V34.3H19.7z M50.9,75.1c-0.5,0.5-1.1,0.7-1.8,0.7H49c-0.7,0-1.4-0.3-1.9-0.9
	c-0.4-0.4-0.6-0.9-0.7-1.4l-0.3-2.1c-0.1-0.6-0.7-1-1.3-0.8l-2,0.8c-0.3,0.1-0.7,0.2-1,0.2c-0.7,0-1.4-0.3-1.9-0.9
	c-0.4-0.4-0.6-0.9-0.7-1.4l-0.4-2.2c-0.1-0.6-0.8-1-1.4-0.7l-2.1,0.9c-0.4,0.2-0.8,0.2-1.2,0.2c-0.7,0-1.4-0.3-1.9-0.9
	c-0.5-0.5-0.8-1.2-0.7-1.9c0-0.2,0.5-2.4,0.5-2.4c0.1-0.6-0.3-1.2-0.9-1.2l-2-0.2c-0.7-0.1-1.3-0.4-1.7-0.8
	c-0.2-0.2-1.9-1.8-1.9-1.8c4.7-4.4,19-17.2,22.5-20.4l7.2,4.8c3.3,2.2,7.4,3.7,12.4-2.1l0.8-0.8c0.7-0.7,1.3-1.6,1.6-2.5
	c0.7-2,0.6-3.9-0.2-5.6h9.6v21h-4.1L50.9,75.1z"/>
</svg>
