<?xml version="1.0" encoding="utf-8"?>
<!-- Generator: Adobe Illustrator 21.0.2, SVG Export Plug-In . SVG Version: 6.00 Build 0)  -->
<svg version="1.1" id="Layer_2_1_" xmlns="http://www.w3.org/2000/svg" xmlns:xlink="http://www.w3.org/1999/xlink" x="0px" y="0px"
	 viewBox="0 0 100 100" style="enable-background:new 0 0 100 100;" xml:space="preserve">
<g>
	<path d="M31.3,74c-0.5,0.5-0.7,1.1-1,1.9c-0.7,2.7,0.7,5.6,3.4,6.3c2.7,0.9,5.5-0.7,6.3-3.4l7.1-23.2L31.3,74z"/>
	<circle cx="70.5" cy="80.3" r="2.9"/>
	<circle cx="50.2" cy="48.6" r="3.5"/>
	<path d="M80.5,5.8h-61c-2.6,0-4.8,2.1-4.8,4.8v79c0,2.6,2.1,4.8,4.8,4.8h61c2.6,0,4.8-2.1,4.8-4.8v-79C85.3,7.9,83.1,5.8,80.5,5.8z
		 M79.8,88.8H20.3V11.3h59.5V88.8z"/>
	<path d="M39.9,59.7c-3.1-2.8-4.8-6.9-4.8-11.1c0-8.3,6.8-15.1,15.1-15.1s15.1,6.8,15.1,15.1c0,8.3-6.8,15.1-15.1,15.1
		c-0.9,0-1.8-0.1-2.6-0.2l-1,5.4c1.2,0.2,2.4,0.3,3.6,0.3c11.4,0,20.6-9.3,20.6-20.6c0-11.4-9.3-20.6-20.6-20.6
		c-11.4,0-20.6,9.3-20.6,20.6c0,5.7,2.4,11.2,6.6,15.1L39.9,59.7z"/>
</g>
</svg>
