<?xml version="1.0" encoding="utf-8"?>
<!-- Generator: Adobe Illustrator 22.0.1, SVG Export Plug-In . SVG Version: 6.00 Build 0)  -->
<svg version="1.1" id="Layer_2_1_" xmlns="http://www.w3.org/2000/svg" xmlns:xlink="http://www.w3.org/1999/xlink" x="0px" y="0px"
	 viewBox="0 0 100 100" style="enable-background:new 0 0 100 100;" xml:space="preserve">
<path d="M96.3,61.6c0-25.8-21.2-46.7-47.1-46.2C23.8,15.8,3.7,37,3.8,62.3v10.3c0,0.6,0.4,1,1,1h1.8v9.1c0,1.1,0.9,2,2,2h7.9
	c1.1,0,2-0.9,2-2V69.1c0-1.1-0.9-2-2-2H9.3v-4.8c0-22.3,17.5-41,39.8-41.5C72,20.3,90.8,38.7,90.8,61.5v5.6h-7.1c-1.1,0-2,0.9-2,2
	v13.6c0,1.1,0.9,2,2,2h7.9c1.1,0,2-0.9,2-2v-9.1h1.8c0.6,0,1-0.4,1-1L96.3,61.6z"/>
</svg>
