<?xml version="1.0" encoding="utf-8"?>
<!-- Generator: Adobe Illustrator 22.0.1, SVG Export Plug-In . SVG Version: 6.00 Build 0)  -->
<svg version="1.1" id="Layer_1" xmlns="http://www.w3.org/2000/svg" xmlns:xlink="http://www.w3.org/1999/xlink" x="0px" y="0px"
	 viewBox="0 0 100 100" style="enable-background:new 0 0 100 100;" xml:space="preserve">
<path d="M95.8,54c0-25.5-21-46.2-46.6-45.7C24.1,8.7,4.3,29.7,4.3,54.8v10.2c0,0.6,0.4,1,1,1H7v8.9c0,1.1,0.9,2,2,2h1.1v5
	c0,2.5,1.9,4.6,4.4,4.7l28.8,2.1v1.6c0,0.8,0.7,1.5,1.5,1.5h12.8c0.8,0,1.5-0.7,1.5-1.5v-8c0-0.8-0.7-1.5-1.5-1.5H44.9
	c-0.8,0-1.5,0.7-1.5,1.5v0.8l-27.8-2v-4.3h1.1c1.1,0,2-0.9,2-2V61.5c0-1.1-0.9-2-2-2h-7v-4.7c0-22,17.3-40.5,39.3-41
	C71.7,13.2,90.3,31.5,90.3,54v5.5h-7c-1.1,0-2,0.9-2,2v13.4c0,1.1,0.9,2,2,2H91c1.1,0,2-0.9,2-2v-8.9h1.8c0.6,0,1-0.4,1-1V54z"/>
</svg>
