<?xml version="1.0" encoding="utf-8"?>
<!-- Generator: Adobe Illustrator 22.0.1, SVG Export Plug-In . SVG Version: 6.00 Build 0)  -->
<svg version="1.1" id="Layer_1" xmlns="http://www.w3.org/2000/svg" xmlns:xlink="http://www.w3.org/1999/xlink" x="0px" y="0px"
	 viewBox="0 0 100 100" style="enable-background:new 0 0 100 100;" xml:space="preserve">
<g>
	<path d="M58.6,48h-5.9c-1,0-1.8,0.4-2.5,1.1L49.5,50L48,44.6c-0.3-1.4-1.5-2.4-2.9-2.6c-1.4-0.2-2.9,0.5-3.6,1.8L39.3,48h-1.9
		c-1.5,0-2.8,1.2-2.8,2.8s1.2,2.8,2.8,2.8h3.1c1.2,0,2.4-0.7,3-1.7l0.5-0.9l1.2,4.6c0.4,1.4,1.5,2.4,2.9,2.5c0.2,0,0.3,0,0.5,0
		c1.1,0,2.1-0.5,2.8-1.5l2.3-3.1h4.9c1.5,0,2.8-1.2,2.8-2.8S60.1,48,58.6,48z"/>
	<path d="M71.3,36.8h-2.7v-4.6c0-2.6-2.1-4.8-4.8-4.8H61L59.4,7.6c-0.2-2.4-2.3-4.4-4.7-4.4H41.3c-2.5,0-4.5,1.9-4.7,4.4L35,27.4
		h-2.9c-2.6,0-4.8,2.1-4.8,4.8v35.7c0,2.6,2.1,4.8,4.8,4.8H35l1.6,19.9c0.2,2.4,2.3,4.4,4.7,4.4h13.3c2.5,0,4.5-1.9,4.7-4.4L61,72.6
		h2.9c2.6,0,4.8-2.1,4.8-4.8V64h1.7c0.7,0,1.2-0.5,1.2-1.2v-5.9c0-0.7-0.5-1.2-1.2-1.2h-1.7V45h2.7c0.7,0,1.2-0.5,1.2-1.2v-5.9
		C72.5,37.3,72,36.8,71.3,36.8z M42,8.7h12l1.5,18.7h-15L42,8.7z M54,91.3H42l-1.5-18.7h15L54,91.3z M63.2,67.1H32.8V32.9h30.3V67.1
		z"/>
</g>
</svg>
