<?xml version="1.0" encoding="utf-8"?>
<!-- Generator: Adobe Illustrator 22.0.1, SVG Export Plug-In . SVG Version: 6.00 Build 0)  -->
<svg version="1.1" id="Layer_1" xmlns="http://www.w3.org/2000/svg" xmlns:xlink="http://www.w3.org/1999/xlink" x="0px" y="0px"
	 viewBox="0 0 100 100" style="enable-background:new 0 0 100 100;" xml:space="preserve">
<path d="M93.5,31.6c-1.5,0-2.8,1.2-2.8,2.8v3.5H55.3v-2.6c0-3.7-3-6.8-6.8-6.8h-7.7v-6.6h28.3c1.5,0,2.8-1.2,2.8-2.8
	s-1.2-2.8-2.8-2.8H6.5c-1.5,0-2.8,1.2-2.8,2.8s1.2,2.8,2.8,2.8h27.3v6.7c-16.7,0.8-30,14.7-30,31.6v2.2c0,3.7,3,6.8,6.8,6.8h6.3v9
	H11c-0.4,0-0.7-0.3-0.7-0.7c0-1.5-1.2-2.8-2.8-2.8s-2.8,1.2-2.8,2.8c0,3.4,2.8,6.2,6.2,6.2h40.2c1.5,0,2.8-1.2,2.8-2.8
	s-1.2-2.8-2.8-2.8h-11v-9h8.3c3.7,0,6.8-3,6.8-6.8v-3.2l35.5-6.7v4.4c0,1.5,1.2,2.8,2.8,2.8s2.8-1.2,2.8-2.8V34.4
	C96.2,32.9,95,31.6,93.5,31.6z M34.7,78.1H22.3v-9h12.4V78.1z M49.8,62.3c0,0.7-0.6,1.3-1.3,1.3h-38c-0.7,0-1.3-0.6-1.3-1.3v-2.2
	C9.3,45.7,21,34,35.4,34h13.1c0.7,0,1.3,0.6,1.3,1.3V62.3z M55.3,53.5V43.4h35.5v3.4L55.3,53.5z"/>
</svg>
