<?xml version="1.0" encoding="utf-8"?>
<!-- Generator: Adobe Illustrator 22.0.1, SVG Export Plug-In . SVG Version: 6.00 Build 0)  -->
<svg version="1.1" id="Layer_1" xmlns="http://www.w3.org/2000/svg" xmlns:xlink="http://www.w3.org/1999/xlink" x="0px" y="0px"
	 viewBox="0 0 100 100" style="enable-background:new 0 0 100 100;" xml:space="preserve">
<path d="M89.5,58.9c0-0.1,0-0.1,0-0.2C89.5,37,71.8,19.3,50,19.3S10.5,37,10.5,58.7c0,0.1,0,0.1,0,0.2c-4.7,1.3-8.1,5.6-8.1,10.7
	c0,6.1,5,11.2,11.2,11.2h72.8c6.1,0,11.2-5,11.2-11.2C97.6,64.5,94.1,60.2,89.5,58.9z M36.4,27.6v6.9c0,1.5,1.2,2.8,2.8,2.8
	s2.8-1.2,2.8-2.8v-8.8c1.7-0.4,3.5-0.7,5.4-0.9v12.9c0,1.5,1.2,2.8,2.8,2.8s2.8-1.2,2.8-2.8V24.9c1.8,0.1,3.6,0.4,5.4,0.9v8.8
	c0,1.5,1.2,2.8,2.8,2.8s2.8-1.2,2.8-2.8v-6.9C75.5,32.8,83.9,44.7,84,58.4H16C16.1,44.7,24.5,32.8,36.4,27.6z M86.4,75.2H13.6
	c-3.1,0-5.7-2.5-5.7-5.7s2.5-5.7,5.7-5.7h72.8c3.1,0,5.7,2.5,5.7,5.7S89.5,75.2,86.4,75.2z"/>
</svg>
