<?xml version="1.0" encoding="utf-8"?>
<!-- Generator: Adobe Illustrator 22.0.1, SVG Export Plug-In . SVG Version: 6.00 Build 0)  -->
<svg version="1.1" id="Layer_2_1_" xmlns="http://www.w3.org/2000/svg" xmlns:xlink="http://www.w3.org/1999/xlink" x="0px" y="0px"
	 viewBox="0 0 100 100" style="enable-background:new 0 0 100 100;" xml:space="preserve">
<g>
	<g>
		<path d="M49,75.9c-1.5,0-2.8-1.2-2.8-2.8V54.2c0-6.6,3.7-12.8,9.5-15.7c5.9-2.8,9.4-9.2,8.7-15.9c-0.7-7-6.6-12.9-13.6-13.7
			c-6.5-0.7-12.7,2.6-15.7,8.4c-0.7,1.4-2.3,1.9-3.7,1.2c-1.4-0.7-1.9-2.3-1.2-3.7c4-7.9,12.4-12.3,21.2-11.4
			c9.7,1.2,17.4,9,18.5,18.6c1,9-3.8,17.6-11.7,21.4c-3.9,1.9-6.4,6.2-6.4,10.8v18.9C51.7,74.6,50.5,75.9,49,75.9z"/>
	</g>
	<g>
		<circle cx="49" cy="89.6" r="4.4"/>
	</g>
</g>
</svg>
