<?xml version="1.0" encoding="utf-8"?>
<!-- Generator: Adobe Illustrator 22.0.1, SVG Export Plug-In . SVG Version: 6.00 Build 0)  -->
<svg version="1.1" id="Layer_1" xmlns="http://www.w3.org/2000/svg" xmlns:xlink="http://www.w3.org/1999/xlink" x="0px" y="0px"
	 viewBox="0 0 100 100" style="enable-background:new 0 0 100 100;" xml:space="preserve">
<path d="M58.8,1.9H41.2c-2.1,0-3.8,1.7-3.8,3.8v61.7c0,1.7,1.1,3.1,2.7,3.6v11.9c0,1.7,1.2,3.2,2.7,3.6v10.6c0,0.7,0.7,1.2,1.4,1
	l12.3-4.2c0.4-0.1,0.7-0.5,0.7-1v-6.4c1.5-0.5,2.6-1.9,2.6-3.6V70.9c1.5-0.5,2.7-1.9,2.7-3.6V5.7C62.5,3.6,60.9,1.9,58.8,1.9z
	 M54.4,81.1h-8.7v-10h8.7V81.1z M43,7.4H57v58.2h-1H43.9h-1V7.4z"/>
</svg>
