<?xml version="1.0" encoding="utf-8"?>
<!-- Generator: Adobe Illustrator 22.0.1, SVG Export Plug-In . SVG Version: 6.00 Build 0)  -->
<svg version="1.1" id="Layer_1" xmlns="http://www.w3.org/2000/svg" xmlns:xlink="http://www.w3.org/1999/xlink" x="0px" y="0px"
	 viewBox="0 0 100 100" style="enable-background:new 0 0 100 100;" xml:space="preserve">
<path d="M90.6,23.8l-13-13c-1.4-1.4-4-1.4-5.4,0L26.6,56.5c-0.7,0.7-1.1,1.7-1.1,2.7c0,0.7,0.2,1.3,0.5,1.9l-8.9,8.9
	c-0.7,0.7-1.1,1.7-1.1,2.7c0,0.7,0.2,1.3,0.5,1.8l-8,8c-0.5,0.5-0.4,1.4,0.3,1.7l12.2,6c0.4,0.2,0.9,0.1,1.2-0.2l4.9-4.9
	c0.5,0.3,1.1,0.4,1.7,0.4c1,0,2-0.4,2.7-1.1l8.9-8.9c0.6,0.3,1.2,0.5,1.9,0.5c1,0,2-0.4,2.7-1.1l45.6-45.6c0.7-0.7,1.1-1.7,1.1-2.7
	C91.8,25.5,91.4,24.6,90.6,23.8z M28.9,79.3l-6.6-6.6l7.6-7.6l6.6,6.6L28.9,79.3z M42.3,69.8L31.7,59.2L75,15.9l10.6,10.6L42.3,69.8
	z"/>
</svg>
