<?xml version="1.0" encoding="utf-8"?>
<!-- Generator: Adobe Illustrator 22.0.1, SVG Export Plug-In . SVG Version: 6.00 Build 0)  -->
<svg version="1.1" id="Layer_1" xmlns="http://www.w3.org/2000/svg" xmlns:xlink="http://www.w3.org/1999/xlink" x="0px" y="0px"
	 viewBox="0 0 100 100" style="enable-background:new 0 0 100 100;" xml:space="preserve">
<path d="M84.5,35.5L52.6,3.6c-0.7-0.7-1.7-1.2-2.7-1.2s-2,0.4-2.7,1.1L15.3,35.5c-0.9,0.9-1.1,1.9-1.1,2.6v55.5
	c0,2.1,1.7,3.8,3.9,3.8h19.4c2.7,0,4.9-2.1,4.9-4.8V74.3c0-1.8,1.5-3.3,3.3-3.3h8.9c1.8,0,3.3,1.5,3.3,3.3v18.5
	c0,2.7,2.1,4.8,4.8,4.8h19.2c2.1,0,3.9-1.7,3.9-3.8V38.1C85.6,37.1,85.2,36.1,84.5,35.5z M80.1,92.2H63.2V74.3
	c0-4.8-3.9-8.8-8.8-8.8h-8.9c-4.8,0-8.8,3.9-8.8,8.8v17.6h-17V38.8L49.9,8.7l30.2,30.2V92.2z"/>
<path d="M53.3,34.6v4.6h-7.5v-4.6c0-0.8-0.7-1.5-1.5-1.5h-2.5c-0.8,0-1.5,0.7-1.5,1.5v14.7c0,0.8,0.7,1.5,1.5,1.5h2.5
	c0.8,0,1.5-0.7,1.5-1.5v-4.6h7.5v4.6c0,0.8,0.7,1.5,1.5,1.5h2.5c0.8,0,1.5-0.7,1.5-1.5V34.6c0-0.8-0.7-1.5-1.5-1.5h-2.5
	C53.9,33.1,53.3,33.8,53.3,34.6z"/>
</svg>
