<?xml version="1.0" encoding="utf-8"?>
<!-- Generator: Adobe Illustrator 21.0.2, SVG Export Plug-In . SVG Version: 6.00 Build 0)  -->
<svg version="1.1" id="Layer_1" xmlns="http://www.w3.org/2000/svg" xmlns:xlink="http://www.w3.org/1999/xlink" x="0px" y="0px"
	 viewBox="0 0 100 100" style="enable-background:new 0 0 100 100;" xml:space="preserve">
<path d="M76.3,91.5h-2.8V73.8c0-7.2-3.1-13.8-8.6-18.2l-0.1-0.1c-1.5-1.1-2.4-3.1-2.4-5.2v-0.9c0-2,1-4,2.5-5.3
	c5.5-4.4,8.6-11.1,8.6-18.2V8.5h2.8c1.5,0,2.8-1.2,2.8-2.8S77.8,3,76.3,3h-2.8H26.5h-2.8C22.2,3,21,4.2,21,5.7s1.2,2.8,2.8,2.8h2.8
	v17.4c0,7.2,3.1,13.8,8.6,18.2l0.1,0.1c1.5,1.1,2.4,3.1,2.4,5.2V52c-0.4,1.4-1.2,2.7-2.3,3.7c-5.5,4.4-8.6,11.1-8.6,18.2v17.6h-2.9
	c-1.5,0-2.8,1.2-2.8,2.8s1.2,2.8,2.8,2.8h2.9h46.9h2.8c1.5,0,2.8-1.2,2.8-2.8S77.8,91.5,76.3,91.5z M32.1,91.5V73.9
	c0-5.5,2.4-10.6,6.6-14c2.1-1.7,3.5-4.1,4.2-6.7h0.3v-2.9H43v-1c0-3.9-1.7-7.4-4.6-9.6c-4.2-3.4-6.5-8.4-6.5-13.9V8.5H68v17.4
	c0,5.5-2.4,10.6-6.6,14c-2.8,2.3-4.5,5.9-4.5,9.5v0.9c0,3.9,1.7,7.4,4.6,9.6c4.2,3.4,6.5,8.4,6.5,13.9v17.8H32.1z"/>
</svg>
