<?xml version="1.0" encoding="utf-8"?>
<!-- Generator: Adobe Illustrator 22.0.1, SVG Export Plug-In . SVG Version: 6.00 Build 0)  -->
<svg version="1.1" id="Layer_1" xmlns="http://www.w3.org/2000/svg" xmlns:xlink="http://www.w3.org/1999/xlink" x="0px" y="0px"
	 viewBox="0 0 100 100" style="enable-background:new 0 0 100 100;" xml:space="preserve">
<g>
	<path d="M96.3,3.8c-0.8-0.9-1.9-1.4-3-1.4c-10.7-0.1-73.9,0-86.5,0c-1.2,0-2.3,0.5-3,1.4c-0.8,0.9-1.2,2-1,3.2l7.7,78.4
		c0.1,1.6,1.3,3,2.9,3.4l34.3,8.4c0.7,0.1,1.4,0.2,2.1,0.2c0.7,0,1.5-0.1,2.2-0.2l34.3-8.4c1.4-0.3,2.8-1.6,2.9-3.3L97.3,7
		C97.5,5.9,97.1,4.7,96.3,3.8z M83.8,83.8L50.7,92c-0.6,0.1-1.3,0.1-1.8,0l-33.1-8.2L8.3,8c14.8,0,69.8-0.1,83.4,0L83.8,83.8z"/>
	<path d="M21.8,20.3c-0.7,0.8-1,2-0.8,3.1L24.4,43c0.3,1.8,1.9,3.1,3.7,3.1h43.2l-3.5,20.2l-16.7,6.2l-16.8-6.2l-2.2-11
		c-0.3-1.5-1.7-2.5-3.2-2.2c-1.5,0.3-2.5,1.7-2.2,3.2l2.8,14l21.6,7.9l21.6-8l4.6-26.5c0-0.1,0-0.1,0-0.2c0-0.1,0-0.2,0-0.2
		c0,0,0,0,0,0c0-0.1,0-0.2,0-0.3c0-0.1,0-0.2,0-0.2c0-0.1-0.1-0.2-0.1-0.3c0-0.1,0-0.2-0.1-0.2c0-0.1-0.1-0.1-0.1-0.2
		c0-0.1-0.1-0.2-0.1-0.2c0-0.1-0.1-0.1-0.2-0.2c-0.1-0.1-0.1-0.1-0.2-0.2c-0.1-0.1-0.1-0.1-0.2-0.2c-0.1-0.1-0.1-0.1-0.2-0.2
		C76,41,75.9,41,75.9,41c-0.1,0-0.2-0.1-0.3-0.1c-0.1,0-0.1,0-0.2-0.1c-0.1,0-0.2-0.1-0.3-0.1c0,0,0,0,0,0c-0.1,0-0.2,0-0.3,0
		c-0.1,0-0.1,0-0.2,0h-0.1c0,0,0,0,0,0H29.6l-2.8-16.1h50c1.5,0,2.8-1.2,2.8-2.8S78.3,19,76.8,19H24.7C23.6,19,22.6,19.5,21.8,20.3z
		"/>
</g>
</svg>
