<?xml version="1.0" encoding="utf-8"?>
<!-- Generator: Adobe Illustrator 21.0.2, SVG Export Plug-In . SVG Version: 6.00 Build 0)  -->
<svg version="1.1" id="Layer_1" xmlns="http://www.w3.org/2000/svg" xmlns:xlink="http://www.w3.org/1999/xlink" x="0px" y="0px"
	 viewBox="0 0 100 100" style="enable-background:new 0 0 100 100;" xml:space="preserve">
<g>
	<path d="M87.4,2.2H12.6c-2.4,0-4.2,1.8-4.2,4.1v87.4c0,2.4,1.8,4.1,4.2,4.1h74.8c2.3,0,4.2-2,4.2-4.3V6.3
		C91.6,3.9,89.8,2.2,87.4,2.2z M86.1,7.7v44.3c-1.1,0.7-2,1.3-3,2c-2.3,1.5-4.5,3.5-6.6,5.4c-5.9,5.2-11.5,10.2-18.9,7.4
		c-1.5-0.5-2.9-1.8-4.3-3l-0.7-0.6c-3.7-3-7.9-6.5-13-7.9c-8.6-2.7-16.3,2.3-23.1,6.6c-0.8,0.5-1.7,1.1-2.5,1.6V7.7H86.1z
		 M13.9,92.3V69.8c1.8-1,3.6-2.2,5.4-3.3c6.1-3.9,12.3-7.9,18.6-6c4,1.2,7.6,4.1,11.1,6.9l0.5,0.4c1.7,1.5,3.7,3.2,6.1,4.1
		c2.2,0.8,4.2,1.2,6.2,1.2c7.5,0,13.4-5.2,18.3-9.6c2-1.8,4-3.5,6-4.9v33.8H13.9z"/>
	<path d="M64.3,44.7c7.3,0,13.1-5.9,13.1-13.1s-5.9-13.2-13.1-13.2s-13.2,5.9-13.2,13.2S57,44.7,64.3,44.7z M64.3,23.8
		c4.2,0,7.6,3.4,7.6,7.7s-3.4,7.6-7.6,7.6c-4.2,0-7.7-3.4-7.7-7.6S60.1,23.8,64.3,23.8z"/>
</g>
</svg>
