<?xml version="1.0" encoding="utf-8"?>
<!-- Generator: Adobe Illustrator 22.0.1, SVG Export Plug-In . SVG Version: 6.00 Build 0)  -->
<svg version="1.1" id="Layer_1" xmlns="http://www.w3.org/2000/svg" xmlns:xlink="http://www.w3.org/1999/xlink" x="0px" y="0px"
	 viewBox="0 0 100 100" style="enable-background:new 0 0 100 100;" xml:space="preserve">
<g>
	<path d="M10.6,8.6h78.8c1.5,0,2.8-1.2,2.8-2.8s-1.2-2.8-2.8-2.8H10.6c-1.5,0-2.8,1.2-2.8,2.8S9.1,8.6,10.6,8.6z"/>
	<path d="M89.4,91.4H10.6c-1.5,0-2.8,1.2-2.8,2.8s1.2,2.8,2.8,2.8h78.8c1.5,0,2.8-1.2,2.8-2.8S90.9,91.4,89.4,91.4z"/>
	<path d="M29.5,33L12.1,46.6c-1,0.8-1.5,1.9-1.5,3.2c0,1.3,0.6,2.4,1.6,3.2l17.2,13.5c0.7,0.6,1.6,0.9,2.5,0.9
		c0.6,0,1.2-0.1,1.8-0.4c1.4-0.7,2.3-2.1,2.3-3.5V36.3c0-1.5-0.8-2.9-2.2-3.6C32.4,31.9,30.7,32,29.5,33z M30.4,60.4L16.9,49.8
		l13.5-10.6V60.4z"/>
	<path d="M89.4,25.1h-40c-1.5,0-2.8,1.2-2.8,2.8s1.2,2.8,2.8,2.8h40c1.5,0,2.8-1.2,2.8-2.8S90.9,25.1,89.4,25.1z"/>
	<path d="M89.4,47.3h-40c-1.5,0-2.8,1.2-2.8,2.8s1.2,2.8,2.8,2.8h40c1.5,0,2.8-1.2,2.8-2.8S90.9,47.3,89.4,47.3z"/>
	<path d="M89.4,69.4h-40c-1.5,0-2.8,1.2-2.8,2.8s1.2,2.8,2.8,2.8h40c1.5,0,2.8-1.2,2.8-2.8S90.9,69.4,89.4,69.4z"/>
</g>
</svg>
