<?xml version="1.0" encoding="utf-8"?>
<!-- Generator: Adobe Illustrator 22.0.1, SVG Export Plug-In . SVG Version: 6.00 Build 0)  -->
<svg version="1.1" id="Layer_1" xmlns="http://www.w3.org/2000/svg" xmlns:xlink="http://www.w3.org/1999/xlink" x="0px" y="0px"
	 viewBox="0 0 100 100" style="enable-background:new 0 0 100 100;" xml:space="preserve">
<g>
	<path d="M89.4,8.6H10.6c-1.5,0-2.8-1.2-2.8-2.8s1.2-2.8,2.8-2.8h78.8c1.5,0,2.8,1.2,2.8,2.8S90.9,8.6,89.4,8.6z"/>
	<path d="M10.6,91.4h78.8c1.5,0,2.8,1.2,2.8,2.8s-1.2,2.8-2.8,2.8H10.6c-1.5,0-2.8-1.2-2.8-2.8S9.1,91.4,10.6,91.4z"/>
	<path d="M66.3,32.6c-1.4,0.7-2.2,2.1-2.2,3.6v27.2c0,1.5,0.9,2.9,2.3,3.5c0.6,0.3,1.2,0.4,1.8,0.4c0.9,0,1.8-0.3,2.5-0.9L87.9,53
		c1-0.8,1.6-2,1.6-3.2c0-1.3-0.6-2.4-1.5-3.2L70.5,33C69.3,32,67.6,31.9,66.3,32.6z M69.6,39.2l13.5,10.6L69.6,60.4V39.2z"/>
	<path d="M10.6,25.1h40c1.5,0,2.8,1.2,2.8,2.8s-1.2,2.8-2.8,2.8h-40c-1.5,0-2.8-1.2-2.8-2.8S9.1,25.1,10.6,25.1z"/>
	<path d="M10.6,47.3h40c1.5,0,2.8,1.2,2.8,2.8s-1.2,2.8-2.8,2.8h-40c-1.5,0-2.8-1.2-2.8-2.8S9.1,47.3,10.6,47.3z"/>
	<path d="M10.6,69.4h40c1.5,0,2.8,1.2,2.8,2.8s-1.2,2.8-2.8,2.8h-40c-1.5,0-2.8-1.2-2.8-2.8S9.1,69.4,10.6,69.4z"/>
</g>
</svg>
