<?xml version="1.0" encoding="utf-8"?>
<!-- Generator: Adobe Illustrator 22.0.1, SVG Export Plug-In . SVG Version: 6.00 Build 0)  -->
<svg version="1.1" id="Layer_1" xmlns="http://www.w3.org/2000/svg" xmlns:xlink="http://www.w3.org/1999/xlink" x="0px" y="0px"
	 viewBox="0 0 100 100" style="enable-background:new 0 0 100 100;" xml:space="preserve">
<g>
	<path d="M75.3,72.6c-7.4,0-14.3-3.6-18.6-9.5L56.7,63L50,54.3l-7.1,9.3l0,0c-4.4,5.7-11,9-18.2,9c-12.6,0-22.9-10.3-22.9-22.9
		c0-12.6,10.3-22.9,22.9-22.9c7.3,0,14.3,3.6,18.6,9.5l6.7,8.8l6.2-8.1c1.6-2.1,3.8-4.7,6.8-6.6c3.7-2.3,7.9-3.6,12.3-3.6
		c12.6,0,22.9,10.3,22.9,22.9C98.2,62.4,87.9,72.6,75.3,72.6z M60.9,59.5l0.2,0.3c3.3,4.6,8.6,7.3,14.2,7.3
		c9.6,0,17.4-7.8,17.4-17.4c0-9.6-7.8-17.4-17.4-17.4c-3.3,0-6.5,0.9-9.3,2.7c-2.3,1.5-4,3.5-5.4,5.3l-7.1,9.3L60.9,59.5z
		 M38.6,60.2l8-10.4l-7.7-10.1c-3.3-4.6-8.6-7.3-14.2-7.3c-9.6,0-17.4,7.8-17.4,17.4c0,9.6,7.8,17.4,17.4,17.4
		C30.2,67.1,35.2,64.6,38.6,60.2"/>
</g>
</svg>
