<?xml version="1.0" encoding="utf-8"?>
<!-- Generator: Adobe Illustrator 22.0.1, SVG Export Plug-In . SVG Version: 6.00 Build 0)  -->
<svg version="1.1" id="Layer_1" xmlns="http://www.w3.org/2000/svg" xmlns:xlink="http://www.w3.org/1999/xlink" x="0px" y="0px"
	 viewBox="0 0 100 100" style="enable-background:new 0 0 100 100;" xml:space="preserve">
<g>
	<path d="M75.9,19.2c-0.9,0-1.6,0.3-2.3,0.9c-0.7,0.5-0.9,1.5-0.9,2.3c0,0.9,0.3,1.6,0.9,2.3c1.2,1.2,3.5,1.2,4.7,0
		c0.7-0.5,0.9-1.5,0.9-2.4c0-0.8-0.4-1.6-0.9-2.2C77.7,19.5,76.7,19.2,75.9,19.2z"/>
	<path d="M50.1,32.3c-9.9,0-17.7,8-17.7,17.7s7.8,17.7,17.7,17.7c9.7,0,17.7-8,17.7-17.7C67.8,40.2,59.8,32.3,50.1,32.3z"/>
	<path d="M69.4,2.5H30.6C15,2.5,2.5,15,2.5,30.6v38.8C2.5,85,15,97.5,30.6,97.5h38.8C85,97.5,97.5,85,97.5,69.4V30.6
		C97.5,15,85,2.5,69.4,2.5z M50.1,73.3c-12.9,0-23.3-10.6-23.3-23.3s10.4-23.3,23.3-23.3c12.7,0,23.1,10.6,23.1,23.3
		S62.9,73.3,50.1,73.3z M85,22.6c-0.1,2.4-1.1,4.6-2.7,6.2c-1.6,1.6-3.9,2.6-6.4,2.6c-2.4,0-4.6-0.9-6.4-2.6
		c-1.6-1.6-2.6-3.9-2.6-6.4s0.9-4.6,2.6-6.4c1.6-1.6,3.9-2.6,6.4-2.6c2.4,0,4.7,0.9,6.4,2.7C83.9,18,85,20.2,85,22.6
		C85,22.5,85,22.6,85,22.6z"/>
</g>
</svg>
