<?xml version="1.0" encoding="utf-8"?>
<!-- Generator: Adobe Illustrator 22.0.1, SVG Export Plug-In . SVG Version: 6.00 Build 0)  -->
<svg version="1.1" id="Layer_1" xmlns="http://www.w3.org/2000/svg" xmlns:xlink="http://www.w3.org/1999/xlink" x="0px" y="0px"
	 viewBox="0 0 100 100" style="enable-background:new 0 0 100 100;" xml:space="preserve">
<g>
	<path d="M50,26.9c-12.8,0-23.1,10.4-23.1,23.1S37.2,73.1,50,73.1c12.7,0,23-10.4,23-23.1S62.7,26.9,50,26.9z M50,67.6
		c-9.7,0-17.6-7.9-17.6-17.6c0-9.7,7.9-17.6,17.6-17.6c9.7,0,17.5,7.9,17.5,17.6C67.5,59.7,59.7,67.6,50,67.6z"/>
	<path d="M76.9,16.3c-1.8,0-3.5,0.7-4.7,2c-1.3,1.3-2,2.9-2,4.7s0.7,3.5,2,4.7c1.3,1.3,2.9,2,4.7,2s3.5-0.7,4.7-2
		c1.2-1.2,2-2.9,2-4.7v-0.1c0-1.7-0.8-3.4-2-4.6C80.6,16.9,78.7,16.3,76.9,16.3z"/>
	<path d="M76.1,1H23.9C11.3,1,1,11.3,1,23.9v52.3C1,88.7,11.3,99,23.9,99h52.3C88.7,99,99,88.7,99,76.1V23.9C99,11.3,88.7,1,76.1,1z
		 M93.5,76.1c0,9.6-7.8,17.4-17.4,17.4H23.9c-9.6,0-17.4-7.8-17.4-17.4V23.9c0-9.6,7.8-17.4,17.4-17.4h52.3
		c9.6,0,17.4,7.8,17.4,17.4V76.1z"/>
</g>
</svg>
