<?xml version="1.0" encoding="utf-8"?>
<!-- Generator: Adobe Illustrator 22.0.1, SVG Export Plug-In . SVG Version: 6.00 Build 0)  -->
<svg version="1.1" id="Layer_1" xmlns="http://www.w3.org/2000/svg" xmlns:xlink="http://www.w3.org/1999/xlink" x="0px" y="0px"
	 viewBox="0 0 100 100" style="enable-background:new 0 0 100 100;" xml:space="preserve">
<g>
	<path d="M66.6,36.6c-4.9-4.6-11.4-7-18.2-6.6c-12.6,0.7-22.5,11.3-22.7,23.9C25.6,62,29.3,69.4,35.8,74v11.2c0,5.1,4.2,9.3,9.3,9.3
		h9.2c5.1,0,9.3-4.2,9.3-9.3V74.1C70.2,69.5,74,62.2,74,54.2C74.1,47.6,71.5,41.3,66.6,36.6L66.6,36.6z M54.4,89.1h-9.2
		c-2.2,0-3.8-1.7-3.8-3.8v-9.9h16.9v9.9C58.2,87.4,56.6,89.1,54.4,89.1z M60.2,69.8h-7.6v-4l7-4.5c1.3-0.8,1.7-2.5,0.8-3.8
		c-0.8-1.3-2.5-1.7-3.8-0.8l-4,2.6v-4.4c0-1.5-1.2-2.8-2.7-2.8c-1.5,0-2.8,1.2-2.8,2.8v4.4l-4-2.6c-1.3-0.8-3-0.4-3.8,0.8
		c-0.8,1.3-0.4,3,0.8,3.8l7,4.5v4h-7.7c-5.3-3.5-8.3-9.4-8.2-15.9C31.3,44.2,39,36,48.7,35.5c0.4,0,0.7,0,1.1,0
		c4.9,0,9.4,1.8,13,5.1c3.8,3.6,5.8,8.5,5.7,13.6C68.5,60.6,65.4,66.3,60.2,69.8z"/>
	<path d="M50,19.1c1.5,0,2.7-1.2,2.7-2.8V8.2c0-1.5-1.2-2.8-2.7-2.8c-1.5,0-2.8,1.2-2.8,2.8v8.1C47.2,17.8,48.5,19.1,50,19.1z"/>
	<path d="M87.5,19.8c-1.1-1.1-2.8-1.1-3.9,0l-5.7,5.7c-1.1,1.1-1.1,2.8,0,3.9c0.5,0.5,1.2,0.8,1.9,0.8s1.4-0.3,1.9-0.8l5.7-5.7
		C88.6,22.6,88.6,20.8,87.5,19.8z"/>
	<path d="M16.4,19.8c-1.1-1.1-2.8-1.1-3.9,0c-1.1,1.1-1.1,2.8,0,3.9l5.7,5.7c0.5,0.5,1.2,0.8,1.9,0.8c0.7,0,1.4-0.3,1.9-0.8
		c1.1-1.1,1.1-2.8,0-3.9L16.4,19.8z"/>
	<path d="M12,54.5H3.9c-1.5,0-2.8,1.2-2.8,2.8S2.4,60,3.9,60H12c1.5,0,2.8-1.2,2.8-2.8S13.5,54.5,12,54.5z"/>
	<path d="M96.1,54.5H88c-1.5,0-2.8,1.2-2.8,2.8S86.5,60,88,60h8.1c1.5,0,2.8-1.2,2.8-2.8S97.6,54.5,96.1,54.5z"/>
</g>
</svg>
