<?xml version="1.0" encoding="utf-8"?>
<!-- Generator: Adobe Illustrator 22.0.1, SVG Export Plug-In . SVG Version: 6.00 Build 0)  -->
<svg version="1.1" id="Layer_1" xmlns="http://www.w3.org/2000/svg" xmlns:xlink="http://www.w3.org/1999/xlink" x="0px" y="0px"
	 viewBox="0 0 100 100" style="enable-background:new 0 0 100 100;" xml:space="preserve">
<g>
	<path d="M25.8,44.8c0-1.5-1.2-2.8-2.8-2.8h-8.3c0.1-0.2,0.3-0.5,0.3-0.8c4.1-16.6,18.9-28.2,35.9-28.2c17,0,31.8,11.5,35.9,28
		c0.4,1.5,1.9,2.4,3.3,2c1.5-0.4,2.4-1.9,2-3.3c-4.7-19-21.7-32.2-41.2-32.2C32,7.6,15.6,20,10.2,38v-8.8c0-1.5-1.2-2.8-2.8-2.8
		s-2.8,1.2-2.8,2.8v14.6c0,2.1,1.7,3.8,3.8,3.8H23C24.5,47.5,25.8,46.3,25.8,44.8z"/>
	<path d="M91.6,57.6l-14.7-0.1c-1.6,0-2.8,1.2-2.8,2.7c0,1.5,1.2,2.8,2.7,2.8l8.5,0C80,77.4,66.3,86.9,50.9,86.9
		c-16,0-30.1-10.2-35.1-25.4c-0.5-1.4-2-2.2-3.5-1.8c-1.4,0.5-2.2,2-1.8,3.5c5.7,17.4,21.9,29.1,40.3,29.1
		c17.1,0,32.3-10.1,38.9-25.6V76c0,1.5,1.2,2.8,2.8,2.8s2.8-1.2,2.8-2.8V61.4C95.3,59.3,93.6,57.6,91.6,57.6z"/>
	<path d="M51.4,69.9c1.5,0,2.7-1.2,2.7-2.8v-2h1.2c4.9,0,9-4,9-9s-4-9-9-9h-9.2c-1.9,0-3.5-1.6-3.5-3.5c0-0.9,0.4-1.8,1-2.5
		c0.7-0.7,1.5-1,2.5-1h13.3c1.5,0,2.8-1.2,2.8-2.8s-1.2-2.8-2.8-2.8h-5.3v-2c0-1.5-1.2-2.8-2.7-2.8c-1.5,0-2.8,1.2-2.8,2.8v2h-2.4
		c-2.4,0-4.6,0.9-6.3,2.6c-1.7,1.7-2.6,3.9-2.6,6.3c0,4.9,4,9,9,9h9.2c1.9,0,3.5,1.6,3.5,3.5s-1.6,3.5-3.5,3.5h-3.8c0,0-0.1,0-0.1,0
		s-0.1,0-0.1,0h-9.2c-1.5,0-2.8,1.2-2.8,2.8s1.2,2.8,2.8,2.8h6.6v2C48.7,68.7,49.9,69.9,51.4,69.9z"/>
</g>
</svg>
