<?xml version="1.0" encoding="utf-8"?>
<!-- Generator: Adobe Illustrator 21.0.0, SVG Export Plug-In . SVG Version: 6.00 Build 0)  -->
<svg version="1.1" id="Layer_1" xmlns="http://www.w3.org/2000/svg" xmlns:xlink="http://www.w3.org/1999/xlink" x="0px" y="0px"
	 viewBox="0 0 100 100" style="enable-background:new 0 0 100 100;" xml:space="preserve">
<g>
	<path d="M23.8,58.5h-14c-1.1,0-2,0.9-2,2V89c0,1.1,0.9,2,2,2h14c1.1,0,2-0.9,2-2V60.5C25.8,59.4,24.9,58.5,23.8,58.5z"/>
	<path d="M57,47.5H43c-1.1,0-2,0.9-2,2v40c0,1.1,0.9,2,2,2h14c1.1,0,2-0.9,2-2v-40C59,48.4,58.1,47.5,57,47.5z"/>
	<path d="M90.3,62.5h-14c-1.1,0-2,0.9-2,2v25c0,1.1,0.9,2,2,2h14c1.1,0,2-0.9,2-2v-25C92.3,63.4,91.4,62.5,90.3,62.5z"/>
	<path d="M52.8,22h-7.2c-1.4,0-2.4-1.1-2.4-2.4c0-0.7,0.3-1.3,0.7-1.7c0.4-0.4,1.1-0.7,1.7-0.7h10.4c1.3,0,2.4-1,2.4-2.4
		c0-1.4-1.1-2.4-2.4-2.4h-3.9v-1.3c0-1.3-1-2.4-2.4-2.4c-1.3,0-2.4,1-2.4,2.4v1.3h-1.7c-1.9,0-3.8,0.8-5.2,2.1
		c-1.4,1.4-2.1,3.2-2.1,5.2c0,4,3.2,7.3,7.3,7.3h7.2c1.4,0,2.4,1.1,2.4,2.4c0,1.3-1.1,2.4-2.4,2.4h-3h-0.1h-0.1h-7.2
		c-1.3,0-2.4,1-2.4,2.4c0,1.4,1,2.4,2.4,2.4h4.9v1.3c0,1.3,1,2.4,2.4,2.4c1.3,0,2.4-1,2.4-2.4v-1.3h0.7c4,0,7.3-3.2,7.3-7.3
		S56.9,22,52.8,22z"/>
</g>
</svg>
