<?xml version="1.0" encoding="utf-8"?>
<!-- Generator: Adobe Illustrator 22.0.1, SVG Export Plug-In . SVG Version: 6.00 Build 0)  -->
<svg version="1.1" id="Layer_1" xmlns="http://www.w3.org/2000/svg" xmlns:xlink="http://www.w3.org/1999/xlink" x="0px" y="0px"
	 viewBox="0 0 100 100" style="enable-background:new 0 0 100 100;" xml:space="preserve">
<path d="M94.6,83.9c-1.1-1.1-2.8-1.1-3.9,0c-0.9,0.9-2.2,1.5-3.5,1.5c-1.3,0-2.6-0.5-3.5-1.5l-1.5-1.5c-2-2-4.6-3.1-7.4-3.1
	s-5.4,1.1-7.4,3.1l-1.1,1.1c-2,1.9-5.1,1.9-7.1,0l-2-2c-4.1-4.1-10.8-4.1-14.8,0l-0.5,0.5c-2,1.9-5.1,1.9-7.1,0
	C32.6,80,29.8,79,27.1,79c-0.2-2.1-0.4-8,1.2-16.4c0.4-2,1.2-4.2,2.1-6.6c1-2.7,2.1-5.5,2.6-8.4c0,0,0,0,0,0c0-0.1,0.1-0.3,0.1-0.4
	c2.6,1.6,6.3,5.2,7.4,9.2c0.3,1.2,1.4,2.1,2.7,2.1c0.2,0,0.5,0,0.7-0.1c1.5-0.4,2.4-1.9,2-3.3c-1.4-5.3-5.8-10.4-10.3-12.8
	c3.7-4.6,10.6-7,17.9-5.6c1.5,0.3,2.9-0.7,3.2-2.2s-0.7-2.9-2.2-3.2c-8.5-1.6-16.6,0.9-21.7,5.9c-1.7-8.3-6.6-16-11.8-17
	C19.4,20,18,21,17.7,22.5c-0.3,1.5,0.7,2.9,2.2,3.2c2.3,0.4,5.9,6,7.4,12.4c-1.5-0.8-3.2-1.4-5-1.8c-4.4-0.8-8.9,0.1-12.6,2.6
	c-1.3,0.9-1.6,2.6-0.7,3.8c0.9,1.3,2.6,1.6,3.8,0.7c2.5-1.7,5.5-2.3,8.5-1.8c2.6,0.5,4.8,1.8,6.5,3.8c0,0.4-0.1,0.8-0.2,1.2
	c0,0,0,0,0,0c-0.5,2.5-1.4,5-2.4,7.5c-0.9,2.5-1.9,5-2.4,7.5c-0.9,4.8-1.4,9.8-1.4,13.9c0,2.1,0.1,3.7,0.3,5c-0.7,0.4-1.4,0.9-2,1.5
	l-0.2,0.2c-0.9,0.9-2.2,1.5-3.5,1.5s-2.6-0.5-3.5-1.5c-1.1-1.1-2.8-1.1-3.9,0c-1.1,1.1-1.1,2.8,0,3.9c4.1,4.1,10.8,4.1,14.9,0
	l0.2-0.2c1.9-1.9,5.1-2,7.1,0c4.1,4.1,10.8,4.1,14.8,0l0.5-0.5c2-1.9,5.1-1.9,7.1,0l2,2c4.1,4.1,10.8,4.1,14.8,0l1.1-1.1
	c0.9-0.9,2.2-1.5,3.5-1.5c1.3,0,2.6,0.5,3.5,1.5l1.5,1.5c2,2,4.6,3.1,7.4,3.1c2.8,0,5.4-1.1,7.4-3.1C95.7,86.7,95.7,84.9,94.6,83.9z
	"/>
<path d="M81.5,35.7c7.7,0,13.9-6.3,13.9-13.9S89.1,7.8,81.5,7.8s-13.9,6.3-13.9,13.9S73.8,35.7,81.5,35.7z M81.5,13.3
	c4.7,0,8.4,3.8,8.4,8.4s-3.8,8.4-8.4,8.4S73,26.4,73,21.7S76.8,13.3,81.5,13.3z"/>
</svg>
