<?xml version="1.0" encoding="utf-8"?>
<!-- Generator: Adobe Illustrator 21.0.0, SVG Export Plug-In . SVG Version: 6.00 Build 0)  -->
<svg version="1.1" id="Layer_1" xmlns="http://www.w3.org/2000/svg" xmlns:xlink="http://www.w3.org/1999/xlink" x="0px" y="0px"
	 viewBox="0 0 100 100" style="enable-background:new 0 0 100 100;" xml:space="preserve">
<g>
	<path d="M43.8,48.5c2,2.1,4.1,4.1,6.3,6c-2-4.2-5.6-7.6-7.1-12.1c-0.9-2.6-0.6-5.6,0.8-8c1.6-3,4.2-5.2,6.8-7.3
		c2.2-1.8,4.4-3.7,6.3-5.9c2.3-2.7,4.3-5.9,5-9.5c0.6-3.2-0.1-6.7-2.3-9.2c0.5,2.3,0.7,4.8,0.2,7.1c-0.6,3.2-2.5,6-4.8,8.4
		c-4.1,4.3-9.3,7.3-13.4,11.5c-1.5,1.6-3,3.3-3.7,5.4c-0.7,2.1-0.3,4.3,0.6,6.3C39.8,43.9,41.7,46.3,43.8,48.5z"/>
	<path d="M50.3,37.6c-0.4,3.7,1.5,7.2,3.8,9.9c1.1,1.2,2.1,2.7,2.1,4.4c0,2.3-1.2,4.4-2.9,5.9c0.4,0,0.7-0.4,1-0.6
		c2.5-1.6,4.9-3.6,6.1-6.4c0.8-1.9,0.6-4.1-0.4-5.8c-1.2-2-2.9-3.8-3.9-6.1c-0.5-1.2-0.7-2.7-0.3-4c0.6-1.8,1.8-3.2,3.1-4.5
		c3.6-3.4,8-5.9,12.2-8.6c-5.3,1.5-10.6,3.6-15.1,6.9C53.3,31,50.7,33.9,50.3,37.6z"/>
	<path d="M81,59.6c0.4,2.2-0.6,4.4-2,6c-2.2,2.7-5.3,4.6-8.3,6.2c-0.3,0.2-0.6,0.4-0.8,0.7c4-1,8.1-2.5,11.3-5.2
		c1.8-1.5,3.4-3.5,3.7-5.9c0.3-2.1-0.5-4.2-2.1-5.6c-1.9-1.7-4.5-2.3-6.9-2c-1.4,0.2-3,0.5-3.9,1.7c1.2-0.2,2.3-0.7,3.5-0.6
		C78.1,55.2,80.6,57,81,59.6z"/>
	<path d="M25.3,61.6c3,0.8,6.2,1,9.3,1.2c2.8,0.2,5.6,0.2,8.4,0.2c7.2-0.1,14.5-0.6,21.6-2.2c0.7-0.2,1.4-0.3,2-0.7
		c1.2-0.8,2.5-1.4,3.7-2c-5.8,0.9-11.5,1.7-17.4,2.1C47,60.7,41,61,35.1,60.6c-1.7-0.2-3.4-0.3-5-0.9c-0.4-0.2-0.9-0.5-0.7-1
		c0.3-0.6,1-0.9,1.6-1.2c2.5-1.2,5.3-1.9,8-2.7c-4.7-0.1-9.3,1.1-13.5,2.9c-0.9,0.5-2,0.8-2.8,1.6c-0.3,0.3-0.3,0.9,0,1.2
		C23.5,61.1,24.4,61.4,25.3,61.6z"/>
	<path d="M62.8,68c-4,0.7-8.1,1.4-12.2,1.6c-4.5,0.3-9,0-13.4-0.4c-0.9-0.1-1.7-0.3-2.5-0.6c-0.4-0.2-0.8-0.6-0.8-1.1
		c0-0.8,0.7-1.3,1.2-1.9c-1.4,0.5-2.9,1-4.1,2c-0.5,0.4-1,1-0.9,1.7c0.2,0.8,1,1.3,1.7,1.7c1.7,0.9,3.6,1.3,5.5,1.6
		c4.7,0.8,9.6,0.8,14.3,0.5c5-0.4,10.1-1.2,14.9-2.7C65.2,69.8,63.9,69.1,62.8,68z"/>
	<path d="M37.4,76c-1.3,0.4-2.6,0.8-3.7,1.7c-0.5,0.4-0.9,1.1-0.7,1.8c0.3,0.9,1.1,1.4,1.9,1.8c2,1.1,4.2,1.6,6.4,2
		c5,0.8,10.1,0.7,15-0.2c2.9-0.6,5.9-1.3,8.6-2.6c-1.8-0.7-3.5-1.6-5.2-2.5c-2.9,0.5-5.8,1-8.8,1.2c-3.9,0.3-7.9,0-11.8-0.5
		c-0.9-0.2-2.1-0.3-2.7-1.1C36.2,76.9,37,76.4,37.4,76z"/>
	<path d="M69,90.9c3.2-0.7,6.5-1.4,9.5-2.9c0.9-0.5,2.1-1.1,2.4-2.2c0.2-1.1-0.9-1.6-1.7-2.1c0.5,0.6,0.8,1.4,0.3,2
		c-0.8,1.1-2.2,1.5-3.4,1.9c-3.8,1.1-7.8,1.5-11.8,2c-10.5,0.9-21,1.2-31.5,0.3c-3.5-0.4-7.1-0.8-10.5-2c-0.5-0.2-1.3-0.5-1.3-1.2
		c0.2-0.6,0.8-1,1.3-1.3c2.4-1.2,5.1-1.9,7.8-2.1c-0.8-0.5-1.7-0.5-2.6-0.5c-2.2,0.1-4.4,0.6-6.6,1.4c-1.8,0.7-3.7,1.4-5.2,2.8
		c-0.6,0.5-1.1,1.5-0.5,2.2c0.9,1,2.4,1.2,3.6,1.6c7.1,1.2,14.3,1.9,21.6,2.2C50,93.2,59.6,92.7,69,90.9z"/>
	<path d="M78.5,92.1c-4.4,1.4-8.9,2.2-13.4,2.8c-7.8,1-15.6,1.3-23.4,1c-4.7-0.2-9.5-0.5-14.2-1.3c1.1,0.7,2.4,1,3.7,1.3
		c5.3,1.1,10.6,1.3,16,1.5c7.8,0.1,15.7-0.2,23.4-1.4c3.7-0.6,7.3-1.4,10.6-3.1c1.7-0.9,3.4-2.3,3.7-4.3
		C83.4,90.5,80.9,91.3,78.5,92.1z"/>
</g>
</svg>
