<?xml version="1.0" encoding="utf-8"?>
<!-- Generator: Adobe Illustrator 21.0.0, SVG Export Plug-In . SVG Version: 6.00 Build 0)  -->
<svg version="1.1" id="Layer_1" xmlns="http://www.w3.org/2000/svg" xmlns:xlink="http://www.w3.org/1999/xlink" x="0px" y="0px"
	 viewBox="0 0 100 100" style="enable-background:new 0 0 100 100;" xml:space="preserve">
<path d="M87.3,68.1c1.3-6.3-0.1-12.9-3.9-18.1c3.8-5.2,5.3-11.8,3.9-18.1c1.9-0.7,3.7-1.9,5.2-3.4c5.8-5.8,5.8-15.2,0-20.9
	C89.6,4.8,85.9,3.3,82,3.3c-4,0-7.7,1.5-10.5,4.3c-1.5,1.5-2.6,3.2-3.4,5.2c-6.3-1.3-12.9,0.1-18.1,3.9c-5.2-3.8-11.8-5.3-18.1-3.9
	c-0.7-1.9-1.9-3.7-3.4-5.2c-5.8-5.8-15.2-5.8-20.9,0c-5.8,5.8-5.8,15.2,0,20.9c1.5,1.5,3.2,2.6,5.2,3.4c-1.3,6.3,0.1,12.9,3.9,18.1
	c-3.8,5.2-5.3,11.8-3.9,18.1c-1.9,0.7-3.7,1.9-5.2,3.4c-5.8,5.8-5.8,15.2,0,20.9c2.9,2.9,6.7,4.3,10.5,4.3s7.6-1.4,10.5-4.3
	c1.5-1.5,2.6-3.2,3.4-5.2c6.3,1.3,12.9-0.1,18.1-3.9c5.2,3.8,11.8,5.3,18.1,3.9c0.7,1.9,1.9,3.7,3.4,5.1c2.9,2.9,6.7,4.3,10.5,4.3
	c3.8,0,7.6-1.4,10.5-4.3c5.8-5.8,5.8-15.2,0-20.9C90.9,70,89.2,68.9,87.3,68.1z M69.2,18.7l3.1,1.1l0.5-3.2c0.3-1.9,1.2-3.7,2.6-5.1
	c1.8-1.8,4.1-2.7,6.6-2.7s4.8,1,6.6,2.7c3.6,3.6,3.6,9.5,0,13.1c-1.4,1.4-3.2,2.3-5.1,2.6l-3.2,0.5l1.1,3.1c1.7,5.1,1,10.6-1.8,15
	l-5.1-5.1c0.6-1.4,1-3,1-4.6c0-3.1-1.2-6-3.4-8.2c-4-4-10.2-4.5-14.8-1.3c-0.5,0.4-1.1,0.8-1.5,1.3L37.6,46.1l-4.8-4.8l18.5-18.5
	c0.2-0.2,0.4-0.4,0.6-0.6C56.5,18,63.2,16.6,69.2,18.7z M69.9,36.2l-6.1-6.1c1.6,0,3.1,0.6,4.3,1.8C69.3,33,69.9,34.5,69.9,36.2
	C69.9,36.2,69.9,36.2,69.9,36.2z M50,58.5L41.5,50l8.5-8.5l8.5,8.5L50,58.5z M30.1,36.2c0-1.6,0.6-3.1,1.8-4.3
	c1.2-1.2,2.7-1.8,4.3-1.8L30.1,36.2z M11.5,24.6c-3.6-3.6-3.6-9.5,0-13.1c3.6-3.6,9.5-3.6,13.1,0c1.4,1.4,2.3,3.2,2.6,5.1l0.5,3.2
	l3.1-1.1c5.1-1.7,10.6-1,15,1.8l-5.1,5.1c-4.3-1.9-9.3-1-12.7,2.4c-4,4-4.5,10.2-1.3,14.8c0.4,0.5,0.8,1,1.3,1.5l18.1,18.1l-4.8,4.8
	L22.8,48.8c-0.2-0.2-0.4-0.4-0.6-0.6c-4.3-4.7-5.6-11.3-3.5-17.3l1.1-3.1l-3.2-0.5C14.6,26.9,12.9,26,11.5,24.6z M30.1,63.8l6,6
	c-1.6,0-3.1-0.6-4.3-1.8C30.7,66.9,30.1,65.4,30.1,63.8z M30.8,81.3l-3.1-1.1l-0.5,3.2c-0.3,1.9-1.2,3.7-2.6,5.1
	c-3.6,3.6-9.5,3.6-13.1,0c-3.6-3.6-3.6-9.5,0-13.1c1.4-1.4,3.2-2.3,5.1-2.6l3.2-0.5l-1.1-3.1c-1.7-5.1-1-10.6,1.8-15l5.1,5.1
	c-1.9,4.3-1,9.3,2.4,12.7c2.2,2.2,5.2,3.4,8.2,3.4c2.3,0,4.6-0.7,6.7-2.1c0.5-0.4,1.1-0.8,1.5-1.3l18.1-18.1l4.8,4.8L48.8,77.2
	c-0.2,0.2-0.4,0.4-0.6,0.6C43.5,82,36.8,83.4,30.8,81.3z M68.1,68.1c-1.1,1.1-2.6,1.8-4.3,1.8c0,0,0,0,0,0c0,0,0,0,0,0l6.1-6.1
	C69.9,65.4,69.3,66.9,68.1,68.1z M88.5,88.5c-3.6,3.6-9.5,3.6-13.1,0c-1.4-1.4-2.3-3.1-2.6-5.1l-0.5-3.2l-3.1,1.1
	c-5.1,1.7-10.6,1-15-1.8l5.1-5.1c1.4,0.6,3,1,4.5,1c0,0,0,0,0.1,0c3.1,0,6-1.2,8.1-3.4c4-4,4.5-10.2,1.3-14.8
	c-0.4-0.5-0.8-1-1.3-1.5L53.9,37.6l4.8-4.8l18.5,18.5c0.2,0.2,0.4,0.4,0.6,0.6c4.3,4.7,5.6,11.3,3.5,17.3l-1.1,3.1l3.2,0.5
	c1.9,0.3,3.7,1.2,5.1,2.6C92.2,79,92.2,84.9,88.5,88.5z"/>
</svg>
