<?xml version="1.0" encoding="utf-8"?>
<!-- Generator: Adobe Illustrator 22.0.1, SVG Export Plug-In . SVG Version: 6.00 Build 0)  -->
<svg version="1.1" id="Layer_1" xmlns="http://www.w3.org/2000/svg" xmlns:xlink="http://www.w3.org/1999/xlink" x="0px" y="0px"
	 viewBox="0 0 100 100" style="enable-background:new 0 0 100 100;" xml:space="preserve">
<path d="M81.4,3.2l-20.2,0c-2.1,0-4,1.4-4.6,3.5l-4.7,16.7H20.6c-1.4,0-2.6,0.6-3.5,1.6s-1.3,2.4-1.2,3.7l7.2,63.9
	c0.3,2.4,2.3,4.2,4.7,4.2H66c2.4,0,4.4-1.8,4.7-4.2l7.2-63.9c0.2-1.3-0.3-2.7-1.2-3.7c-0.9-1-2.2-1.6-3.5-1.6H57.6l4.1-14.7l19.6,0
	c0,0,0,0,0,0c1.5,0,2.7-1.2,2.8-2.7C84.1,4.5,82.9,3.2,81.4,3.2z M65.3,91.3H28.5l-4-35.6l5.2-2.8c3-1.6,6.6-1.7,9.7-0.2l0.9,0.4
	c4.3,2.1,9.3,2.1,13.7,0.2l1.9-0.9c3-1.4,6.4-1.3,9.3,0.3l4.2,2.2L65.3,91.3z M70.1,49l-2.3-1.2c-4.4-2.3-9.6-2.5-14.2-0.4l-1.9,0.9
	c-2.9,1.3-6.2,1.3-9-0.1l-0.9-0.4c-4.7-2.2-10.1-2.1-14.7,0.3l-3.3,1.8l-2.3-20.9h50.9L70.1,49z"/>
</svg>
