<?xml version="1.0" encoding="utf-8"?>
<!-- Generator: Adobe Illustrator 22.0.1, SVG Export Plug-In . SVG Version: 6.00 Build 0)  -->
<svg version="1.1" id="Layer_2_1_" xmlns="http://www.w3.org/2000/svg" xmlns:xlink="http://www.w3.org/1999/xlink" x="0px" y="0px"
	 viewBox="0 0 100 100" style="enable-background:new 0 0 100 100;" xml:space="preserve">
<path d="M92.7,67L75.2,49.5c-4.2-4.2-10.8-4.2-15,0l-2.9,2.9L11.1,6.1C10,5,8.2,5,7.2,6.1c-1.1,1.1-1.1,2.8,0,3.9l5.4,5.4L5,22.9
	c-1.1,1.1-1.1,2.8,0,3.9c0.5,0.5,1.2,0.8,1.9,0.8s1.4-0.3,1.9-0.8l7.6-7.6l9.3,9.3L14.8,39.4c-1.1,1.1-1.1,2.8,0,3.9
	c0.5,0.5,1.2,0.8,1.9,0.8s1.4-0.3,1.9-0.8l10.9-10.9l23.9,23.9L50.8,59c-4.2,4.2-4.2,10.8,0,14.9l17.5,17.6c2.1,2.1,4.8,3.1,7.5,3.1
	s5.4-1,7.5-3.1l9.5-9.5C96.9,77.9,96.9,71.2,92.7,67z M88.8,78.2l-9.5,9.5c-2,2-5.1,2-7.2,0L54.7,70.1c-1-1-1.5-2.3-1.5-3.6
	s0.5-2.6,1.5-3.6l9.5-9.5c1-1,2.3-1.5,3.6-1.5c1.3,0,2.6,0.5,3.6,1.5l17.5,17.5C90.9,72.9,90.9,76.1,88.8,78.2z"/>
</svg>
