<?xml version="1.0" encoding="utf-8"?>
<!-- Generator: Adobe Illustrator 22.0.1, SVG Export Plug-In . SVG Version: 6.00 Build 0)  -->
<svg version="1.1" id="Layer_2_1_" xmlns="http://www.w3.org/2000/svg" xmlns:xlink="http://www.w3.org/1999/xlink" x="0px" y="0px"
	 viewBox="0 0 100 100" style="enable-background:new 0 0 100 100;" xml:space="preserve">
<g>
	<path d="M95.7,23.1H4.3c-2.1,0-3.8,1.7-3.8,3.8v46.3c0,2.1,1.7,3.8,3.8,3.8h91.3c2.1,0,3.8-1.7,3.8-3.8V26.9
		C99.4,24.8,97.7,23.1,95.7,23.1z M93.9,71.4H6.1V28.6h87.8V71.4z"/>
	<path d="M70.5,60.1H29.5c-1.5,0-2.8,1.2-2.8,2.8s1.2,2.8,2.8,2.8h41.1c1.5,0,2.8-1.2,2.8-2.8S72.1,60.1,70.5,60.1z"/>
	<path d="M17.6,41.5h5.2c0.6,0,1-0.4,1-1v-4.6c0-0.6-0.4-1-1-1h-5.2c-0.6,0-1,0.4-1,1v4.6C16.6,41,17,41.5,17.6,41.5z"/>
	<path d="M37.5,41.5h5.2c0.6,0,1-0.4,1-1v-4.6c0-0.6-0.4-1-1-1h-5.2c-0.6,0-1,0.4-1,1v4.6C36.5,41,36.9,41.5,37.5,41.5z"/>
	<path d="M57.3,41.5h5.2c0.6,0,1-0.4,1-1v-4.6c0-0.6-0.4-1-1-1h-5.2c-0.6,0-1,0.4-1,1v4.6C56.3,41,56.8,41.5,57.3,41.5z"/>
	<path d="M77.2,41.5h5.2c0.6,0,1-0.4,1-1v-4.6c0-0.6-0.4-1-1-1h-5.2c-0.6,0-1,0.4-1,1v4.6C76.2,41,76.6,41.5,77.2,41.5z"/>
	<path d="M27.5,53.4h5.2c0.6,0,1-0.4,1-1v-4.6c0-0.6-0.4-1-1-1h-5.2c-0.6,0-1,0.4-1,1v4.6C26.5,52.9,27,53.4,27.5,53.4z"/>
	<path d="M47.4,53.4h5.2c0.6,0,1-0.4,1-1v-4.6c0-0.6-0.4-1-1-1h-5.2c-0.6,0-1,0.4-1,1v4.6C46.4,52.9,46.8,53.4,47.4,53.4z"/>
	<path d="M67.2,53.4h5.2c0.6,0,1-0.4,1-1v-4.6c0-0.6-0.4-1-1-1h-5.2c-0.6,0-1,0.4-1,1v4.6C66.2,52.9,66.7,53.4,67.2,53.4z"/>
</g>
</svg>
