<?xml version="1.0" encoding="utf-8"?>
<!-- Generator: Adobe Illustrator 22.0.1, SVG Export Plug-In . SVG Version: 6.00 Build 0)  -->
<svg version="1.1" id="Layer_2_1_" xmlns="http://www.w3.org/2000/svg" xmlns:xlink="http://www.w3.org/1999/xlink" x="0px" y="0px"
	 viewBox="0 0 100 100" style="enable-background:new 0 0 100 100;" xml:space="preserve">
<g>
	<path d="M93.3,33.1H80.6V11c0-2.5-2.1-4.6-4.6-4.6H13.2c-2.5,0-4.6,2.1-4.6,4.6v32.9c0,0.8,0.2,1.5,0.6,2.1
		c-0.4,0.5-0.7,1.1-0.9,1.8L2.6,75.3v0.1c-0.2,1.4,0.1,2.7,1,3.8c0.9,1,2.2,1.6,3.5,1.6h51.7v8.9c0,2.2,1.8,4,4,4h30.6
		c2.2,0,4-1.8,4-4V37.1C97.3,34.9,95.5,33.1,93.3,33.1z M58.8,75.3H8.2l5.3-25.6h45.3V75.3z M58.8,37.1v6H14.1V11.9h61v21.2H62.8
		C60.6,33.1,58.8,34.9,58.8,37.1z M91.8,88.3H64.3V38.6h27.5V88.3z"/>
	<path d="M77.2,44.9H80c1.1,0,2-0.9,2-2c0-1.1-0.9-2-2-2h-2.8c-1.1,0-2,0.9-2,2C75.2,44,76,44.9,77.2,44.9z"/>
	<circle cx="86.1" cy="42.9" r="1.7"/>
	<path d="M78.6,80.3c-1.7,0-3.1,1.4-3.1,3.1s1.4,3.1,3.1,3.1s3.1-1.4,3.1-3.1S80.3,80.3,78.6,80.3z"/>
</g>
</svg>
