<?xml version="1.0" encoding="utf-8"?>
<!-- Generator: Adobe Illustrator 22.0.1, SVG Export Plug-In . SVG Version: 6.00 Build 0)  -->
<svg version="1.1" id="Layer_2_1_" xmlns="http://www.w3.org/2000/svg" xmlns:xlink="http://www.w3.org/1999/xlink" x="0px" y="0px"
	 viewBox="0 0 100 100" style="enable-background:new 0 0 100 100;" xml:space="preserve">
<path d="M93.4,68.3l-11.8-6.8l11.5-6.4c1.4-0.6,2.2-2,2.3-3.5c0.1-1.7-0.8-3.2-2.2-4l-12.9-7.5L93.3,33c1.4-0.6,2.2-2,2.3-3.5
	c0.1-1.7-0.8-3.2-2.2-4L53.2,2.1c-1.4-0.9-3.1-0.9-4.4,0L6.6,25.5c-1.4,0.8-2.2,2.2-2.2,3.8c0,1.6,0.8,3,2.2,3.8l13.4,7L6.7,47.5
	c-1.4,0.8-2.2,2.2-2.2,3.8c0,1.6,0.8,3,2.3,3.9l12,6.3L6.7,68.2C5.4,69,4.5,70.4,4.5,72c0,1.6,0.8,3,2.2,3.8l42.1,22.1
	c0.6,0.4,1.4,0.7,2.2,0.7c0.7,0,1.5-0.2,2.2-0.6l40.2-22.1c1.4-0.6,2.2-2,2.3-3.5C95.7,70.7,94.9,69.2,93.4,68.3z M50.9,7.2l37.9,22
	L50.8,50.1L11.1,29.3L50.9,7.2z M25.8,43.2l23,12c0.6,0.4,1.4,0.6,2.1,0.6c0.9,0,1.7-0.3,2.5-0.9l21.5-11.8l13.9,8.1L51,72.2
	l-39.8-21L25.8,43.2z M51,92.8L11.2,72l13.3-7.4l24.2,12.8c0.6,0.5,1.4,0.7,2.2,0.7c0.7,0,1.5-0.2,2.2-0.6l22.9-12.7L88.9,72
	L51,92.8z"/>
</svg>
