<?xml version="1.0" encoding="utf-8"?>
<!-- Generator: Adobe Illustrator 22.0.1, SVG Export Plug-In . SVG Version: 6.00 Build 0)  -->
<svg version="1.1" id="Layer_2_1_" xmlns="http://www.w3.org/2000/svg" xmlns:xlink="http://www.w3.org/1999/xlink" x="0px" y="0px"
	 viewBox="0 0 100 100" style="enable-background:new 0 0 100 100;" xml:space="preserve">
<path d="M90.8,3.5H9.2c-3.1,0-5.7,2.6-5.7,5.7v81.6c0,3.1,2.6,5.7,5.7,5.7h81.5c3,0,5.6-2.4,5.8-5.5l0-81.8
	C96.5,6.1,93.9,3.5,90.8,3.5z M9.2,9h81.6C90.9,9,91,9.1,91,9.2v14.6H9V9.2C9,9.1,9.1,9,9.2,9z M36.5,29.3H91v28.1H36.5V29.3z
	 M9,90.8V29.3h22V91H9.2C9.1,91,9,90.9,9,90.8z M90.7,91H36.5V62.9H91v27.7C91,90.8,90.8,91,90.7,91z"/>
</svg>
