<?xml version="1.0" encoding="utf-8"?>
<!-- Generator: Adobe Illustrator 22.0.1, SVG Export Plug-In . SVG Version: 6.00 Build 0)  -->
<svg version="1.1" id="Layer_1" xmlns="http://www.w3.org/2000/svg" xmlns:xlink="http://www.w3.org/1999/xlink" x="0px" y="0px"
	 viewBox="0 0 100 100" style="enable-background:new 0 0 100 100;" xml:space="preserve">
<path d="M95.5,91.7L83.9,80.2l0.2-0.2c7.2-8.2,10.7-18.6,9.6-28.5C90.5,25.4,48.8,11.1,14.3,3.7L14,3.6h-0.3
	c-2.4-0.2-4.9,0.5-6.8,1.9L6,6.4C4.1,8.5,3.3,11.3,4,14c7.4,34.6,21.7,76.5,47.9,79.2c1.4,0.2,2.7,0.2,4,0.2c1.1,0,2.3,0,3.4-0.2
	c7.1-0.6,14.6-4,20.6-9.3l11.7,11.7c0.5,0.5,1.2,0.8,1.9,0.8s1.4-0.3,1.9-0.8C96.5,94.5,96.5,92.8,95.5,91.7z M58.7,87.8l-0.2,0
	c-0.8,0.1-1.8,0.1-2.7,0.1c-1.2,0-2.3,0-3.4-0.1c-17.9-1.9-33.2-28.5-43.1-75c-0.2-1,0-1.9,0.7-2.7l0.2-0.2c0.9-0.6,2-0.9,3.1-0.8
	l0.1,0c26.8,5.8,71.9,19.1,74.8,43c0.9,8.3-2.1,17.1-8.2,24.1l0,0l-7.6-7.6l0.3-16.1c0-1.5-1.2-2.8-2.7-2.8c-1.5,0-2.8,1.2-2.8,2.7
	l-0.2,10.8L49.8,46.1c-1.1-1.1-2.8-1.1-3.9,0c-1.1,1.1-1.1,2.8,0,3.9l8.8,8.8l-9.8,2.5c-1.5,0.4-2.4,1.9-2,3.3
	c0.3,1.2,1.4,2.1,2.7,2.1c0.2,0,0.5,0,0.7-0.1l12.9-3.3l8.5,8.5c0,0,0,0,0,0L76,80C70.9,84.5,64.6,87.3,58.7,87.8z"/>
</svg>
