<?xml version="1.0" encoding="utf-8"?>
<!-- Generator: Adobe Illustrator 22.0.1, SVG Export Plug-In . SVG Version: 6.00 Build 0)  -->
<svg version="1.1" id="Layer_1" xmlns="http://www.w3.org/2000/svg" xmlns:xlink="http://www.w3.org/1999/xlink" x="0px" y="0px"
	 viewBox="0 0 100 100" style="enable-background:new 0 0 100 100;" xml:space="preserve">
<g>
	<path d="M92.4,15.7H55c-1.9,0-3.6,0.7-5,1.8c-1.4-1.1-3.1-1.8-5-1.8H7.6c-2.6,0-4.8,2.1-4.8,4.8v56.1c0,2.6,2.1,4.8,4.8,4.8h39.5
		v0.2c0,1.5,1.2,2.8,2.8,2.8s2.8-1.2,2.8-2.8v-0.2h0.2h39.7c2.6,0,4.8-2.1,4.8-4.8V20.4C97.2,17.8,95.1,15.7,92.4,15.7z M8.3,21.2
		H45c1.2,0,2.3,1,2.3,2.3v52c0,0.1-0.1,0.2-0.1,0.4H8.3V21.2z M91.7,75.8H52.8V23.4c0-1.2,1-2.3,2.3-2.3h36.7V75.8z"/>
	<path d="M35.9,32.4H19.6c-1.5,0-2.8,1.2-2.8,2.8s1.2,2.8,2.8,2.8h16.3c1.5,0,2.8-1.2,2.8-2.8S37.4,32.4,35.9,32.4z"/>
	<path d="M64.7,37.9h16.3c1.5,0,2.8-1.2,2.8-2.8s-1.2-2.8-2.8-2.8H64.7c-1.5,0-2.8,1.2-2.8,2.8S63.1,37.9,64.7,37.9z"/>
	<path d="M64.7,49.8h16.3c1.5,0,2.8-1.2,2.8-2.8s-1.2-2.8-2.8-2.8H64.7c-1.5,0-2.8,1.2-2.8,2.8S63.1,49.8,64.7,49.8z"/>
	<path d="M35.9,44.3H19.6c-1.5,0-2.8,1.2-2.8,2.8s1.2,2.8,2.8,2.8h16.3c1.5,0,2.8-1.2,2.8-2.8S37.4,44.3,35.9,44.3z"/>
	<path d="M35.9,56.2H19.6c-1.5,0-2.8,1.2-2.8,2.8s1.2,2.8,2.8,2.8h16.3c1.5,0,2.8-1.2,2.8-2.8S37.4,56.2,35.9,56.2z"/>
	<path d="M64.7,61.7h16.3c1.5,0,2.8-1.2,2.8-2.8s-1.2-2.8-2.8-2.8H64.7c-1.5,0-2.8,1.2-2.8,2.8S63.1,61.7,64.7,61.7z"/>
</g>
</svg>
