<?xml version="1.0" encoding="utf-8"?>
<!-- Generator: Adobe Illustrator 22.0.1, SVG Export Plug-In . SVG Version: 6.00 Build 0)  -->
<svg version="1.1" id="Layer_2_1_" xmlns="http://www.w3.org/2000/svg" xmlns:xlink="http://www.w3.org/1999/xlink" x="0px" y="0px"
	 viewBox="0 0 100 100" style="enable-background:new 0 0 100 100;" xml:space="preserve">
<g>
	<path d="M92.8,15.8H7.2c-2.9,0-5.3,2.4-5.3,5.3v57.8c0,2.9,2.4,5.3,5.3,5.3h85.7c1.5,0,2.9-0.6,3.9-1.7c0.9-1,1.4-2.4,1.3-3.7V21.1
		C98.1,18.1,95.7,15.8,92.8,15.8z M92.6,78.7H7.4V21.3h85.2V78.7z"/>
	<circle cx="25.1" cy="42.4" r="8.4"/>
	<path d="M81,62.1H20.5c-1.5,0-2.8,1.2-2.8,2.8s1.2,2.8,2.8,2.8H81c1.5,0,2.8-1.2,2.8-2.8S82.6,62.1,81,62.1z"/>
	<path d="M61.7,40H81c1.5,0,2.8-1.2,2.8-2.8s-1.2-2.8-2.8-2.8H61.7c-1.5,0-2.8,1.2-2.8,2.8S60.2,40,61.7,40z"/>
	<path d="M61.7,53.1H81c1.5,0,2.8-1.2,2.8-2.8s-1.2-2.8-2.8-2.8H61.7c-1.5,0-2.8,1.2-2.8,2.8S60.2,53.1,61.7,53.1z"/>
</g>
</svg>
