<?xml version="1.0" encoding="utf-8"?>
<!-- Generator: Adobe Illustrator 21.0.0, SVG Export Plug-In . SVG Version: 6.00 Build 0)  -->
<svg version="1.1" id="Layer_1" xmlns="http://www.w3.org/2000/svg" xmlns:xlink="http://www.w3.org/1999/xlink" x="0px" y="0px"
	 viewBox="0 0 100 100" style="enable-background:new 0 0 100 100;" xml:space="preserve">
<g>
	<path d="M18.3,44.2c-1.1,0-2.3,0.3-3.2,1c-0.8,0.5-1.3,1.2-1.8,1.8L12.5,48l-1-1.2c-1.1-1.5-3-2.5-4.9-2.5c-3.3,0-6,2.7-6,6
		s2.7,6,6,6c1.9,0,3.6-0.9,4.8-2.4l1.1-1.3l1,1.3c1.1,1.5,3,2.5,4.9,2.5c3.3,0,6-2.7,6-6C24.3,46.9,21.6,44.2,18.3,44.2z M9.2,52.2
		c-0.7,0.9-1.5,1.3-2.6,1.3c-1.9,0-3.3-1.4-3.3-3.3c0-1.9,1.4-3.3,3.3-3.3c1.1,0,2.1,0.5,2.7,1.4l1.4,1.9L9.2,52.2z M18.3,53.5
		c-1.1,0-2.1-0.5-2.6-1.4L15.5,52l-1.4-1.8l1.3-1.8c0.4-0.5,0.8-0.9,1.1-1.1c0.5-0.3,1.1-0.5,1.8-0.5c1.9,0,3.3,1.4,3.3,3.3
		C21.6,52,20,53.5,18.3,53.5z"/>
	<path d="M34.2,52.6h-3.5v-7.2c0-0.4-0.1-0.8-0.4-1c-0.2-0.2-0.7-0.3-1.1-0.3s-0.8,0.1-1,0.3c-0.2,0.2-0.3,0.5-0.3,1v8.2
		c0,0.4,0.1,0.8,0.3,1c0.2,0.2,0.5,0.3,1,0.3h5c0.4,0,0.8-0.1,1-0.3s0.3-0.4,0.3-0.9C35.5,53.1,35.1,52.6,34.2,52.6z"/>
	<path d="M39.5,43.9c-0.3-0.2-0.7-0.3-1.1-0.3s-0.9,0.1-1.1,0.3c-0.3,0.3-0.4,0.5-0.4,1s0.1,0.8,0.4,1c0.2,0.2,0.7,0.3,1.1,0.3
		s0.9-0.1,1.1-0.3s0.4-0.5,0.4-1C39.9,44.4,39.8,44.1,39.5,43.9z"/>
	<path d="M39.4,47.6c-0.3-0.2-0.7-0.3-1-0.3c-0.4,0-0.8,0.1-1,0.3s-0.4,0.5-0.4,1v5.3c0,0.4,0.1,0.8,0.4,1c0.2,0.2,0.5,0.3,1,0.3
		s0.8-0.1,1-0.3s0.4-0.5,0.4-1v-5.3C39.8,48.1,39.7,47.8,39.4,47.6z"/>
	<path d="M46.9,47.3c-0.5,0-1,0.1-1.4,0.3c-0.4,0.2-0.8,0.5-1,0.9c0-0.3-0.1-0.7-0.3-0.9c-0.2-0.2-0.5-0.3-0.9-0.3
		c-0.4,0-0.8,0.1-1,0.3s-0.4,0.5-0.4,0.9v5.3c0,0.4,0.1,0.7,0.3,0.9c0.2,0.2,0.5,0.3,1,0.3s0.8-0.1,1-0.3c0.2-0.2,0.3-0.5,0.3-0.9
		v-3.1c0-0.4,0.1-0.8,0.3-1.1c0.2-0.2,0.5-0.4,1-0.4c0.3,0,0.5,0.1,0.8,0.3c0.1,0.2,0.2,0.5,0.2,1v3.2c0,0.4,0.1,0.7,0.3,0.9
		s0.5,0.3,1,0.3s0.8-0.1,1-0.3s0.3-0.5,0.3-0.9v-3.3c0-1.1-0.2-1.9-0.7-2.4C48.5,47.5,47.8,47.3,46.9,47.3z"/>
	<path d="M58.5,51.5c0.1-0.1,0.1-0.3,0.1-0.5c0-0.8-0.1-1.4-0.4-2c-0.3-0.5-0.7-1-1.2-1.3c-0.5-0.3-1.1-0.4-1.9-0.4
		c-0.8,0-1.4,0.2-2,0.5c-0.5,0.3-1,0.8-1.3,1.4c-0.3,0.5-0.4,1.3-0.4,2.1c0,0.8,0.2,1.5,0.5,2.1c0.3,0.5,0.8,1.1,1.4,1.3
		s1.3,0.4,2.2,0.4c0.4,0,0.9-0.1,1.3-0.2c0.4-0.1,0.9-0.2,1.2-0.4c0.4-0.2,0.5-0.5,0.5-1c0-0.3-0.1-0.5-0.2-0.8
		c-0.1-0.2-0.3-0.3-0.5-0.3c-0.1,0-0.2,0-0.4,0.1c-0.1,0-0.3,0.1-0.4,0.1c-0.2,0.1-0.5,0.2-0.8,0.2C55.9,53,55.7,53,55.5,53
		c-0.4,0-0.9-0.1-1.1-0.3S54,52.1,54,51.5H58C58.2,51.6,58.3,51.6,58.5,51.5z M54,50.4c0-0.4,0.2-0.8,0.4-1s0.5-0.3,0.9-0.3
		c0.8,0,1.1,0.4,1.2,1.3H54z"/>
	<path d="M62.1,44.1c-0.4,0-0.8,0.1-1,0.3s-0.3,0.5-0.3,1v8.2c0,0.4,0.1,0.8,0.3,1s0.5,0.3,1,0.3c0.4,0,0.8-0.1,1.1-0.3
		c0.2-0.2,0.3-0.5,0.3-1v-8.2c0-0.4-0.1-0.8-0.3-1C62.8,44.2,62.5,44.1,62.1,44.1z"/>
	<path d="M71.2,52.5c-0.1,0-0.3,0-0.4,0.1c-0.1,0-0.3,0.1-0.5,0.2C70,53,69.9,53,69.6,53.1c-0.2,0.1-0.3,0.1-0.4,0.1
		c-0.4,0-0.9-0.1-1.1-0.4c-0.2-0.3-0.4-0.8-0.4-1.4c0-1.4,0.5-2.1,1.5-2.1c0.2,0,0.3,0,0.4,0.1c0.1,0.1,0.3,0.1,0.5,0.2
		c0.2,0.1,0.3,0.1,0.4,0.2c0.1,0,0.3,0.1,0.4,0.1c0.2,0,0.4-0.1,0.5-0.3s0.2-0.4,0.2-0.8c0-0.4-0.1-0.7-0.4-0.9
		c-0.3-0.2-0.7-0.3-1.1-0.4s-0.9-0.2-1.3-0.2c-0.8,0-1.5,0.1-2.2,0.4c-0.7,0.3-1.1,0.8-1.4,1.4c-0.3,0.7-0.5,1.3-0.5,2.1
		c0,1.2,0.3,2.2,1.1,2.9c0.8,0.7,1.6,1.1,3,1.1c1,0,1.9-0.2,2.6-0.7c0.1-0.1,0.2-0.2,0.3-0.3c0.1-0.1,0.1-0.3,0.1-0.5
		c0-0.3-0.1-0.5-0.2-0.8C71.6,52.6,71.4,52.5,71.2,52.5z"/>
	<path d="M79.5,47.7c-0.7-0.3-1.3-0.4-2.2-0.4s-1.5,0.1-2.2,0.4C74.5,48,74,48.5,73.7,49c-0.3,0.5-0.5,1.3-0.5,2.1
		c0,0.8,0.2,1.5,0.5,2.1c0.3,0.5,0.9,1.1,1.4,1.4c0.5,0.3,1.3,0.4,2.2,0.4s1.5-0.1,2.2-0.4c0.7-0.3,1.1-0.8,1.4-1.4
		c0.3-0.5,0.5-1.3,0.5-2.1c0-0.8-0.2-1.5-0.5-2.1C80.6,48.5,80.1,48,79.5,47.7z M77.3,53.1c-1,0-1.4-0.7-1.4-1.9
		c0-1.3,0.4-1.9,1.4-1.9s1.4,0.7,1.4,1.9C78.8,52.4,78.2,53.1,77.3,53.1z"/>
	<path d="M88.3,47.3c-0.5,0-1,0.1-1.4,0.3s-0.8,0.5-1,0.9c0-0.3-0.1-0.7-0.3-0.9c-0.2-0.2-0.5-0.3-0.9-0.3c-0.4,0-0.8,0.1-1,0.3
		s-0.4,0.5-0.4,0.9v5.3c0,0.4,0.1,0.7,0.3,0.9c0.2,0.2,0.5,0.3,1,0.3s0.8-0.1,1-0.3c0.2-0.2,0.3-0.5,0.3-0.9v-3.1
		c0-0.4,0.1-0.8,0.3-1.1c0.2-0.2,0.5-0.4,1-0.4c0.3,0,0.5,0.1,0.8,0.3c0.1,0.2,0.2,0.5,0.2,1v3.2c0,0.4,0.1,0.7,0.3,0.9
		c0.2,0.2,0.5,0.3,1,0.3s0.8-0.1,1-0.3s0.3-0.5,0.3-0.9v-3.3c0-1.1-0.2-1.9-0.7-2.4C90,47.5,89.2,47.3,88.3,47.3z"/>
	<path d="M98.8,51.1c-0.4-0.3-1.1-0.7-2.1-0.8c-0.5-0.1-1-0.2-1.2-0.3c-0.2-0.1-0.3-0.2-0.3-0.4c0-0.1,0.1-0.2,0.2-0.3
		c0.1-0.1,0.3-0.1,0.5-0.1c0.2,0,0.4,0,0.7,0.1c0.2,0.1,0.4,0.1,0.7,0.2c0.3,0.2,0.7,0.2,1,0.2c0.2,0,0.4-0.1,0.5-0.3
		c0.1-0.2,0.2-0.4,0.2-0.8c0-0.4-0.1-0.7-0.4-0.9s-0.8-0.3-1.2-0.4S96.5,47,96.1,47c-0.7,0-1.2,0.1-1.8,0.3
		c-0.5,0.2-0.9,0.5-1.2,0.9c-0.2,0.5-0.3,1-0.3,1.4c0,0.7,0.2,1.1,0.7,1.5c0.4,0.3,1.1,0.7,2,0.8c0.5,0.1,0.9,0.2,1.1,0.2
		c0.2,0.1,0.3,0.1,0.4,0.2c0.1,0.1,0.1,0.1,0.1,0.2c0,0.1-0.1,0.2-0.2,0.3c-0.1,0.1-0.3,0.1-0.7,0.1c-0.4,0-0.7,0-1-0.1
		c-0.2-0.1-0.5-0.1-0.9-0.2c-0.2-0.1-0.3-0.1-0.4-0.2c-0.1-0.1-0.3,0-0.4,0c-0.2,0-0.4,0.1-0.5,0.2c-0.1,0.2-0.2,0.4-0.2,0.7
		s0,0.4,0.1,0.5c0.1,0.2,0.2,0.3,0.3,0.3c0.3,0.2,0.8,0.4,1.2,0.4c0.4,0.1,1.1,0.1,1.8,0.1c1.1,0,1.9-0.2,2.5-0.7
		c0.7-0.4,0.9-1.1,0.9-1.8C99.5,52,99.3,51.4,98.8,51.1z"/>
</g>
</svg>
