<?xml version="1.0" encoding="utf-8"?>
<!-- Generator: Adobe Illustrator 22.0.1, SVG Export Plug-In . SVG Version: 6.00 Build 0)  -->
<svg version="1.1" id="Layer_1" xmlns="http://www.w3.org/2000/svg" xmlns:xlink="http://www.w3.org/1999/xlink" x="0px" y="0px"
	 viewBox="0 0 100 100" style="enable-background:new 0 0 100 100;" xml:space="preserve">
<g>
	<path d="M21.1,44.7c-1,0-2.1,0.3-2.9,0.9c-0.7,0.5-1.2,1.1-1.6,1.6l-0.8,1l-0.9-1.1c-1-1.4-2.7-2.3-4.5-2.3c-3,0-5.5,2.5-5.5,5.5
		s2.5,5.5,5.5,5.5c1.7,0,3.3-0.8,4.4-2.2l1-1.2l0.9,1.2c1,1.4,2.7,2.3,4.5,2.3c3,0,5.5-2.5,5.5-5.5C26.6,47.2,24.1,44.7,21.1,44.7z
		 M12.8,52c-0.6,0.8-1.4,1.2-2.4,1.2c-1.7,0-3-1.3-3-3s1.3-3,3-3c1,0,1.9,0.5,2.5,1.3l1.3,1.7L12.8,52z M21.1,53.2
		c-1,0-1.9-0.5-2.4-1.3l-0.1-0.1l-1.3-1.6l1.2-1.6c0.4-0.5,0.7-0.8,1-1c0.5-0.3,1-0.5,1.6-0.5c1.7,0,3,1.3,3,3S22.7,53.2,21.1,53.2z
		"/>
	<path d="M35.6,52.4h-3.2v-6.6c0-0.4-0.1-0.7-0.4-0.9c-0.2-0.2-0.6-0.3-1-0.3s-0.7,0.1-0.9,0.3c-0.2,0.2-0.3,0.5-0.3,0.9v7.5
		c0,0.4,0.1,0.7,0.3,0.9c0.2,0.2,0.5,0.3,0.9,0.3h4.6c0.4,0,0.7-0.1,0.9-0.3s0.3-0.4,0.3-0.8C36.8,52.8,36.4,52.4,35.6,52.4z"/>
	<path d="M40.4,44.4c-0.3-0.2-0.6-0.3-1-0.3c-0.4,0-0.8,0.1-1,0.3c-0.3,0.3-0.4,0.5-0.4,0.9c0,0.4,0.1,0.7,0.4,0.9
		c0.2,0.2,0.6,0.3,1,0.3c0.4,0,0.8-0.1,1-0.3c0.2-0.2,0.4-0.5,0.4-0.9C40.8,44.9,40.7,44.6,40.4,44.4z"/>
	<path d="M40.3,47.8c-0.3-0.2-0.6-0.3-0.9-0.3c-0.4,0-0.7,0.1-0.9,0.3c-0.2,0.2-0.4,0.5-0.4,0.9v4.8c0,0.4,0.1,0.7,0.4,0.9
		c0.2,0.2,0.5,0.3,0.9,0.3c0.4,0,0.7-0.1,0.9-0.3s0.4-0.5,0.4-0.9v-4.8C40.7,48.3,40.6,48,40.3,47.8z"/>
	<path d="M47.2,47.5c-0.5,0-0.9,0.1-1.3,0.3c-0.4,0.2-0.7,0.5-0.9,0.8c0-0.3-0.1-0.6-0.3-0.8c-0.2-0.2-0.5-0.3-0.8-0.3
		c-0.4,0-0.7,0.1-0.9,0.3c-0.2,0.2-0.4,0.5-0.4,0.8v4.8c0,0.4,0.1,0.6,0.3,0.8c0.2,0.2,0.5,0.3,0.9,0.3c0.4,0,0.7-0.1,0.9-0.3
		s0.3-0.5,0.3-0.8v-2.8c0-0.4,0.1-0.7,0.3-1c0.2-0.2,0.5-0.4,0.9-0.4c0.3,0,0.5,0.1,0.7,0.3c0.1,0.2,0.2,0.5,0.2,0.9v2.9
		c0,0.4,0.1,0.6,0.3,0.8c0.2,0.2,0.5,0.3,0.9,0.3c0.4,0,0.7-0.1,0.9-0.3s0.3-0.5,0.3-0.8v-3c0-1-0.2-1.7-0.6-2.2
		C48.6,47.7,48,47.5,47.2,47.5z"/>
	<path d="M57.7,51.4c0.1-0.1,0.1-0.3,0.1-0.5c0-0.7-0.1-1.3-0.4-1.8c-0.3-0.5-0.6-0.9-1.1-1.2s-1-0.4-1.7-0.4
		c-0.7,0-1.3,0.2-1.8,0.5c-0.5,0.3-0.9,0.7-1.2,1.3c-0.3,0.5-0.4,1.2-0.4,1.9s0.2,1.4,0.5,1.9s0.7,1,1.3,1.2c0.6,0.2,1.2,0.4,2,0.4
		c0.4,0,0.8-0.1,1.2-0.2c0.4-0.1,0.8-0.2,1.1-0.4c0.4-0.2,0.5-0.5,0.5-0.9c0-0.3-0.1-0.5-0.2-0.7c-0.1-0.2-0.3-0.3-0.5-0.3
		c-0.1,0-0.2,0-0.4,0.1c-0.1,0-0.3,0.1-0.4,0.1c-0.2,0.1-0.5,0.2-0.7,0.2c-0.2,0.1-0.4,0.1-0.6,0.1c-0.4,0-0.8-0.1-1-0.3
		s-0.4-0.5-0.4-1h3.7C57.5,51.5,57.6,51.5,57.7,51.4z M53.6,50.4c0-0.4,0.2-0.7,0.4-0.9c0.2-0.2,0.5-0.3,0.8-0.3
		c0.7,0,1,0.4,1.1,1.2H53.6z"/>
	<path d="M61,44.6c-0.4,0-0.7,0.1-0.9,0.3c-0.2,0.2-0.3,0.5-0.3,0.9v7.5c0,0.4,0.1,0.7,0.3,0.9c0.2,0.2,0.5,0.3,0.9,0.3
		s0.7-0.1,1-0.3c0.2-0.2,0.3-0.5,0.3-0.9v-7.5c0-0.4-0.1-0.7-0.3-0.9C61.7,44.7,61.4,44.6,61,44.6z"/>
	<path d="M69.3,52.3c-0.1,0-0.3,0-0.4,0.1c-0.1,0-0.3,0.1-0.5,0.2c-0.2,0.1-0.3,0.1-0.5,0.2c-0.2,0.1-0.3,0.1-0.4,0.1
		c-0.4,0-0.8-0.1-1-0.4c-0.2-0.3-0.4-0.7-0.4-1.3c0-1.3,0.5-1.9,1.4-1.9c0.2,0,0.3,0,0.4,0.1c0.1,0.1,0.3,0.1,0.5,0.2
		c0.2,0.1,0.3,0.1,0.4,0.2c0.1,0,0.3,0.1,0.4,0.1c0.2,0,0.4-0.1,0.5-0.3s0.2-0.4,0.2-0.7c0-0.4-0.1-0.6-0.4-0.8s-0.6-0.3-1-0.4
		c-0.4-0.1-0.8-0.2-1.2-0.2c-0.7,0-1.4,0.1-2,0.4c-0.6,0.3-1,0.7-1.3,1.3c-0.3,0.6-0.5,1.2-0.5,1.9c0,1.1,0.3,2,1,2.6
		c0.7,0.6,1.5,1,2.7,1c0.9,0,1.7-0.2,2.4-0.6c0.1-0.1,0.2-0.2,0.3-0.3c0.1-0.1,0.1-0.3,0.1-0.5c0-0.3-0.1-0.5-0.2-0.7
		C69.7,52.4,69.5,52.3,69.3,52.3z"/>
	<path d="M76.9,47.9c-0.6-0.3-1.2-0.4-2-0.4c-0.8,0-1.4,0.1-2,0.4c-0.6,0.3-1,0.7-1.3,1.2c-0.3,0.5-0.5,1.2-0.5,1.9
		c0,0.7,0.2,1.4,0.5,1.9c0.3,0.5,0.8,1,1.3,1.3s1.2,0.4,2,0.4c0.8,0,1.4-0.1,2-0.4c0.6-0.3,1-0.7,1.3-1.3c0.3-0.5,0.5-1.2,0.5-1.9
		c0-0.7-0.2-1.4-0.5-1.9S77.4,48.2,76.9,47.9z M74.9,52.8c-0.9,0-1.3-0.6-1.3-1.7c0-1.2,0.4-1.7,1.3-1.7c0.9,0,1.3,0.6,1.3,1.7
		C76.2,52.2,75.7,52.8,74.9,52.8z"/>
	<path d="M84.9,47.5c-0.5,0-0.9,0.1-1.3,0.3c-0.4,0.2-0.7,0.5-0.9,0.8c0-0.3-0.1-0.6-0.3-0.8c-0.2-0.2-0.5-0.3-0.8-0.3
		c-0.4,0-0.7,0.1-0.9,0.3c-0.2,0.2-0.4,0.5-0.4,0.8v4.8c0,0.4,0.1,0.6,0.3,0.8s0.5,0.3,0.9,0.3s0.7-0.1,0.9-0.3
		c0.2-0.2,0.3-0.5,0.3-0.8v-2.8c0-0.4,0.1-0.7,0.3-1c0.2-0.2,0.5-0.4,0.9-0.4c0.3,0,0.5,0.1,0.7,0.3c0.1,0.2,0.2,0.5,0.2,0.9v2.9
		c0,0.4,0.1,0.6,0.3,0.8c0.2,0.2,0.5,0.3,0.9,0.3s0.7-0.1,0.9-0.3c0.2-0.2,0.3-0.5,0.3-0.8v-3c0-1-0.2-1.7-0.6-2.2
		C86.4,47.7,85.7,47.5,84.9,47.5z"/>
	<path d="M94.5,51c-0.4-0.3-1-0.6-1.9-0.7c-0.5-0.1-0.9-0.2-1.1-0.3c-0.2-0.1-0.3-0.2-0.3-0.4c0-0.1,0.1-0.2,0.2-0.3
		c0.1-0.1,0.3-0.1,0.5-0.1c0.2,0,0.4,0,0.6,0.1c0.2,0.1,0.4,0.1,0.6,0.2c0.3,0.2,0.6,0.2,0.9,0.2c0.2,0,0.4-0.1,0.5-0.3
		s0.2-0.4,0.2-0.7c0-0.4-0.1-0.6-0.4-0.8s-0.7-0.3-1.1-0.4c-0.4-0.1-0.8-0.2-1.2-0.2c-0.6,0-1.1,0.1-1.6,0.3s-0.8,0.5-1.1,0.8
		c-0.2,0.5-0.3,0.9-0.3,1.3c0,0.6,0.2,1,0.6,1.4c0.4,0.3,1,0.6,1.8,0.7c0.5,0.1,0.8,0.2,1,0.2c0.2,0.1,0.3,0.1,0.4,0.2
		c0.1,0.1,0.1,0.1,0.1,0.2s-0.1,0.2-0.2,0.3c-0.1,0.1-0.3,0.1-0.6,0.1c-0.4,0-0.6,0-0.9-0.1c-0.2-0.1-0.5-0.1-0.8-0.2
		c-0.2-0.1-0.3-0.1-0.4-0.2c-0.1-0.1-0.3,0-0.4,0c-0.2,0-0.4,0.1-0.5,0.2c-0.1,0.2-0.2,0.4-0.2,0.6s0,0.4,0.1,0.5
		c0.1,0.2,0.2,0.3,0.3,0.3c0.3,0.2,0.7,0.4,1.1,0.4c0.4,0.1,1,0.1,1.6,0.1c1,0,1.7-0.2,2.3-0.6c0.6-0.4,0.8-1,0.8-1.6
		C95.1,51.8,94.9,51.3,94.5,51z"/>
</g>
</svg>
