<?xml version="1.0" encoding="utf-8"?>
<!-- Generator: Adobe Illustrator 23.0.1, SVG Export Plug-In . SVG Version: 6.00 Build 0)  -->
<svg version="1.1" id="Layer_1" xmlns="http://www.w3.org/2000/svg" xmlns:xlink="http://www.w3.org/1999/xlink" x="0px" y="0px"
	 viewBox="0 0 100 100" style="enable-background:new 0 0 100 100;" xml:space="preserve">
<path d="M94.05,43.78C94.05,24.06,74.29,8.03,50,8.03c-24.29,0-44.05,16.04-44.05,35.75c0,17.67,15.67,32.47,36.84,35.27
	c1.43,0.31,3.39,0.95,3.88,2.17c0.44,1.11,0.29,2.86,0.14,3.98c0,0-0.52,3.11-0.63,3.77c-0.19,1.11-0.89,4.36,3.82,2.37
	c4.7-1.98,25.37-14.94,34.61-25.58h0C90.99,58.77,94.05,51.66,94.05,43.78z M34.46,54.3c0,0.47-0.38,0.86-0.86,0.86H21.26h0
	c-0.23,0-0.44-0.09-0.59-0.24c0,0-0.01-0.01-0.01-0.01c0,0-0.01-0.01-0.01-0.01c-0.15-0.15-0.24-0.36-0.24-0.59v0V35.11
	c0-0.47,0.38-0.86,0.86-0.86h3.09c0.47,0,0.86,0.38,0.86,0.86v15.24h8.4c0.47,0,0.86,0.38,0.86,0.86V54.3z M41.91,54.3
	c0,0.47-0.38,0.86-0.86,0.86h-3.09c-0.47,0-0.86-0.38-0.86-0.86V35.11c0-0.47,0.38-0.86,0.86-0.86h3.09c0.47,0,0.86,0.38,0.86,0.86
	V54.3z M63.18,54.3c0,0.47-0.38,0.86-0.86,0.86h-3.09c-0.08,0-0.15-0.01-0.22-0.03c0,0-0.01,0-0.01,0
	c-0.02-0.01-0.04-0.01-0.06-0.02c-0.01,0-0.02-0.01-0.03-0.01c-0.01-0.01-0.03-0.01-0.04-0.02c-0.01-0.01-0.03-0.01-0.04-0.02
	c-0.01,0-0.02-0.01-0.02-0.01c-0.02-0.01-0.04-0.02-0.05-0.03c0,0-0.01,0-0.01-0.01c-0.08-0.06-0.16-0.13-0.22-0.21L49.72,42.9v11.4
	c0,0.47-0.38,0.86-0.86,0.86h-3.09c-0.47,0-0.86-0.38-0.86-0.86V35.11c0-0.47,0.38-0.86,0.86-0.86h3.09c0.01,0,0.02,0,0.03,0
	c0.02,0,0.03,0,0.04,0c0.02,0,0.03,0,0.05,0.01c0.01,0,0.02,0,0.04,0c0.02,0,0.03,0.01,0.05,0.01c0.01,0,0.02,0,0.03,0.01
	c0.02,0,0.03,0.01,0.05,0.02c0.01,0,0.02,0.01,0.03,0.01c0.02,0.01,0.03,0.01,0.05,0.02c0.01,0,0.02,0.01,0.03,0.01
	c0.02,0.01,0.03,0.02,0.05,0.03c0.01,0,0.02,0.01,0.03,0.02c0.02,0.01,0.03,0.02,0.04,0.03c0.01,0.01,0.02,0.01,0.02,0.02
	c0.02,0.01,0.03,0.03,0.05,0.04c0.01,0,0.01,0.01,0.02,0.01c0.02,0.02,0.03,0.03,0.05,0.05c0,0,0,0,0.01,0.01
	c0.02,0.03,0.05,0.06,0.07,0.09l8.8,11.88v-11.4c0-0.47,0.38-0.86,0.86-0.86h3.09c0.47,0,0.86,0.38,0.86,0.86V54.3z M80.24,38.2
	c0,0.47-0.38,0.86-0.86,0.86h-8.4v3.24h8.4c0.47,0,0.86,0.38,0.86,0.86v3.09c0,0.47-0.38,0.86-0.86,0.86h-8.4v3.24h8.4
	c0.47,0,0.86,0.38,0.86,0.86v3.09c0,0.47-0.38,0.86-0.86,0.86H67.04h0c-0.23,0-0.44-0.09-0.59-0.24c0,0-0.01-0.01-0.01-0.01
	c0,0-0.01-0.01-0.01-0.01c-0.15-0.15-0.24-0.36-0.24-0.59v0V35.11v0c0-0.23,0.09-0.44,0.24-0.59c0,0,0.01-0.01,0.01-0.02
	c0,0,0.01-0.01,0.01-0.01c0.16-0.15,0.36-0.24,0.6-0.24h0h12.34c0.47,0,0.86,0.38,0.86,0.86V38.2z"/>
</svg>
