<?xml version="1.0" encoding="utf-8"?>
<!-- Generator: Adobe Illustrator 21.0.2, SVG Export Plug-In . SVG Version: 6.00 Build 0)  -->
<svg version="1.1" id="Layer_1" xmlns="http://www.w3.org/2000/svg" xmlns:xlink="http://www.w3.org/1999/xlink" x="0px" y="0px"
	 viewBox="0 0 100 100" style="enable-background:new 0 0 100 100;" xml:space="preserve">
<g>
	<path d="M65.7,47.3H56c-1.5,0-2.8,1.2-2.8,2.8s1.2,2.8,2.8,2.8h9.7c1.5,0,2.8-1.2,2.8-2.8S67.2,47.3,65.7,47.3z"/>
	<path d="M44,47.3h-9.7c-1.5,0-2.8,1.2-2.8,2.8s1.2,2.8,2.8,2.8H44c1.5,0,2.8-1.2,2.8-2.8S45.5,47.3,44,47.3z"/>
	<path d="M22.3,47.3h-9.7c-1.5,0-2.8,1.2-2.8,2.8s1.2,2.8,2.8,2.8h9.7c1.5,0,2.8-1.2,2.8-2.8S23.9,47.3,22.3,47.3z"/>
	<path d="M87.4,47.3h-9.7c-1.5,0-2.8,1.2-2.8,2.8s1.2,2.8,2.8,2.8h9.7c1.5,0,2.8-1.2,2.8-2.8S88.9,47.3,87.4,47.3z"/>
</g>
</svg>
