<?xml version="1.0" encoding="utf-8"?>
<!-- Generator: Adobe Illustrator 22.0.1, SVG Export Plug-In . SVG Version: 6.00 Build 0)  -->
<svg version="1.1" id="Layer_1" xmlns="http://www.w3.org/2000/svg" xmlns:xlink="http://www.w3.org/1999/xlink" x="0px" y="0px"
	 viewBox="0 0 100 100" style="enable-background:new 0 0 100 100;" xml:space="preserve">
<g>
	<path d="M14,46.7H9.3C7.5,46.7,6,48.1,6,50s1.4,3.3,3.3,3.3H14c1.8,0,3.3-1.4,3.3-3.3S15.7,46.7,14,46.7z"/>
	<path d="M39.6,46.7h-4.8c-1.8,0-3.3,1.4-3.3,3.3s1.4,3.3,3.3,3.3h4.8c1.8,0,3.3-1.4,3.3-3.3S41.3,46.7,39.6,46.7z"/>
	<path d="M65.2,46.7h-4.8c-1.8,0-3.3,1.4-3.3,3.3s1.4,3.3,3.3,3.3h4.8c1.8,0,3.3-1.4,3.3-3.3S67,46.7,65.2,46.7z"/>
	<path d="M90.7,46.7H86c-1.8,0-3.3,1.4-3.3,3.3s1.4,3.3,3.3,3.3h4.7c1.8,0,3.3-1.4,3.3-3.3S92.5,46.7,90.7,46.7z"/>
</g>
</svg>
