<?xml version="1.0" encoding="utf-8"?>
<!-- Generator: Adobe Illustrator 21.0.0, SVG Export Plug-In . SVG Version: 6.00 Build 0)  -->
<svg version="1.1" id="Layer_1" xmlns="http://www.w3.org/2000/svg" xmlns:xlink="http://www.w3.org/1999/xlink" x="0px" y="0px"
	 viewBox="0 0 100 100" style="enable-background:new 0 0 100 100;" xml:space="preserve">
<g>
	<path d="M70.1,56.4c10.7,0,19.5-8.7,19.5-19.5s-8.7-19.5-19.5-19.5c-3.8,0-7.3,1-10.4,3c-2.5,1.7-4.4,3.9-5.8,5.6l-4.4,5.8
		l-4.9-6.2c-3.7-5.1-9.5-8.1-15.8-8.1c-10.7,0-19.5,8.7-19.5,19.5s8.7,19.5,19.5,19.5c6.1,0,11.7-2.8,15.5-7.6l5.2-6.7l4.8,6.2
		C58,53.4,63.8,56.4,70.1,56.4z M39.5,45c-2.5,3.3-6.4,5.3-10.6,5.3c-7.4,0-13.4-6-13.4-13.4s6-13.4,13.4-13.4
		c4.3,0,8.3,2.1,10.8,5.6l5.9,7.7L39.5,45z M58.7,29.9c1.1-1.4,2.4-3.1,4.2-4.2c2.1-1.3,4.6-2.1,7.2-2.1c7.3,0,13.4,6,13.4,13.4
		s-6,13.4-13.4,13.4c-4.3,0-8.4-2.1-11-5.6l-0.3-0.2l-5.5-7.5L58.7,29.9z"/>
	<path d="M10.2,79h-5V68.6c0-0.6-0.2-1.1-0.6-1.4c-0.6-0.4-0.9-0.6-1.7-0.6c-0.7,0-1.1,0.2-1.4,0.6C1.2,67.5,1,68,1,68.6v11.8
		c0,0.7,0.1,1.1,0.4,1.4s0.8,0.4,1.4,0.4h7.3c0.7,0,1.1-0.1,1.4-0.4c0.3-0.3,0.4-0.7,0.4-1.2C12.2,79.5,11.5,79,10.2,79z"/>
	<path d="M15.5,65.8c-0.7,0-1.2,0.2-1.5,0.6c-0.4,0.3-0.6,0.8-0.6,1.3s0.2,1,0.6,1.4c0.4,0.3,0.9,0.6,1.5,0.6c0.7,0,1.2-0.2,1.5-0.6
		c0.4-0.3,0.6-0.8,0.6-1.4c0-0.6-0.2-1-0.6-1.3C16.7,66,16.2,65.8,15.5,65.8z"/>
	<path d="M16.8,71.6c-0.4-0.2-0.9-0.4-1.4-0.4s-1,0.1-1.4,0.4c-0.3,0.3-0.6,0.8-0.6,1.3v7.6c0,0.6,0.2,1.1,0.6,1.3
		c0.3,0.3,0.9,0.4,1.4,0.4s1-0.1,1.4-0.4c0.3-0.3,0.6-0.8,0.6-1.3v-7.6C17.4,72.3,17.3,71.8,16.8,71.6z"/>
	<path d="M27.1,71.1c-0.8,0-1.4,0.1-2,0.4s-1.1,0.8-1.4,1.3c0-0.6-0.1-0.9-0.6-1.2c-0.3-0.3-0.8-0.4-1.3-0.4c-0.6,0-1.1,0.2-1.4,0.6
		s-0.6,0.8-0.6,1.3v7.6c0,0.6,0.2,1,0.6,1.3s0.9,0.4,1.4,0.4c0.6,0,1.1-0.1,1.4-0.4s0.6-0.8,0.6-1.3v-4.4c0-0.7,0.2-1.1,0.6-1.5
		c0.3-0.3,0.8-0.6,1.4-0.6c0.4,0,0.8,0.1,1,0.4c0.2,0.3,0.3,0.8,0.3,1.4v4.6c0,0.6,0.2,1,0.6,1.3c0.3,0.3,0.9,0.4,1.4,0.4
		s1.1-0.1,1.4-0.4c0.3-0.3,0.6-0.8,0.6-1.3V76c0-1.5-0.3-2.8-1-3.5C29.3,71.5,28.3,71.1,27.1,71.1z"/>
	<path d="M42.8,77.3c0.1-0.2,0.2-0.4,0.2-0.8c0-1.1-0.2-2-0.7-2.9c-0.4-0.9-1-1.4-1.8-1.9c-0.8-0.4-1.7-0.7-2.7-0.7s-2,0.2-2.9,0.8
		c-0.9,0.4-1.4,1.1-2,2c-0.4,0.9-0.7,1.9-0.7,3s0.2,2.1,0.8,3s1.2,1.5,2.1,2s2,0.7,3.2,0.7c0.6,0,1.2-0.1,1.9-0.2
		c0.7-0.2,1.3-0.3,1.8-0.7c0.6-0.3,0.9-0.8,0.9-1.3c0-0.4-0.1-0.8-0.3-1c-0.2-0.2-0.4-0.6-0.7-0.6c-0.2,0-0.3,0-0.6,0.1
		C41.3,79,41,79,40.8,79.1c-0.3,0.1-0.8,0.2-1,0.3c-0.3,0.1-0.7,0.1-1,0.1c-0.7,0-1.2-0.1-1.5-0.4s-0.6-0.8-0.7-1.5h5.6
		C42.6,77.5,42.8,77.5,42.8,77.3z M36.4,75.8c0.1-0.7,0.2-1.1,0.6-1.4c0.3-0.3,0.8-0.6,1.2-0.6c1,0,1.5,0.7,1.7,2H36.4z"/>
	<path d="M47.2,66.6c-0.7,0-1.1,0.2-1.4,0.6c-0.3,0.3-0.6,0.9-0.6,1.4v11.8c0,0.7,0.2,1.1,0.6,1.4s0.9,0.6,1.4,0.6
		c0.7,0,1.1-0.2,1.5-0.6c0.4-0.3,0.6-0.9,0.6-1.4V68.6c0-0.6-0.2-1.1-0.6-1.4C48.3,66.7,47.8,66.6,47.2,66.6z"/>
	<path d="M57.6,74.1c0.2,0,0.4,0,0.7,0.1c0.2,0.1,0.4,0.2,0.8,0.3c0.2,0.1,0.4,0.2,0.7,0.3s0.4,0.1,0.7,0.1c0.3,0,0.7-0.1,0.9-0.4
		s0.3-0.7,0.3-1.1c0-0.6-0.2-1-0.7-1.3c-0.4-0.3-1-0.6-1.7-0.7c-0.7-0.1-1.2-0.2-1.9-0.2c-1.2,0-2.2,0.2-3.1,0.7
		c-0.9,0.4-1.7,1.1-2.1,2s-0.8,1.9-0.8,3c0,1.8,0.6,3.1,1.5,4.1c1,1,2.4,1.5,4.2,1.5c1.4,0,2.7-0.3,3.8-0.9c0.2-0.1,0.3-0.3,0.4-0.6
		c0.1-0.2,0.2-0.4,0.2-0.8c0-0.4-0.1-0.9-0.3-1.1c-0.2-0.3-0.4-0.4-0.9-0.4c-0.2,0-0.4,0-0.7,0.1c-0.2,0.1-0.4,0.2-0.8,0.3
		c-0.2,0.1-0.6,0.2-0.8,0.3c-0.2,0.1-0.4,0.1-0.7,0.1c-0.7,0-1.2-0.2-1.7-0.7c-0.3-0.4-0.6-1.1-0.6-2C55.4,75,56.1,74.1,57.6,74.1z"
		/>
	<path d="M71.6,71.8c-0.9-0.4-2-0.7-3.2-0.7c-1.2,0-2.2,0.2-3.2,0.7c-0.9,0.4-1.5,1.1-2.1,2c-0.4,0.9-0.8,1.9-0.8,3s0.2,2.1,0.8,3
		c0.4,0.9,1.2,1.5,2.1,2c0.9,0.4,2,0.7,3.2,0.7c1.2,0,2.2-0.2,3.2-0.7c0.9-0.4,1.5-1.1,2.1-2c0.6-0.9,0.8-1.9,0.8-3s-0.2-2.1-0.8-3
		S72.6,72.2,71.6,71.8z M68.5,79.5c-1.4,0-2.1-0.9-2.1-2.8S67,74,68.5,74s2.1,0.9,2.1,2.8C70.5,78.6,69.9,79.5,68.5,79.5z"/>
	<path d="M83.6,71.1c-0.8,0-1.4,0.1-2,0.4s-1.1,0.8-1.4,1.3c0-0.6-0.2-0.9-0.6-1.2c-0.3-0.3-0.8-0.4-1.3-0.4s-1.1,0.2-1.4,0.6
		s-0.6,0.8-0.6,1.3v7.6c0,0.6,0.2,1,0.6,1.3s0.9,0.4,1.4,0.4s1.1-0.1,1.4-0.4c0.3-0.3,0.6-0.8,0.6-1.3v-4.4c0-0.7,0.2-1.1,0.6-1.5
		c0.3-0.3,0.8-0.6,1.4-0.6c0.4,0,0.8,0.1,1,0.4c0.2,0.3,0.3,0.8,0.3,1.4v4.6c0,0.6,0.2,1,0.6,1.3s0.9,0.4,1.4,0.4s1.1-0.1,1.4-0.4
		c0.3-0.3,0.6-0.8,0.6-1.3V76c0-1.5-0.3-2.8-1-3.5C85.8,71.5,84.8,71.1,83.6,71.1z"/>
	<path d="M98,76.8c-0.6-0.6-1.5-0.9-3-1.1c-0.9-0.1-1.4-0.3-1.8-0.4c-0.3-0.1-0.4-0.3-0.4-0.6c0-0.2,0.1-0.3,0.3-0.4
		c0.2-0.1,0.4-0.2,0.9-0.2c0.3,0,0.7,0,1,0.1c0.3,0.1,0.6,0.2,1,0.3c0.6,0.2,1,0.3,1.3,0.3s0.6-0.1,0.8-0.4s0.3-0.7,0.3-1
		c0-0.6-0.2-1-0.7-1.3c-0.4-0.3-1-0.6-1.7-0.7c-0.7-0.1-1.3-0.2-2-0.2c-0.9,0-1.8,0.1-2.4,0.4c-0.8,0.3-1.3,0.8-1.8,1.3
		c-0.4,0.6-0.7,1.1-0.7,1.9c0,0.9,0.3,1.7,0.9,2.2s1.5,0.9,2.9,1.1c0.8,0.1,1.2,0.2,1.5,0.3c0.3,0.1,0.6,0.2,0.7,0.2
		c0.1,0.1,0.2,0.2,0.2,0.3c0,0.2-0.1,0.3-0.3,0.4c-0.2,0.1-0.6,0.2-1,0.2c-0.6,0-1,0-1.4-0.1c-0.4-0.1-0.8-0.2-1.2-0.3
		c-0.3-0.1-0.6-0.2-0.7-0.2s-0.4-0.2-0.7-0.2c-0.3,0-0.6,0.1-0.8,0.4c-0.2,0.2-0.3,0.6-0.3,1c0,0.3,0.1,0.6,0.2,0.9
		c0.1,0.2,0.3,0.4,0.4,0.6c0.6,0.3,1.1,0.6,1.8,0.7c0.7,0.1,1.5,0.2,2.5,0.2c1.5,0,2.7-0.3,3.7-1c1-0.7,1.3-1.5,1.3-2.5
		C98.9,78,98.6,77.2,98,76.8z"/>
</g>
</svg>
