<?xml version="1.0" encoding="utf-8"?>
<!-- Generator: Adobe Illustrator 22.0.1, SVG Export Plug-In . SVG Version: 6.00 Build 0)  -->
<svg version="1.1" id="Layer_1" xmlns="http://www.w3.org/2000/svg" xmlns:xlink="http://www.w3.org/1999/xlink" x="0px" y="0px"
	 viewBox="0 0 100 100" style="enable-background:new 0 0 100 100;" xml:space="preserve">
<g>
	<path d="M33.9,29.9c0.5,0.5,1.2,0.8,1.9,0.8c0.7,0,1.4-0.3,2-0.8c1.1-1.1,1.1-2.8,0-3.9L20.5,8.9L3.4,26c-1.1,1.1-1.1,2.8,0,3.9
		c1.1,1.1,2.8,1.1,3.9,0l10.5-10.5v61.1L7.3,70.1c-1.1-1.1-2.8-1.1-3.9,0c-1.1,1.1-1.1,2.8,0,3.9l17.1,17.1L37.7,74
		c1.1-1.1,1.1-2.8,0-3.9c-1.1-1.1-2.8-1.1-3.9,0L23.3,80.6V19.4L33.9,29.9z"/>
	<path d="M56,17.9h38.6c1.5,0,2.8-1.2,2.8-2.8s-1.2-2.8-2.8-2.8H56c-1.5,0-2.8,1.2-2.8,2.8S54.5,17.9,56,17.9z"/>
	<path d="M94.7,35.7H56c-1.5,0-2.8,1.2-2.8,2.8s1.2,2.8,2.8,2.8h38.6c1.5,0,2.8-1.2,2.8-2.8S96.2,35.7,94.7,35.7z"/>
	<path d="M94.7,59H56c-1.5,0-2.8,1.2-2.8,2.8s1.2,2.8,2.8,2.8h38.6c1.5,0,2.8-1.2,2.8-2.8S96.2,59,94.7,59z"/>
	<path d="M94.7,82.4H56c-1.5,0-2.8,1.2-2.8,2.8s1.2,2.8,2.8,2.8h38.6c1.5,0,2.8-1.2,2.8-2.8S96.2,82.4,94.7,82.4z"/>
</g>
</svg>
