<?xml version="1.0" encoding="utf-8"?>
<!-- Generator: Adobe Illustrator 23.0.1, SVG Export Plug-In . SVG Version: 6.00 Build 0)  -->
<svg version="1.1" id="Layer_1" xmlns="http://www.w3.org/2000/svg" xmlns:xlink="http://www.w3.org/1999/xlink" x="0px" y="0px"
	 viewBox="0 0 100 100" style="enable-background:new 0 0 100 100;" xml:space="preserve">
<path d="M84.08,10H15.9c-3.26,0-5.9,2.58-5.9,5.77v68.46c0,3.19,2.65,5.77,5.9,5.77h68.18c3.26,0,5.92-2.59,5.92-5.77V15.77
	C90,12.58,87.34,10,84.08,10z M33.73,78.17H21.85V39.99h11.88V78.17z M27.8,34.77c-3.81,0-6.88-3.08-6.88-6.88
	c0-3.8,3.07-6.88,6.88-6.88c3.8,0,6.88,3.08,6.88,6.88C34.67,31.69,31.59,34.77,27.8,34.77z M78.17,78.17H66.31V59.6
	c0-4.43-0.08-10.12-6.17-10.12c-6.17,0-7.12,4.83-7.12,9.81v18.88H41.17V39.99h11.37v5.22h0.16c1.58-3,5.45-6.17,11.23-6.17
	c12.01,0,14.23,7.91,14.23,18.19V78.17z"/>
</svg>
