<?xml version="1.0" encoding="utf-8"?>
<!-- Generator: Adobe Illustrator 22.0.1, SVG Export Plug-In . SVG Version: 6.00 Build 0)  -->
<svg version="1.1" id="Layer_1" xmlns="http://www.w3.org/2000/svg" xmlns:xlink="http://www.w3.org/1999/xlink" x="0px" y="0px"
	 viewBox="0 0 100 100" style="enable-background:new 0 0 100 100;" xml:space="preserve">
<path d="M0,0v100h100V0H0z M28.8,89.5c0,2.6-2.1,4.8-4.8,4.8H10.2c-2.6,0-4.8-2.1-4.8-4.8V42.8c0-2.6,2.1-4.8,4.8-4.8H24
	c2.6,0,4.8,2.1,4.8,4.8V89.5z M17.1,30.8c-6.9,0-12.5-5.6-12.5-12.5S10.2,5.8,17.1,5.8c6.9,0,12.5,5.6,12.5,12.5
	S24.1,30.8,17.1,30.8z M95.4,89.5c0,2.6-2.1,4.8-4.8,4.8H76.9c-2.6,0-4.8-2.1-4.8-4.8v-1h0V70.2c0-3.1-2.5-5.6-5.6-5.6
	s-5.6,2.5-5.6,5.6v0.6h0v18.6c0,2.6-2.1,4.8-4.8,4.8H42.4c-2.6,0-4.8-2.1-4.8-4.8V42.8c0-2.6,2.1-4.8,4.8-4.8h13.8
	c2.6,0,4.8,2.1,4.8,4.8v0.9c1.8-1.4,3.7-2.5,5.6-3.3c4.3-1.9,8.9-2.6,13.1-2.1c8.8,1.1,15.7,8.9,15.7,17.7V89.5z"/>
</svg>
