<?xml version="1.0" encoding="utf-8"?>
<!-- Generator: Adobe Illustrator 22.0.1, SVG Export Plug-In . SVG Version: 6.00 Build 0)  -->
<svg version="1.1" id="Layer_1" xmlns="http://www.w3.org/2000/svg" xmlns:xlink="http://www.w3.org/1999/xlink" x="0px" y="0px"
	 viewBox="0 0 100 100" style="enable-background:new 0 0 100 100;" xml:space="preserve">
<g>
	<path d="M24,38H10.2c-2.6,0-4.8,2.1-4.8,4.8v46.7c0,2.6,2.1,4.8,4.8,4.8H24c2.6,0,4.8-2.1,4.8-4.8V42.8C28.8,40.2,26.6,38,24,38z
		 M23.3,88.8H11V43.5h12.3V88.8z"/>
	<path d="M79.7,38.2c-4.2-0.5-8.9,0.2-13.1,2.1c-1.9,0.9-3.8,2-5.6,3.3v-0.9c0-2.6-2.1-4.8-4.8-4.8H42.4c-2.6,0-4.8,2.1-4.8,4.8
		v46.7c0,2.6,2.1,4.8,4.8,4.8h13.8c2.6,0,4.8-2.1,4.8-4.8V70.9h0v-0.6c0-3.1,2.5-5.6,5.6-5.6s5.6,2.5,5.6,5.6v18.2h0v1
		c0,2.6,2.1,4.8,4.8,4.8h13.8c2.6,0,4.8-2.1,4.8-4.8V55.9C95.4,47,88.5,39.3,79.7,38.2z M89.9,88.8H77.6V71.1h0v-0.9
		c0-6.1-5-11.1-11.1-11.1s-11.1,5-11.1,11.1v18.2h0v0.3H43.2V43.5h12.3v3.1c0,1.5,0.9,2.9,2.3,3.6c1.4,0.7,3,0.5,4.2-0.5
		c0.6-0.5,1.2-0.9,1.6-1.2c0.2-0.2,0.4-0.3,0.5-0.4c1.5-1.2,3.1-2.1,4.8-2.9c3.4-1.5,7-2.1,10.2-1.7c6.1,0.7,10.8,6.1,10.8,12.3
		V88.8z"/>
	<path d="M17.1,5.8c-6.9,0-12.5,5.6-12.5,12.5s5.6,12.5,12.5,12.5c6.9,0,12.5-5.6,12.5-12.5S24.1,5.8,17.1,5.8z M17.1,25.3
		c-3.9,0-7-3.2-7-7s3.2-7,7-7c3.9,0,7,3.2,7,7S21,25.3,17.1,25.3z"/>
</g>
</svg>
