<?xml version="1.0" encoding="utf-8"?>
<!-- Generator: Adobe Illustrator 22.0.1, SVG Export Plug-In . SVG Version: 6.00 Build 0)  -->
<svg version="1.1" id="Layer_1" xmlns="http://www.w3.org/2000/svg" xmlns:xlink="http://www.w3.org/1999/xlink" x="0px" y="0px"
	 viewBox="0 0 100 100" style="enable-background:new 0 0 100 100;" xml:space="preserve">
<path d="M92.3,67.2L79.4,54.3c-3.4-3.4-7.8-5.2-12.6-5.2c-4,0-7.8,1.3-10.9,3.7L47.2,44c2.4-3.1,3.7-6.9,3.7-10.9
	c0-4.8-1.8-9.2-5.2-12.6L32.8,7.7C29.5,4.3,25,2.5,20.2,2.5S11,4.3,7.7,7.7C4.3,11,2.5,15.5,2.5,20.2s1.8,9.2,5.2,12.6l12.9,12.9
	c3.4,3.4,7.8,5.2,12.6,5.2c3.6,0,7.1-1.1,10-3.1l9,9c-2,2.9-3.1,6.4-3.1,10c0,4.8,1.8,9.2,5.2,12.6l12.9,12.9
	c3.5,3.5,8,5.2,12.6,5.2c4.6,0,9.1-1.7,12.6-5.2C99.3,85.4,99.3,74.1,92.3,67.2z M33.1,45.4c-3.3,0-6.4-1.3-8.7-3.6L11.6,28.9
	C9.2,26.6,8,23.5,8,20.2c0-3.3,1.3-6.4,3.6-8.7C13.9,9.2,17,8,20.2,8c3.3,0,6.4,1.3,8.7,3.6l12.9,12.9c2.3,2.3,3.6,5.4,3.6,8.7
	c0,2.5-0.8,4.9-2.2,7l-4.7-4.7c-1.1-1.1-2.8-1.1-3.9,0c-1.1,1.1-1.1,2.8,0,3.9l4.6,4.6C37.4,44.9,35.3,45.4,33.1,45.4z M88.4,88.4
	c-4.8,4.8-12.6,4.8-17.4,0L58.2,75.5c-2.3-2.3-3.6-5.4-3.6-8.7c0-2.2,0.6-4.2,1.6-6.1l4.4,4.4c0.5,0.5,1.2,0.8,1.9,0.8
	s1.4-0.3,1.9-0.8c1.1-1.1,1.1-2.8,0-3.9l-4.6-4.6c2-1.4,4.4-2.2,7-2.2c3.3,0,6.4,1.3,8.7,3.6l12.9,12.9
	C93.2,75.9,93.2,83.7,88.4,88.4z"/>
</svg>
