<?xml version="1.0" encoding="utf-8"?>
<!-- Generator: Adobe Illustrator 22.0.1, SVG Export Plug-In . SVG Version: 6.00 Build 0)  -->
<svg version="1.1" id="Layer_2_1_" xmlns="http://www.w3.org/2000/svg" xmlns:xlink="http://www.w3.org/1999/xlink" x="0px" y="0px"
	 viewBox="0 0 100 100" style="enable-background:new 0 0 100 100;" xml:space="preserve">
<g>
	<path d="M33.5,25.1h60.9c1.5,0,2.8-1.2,2.8-2.8s-1.2-2.8-2.8-2.8H33.5c-1.5,0-2.8,1.2-2.8,2.8S32,25.1,33.5,25.1z"/>
	<path d="M94.4,47.3H33.5c-1.5,0-2.8,1.2-2.8,2.8c0,1.5,1.2,2.7,2.8,2.7h60.9c1.5,0,2.8-1.2,2.8-2.7C97.1,48.5,95.9,47.3,94.4,47.3z
		"/>
	<path d="M94.4,74.9H33.5c-1.5,0-2.8,1.2-2.8,2.8s1.2,2.8,2.8,2.8h60.9c1.5,0,2.8-1.2,2.8-2.8S95.9,74.9,94.4,74.9z"/>
	<ellipse transform="matrix(0.7071 -0.7071 0.7071 0.7071 -13.641 11.7781)" cx="7.4" cy="22.4" rx="4.5" ry="4.5"/>
	<ellipse transform="matrix(0.7071 -0.7071 0.7071 0.7071 -33.1888 19.8751)" cx="7.4" cy="50" rx="4.5" ry="4.5"/>
	<ellipse transform="matrix(0.7071 -0.7071 0.7071 0.7071 -52.7366 27.972)" cx="7.4" cy="77.6" rx="4.5" ry="4.5"/>
</g>
</svg>
