<?xml version="1.0" encoding="utf-8"?>
<!-- Generator: Adobe Illustrator 22.0.1, SVG Export Plug-In . SVG Version: 6.00 Build 0)  -->
<svg version="1.1" id="Layer_2_1_" xmlns="http://www.w3.org/2000/svg" xmlns:xlink="http://www.w3.org/1999/xlink" x="0px" y="0px"
	 viewBox="0 0 100 100" style="enable-background:new 0 0 100 100;" xml:space="preserve">
<g>
	<path d="M75.8,33.7v-5.6C75.8,13.9,64.2,2.4,50,2.4c-14.2,0-25.8,11.6-25.8,25.8v5.6c-9.1,1.7-16,9.7-16,19.3v26.2
		c0,10.2,8.3,18.5,18.5,18.5h46.5c10.2,0,18.5-8.3,18.5-18.5V53C91.8,43.4,84.8,35.4,75.8,33.7z M50,7.9c11.2,0,20.3,9.1,20.3,20.3
		v5.2H29.7v-5.2C29.7,17,38.8,7.9,50,7.9z M86.3,79.1c0,7.2-5.8,13-13,13H26.7c-7.2,0-13-5.8-13-13V53c0-7.8,6.3-14.1,14.1-14.1
		h44.3c7.8,0,14.1,6.3,14.1,14.1V79.1z"/>
	<path d="M50,59.5c-2.2,0-4,1.8-4,4v6.6c0,1.1,0.5,2.2,1.3,2.9v4.1c0,1.5,1.2,2.8,2.8,2.8s2.8-1.2,2.8-2.8V73
		c0.8-0.7,1.3-1.8,1.3-2.9v-6.6C54,61.3,52.2,59.5,50,59.5z"/>
</g>
</svg>
