<?xml version="1.0" encoding="utf-8"?>
<!-- Generator: Adobe Illustrator 22.0.1, SVG Export Plug-In . SVG Version: 6.00 Build 0)  -->
<svg version="1.1" id="Layer_2_1_" xmlns="http://www.w3.org/2000/svg" xmlns:xlink="http://www.w3.org/1999/xlink" x="0px" y="0px"
	 viewBox="0 0 100 100" style="enable-background:new 0 0 100 100;" xml:space="preserve">
<g>
	<path d="M64.1,34c0-8-3.1-15.5-8.8-21.2c-11.7-11.7-30.7-11.7-42.3,0C7.3,18.5,4.2,26,4.2,34c0,8,3.1,15.5,8.8,21.2
		c5.7,5.7,13.2,8.8,21.2,8.8c7.1,0,13.8-2.4,19.1-6.9l9.2,9.2l-0.1,0.1c-1.9,1.9-1.9,5.1,0,7l21.2,21.2c1.9,1.9,5.1,1.9,7,0l3.8-3.8
		c1.9-1.9,1.9-5.1,0-7L73.2,62.5c-1.9-1.9-4.9-1.9-6.9-0.1l-9.2-9.2C61.6,47.8,64.1,41.1,64.1,34z M34.1,58.4
		c-6.5,0-12.7-2.5-17.3-7.2C12.2,46.7,9.7,40.5,9.7,34c0-6.5,2.5-12.7,7.2-17.3c4.8-4.8,11-7.1,17.3-7.1c6.3,0,12.5,2.4,17.3,7.1v0
		c4.6,4.6,7.2,10.8,7.2,17.3c0,6.5-2.5,12.7-7.2,17.3C46.8,55.9,40.6,58.4,34.1,58.4z"/>
	<path d="M47.6,20.6c-1.1-1.1-2.8-1.1-3.9,0c-1.1,1.1-1.1,2.8,0,3.9c3.6,3.6,4.9,8.9,3.3,13.8c-0.5,1.4,0.3,3,1.7,3.5
		c0.3,0.1,0.6,0.1,0.9,0.1c1.2,0,2.2-0.7,2.6-1.9C54.4,33.2,52.7,25.7,47.6,20.6z"/>
</g>
</svg>
