<?xml version="1.0" encoding="utf-8"?>
<!-- Generator: Adobe Illustrator 22.0.1, SVG Export Plug-In . SVG Version: 6.00 Build 0)  -->
<svg version="1.1" id="Layer_2_1_" xmlns="http://www.w3.org/2000/svg" xmlns:xlink="http://www.w3.org/1999/xlink" x="0px" y="0px"
	 viewBox="0 0 100 100" style="enable-background:new 0 0 100 100;" xml:space="preserve">
<path d="M86,14.1C78.9,6.9,69.4,2.9,59.3,2.9c0,0-0.1,0-0.1,0c-10.2,0-19.7,4-26.9,11.2L4.3,41.9c-1.9,1.9-1.9,4.9,0,6.7l14.2,14.2
	c0.9,0.9,2.1,1.4,3.4,1.4s2.5-0.5,3.4-1.4l26.2-26.2c3.2-3.2,8.2-3.5,11.5-0.8c1.9,1.5,2.9,3.7,3.1,6.1c0.1,2.4-0.8,4.7-2.4,6.3
	L37.2,74.8c-1.9,1.9-1.9,4.9,0,6.7l14.2,14.2c0.9,0.9,2.1,1.4,3.4,1.4c1.3,0,2.5-0.5,3.4-1.4L86,67.8C100.7,53.1,100.7,29,86,14.1z
	 M21.9,58.5L8.8,45.3l13-13l13.2,13.2L21.9,58.5z M54.8,91.3L41.6,78.1l13-13l13.2,13.2L54.8,91.3z M82.1,64L71.7,74.4L58.5,61.2
	l9-9c2.8-2.8,4.2-6.6,4-10.5c-0.2-3.9-2-7.6-5-10.1c-5.5-4.5-13.8-4-18.9,1.1l-8.8,8.8L25.7,28.4L36.1,18c6.2-6.2,14.4-9.6,23.1-9.6
	c0,0,0.1,0,0.1,0c8.7,0,16.8,3.4,22.8,9.6C94.7,30.7,94.7,51.4,82.1,64z"/>
</svg>
