<?xml version="1.0" encoding="utf-8"?>
<!-- Generator: Adobe Illustrator 22.0.1, SVG Export Plug-In . SVG Version: 6.00 Build 0)  -->
<svg version="1.1" id="Layer_2_1_" xmlns="http://www.w3.org/2000/svg" xmlns:xlink="http://www.w3.org/1999/xlink" x="0px" y="0px"
	 viewBox="0 0 100 100" style="enable-background:new 0 0 100 100;" xml:space="preserve">
<g>
	<circle cx="50" cy="20.1" r="2.3"/>
	<path d="M92.8,26.3l-25.6-2.6l-2.9-0.3L62,23.9c0.4-1.2,0.6-2.3,0.6-3.3c0-7.1-5.5-12.6-12.5-12.6c-7,0-12.6,5.7-12.6,12.6
		c0,2.1,1,5,2.5,7.9l-4.5,0.9L7.9,26.5c-1-0.1-2.1,0.2-2.9,0.9c-0.8,0.7-1.2,1.7-1.2,2.8v55.2c0,1.9,1.5,3.5,3.4,3.7l25.6,2.7
		l2.9,0.3l2.6-0.5l26.4-5.5L92,88.9c0.1,0,0.3,0,0.4,0c0.9,0,1.8-0.3,2.5-1c0.8-0.7,1.2-1.7,1.2-2.8V30.1
		C96.2,28.1,94.7,26.5,92.8,26.3z M9.3,83.8V32.2l23.5,2.4v0v51.6L9.3,83.8z M50,13.4c3.9,0,7,3.1,7,7.1c0,2.6-3.7,9.1-7.1,14.4
		c-3.4-5.3-7.1-11.8-7.1-14.4C42.9,16.6,46.1,13.4,50,13.4z M38.3,34.4l4.3-0.9c2.2,3.7,4.3,6.8,5.1,7.9l2.2,3.1l2.2-3.1
		c1-1.4,4.5-6.4,7.1-11.4l2.4-0.5v51.5l-23.5,4.9V34.4z M90.7,83.3l-23.5-2.4V29.2v0l23.5,2.4V83.3z"/>
</g>
</svg>
