<?xml version="1.0" encoding="utf-8"?>
<!-- Generator: Adobe Illustrator 22.0.1, SVG Export Plug-In . SVG Version: 6.00 Build 0)  -->
<svg version="1.1" id="Layer_1" xmlns="http://www.w3.org/2000/svg" xmlns:xlink="http://www.w3.org/1999/xlink" x="0px" y="0px"
	 viewBox="0 0 100 100" style="enable-background:new 0 0 100 100;" xml:space="preserve">
<style type="text/css">
	.st0{fill:#1D1D1B;}
</style>
<g>
	<path class="st0" d="M88.4,40.5c0-0.9-0.1-1.8-0.2-2.8c-0.5-4.6-1.9-9.1-4-13.2c-0.1-0.1-0.1-0.2-0.2-0.4
		C77.4,11.4,64.3,3.5,50,3.5c-14.3,0-27.4,7.9-34,20.6c-1.5,2.8-2.6,5.7-3.4,8.8c-0.4,1.5-0.6,3.1-0.8,4.6c-0.2,2.2-0.4,4,0.8,5.9
		c0.8,1.4,1.8,2.7,2.9,3.8c2.5,2.6,5.6,4.7,8.8,6.3c3.9,2,8.1,3.3,12.4,4.2l-3.1,29.6c-0.1,1-0.1,2.1,0.2,3.1c1,3.9,4.5,6.3,8.1,6.3
		h16.3c1,0,2.1-0.1,3-0.5c3.8-1.4,5.8-5.1,5.4-8.8c0,0-3.2-29.7-3.2-29.7c7.6-1.6,15.5-4.6,21-10.3c1.2-1.3,2.5-2.6,3.3-4.2
		C88.2,42.3,88.4,41.4,88.4,40.5z M58,59.1l3.1,28.9c0.1,0.8-0.2,1.6-0.7,2.2c-0.6,0.6-1.3,1-2.2,1H41.8c-0.8,0-1.6-0.3-2.2-1
		c-0.6-0.6-0.8-1.4-0.7-2.2L42,59.1h7.6c0.1,0,0.3,0,0.4,0s0.3,0,0.4,0H58z M50.2,53.6h-0.4c-13.1,0-25-4.2-30.6-10.3
		c-1.5-1.7-2.1-4-1.8-6.2c0.5-3.6,1.6-7,3.4-10.4C26.6,15.8,37.7,9,50,9c12.3,0,23.4,6.8,29.2,17.6c1.8,3.4,2.9,7,3.4,10.7
		c0.3,2.2-0.4,4.4-1.9,6C75.2,49.4,63.3,53.6,50.2,53.6z"/>
	<circle class="st0" cx="36" cy="35.4" r="3"/>
	<circle class="st0" cx="65.3" cy="34.7" r="3"/>
	<circle class="st0" cx="50.3" cy="21.7" r="3"/>
</g>
</svg>
