<?xml version="1.0" encoding="utf-8"?>
<!-- Generator: Adobe Illustrator 22.0.1, SVG Export Plug-In . SVG Version: 6.00 Build 0)  -->
<svg version="1.1" id="Layer_1" xmlns="http://www.w3.org/2000/svg" xmlns:xlink="http://www.w3.org/1999/xlink" x="0px" y="0px"
	 viewBox="0 0 100 100" style="enable-background:new 0 0 100 100;" xml:space="preserve">
<g>
	<path d="M92.5,22h-85c-2.6,0-4.8,2.1-4.8,4.8v46.4c0,2.6,2.1,4.8,4.8,4.8h85c2.6,0,4.8-2.1,4.8-4.8V26.8C97.3,24.2,95.1,22,92.5,22
		z M91.8,72.5H8.3V27.5h83.5V72.5z"/>
	<path d="M41.1,65.4c2.9,0,5.7-0.8,8.1-2.3c2.7,1.8,5.7,2.9,9,2.9c8.8,0,16-7.2,16-16s-7.2-16-16-16c-3.3,0-6.5,1-9,2.9
		c-2.4-1.7-5.1-2.4-8.1-2.4c-8.5,0-15.5,7-15.5,15.5S32.6,65.4,41.1,65.4z M52.5,39.7c1.8-1,3.7-1.5,5.8-1.5
		c6.5,0,11.9,5.3,11.9,11.9C70.3,56.7,65,62,58.4,62c-2.2,0-4.1-0.6-5.8-1.5c2.5-2.8,4.1-6.3,4.1-10.4C56.6,46,55.1,42.3,52.5,39.7z
		"/>
</g>
</svg>
