<?xml version="1.0" encoding="utf-8"?>
<!-- Generator: Adobe Illustrator 22.0.1, SVG Export Plug-In . SVG Version: 6.00 Build 0)  -->
<svg version="1.1" id="Layer_1" xmlns="http://www.w3.org/2000/svg" xmlns:xlink="http://www.w3.org/1999/xlink" x="0px" y="0px"
	 viewBox="0 0 100 100" style="enable-background:new 0 0 100 100;" xml:space="preserve">
<g>
	<path d="M78.2,43.4c0-6.3-2.1-12.1-5.5-16.7V5.5c0-2.3-1.7-4.1-4.1-4.1H31.4c-2.3,0-4.1,1.7-4.1,4.1v21.2
		c-3.5,4.7-5.5,10.5-5.5,16.7c0,6.3,2.1,12.1,5.5,16.7v34.3c0,1.5,0.8,2.8,2,3.6c0.6,0.4,1.3,0.5,2,0.5c0.7,0,1.4-0.2,2-0.6L50,88.6
		L66.5,98l0.3,0.1c1.3,0.6,2.8,0.5,4-0.3c1.1-0.7,1.8-2,1.8-3.4V60.1C76.1,55.4,78.2,49.7,78.2,43.4z M67.1,6.9v14.1
		c-4.7-3.7-10.7-5.8-17.1-5.8s-12.4,2.2-17.1,5.8V6.9H67.1z M50,20.7c12.5,0,22.7,10.2,22.7,22.7S62.5,66,50,66
		c-12.5,0-22.7-10.2-22.7-22.7S37.5,20.7,50,20.7z M52.1,83.4c-1.3-0.8-2.9-0.8-4.2,0l-15,8.6V65.7c4.7,3.7,10.7,5.8,17.1,5.8
		s12.4-2.2,17.1-5.8V92L52.1,83.4z"/>
	<path d="M51.2,28.5l3,9.3h9.8c1.3,0,1.8,1.6,0.8,2.4L56.9,46l3,9.3c0.4,1.2-1,2.2-2,1.5L50,51l-7.9,5.8c-1,0.7-2.4-0.3-2-1.5l3-9.3
		l-7.9-5.8c-1-0.7-0.5-2.4,0.8-2.4h9.8l3-9.3C49.1,27.3,50.9,27.3,51.2,28.5z"/>
</g>
</svg>
