<?xml version="1.0" encoding="utf-8"?>
<!-- Generator: Adobe Illustrator 22.0.1, SVG Export Plug-In . SVG Version: 6.00 Build 0)  -->
<svg version="1.1" id="Layer_1" xmlns="http://www.w3.org/2000/svg" xmlns:xlink="http://www.w3.org/1999/xlink" x="0px" y="0px"
	 viewBox="0 0 100 100" style="enable-background:new 0 0 100 100;" xml:space="preserve">
<path d="M1.7,88.4L11,75.9c0,0,2.6-2,2.6-10.7s0-38.8,0-38.8s0.5-3.5-2.9-7.6c-3.3-4.1-6.5-8-6.5-8h26.5l22,47.7l19.3-47.7h26.2
	L90,20.1v59.5l8.3,8.6H61.6l8-7.9L70,27.6L45.2,89.3L18,29.5l-0.5,38.2c0,0-0.3,4.2,2.3,7.9c2.6,3.5,9.9,12.9,9.9,12.9H1.7z"/>
</svg>
