<?xml version="1.0" encoding="utf-8"?>
<!-- Generator: Adobe Illustrator 22.0.1, SVG Export Plug-In . SVG Version: 6.00 Build 0)  -->
<svg version="1.1" id="Layer_2_1_" xmlns="http://www.w3.org/2000/svg" xmlns:xlink="http://www.w3.org/1999/xlink" x="0px" y="0px"
	 viewBox="0 0 100 100" style="enable-background:new 0 0 100 100;" xml:space="preserve">
<g>
	<path d="M50,68.5c10.2,0,18.5-8.3,18.5-18.5V20C68.5,9.9,60.2,1.6,50,1.6S31.5,9.9,31.5,20v30C31.5,60.3,39.8,68.5,50,68.5z M37,20
		c0-7.1,5.8-13,13-13s13,5.8,13,13v30c0,7.1-5.8,13-13,13s-13-5.8-13-13V20z"/>
	<path d="M82.6,49.3c0-1.5-1.2-2.8-2.8-2.8s-2.8,1.2-2.8,2.8c0,14.9-12.1,27.1-27.1,27.1S22.9,64.2,22.9,49.3c0-1.5-1.2-2.8-2.8-2.8
		s-2.8,1.2-2.8,2.8c0,17,13.1,31.1,29.8,32.5v11.2h-11c-1.5,0-2.8,1.2-2.8,2.8s1.2,2.8,2.8,2.8h27.6c1.5,0,2.8-1.2,2.8-2.8
		s-1.2-2.8-2.8-2.8h-11V81.8C69.4,80.4,82.6,66.3,82.6,49.3z"/>
</g>
</svg>
