<?xml version="1.0" encoding="utf-8"?>
<!-- Generator: Adobe Illustrator 22.0.1, SVG Export Plug-In . SVG Version: 6.00 Build 0)  -->
<svg version="1.1" id="Layer_1" xmlns="http://www.w3.org/2000/svg" xmlns:xlink="http://www.w3.org/1999/xlink" x="0px" y="0px"
	 viewBox="0 0 100 100" style="enable-background:new 0 0 100 100;" xml:space="preserve">
<path d="M69.4,2.5C54,2.5,41.4,15.1,41.4,30.5c0,2.8,0.4,5.6,1.2,8.2L6.3,75c-2.5,2.5-3.8,5.8-3.8,9.3c0,3.5,1.4,6.8,3.8,9.3h0
	c2.6,2.6,5.9,3.9,9.3,3.9s6.7-1.3,9.3-3.9l36.3-36.3c2.6,0.8,5.3,1.2,8.2,1.2c15.5,0,28.1-12.6,28.1-28.1S84.9,2.5,69.4,2.5z
	 M10.2,89.8L10.2,89.8C8.8,88.3,8,86.4,8,84.3c0-2.1,0.8-4,2.2-5.4l0.9-0.9L22,88.8l-0.9,0.9C18.1,92.8,13.2,92.8,10.2,89.8z
	 M25.9,84.9L15.1,74.1l28.8-28.8l10.9,10.9L25.9,84.9z M46.9,30.5c0-2.4,0.4-4.8,1.1-7L76.3,52c-2.2,0.7-4.5,1.1-6.9,1.1
	C57,53.1,46.9,43,46.9,30.5z M81.6,49.5L50.5,18.3c4-6.2,11-10.3,18.9-10.3C81.9,8,92,18.1,92,30.5C92,38.5,87.9,45.5,81.6,49.5z"/>
</svg>
