<?xml version="1.0" encoding="utf-8"?>
<!-- Generator: Adobe Illustrator 21.0.0, SVG Export Plug-In . SVG Version: 6.00 Build 0)  -->
<svg version="1.1" id="Layer_1" xmlns="http://www.w3.org/2000/svg" xmlns:xlink="http://www.w3.org/1999/xlink" x="0px" y="0px"
	 viewBox="0 0 100 100" style="enable-background:new 0 0 100 100;" xml:space="preserve">
<g>
	<path d="M2.5,47.7c15.1,0,30.1,0,45.2,0c0-15.1,0-30.1,0-45.2H2.5V47.7z"/>
	<path d="M97.5,47.7c0-15.1,0-30.1,0-45.2H52.3c0,15.1,0,30.1,0,45.2C67.4,47.7,82.4,47.7,97.5,47.7z"/>
	<path d="M2.5,97.5h45.2c0-15.1,0-30.1,0-45.2c-15.1,0-30.1,0-45.2,0V97.5z"/>
	<path d="M52.3,97.5h45.2c0-15.1,0-30.1,0-45.2c-15.1,0-30.1,0-45.2,0C52.3,67.4,52.3,82.4,52.3,97.5z"/>
</g>
</svg>
