<?xml version="1.0" encoding="utf-8"?>
<!-- Generator: Adobe Illustrator 22.0.1, SVG Export Plug-In . SVG Version: 6.00 Build 0)  -->
<svg version="1.1" id="Layer_1" xmlns="http://www.w3.org/2000/svg" xmlns:xlink="http://www.w3.org/1999/xlink" x="0px" y="0px"
	 viewBox="0 0 100 100" style="enable-background:new 0 0 100 100;" xml:space="preserve">
<path d="M19.4,96.4h68.7c0-2.9-13.5-5.3-30.8-5.6v-6.1c0.1,0,0.2,0,0.3,0C74,82.7,86.5,68.7,86.5,52c0-9.3-4-18.2-10.9-24.4
	c-0.8-0.7-1.7-1.4-2.5-2.1l4.3-7.8c1.6-2.9,0.5-6.5-2.4-8.1l-9.8-5.4c-2.9-1.6-6.5-0.5-8.1,2.4L37.9,41.9c-1.6,2.9-0.5,6.5,2.4,8.1
	l9.8,5.4l0,0C51,55.8,52,56,53,56c0.6,0,1.1-0.1,1.7-0.2c1.5-0.4,2.8-1.5,3.5-2.9l12.2-22.4c0.5,0.4,1,0.8,1.5,1.3
	c5.7,5.2,9,12.6,9,20.3c0,13.8-10.4,25.5-24.1,27.1c-2.4,0.3-4.8,0.2-7.2-0.1c-7.6-1.1-14.2-5.3-18.4-11.5h26.2
	c1.5,0,2.8-1.2,2.8-2.8S59,62,57.5,62H14.7c-1.5,0-2.8,1.2-2.8,2.8s1.2,2.8,2.8,2.8h10.1c4.9,9.1,13.7,15.4,24.1,17
	c0.1,0,0.3,0,0.4,0v6.3C32.4,91.1,19.4,93.5,19.4,96.4z M53.4,50.3c-0.1,0.1-0.2,0.2-0.3,0.2c-0.1,0-0.2,0-0.3,0l-9.8-5.4
	c-0.2-0.1-0.3-0.4-0.2-0.6L61.9,9.4c0.1-0.2,0.4-0.3,0.6-0.2l9.8,5.4c0.2,0.1,0.3,0.4,0.2,0.6L53.4,50.3z"/>
</svg>
