<?xml version="1.0" encoding="utf-8"?>
<!-- Generator: Adobe Illustrator 22.0.1, SVG Export Plug-In . SVG Version: 6.00 Build 0)  -->
<svg version="1.1" id="Layer_1" xmlns="http://www.w3.org/2000/svg" xmlns:xlink="http://www.w3.org/1999/xlink" x="0px" y="0px"
	 viewBox="0 0 100 100" style="enable-background:new 0 0 100 100;" xml:space="preserve">
<g>
	<path d="M74.6,2.9H25.4c-2.6,0-4.7,2.1-4.7,4.7v84.9c0,2.6,2.1,4.7,4.7,4.7h49.3c2.6,0,4.7-2.1,4.7-4.7V7.6
		C79.3,5,77.2,2.9,74.6,2.9z M73.8,91.6H26.2V8.4h47.7L73.8,91.6L73.8,91.6z"/>
	<path d="M46.4,16.9h7.5c1.1,0,2-0.9,2-2s-0.9-2-2-2h-7.5c-1.1,0-2,0.9-2,2S45.3,16.9,46.4,16.9z"/>
	<circle cx="62.9" cy="14.9" r="2.5"/>
	<circle cx="50" cy="83.1" r="3.8"/>
</g>
</svg>
