<?xml version="1.0" encoding="utf-8"?>
<!-- Generator: Adobe Illustrator 22.0.1, SVG Export Plug-In . SVG Version: 6.00 Build 0)  -->
<svg version="1.1" id="Layer_1" xmlns="http://www.w3.org/2000/svg" xmlns:xlink="http://www.w3.org/1999/xlink" x="0px" y="0px"
	 viewBox="0 0 100 100" style="enable-background:new 0 0 100 100;" xml:space="preserve">
<g>
	<path d="M49.2,2.1L12.7,12.7c-0.9,0.2-1.4,1-1.4,1.9v30.2c0,24,15.2,45.4,37.8,53.1l0.9,0.3l0.9-0.3c22.6-7.8,37.7-29.2,37.7-53.1
		V14.6c0-0.9-0.6-1.7-1.4-1.9L50.4,2.1C50,2,49.6,2,49.2,2.1z M83.2,44.7C83.2,66,69.9,85.1,50,92.4c-19.9-7.3-33.2-26.3-33.2-47.6
		V17.2l33-9.6l33.3,9.6L83.2,44.7L83.2,44.7z"/>
	<path d="M48.1,24.8V29h-4.8c-3.2,0-6.1,1.2-8.4,3.5c-2.2,2.2-3.5,5.2-3.5,8.4c0,6.5,5.3,11.9,11.9,11.9h13.4c3.5,0,6.4,2.9,6.4,6.4
		s-2.9,6.4-6.4,6.4h-5.6c-0.1,0-0.1,0-0.2,0s-0.1,0-0.2,0H37.3c-1.5,0-2.8,1.2-2.8,2.8s1.2,2.8,2.8,2.8h10.9v4.2
		c0,1.5,1.2,2.8,2.8,2.8s2.8-1.2,2.8-2.8V71h3.1c6.5,0,11.9-5.3,11.9-11.9s-5.3-11.9-11.9-11.9H43.3c-3.5,0-6.4-2.9-6.4-6.4
		c0-1.7,0.7-3.3,1.9-4.5s2.8-1.9,4.5-1.9h19.4c1.5,0,2.8-1.2,2.8-2.8S64.2,29,62.7,29h-9.1v-4.2c0-1.5-1.2-2.8-2.8-2.8
		S48.1,23.3,48.1,24.8z"/>
</g>
</svg>
