<?xml version="1.0" encoding="utf-8"?>
<!-- Generator: Adobe Illustrator 21.0.2, SVG Export Plug-In . SVG Version: 6.00 Build 0)  -->
<svg version="1.1" id="Layer_1" xmlns="http://www.w3.org/2000/svg" xmlns:xlink="http://www.w3.org/1999/xlink" x="0px" y="0px"
	 viewBox="0 0 100 100" style="enable-background:new 0 0 100 100;" xml:space="preserve">
<g>
	<path d="M50,1.7c-18.2,0-33,14.8-33,33C17,51.7,44.1,89.8,45.7,92l3.5,5c0.4,0.6,1.3,0.6,1.6,0l3.5-5.1c0.1-0.1,0.2-0.3,0.4-0.6
		C65.3,76.1,83,48.5,83,34.7C83,16.5,68.2,1.7,50,1.7z M50.2,88.3c-0.1,0.1-0.2,0.2-0.2,0.3c-3.9-5.2-27.5-39.9-27.5-53.9
		C22.5,19.6,34.8,7.2,50,7.2s27.5,12.3,27.5,27.5C77.5,43.6,67.3,63.6,50.2,88.3z"/>
	<path d="M54.1,34.2h-8.2c-1.6,0-2.8-1.3-2.8-2.8c0-0.8,0.3-1.5,0.8-2c0.5-0.5,1.3-0.8,2-0.8h11.9c1.5,0,2.8-1.2,2.8-2.8
		S59.3,23,57.8,23h-4.5v-1.5c0-1.5-1.2-2.8-2.8-2.8c-1.5,0-2.8,1.2-2.8,2.8V23h-1.9c-2.2,0-4.3,0.9-5.9,2.4
		c-1.6,1.6-2.4,3.7-2.4,5.9c0,4.6,3.7,8.3,8.3,8.3h8.2c1.6,0,2.8,1.3,2.8,2.8s-1.3,2.8-2.8,2.8h-3.4c0,0-0.1,0-0.1,0s-0.1,0-0.1,0
		h-8.2c-1.5,0-2.8,1.2-2.8,2.8s1.2,2.8,2.8,2.8h5.6v1.5c0,1.5,1.2,2.8,2.8,2.8c1.5,0,2.8-1.2,2.8-2.8v-1.5h0.8
		c4.6,0,8.3-3.7,8.3-8.3S58.7,34.2,54.1,34.2z"/>
</g>
</svg>
