<?xml version="1.0" encoding="utf-8"?>
<!-- Generator: Adobe Illustrator 21.0.2, SVG Export Plug-In . SVG Version: 6.00 Build 0)  -->
<svg version="1.1" id="Layer_2_1_" xmlns="http://www.w3.org/2000/svg" xmlns:xlink="http://www.w3.org/1999/xlink" x="0px" y="0px"
	 viewBox="0 0 100 100" style="enable-background:new 0 0 100 100;" xml:space="preserve">
<g>
	<path d="M17.2,36.5c-7.4,0-13.5,6-13.5,13.5c0,7.4,6,13.5,13.5,13.5c3.7,0,7.1-1.5,9.7-4.1c2.5-2.6,3.9-6.1,3.8-9.4
		C30.7,42.5,24.6,36.5,17.2,36.5z M22.9,55.5c-1.5,1.6-3.5,2.4-5.7,2.4c-4.4,0-8-3.6-8-8s3.6-8,8-8s8,3.5,8,8
		C25.3,51.9,24.4,54,22.9,55.5z"/>
	<path d="M50,36.5c-7.4,0-13.5,6-13.5,13.5c0,7.4,6,13.5,13.5,13.5c3.7,0,7.1-1.5,9.7-4.1c2.5-2.6,3.9-6.1,3.8-9.4
		C63.5,42.5,57.4,36.5,50,36.5z M55.7,55.5C54.2,57.1,52.2,58,50,58c-4.4,0-8-3.6-8-8s3.6-8,8-8s8,3.5,8,8
		C58,51.9,57.2,54,55.7,55.5z"/>
	<path d="M92.4,40.5c-2.6-2.6-6-4-9.7-4c-7.4,0-13.5,6-13.5,13.5c0,7.4,6,13.5,13.5,13.5c3.7,0,7.1-1.5,9.7-4.1
		c2.5-2.6,3.9-6,3.8-9.4C96.3,46.5,95,43.1,92.4,40.5z M90.7,50c0.1,2-0.7,3.9-2.2,5.5C87,57.1,85,58,82.8,58c-4.4,0-8-3.6-8-8
		s3.6-8,8-8c2.2,0,4.2,0.8,5.8,2.4c1.4,1.4,2.3,3.5,2.2,5.4V50L90.7,50z"/>
</g>
</svg>
