<?xml version="1.0" encoding="utf-8"?>
<!-- Generator: Adobe Illustrator 22.0.1, SVG Export Plug-In . SVG Version: 6.00 Build 0)  -->
<svg version="1.1" id="Layer_2_1_" xmlns="http://www.w3.org/2000/svg" xmlns:xlink="http://www.w3.org/1999/xlink" x="0px" y="0px"
	 viewBox="0 0 100 100" style="enable-background:new 0 0 100 100;" xml:space="preserve">
<path d="M50,2.4C30.9,2.4,15.3,17.9,15.3,37V63c0,19.1,15.6,34.7,34.7,34.7c9.4,0,18.2-3.6,24.7-10.3c6.5-6.5,10-15.2,10-24.4V37
	C84.7,17.9,69.1,2.4,50,2.4z M79.2,37v2.6h-26V8C67.8,9.6,79.2,22,79.2,37z M47.7,8v31.7H20.8V37C20.8,21.7,32.7,9.1,47.7,8z
	 M70.8,83.5c-5.5,5.6-12.9,8.7-20.8,8.7c-16.1,0-29.2-13.1-29.2-29.2V45.1h58.4V63C79.3,70.7,76.3,78,70.8,83.5z"/>
</svg>
