<?xml version="1.0" encoding="utf-8"?>
<!-- Generator: Adobe Illustrator 22.0.1, SVG Export Plug-In . SVG Version: 6.00 Build 0)  -->
<svg version="1.1" id="Layer_1" xmlns="http://www.w3.org/2000/svg" xmlns:xlink="http://www.w3.org/1999/xlink" x="0px" y="0px"
	 viewBox="0 0 100 100" style="enable-background:new 0 0 100 100;" xml:space="preserve">
<path d="M96.7,47.3L84.5,35.1c-1.1-1.1-2.8-1.1-3.9,0c-1.1,1.1-1.1,2.8,0,3.9l8.3,8.3H52.7V11.1l8.3,8.3c0.5,0.5,1.2,0.8,1.9,0.8
	s1.4-0.3,1.9-0.8c1.1-1.1,1.1-2.8,0-3.9L52.7,3.3c-1.5-1.5-3.8-1.5-5.3,0L35.1,15.5c-1.1,1.1-1.1,2.8,0,3.9c1.1,1.1,2.8,1.1,3.9,0
	l8.3-8.3v36.1H11.1l8.3-8.3c1.1-1.1,1.1-2.8,0-3.9c-1.1-1.1-2.8-1.1-3.9,0L3.3,47.3c-1.5,1.5-1.5,3.8,0,5.3l12.3,12.3
	c0.5,0.5,1.2,0.8,1.9,0.8s1.4-0.3,1.9-0.8c1.1-1.1,1.1-2.8,0-3.9l-8.3-8.3h36.1v36.1L39,80.6c-1.1-1.1-2.8-1.1-3.9,0
	c-1.1,1.1-1.1,2.8,0,3.9l12.3,12.3c0.7,0.7,1.7,1.1,2.7,1.1c1,0,1.9-0.4,2.7-1.1l12.3-12.3c1.1-1.1,1.1-2.8,0-3.9s-2.8-1.1-3.9,0
	l-8.3,8.3V52.8h36.1L80.6,61c-1.1,1.1-1.1,2.8,0,3.9c0.5,0.5,1.2,0.8,1.9,0.8s1.4-0.3,1.9-0.8l12.3-12.3
	C98.2,51.2,98.2,48.8,96.7,47.3z"/>
</svg>
