<?xml version="1.0" encoding="utf-8"?>
<!-- Generator: Adobe Illustrator 22.0.1, SVG Export Plug-In . SVG Version: 6.00 Build 0)  -->
<svg version="1.1" id="Layer_2_1_" xmlns="http://www.w3.org/2000/svg" xmlns:xlink="http://www.w3.org/1999/xlink" x="0px" y="0px"
	 viewBox="0 0 100 100" style="enable-background:new 0 0 100 100;" xml:space="preserve">
<path d="M96.6,10c-1.1-1-2.6-1.5-4.2-1.4L29.3,15l-0.1,0c-2.6,0.4-4.6,2.7-4.6,5.3v53.4c-2.4-1.3-5.4-2-8.6-2
	c-7.9,0-14.2,4.3-14.2,9.8s6.2,9.8,14.2,9.8c7.9,0,14.1-4.3,14.1-9.8h0V41.1l62.8-6.5V70c-2.4-1.3-5.4-2-8.7-2
	C76.2,68,70,72.3,70,77.8s6.2,9.8,14.2,9.8c7.6,0,13.7-4,14.1-9.3h0V13.9C98.3,12.4,97.7,11,96.6,10z M15.9,85.9
	c-5,0-8.7-2.3-8.7-4.3s3.7-4.3,8.7-4.3c5,0,8.6,2.3,8.6,4.3S20.8,85.9,15.9,85.9z M30,35.6V20.4l62.8-6.4v15L30,35.6z M84.1,82.2
	c-5,0-8.7-2.3-8.7-4.3s3.7-4.4,8.7-4.4s8.7,2.3,8.7,4.4S89.1,82.2,84.1,82.2z"/>
</svg>
