<?xml version="1.0" encoding="utf-8"?>
<!-- Generator: Adobe Illustrator 21.0.2, SVG Export Plug-In . SVG Version: 6.00 Build 0)  -->
<svg version="1.1" id="Layer_2_1_" xmlns="http://www.w3.org/2000/svg" xmlns:xlink="http://www.w3.org/1999/xlink" x="0px" y="0px"
	 viewBox="0 0 100 100" style="enable-background:new 0 0 100 100;" xml:space="preserve">
<path d="M84.6,15.4c-19.1-19.1-50.1-19.1-69.2,0c-19.1,19.1-19.1,50.1,0,69.2c9.5,9.5,22.1,14.3,34.6,14.3s25.1-4.8,34.6-14.3
	C103.7,65.5,103.7,34.5,84.6,15.4z M19.3,19.3C27.8,10.8,38.9,6.6,50,6.6c10.3,0,20.5,3.6,28.7,10.8L17.4,78.7
	C2.4,61.7,3,35.6,19.3,19.3z M80.7,80.7C64.4,97,38.3,97.6,21.3,82.6l61.3-61.3C97.6,38.3,97,64.4,80.7,80.7z"/>
</svg>
