<?xml version="1.0" encoding="utf-8"?>
<!-- Generator: Adobe Illustrator 21.0.2, SVG Export Plug-In . SVG Version: 6.00 Build 0)  -->
<svg version="1.1" id="Layer_1" xmlns="http://www.w3.org/2000/svg" xmlns:xlink="http://www.w3.org/1999/xlink" x="0px" y="0px"
	 viewBox="0 0 100 100" style="enable-background:new 0 0 100 100;" xml:space="preserve">
<g>
	<path d="M49.7,25.5c5.6,0,10.1-4.5,10.1-10.1S55.2,5.4,49.7,5.4c-5.6,0-10.1,4.5-10.1,10.1S44.1,25.5,49.7,25.5z M49.7,10.9
		c2.5,0,4.6,2,4.6,4.6s-2,4.6-4.6,4.6s-4.6-2-4.6-4.6S47.2,10.9,49.7,10.9z"/>
	<path d="M33.9,39.5c0.6,0,1.3-0.2,1.8-0.7c3.9-3.4,8.8-5.3,14-5.3c5.2,0,10.1,1.9,14,5.3c1.1,1,2.9,0.9,3.9-0.2
		c1-1.1,0.9-2.9-0.2-3.9C62.5,30.3,56.2,28,49.7,28S36.9,30.3,32,34.7c-1.1,1-1.2,2.7-0.2,3.9C32.3,39.2,33.1,39.5,33.9,39.5z"/>
	<path d="M20.9,80.7c5.6,0,10.1-4.5,10.1-10.1c0-5.6-4.5-10.1-10.1-10.1S10.8,65,10.8,70.6C10.8,76.2,15.4,80.7,20.9,80.7z M20.9,66
		c2.5,0,4.6,2,4.6,4.6s-2,4.6-4.6,4.6s-4.6-2-4.6-4.6S18.4,66,20.9,66z"/>
	<path d="M20.9,83.1c-6.5,0-12.8,2.4-17.7,6.7c-1.1,1-1.2,2.7-0.2,3.9c1,1.1,2.7,1.2,3.9,0.2c3.9-3.4,8.8-5.3,14-5.3
		s10.1,1.9,14,5.3c0.5,0.5,1.2,0.7,1.8,0.7c0.8,0,1.5-0.3,2.1-0.9c1-1.1,0.9-2.9-0.2-3.9C33.7,85.5,27.4,83.1,20.9,83.1z"/>
	<path d="M79.1,80.7c5.6,0,10.1-4.5,10.1-10.1c0-5.6-4.5-10.1-10.1-10.1C73.5,60.5,69,65,69,70.6C69,76.2,73.5,80.7,79.1,80.7z
		 M79.1,66c2.5,0,4.6,2,4.6,4.6s-2,4.6-4.6,4.6s-4.6-2-4.6-4.6S76.6,66,79.1,66z"/>
	<path d="M96.7,89.8c-4.9-4.3-11.2-6.7-17.7-6.7c-6.5,0-12.8,2.4-17.7,6.7c-1.1,1-1.2,2.7-0.2,3.9c0.5,0.6,1.3,0.9,2.1,0.9
		c0.6,0,1.3-0.2,1.8-0.7c3.9-3.4,8.8-5.3,14-5.3s10.1,1.9,14,5.3c1.1,1,2.9,0.9,3.9-0.2C98,92.6,97.9,90.8,96.7,89.8z"/>
	<path d="M59.3,59.6l-6.8-4.5v-8.9c0-1.5-1.2-2.8-2.8-2.8s-2.8,1.2-2.8,2.8v8.9l-6.8,4.5c-1.3,0.8-1.6,2.5-0.8,3.8
		c0.5,0.8,1.4,1.2,2.3,1.2c0.5,0,1-0.1,1.5-0.5l6.6-4.3l6.6,4.3c0.5,0.3,1,0.5,1.5,0.5c0.9,0,1.8-0.4,2.3-1.2
		C60.9,62.1,60.6,60.4,59.3,59.6z"/>
</g>
</svg>
