<?xml version="1.0" encoding="utf-8"?>
<!-- Generator: Adobe Illustrator 22.0.1, SVG Export Plug-In . SVG Version: 6.00 Build 0)  -->
<svg version="1.1" id="Layer_1" xmlns="http://www.w3.org/2000/svg" xmlns:xlink="http://www.w3.org/1999/xlink" x="0px" y="0px"
	 viewBox="0 0 100 100" style="enable-background:new 0 0 100 100;" xml:space="preserve">
<g>
	<path d="M40.6,95.4c-4.5,0-9.1-0.7-13.5-2.1c-4.1-1.3-8-3.1-11.5-5.4c-1.5-1-2.1-2.7-1.7-4.4c0.5-1.7,1.9-2.8,3.7-2.9
		c17.1-0.6,31.9-11.9,37-28.3c4.5-14.7,0.4-30.4-10.7-41c-1.3-1.2-1.6-3-0.8-4.6c0.8-1.6,2.4-2.5,4.2-2.2c2.7,0.4,5.4,1.1,8.1,2
		c22.8,7.8,35.7,32,29.3,55.3c-3.3,12-11.2,21.9-22.1,27.9C55.7,93.5,48.2,95.4,40.6,95.4z M22.8,85.7c1.9,0.9,3.9,1.7,6,2.4
		c10.5,3.2,21.5,2.1,31.1-3.1c9.6-5.3,16.5-14,19.4-24.6c5.6-20.4-5.7-41.8-25.7-48.6c-0.8-0.3-1.6-0.5-2.4-0.7
		c10.1,11.8,13.4,27.9,8.8,43C54.6,71,40,83.2,22.8,85.7z M18.6,83.4L18.6,83.4C18.6,83.4,18.6,83.4,18.6,83.4
		C18.6,83.4,18.6,83.4,18.6,83.4z"/>
</g>
</svg>
