<?xml version="1.0" encoding="utf-8"?>
<!-- Generator: Adobe Illustrator 22.0.1, SVG Export Plug-In . SVG Version: 6.00 Build 0)  -->
<svg version="1.1" id="Layer_1" xmlns="http://www.w3.org/2000/svg" xmlns:xlink="http://www.w3.org/1999/xlink" x="0px" y="0px"
	 viewBox="0 0 100 100" style="enable-background:new 0 0 100 100;" xml:space="preserve">
<g>
	<path d="M93.2,43l-7.2-3.1c-0.8-0.3-1.1-0.9-1.2-1.3s-0.2-1,0.2-1.7l4-6.7c1.6-2.6,1.4-5.8-0.4-8.3s-4.8-3.6-7.8-2.9l-7.6,1.7
		c-0.8,0.2-1.4-0.1-1.7-0.3c-0.3-0.2-0.8-0.7-0.9-1.5L70,11.1c-0.3-3.1-2.3-5.6-5.2-6.5c-2.9-1-6-0.1-8,2.2l-5.2,5.9
		c-0.5,0.6-1.2,0.7-1.6,0.7s-1-0.1-1.6-0.7l-5.2-5.9c-2-2.3-5.1-3.2-8-2.2c-2.9,1-4.9,3.4-5.2,6.5l-0.7,7.8
		c-0.1,0.8-0.6,1.3-0.9,1.5c-0.3,0.2-0.9,0.5-1.7,0.3L19.1,19c-3-0.7-6,0.5-7.8,2.9c-1.8,2.5-2,5.7-0.4,8.3l4,6.7
		c0.4,0.7,0.3,1.4,0.2,1.7c-0.1,0.3-0.4,0.9-1.2,1.3L6.8,43c-2.8,1.2-4.6,3.9-4.6,7c0,3.1,1.8,5.8,4.6,7l7.2,3.1
		c0.8,0.3,1.1,0.9,1.2,1.3c0.1,0.3,0.2,1-0.2,1.7l-4,6.7c-1.6,2.6-1.4,5.8,0.4,8.3c1.8,2.5,4.8,3.6,7.8,2.9l7.6-1.7
		c0.8-0.2,1.4,0.1,1.7,0.3c0.3,0.2,0.8,0.7,0.9,1.5l0.7,7.8c0.3,3.1,2.3,5.6,5.2,6.5c0.8,0.3,1.6,0.4,2.4,0.4c2.1,0,4.2-0.9,5.6-2.6
		l5.1-5.9c0.5-0.6,1.2-0.7,1.6-0.7s1,0.1,1.6,0.7l5.2,5.9c2,2.3,5.1,3.2,8,2.2c2.9-1,4.9-3.4,5.2-6.5l0.7-7.8
		c0.1-0.8,0.6-1.3,0.9-1.5c0.3-0.2,0.9-0.5,1.7-0.3l7.6,1.7c3,0.7,6-0.5,7.8-2.9c1.8-2.5,2-5.7,0.4-8.3l-4-6.7
		c-0.4-0.7-0.3-1.4-0.2-1.7c0.1-0.3,0.4-0.9,1.2-1.3l7.2-3.1c2.8-1.2,4.6-3.9,4.6-7C97.8,46.9,96,44.2,93.2,43z M91,51.9L83.9,55
		c-2,0.9-3.5,2.6-4.2,4.6c-0.7,2.1-0.4,4.3,0.7,6.2l4,6.7c0.6,1.1,0.1,2-0.1,2.3c-0.2,0.3-0.9,1.1-2.2,0.8L74.5,74
		c-2.1-0.5-4.4,0-6.1,1.3c-1.8,1.3-2.9,3.3-3.1,5.4l-0.7,7.8c-0.1,1.2-1,1.7-1.4,1.8c-0.4,0.1-1.4,0.3-2.2-0.6l-5.2-5.9
		c-1.4-1.6-3.5-2.6-5.7-2.6c-2.2,0-4.3,0.9-5.7,2.6l-5.2,5.9c-0.8,0.9-1.8,0.7-2.2,0.6c-0.4-0.1-1.3-0.6-1.4-1.8l-0.7-7.8
		c-0.2-2.2-1.3-4.2-3.1-5.4c-1.3-1-2.9-1.5-4.5-1.5c-0.6,0-1.1,0.1-1.7,0.2l-7.6,1.7c-1.2,0.3-1.9-0.5-2.2-0.8s-0.7-1.2-0.1-2.3
		l4-6.7c1.1-1.9,1.4-4.1,0.7-6.2s-2.2-3.8-4.2-4.6L9,51.9c-1.1-0.5-1.3-1.5-1.3-1.9c0-0.4,0.1-1.4,1.3-1.9l7.2-3.1
		c2-0.9,3.5-2.6,4.2-4.6c0.7-2.1,0.4-4.3-0.7-6.2l-4-6.7c-0.6-1.1-0.1-2,0.1-2.3c0.2-0.3,0.9-1.1,2.2-0.8l7.6,1.7
		c2.1,0.5,4.4,0,6.1-1.3c1.8-1.3,2.9-3.3,3.1-5.4l0.7-7.8c0.1-1.2,1-1.7,1.4-1.8s1.4-0.3,2.2,0.6l5.2,5.9c1.4,1.6,3.5,2.6,5.7,2.6
		c2.2,0,4.3-0.9,5.7-2.6l5.2-5.9c0.8-0.9,1.8-0.7,2.2-0.6c0.4,0.1,1.3,0.6,1.4,1.8l0.7,7.8c0.2,2.2,1.3,4.2,3.1,5.4
		c1.8,1.3,4,1.7,6.1,1.3l7.6-1.7c1.2-0.3,1.9,0.5,2.2,0.8c0.2,0.3,0.7,1.2,0.1,2.3l-4,6.7c-1.1,1.9-1.4,4.1-0.7,6.2s2.2,3.8,4.2,4.6
		l7.2,3.1c1.1,0.5,1.3,1.5,1.3,1.9C92.3,50.4,92.2,51.4,91,51.9z"/>
	<path d="M62.5,31.2c-1.3-0.8-3-0.5-3.8,0.8L37.2,64.7c-0.8,1.3-0.5,3,0.8,3.8c0.5,0.3,1,0.4,1.5,0.4c0.9,0,1.8-0.4,2.3-1.2L63.3,35
		C64.1,33.7,63.7,32,62.5,31.2z"/>
	<circle cx="39.7" cy="38.9" r="4.2"/>
	<path d="M61.8,56.8c-2.3,0-4.2,1.9-4.2,4.2s1.9,4.2,4.2,4.2c2.3,0,4.2-1.9,4.2-4.2S64.1,56.8,61.8,56.8z"/>
</g>
</svg>
