<?xml version="1.0" encoding="utf-8"?>
<!-- Generator: Adobe Illustrator 22.0.1, SVG Export Plug-In . SVG Version: 6.00 Build 0)  -->
<svg version="1.1" id="Layer_2_1_" xmlns="http://www.w3.org/2000/svg" xmlns:xlink="http://www.w3.org/1999/xlink" x="0px" y="0px"
	 viewBox="0 0 100 100" style="enable-background:new 0 0 100 100;" xml:space="preserve">
<path d="M95.8,33.5l-14-28.1c-0.5-1-1.5-1.7-2.7-1.7H20.9c-1.1,0-2.2,0.6-2.7,1.7l-14,28.1L3.5,35c-0.2,0.4-0.3,0.9-0.3,1.3V39v54.3
	c0,1.7,1.3,3,3,3h87.7c1.7,0,3-1.3,3-3V39v-2.7c0-0.5-0.1-0.9-0.3-1.3L95.8,33.5z M52.7,9.2h24.9l12.1,24.3h-37
	C52.7,33.5,52.7,9.2,52.7,9.2z M22.5,9.2h24.7v24.3H10.3L22.5,9.2z M91.4,90.8H8.6V39h82.7v51.8H91.4z"/>
<path d="M44.3,85.5H16.8c-1.6,0-2.9-1.3-2.9-2.9V67.8c0-1.6,1.3-2.9,2.9-2.9h27.4c1.6,0,3,1.3,3,2.9v14.7
	C47.2,84.2,45.9,85.5,44.3,85.5z"/>
</svg>
