<?xml version="1.0" encoding="utf-8"?>
<!-- Generator: Adobe Illustrator 22.0.1, SVG Export Plug-In . SVG Version: 6.00 Build 0)  -->
<svg version="1.1" id="Layer_1" xmlns="http://www.w3.org/2000/svg" xmlns:xlink="http://www.w3.org/1999/xlink" x="0px" y="0px"
	 viewBox="0 0 100 100" style="enable-background:new 0 0 100 100;" xml:space="preserve">
<g>
	<path d="M73.5,5.1H26.5c-2.1,0-3.8,1.7-3.8,3.8v22.1c0,2.1,1.7,3.8,3.8,3.8h47.1c2.1,0,3.8-1.7,3.8-3.8V8.8
		C77.3,6.8,75.6,5.1,73.5,5.1z M71.8,29.2H28.2V10.6h43.6V29.2z"/>
	<path d="M73.5,65.3H26.5c-2.1,0-3.8,1.7-3.8,3.8v22.1c0,2.1,1.7,3.8,3.8,3.8h47.1c2.1,0,3.8-1.7,3.8-3.8V69.1
		C77.3,67,75.6,65.3,73.5,65.3z M71.8,89.4H28.2V70.8h43.6V89.4z"/>
	<path d="M31.2,47.5h-6.7c-0.6,0-1,0.4-1,1V52c0,0.6,0.4,1,1,1h6.7c0.6,0,1-0.4,1-1v-3.5C32.2,47.9,31.8,47.5,31.2,47.5z"/>
	<path d="M38,48.5V52c0,0.6,0.4,1,1,1h6.7c0.6,0,1-0.4,1-1v-3.5c0-0.6-0.4-1-1-1H39C38.5,47.5,38,47.9,38,48.5z"/>
	<path d="M52.6,48.5V52c0,0.6,0.4,1,1,1h6.8c0.6,0,1-0.4,1-1v-3.5c0-0.6-0.4-1-1-1h-6.8C53.1,47.5,52.6,47.9,52.6,48.5z"/>
	<path d="M75,47.5h-6.8c-0.6,0-1,0.4-1,1V52c0,0.6,0.4,1,1,1H75c0.6,0,1-0.4,1-1v-3.5C76,47.9,75.5,47.5,75,47.5z"/>
</g>
</svg>
