<?xml version="1.0" encoding="utf-8"?>
<!-- Generator: Adobe Illustrator 22.0.1, SVG Export Plug-In . SVG Version: 6.00 Build 0)  -->
<svg version="1.1" id="Layer_2_1_" xmlns="http://www.w3.org/2000/svg" xmlns:xlink="http://www.w3.org/1999/xlink" x="0px" y="0px"
	 viewBox="0 0 100 100" style="enable-background:new 0 0 100 100;" xml:space="preserve">
<path d="M91.3,58.7L51.4,18.8v-4.5c0-6.4-5.2-11.5-11.5-11.5S28.4,8,28.4,14.3L28.5,37L9,56.5c-0.9,0.9-1.4,2.1-1.4,3.4
	s0.5,2.5,1.4,3.4l32.6,32.6l0,0c0.9,0.9,2.1,1.4,3.4,1.4c1.2,0,2.3-0.4,3.3-1.2l29.9-29.9l10.8-1c1.4-0.1,2.6-1.1,3.1-2.4
	C92.7,61.3,92.3,59.7,91.3,58.7z M33.9,14.3c0-3.3,2.8-6,6-6s6,2.8,6,6v5.3l-12,12L33.9,14.3z M75.7,60.8L45,91.5L13.4,59.9
	l35.6-35.6l12,12l-9.6,9.6c-1.1,1.1-1.1,2.8,0,3.9c0.5,0.5,1.2,0.8,1.9,0.8s1.4-0.3,1.9-0.8l9.6-9.6l6.4,6.4l-6.1,6.1
	c-1.1,1.1-1.1,2.8,0,3.9c0.5,0.5,1.2,0.8,1.9,0.8s1.4-0.3,1.9-0.8l6.1-6.1l9.6,9.6L75.7,60.8z"/>
</svg>
