<?xml version="1.0" encoding="utf-8"?>
<!-- Generator: Adobe Illustrator 22.0.1, SVG Export Plug-In . SVG Version: 6.00 Build 0)  -->
<svg version="1.1" id="Layer_2_1_" xmlns="http://www.w3.org/2000/svg" xmlns:xlink="http://www.w3.org/1999/xlink" x="0px" y="0px"
	 viewBox="0 0 100 100" style="enable-background:new 0 0 100 100;" xml:space="preserve">
<g>
	<path d="M88.7,70.1l-0.3-0.1c-1.1-0.6-2.3-1.3-5.8-2.2l-0.2,0c-1.2-0.2-3-1-3.4-1.3l-0.1-0.2c-1-1-1.4-2.2-1.4-3.7
		c0-1.4,0.5-2.7,1.5-3.8l6.5-6.5c11-11,11-28.4,0-39.5C77.9,5.2,67.6,1.1,56.3,1.1c-12.8,0-25.8,5.5-35.7,15.2
		C11.4,25.5,6.3,37.7,6.3,50.6c0,13.1,5.1,25.2,14.3,34.1c9.2,9.2,21.4,14.3,34.3,14.3c12.9,0,25-5.1,34.1-14.4
		c1.8-1.8,2.9-4.5,2.9-7.1c0-2.8-1.1-5.5-3-7.2L88.7,70.1z M85.1,80.7C77,88.9,66.3,93.4,54.9,93.4c-11.4,0-22.2-4.5-30.4-12.7
		c-8.1-7.9-12.6-18.6-12.6-30.2c0-11.4,4.5-22.2,12.6-30.4c8.8-8.7,20.4-13.6,31.8-13.6c10,0,18.7,3.5,25.2,10c9,9.1,9,22.8,0,31.8
		L75,54.9l-0.1,0.1C73,57.1,72,59.7,72,62.5c0,3,1,5.6,3,7.6c1.6,1.8,5.1,2.8,6.4,3c2.4,0.6,3.3,1.1,4.1,1.5c0.6,0.7,1,1.7,1,2.9
		C86.4,78.6,85.9,79.9,85.1,80.7z"/>
	<circle cx="66.6" cy="49.6" r="4.7"/>
	<ellipse transform="matrix(0.3827 -0.9239 0.9239 0.3827 15.6744 88.6881)" cx="74.2" cy="32.6" rx="6.5" ry="6.5"/>
	<circle cx="51" cy="22.8" r="10.6"/>
</g>
</svg>
