<?xml version="1.0" encoding="utf-8"?>
<!-- Generator: Adobe Illustrator 22.0.1, SVG Export Plug-In . SVG Version: 6.00 Build 0)  -->
<svg version="1.1" id="Layer_2_1_" xmlns="http://www.w3.org/2000/svg" xmlns:xlink="http://www.w3.org/1999/xlink" x="0px" y="0px"
	 viewBox="0 0 100 100" style="enable-background:new 0 0 100 100;" xml:space="preserve">
<g>
	<path d="M82.2,2.9H17.8c-3,0-5.5,2.5-5.5,5.5v83.1c0,3,2.5,5.5,5.5,5.5h64.5c3,0,5.5-2.5,5.5-5.5V8.5C87.7,5.4,85.3,2.9,82.2,2.9z
		 M82.2,94.3v-2.8h0L82.2,94.3z M82.2,91.6l-64.5,0l0-83.1l64.5,0L82.2,91.6z"/>
	<path d="M34.4,29h4.3v2.2c0,1.5,1.2,2.8,2.8,2.8s2.8-1.2,2.8-2.8V29h21.5c1.5,0,2.8-1.2,2.8-2.8s-1.2-2.8-2.8-2.8H44.2v-2.2
		c0-1.5-1.2-2.8-2.8-2.8s-2.8,1.2-2.8,2.8v2.2h-4.3c-1.5,0-2.8,1.2-2.8,2.8S32.9,29,34.4,29z"/>
	<path d="M34.4,53.8h22.9V56c0,1.5,1.2,2.8,2.8,2.8s2.8-1.2,2.8-2.8v-2.2h2.9c1.5,0,2.8-1.2,2.8-2.8s-1.2-2.8-2.8-2.8h-2.9v-2.2
		c0-1.5-1.2-2.8-2.8-2.8s-2.8,1.2-2.8,2.8v2.2H34.4c-1.5,0-2.8,1.2-2.8,2.8S32.9,53.8,34.4,53.8z"/>
	<path d="M34.4,78.6h8v2.2c0,1.5,1.2,2.8,2.8,2.8s2.8-1.2,2.8-2.8v-2.2h17.8c1.5,0,2.8-1.2,2.8-2.8s-1.2-2.8-2.8-2.8H47.9v-2.2
		c0-1.5-1.2-2.8-2.8-2.8s-2.8,1.2-2.8,2.8v2.2h-8c-1.5,0-2.8,1.2-2.8,2.8S32.9,78.6,34.4,78.6z"/>
</g>
</svg>
