<?xml version="1.0" encoding="utf-8"?>
<!-- Generator: Adobe Illustrator 22.0.1, SVG Export Plug-In . SVG Version: 6.00 Build 0)  -->
<svg version="1.1" id="Layer_2_1_" xmlns="http://www.w3.org/2000/svg" xmlns:xlink="http://www.w3.org/1999/xlink" x="0px" y="0px"
	 viewBox="0 0 100 100" style="enable-background:new 0 0 100 100;" xml:space="preserve">
<path d="M72.9,29.9c-1.5,0-2.8,1.2-2.8,2.8l0,40.2c0.1,5.3-2,10.4-5.8,14.3c-3.8,3.8-9,6-14.3,5.8c-5.3,0-10.4-2.1-14.2-6
	c-3.8-3.8-6-9-6-14.2V22.3c0-5,2.3-9.5,6.4-12.4c4-2.9,9-3.6,13.8-2l0.1,0c0.8,0.2,1.3,0.4,1.7,0.7l0.2,0.1
	c5.2,2.8,8.3,7.8,8.3,13.6v47.7c0,3.1-0.9,5.9-2.8,8.2l-0.1,0.1c-0.3,0.4-0.4,0.5-0.7,0.7c-1.8,1.8-3.9,2.7-6.1,2.7
	c-2.6,0-5.2-1.3-6.8-3.4c-1.9-2.3-2.9-5.3-2.9-8.3V32.6c0-1.5-1.2-2.8-2.8-2.8s-2.8,1.2-2.8,2.8v37.5c0,4.3,1.5,8.5,4.1,11.7
	c2.7,3.4,6.8,5.5,11.2,5.5c3.7,0,7.2-1.5,10-4.3c0.3-0.3,0.6-0.6,1.1-1.3c2.6-3.2,4-7.2,4-11.6V22.4c0-7.8-4.2-14.6-11.1-18.4
	c-1.1-0.7-2.1-1-3-1.3c-6.4-2.2-13.2-1.2-18.7,2.7c-5.5,3.9-8.7,10-8.7,16.8v50.4c0,6.7,2.8,13.3,7.6,18.1c4.9,4.9,11.3,7.6,18,7.6
	c0,0,0,0,0,0c0.2,0,0.3,0,0.5,0c6.6,0,13-2.7,17.8-7.5c4.9-4.9,7.6-11.4,7.4-18.2V32.6C75.7,31.1,74.4,29.9,72.9,29.9z"/>
</svg>
