<?xml version="1.0" encoding="utf-8"?>
<!-- Generator: Adobe Illustrator 22.0.1, SVG Export Plug-In . SVG Version: 6.00 Build 0)  -->
<svg version="1.1" id="Layer_1" xmlns="http://www.w3.org/2000/svg" xmlns:xlink="http://www.w3.org/1999/xlink" x="0px" y="0px"
	 viewBox="0 0 100 100" style="enable-background:new 0 0 100 100;" xml:space="preserve">
<path d="M81.4,18.3c-1.5-9.5-8.9-15.7-19-15.7H30.9c-2.2,0-4.1,1.5-4.6,3.6l-18,71.5c-0.4,1.4,0,2.9,0.9,4.1
	c0.9,1.2,2.3,1.8,3.7,1.8h7.7l-2,7.9c-0.4,1.4,0,2.9,0.9,4.1s2.3,1.8,3.7,1.8h19.3c2.2,0,4.1-1.5,4.6-3.6L54,65h8.2
	c6.3,0,12.8-2.5,18.3-7c5.4-4.4,9.3-10.3,10.8-16.7v0C93.6,31.3,89.5,22.1,81.4,18.3z M13.8,78.1l17.7-70h31c7.7,0,13,4.8,13.7,12.3
	c0,2.2-0.2,4.1-0.6,5.9l0,0c-1.2,5-4.4,10-8.9,13.7c-4.4,3.6-9.8,5.7-14.8,5.7H39.6h-0.1l-8,32.4H22H13.8z M85.9,40.1
	c-1.2,5.2-4.4,10.1-8.9,13.7c-4.4,3.6-9.8,5.7-14.8,5.7H49.7l-7.7,32.4H24.2l2.1-8.3h6.6H33c1.7,0,3.2-1.2,3.6-2.9l7.3-29.6h7.9
	c0,0,0,0,0,0H52c6.4,0,12.9-2.5,18.3-7c5.4-4.4,9.3-10.3,10.8-16.7c0.2-0.9,0.4-1.8,0.5-2.7C85.6,28,87.4,33.7,85.9,40.1z"/>
</svg>
