<?xml version="1.0" encoding="utf-8"?>
<!-- Generator: Adobe Illustrator 22.0.1, SVG Export Plug-In . SVG Version: 6.00 Build 0)  -->
<svg version="1.1" id="Layer_1" xmlns="http://www.w3.org/2000/svg" xmlns:xlink="http://www.w3.org/1999/xlink" x="0px" y="0px"
	 viewBox="0 0 100 100" style="enable-background:new 0 0 100 100;" xml:space="preserve">
<path d="M94.6,21.2c-1.8-1.8-3.5-3.5-5.2-5.3C86,12.6,82.5,9.1,79,5.7c-0.9-1-2.1-1.6-3.3-1.6c-1.2,0-2.4,0.4-3.3,1.3L13.3,64.5
	l-9,27.4c-0.3,0.9-0.3,1.9,0.2,2.7C5.1,95.4,6.1,96,7.3,96h0.4l27.9-9.3l59-59C96.4,25.9,96.4,23,94.6,21.2z M16.9,71.1l1.8,1.8
	c0.5,0.5,1.2,0.8,1.9,0.8s1.4-0.3,1.9-0.8c1.1-1.1,1.1-2.8,0-3.9l-3-3l41.6-41.6l14.4,14.4L34.1,80.4l-3.1-3.1
	c-1.1-1.1-2.8-1.1-3.9,0c-1.1,1.1-1.1,2.8,0,3.9l1.9,1.9l-17.9,6L16.9,71.1z M79.6,34.9L65.1,20.4L75.6,10c3.3,3.3,6.7,6.6,9.9,9.9
	c1.5,1.5,3,3,4.5,4.6L79.6,34.9z"/>
</svg>
