<?xml version="1.0" encoding="utf-8"?>
<!-- Generator: Adobe Illustrator 22.0.1, SVG Export Plug-In . SVG Version: 6.00 Build 0)  -->
<svg version="1.1" id="Layer_2_1_" xmlns="http://www.w3.org/2000/svg" xmlns:xlink="http://www.w3.org/1999/xlink" x="0px" y="0px"
	 viewBox="0 0 100 100" style="enable-background:new 0 0 100 100;" xml:space="preserve">
<path d="M97.6,17.3c0-1.1-0.4-2.1-1.2-2.9l-11-11c-0.7-0.9-1.7-1.5-2.7-1.6c-1.1-0.1-2.3,0.3-3.1,1.2L67.7,14.8H6.4
	c-2.3,0-4.1,1.7-4.1,4.1v75.2c0,2.3,1.7,4.1,4.1,4.1h75.1c2.3,0,4.1-1.7,4.1-4.1v-63l10.9-10.9C97.2,19.4,97.6,18.4,97.6,17.3z
	 M52.6,56.3L51,54.7c-1.1-1.1-2.8-1.1-3.9,0c-1.1,1.1-1.1,2.8,0,3.9l0.4,0.4l-10.2,3.4l3.4-10.3l0.4,0.4c0.5,0.5,1.2,0.8,1.9,0.8
	s1.4-0.3,1.9-0.8c1.1-1.1,1.1-2.8,0-3.9L43.3,47L72,18.3l9.3,9.2L52.6,56.3z M80.1,92.7H7.9V20.3h54.4L37.5,45.1l0,0l0,0L37,45.5
	l-6.5,19.8c-0.3,0.9-0.3,1.8,0.2,2.6c0.3,0.4,1,1.4,2.6,1.4h0.4l20.2-6.8l26-26V92.7z M85.2,23.6l-9.3-9.2l6.4-6.4l9.3,9.3
	L85.2,23.6z"/>
</svg>
