<?xml version="1.0" encoding="utf-8"?>
<!-- Generator: Adobe Illustrator 22.0.1, SVG Export Plug-In . SVG Version: 6.00 Build 0)  -->
<svg version="1.1" id="Layer_2_1_" xmlns="http://www.w3.org/2000/svg" xmlns:xlink="http://www.w3.org/1999/xlink" x="0px" y="0px"
	 viewBox="0 0 100 100" style="enable-background:new 0 0 100 100;" xml:space="preserve">
<g>
	<path d="M13.7,42.9h13c2.9,0,4.6-1.1,5.5-2c1.9-1.9,2.1-4,2.1-5.5l0-7.9l0.5-0.2h0.5l0.4-0.2c0.1,0,0.3-0.1,0.5-0.2
		c0.4-0.1,0.8-0.2,1.1-0.3c0.1-0.1,0.3-0.1,0.4-0.1l0.5-0.1c5.5-1.3,11.7-1.5,18.9-0.7c3.4,0.2,5.9,0.8,8.5,1.9l0,7.6
		c0,4.7,2.9,7.6,7.6,7.6h13c0.8,0,3.1,0,5.4-2l0.1-0.1c1.5-1.5,2.2-3.4,2-5.4v-7.9c0-2.6-0.8-4.9-2.6-7.4l-0.3-0.3
		c-2.2-2.8-5.2-4.9-10.1-7.1c-6.7-3.2-14.3-5.1-23.9-6l-0.5,0c-2.3-0.1-4.4-0.2-6.4-0.2c-8.8,0-17.5,1.5-25.8,4.4l-1.6,0.7
		c-3.6,1.5-8.1,3.3-11.8,6.7l-0.8,0.8c-2.6,2.7-3.8,5.8-3.6,9.1v4.6H6.1v2.8C6.1,40,9,42.9,13.7,42.9z M13.8,22.7l0.6-0.6
		c3-2.8,6.8-4.3,10.1-5.6l1.5-0.6c7.7-2.7,15.7-4,23.9-4c1.9,0,4,0.1,6.1,0.2l0.4,0c8.9,0.9,15.9,2.7,22.1,5.6
		c4.2,1.9,6.5,3.5,8.2,5.7l0.2,0.2c1,1.5,1.5,2.6,1.5,4v8l0,0.4c0,0.2,0.1,0.5-0.4,0.9c-0.5,0.5-1,0.6-1.7,0.6h-13
		c-1.6,0-2.1-0.5-2.1-2.1v-8c0-2.7-1.6-3.9-2.9-4.5l-0.5-0.2h-0.2c-3.1-1.3-6.1-2-9.9-2.2c-7.8-0.8-14.5-0.5-20.7,0.9l-0.5,0.1
		c-0.3,0.1-0.6,0.2-0.9,0.3c-0.2,0.1-0.5,0.2-0.6,0.2l-0.4,0.1l-0.2,0.1c-0.1,0-0.1,0-0.2,0.1c-0.3,0-0.7,0.1-1.1,0.2h-0.5l-0.6,0.3
		c-0.4,0.2-1,0.5-1.6,1.2c-1,1-1.5,2.2-1.5,3.7v8.2c0,0.8-0.1,1.2-0.5,1.6c-0.1,0.1-0.5,0.4-1.6,0.4h-13c-1.2,0-1.8-0.3-2-1.1v-8.6
		l0-0.1C11.6,25.9,12.3,24.2,13.8,22.7z"/>
	<path d="M98.4,85.5L87,52.8l0-0.1c-0.9-2.4-3.3-4-5.8-4H19.2c-2.5,0-4.9,1.6-5.9,4.1L1.6,85.5l0,0c-0.7,1.9-0.4,4.1,0.8,5.7
		c1.2,1.6,3,2.6,5,2.6h85.2c2,0,3.9-1,5.1-2.6C98.8,89.5,99.1,87.4,98.4,85.5z M93.1,87.9c-0.1,0.1-0.3,0.3-0.6,0.3H7.4
		c-0.1,0-0.3,0-0.5-0.2c-0.1-0.1-0.2-0.3-0.1-0.7l11.7-32.5c0.1-0.3,0.4-0.5,0.7-0.5h61.9c0.3,0,0.6,0.2,0.7,0.5l11.4,32.6
		C93.3,87.6,93.2,87.8,93.1,87.9z"/>
	<path d="M50,60.1c-6.3,0-11.4,5.1-11.4,11.4c0,6.4,5,11.4,11.4,11.4c6.2,0,11.4-5.2,11.4-11.4C61.4,65.2,56.3,60.1,50,60.1z
		 M50,77.5c-3.3,0-5.9-2.6-5.9-5.9c0-3.2,2.7-5.9,5.9-5.9c3.2,0,5.9,2.7,5.9,5.9C55.9,74.7,53.2,77.5,50,77.5z"/>
</g>
</svg>
