<?xml version="1.0" encoding="utf-8"?>
<!-- Generator: Adobe Illustrator 21.0.2, SVG Export Plug-In . SVG Version: 6.00 Build 0)  -->
<svg version="1.1" id="Layer_2_1_" xmlns="http://www.w3.org/2000/svg" xmlns:xlink="http://www.w3.org/1999/xlink" x="0px" y="0px"
	 viewBox="0 0 100 100" style="enable-background:new 0 0 100 100;" xml:space="preserve">
<g>
	<path d="M74.8,98.6h-1.3c-7-0.3-18.9-5.3-19.4-5.5H54c-10-4.7-19.2-11.3-27.4-19.5c-2-2-4-4.1-6.1-6.5c-8-9.6-13.1-18.3-16.3-27.4
		c-0.9-2.4-1.5-4.6-2-6.6c-1.4-5.9-0.6-12.1,2-17.5C5,14,5.8,12.9,6.6,12l6.8-6.8c2.1-2.4,5.3-3.8,8.6-3.8h0.3
		c3.4,0.2,6.2,1.4,8.6,3.8l11.4,11.4c5.3,5.3,5.3,12.2,0,17.6l-4.6,4.6L61,62.1l4.8-4.8c0.9-0.9,3.8-3.8,8.8-3.8
		c3.9,0,6.8,2.2,8.6,3.8l0.1,0.1l5.7,5.7c2.9,2.9,5.7,5.6,5.8,5.6c4.5,4.5,4.9,10.9,1.1,16.9C91.2,92.5,81.4,98.6,74.8,98.6z
		 M73.7,93.1h1.2c4.7,0,12.8-5.2,16.4-10.5c2.4-3.7,2.3-7.3-0.3-9.9l0,0c0,0-2.9-2.7-5.8-5.7l-5.6-5.6c-0.8-0.7-2.7-2.4-4.9-2.4
		c-2.8,0-4.2,1.5-5,2.2L64.8,66c-1,1-2.4,1.6-3.9,1.6l0,0c-1.5,0-2.8-0.6-3.9-1.6L33.8,42.6c-2.1-2.1-2.1-5.6,0-7.7l4.6-4.6
		c3.1-3.2,3.1-6.8,0-9.9L27.1,9.1c-1.3-1.3-2.9-2.1-4.9-2.2h-0.1c-1.8,0-3.4,0.7-4.5,2l-0.1,0.2l-7,6.9c-0.2,0.2-0.7,0.8-1.4,2.1
		C7,22.3,6.5,27.2,7.5,31.9c0.4,1.8,1,3.7,1.8,5.9c3,8.5,7.9,16.6,15.4,25.7c1.9,2.1,3.9,4.3,5.8,6.2c7.7,7.7,16.4,13.9,25.8,18.4
		C59.5,89.4,68.7,92.9,73.7,93.1z"/>
</g>
</svg>
