<?xml version="1.0" encoding="utf-8"?>
<!-- Generator: Adobe Illustrator 22.0.1, SVG Export Plug-In . SVG Version: 6.00 Build 0)  -->
<svg version="1.1" id="Layer_2_1_" xmlns="http://www.w3.org/2000/svg" xmlns:xlink="http://www.w3.org/1999/xlink" x="0px" y="0px"
	 viewBox="0 0 100 100" style="enable-background:new 0 0 100 100;" xml:space="preserve">
<path d="M50,3.3C24.2,3.3,3.3,24.2,3.3,50c0,25.8,21,46.8,46.8,46.8c25.8,0,46.8-21,46.8-46.8C96.8,24.2,75.8,3.3,50,3.3z
	 M91.1,47.3H52.8V8.9C73.3,10.2,89.8,26.7,91.1,47.3z M47.3,8.9v39.8L16.1,73.5C11.5,66.8,8.8,58.7,8.8,50
	C8.8,28.2,25.8,10.3,47.3,8.9z M50,91.3c-12.1,0-22.9-5.2-30.5-13.5l31.4-25h40.2C89.7,74.2,71.8,91.3,50,91.3z"/>
</svg>
