<?xml version="1.0" encoding="utf-8"?>
<!-- Generator: Adobe Illustrator 22.0.1, SVG Export Plug-In . SVG Version: 6.00 Build 0)  -->
<svg version="1.1" id="Layer_2_1_" xmlns="http://www.w3.org/2000/svg" xmlns:xlink="http://www.w3.org/1999/xlink" x="0px" y="0px"
	 viewBox="0 0 100 100" style="enable-background:new 0 0 100 100;" xml:space="preserve">
<path d="M76.5,3.1H41.2c-0.3,0-0.6,0.1-0.9,0.2c-11,1.3-19.5,10.7-19.5,22c0,10.7,7.6,19.6,17.7,21.7v47.2c0,1.5,1.2,2.8,2.8,2.8
	s2.8-1.2,2.8-2.8V8.6H57v85.6c0,1.5,1.2,2.8,2.8,2.8s2.8-1.2,2.8-2.8V8.6h14c1.5,0,2.8-1.2,2.8-2.8S78,3.1,76.5,3.1z M26.2,25.3
	c0-7.6,5.2-14.1,12.2-16.1v32.1C31.4,39.4,26.2,32.9,26.2,25.3z"/>
</svg>
