<?xml version="1.0" encoding="utf-8"?>
<!-- Generator: Adobe Illustrator 22.0.1, SVG Export Plug-In . SVG Version: 6.00 Build 0)  -->
<svg version="1.1" id="Layer_2_1_" xmlns="http://www.w3.org/2000/svg" xmlns:xlink="http://www.w3.org/1999/xlink" x="0px" y="0px"
	 viewBox="0 0 100 100" style="enable-background:new 0 0 100 100;" xml:space="preserve">
<path d="M72,50.7l-4-23.5c2.1-1.4,3.5-3.8,3.6-6.5v-6.2c0-5.5-4.5-10-10-10H38.2c-5.5,0-9.9,4.5-9.9,10v6.2c0,2.8,1.5,5.3,3.7,6.6
	l-4,23.4c-2.7,2-4.5,5.3-4.5,8.9v1.6c0,6.1,5,11.1,11.2,11.1h2l9.3,21l0.1,0.1c0.7,1.3,2,2.1,3.4,2.1c0.1,0,0.1,0,0.2,0
	c1.4-0.1,2.7-1,3.2-2.3L62,72.3h3.4c6.1,0,11.2-5,11.2-11.1v-1.6C76.6,55.9,74.8,52.7,72,50.7z M33.8,14.4c0-2.5,2-4.5,4.4-4.5h23.5
	c2.5,0,4.5,2,4.5,4.5l0,6.1c0,1.3-1.1,2.4-2.5,2.4H36.1c-1.3,0-2.4-1.1-2.4-2.4V14.4z M37.3,28.4h25.4l3.4,20c-0.2,0-0.4,0-0.7,0
	H34.6c-0.2,0-0.5,0-0.7,0L37.3,28.4z M49.3,87.4l-6.7-15.1H56L49.3,87.4z M71.1,61.2c0,3.1-2.5,5.6-5.7,5.6H34.6
	c-3.1,0-5.7-2.5-5.7-5.6v-1.6c0-3.1,2.5-5.6,5.7-5.6h30.8c3.1,0,5.7,2.5,5.7,5.6V61.2z"/>
</svg>
