<?xml version="1.0" encoding="utf-8"?>
<!-- Generator: Adobe Illustrator 22.0.1, SVG Export Plug-In . SVG Version: 6.00 Build 0)  -->
<svg version="1.1" id="Layer_2_1_" xmlns="http://www.w3.org/2000/svg" xmlns:xlink="http://www.w3.org/1999/xlink" x="0px" y="0px"
	 viewBox="0 0 100 100" style="enable-background:new 0 0 100 100;" xml:space="preserve">
<g>
	<path d="M73.6,25.3C73.6,12.3,63,1.7,50,1.7S26.4,12.3,26.4,25.3c0,12.1,9.2,22.1,21,23.4v46.8c0,1.5,1.2,2.8,2.8,2.8
		c1.5,0,2.8-1.2,2.8-2.8V48.7C64.5,47.3,73.6,37.3,73.6,25.3z M50,43.4c-10,0-18.1-8.1-18.1-18.1S40,7.2,50,7.2
		c10,0,18.1,8.1,18.1,18.1S60,43.4,50,43.4z"/>
	<ellipse transform="matrix(0.3827 -0.9239 0.9239 0.3827 13.2001 63.7161)" cx="54.3" cy="22" rx="4.8" ry="4.8"/>
</g>
</svg>
