<?xml version="1.0" encoding="utf-8"?>
<!-- Generator: Adobe Illustrator 21.0.2, SVG Export Plug-In . SVG Version: 6.00 Build 0)  -->
<svg version="1.1" id="Layer_1" xmlns="http://www.w3.org/2000/svg" xmlns:xlink="http://www.w3.org/1999/xlink" x="0px" y="0px"
	 viewBox="0 0 100 100" style="enable-background:new 0 0 100 100;" xml:space="preserve">
<path d="M2,50C2,50,2,50,2,50c0,0.8,0,1.5,0.1,2.2c0,0.2,0,0.5,0,0.7c0,0.5,0.1,1.1,0.1,1.6c0,0.2,0,0.5,0.1,0.7
	c0.1,0.6,0.1,1.2,0.2,1.8c0,0.1,0,0.3,0.1,0.4c0.1,0.7,0.2,1.4,0.4,2.1c0,0.2,0.1,0.4,0.1,0.6c0.1,0.5,0.2,1,0.3,1.5
	c0.1,0.2,0.1,0.5,0.2,0.7c0.1,0.5,0.3,1,0.4,1.5c0.1,0.2,0.1,0.4,0.2,0.6c0.2,0.7,0.4,1.3,0.7,2c0.1,0.2,0.1,0.4,0.2,0.6
	c0.2,0.5,0.4,0.9,0.6,1.4c0.1,0.2,0.2,0.5,0.3,0.7c0.2,0.4,0.4,0.8,0.6,1.3c0.1,0.2,0.2,0.5,0.3,0.7c0.3,0.6,0.6,1.2,0.9,1.7
	c0.1,0.2,0.2,0.3,0.3,0.5c0.3,0.5,0.5,0.9,0.8,1.4c0.1,0.2,0.3,0.5,0.4,0.7c0.2,0.4,0.5,0.7,0.7,1.1c0.2,0.2,0.3,0.5,0.5,0.7
	c0.3,0.4,0.6,0.8,0.9,1.2c0.1,0.2,0.2,0.3,0.3,0.5c0.4,0.5,0.8,1,1.2,1.5c0.2,0.2,0.3,0.4,0.5,0.6c0.3,0.3,0.6,0.6,0.8,1
	c0.2,0.2,0.4,0.4,0.6,0.6c0.3,0.3,0.6,0.7,0.9,1c0.2,0.2,0.3,0.4,0.5,0.5c0.5,0.5,0.9,0.9,1.4,1.4c0.2,0.2,0.4,0.3,0.5,0.5
	c0.3,0.3,0.7,0.6,1,0.9c0.2,0.2,0.4,0.4,0.6,0.5c0.3,0.3,0.7,0.6,1,0.8c0.2,0.2,0.4,0.3,0.6,0.5c0.5,0.4,1.1,0.8,1.6,1.2
	c0.1,0.1,0.3,0.2,0.4,0.3c0.4,0.3,0.9,0.6,1.3,0.8c0.2,0.1,0.4,0.3,0.7,0.4c0.4,0.2,0.8,0.5,1.2,0.7c0.2,0.1,0.4,0.2,0.6,0.4
	c0.6,0.3,1.1,0.6,1.7,0.9c0.1,0,0.1,0.1,0.2,0.1c0.6,0.3,1.3,0.6,1.9,0.9c0.2,0.1,0.4,0.2,0.6,0.2c0.3,0.1,0.5,0.2,0.8,0.3
	c-0.4-3.8-0.8-9.6,0.2-13.8c0.9-3.7,5.6-23.9,5.6-23.9s-1.4-2.9-1.4-7.1c0-6.7,3.9-11.7,8.7-11.7c4.1,0,6.1,3.1,6.1,6.8
	c0,4.1-2.6,10.3-4,16c-1.1,4.8,2.4,8.7,7.1,8.7c8.5,0,15.1-9,15.1-22c0-11.5-8.3-19.5-20-19.5c-13.7,0-21.7,10.2-21.7,20.8
	c0,4.1,1.6,8.5,3.6,11c0.4,0.5,0.4,0.9,0.3,1.4c-0.4,1.5-1.2,4.8-1.3,5.4c-0.2,0.9-0.7,1.1-1.6,0.6c-6-2.8-9.7-11.6-9.7-18.6
	c0-15.1,11-29,31.7-29c16.7,0,29.6,11.9,29.6,27.7c0,16.5-10.4,29.9-24.9,29.9c-4.9,0-9.4-2.5-11-5.5c0,0-2.4,9.2-3,11.4
	c-1.1,4.2-4,9.4-6,12.6c0.6,0.2,1.3,0.4,2,0.6c0.2,0.1,0.5,0.1,0.7,0.2c0.5,0.1,1,0.2,1.4,0.3c0.2,0.1,0.5,0.1,0.7,0.2
	c0.6,0.1,1.3,0.2,1.9,0.3c0.1,0,0.1,0,0.2,0c0.7,0.1,1.4,0.2,2.1,0.3c0.2,0,0.4,0,0.7,0.1c0.5,0.1,1.1,0.1,1.6,0.1
	c0.2,0,0.4,0,0.6,0c0.7,0,1.5,0.1,2.2,0.1c26.5,0,48-21.5,48-48c0-20.4-12.8-37.9-30.7-44.8C66.7,5,66,4.8,65.4,4.5
	c-1.4-0.5-2.8-0.9-4.3-1.2c-1.3-0.3-2.5-0.6-3.8-0.8c-1.6-0.2-3.2-0.4-4.8-0.5C51.7,2,50.8,2,50,2c-1.7,0-3.3,0.1-4.9,0.2
	c-0.8,0.1-1.6,0.2-2.4,0.3C19.6,6.1,2,26,2,50z"/>
</svg>
