<?xml version="1.0" encoding="utf-8"?>
<!-- Generator: Adobe Illustrator 22.0.1, SVG Export Plug-In . SVG Version: 6.00 Build 0)  -->
<svg version="1.1" id="Layer_1" xmlns="http://www.w3.org/2000/svg" xmlns:xlink="http://www.w3.org/1999/xlink" x="0px" y="0px"
	 viewBox="0 0 100 100" style="enable-background:new 0 0 100 100;" xml:space="preserve">
<g>
	<path d="M78.4,21.6C67,10.3,51.4,5.1,35.5,7.3l-1,0.1l-0.7,0.7l0,0l-0.4,0.5L6.8,91.9c-0.2,0.8,0.5,1.5,1.3,1.3l83.4-26.6l0.5-0.5
		l0.7-0.7l0.1-0.9C94.9,48.6,89.7,33,78.4,21.6z M74.5,25.5c9.7,9.7,14.4,22.9,13,36.5l-5,1.6c0.1-12.2-4.7-24-13.4-32.7
		c-8.7-8.7-20.5-13.5-32.7-13.4l1.6-5C51.5,11.2,64.8,15.8,74.5,25.5z M32,70.8c-2.9-2.9-6.5-5.1-10.5-6.6l13.1-41.1
		C46,22.5,57,26.8,65.1,34.9C73.2,43,77.5,54,76.9,65.4L37.2,78.1C35.8,75.4,34.1,72.9,32,70.8z M19.8,69.5c3.2,1.1,6,2.9,8.3,5.2
		c1.5,1.5,2.8,3.2,3.8,5.2l-17.1,5.5L19.8,69.5z"/>
	<path d="M38.1,46.8c-1.3,1.3-1.3,3.4,0,4.7c1.3,1.3,3.4,1.3,4.7,0c1.3-1.3,1.3-3.4,0-4.7C41.5,45.5,39.4,45.5,38.1,46.8z"/>
	<path d="M57.9,50.9c-1.3,1.3-1.3,3.4,0,4.7c1.3,1.3,3.4,1.3,4.7,0c1.3-1.3,1.3-3.4,0-4.7C61.4,49.6,59.2,49.6,57.9,50.9z"/>
</g>
</svg>
