<?xml version="1.0" encoding="utf-8"?>
<!-- Generator: Adobe Illustrator 21.0.2, SVG Export Plug-In . SVG Version: 6.00 Build 0)  -->
<svg version="1.1" id="Layer_1" xmlns="http://www.w3.org/2000/svg" xmlns:xlink="http://www.w3.org/1999/xlink" x="0px" y="0px"
	 viewBox="0 0 100 100" style="enable-background:new 0 0 100 100;" xml:space="preserve">
<path d="M96.8,60.1l-9-9c-1.1-1.1-2.7-1.4-4.2-0.8L73,55L60.6,42.1l24.2-19.4c0.8-0.7,1.3-1.7,1.4-2.7c0.1-1.1-0.3-2.1-1.1-2.9
	L72.4,4.5c-1.2-1.2-2.9-1.4-4.4-0.7L38.4,19.4l-13-13.3c-2.6-2.6-6-4-9.6-4c-3.6,0-7.1,1.4-9.6,4c-5.3,5.3-5.3,14,0,19.3l13.3,13
	L3.8,68c-0.8,1.5-0.5,3.2,0.7,4.4l12.7,12.7c0.8,0.8,1.8,1.2,2.9,1.1c1.1-0.1,2.1-0.6,2.7-1.4l19.4-24.2l13,12.6l-4.8,10.4
	c-0.7,1.4-0.3,3.1,0.8,4.2l9,9c0.7,0.7,1.7,1.1,2.7,1.1c0.2,0,0.4,0,0.6-0.1c1.2-0.2,2.2-1,2.8-2.1L75.9,75l19.7-8.9
	c1.1-0.5,1.9-1.5,2.2-2.7C98.1,62.2,97.7,61,96.8,60.1z M72.4,70.6l-0.3,0.3l-0.4,0.4l-9.4,19.9l-6.4-6.4L61,73.7l0.8-1.8L44.6,55.3
	c-0.8-0.7-1.8-1.1-2.8-1c-1.1,0.1-2,0.6-2.7,1.4L19.7,79.8L9.3,69.4l15.6-29.6c0.8-1.5,0.5-3.3-0.7-4.4L10,21.5
	c-3.2-3.2-3.2-8.3,0-11.5c1.5-1.5,3.6-2.4,5.8-2.4s4.2,0.8,5.7,2.4l13.9,14.2c1.1,1.2,3,1.5,4.4,0.7L69.4,9.3l10.4,10.4L55.6,39.1
	c-0.8,0.7-1.3,1.6-1.4,2.7c-0.1,1.1,0.3,2.1,1,2.8l14.6,15.1c1.1,1.1,2.8,1.5,4.2,0.8l10.7-4.7l6.4,6.4L72.4,70.6z"/>
</svg>
