<?xml version="1.0" encoding="utf-8"?>
<!-- Generator: Adobe Illustrator 22.0.1, SVG Export Plug-In . SVG Version: 6.00 Build 0)  -->
<svg version="1.1" id="Layer_1" xmlns="http://www.w3.org/2000/svg" xmlns:xlink="http://www.w3.org/1999/xlink" x="0px" y="0px"
	 viewBox="0 0 100 100" style="enable-background:new 0 0 100 100;" xml:space="preserve">
<g>
	<path d="M18.3,96.7c-0.6,0-1.2-0.2-1.8-0.5c-1.3-0.7-2.1-2-2.1-3.4V7.1c0-1.4,0.8-2.7,2.1-3.4c1.3-0.7,2.8-0.6,4,0.2l63.4,42.9
		c1.1,0.7,1.7,1.9,1.7,3.2c0,1.3-0.6,2.5-1.7,3.2L20.5,96.1C19.8,96.5,19.1,96.7,18.3,96.7z M20,10.2v79.6L78.8,50L20,10.2z
		 M17.4,8.5C17.4,8.5,17.4,8.5,17.4,8.5L17.4,8.5z"/>
</g>
</svg>
