<?xml version="1.0" encoding="utf-8"?>
<!-- Generator: Adobe Illustrator 22.0.1, SVG Export Plug-In . SVG Version: 6.00 Build 0)  -->
<svg version="1.1" id="Layer_1" xmlns="http://www.w3.org/2000/svg" xmlns:xlink="http://www.w3.org/1999/xlink" x="0px" y="0px"
	 viewBox="0 0 100 100" style="enable-background:new 0 0 100 100;" xml:space="preserve">
<path d="M91.4,46.6L11.9,7.8C10.7,7.2,9.4,7.3,8.3,8c-1.1,0.7-1.8,1.9-1.8,3.2v77.7c0,1.3,0.7,2.5,1.8,3.2c0.6,0.4,1.3,0.6,2,0.6
	c0.6,0,1.1-0.1,1.6-0.4l79.5-38.8c1.3-0.6,2.1-1.9,2.1-3.4S92.7,47.3,91.4,46.6z M12,83.3V17l29.1,33.7L12,83.3z M44.7,54.8L54,65.5
	L20.8,81.7L44.7,54.8z M20.1,17.9L55,35L44.8,46.5L20.1,17.9z M59.1,63L48.4,50.7l11.7-13.2L85.8,50L59.1,63z"/>
</svg>
