<?xml version="1.0" encoding="utf-8"?>
<!-- Generator: Adobe Illustrator 22.0.1, SVG Export Plug-In . SVG Version: 6.00 Build 0)  -->
<svg version="1.1" id="Layer_2_1_" xmlns="http://www.w3.org/2000/svg" xmlns:xlink="http://www.w3.org/1999/xlink" x="0px" y="0px"
	 viewBox="0 0 100 100" style="enable-background:new 0 0 100 100;" xml:space="preserve">
<path d="M71.9,15h-4.6V6.1c0-1.5-1.2-2.8-2.8-2.8s-2.8,1.2-2.8,2.8V15H38.4V6.1c0-1.5-1.2-2.8-2.8-2.8s-2.8,1.2-2.8,2.8V15h-4.8
	c-4.4,0-8.1,3.7-8.1,8.1v12C20,50.7,32,63.6,47.3,65v28.9c0,1.5,1.2,2.8,2.8,2.8c1.5,0,2.8-1.2,2.8-2.8V65c7-0.6,13.5-3.7,18.6-8.7
	C77,50.6,80.1,43,80,35.1v-12C80,18.7,76.3,15,71.9,15z M74.5,35.1c0.1,6.5-2.4,12.7-7,17.3c-4.6,4.7-10.8,7.2-17.4,7.2
	c-13.5,0-24.6-11-24.6-24.6v-12c0-1.4,1.2-2.6,2.6-2.6h43.8c1.4,0,2.6,1.2,2.6,2.6V35.1z"/>
</svg>
