<?xml version="1.0" encoding="utf-8"?>
<!-- Generator: Adobe Illustrator 22.0.1, SVG Export Plug-In . SVG Version: 6.00 Build 0)  -->
<svg version="1.1" id="Layer_1" xmlns="http://www.w3.org/2000/svg" xmlns:xlink="http://www.w3.org/1999/xlink" x="0px" y="0px"
	 viewBox="0 0 100 100" style="enable-background:new 0 0 100 100;" xml:space="preserve">
<g>
	<path d="M56.2,94.3l-23.7,0c-28-2-31.3-20.9-31.3-34.9c0-13.1,6.5-25.1,16.9-31.1c0.6-0.4,1.5-0.9,2.8-1.7c1.1-0.7,2.5-1.5,4-2.4
		l4-2.6c4.9-3.1,8.7-5.5,11.8-7.4l0.3-0.2l0.5-0.2c1.5-0.8,2.8-1.7,3.7-2.6c1.9-2.5,4.2-3.8,5.7-4.5c2.7-1.4,7.5-1.6,11.1,0.6
		c3.2,1.9,4.7,4.8,4.7,8.6c0,4-1.4,8.3-3.8,11.8c-0.2,0.4-0.5,0.8-0.7,1.1h23.9c7,0,12.9,5.7,12.9,12.5v0.3c0,3.3-1.2,6.4-3.4,8.6
		c-2.3,2.5-5.6,3.9-9.1,3.9H76.2c0.1,0.6,0.1,1.1,0.1,1.7c0,3.7-1.7,7.3-4.6,9.7c0.4,1.2,0.7,2.5,0.7,3.8c0,3.6-1.7,7.1-4.5,9.3
		c0.3,1,0.4,2,0.4,3.1c0.2,3.3-1.1,6.3-3.4,8.7C62.6,93,59.4,94.3,56.2,94.3z M32.8,88.8h23.4c1.8,0,3.5-0.7,4.9-2.1
		c1.3-1.3,1.9-2.9,1.8-4.6l0-0.1c0-1-0.2-2-0.7-2.7l-1.8-2.7l2.9-1.3c2.1-1,3.6-3.4,3.6-5.8c0-1.1-0.3-2.2-1-3.2l-1.7-2.6l2.7-1.4
		c2.4-1.2,3.9-3.7,3.9-6.3c0-1-0.3-2.1-0.8-3.1l-2.2-4.1h18.5c2,0,3.8-0.7,5.1-2.1l0.1-0.1c1.2-1.2,1.8-2.8,1.8-4.7v-0.3
		c0-3.8-3.4-7-7.4-7H49l5.1-4.8c1.7-1.6,3.1-3.2,3.9-4.7l0.1-0.2c1.8-2.6,2.9-5.8,2.9-8.8c0-1.9-0.6-3-2.1-4c-2-1.2-4.7-1-5.6-0.5
		l-0.2,0.1c-1.1,0.5-2.6,1.3-3.8,3l-0.2,0.2c-1.7,1.9-4,3.2-5.5,4l-0.5,0.2c-3,1.8-6.7,4.2-11.4,7.2l-1.2,0.8l-2.8,1.9
		c-1.5,0.9-2.9,1.7-4.1,2.4c-1.2,0.7-2.2,1.3-2.7,1.6L20.9,33C12.2,38.1,6.7,48.2,6.7,59.4C6.7,73,9.8,87.1,32.8,88.8z"/>
</g>
</svg>
