<?xml version="1.0" encoding="utf-8"?>
<!-- Generator: Adobe Illustrator 19.1.0, SVG Export Plug-In . SVG Version: 6.00 Build 0)  -->
<svg version="1.1" id="Layer_1" xmlns="http://www.w3.org/2000/svg" xmlns:xlink="http://www.w3.org/1999/xlink" x="0px" y="0px"
	 viewBox="-909 451 100 100" style="enable-background:new -909 451 100 100;" xml:space="preserve">
<g>
	<path d="M-874,541.5c-2.4-2.4-3.6-5.5-3.4-8.7c0-1.1,0.2-2.1,0.4-3.1c-2.8-2.2-4.5-5.7-4.5-9.3c0-1.3,0.2-2.6,0.7-3.8
		c-2.9-2.4-4.6-6-4.6-9.7c0-0.6,0-1.1,0.1-1.7h-10.1c-3.5,0-6.7-1.4-9.1-3.9c-2.2-2.2-3.4-5.3-3.4-8.6v-0.3
		c0-6.8,5.9-12.5,12.9-12.5h23.9c-0.3-0.4-0.5-0.8-0.7-1.1c-2.4-3.5-3.8-7.8-3.8-11.8c0-3.9,1.5-6.7,4.7-8.6
		c3.6-2.2,8.4-2.1,11.1-0.6c1.6,0.7,3.8,2,5.7,4.5c0.9,0.9,2.1,1.8,3.7,2.6l0.3,0.1l0.3,0.2c3.1,1.8,6.9,4.3,11.8,7.4l4,2.6
		c1.5,0.9,2.9,1.7,4,2.4c1.3,0.7,2.2,1.3,2.8,1.7c10.5,6,16.9,17.9,16.9,31.1c0,14-3.2,32.9-31.3,34.9h-23.7
		C-868.5,545.2-871.7,543.9-874,541.5z M-815.8,510.3c0-11.2-5.5-21.3-14.2-26.3l-0.1-0.1c-0.5-0.3-1.5-0.9-2.7-1.6
		c-1.1-0.7-2.5-1.5-4.1-2.4l-2.8-1.9l-1.2-0.8c-4.7-3-8.5-5.4-11.4-7.2l-0.5-0.2c-1.6-0.8-3.8-2.1-5.5-4l-0.2-0.2
		c-1.2-1.7-2.7-2.4-3.8-3l-0.2-0.1c-0.9-0.5-3.6-0.8-5.6,0.5c-1.5,0.9-2.1,2-2.1,4c0,3,1.1,6.2,2.9,8.8l0.1,0.2
		c0.8,1.5,2.2,3.1,3.9,4.7l5.2,4.8H-895c-4,0-7.4,3.2-7.4,7v0.3c0,1.9,0.6,3.6,1.8,4.7l0.1,0.1c1.3,1.4,3.1,2.1,5.1,2.1h18.5l-2.2,4
		c-0.5,1-0.8,2.1-0.8,3.1c0,2.6,1.5,5.1,3.9,6.3l2.7,1.4l-1.7,2.6c-0.7,1-1,2.1-1,3.2c0,2.4,1.5,4.8,3.6,5.8l2.9,1.3l-1.8,2.7
		c-0.5,0.7-0.7,1.6-0.7,2.7v0.1c-0.1,1.7,0.5,3.3,1.8,4.6c1.4,1.4,3,2.1,4.9,2.1h23.4C-818.9,538-815.8,523.9-815.8,510.3z"/>
</g>
</svg>
