<?xml version="1.0" encoding="utf-8"?>
<!-- Generator: Adobe Illustrator 22.0.1, SVG Export Plug-In . SVG Version: 6.00 Build 0)  -->
<svg version="1.1" id="Layer_1" xmlns="http://www.w3.org/2000/svg" xmlns:xlink="http://www.w3.org/1999/xlink" x="0px" y="0px"
	 viewBox="0 0 100 100" style="enable-background:new 0 0 100 100;" xml:space="preserve">
<g>
	<path d="M9.4,35.1c2.4-2.4,5.5-3.6,8.7-3.4c1.1,0,2.1,0.2,3.1,0.4c2.2-2.8,5.7-4.5,9.3-4.5c1.3,0,2.6,0.2,3.8,0.7
		c2.4-2.9,6-4.6,9.7-4.6c0.6,0,1.1,0,1.7,0.1V13.7c0-3.5,1.4-6.7,3.9-9.1c2.2-2.2,5.3-3.4,8.6-3.4h0.3c6.8,0,12.5,5.9,12.5,12.9
		v23.9c0.4-0.3,0.8-0.5,1.1-0.7c3.5-2.4,7.8-3.8,11.8-3.8c3.9,0,6.7,1.5,8.6,4.7c2.2,3.6,2.1,8.4,0.6,11.1c-0.7,1.6-2,3.8-4.5,5.7
		c-0.9,0.9-1.8,2.1-2.6,3.7L85.9,59l-0.2,0.3c-1.8,3.1-4.3,6.9-7.4,11.8l-2.6,4c-0.9,1.5-1.7,2.9-2.4,4c-0.7,1.3-1.3,2.2-1.7,2.8
		c-6,10.5-17.9,16.9-31.1,16.9c-14,0-32.9-3.2-34.9-31.3l0-23.7C5.7,40.6,7,37.4,9.4,35.1z M40.6,93.3c11.2,0,21.3-5.5,26.3-14.2
		L67,79c0.3-0.5,0.9-1.5,1.6-2.7c0.7-1.1,1.5-2.5,2.4-4.1l1.9-2.8l0.8-1.2c3-4.7,5.4-8.5,7.2-11.4l0.2-0.5c0.8-1.6,2.1-3.8,4-5.5
		l0.2-0.2c1.7-1.2,2.4-2.7,3-3.8l0.1-0.2c0.5-0.9,0.8-3.6-0.5-5.6c-0.9-1.5-2-2.1-4-2.1c-3,0-6.2,1.1-8.8,2.9l-0.2,0.1
		c-1.5,0.8-3.1,2.2-4.7,3.9L65.4,51V14.1c0-4-3.2-7.4-7-7.4h-0.3c-1.9,0-3.6,0.6-4.7,1.8l-0.1,0.1c-1.4,1.3-2.1,3.1-2.1,5.1v18.5
		L47.2,30c-1-0.5-2.1-0.8-3.1-0.8c-2.6,0-5.1,1.5-6.3,3.9l-1.4,2.7l-2.6-1.7c-1-0.7-2.1-1-3.2-1c-2.4,0-4.8,1.5-5.8,3.6l-1.3,2.9
		l-2.7-1.8c-0.7-0.5-1.6-0.7-2.7-0.7l-0.1,0c-1.7-0.1-3.3,0.5-4.6,1.8c-1.4,1.4-2.1,3-2.1,4.9v23.4C12.9,90.2,27,93.3,40.6,93.3z"/>
</g>
</svg>
