<?xml version="1.0" encoding="utf-8"?>
<!-- Generator: Adobe Illustrator 22.0.1, SVG Export Plug-In . SVG Version: 6.00 Build 0)  -->
<svg version="1.1" id="Layer_1" xmlns="http://www.w3.org/2000/svg" xmlns:xlink="http://www.w3.org/1999/xlink" x="0px" y="0px"
	 viewBox="0 0 100 100" style="enable-background:new 0 0 100 100;" xml:space="preserve">
<g>
	<path d="M90.6,64.9c-2.4,2.4-5.5,3.6-8.7,3.4c-1.1,0-2.1-0.2-3.1-0.4c-2.2,2.8-5.7,4.5-9.3,4.5c-1.3,0-2.6-0.2-3.8-0.7
		c-2.4,2.9-6,4.6-9.7,4.6c-0.6,0-1.1,0-1.7-0.1v10.1c0,3.5-1.4,6.7-3.9,9.1c-2.2,2.2-5.3,3.4-8.6,3.4h-0.3
		c-6.8,0-12.5-5.9-12.5-12.9V62.1c-0.4,0.3-0.8,0.5-1.1,0.7c-3.5,2.4-7.8,3.8-11.8,3.8c-3.9,0-6.7-1.5-8.6-4.7
		c-2.2-3.6-2.1-8.4-0.6-11.1c0.7-1.6,2-3.8,4.5-5.7c0.9-0.9,1.8-2.1,2.6-3.7l0.2-0.5l0.2-0.3c1.8-3.1,4.3-6.9,7.4-11.8l2.6-4
		c0.9-1.5,1.7-2.9,2.4-4c0.7-1.3,1.3-2.2,1.7-2.8c6-10.5,17.9-16.9,31.1-16.9c14,0,32.9,3.2,34.9,31.3l0,23.7
		C94.3,59.4,93,62.6,90.6,64.9z M59.4,6.7c-11.2,0-21.3,5.5-26.3,14.2L33,21c-0.3,0.5-0.9,1.5-1.6,2.7c-0.7,1.1-1.5,2.5-2.4,4.1
		l-1.9,2.8l-0.8,1.2c-3,4.7-5.4,8.5-7.2,11.4l-0.2,0.5c-0.8,1.6-2.1,3.8-4,5.5l-0.2,0.2c-1.7,1.2-2.4,2.7-3,3.8l-0.1,0.2
		c-0.5,0.9-0.8,3.6,0.5,5.6c0.9,1.5,2,2.1,4,2.1c3,0,6.2-1.1,8.8-2.9l0.2-0.1c1.5-0.8,3.1-2.2,4.7-3.9l4.8-5.1v36.9
		c0,4,3.2,7.4,7,7.4h0.3c1.9,0,3.6-0.6,4.7-1.8l0.1-0.1c1.4-1.3,2.1-3.1,2.1-5.1V67.8l4.1,2.2c1,0.5,2.1,0.8,3.1,0.8
		c2.6,0,5.1-1.5,6.3-3.9l1.4-2.7l2.6,1.7c1,0.7,2.1,1,3.2,1c2.4,0,4.8-1.5,5.8-3.6l1.3-2.9l2.7,1.8c0.7,0.5,1.6,0.7,2.7,0.7l0.1,0
		c1.7,0.1,3.3-0.5,4.6-1.8c1.4-1.4,2.1-3,2.1-4.9V32.8C87.1,9.8,73,6.7,59.4,6.7z"/>
</g>
</svg>
