<?xml version="1.0" encoding="utf-8"?>
<!-- Generator: Adobe Illustrator 22.0.1, SVG Export Plug-In . SVG Version: 6.00 Build 0)  -->
<svg version="1.1" id="Layer_2_1_" xmlns="http://www.w3.org/2000/svg" xmlns:xlink="http://www.w3.org/1999/xlink" x="0px" y="0px"
	 viewBox="0 0 100 100" style="enable-background:new 0 0 100 100;" xml:space="preserve">
<g>
	<path d="M50.1,97.5c-2,0-3.9-1.1-4.9-3l-42-84.1l0,0C2.2,8.3,2.6,5.7,4.3,4.1c1.7-1.6,4.1-2,6.1-0.9l83.9,42.1
		c2.1,1.1,3.3,3.4,3,5.7c-0.4,2.4-2.1,4.1-4.5,4.5L60.6,61L55.4,93c-0.4,2.4-2.2,4.1-4.5,4.5C50.6,97.5,50.4,97.5,50.1,97.5z
		 M8.3,8.2L50,91.8l5.4-33.2c0.2-1.4,1.3-2.5,2.7-2.7L91.7,50L8.3,8.2z M7.9,8C7.9,8,7.9,8,7.9,8L7.9,8z"/>
</g>
</svg>
