<?xml version="1.0" encoding="utf-8"?>
<!-- Generator: Adobe Illustrator 22.0.1, SVG Export Plug-In . SVG Version: 6.00 Build 0)  -->
<svg version="1.1" id="Layer_1" xmlns="http://www.w3.org/2000/svg" xmlns:xlink="http://www.w3.org/1999/xlink" x="0px" y="0px"
	 viewBox="0 0 100 100" style="enable-background:new 0 0 100 100;" xml:space="preserve">
<g>
	<path d="M87.6,10.8H12.4c-2.6,0-4.8,2.1-4.8,4.8v54.8c0,2.6,2.1,4.8,4.8,4.8h21.9l13,13c0.7,0.7,1.6,1.1,2.7,1.1s1.9-0.4,2.7-1.1
		l13-13h21.9c2.6,0,4.8-2.1,4.8-4.8V15.6C92.3,13,90.2,10.8,87.6,10.8z M86.8,69.6H64.5c-0.7,0-1.4,0.3-1.9,0.8L50,82.9L37.4,70.4
		c-0.5-0.5-1.2-0.8-1.9-0.8H13.2V16.3h73.6V69.6z"/>
	<path d="M28.9,30.2h42.3c1.5,0,2.8-1.2,2.8-2.8s-1.2-2.8-2.8-2.8H28.9c-1.5,0-2.8,1.2-2.8,2.8S27.3,30.2,28.9,30.2z"/>
	<path d="M28.9,45.7h42.3c1.5,0,2.8-1.2,2.8-2.8s-1.2-2.8-2.8-2.8H28.9c-1.5,0-2.8,1.2-2.8,2.8S27.3,45.7,28.9,45.7z"/>
	<path d="M28.9,61.2h29.3c1.5,0,2.8-1.2,2.8-2.8s-1.2-2.8-2.8-2.8H28.9c-1.5,0-2.8,1.2-2.8,2.8S27.3,61.2,28.9,61.2z"/>
</g>
</svg>
