<?xml version="1.0" encoding="utf-8"?>
<!-- Generator: Adobe Illustrator 22.0.1, SVG Export Plug-In . SVG Version: 6.00 Build 0)  -->
<svg version="1.1" id="Layer_1" xmlns="http://www.w3.org/2000/svg" xmlns:xlink="http://www.w3.org/1999/xlink" x="0px" y="0px"
	 viewBox="0 0 100 100" style="enable-background:new 0 0 100 100;" xml:space="preserve">
<g>
	<path d="M93.5,20.7h-87c-2.1,0-3.8,1.7-3.8,3.8v51.1c0,2.1,1.7,3.8,3.8,3.8h87c2.1,0,3.8-1.7,3.8-3.8V24.5
		C97.2,22.4,95.5,20.7,93.5,20.7z M91.7,73.8H8.3V26.2h83.5V73.8z"/>
	<path d="M50,65.4c1.6,0,2.8-1.2,2.8-2.8V37.9c0-1.5-1.3-2.7-2.8-2.7s-2.8,1.2-2.8,2.8v24.6C47.2,64.1,48.4,65.4,50,65.4z"/>
	<path d="M18.3,54h14.6c1.5,0,2.8-1.2,2.8-2.8c0-1.6-1.2-2.8-2.8-2.8H18.3c-1.5,0-2.8,1.2-2.8,2.8C15.5,52.8,16.8,54,18.3,54z"/>
	<path d="M71.6,42h11.3c0.6,0,1-0.4,1-1v-8.7c0-0.5-0.4-1-1-1H71.6c-0.6,0-1,0.4-1,1V41C70.6,41.6,71,42,71.6,42z"/>
	<path d="M18.3,65.1h19.6c1.5,0,2.8-1.2,2.8-2.8c0-1.6-1.3-2.8-2.8-2.8H18.3c-1.5,0-2.8,1.2-2.8,2.8C15.5,63.9,16.7,65.1,18.3,65.1z
		"/>
</g>
</svg>
