<?xml version="1.0" encoding="utf-8"?>
<!-- Generator: Adobe Illustrator 22.0.1, SVG Export Plug-In . SVG Version: 6.00 Build 0)  -->
<svg version="1.1" id="Layer_1" xmlns="http://www.w3.org/2000/svg" xmlns:xlink="http://www.w3.org/1999/xlink" x="0px" y="0px"
	 viewBox="0 0 100 100" style="enable-background:new 0 0 100 100;" xml:space="preserve">
<path d="M81.6,84.1H34.3c5.6-4.4,9.4-11.1,9.9-18.6c0-0.2,0.1-0.4,0.1-0.6V52.1h30.2c1.5,0,2.8-1.2,2.8-2.8s-1.2-2.8-2.8-2.8H44.2
	V34.8c0-11.2,9.1-20.3,20.3-20.3c4.4,0,8.6,1.4,12.1,4c1.2,0.9,2.9,0.7,3.8-0.6c0.9-1.2,0.7-2.9-0.6-3.8C75.5,10.8,70.1,9,64.5,9
	C50.4,9,38.9,20.5,38.7,34.6c0,0,0,0,0,0.1v11.9H22.4c-1.5,0-2.8,1.2-2.8,2.8s1.2,2.8,2.8,2.8h16.3v11.7c0,11.2-9.1,20.3-20.3,20.3
	c-1.5,0-2.8,1.2-2.8,2.8s1.2,2.8,2.8,2.8h63.2c1.5,0,2.8-1.2,2.8-2.8S83.1,84.1,81.6,84.1z"/>
</svg>
