<?xml version="1.0" encoding="utf-8"?>
<!-- Generator: Adobe Illustrator 22.0.1, SVG Export Plug-In . SVG Version: 6.00 Build 0)  -->
<svg version="1.1" id="Layer_1" xmlns="http://www.w3.org/2000/svg" xmlns:xlink="http://www.w3.org/1999/xlink" x="0px" y="0px"
	 viewBox="0 0 100 100" style="enable-background:new 0 0 100 100;" xml:space="preserve">
<g>
	<path d="M61.5,22.7c-1.8-0.6-3.6,0.7-3.6,2.6v0c0,1.2,0.8,2.2,1.9,2.6c13.2,4.3,22.7,17,22,31.7c-0.7,16-13.5,29.1-29.5,30.2
		c-18.5,1.3-34-13.4-34-31.7c0-14,9.1-25.9,21.8-30.1c1.1-0.4,1.9-1.4,1.9-2.6c0-1.9-1.8-3.2-3.6-2.6c-15.8,5.3-27,20.9-25.3,38.8
		c1.6,18,16.3,32.4,34.3,33.7c21.8,1.6,40-15.7,40-37.2C87.3,41.6,76.4,27.6,61.5,22.7z"/>
	<path d="M49.9,46.9c1.5,0,2.8-1.2,2.8-2.8V26.5V21V7.3c0-1.5-1.2-2.8-2.8-2.8s-2.8,1.2-2.8,2.8V21v5.5v17.6
		C47.1,45.7,48.3,46.9,49.9,46.9z"/>
</g>
</svg>
