<?xml version="1.0" encoding="utf-8"?>
<!-- Generator: Adobe Illustrator 22.0.1, SVG Export Plug-In . SVG Version: 6.00 Build 0)  -->
<svg version="1.1" id="Layer_2_1_" xmlns="http://www.w3.org/2000/svg" xmlns:xlink="http://www.w3.org/1999/xlink" x="0px" y="0px"
	 viewBox="0 0 100 100" style="enable-background:new 0 0 100 100;" xml:space="preserve">
<g>
	<path d="M86.4,20.2h-7.7l0-12.8c0-2.6-2.2-4.8-4.8-4.8H26.2c-2.6,0-4.8,2.2-4.8,4.8v12.8h-7.8c-2.6,0-4.8,2.2-4.8,4.8v31.2
		c0,2.6,2.2,4.8,4.8,4.8h7.8v31.7c0,2.6,2.2,4.8,4.8,4.8h47.6c2.5,0,4.6-1.9,4.9-4.5l0-32.1h7.6c2.6,0,4.8-2.2,4.8-4.8V25
		C91.2,22.4,89,20.2,86.4,20.2z M26.9,8h46.3v12.1H26.9V8z M73.2,92H26.9V61h46.3V92z M85.7,55.5H73.9H26.2H14.3V25.7h11.9h47.6
		h11.9V55.5z"/>
	<path d="M41,72H59c1.5,0,2.8-1.2,2.8-2.8s-1.2-2.8-2.8-2.8H41c-1.5,0-2.8,1.2-2.8,2.8S39.5,72,41,72z"/>
	<path d="M41,85.6H59c1.5,0,2.8-1.2,2.8-2.8s-1.2-2.8-2.8-2.8H41c-1.5,0-2.8,1.2-2.8,2.8S39.5,85.6,41,85.6z"/>
	<circle cx="77.6" cy="34.8" r="3.8"/>
</g>
</svg>
