<?xml version="1.0" encoding="utf-8"?>
<!-- Generator: Adobe Illustrator 22.0.1, SVG Export Plug-In . SVG Version: 6.00 Build 0)  -->
<svg version="1.1" id="Layer_1" xmlns="http://www.w3.org/2000/svg" xmlns:xlink="http://www.w3.org/1999/xlink" x="0px" y="0px"
	 viewBox="0 0 100 100" style="enable-background:new 0 0 100 100;" xml:space="preserve">
<g>
	<path d="M56.3,35.8L56.3,35.8l-13.5,0V50h13.5v0c3.9,0,7.1-3.2,7.1-7.1C63.5,38.9,60.3,35.8,56.3,35.8z"/>
	<path d="M50,2.5C23.8,2.5,2.5,23.8,2.5,50S23.8,97.5,50,97.5S97.5,76.2,97.5,50S76.2,2.5,50,2.5z M56.3,59.5L56.3,59.5l-13.5,0
		v14.2h-9.5V26.3l23,0v0c9.2,0,16.6,7.4,16.6,16.6C73,52.1,65.5,59.5,56.3,59.5z"/>
</g>
</svg>
