<?xml version="1.0" encoding="utf-8"?>
<!-- Generator: Adobe Illustrator 22.0.1, SVG Export Plug-In . SVG Version: 6.00 Build 0)  -->
<svg version="1.1" id="Layer_1" xmlns="http://www.w3.org/2000/svg" xmlns:xlink="http://www.w3.org/1999/xlink" x="0px" y="0px"
	 viewBox="0 0 100 100" style="enable-background:new 0 0 100 100;" xml:space="preserve">
<g>
	<path d="M49.3,4.6l-34.4,10c-0.9,0.2-1.4,1-1.4,1.9V45c0,22.7,14.4,42.9,35.8,50.2l0.9,0.3l0.9-0.3C72.3,87.9,86.6,67.7,86.6,45
		V16.6c0-0.9-0.6-1.7-1.4-1.9l-34.8-10C50,4.5,49.7,4.5,49.3,4.6z M81.1,45c0,20-12.4,37.8-31.1,44.7C31.4,82.9,18.9,65.1,18.9,45
		V19.2l31-9l31.2,9C81.1,19.2,81.1,45,81.1,45z"/>
	<path d="M33.7,55c-1.1-1.1-2.8-1.1-3.9,0s-1.1,2.8,0,3.9l7,7c0.7,0.7,1.7,1.1,2.7,1.1s1.9-0.4,2.7-1.1l28.2-28.2
		c1.1-1.1,1.1-2.8,0-3.9c-1.1-1.1-2.8-1.1-3.9,0l-27.1,27L33.7,55z"/>
</g>
</svg>
