<?xml version="1.0" encoding="utf-8"?>
<!-- Generator: Adobe Illustrator 22.0.1, SVG Export Plug-In . SVG Version: 6.00 Build 0)  -->
<svg version="1.1" id="Layer_2_1_" xmlns="http://www.w3.org/2000/svg" xmlns:xlink="http://www.w3.org/1999/xlink" x="0px" y="0px"
	 viewBox="0 0 100 100" style="enable-background:new 0 0 100 100;" xml:space="preserve">
<g>
	<path d="M55.7,82.7c-1.3,0-2.5-0.9-2.8-2.1l-18-57.1c-0.1-0.3-0.4-0.5-0.8-0.5l-0.2,0c-0.3,0-0.6,0.2-0.6,0.3l-0.1,0.2L14.9,68.1H4
		c-1.5,0-2.8-1.2-2.8-2.8s1.2-2.8,2.8-2.8h7.2L28,21.3c0.9-2.5,3.4-4.1,6.2-4c2.8,0.1,5.2,1.9,6,4.4l15.7,49.8l7.3-20.4
		c0.9-2.3,3.1-3.9,5.6-4.2c2.5-0.3,4.8,1.1,6.1,3.4L82,62.9h14c1.5,0,2.8,1.2,2.8,2.8s-1.2,2.8-2.8,2.8H78.8l-8.7-15.3
		c-0.2-0.4-0.6-0.7-0.8-0.7c-0.3,0-0.8,0.2-1,0.7l-9.8,27.4C58.1,81.8,57,82.7,55.7,82.7z"/>
</g>
</svg>
