<?xml version="1.0" encoding="utf-8"?>
<!-- Generator: Adobe Illustrator 22.0.1, SVG Export Plug-In . SVG Version: 6.00 Build 0)  -->
<svg version="1.1" id="Layer_1" xmlns="http://www.w3.org/2000/svg" xmlns:xlink="http://www.w3.org/1999/xlink" x="0px" y="0px"
	 viewBox="0 0 100 100" style="enable-background:new 0 0 100 100;" xml:space="preserve">
<path d="M97.7,74.5L64.2,21.4c-0.7-1.1-1.9-1.8-3.2-1.8c0,0,0,0,0,0c-1.3,0-2.5,0.7-3.2,1.8L41.6,47.5l-8.1-12.9
	c-0.7-1.1-1.9-1.8-3.2-1.8c0,0,0,0,0,0c-1.3,0-2.5,0.7-3.2,1.8L2.2,74.6c-0.7,1.2-0.8,2.7-0.1,3.9s1.9,2,3.3,2h89.1
	c1.4,0,2.7-0.8,3.3-2C98.5,77.2,98.5,75.7,97.7,74.5z M61,26.6L68,37.8H54L61,26.6z M30.2,39.9l11.4,18l0,0l10.7,17H8.5L30.2,39.9z
	 M58.9,74.9l-14-22.2l5.8-9.4h20.9l19.9,31.5H58.9z"/>
</svg>
