<?xml version="1.0" encoding="utf-8"?>
<!-- Generator: Adobe Illustrator 22.0.1, SVG Export Plug-In . SVG Version: 6.00 Build 0)  -->
<svg version="1.1" id="Layer_2_1_" xmlns="http://www.w3.org/2000/svg" xmlns:xlink="http://www.w3.org/1999/xlink" x="0px" y="0px"
	 viewBox="0 0 100 100" style="enable-background:new 0 0 100 100;" xml:space="preserve">
<g>
	<path d="M51.1,23.1c-5.9-0.7-11.5,2.3-14.2,7.6c-0.7,1.4-0.2,3,1.2,3.7c1.4,0.7,3,0.2,3.7-1.2c1.7-3.2,5.1-5.1,8.7-4.7
		c3.9,0.5,7.1,3.8,7.6,7.6c0.4,3.7-1.5,7.2-4.8,8.8c-4,1.9-6.5,6.1-6.5,10.7v11.7c0,1.5,1.2,2.8,2.8,2.8s2.8-1.2,2.8-2.8V55.6
		c0-2.4,1.4-4.7,3.4-5.7c5.4-2.6,8.5-8.3,7.9-14.3C62.7,29.2,57.5,23.9,51.1,23.1z"/>
	<path d="M49.4,74.9c-1.5,0-2.7,1.2-2.7,2.7s1.2,2.7,2.7,2.7c1.5,0,2.7-1.2,2.7-2.7S50.9,74.9,49.4,74.9z"/>
	<path d="M49.3,2.1c-26,0-47.2,21.2-47.2,47.2c0,26,21.2,47.2,47.2,47.2c26,0,47.2-21.2,47.2-47.2C96.5,23.2,75.3,2.1,49.3,2.1z
		 M49.3,91c-23,0-41.7-18.7-41.7-41.7S26.3,7.6,49.3,7.6S91,26.3,91,49.3S72.3,91,49.3,91z"/>
</g>
</svg>
