<?xml version="1.0" encoding="utf-8"?>
<!-- Generator: Adobe Illustrator 22.0.1, SVG Export Plug-In . SVG Version: 6.00 Build 0)  -->
<svg version="1.1" id="Layer_1" xmlns="http://www.w3.org/2000/svg" xmlns:xlink="http://www.w3.org/1999/xlink" x="0px" y="0px"
	 viewBox="0 0 100 100" style="enable-background:new 0 0 100 100;" xml:space="preserve">
<g>
	<path d="M88.1,83.6l-1.4-0.5c-2.2-0.8-3.9-1.7-5.1-2.7c0,0,0,0,0,0c9.4-8.1,13.8-18.4,13.8-32.5c0-12.5-5-24.1-13.9-32.8
		C72.6,6.5,60.7,2,48.2,2.4C24.6,3.3,5.4,22.5,4.5,46.1c-0.5,12.5,4,24.3,12.7,33.3c8.7,9,20.3,13.9,32.8,13.9
		c5.3,0,10.4-0.9,15.3-2.7c3.9,4.6,8.9,6.8,15.3,6.8c1.6,0,3.1-0.1,4.6-0.4h1.7c1.6,0,2.9-1.3,2.9-3v-7.9
		C90,85.2,89.2,84.1,88.1,83.6z M84.5,91.8c-1.3,0.2-2.5,0.3-3.8,0.3c-5.4,0-9.1-1.9-12.2-6.2l-0.8-1.1c-0.3-0.4-0.8-0.5-1.2-0.3
		l-1.3,0.5c-4.7,1.9-9.7,3-14.9,3C40.1,88,30.1,84.1,22.6,77.1C14.1,69,9.6,58,10,46.3C10.8,25.6,27.7,8.7,48.4,7.9
		c11.3-0.4,22,3.8,29.9,11.8c7.7,7.7,12.5,23.2,11.3,34c-1,9.5-4.7,16.6-11.6,22.5l0,0c-2.1,1.8-3.9,3.4-2.5,5.5
		c2.4,3.8,7,5.7,9,6.4V91.8z"/>
	<path d="M50.4,14.4c-11.5,0-20.9,10-20.9,21.5v24c0,11.6,9.2,21.4,20.8,21.5c4.6,0,8.9-1.4,12.5-4.1l1.7-1.3
		c0.5-0.4,0.5-1.1,0.1-1.5l-1.6-1.4c-2.7-2.4-7-5.4-9.9-6.3v-4.2c4.8,0.1,9.3,1.6,13.1,4.6l2.1,1.6c0.6,0.4,1.4,0.1,1.6-0.5l0.7-2.6
		c0.4-1.7,0.6-3.4,0.6-5.1l0-24.7c0-5.9-2.2-11.6-6.5-15.6C61,16.5,55.9,14.4,50.4,14.4z M65.9,60.2c-4-2.1-8.4-3.3-13-3.3h-2.1
		c-1.6,0-3,1.3-3,3v8.8c0,1.3,0.9,2.5,2.2,2.9l1.6,0.4c1,0.3,2.9,1.3,4.9,2.8c-1.9,0.8-3.9,1.2-6,1.2c-8.5,0-15.4-6.9-15.4-15.4
		V35.3c0-8.5,6.9-15.4,15.4-15.4c4.1,0,8,1.6,10.9,4.5c2.9,2.9,4.5,6.8,4.5,10.9V60.2z"/>
</g>
</svg>
