<?xml version="1.0" encoding="utf-8"?>
<!-- Generator: Adobe Illustrator 22.0.1, SVG Export Plug-In . SVG Version: 6.00 Build 0)  -->
<svg version="1.1" id="Layer_1" xmlns="http://www.w3.org/2000/svg" xmlns:xlink="http://www.w3.org/1999/xlink" x="0px" y="0px"
	 viewBox="0 0 100 100" style="enable-background:new 0 0 100 100;" xml:space="preserve">
<g>
	<path d="M91.2,25.3c-2.8-4.5-7.1-7.5-12.3-8.4c-5.4-1-11.1,0.4-15.5,3.8c-4.4,3.3-7.2,8.3-7.7,13.7c-0.5,5.4,1.1,10.6,4.6,14.7
		c2.9,3.4,6.7,5.7,10.9,6.6l-1.6,25.2l0.2,0.5c0.4,1.1,1.4,1.8,2.5,1.9c0.1,0,0.1,0,0.2,0c1.1,0,2.1-0.6,2.5-1.5
		c0.9-1.8,2-3.8,3.2-6.1c5.4-10.1,12.7-24,15.1-31.8C95.2,37.5,94.5,30.6,91.2,25.3z M88.1,42.2c-1.9,6.2-7.3,16.9-12.1,26L77,50.8
		l-2.7-0.2c-3.8-0.3-7.3-2.1-9.8-5c-2.5-2.9-3.7-6.7-3.3-10.6c0.4-3.9,2.3-7.4,5.5-9.8c2.6-2,5.7-3,8.8-3c0.8,0,1.6,0.1,2.4,0.2
		c4.6,0.8,7.2,3.6,8.6,5.8C89,32.1,89.5,37.4,88.1,42.2z"/>
	<path d="M28.9,17c-5.4-1-11.1,0.4-15.5,3.8C9,24.2,6.2,29.1,5.7,34.5c-0.5,5.4,1.1,10.6,4.6,14.7c2.9,3.4,6.7,5.7,10.9,6.6
		l-1.6,25.2l0.2,0.5c0.4,1.1,1.4,1.8,2.5,1.9c0.1,0,0.1,0,0.2,0c1.1,0,2-0.6,2.5-1.5c0.9-1.8,2-3.8,3.2-6.1
		c5.4-10.1,12.7-24,15.1-31.8c1.9-6.3,1.1-13.2-2.1-18.5C38.5,20.8,34.1,17.9,28.9,17z M38.1,42.2c-1.9,6.2-7.3,16.9-12.1,26
		L27,50.8l-2.7-0.2c-3.8-0.3-7.3-2.1-9.8-5c-2.5-2.9-3.7-6.7-3.3-10.6c0.4-3.9,2.3-7.4,5.5-9.8c2.6-2,5.7-3,8.8-3
		c0.8,0,1.6,0.1,2.4,0.2c4.6,0.8,7.2,3.6,8.6,5.8C39,32.1,39.5,37.4,38.1,42.2z"/>
</g>
</svg>
