<?xml version="1.0" encoding="utf-8"?>
<!-- Generator: Adobe Illustrator 22.0.1, SVG Export Plug-In . SVG Version: 6.00 Build 0)  -->
<svg version="1.1" id="Layer_1" xmlns="http://www.w3.org/2000/svg" xmlns:xlink="http://www.w3.org/1999/xlink" x="0px" y="0px"
	 viewBox="0 0 100 100" style="enable-background:new 0 0 100 100;" xml:space="preserve">
<g>
	<path d="M19,4.5c-6.6,0-12,5.4-12,12c0,6.6,5.4,12,12,12c6.6,0,12-5.4,12-12C30.9,9.9,25.6,4.5,19,4.5z M19,23
		c-3.6,0-6.5-2.9-6.5-6.5c0-3.6,2.9-6.5,6.5-6.5c3.6,0,6.5,2.9,6.5,6.5C25.4,20.1,22.5,23,19,23z"/>
	<path d="M19,38c-6.6,0-12,5.4-12,12s5.4,12,12,12c6.6,0,12-5.4,12-12S25.6,38,19,38z M19,56.5c-3.6,0-6.5-2.9-6.5-6.5
		c0-3.6,2.9-6.5,6.5-6.5c3.6,0,6.5,2.9,6.5,6.5C25.4,53.6,22.5,56.5,19,56.5z"/>
	<path d="M19,71.5c-6.6,0-12,5.4-12,12s5.4,12,12,12c6.6,0,12-5.4,12-12S25.6,71.5,19,71.5z M19,90c-3.6,0-6.5-2.9-6.5-6.5
		c0-3.6,2.9-6.5,6.5-6.5c3.6,0,6.5,2.9,6.5,6.5C25.4,87.1,22.5,90,19,90z"/>
	<path d="M47,19.2h43.3c1.5,0,2.8-1.2,2.8-2.8s-1.2-2.8-2.8-2.8H47c-1.5,0-2.8,1.2-2.8,2.8S45.5,19.2,47,19.2z"/>
	<path d="M90.3,47.2H47c-1.5,0-2.8,1.2-2.8,2.8c0,1.5,1.2,2.7,2.8,2.7h43.3c1.5,0,2.8-1.2,2.8-2.7C93,48.5,91.8,47.2,90.3,47.2z"/>
	<path d="M90.3,80.8H47c-1.5,0-2.8,1.2-2.8,2.8s1.2,2.8,2.8,2.8h43.3c1.5,0,2.8-1.2,2.8-2.8S91.8,80.8,90.3,80.8z"/>
</g>
</svg>
