<?xml version="1.0" encoding="utf-8"?>
<!-- Generator: Adobe Illustrator 21.0.2, SVG Export Plug-In . SVG Version: 6.00 Build 0)  -->
<svg version="1.1" id="Layer_1" xmlns="http://www.w3.org/2000/svg" xmlns:xlink="http://www.w3.org/1999/xlink" x="0px" y="0px"
	 viewBox="0 0 100 100" style="enable-background:new 0 0 100 100;" xml:space="preserve">
<g>
	<path d="M84.3,29.3c-1.2-1-2.6-1.9-4-2.6c-2.6-1.4-5.3-2.3-8.2-2.8C69,18.8,64.1,15,58.4,13l-0.1,0c-0.5-0.2-5.3-1.5-8.1-1.5
		c-14,0-25.5,11.1-26.1,25c-10.5,1-18.8,9.8-18.8,20.6c0,11.4,9.3,20.7,20.7,20.7c1.5,0,2.8-1.2,2.8-2.8s-1.2-2.8-2.8-2.8
		c-8.4,0-15.2-6.8-15.2-15.2s6.8-15.2,15.2-15.2h3.6v-4.3c0-11.4,9.2-20.6,20.6-20.6c1.6,0,4.8,0.8,6.6,1.2c4.8,1.7,9,5.2,11.4,9.5
		l0.7,1.3l1.4,0.2c2.6,0.3,5.2,1.1,7.6,2.3c1.1,0.6,2.2,1.3,3.1,2.1c5.4,4.3,8.5,10.5,8.5,17c0,12-9.7,21.7-21.7,21.7
		c-1.5,0-2.8,1.2-2.8,2.8s1.2,2.8,2.8,2.8c15,0,27.2-12.2,27.2-27.2C94.8,42.4,90.9,34.6,84.3,29.3z"/>
	<path d="M36.8,59.6c-1.5,0-2.8,1.2-2.8,2.8V83c0,1.5,1.2,2.8,2.8,2.8s2.8-1.2,2.8-2.8V62.3C39.6,60.8,38.3,59.6,36.8,59.6z"/>
	<path d="M47.6,52.5c-1.5,0-2.8,1.2-2.8,2.8v20.7c0,1.5,1.2,2.8,2.8,2.8s2.8-1.2,2.8-2.8V55.2C50.3,53.7,49.1,52.5,47.6,52.5z"/>
	<path d="M58.4,63.1c-1.5,0-2.8,1.2-2.8,2.8v20.7c0,1.5,1.2,2.8,2.8,2.8s2.8-1.2,2.8-2.8V65.8C61.1,64.3,59.9,63.1,58.4,63.1z"/>
</g>
</svg>
