<?xml version="1.0" encoding="utf-8"?>
<!-- Generator: Adobe Illustrator 21.0.2, SVG Export Plug-In . SVG Version: 6.00 Build 0)  -->
<svg version="1.1" id="Layer_1" xmlns="http://www.w3.org/2000/svg" xmlns:xlink="http://www.w3.org/1999/xlink" x="0px" y="0px"
	 viewBox="0 0 100 100" style="enable-background:new 0 0 100 100;" xml:space="preserve">
<g>
	<g id="eyes_1_">
		<circle cx="36.4" cy="55.8" r="6.2"/>
		<circle cx="63.6" cy="55.8" r="6.2"/>
	</g>
	<path id="mouth" d="M50,78c6.7,0,11.5-1.5,14.5-4.5c0.7-0.7,0.7-1.8,0-2.4c-0.7-0.7-1.8-0.7-2.4,0c-2.4,2.4-6.3,3.5-12.1,3.5
		c-5.7,0-9.7-1.1-12.1-3.5c-0.7-0.7-1.8-0.7-2.4,0c-0.7,0.7-0.7,1.8,0,2.4C38.5,76.5,43.3,78,50,78z"/>
	<path id="body_outline" d="M70,84c2.9-1.1,5.7-2.5,8.2-4.1C86,74.8,90.2,68,90.2,60.7c0-1-0.1-1.9-0.2-2.9c3-1.8,5-5.1,5-8.8
		c0-5.6-4.6-10.2-10.2-10.2c-2.6,0-5,1-6.8,2.6c-6.9-4.5-15.9-7.1-25.5-7.5l5.3-16.7l14.3,3.4c0,4.6,3.8,8.4,8.4,8.4
		c4.7,0,8.4-3.8,8.4-8.4c0-4.6-3.8-8.4-8.4-8.4c-3.5,0-6.4,2.1-7.7,5.1L57,13.5c-0.9-0.2-1.8,0.3-2,1.2l-6.1,19.2
		C38.7,34,29.3,36.7,22,41.4c-1.8-1.6-4.2-2.6-6.8-2.6C9.6,38.8,5,43.4,5,49c0,3.7,2,7,5,8.8c-0.2,1-0.2,1.9-0.2,2.9
		c0,7.3,4.3,14.1,12.1,19.2c2.5,1.6,5.2,3,8.2,4.1C30,84,51.3,92.7,70,84z M80.5,15.6c2.7,0,5,2.2,5,5c0,2.7-2.2,5-5,5
		c-2.7,0-5-2.2-5-5C75.5,17.8,77.8,15.6,80.5,15.6z M8.5,49c0-3.7,3-6.8,6.8-6.8c1.4,0,2.8,0.4,3.9,1.2c-4,3.1-6.7,6.8-8.2,10.8
		C9.4,53,8.5,51.1,8.5,49z M50,84.1c-20.3,0-36.8-10.5-36.8-23.4c0-12.9,16.5-23.4,36.8-23.4c20.3,0,36.8,10.5,36.8,23.4
		C86.8,73.6,70.3,84.1,50,84.1z M89.1,54.2c-1.4-4-4.2-7.6-8.2-10.8c1.1-0.8,2.4-1.2,3.9-1.2c3.7,0,6.8,3,6.8,6.8
		C91.5,51.1,90.6,53,89.1,54.2z"/>
</g>
</svg>
