<?xml version="1.0" encoding="utf-8"?>
<!-- Generator: Adobe Illustrator 22.0.1, SVG Export Plug-In . SVG Version: 6.00 Build 0)  -->
<svg version="1.1" id="Layer_1" xmlns="http://www.w3.org/2000/svg" xmlns:xlink="http://www.w3.org/1999/xlink" x="0px" y="0px"
	 viewBox="0 0 100 100" style="enable-background:new 0 0 100 100;" xml:space="preserve">
<g>
	<path d="M90.5,87h-0.3c-3.7,0-6.8-3.2-6.8-7c0-2.1-10-9.2-31.9-10.6v6.7c0,5.8-4.7,10.5-10.5,10.5c-2.6,0-4.9-0.9-6.9-2.6l-0.2-0.1
		c-0.2-0.2-1-0.9-2.3-2.1C25.7,76.3,10.2,62,5.1,56.6c-1-1-2.5-2.8-2.5-5.5v-1.3c0-2.7,0.9-5.1,2.7-6.9C8.8,39.5,17,31.8,23.6,25.6
		c4.8-4.5,9.7-9.1,10.3-9.7l0.3-0.3c2-1.7,4.3-2.6,6.9-2.6c5.8,0,10.5,4.7,10.5,10.5v7.4c13.3,1.6,25.5,8,34.4,18
		c7.2,8.4,11.2,18.7,11.4,29.8l0,0.4l-0.1,0.4c-0.1,0.3-0.1,0.5-0.1,0.6h0c0,3.6-2.9,6.7-6.6,7L90.5,87z M45.9,63.6l2.9,0.1
		c22.5,0.8,40.1,8,40.1,16.2c0,0.8,0.7,1.5,1.3,1.5h0.1c0.9-0.1,1.5-0.9,1.5-1.5c0-0.4,0-0.8,0.2-1.6c-0.3-9.7-3.7-18.6-10-25.9
		C73.3,42.9,61.5,37,48.6,36.1l-2.5-0.2V23.5c0-2.8-2.2-5-5-5c-1.2,0-2.3,0.4-3.2,1.2c-0.8,0.9-3.3,3.2-10.5,10
		c-6.6,6.1-14.7,13.8-18.1,17.2c-0.7,0.7-1.1,1.7-1.1,3v1.3c0,0.4,0.1,0.9,0.9,1.7c5,5.4,20.4,19.5,26.2,24.9c1.6,1.4,2.1,2,2.4,2.2
		c1,0.8,2,1.2,3.3,1.2c2.8,0,5-2.2,5-5V63.6z"/>
</g>
</svg>
