<?xml version="1.0" encoding="utf-8"?>
<!-- Generator: Adobe Illustrator 22.0.1, SVG Export Plug-In . SVG Version: 6.00 Build 0)  -->
<svg version="1.1" id="Layer_1" xmlns="http://www.w3.org/2000/svg" xmlns:xlink="http://www.w3.org/1999/xlink" x="0px" y="0px"
	 viewBox="0 0 100 100" style="enable-background:new 0 0 100 100;" xml:space="preserve">
<g>
	<path d="M87.7,18.7l-6.1-11c-0.7-1.2-1.9-1.9-3.3-1.9H21.7c-1.4,0-2.6,0.7-3.3,1.9l-6.1,11L3.4,34.8c-0.6,1.1-0.8,2.4-0.5,3.6h0
		c0.4,1.7,1.1,3.4,2,5v47.2c0,2.1,1.7,3.8,3.8,3.8h14.8c1.1,0,2-0.9,2-2V69.6h9.6v22.6c0,1.1,0.9,2,2,2h54.3c2.1,0,3.8-1.7,3.8-3.8
		V43.4c0.9-1.5,1.6-3.2,2-5l0,0c0.3-1.2,0.1-2.5-0.5-3.5L87.7,18.7z M22.7,11.2h54.6l12,21.7H10.7L22.7,11.2z M61.4,38.4
		c-0.4,1.1-0.9,2.2-1.7,3.2c-2.3,3.1-5.9,4.9-9.7,4.9s-7.5-1.8-9.7-4.9c-0.7-1-1.3-2.1-1.7-3.2H61.4z M8.6,38.4h22.8
		c-0.4,1.1-0.9,2.2-1.7,3.2c-2.3,3.1-5.9,4.9-9.7,4.9s-7.5-1.8-9.7-4.9C9.6,40.6,9,39.5,8.6,38.4z M89.6,88.8h-49V67.9
		c0-2.1-1.7-3.8-3.8-3.8H23.7c-2.1,0-3.8,1.7-3.8,3.8v20.9h-9.6V49.1C13.2,51,16.5,52,20,52c5.6,0,10.9-2.7,14.2-7.2
		c0.3-0.4,0.6-0.8,0.8-1.3c0.3,0.4,0.5,0.9,0.8,1.3C39.1,49.3,44.4,52,50,52c5.6,0,10.9-2.7,14.2-7.2c0.3-0.4,0.6-0.8,0.8-1.3
		c0.3,0.4,0.5,0.9,0.8,1.3C69.1,49.3,74.4,52,80,52c3.5,0,6.8-1,9.6-2.9V88.8z M89.7,41.6c-2.3,3.1-5.9,4.9-9.7,4.9
		s-7.5-1.8-9.7-4.9c-0.7-1-1.3-2.1-1.7-3.2h22.8C91,39.5,90.4,40.6,89.7,41.6z"/>
	<path d="M75.1,63.5H64.3c-3.1,0-5.6,2.5-5.6,5.6V77c0,3.1,2.5,5.6,5.6,5.6h10.8c3.1,0,5.6-2.5,5.6-5.6v-7.9
		C80.7,66,78.2,63.5,75.1,63.5z M75.2,77c0,0.1,0,0.1-0.1,0.1H64.3c-0.1,0-0.1,0-0.1-0.1v-7.9c0-0.1,0-0.1,0.1-0.1h10.8
		c0.1,0,0.1,0,0.1,0.1V77z"/>
</g>
</svg>
