<?xml version="1.0" encoding="utf-8"?>
<!-- Generator: Adobe Illustrator 21.0.2, SVG Export Plug-In . SVG Version: 6.00 Build 0)  -->
<svg version="1.1" id="Layer_1" xmlns="http://www.w3.org/2000/svg" xmlns:xlink="http://www.w3.org/1999/xlink" x="0px" y="0px"
	 viewBox="0 0 100 100" style="enable-background:new 0 0 100 100;" xml:space="preserve">
<g>
	<path d="M98.1,65.3c-1.7-5.1-7-8.1-12.2-6.7l-23.4,6c0.1-0.5,0.1-1,0.1-1.6c0-5.1-4.1-9.3-9.3-9.3H34.2c-1.1-3.1-4-5.3-7.5-5.3H9.4
		c-4.4,0-7.9,3.6-7.9,8v22c0,4.4,3.6,7.9,7.9,7.9h17.4c2.1,0,4.2-0.9,5.7-2.4c0,0,0.1-0.1,0.1-0.1l2.4,1.2c4.6,2.4,9.7,3.6,14.8,3.6
		c3,0,6.1-0.4,9.1-1.3l6.2-1.8c0,0,0,0,0,0l26.1-7.5c2.6-0.7,4.8-2.4,6.1-4.8C98.6,70.8,98.9,68,98.1,65.3z M28.6,80.1
		c-0.5,0.5-1.1,0.7-1.7,0.7H9.4c-1.4,0-2.4-1.1-2.4-2.4v-22C7,55,8.1,54,9.4,54h17.3c1.4,0,2.4,1.1,2.4,2.5l0,22.1
		C29.2,79.1,29,79.7,28.6,80.1z M92.4,70.6c-0.6,1.1-1.6,1.8-2.7,2.2l-7.2,2.1l0-0.1l-25.1,7.3c-6.7,1.9-13.7,1.2-19.8-1.9l-2.9-1.5
		c0-0.1,0-0.2,0-0.3V59.3h18.6c2.1,0,3.8,1.7,3.8,3.8c0,3.1-2.5,5.5-5.5,5.5h-5.7c-1.5,0-2.8,1.2-2.8,2.8s1.2,2.8,2.8,2.8h5.7
		c2.9,0,5.5-1.1,7.4-2.9l28.3-7.3c2.4-0.6,4.8,0.7,5.6,3C93.2,68.2,93,69.5,92.4,70.6z"/>
	<path d="M74,26.9h10.6c2.5,0,4.5,2,4.5,4.5c0,2.5-2,4.5-4.5,4.5h-4.4c-0.1,0-0.1,0-0.2,0s-0.1,0-0.2,0H69.3c-1.5,0-2.8,1.2-2.8,2.8
		s1.2,2.8,2.8,2.8h8v2.7c0,1.5,1.2,2.8,2.8,2.8s2.8-1.2,2.8-2.8v-2.7h1.8c5.5,0,10-4.5,10-10c0-5.5-4.5-10-10-10H74
		c-2.5,0-4.5-2-4.5-4.5c0-1.2,0.5-2.3,1.3-3.2c0.8-0.8,2-1.3,3.2-1.3h15.4c1.5,0,2.8-1.2,2.8-2.8S90.9,7,89.4,7h-6.6V4.2
		c0-1.5-1.2-2.8-2.8-2.8s-2.8,1.2-2.8,2.8V7H74c-2.7,0-5.2,1-7,2.9c-1.9,1.9-2.9,4.4-2.9,7C64.1,22.5,68.6,26.9,74,26.9z"/>
</g>
</svg>
