<?xml version="1.0" encoding="utf-8"?>
<!-- Generator: Adobe Illustrator 22.0.1, SVG Export Plug-In . SVG Version: 6.00 Build 0)  -->
<svg version="1.1" id="Layer_1" xmlns="http://www.w3.org/2000/svg" xmlns:xlink="http://www.w3.org/1999/xlink" x="0px" y="0px"
	 viewBox="0 0 100 100" style="enable-background:new 0 0 100 100;" xml:space="preserve">
<g>
	<path d="M97.1,83.9l-17-70c-0.5-2.1-2.4-3.6-4.6-3.6h-51c-2.2,0-4.1,1.5-4.6,3.6l-17,70c-0.3,1.4,0,2.9,0.9,4.1
		c0.9,1.2,2.3,1.8,3.7,1.8h85c1.5,0,2.8-0.7,3.7-1.8C97.2,86.8,97.5,85.3,97.1,83.9z M63.2,15.8l15.9,68.5H20.9l15.9-68.5H63.2z
		 M25.1,15.8h6L15.2,84.2H8.4L25.1,15.8z M84.8,84.2L68.9,15.8h6l16.7,68.5H84.8z"/>
	<path d="M47.7,62h3.5c0.6,0,1-0.4,1-1v-6.1c0-0.6-0.4-1-1-1h-3.5c-0.6,0-1,0.4-1,1V61C46.7,61.5,47.2,62,47.7,62z"/>
	<path d="M47.7,46h3.5c0.6,0,1-0.4,1-1v-6.1c0-0.6-0.4-1-1-1h-3.5c-0.6,0-1,0.4-1,1V45C46.7,45.5,47.2,46,47.7,46z"/>
	<path d="M47.7,30h3.5c0.6,0,1-0.4,1-1v-6.1c0-0.6-0.4-1-1-1h-3.5c-0.6,0-1,0.4-1,1V29C46.7,29.5,47.2,30,47.7,30z"/>
	<path d="M47.7,78h3.5c0.6,0,1-0.4,1-1v-6.1c0-0.6-0.4-1-1-1h-3.5c-0.6,0-1,0.4-1,1V77C46.7,77.5,47.2,78,47.7,78z"/>
</g>
</svg>
