<?xml version="1.0" encoding="utf-8"?>
<!-- Generator: Adobe Illustrator 21.0.0, SVG Export Plug-In . SVG Version: 6.00 Build 0)  -->
<svg version="1.1" id="Layer_1" xmlns="http://www.w3.org/2000/svg" xmlns:xlink="http://www.w3.org/1999/xlink" x="0px" y="0px"
	 viewBox="0 0 100 100" style="enable-background:new 0 0 100 100;" xml:space="preserve">
<g>
	<path d="M94.6,32.1l-12.9-13c-0.8-0.8-1.9-1.2-3-1.1l-18.5,1.5C44.4,6.1,24.5,0.9,8.1,6.4L6.8,6.8L6.4,8.1
		C0.9,24.5,6.1,44.4,19.6,60.2L18,78.7c-0.1,1.1,0.3,2.2,1.1,3L32,94.6c0.7,0.7,1.7,1.1,2.7,1.1c0.4,0,0.8-0.1,1.3-0.2
		c1.4-0.5,2.4-1.7,2.6-3.2l1.9-15.6c3.3,1.7,6.7,3.1,10.2,4.2l0.4,0.1c0.7,0.2,1.5,0,2-0.5l27.5-27.5c0.5-0.5,0.7-1.3,0.5-2L81,50.7
		c-1.1-3.5-2.5-6.9-4.2-10.2l15.6-1.9c1.5-0.2,2.7-1.2,3.2-2.6C96,34.6,95.7,33.1,94.6,32.1z M33.5,88.3l-10-10l1.1-12.8
		c3.3,3.2,6.9,5.9,10.6,8.3L33.5,88.3z M50.7,75.2c-8.5-2.9-16.6-8-23.5-14.8C13,46.2,6.7,26.6,11.2,11.2c15.4-4.5,35,1.8,49.2,16
		c6.9,6.9,12,15,14.8,23.5L50.7,75.2z M73.9,35.3c-2.4-3.7-5.2-7.3-8.3-10.6l12.8-1.1l10,10L73.9,35.3z"/>
	<path d="M34.1,34.1c-3.7,3.7-3.7,9.7,0,13.5c1.9,1.9,4.3,2.8,6.7,2.8c2.4,0,4.9-0.9,6.7-2.8c3.7-3.7,3.7-9.7,0-13.5
		C43.8,30.4,37.8,30.4,34.1,34.1z M43.6,43.6c-1.6,1.6-4.1,1.6-5.7,0c-1.6-1.6-1.6-4.1,0-5.7c0.8-0.8,1.8-1.2,2.8-1.2
		s2.1,0.4,2.8,1.2C45.2,39.5,45.2,42.1,43.6,43.6z"/>
	<path d="M86,59.3c-1.1-1.1-2.8-1.1-3.9,0l-23,23c-1.1,1.1-1.1,2.8,0,3.9c0.2,0.2,0.5,0.4,0.7,0.5c9.2,6.1,20.4,7.7,29.2,4
		c0.3-0.1,0.6-0.3,0.9-0.6c0.3-0.3,0.5-0.6,0.6-0.9c3.7-8.8,2.1-20-4-29.2C86.4,59.7,86.2,59.5,86,59.3z M85.8,86
		c-6.2,2.1-13.6,1.3-20.3-2.3l18-18C87.1,72.4,87.9,79.8,85.8,86z"/>
</g>
</svg>
