<?xml version="1.0" encoding="utf-8"?>
<!-- Generator: Adobe Illustrator 22.0.1, SVG Export Plug-In . SVG Version: 6.00 Build 0)  -->
<svg version="1.1" id="Layer_2_1_" xmlns="http://www.w3.org/2000/svg" xmlns:xlink="http://www.w3.org/1999/xlink" x="0px" y="0px"
	 viewBox="0 0 100 100" style="enable-background:new 0 0 100 100;" xml:space="preserve">
<g>
	<path d="M5,2C3.5,2,2.3,3.3,2.3,4.8S3.5,7.5,5,7.5c48.4,0,87.7,39.3,87.7,87.7c0,1.5,1.2,2.8,2.8,2.8s2.8-1.2,2.8-2.8
		C98.2,43.8,56.4,2,5,2z"/>
	<path d="M6.1,23.5c-1.5,0-2.8,1.2-2.8,2.8S4.5,29,6.1,29c35.9,0,65,29.2,65,65c0,1.5,1.2,2.8,2.8,2.8s2.8-1.2,2.8-2.8
		C76.6,55.1,44.9,23.5,6.1,23.5z"/>
	<path d="M5.7,43.6c-1.5,0-2.8,1.2-2.8,2.8s1.2,2.8,2.8,2.8c24.8,0,45,20.2,45,45c0,1.5,1.2,2.8,2.8,2.8s2.8-1.2,2.8-2.8
		C56.3,66.3,33.6,43.6,5.7,43.6z"/>
	<path d="M5.8,64C4.2,64,3,65.3,3,66.8s1.2,2.8,2.8,2.8c13.4,0,24.4,10.9,24.4,24.4c0,1.5,1.2,2.8,2.8,2.8s2.8-1.2,2.8-2.8
		C35.6,77.5,22.2,64,5.8,64z"/>
	<ellipse transform="matrix(0.7071 -0.7071 0.7071 0.7071 -61.3424 32.8708)" cx="9" cy="90.5" rx="7.2" ry="7.2"/>
</g>
</svg>
