<?xml version="1.0" encoding="utf-8"?>
<!-- Generator: Adobe Illustrator 22.0.1, SVG Export Plug-In . SVG Version: 6.00 Build 0)  -->
<svg version="1.1" id="Layer_2_1_" xmlns="http://www.w3.org/2000/svg" xmlns:xlink="http://www.w3.org/1999/xlink" x="0px" y="0px"
	 viewBox="0 0 100 100" style="enable-background:new 0 0 100 100;" xml:space="preserve">
<path d="M71.5,5.1c-0.2-2.3-2-4.1-4.3-4.1H32.7l-0.2,0c-2.3,0.2-4.1,2-4.1,4.3v89.4l0,0.2c0.2,2.3,2,4.1,4.3,4.1h34.5
	c2.4,0,4.3-1.9,4.3-4.3V5.3L71.5,5.1z M66.1,93.5H33.9v-4.1h9c1.5,0,2.8-1.2,2.8-2.8s-1.2-2.8-2.8-2.8h-9v-8.9h14.9
	c1.5,0,2.8-1.2,2.8-2.8s-1.2-2.8-2.8-2.8H33.9v-9.1l9.1,0.1c0,0,0,0,0,0c1.5,0,2.7-1.2,2.7-2.7c0-1.5-1.2-2.8-2.7-2.8l-9.1-0.1v-8.8
	h14.9c1.5,0,2.8-1.2,2.8-2.8s-1.2-2.8-2.8-2.8H33.9v-8.9l9.1-0.1c1.5,0,2.7-1.2,2.7-2.8c0-1.5-1.3-2.7-2.8-2.7l-9.1,0.1v-8.9
	l14.9-0.1c1.5,0,2.7-1.3,2.7-2.8c0-1.5-1.3-2.7-2.8-2.7l-14.8,0.1V6.5h32.1V93.5z"/>
</svg>
