<?xml version="1.0" encoding="utf-8"?>
<!-- Generator: Adobe Illustrator 22.0.1, SVG Export Plug-In . SVG Version: 6.00 Build 0)  -->
<svg version="1.1" id="Layer_2_1_" xmlns="http://www.w3.org/2000/svg" xmlns:xlink="http://www.w3.org/1999/xlink" x="0px" y="0px"
	 viewBox="0 0 100 100" style="enable-background:new 0 0 100 100;" xml:space="preserve">
<g>
	<path d="M44.4,2.5H13.2l-0.2,0c-2.3,0.2-4,2-4,4.2v85.7l0,0.2c0.2,2.3,2,4,4.2,4h31.1c2.3,0,4.2-1.9,4.2-4.2V6.7l0-0.2
		C48.4,4.2,46.6,2.5,44.4,2.5z M43.1,91.2H14.5v-3.7H21c1.5,0,2.8-1.2,2.8-2.8s-1.2-2.8-2.8-2.8h-6.5v-8.3h12.2
		c1.5,0,2.8-1.2,2.8-2.8s-1.2-2.8-2.8-2.8H14.5v-8.5l6.6,0c0,0,0,0,0,0c1.5,0,2.7-1.2,2.7-2.7c0-1.5-1.2-2.8-2.7-2.8l-6.6,0v-8.2
		h12.2c1.5,0,2.8-1.2,2.8-2.8s-1.2-2.8-2.8-2.8H14.5v-8.4l6.6,0c1.5,0,2.7-1.3,2.7-2.8c0-1.5-1.3-2.7-2.8-2.7l-6.6,0v-8.3l12.2-0.1
		c1.5,0,2.7-1.3,2.7-2.8c0-1.5-1.2-2.7-2.7-2.7c0,0,0,0,0,0l-12.1,0.1V8h28.6V91.2z"/>
	<path d="M89.8,4.1c-0.8-0.8-1.8-1.2-2.9-1.2c0,0,0,0,0,0C81,2.7,75,2.6,69,2.7c-1.2,0-2.3,0.4-3.1,1.1c-0.8,0.8-1.3,1.8-1.3,3
		l-0.1,67.2c0,0,0,0,0,0s0,0,0,0l0,0.6L75,95.8c0.4,0.9,1.2,1.5,2.2,1.6c0.2,0,0.3,0,0.5,0c0.8,0,1.6-0.3,2.2-1l0.3-0.3l10.7-21.5
		L91,7C91,5.9,90.5,4.9,89.8,4.1z M86.8,8.3L86.8,8.3C86.8,8.3,86.8,8.3,86.8,8.3C86.8,8.3,86.8,8.3,86.8,8.3z M85.5,8.3l0,10.9
		l-15.4,0l0-11C75.2,8.1,80.4,8.2,85.5,8.3z M77.7,88.9l-6.1-12.1l1.3,0c1.5,0,2.7-1.2,2.7-2.8s-1.2-2.7-2.8-2.7c0,0,0,0,0,0l-3,0
		L70,24.7l15.4,0l0,46.6l-3,0c-1.5,0-2.7,1.2-2.7,2.8s1.2,2.7,2.8,2.7c0,0,0,0,0,0l1.3,0L77.7,88.9z"/>
</g>
</svg>
