<?xml version="1.0" encoding="utf-8"?>
<!-- Generator: Adobe Illustrator 22.0.1, SVG Export Plug-In . SVG Version: 6.00 Build 0)  -->
<svg version="1.1" id="Layer_2_1_" xmlns="http://www.w3.org/2000/svg" xmlns:xlink="http://www.w3.org/1999/xlink" x="0px" y="0px"
	 viewBox="0 0 100 100" style="enable-background:new 0 0 100 100;" xml:space="preserve">
<path d="M97.7,27.2L72.8,2.3c-1.6-1.6-4.4-1.6-6,0l-6.6,6.6c0,0,0,0,0,0c0,0,0,0,0,0L2.3,66.7c-0.8,0.8-1.3,1.9-1.3,3
	c0,1.1,0.4,2.2,1.3,3l24.9,24.9c0.8,0.8,1.9,1.3,3,1.3c1.1,0,2.2-0.5,3-1.3l64.4-64.4c0.8-0.8,1.3-1.9,1.3-3
	C99,29.1,98.5,28,97.7,27.2z M30.2,92.9L7.1,69.7l3-3l6.5,6.5c0.5,0.5,1.2,0.8,1.9,0.8c0.7,0,1.4-0.3,1.9-0.8c1.1-1.1,1.1-2.8,0-3.9
	L14,62.8l6.5-6.5l10.7,10.7c0.5,0.5,1.2,0.8,1.9,0.8c0.7,0,1.4-0.3,1.9-0.8c1.1-1.1,1.1-2.8,0-3.9L24.4,52.4l6.6-6.6l6.6,6.6
	c0.5,0.5,1.2,0.8,1.9,0.8s1.4-0.3,1.9-0.8c1.1-1.1,1.1-2.8,0-3.9L34.8,42l6.4-6.4L52,46.3c0.5,0.5,1.2,0.8,1.9,0.8s1.4-0.3,1.9-0.8
	c1.1-1.1,1.1-2.8,0-3.9L45.1,31.7l6.6-6.6l6.6,6.6c0.5,0.5,1.2,0.8,1.9,0.8s1.4-0.3,1.9-0.8c1.1-1.1,1.1-2.8,0-3.9l-6.6-6.6l6.5-6.5
	l10.8,10.7c0.5,0.5,1.2,0.8,1.9,0.8c0.7,0,1.4-0.3,2-0.8c1.1-1.1,1.1-2.8,0-3.9L66,10.8l3.8-3.8l23.2,23.2L30.2,92.9z"/>
</svg>
