<?xml version="1.0" encoding="utf-8"?>
<!-- Generator: Adobe Illustrator 22.0.1, SVG Export Plug-In . SVG Version: 6.00 Build 0)  -->
<svg version="1.1" id="Layer_1" xmlns="http://www.w3.org/2000/svg" xmlns:xlink="http://www.w3.org/1999/xlink" x="0px" y="0px"
	 viewBox="0 0 100 100" style="enable-background:new 0 0 100 100;" xml:space="preserve">
<path d="M71.7,33.2H59.1c-0.4-4.5-2.6-8.8-6.1-12.4h18.8c1.5,0,2.8-1.2,2.8-2.8s-1.2-2.8-2.8-2.8H28.3c-1.5,0-2.8,1.2-2.8,2.8
	s1.2,2.8,2.8,2.8h15.4c5.6,3.1,9.2,7.6,9.8,12.4H28.3c-1.5,0-2.8,1.2-2.8,2.8s1.2,2.8,2.8,2.8h24.6c-2.1,5.9-8.6,10.8-17.2,12.8
	c-1,0.2-1.8,1-2.1,1.9s-0.1,2,0.6,2.8l24.9,28.3c0.2,0.2,0.5,0.3,0.8,0.3h4.7c0.9,0,1.3-1,0.8-1.7L41.1,55.6
	c9.3-3.2,15.8-9.5,17.6-17h13.1c1.5,0,2.8-1.2,2.8-2.8S73.2,33.2,71.7,33.2z"/>
</svg>
