<?xml version="1.0" encoding="utf-8"?>
<!-- Generator: Adobe Illustrator 21.0.2, SVG Export Plug-In . SVG Version: 6.00 Build 0)  -->
<svg version="1.1" id="Layer_2_1_" xmlns="http://www.w3.org/2000/svg" xmlns:xlink="http://www.w3.org/1999/xlink" x="0px" y="0px"
	 viewBox="0 0 100 100" style="enable-background:new 0 0 100 100;" xml:space="preserve">
<g>
	<path d="M91.1,18.4L76,4.3l-0.2-0.2c-0.9-0.7-2-1.1-3.1-1.1H67H22.8H12.2c-2.6,0-4.8,2.1-4.8,4.8v84.3c0,2.6,2.1,4.8,4.8,4.8h75.6
		c2.6,0,4.8-2.1,4.8-4.8V21.9C92.5,20.5,92.1,19.3,91.1,18.4z M28.3,8.6h33.3v10.1H28.3V8.6z M66.5,91.4h-36V60.9h36V91.4z M87,91.4
		H72V60.1c0-2.6-2.1-4.8-4.8-4.8H29.8c-2.6,0-4.8,2.1-4.8,4.8v31.3H13V8.6h9.8v10.8c0,2.6,2.1,4.8,4.8,4.8h34.8
		c2.6,0,4.8-2.1,4.8-4.8V8.6h5.4L87,22.1V91.4z"/>
	<path d="M41.9,72h14.2c1.5,0,2.8-1.2,2.8-2.8s-1.2-2.8-2.8-2.8H41.9c-1.5,0-2.8,1.2-2.8,2.8S40.4,72,41.9,72z"/>
	<path d="M41.9,84h14.2c1.5,0,2.8-1.2,2.8-2.8s-1.2-2.8-2.8-2.8H41.9c-1.5,0-2.8,1.2-2.8,2.8S40.4,84,41.9,84z"/>
</g>
</svg>
