<?xml version="1.0" encoding="utf-8"?>
<!-- Generator: Adobe Illustrator 22.0.1, SVG Export Plug-In . SVG Version: 6.00 Build 0)  -->
<svg version="1.1" id="Layer_1" xmlns="http://www.w3.org/2000/svg" xmlns:xlink="http://www.w3.org/1999/xlink" x="0px" y="0px"
	 viewBox="0 0 100 100" style="enable-background:new 0 0 100 100;" xml:space="preserve">
<g>
	<path d="M50.7,31.7l-39.8-8.3l-0.1,0c-2-0.3-4,0.3-5.6,1.6c-1.5,1.3-2.4,3.2-2.4,5.3v3.7c0,3.4,2.4,6.3,5.8,6.8l5.9,1.2
		c0,0.1,0,0.1,0,0.2v40.8c0,1.5,1.2,2.8,2.8,2.8s2.8-1.2,2.8-2.8V43.1l19.2,4v35.8c0,1.5,1.2,2.8,2.8,2.8s2.8-1.2,2.8-2.8V48.2
		l3.7,0.8l0.1,0c0.4,0.1,0.7,0.1,1.1,0.1c1.6,0,3.2-0.6,4.5-1.7c1.5-1.3,2.4-3.2,2.4-5.3v-3.7C56.4,35.1,54,32.3,50.7,31.7z
		 M50.9,42.2c0,0.6-0.3,0.9-0.5,1.1c-0.2,0.2-0.6,0.4-1.1,0.3L9.6,35.3l-0.1,0c-0.7-0.1-1.2-0.7-1.2-1.4v-3.7c0-0.6,0.3-0.9,0.5-1.1
		c0.2-0.2,0.6-0.4,1.1-0.3l39.8,8.3l0.1,0c0.7,0.1,1.2,0.7,1.2,1.4V42.2z"/>
	<path d="M94.5,14.4c-1.5,0-2.8,1.2-2.8,2.8v29.1H66.1c-4.3,0-7.8,3.5-7.8,7.8v2c0,3.4,2.3,6.4,5.4,7.4v19.6c0,1.5,1.2,2.8,2.8,2.8
		s2.8-1.2,2.8-2.8V63.7h22.6v19.2c0,1.5,1.2,2.8,2.8,2.8s2.8-1.2,2.8-2.8V63.7V46.2V17.1C97.3,15.6,96,14.4,94.5,14.4z M66.1,58.2
		c-1.2,0-2.3-1-2.3-2.3v-2c0-1.2,1-2.3,2.3-2.3h25.7v6.5H66.1z"/>
</g>
</svg>
