<?xml version="1.0" encoding="utf-8"?>
<!-- Generator: Adobe Illustrator 22.0.1, SVG Export Plug-In . SVG Version: 6.00 Build 0)  -->
<svg version="1.1" id="Layer_1" xmlns="http://www.w3.org/2000/svg" xmlns:xlink="http://www.w3.org/1999/xlink" x="0px" y="0px"
	 viewBox="0 0 100 100" style="enable-background:new 0 0 100 100;" xml:space="preserve">
<path d="M84.7,80.2L73.5,55.4c3.8-3.5,6.8-7.9,8.8-12.9c0.5-1.4-0.2-3-1.6-3.6c-1.4-0.6-3,0.2-3.6,1.6c-1.4,3.6-3.5,6.9-6.1,9.6
	l-7.6-16.9c1.2-2.2,1.8-4.6,1.8-7.2c0-7.4-5.2-13.5-12.1-15V6.2c0-1.7-1.4-3.1-3.1-3.1s-3.1,1.4-3.1,3.1V11
	c-6.9,1.5-12.1,7.6-12.1,15c0,2.6,0.7,5.1,1.8,7.2l-7.6,16.9c-2.6-2.7-4.6-5.9-6.1-9.6c-0.6-1.4-2.1-2.1-3.6-1.6
	c-1.4,0.6-2.1,2.1-1.6,3.6c2,5.1,5,9.4,8.8,12.9L15.3,80.2l-0.4,13.4c0,1.3,0.7,2.5,1.9,3.1c0.4,0.2,0.9,0.3,1.3,0.3
	c0.8,0,1.6-0.3,2.2-0.9l9.7-9.2l10.6-23.5c3,0.8,6.1,1.3,9.3,1.3c3.2,0,6.3-0.5,9.3-1.3l10.6,23.5l9.7,9.2c0.6,0.6,1.4,0.9,2.2,0.9
	c0.4,0,0.9-0.1,1.3-0.3c1.2-0.5,2-1.7,1.9-3.1L84.7,80.2z M45,40.4l-7.2,16c-1.6-0.7-3.1-1.6-4.6-2.6l7.2-15.9
	C41.8,39,43.3,39.8,45,40.4z M59.6,37.9l7.2,15.9c-1.4,1-3,1.9-4.6,2.6l-7.2-16C56.7,39.8,58.2,39,59.6,37.9z M50,16.2
	c5.4,0,9.8,4.4,9.8,9.8s-4.4,9.8-9.8,9.8s-9.8-4.4-9.8-9.8S44.6,16.2,50,16.2z M25.6,83.6l-5,4.7l0.2-6.8L31,58.9
	c1.5,1,3,1.8,4.6,2.5L25.6,83.6z M50,59.1c-2.4,0-4.7-0.3-7-0.8l7-15.5l7,15.5C54.7,58.8,52.4,59.1,50,59.1z M74.4,83.6l-10-22.1
	c1.6-0.7,3.1-1.6,4.6-2.5l10.2,22.5l0.2,6.8L74.4,83.6z"/>
</svg>
