<?xml version="1.0" encoding="utf-8"?>
<!-- Generator: Adobe Illustrator 22.0.1, SVG Export Plug-In . SVG Version: 6.00 Build 0)  -->
<svg version="1.1" id="Layer_1" xmlns="http://www.w3.org/2000/svg" xmlns:xlink="http://www.w3.org/1999/xlink" x="0px" y="0px"
	 viewBox="0 0 100 100" style="enable-background:new 0 0 100 100;" xml:space="preserve">
<g>
	<path d="M60.3,37.4L9.7,24.2c-1.5-0.4-3,0.5-3.4,2c-0.4,1.5,0.5,3,2,3.4l6.6,1.7v48.9c0,1.5,1.2,2.8,2.7,2.8s2.8-1.2,2.8-2.8V32.7
		l22,5.8v41.7c0,1.5,1.2,2.8,2.8,2.8s2.8-1.2,2.8-2.8V39.9l10.9,2.9c0.2,0.1,0.5,0.1,0.7,0.1c1.2,0,2.3-0.8,2.7-2.1
		C62.6,39.3,61.7,37.8,60.3,37.4z"/>
	<path d="M91,17.1c-1.5,0-2.8,1.2-2.8,2.8v31.2H69.6c-2.8,0-5,2.3-5,5v24c0,1.5,1.2,2.8,2.8,2.8s2.8-1.2,2.8-2.8V56.6h18.2v5.9v17.6
		c0,1.5,1.2,2.8,2.8,2.8s2.8-1.2,2.8-2.8V62.5V51.1V19.9C93.7,18.4,92.5,17.1,91,17.1z"/>
</g>
</svg>
