<?xml version="1.0" encoding="utf-8"?>
<!-- Generator: Adobe Illustrator 22.0.1, SVG Export Plug-In . SVG Version: 6.00 Build 0)  -->
<svg version="1.1" id="Layer_1" xmlns="http://www.w3.org/2000/svg" xmlns:xlink="http://www.w3.org/1999/xlink" x="0px" y="0px"
	 viewBox="0 0 100 100" style="enable-background:new 0 0 100 100;" xml:space="preserve">
<path d="M77.2,10.4H60.6c-1.2-5-5.8-8.7-11.1-8.7c-5.4,0-9.9,3.7-11.1,8.7H22.8c-1.5,0-2.8,1.2-2.8,2.8s1.2,2.8,2.8,2.8h13.9
	c-5.7,2.9-9.5,8.9-9.5,15.5v34.1c0,7.8,5.3,14.6,12.6,16.8v6.9c0,5.1,4.1,9.2,9.2,9.2h0.9c5.1,0,9.2-4.1,9.2-9.2v-6.9
	c7.3-2.1,12.6-8.9,12.6-16.8V31.4c0-6.6-3.8-12.6-9.5-15.5h15c1.5,0,2.8-1.2,2.8-2.8S78.7,10.4,77.2,10.4z M49.5,7.1
	c3.3,0,6,2.7,6,6s-2.7,6-6,6c-3.3,0-6-2.7-6-6c0,0,0,0,0,0c0,0,0,0,0,0C43.5,9.8,46.2,7.1,49.5,7.1z M53.6,89.2c0,2-1.7,3.7-3.7,3.7
	H49c-2,0-3.7-1.7-3.7-3.7v-13c0-2,1.7-3.7,3.7-3.7h0.9c2,0,3.7,1.7,3.7,3.7V89.2z M66.2,31.4v34.1c0,4.8-2.9,9-7.1,10.9v-0.3
	c0-5.1-4.1-9.2-9.2-9.2H49c-5.1,0-9.2,4.1-9.2,9.2v0.3c-4.2-1.9-7.1-6.1-7.1-10.9V31.4c0-5,3.2-9.4,7.7-11.2c2.1,2.7,5.4,4.4,9,4.4
	c3.7,0,6.9-1.7,9-4.4C63,22,66.2,26.4,66.2,31.4z"/>
</svg>
