<?xml version="1.0" encoding="utf-8"?>
<!-- Generator: Adobe Illustrator 22.0.1, SVG Export Plug-In . SVG Version: 6.00 Build 0)  -->
<svg version="1.1" id="Layer_1" xmlns="http://www.w3.org/2000/svg" xmlns:xlink="http://www.w3.org/1999/xlink" x="0px" y="0px"
	 viewBox="0 0 100 100" style="enable-background:new 0 0 100 100;" xml:space="preserve">
<g>
	<path d="M56.1,3.5H43.9c-12.2,0-22.1,9.9-22.1,22.1v48.8c0,12.2,9.9,22.1,22.1,22.1h12.2c12.2,0,22.1-9.9,22.1-22.1V25.6
		C78.2,13.4,68.3,3.5,56.1,3.5z M72.7,74.4c0,9.2-7.5,16.6-16.6,16.6H43.9c-9.2,0-16.6-7.5-16.6-16.6V25.6C27.3,16.4,34.7,9,43.9,9
		h12.2c9.2,0,16.6,7.5,16.6,16.6V74.4z"/>
	<path d="M58,67.4l-8,8l-8-8c-1.1-1.1-2.8-1.1-3.9,0c-1.1,1.1-1.1,2.8,0,3.9l9.3,9.3c0.7,0.7,1.7,1.1,2.6,1.1c1,0,1.9-0.4,2.7-1.1
		l9.3-9.3c1.1-1.1,1.1-2.8,0-3.9S59.1,66.4,58,67.4z"/>
	<circle cx="50" cy="21.6" r="3.5"/>
	<circle cx="50" cy="37.1" r="3.5"/>
	<circle cx="50" cy="52.6" r="3.5"/>
</g>
</svg>
