<?xml version="1.0" encoding="utf-8"?>
<!-- Generator: Adobe Illustrator 21.0.2, SVG Export Plug-In . SVG Version: 6.00 Build 0)  -->
<svg version="1.1" id="Layer_2_1_" xmlns="http://www.w3.org/2000/svg" xmlns:xlink="http://www.w3.org/1999/xlink" x="0px" y="0px"
	 viewBox="0 0 100 100" style="enable-background:new 0 0 100 100;" xml:space="preserve">
<g>
	<path d="M94.9,90.1l-5.5-5.5l5.5-3.2l-16-6v-2.6h-5.5v1.8h-1.8v5.5h5.4L82.4,94l3.2-5.5l5.4,5.4c0.5,0.5,1.2,0.8,1.9,0.8
		s1.4-0.3,1.9-0.8C96,92.9,96,91.2,94.9,90.1z"/>
	<rect x="20.1" y="74.6" width="8.6" height="5.5"/>
	<rect x="37.3" y="74.6" width="8.6" height="5.5"/>
	<rect x="54.6" y="74.6" width="8.6" height="5.5"/>
	<polygon points="9.8,72.9 4.3,72.9 4.3,80.1 11.5,80.1 11.5,74.6 9.8,74.6 	"/>
	<rect x="4.3" y="55.5" width="5.5" height="8.6"/>
	<rect x="4.3" y="38.3" width="5.5" height="8.6"/>
	<rect x="4.3" y="21.1" width="5.5" height="8.6"/>
	<polygon points="4.3,12.4 9.8,12.4 9.8,10.7 11.5,10.7 11.5,5.2 4.3,5.2 	"/>
	<rect x="37.3" y="5.2" width="8.6" height="5.5"/>
	<rect x="54.6" y="5.2" width="8.6" height="5.5"/>
	<rect x="20.1" y="5.2" width="8.6" height="5.5"/>
	<polygon points="73.5,12.4 79,12.4 79,5.2 71.8,5.2 71.8,10.7 73.5,10.7 	"/>
	<rect x="73.5" y="38.4" width="5.5" height="8.6"/>
	<rect x="73.5" y="21.1" width="5.5" height="8.6"/>
	<rect x="73.5" y="55.6" width="5.5" height="8.6"/>
</g>
</svg>
