<?xml version="1.0" encoding="utf-8"?>
<!-- Generator: Adobe Illustrator 22.0.1, SVG Export Plug-In . SVG Version: 6.00 Build 0)  -->
<svg version="1.1" id="Layer_1" xmlns="http://www.w3.org/2000/svg" xmlns:xlink="http://www.w3.org/1999/xlink" x="0px" y="0px"
	 viewBox="0 0 100 100" style="enable-background:new 0 0 100 100;" xml:space="preserve">
<g>
	<path d="M21.5,54.9c2.6,0,4.8-2.1,4.8-4.8c0,0,0,0,0,0c3.8-2.7,9.4-6.9,13.1-9.7c0.4,0.1,0.9,0.2,1.4,0.2c1.3,0,2.5-0.6,3.4-1.4
		l10.8,3.3c0.7,1.7,2.4,2.9,4.4,2.9c2.6,0,4.6-2,4.7-4.5l12.6-7.8c0.6,0.2,1.2,0.4,1.9,0.4c2.6,0,4.8-2.1,4.8-4.8S81.1,24,78.5,24
		c-2.5,0-4.5,2-4.7,4.4L61,36.3c-0.5-0.2-1.1-0.3-1.7-0.3c-1.2,0-2.3,0.5-3.1,1.2l-11.2-3.4c-0.8-1.5-2.4-2.5-4.2-2.5
		c-2.6,0-4.8,2.1-4.8,4.8c0,0,0,0.1,0,0.1c-3.7,2.7-9.3,6.9-13,9.6c-0.5-0.2-1-0.3-1.5-0.3c-2.6,0-4.8,2.1-4.8,4.8
		S18.9,54.9,21.5,54.9z"/>
	<path d="M93,14.7H7c-2.6,0-4.8,2.1-4.8,4.8V62c0,2.6,2.1,4.8,4.8,4.8h39v13.1H35.6c-1.5,0-2.8,1.2-2.8,2.8s1.2,2.8,2.8,2.8h28.8
		c1.5,0,2.8-1.2,2.8-2.8s-1.2-2.8-2.8-2.8H54V66.8h39c2.6,0,4.8-2.1,4.8-4.8V19.4C97.8,16.8,95.6,14.7,93,14.7z M92.3,61.3H7.8V20.2
		h84.5V61.3z"/>
</g>
</svg>
