<?xml version="1.0" encoding="utf-8"?>
<!-- Generator: Adobe Illustrator 22.0.1, SVG Export Plug-In . SVG Version: 6.00 Build 0)  -->
<svg version="1.1" id="Layer_1" xmlns="http://www.w3.org/2000/svg" xmlns:xlink="http://www.w3.org/1999/xlink" x="0px" y="0px"
	 viewBox="0 0 100 100" style="enable-background:new 0 0 100 100;" xml:space="preserve">
<g>
	<path d="M25.5,49.1c-1.5,0-2.8,1.2-2.8,2.8c0,1.5,1.2,2.7,2.8,2.7h6.4c2.7,0,4.9-2.2,4.9-4.9v-6.5c0-2.7-2.2-4.9-4.9-4.9h-3.1v-5.3
		h5.8c1.5,0,2.8-1.2,2.8-2.8s-1.2-2.8-2.8-2.8h-6.4c-2.7,0-4.9,2.2-4.9,4.9v6.4c0,2.7,2.2,4.9,4.9,4.9h3.1v5.4H25.5z"/>
	<path d="M46.7,54.6h7.9c1.5,0,2.8-1.2,2.8-2.7c0-1.5-1.2-2.8-2.8-2.8h-6.9v-5.3h2.8c1.5,0,2.7-1.2,2.7-2.8s-1.2-2.8-2.7-2.8h-2.8
		v-5.3h6.9c1.5,0,2.8-1.2,2.8-2.8s-1.2-2.8-2.8-2.8h-7.9c-2.5,0-4.6,2-4.6,4.6v18C42.1,52.5,44.2,54.6,46.7,54.6z"/>
	<path d="M69,54.6h0.7c4.1,0,7.5-3.4,7.5-7.5V34.9c0-4.1-3.4-7.5-7.5-7.5H69c-4.1,0-7.5,3.4-7.5,7.5v12.1
		C61.5,51.2,64.9,54.6,69,54.6z M67,34.9c0-1.1,0.9-2,2-2h0.7c1.1,0,2,0.9,2,2v12.1c0,1.1-0.9,2-2,2H69c-1.1,0-2-0.9-2-2V34.9z"/>
</g>
<path d="M93,14.7H7c-2.6,0-4.8,2.1-4.8,4.8V62c0,2.6,2.1,4.8,4.8,4.8h39v13.1H35.6c-1.5,0-2.8,1.2-2.8,2.8s1.2,2.8,2.8,2.8h28.8
	c1.5,0,2.8-1.2,2.8-2.8s-1.2-2.8-2.8-2.8H54V66.8h39c2.6,0,4.8-2.1,4.8-4.8V19.4C97.8,16.8,95.6,14.7,93,14.7z M92.3,61.3H7.8V20.2
	h84.5V61.3z"/>
</svg>
