<?xml version="1.0" encoding="utf-8"?>
<!-- Generator: Adobe Illustrator 22.0.1, SVG Export Plug-In . SVG Version: 6.00 Build 0)  -->
<svg version="1.1" id="Layer_1" xmlns="http://www.w3.org/2000/svg" xmlns:xlink="http://www.w3.org/1999/xlink" x="0px" y="0px"
	 viewBox="0 0 100 100" style="enable-background:new 0 0 100 100;" xml:space="preserve">
<path d="M90.6,63.6c-0.7-20.9-17.2-37.8-37.9-39.2v-1.2l2.6,0c1.3,0,2.5-0.9,2.8-2.2c0.3-1.8-1-3.3-2.7-3.3l-10.8,0
	c-1.3,0-2.5,0.9-2.8,2.2c-0.3,1.8,1,3.3,2.7,3.3h2.7v1.2C26.6,25.8,10.1,42.7,9.4,63.6H4.8c-1.1,0-2,0.9-2,2v8.1
	c0,4.8,3.9,8.6,8.6,8.6h77.2c4.8,0,8.6-3.9,8.6-8.6v-8.1c0-1.1-0.9-2-2-2H90.6z M50,29.8c18.9,0,34.4,15,35.1,33.8H14.9
	C15.6,44.8,31.1,29.8,50,29.8z M91.8,73.7c0,1.7-1.4,3.1-3.1,3.1H11.4c-1.7,0-3.1-1.4-3.1-3.1v-4.6h83.5V73.7z"/>
</svg>
