<?xml version="1.0" encoding="utf-8"?>
<!-- Generator: Adobe Illustrator 22.0.1, SVG Export Plug-In . SVG Version: 6.00 Build 0)  -->
<svg version="1.1" id="Layer_1" xmlns="http://www.w3.org/2000/svg" xmlns:xlink="http://www.w3.org/1999/xlink" x="0px" y="0px"
	 viewBox="0 0 100 100" style="enable-background:new 0 0 100 100;" xml:space="preserve">
<g>
	<path d="M21.5,38.8c0.7,0,1.4-0.3,1.9-0.8c1.1-1.1,1.1-2.8,0-3.9l-9.5-9.7h20c9.1,0,16.5,7.4,16.5,16.5V66c0,1.5,1.2,2.8,2.8,2.8
		s2.8-1.2,2.8-2.8V40.9c0-12.1-9.9-22-22-22H14l9.4-9.4c1.1-1.1,1.1-2.8,0-3.9s-2.8-1.1-3.9,0L3.5,21.7l16,16.3
		C20.1,38.5,20.8,38.8,21.5,38.8z"/>
	<path d="M93.2,62.4c-1.3,0.3-2.2,1.5-2.2,2.8l0,24.5H11.2l0-24.5c0-1.3-0.9-2.5-2.2-2.8c-1.8-0.3-3.3,1-3.3,2.7v28.1
		c0,1.1,0.9,2,2,2h86.8c1.1,0,2-0.9,2-2V65.1C96.5,63.4,95,62.1,93.2,62.4z"/>
</g>
</svg>
