<?xml version="1.0" encoding="utf-8"?>
<!-- Generator: Adobe Illustrator 21.0.2, SVG Export Plug-In . SVG Version: 6.00 Build 0)  -->
<svg version="1.1" id="Layer_2_1_" xmlns="http://www.w3.org/2000/svg" xmlns:xlink="http://www.w3.org/1999/xlink" x="0px" y="0px"
	 viewBox="0 0 100 100" style="enable-background:new 0 0 100 100;" xml:space="preserve">
<g>
	<path d="M46.9,68.7c1.5,0,2.8-1.2,2.8-2.8V40.9c0-9.1,7.4-16.5,16.5-16.5h20l-9.5,9.7c-1.1,1.1-1,2.8,0,3.9
		c0.5,0.5,1.2,0.8,1.9,0.8c0.7,0,1.4-0.3,2-0.8l16-16.3l-16-16c-1.1-1.1-2.8-1.1-3.9,0c-1.1,1.1-1.1,2.8,0,3.9l9.4,9.4H66.1
		c-12.1,0-22,9.8-22,22v25.1C44.2,67.5,45.4,68.7,46.9,68.7z"/>
	<path d="M91.5,62.4c-1.5,0-2.8,1.2-2.8,2.8v24.5H9V65.1c0-1.5-1.2-2.8-2.8-2.8s-2.8,1.2-2.8,2.8v30h90.8v-30
		C94.3,63.6,93.1,62.4,91.5,62.4z"/>
</g>
</svg>
