<?xml version="1.0" encoding="utf-8"?>
<!-- Generator: Adobe Illustrator 21.0.2, SVG Export Plug-In . SVG Version: 6.00 Build 0)  -->
<svg version="1.1" id="Layer_2_1_" xmlns="http://www.w3.org/2000/svg" xmlns:xlink="http://www.w3.org/1999/xlink" x="0px" y="0px"
	 viewBox="0 0 100 100" style="enable-background:new 0 0 100 100;" xml:space="preserve">
<g>
	<path d="M50.1,95.5l-0.9-0.3C27.8,87.9,13.4,67.7,13.4,45V15.8c0-0.4,0.3-0.8,0.7-1L49.6,4.5c0.2-0.1,0.4-0.1,0.6,0l35.8,10.3
		c0.4,0.1,0.7,0.5,0.7,1V45c0,22.6-14.3,42.8-35.7,50.2L50.1,95.5z M19.6,19c-0.4,0.1-0.7,0.5-0.7,1V45c0,20,12.5,37.9,31.1,44.7
		C68.7,82.8,81.1,65,81.1,45V19.9c0-0.4-0.3-0.8-0.7-1l-30.2-8.7c-0.2-0.1-0.4-0.1-0.6,0L19.6,19z"/>
</g>
</svg>
