<?xml version="1.0" encoding="utf-8"?>
<!-- Generator: Adobe Illustrator 22.0.1, SVG Export Plug-In . SVG Version: 6.00 Build 0)  -->
<svg version="1.1" id="Layer_1" xmlns="http://www.w3.org/2000/svg" xmlns:xlink="http://www.w3.org/1999/xlink" x="0px" y="0px"
	 viewBox="0 0 100 100" style="enable-background:new 0 0 100 100;" xml:space="preserve">
<g>
	<path d="M93.4,94c1.5,0,2.8-1.2,2.8-2.8V8.8c0-1.5-1.2-2.8-2.8-2.8s-2.8,1.2-2.8,2.8v82.4C90.6,92.7,91.9,94,93.4,94z"/>
	<path d="M6.6,52.8h59.5l-9.9,10c-1.1,1.1-1.1,2.8,0,3.9c1.1,1.1,2.8,1.1,3.9,0L76.5,50L60.1,33.5c-0.5-0.5-1.2-0.8-1.9-0.8
		s-1.4,0.3-1.9,0.8c-1.1,1.1-1.1,2.8,0,3.9l9.8,9.8H6.6c-1.5,0-2.8,1.2-2.8,2.8S5.1,52.8,6.6,52.8z"/>
</g>
</svg>
