<?xml version="1.0" encoding="utf-8"?>
<!-- Generator: Adobe Illustrator 21.0.2, SVG Export Plug-In . SVG Version: 6.00 Build 0)  -->
<svg version="1.1" id="Layer_1" xmlns="http://www.w3.org/2000/svg" xmlns:xlink="http://www.w3.org/1999/xlink" x="0px" y="0px"
	 viewBox="0 0 100 100" style="enable-background:new 0 0 100 100;" xml:space="preserve">
<g>
	<path d="M27.8,70.6v10c0,0.1,0.1,0.1,0.1,0.1l5.3-1.9c0,0,0.1-0.1,0.1-0.1v-9.3L20.1,40.9l29.3-9.8l30.4,9.8L66.6,69.4v9.3
		c0,0,0,0.1,0.1,0.1l5.3,1.9c0.1,0,0.1,0,0.1-0.1v-10l13.1-28.1c0.6-1.2,0.6-2.7,0-3.9s-1.6-2.2-2.9-2.6l-4.5-1.4V12.8
		c0-2.6-2.1-4.8-4.8-4.8H55.7V5.2c0-1-0.8-1.7-1.7-1.7h-8.1c-1,0-1.7,0.8-1.7,1.7V8H26.8c-2.6,0-4.8,2.1-4.8,4.8v21.6l-4.6,1.5
		c-1.3,0.4-2.3,1.4-2.9,2.6c-0.5,1.2-0.5,2.7,0.1,3.9L27.8,70.6z M27.6,13.5h44.7v19.2l-21.8-7c-0.8-0.2-1.6-0.2-2.3,0l-20.6,6.9
		V13.5z"/>
	<rect x="31" y="18.6" width="2.4" height="2.4"/>
	<rect x="48.7" y="18.6" width="2.4" height="2.4"/>
	<rect x="66.5" y="18.6" width="2.4" height="2.4"/>
	<path d="M89.4,88.6c-1.1-1.1-2.8-1.1-3.9,0c-3,3-7.9,3-10.9,0l-0.4-0.4c-5.1-5.1-13.5-5.1-18.7,0l-0.5,0.5
		c-1.5,1.5-3.4,2.3-5.4,2.3s-4-0.8-5.4-2.3L44,88.6c-2.5-2.5-5.8-3.9-9.3-3.9c-3.5,0-6.8,1.4-9.3,3.9c-3,3-7.9,3-10.9,0
		c-1.1-1.1-2.8-1.1-3.9,0c-1.1,1.1-1.1,2.8,0,3.9c5.1,5.1,13.5,5.1,18.7,0c1.5-1.5,3.4-2.3,5.4-2.3c2.1,0,4,0.8,5.4,2.3l0.2,0.2
		c2.5,2.5,5.8,3.9,9.3,3.9s6.8-1.4,9.3-3.9l0.5-0.5c3-3,7.9-3,10.9,0l0.4,0.4c5.1,5.1,13.5,5.1,18.7,0
		C90.5,91.4,90.5,89.7,89.4,88.6z"/>
</g>
</svg>
