<?xml version="1.0" encoding="utf-8"?>
<!-- Generator: Adobe Illustrator 21.0.2, SVG Export Plug-In . SVG Version: 6.00 Build 0)  -->
<svg version="1.1" id="Layer_1" xmlns="http://www.w3.org/2000/svg" xmlns:xlink="http://www.w3.org/1999/xlink" x="0px" y="0px"
	 viewBox="0 0 100 100" style="enable-background:new 0 0 100 100;" xml:space="preserve">
<g>
	<path d="M62.9,96.8l28.3-6.1c0,0-10.2-69-10.3-69.5c-0.1-0.5-0.5-0.7-0.8-0.8c-0.3,0-7.6-0.6-7.6-0.6s-5-5-5.6-5.5
		c-0.1-0.1-0.3-0.2-0.5-0.3L62.9,96.8z"/>
	<path d="M65.2,14c-0.1,0-0.2,0-0.3,0.1c-0.1,0-1.1,0.3-2.8,0.9c-1.7-4.8-4.6-9.3-9.8-9.3c-0.1,0-0.3,0-0.4,0
		c-1.5-2-3.3-2.8-4.9-2.8C34.8,2.9,29,18,27.2,25.7c-4.7,1.5-8.1,2.5-8.5,2.6c-2.6,0.8-2.7,0.9-3.1,3.4c-0.3,1.9-7.1,55.1-7.1,55.1
		l53.2,10L65.2,14z M51.4,17.7c0,0.2,0,0.4,0,0.5c-3,0.9-6.2,1.9-9.4,2.9c1.8-7,5.2-10.3,8.2-11.6C50.9,11.4,51.4,14.1,51.4,17.7z
		 M46.6,6.1c0.5,0,1.1,0.2,1.6,0.5c-3.9,1.8-8.1,6.4-9.8,15.6c-2.6,0.8-5.1,1.6-7.4,2.3C33,17.6,37.9,6.1,46.6,6.1z M48.7,47.1
		c0,0-3.1-1.7-7-1.7c-5.6,0-5.9,3.5-5.9,4.4c0,4.9,12.7,6.7,12.7,18.1c0,9-5.7,14.8-13.4,14.8c-9.2,0-13.9-5.7-13.9-5.7l2.5-8.1
		c0,0,4.8,4.2,8.9,4.2c2.7,0,3.8-2.1,3.8-3.6c0-6.4-10.4-6.6-10.4-17.1c0-8.8,6.3-17.3,19-17.3c4.9,0,7.3,1.4,7.3,1.4L48.7,47.1z
		 M53.5,8.9c2.7,0.3,4.5,3.4,5.6,6.9c-1.3,0.4-2.9,0.9-4.5,1.4c0-0.3,0-0.6,0-1C54.6,13.3,54.2,10.8,53.5,8.9z"/>
</g>
</svg>
