<?xml version="1.0" encoding="utf-8"?>
<!-- Generator: Adobe Illustrator 22.0.1, SVG Export Plug-In . SVG Version: 6.00 Build 0)  -->
<svg version="1.1" id="Layer_1" xmlns="http://www.w3.org/2000/svg" xmlns:xlink="http://www.w3.org/1999/xlink" x="0px" y="0px"
	 viewBox="0 0 100 100" style="enable-background:new 0 0 100 100;" xml:space="preserve">
<g>
	<path d="M91.9,35.6h-7.1L78.9,6.5C78.6,5,77.1,4,75.6,4.3c-1.5,0.3-2.4,1.8-2.1,3.2l5.7,28H20.8l5.7-28c0.3-1.5-0.7-2.9-2.1-3.2
		C22.9,4,21.4,5,21.1,6.5l-5.9,29.1H8.1c-2.6,0-4.8,2.1-4.8,4.8v8.9c0,2.6,2.1,4.7,4.8,4.7h2.2L19,92c0.5,2.2,2.5,3.8,4.7,3.8h52.6
		c2.3,0,4.2-1.6,4.7-3.8l8.7-38h2.2c2.6,0,4.8-2.1,4.8-4.7v-8.9C96.7,37.7,94.5,35.6,91.9,35.6z M75.8,90.3H24.2l-8.3-36.3h68.2
		L75.8,90.3z M91.2,48.4H91H9H8.8v-7.4h82.4V48.4z"/>
	<path d="M38.3,83.5c1.5,0,2.8-1.2,2.8-2.8V64.4c0-1.5-1.2-2.8-2.8-2.8s-2.8,1.2-2.8,2.8v16.3C35.5,82.2,36.7,83.5,38.3,83.5z"/>
	<path d="M61.7,83.5c1.5,0,2.8-1.2,2.8-2.8V64.4c0-1.5-1.2-2.8-2.8-2.8S59,62.9,59,64.4v16.3C59,82.2,60.2,83.5,61.7,83.5z"/>
</g>
</svg>
