<?xml version="1.0" encoding="utf-8"?>
<!-- Generator: Adobe Illustrator 22.0.1, SVG Export Plug-In . SVG Version: 6.00 Build 0)  -->
<svg version="1.1" id="Layer_2_1_" xmlns="http://www.w3.org/2000/svg" xmlns:xlink="http://www.w3.org/1999/xlink" x="0px" y="0px"
	 viewBox="0 0 100 100" style="enable-background:new 0 0 100 100;" xml:space="preserve">
<g>
	<path d="M50.7,48.5c-1.6-0.5-2.8-1-3.6-1.6c-0.8-0.6-1.2-1.3-1.2-2.1c0-0.9,0.4-1.6,1.1-2.1s1.7-0.8,3-0.8c1.4,0,2.4,0.4,3.1,1
		c0.3,0.4,0.6,0.8,0.8,1.2c0.4,0.9,1.1,1.5,2.1,1.5h0.4c1.8,0,3-1.8,2.2-3.4c-0.1-0.2-0.3-0.4-0.4-0.6c-0.8-1.2-1.9-2.1-3.3-2.8
		c-1.4-0.7-3-1-4.8-1c-1.8,0-3.4,0.3-4.8,0.9c-1.4,0.6-2.5,1.4-3.3,2.5c-0.7,1-1.1,2.2-1.1,3.6c0,2.6,1.4,4.7,4.3,6.2
		c1.1,0.5,2.5,1.1,4.3,1.7s3,1.2,3.7,1.7c0.7,0.6,1,1.3,1,2.3c0,0.9-0.4,1.6-1.3,2.1c-0.7,0.5-1.7,0.8-2.9,0.8
		c-2.7,0-4.2-0.9-4.8-2.6c-0.4-1-1.4-1.6-2.4-1.6h-0.1c-1.8,0-3,1.8-2.2,3.4c0.1,0.3,0.3,0.6,0.5,0.9c0.8,1.2,2,2.2,3.6,2.9
		c1.6,0.7,3.4,1.1,5.3,1.1c2.8,0,5-0.7,6.7-1.9c1.7-1.2,2.5-2.9,2.5-5.1c0-1.9-0.7-3.6-2-4.9C55.8,50.5,53.7,49.4,50.7,48.5z"/>
	<path d="M27.8,27.5c-1.1-1.1-2.8-1.1-3.9,0L4.1,47.4c-1.5,1.5-1.5,3.8,0,5.3L24,72.5c0.5,0.5,1.2,0.8,1.9,0.8
		c0.7,0,1.4-0.3,1.9-0.8c1.1-1.1,1.1-2.8,0-3.9L9.2,50l18.7-18.7C28.9,30.3,28.9,28.5,27.8,27.5z"/>
	<path d="M95.9,47.4L76,27.5c-1.1-1.1-2.8-1.1-3.9,0c-1.1,1.1-1.1,2.8,0,3.9L90.8,50L72.2,68.7c-1.1,1.1-1.1,2.8,0,3.9
		c0.5,0.5,1.2,0.8,1.9,0.8s1.4-0.3,1.9-0.8l19.9-19.9c0.7-0.7,1.1-1.7,1.1-2.6C97.1,49,96.7,48.1,95.9,47.4z"/>
</g>
</svg>
