<?xml version="1.0" encoding="utf-8"?>
<!-- Generator: Adobe Illustrator 22.0.1, SVG Export Plug-In . SVG Version: 6.00 Build 0)  -->
<svg version="1.1" id="Layer_1" xmlns="http://www.w3.org/2000/svg" xmlns:xlink="http://www.w3.org/1999/xlink" x="0px" y="0px"
	 viewBox="0 0 100 100" style="enable-background:new 0 0 100 100;" xml:space="preserve">
<path d="M94.7,23.6L76.5,5.4c-1-1-2.7-1.2-3.8-0.2c-1.3,1.1-1.3,2.9-0.2,4.1l3.3,3.3c0,0,0,0,0,0c-1.3,1.1-1.4,2.9-0.2,4.1l2,2
	L44.8,51.3l-9.2-9.1c-0.8-0.8-2-0.8-2.8,0L9.6,65.3c-6.9,6.9-6.9,18.2,0,25.1c3.3,3.3,7.8,5.2,12.5,5.2s9.2-1.8,12.5-5.2l23.1-23.1
	c0.8-0.8,0.8-2,0-2.8l-9.1-9.3l32.9-32.9l2,2c0.5,0.5,1.2,0.8,1.9,0.8c0.8,0,1.6-0.4,2.1-1c0,0,0,0,0,0l3.3,3.3
	c0.5,0.5,1.2,0.8,1.9,0.8s1.4-0.3,1.9-0.8C95.8,26.4,95.8,24.7,94.7,23.6z M51.5,65.8L30.8,86.5c-4.8,4.8-12.5,4.8-17.3,0
	s-4.8-12.5,0-17.3l20.6-20.6l6.7,6.7l-2.5,2.5c-1.1,1.1-1.1,2.8,0,3.9c0.5,0.5,1.2,0.8,1.9,0.8s1.4-0.3,1.9-0.8l2.5-2.5L51.5,65.8z"
	/>
</svg>
