<?xml version="1.0" encoding="utf-8"?>
<!-- Generator: Adobe Illustrator 22.0.1, SVG Export Plug-In . SVG Version: 6.00 Build 0)  -->
<svg version="1.1" id="Layer_1" xmlns="http://www.w3.org/2000/svg" xmlns:xlink="http://www.w3.org/1999/xlink" x="0px" y="0px"
	 viewBox="0 0 100 100" style="enable-background:new 0 0 100 100;" xml:space="preserve">
<path d="M92.8,71L80.9,59.2c-1.1-1.1-2.8-1.1-3.9,0C76,60.2,76,62,77,63.1l7.9,7.9H73.2L55.9,50l17.3-20.9h11.7L77,36.9
	C76,38,76,39.8,77,40.8c0.5,0.5,1.2,0.8,1.9,0.8s1.4-0.3,1.9-0.8L92.8,29c1.5-1.5,1.5-3.8,0-5.3L80.9,11.8c-1.1-1.1-2.8-1.1-3.9,0
	c-1.1,1.1-1.1,2.8,0,3.9l7.9,7.9H70.6L52.4,45.7L34.1,23.6H8.9c-1.5,0-2.8,1.2-2.8,2.8s1.2,2.8,2.8,2.8h22.7L48.8,50L31.5,70.9H8.9
	c-1.5,0-2.8,1.2-2.8,2.8s1.2,2.8,2.8,2.8h25.3l18.2-22.1l18.2,22.1h14.3L77,84.3c-1.1,1.1-1.1,2.8,0,3.9c0.5,0.5,1.2,0.8,1.9,0.8
	s1.4-0.3,1.9-0.8l11.8-11.8C94.2,74.9,94.2,72.5,92.8,71z"/>
</svg>
