<?xml version="1.0" encoding="utf-8"?>
<!-- Generator: Adobe Illustrator 22.0.1, SVG Export Plug-In . SVG Version: 6.00 Build 0)  -->
<svg version="1.1" id="Layer_2_1_" xmlns="http://www.w3.org/2000/svg" xmlns:xlink="http://www.w3.org/1999/xlink" x="0px" y="0px"
	 viewBox="0 0 100 100" style="enable-background:new 0 0 100 100;" xml:space="preserve">
<g>
	<path d="M50,30.2c-5.2,0-9.4,4.2-9.4,9.4c0,4.2,2.8,7.8,6.7,9v43.1c0,1.5,1.2,2.8,2.8,2.8s2.8-1.2,2.8-2.8V48.6
		c3.9-1.2,6.7-4.8,6.7-9C59.4,34.4,55.2,30.2,50,30.2z M50,43.5c-2.2,0-3.9-1.8-3.9-3.9s1.8-3.9,3.9-3.9c2.2,0,3.9,1.8,3.9,3.9
		S52.2,43.5,50,43.5z"/>
	<path d="M35,39.6c0-4,1.6-7.8,4.4-10.6c1.1-1.1,1.1-2.8,0-3.9c-1.1-1.1-2.8-1.1-3.9,0c-3.9,3.9-6,9-6,14.5c0,5.5,2.1,10.6,6,14.5
		c0.5,0.5,1.2,0.8,1.9,0.8s1.4-0.3,1.9-0.8c1.1-1.1,1.1-2.8,0-3.9C36.6,47.4,35,43.6,35,39.6z"/>
	<path d="M64.5,25.1c-1.1-1.1-2.8-1.1-3.9,0c-1.1,1.1-1.1,2.8,0,3.9c2.8,2.8,4.4,6.6,4.4,10.6s-1.6,7.8-4.4,10.6
		c-1.1,1.1-1.1,2.8,0,3.9c0.5,0.5,1.2,0.8,1.9,0.8s1.4-0.3,1.9-0.8c3.9-3.9,6-9,6-14.5C70.5,34.1,68.3,29,64.5,25.1z"/>
	<path d="M21.7,39.6c0-7.6,2.9-14.6,8.3-20c1.1-1.1,1.1-2.8,0-3.9c-1.1-1.1-2.8-1.1-3.9,0c-6.4,6.4-9.9,14.9-9.9,23.9
		s3.5,17.5,9.9,23.9c0.5,0.5,1.2,0.8,1.9,0.8s1.4-0.3,1.9-0.8c1.1-1.1,1.1-2.8,0-3.9C24.7,54.2,21.7,47.1,21.7,39.6z"/>
	<path d="M73.9,15.7c-1.1-1.1-2.8-1.1-3.9,0c-1.1,1.1-1.1,2.8,0,3.9c11,11,11,29,0,40c-1.1,1.1-1.1,2.8,0,3.9
		c0.5,0.5,1.2,0.8,1.9,0.8s1.4-0.3,1.9-0.8C87,50.3,87,28.9,73.9,15.7z"/>
	<path d="M8.4,39.6c0-11.1,4.3-21.5,12.2-29.4c1.1-1.1,1.1-2.8,0-3.9c-1.1-1.1-2.8-1.1-3.9,0C7.8,15.2,2.9,27,2.9,39.6
		S7.8,64,16.7,72.9c0.5,0.5,1.2,0.8,1.9,0.8s1.4-0.3,1.9-0.8c1.1-1.1,1.1-2.8,0-3.9C12.8,61.1,8.4,50.7,8.4,39.6z"/>
	<path d="M83.3,6.3c-1.1-1.1-2.8-1.1-3.9,0c-1.1,1.1-1.1,2.8,0,3.9c7.8,7.8,12.2,18.3,12.2,29.4c0,11.1-4.3,21.5-12.2,29.4
		c-1.1,1.1-1.1,2.8,0,3.9c0.5,0.5,1.2,0.8,1.9,0.8s1.4-0.3,1.9-0.8c8.9-8.9,13.8-20.7,13.8-33.3S92.2,15.2,83.3,6.3z"/>
</g>
</svg>
