<?xml version="1.0" encoding="utf-8"?>
<!-- Generator: Adobe Illustrator 22.0.1, SVG Export Plug-In . SVG Version: 6.00 Build 0)  -->
<svg version="1.1" id="Layer_1" xmlns="http://www.w3.org/2000/svg" xmlns:xlink="http://www.w3.org/1999/xlink" x="0px" y="0px"
	 viewBox="0 0 100 100" style="enable-background:new 0 0 100 100;" xml:space="preserve">
<path d="M98.4,57.1c-0.8-2.3-2.4-4.1-4.5-5.2c-2.1-1.1-4.6-1.2-6.8-0.5l-12.9,4.4l0,0c-1.2,0.4-2.2,1.3-2.7,2.4
	c-0.6,1.1-0.6,2.4-0.2,3.6l0.5,1.4L38.9,74.3c-2.1,0.7-4.3,0.6-6.3-0.4c-2-1-3.4-2.7-4.1-4.7c-0.7-2.1-0.6-4.3,0.4-6.3
	c1-2,2.7-3.4,4.7-4.1l36.2-12.2l0,0c7.2-2.4,11-10.2,8.6-17.4c-2.4-7.2-10.2-11-17.4-8.6L26.4,32.2l-0.2-0.7c-0.8-2.5-3.5-3.8-6-3
	L7.2,32.8c-2.3,0.8-4.1,2.4-5.2,4.5c-1.1,2.1-1.2,4.6-0.5,6.8s2.4,4.1,4.5,5.2c1.3,0.6,2.6,0.9,4,0.9c1,0,1.9-0.2,2.9-0.5l12.9-4.4
	c2.5-0.8,3.8-3.5,3-6l-0.7-2l34.5-11.7c4.3-1.5,9,0.9,10.4,5.2c0.7,2.1,0.6,4.3-0.4,6.3s-2.7,3.4-4.7,4.1L31.8,53.5
	c-3.5,1.2-6.3,3.6-7.9,6.9c-1.6,3.3-1.9,7-0.7,10.5c1.2,3.5,3.6,6.3,6.9,7.9c1.9,0.9,4,1.4,6.1,1.4c1.5,0,3-0.2,4.4-0.7l32.7-11.1
	l0.5,1.4c0.7,2,2.5,3.2,4.5,3.2c0.5,0,1-0.1,1.5-0.3l12.9-4.4C97.5,66.8,100,61.7,98.4,57.1z M11.2,44.6c-0.9,0.3-1.8,0.2-2.6-0.2
	c-0.8-0.4-1.4-1.1-1.7-2c-0.3-0.9-0.2-1.8,0.2-2.6C7.4,39,8.1,38.3,9,38l12.2-4.1l2.2,6.6L11.2,44.6z M91,63.2l-12.2,4.1l-2.2-6.6
	l12.2-4.1c0.9-0.3,1.8-0.2,2.6,0.2s1.4,1.1,1.7,2C93.8,60.6,92.8,62.6,91,63.2z"/>
</svg>
