<?xml version="1.0" encoding="utf-8"?>
<!-- Generator: Adobe Illustrator 21.0.2, SVG Export Plug-In . SVG Version: 6.00 Build 0)  -->
<svg version="1.1" id="Layer_1" xmlns="http://www.w3.org/2000/svg" xmlns:xlink="http://www.w3.org/1999/xlink" x="0px" y="0px"
	 viewBox="0 0 100 100" style="enable-background:new 0 0 100 100;" xml:space="preserve">
<path d="M8.2,50.3c0.2-2,0.3-3.8,0.5-5.6c0.1-0.8,0-1.4-0.4-2.2c-3.2-5.8-4-11.9-2.4-18.3C7.6,17,11.7,11.6,18.2,8.1
	c8.1-4.3,16.3-4.2,24.5,0.2c0.6,0.3,1.2,0.4,1.9,0.3C55,7.3,64.7,9.5,73.4,15.4c9.1,6.2,14.9,14.8,17.4,25.6
	c1.1,4.8,1.2,9.6,0.6,14.4c-0.1,0.6-0.1,1.2,0.3,1.8c3.3,5.8,4.2,12,2.6,18.4c-1.8,7.2-5.9,12.7-12.5,16.2
	c-8.1,4.3-16.4,4.2-24.5-0.3c-0.6-0.3-1.1-0.4-1.8-0.3c-6.5,0.9-12.9,0.3-19.2-1.9c-8.3-2.9-15-7.9-20.1-15C12.2,69,9.8,63,8.8,56.4
	C8.4,54.4,8.4,52.3,8.2,50.3z M50.2,77.2c2.4-0.3,4.8-0.5,7.2-0.9c3.4-0.6,6.5-1.9,9.2-4c4.5-3.6,6.3-8.3,5.7-14
	c-0.4-3.9-2.2-7-5.5-9.1c-1.7-1.1-3.6-2.1-5.5-2.7c-4.4-1.4-8.8-2.4-13.2-3.6c-2.2-0.6-4.4-1.2-6.4-2.5c-2.2-1.4-2.9-3.8-1.7-5.9
	c0.8-1.4,2.2-2.3,3.7-2.9c2.4-1,4.9-1,7.5-0.8c3.1,0.2,5.5,1.7,7.1,4.3c0.7,1.1,1.3,2.2,2.1,3.2c0.6,0.8,1.3,1.7,2.2,2.1
	c2.7,1.3,6.1-0.2,7-3c0.8-2.2,0.1-4.2-1-6.1c-1.9-3.3-4.9-5.3-8.3-6.6c-3.2-1.3-6.6-1.7-10.1-1.7c-4.7,0-9.3,0.5-13.6,2.6
	c-4.6,2.3-7.6,5.8-8.1,11.1c-0.4,4.9,1.5,8.8,5.5,11.6c2.5,1.8,5.4,2.8,8.3,3.6c3.1,0.9,6.2,1.5,9.4,2.3c2.1,0.5,4.2,1.1,6.1,2.3
	c3.6,2.3,3.8,6.9,0.6,9.6c-1.7,1.4-3.7,2.2-5.9,2.6c-2.6,0.4-5.2,0.4-7.7-0.3c-2.8-0.8-4.7-2.8-6-5.4c-0.7-1.5-1.4-3-2.4-4.3
	c-1.2-1.8-3.1-2.2-5.2-1.8c-2,0.4-3.4,1.6-3.9,3.7c-0.3,1.6,0,3.2,0.6,4.6c1.7,4.2,4.6,7.2,8.6,9.2C41,76.6,45.6,77.1,50.2,77.2z"/>
</svg>
