<?xml version="1.0" encoding="utf-8"?>
<!-- Generator: Adobe Illustrator 21.0.2, SVG Export Plug-In . SVG Version: 6.00 Build 0)  -->
<svg version="1.1" id="Layer_1" xmlns="http://www.w3.org/2000/svg" xmlns:xlink="http://www.w3.org/1999/xlink" x="0px" y="0px"
	 viewBox="0 0 100 100" style="enable-background:new 0 0 100 100;" xml:space="preserve">
<g>
	<rect x="43.7" y="43.9" transform="matrix(0.9482 -0.3176 0.3176 0.9482 -13.2913 18.4688)" width="12.7" height="12.2"/>
	<g>
		<rect x="43.7" y="43.9" transform="matrix(0.9482 -0.3176 0.3176 0.9482 -13.2913 18.4689)" width="12.7" height="12.2"/>
		<path d="M91.2,37.6C82,6.7,68.6-0.5,37.6,8.8C6.7,18-0.5,31.4,8.8,62.4c9.3,30.9,22.7,38.1,53.6,28.9
			C93.3,82,100.5,68.6,91.2,37.6z M75.6,57.7l-5.8,2l2,6c0.8,2.4-0.5,5.1-2.9,5.9c-0.5,0.2-1.1,0.3-1.6,0.2c-1.9,0-3.7-1.3-4.3-3.2
			l-2-6l-12,4l2,6c0.8,2.4-0.5,5.1-2.9,5.9c-0.5,0.2-1.1,0.3-1.6,0.2c-1.9,0-3.7-1.3-4.3-3.2l-2-6l-5.8,2c-0.5,0.2-1.1,0.3-1.6,0.2
			c-1.9,0-3.7-1.3-4.3-3.2c-0.8-2.4,0.5-5.1,2.9-5.9l5.8-2l-3.9-11.6l-5.8,2c-0.5,0.2-1.1,0.3-1.6,0.2c-1.9,0-3.7-1.3-4.3-3.2
			c-0.8-2.4,0.5-5.1,2.9-5.9l5.8-2l-2-6c-0.8-2.4,0.5-5.1,2.9-5.9c2.4-0.8,5.1,0.5,5.9,2.9l2,6l12-4l-2-6c-0.8-2.4,0.5-5.1,2.9-5.9
			c2.4-0.8,5.1,0.5,5.9,2.9l2,6l5.8-2c2.4-0.8,5.1,0.5,5.9,2.9c0.8,2.4-0.5,5.1-2.9,5.9l-5.8,2l3.9,11.6l5.8-2
			c2.4-0.8,5.1,0.5,5.9,2.9C79.4,54.2,78,56.9,75.6,57.7z"/>
	</g>
</g>
</svg>
