<?xml version="1.0" encoding="utf-8"?>
<!-- Generator: Adobe Illustrator 22.0.1, SVG Export Plug-In . SVG Version: 6.00 Build 0)  -->
<svg version="1.1" id="Layer_2_1_" xmlns="http://www.w3.org/2000/svg" xmlns:xlink="http://www.w3.org/1999/xlink" x="0px" y="0px"
	 viewBox="0 0 100 100" style="enable-background:new 0 0 100 100;" xml:space="preserve">
<path d="M95.8,82.5L79.4,66.1l-54-54c-1.4-1.4-3.9-1.4-5.3,0L4.2,28c-0.7,0.7-1.1,1.6-1.1,2.7c0,1,0.4,1.9,1.1,2.7l51.3,51.3
	c0.7,0.7,1.7,1.1,2.7,1.1s1.9-0.4,2.7-1.1l2.2-2.2l5.3,5.3c0.7,0.7,1.7,1.1,2.7,1.1l22.1,0.2h0c0,0,0,0,0,0c1.5,0,2.9-0.9,3.5-2.3
	C97.2,85.2,96.9,83.6,95.8,82.5z M22.8,17.2l8.1,8.1L24.1,32c0,0,0,0,0,0s0,0,0,0l-6.7,6.7l-8.1-8.1L22.8,17.2z M58.2,79.5
	L21.3,42.6l4.8-4.8L37.2,49c0.5,0.5,1.2,0.8,1.9,0.8s1.4-0.3,1.9-0.8c1.1-1.1,1.1-2.8,0-3.9L30,34l4.8-4.8l36.9,36.9L59.2,78.5
	L58.2,79.5z M71.8,83.3L67,78.5l8.5-8.5l13.4,13.4L71.8,83.3z"/>
</svg>
