<?xml version="1.0" encoding="utf-8"?>
<!-- Generator: Adobe Illustrator 21.0.2, SVG Export Plug-In . SVG Version: 6.00 Build 0)  -->
<svg version="1.1" id="Layer_1" xmlns="http://www.w3.org/2000/svg" xmlns:xlink="http://www.w3.org/1999/xlink" x="0px" y="0px"
	 viewBox="0 0 100 100" style="enable-background:new 0 0 100 100;" xml:space="preserve">
<g>
	<path d="M94.4,47.6c-0.6-0.5-1.4-0.5-2.1-0.2c-0.6,0.3-1.2,0.6-1.9,1c0-0.4,0-0.7,0-1c0-11.3,0-22.6,0-33.9c0-2.3-0.5-4.4-2-6.3
		c-1.2-1.6-2.9-2.5-4.8-3c-0.1,0-0.3-0.1-0.4-0.1c-22.2,0-44.4,0-66.6,0c-1,0.4-2.2,0.8-3.1,1.4c-2.3,1.4-3.5,3.6-3.9,6.2
		c-0.1,0.9-0.1,1.8-0.1,2.6c0,11.1,0,22.1,0,33.2c0,0.3,0,0.5,0,1C9.2,48.3,9,48.2,8.7,48c-0.5-0.3-1-0.6-1.5-0.7
		C6,46.9,4.9,47.7,5,49.1c0.1,0.8,0.4,1.7,0.9,2.2c2.2,2.6,4.8,4.8,7.7,6.7c3.3,2.2,6.8,4,10.4,5.6c0.2,0.1,0.3,0.2,0.5,0.3
		c-0.3,1.3-0.6,2.5-0.9,3.8c-0.7,3.3-1.1,6.6-0.8,10c0.3,4.2,1.4,8.2,4,11.6c2.6,3.5,6,5.7,10.3,6.5c0.2,0,0.4,0.1,0.6,0.2
		c0.9,0,1.9,0,2.8,0c0.8-0.2,1.6-0.4,2.4-0.7c3.5-1.2,5.8-4.3,5.8-8c0.1-5.8,0.1-11.6,0.1-17.4c0-0.3,0-0.6,0-1
		c0.8,0.2,1.5,0.4,2.2,0.6c0.2,0.1,0.2,0.5,0.2,0.7c0,4.9,0,9.9,0.1,14.8c0,1.6,0,3.2,0.5,4.7c1,3.6,3.7,5.4,7.2,6.1
		c0.2,0,0.4,0.1,0.6,0.2c0.9,0,1.9,0,2.8,0c1.6-0.5,3.3-0.9,4.8-1.6c3.7-1.7,6.3-4.7,8-8.4c2.1-4.6,2.5-9.5,1.8-14.5
		c-0.3-2.3-0.9-4.6-1.3-6.9c0-0.2-0.1-0.4-0.1-0.7c1.3-0.6,2.5-1.1,3.7-1.7c4.5-2.2,8.7-4.7,12.3-8.1c1.2-1.1,2.2-2.4,3.2-3.6
		c0.2-0.2,0.3-0.6,0.3-0.9C95.1,48.8,95,48.1,94.4,47.6z M85.4,51.6c-3.4,1.7-6.9,3.1-10.5,3.9c-5.2,1.2-10.4,1.4-15.7,1.1
		c-1.3-0.1-2.7-0.1-4,0.1c-2.1,0.2-3.5,1.5-3.8,3.8c0,0.1-0.1,0.2-0.1,0.5c-1.3-1.1-2.6-2.1-3.7-3.2c-1-0.9-2.2-1.2-3.5-1.2
		c-3,0-6,0.2-8.9,0.1c-7-0.1-13.7-1.7-20-4.9c-0.3-0.2-0.5-0.4-0.5-0.8c0-11.8,0-23.6,0.1-35.3c0-1.2,0.3-2.3,0.6-3.4
		c0.5-1.8,1.9-2.7,3.6-3.1c1.1-0.2,2.3-0.3,3.4-0.3c18.7,0,37.3,0,56,0c1.5,0,3,0,4.4,0.6c1.9,0.8,2.8,2.3,3.1,4.2
		c0.2,1.2,0.3,2.4,0.3,3.6c0,11.1,0,22.1,0,33.2C86.1,51.1,85.9,51.3,85.4,51.6z"/>
	<path d="M28.7,36.2c-2.3,3-2.7,6.5-1,9.9c2,4.2,5.6,6.1,9.9,6.3c2.8-0.1,5-0.8,7.1-2.2c5.1-3.6,5.6-11.1,1.1-15.3
		C40.7,30.1,32.7,30.7,28.7,36.2z"/>
	<path d="M70.4,33.9c-5.1-3.7-12.4-2.7-16,2.2c-2.3,3.2-2.7,6.6-1,10.2c2,4.1,5.6,5.9,9.8,6.1c3.1-0.1,5.7-1,8-3
		C75.9,45.2,75.5,37.6,70.4,33.9z"/>
</g>
</svg>
