<?xml version="1.0" encoding="utf-8"?>
<!-- Generator: Adobe Illustrator 22.0.1, SVG Export Plug-In . SVG Version: 6.00 Build 0)  -->
<svg version="1.1" id="Layer_1" xmlns="http://www.w3.org/2000/svg" xmlns:xlink="http://www.w3.org/1999/xlink" x="0px" y="0px"
	 viewBox="0 0 100 100" style="enable-background:new 0 0 100 100;" xml:space="preserve">
<g>
	<path d="M21.9,35.2l-4.4-5.4c-1-1.2-2.7-1.3-3.9-0.4c-1.2,1-1.3,2.7-0.4,3.9l1.8,2.1H3.8c-1.5,0-2.8,1.2-2.8,2.8s1.2,2.8,2.8,2.8
		h10.8l-2.2,2.6c-1,1.2-0.8,2.9,0.3,3.9c0.5,0.4,1.1,0.6,1.8,0.6c0.8,0,1.6-0.3,2.1-1l5.2-6.2C23.3,39.3,23.3,36.8,21.9,35.2z"/>
	<path d="M96.2,35.9H85.4l2.2-2.6c1-1.2,0.8-2.9-0.3-3.9c-1.2-1-2.9-0.8-3.9,0.3l-5.2,6.2c-1.5,1.6-1.5,4.1,0,5.6l4.4,5.4
		c0.5,0.7,1.3,1,2.1,1c0.6,0,1.2-0.2,1.7-0.6c1.2-1,1.3-2.7,0.4-3.9l-1.8-2.1h11.1c1.5,0,2.8-1.2,2.8-2.8S97.7,35.9,96.2,35.9z"/>
	<g>
		<path d="M75.1,53.2l-0.4-1.1c-0.8-2.1-1.7-4.4-2.3-6.7c-0.2-0.9-0.4-1.7-0.5-2.5c-0.8-4.7-0.7-9.9,0.3-16.4
			c0.8-4.9,1.8-10.4,4.9-13.2c1.1-1,1.2-2.8,0.2-3.9s-2.8-1.2-3.9-0.2c-4.4,4-5.8,10.6-6.7,16.4c-1.1,7.1-1.2,12.9-0.3,18.2
			c0.2,0.9,0.4,1.9,0.6,2.9c0.4,1.5,0.8,2.9,1.3,4.2c-5.3,0.8-11.6,1.3-18.4,1.3c-6.7,0-13.1-0.4-18.3-1.2c0.5-1.4,0.9-2.8,1.3-4.2
			c0.2-1,0.4-1.9,0.6-2.9c0.9-5.3,0.8-11.1-0.3-18.2c-0.9-5.8-2.2-12.4-6.7-16.4c-1.1-1-2.9-0.9-3.9,0.2c-1,1.1-0.9,2.9,0.2,3.9
			c3.1,2.8,4.2,8.3,4.9,13.2c1,6.5,1.1,11.7,0.3,16.4c-0.1,0.8-0.3,1.6-0.5,2.4c-0.5,2.1-1.3,4.2-2.3,6.7l-0.4,1.2
			c-1.8,4.5-3.6,9.2-3.7,14.3c0,0.4,0,0.7,0,1.1c0.1,6.6,2.2,12.6,4.6,18.2c0.3,0.8,0.6,1.5,1,2.2c0.4,1,1.5,1.7,2.5,1.7
			c0.4,0,0.7-0.1,1.1-0.2c1.4-0.6,2-2.2,1.4-3.6c-0.3-0.7-0.6-1.5-0.9-2.2c-1.8-4.3-3.5-8.9-4-13.7c2.8-0.2,6,0,9.1,0.7
			c4.5,1,8.7,2.8,11.4,5v8.8v0v3.2c0,1.5,1.2,2.8,2.8,2.8s2.8-1.2,2.8-2.8v-12c2.7-2.2,6.9-4.1,11.4-5c3.1-0.7,6.1-0.9,8.8-0.7
			c-0.5,4.8-2.2,9.5-4,13.8c-0.3,0.7-0.6,1.4-0.9,2.1c-0.6,1.4,0,3,1.4,3.6c0.4,0.2,0.7,0.2,1.1,0.2c1.1,0,2.1-0.6,2.5-1.7
			c0.3-0.7,0.6-1.4,0.9-2.1c2.4-5.6,4.5-11.8,4.6-18.3c0-0.4,0-0.7,0-1C78.7,62.4,76.9,57.8,75.1,53.2z M63.1,66.3
			c-5,1.1-9.6,3.1-13,5.6c-3.4-2.5-8-4.5-13-5.6c-3.5-0.8-7-1-10.2-0.8c0.4-3.1,1.5-6.1,2.7-9.3c5.7,1,12.9,1.5,20.3,1.5
			c7.5,0,14.6-0.5,20.4-1.5c1.2,3.1,2.3,6.2,2.7,9.2C70,65.3,66.5,65.6,63.1,66.3z"/>
		<path d="M50.1,49c1.2,0,2.1-1,2.1-2.1c0-1.2-1-2.1-2.1-2.1c-1.2,0-2.1,1-2.1,2.1C48,48,49,49,50.1,49z"/>
	</g>
</g>
</svg>
