<?xml version="1.0" encoding="utf-8"?>
<!-- Generator: Adobe Illustrator 22.0.1, SVG Export Plug-In . SVG Version: 6.00 Build 0)  -->
<svg version="1.1" id="Layer_1" xmlns="http://www.w3.org/2000/svg" xmlns:xlink="http://www.w3.org/1999/xlink" x="0px" y="0px"
	 viewBox="0 0 100 100" style="enable-background:new 0 0 100 100;" xml:space="preserve">
<g>
	<path d="M50,1.3C23.1,1.3,1.3,23.1,1.3,50S23.1,98.8,50,98.8S98.8,76.9,98.8,50S76.9,1.3,50,1.3z M50,93.3
		C26.2,93.3,6.8,73.8,6.8,50C6.8,26.2,26.2,6.8,50,6.8c23.8,0,43.3,19.4,43.3,43.3C93.3,73.8,73.8,93.3,50,93.3z"/>
	<circle cx="34.8" cy="34.5" r="5.3"/>
	<circle cx="65.2" cy="34.5" r="5.3"/>
	<path d="M67.7,60.7c-4.8,4.5-11.1,7-17.7,7c-6.6,0-12.9-2.5-17.7-7c-1.1-1-2.8-1-3.9,0.1c-1,1.1-1,2.8,0.1,3.9
		c5.8,5.5,13.4,8.5,21.5,8.5c8,0,15.6-3,21.5-8.5c1.1-1,1.2-2.8,0.1-3.9S68.8,59.7,67.7,60.7z"/>
</g>
</svg>
