<?xml version="1.0" encoding="utf-8"?>
<!-- Generator: Adobe Illustrator 21.0.2, SVG Export Plug-In . SVG Version: 6.00 Build 0)  -->
<svg version="1.1" id="Layer_1" xmlns="http://www.w3.org/2000/svg" xmlns:xlink="http://www.w3.org/1999/xlink" x="0px" y="0px"
	 viewBox="0 0 100 100" style="enable-background:new 0 0 100 100;" xml:space="preserve">
<path d="M50.9,7.3c3.6,0,15.9,1,21.7,14c1.9,4.3,1.4,12.1,1,18.3c-0.1,1-0.1,1.9-0.2,2.9l0,0.4l0.3,0.3c0.1,0.1,1.1,1.2,3.3,1.2l0,0
	l0,0c1.5-0.1,3.1-0.5,4.9-1.3c0.3-0.1,0.6-0.2,1-0.2c0.4,0,0.9,0.1,1.2,0.2l0.1,0c0.9,0.3,1.6,0.9,1.6,1.5c0,0.3-0.2,1.5-3.6,2.8
	c-0.3,0.1-0.8,0.3-1.2,0.4c-2.2,0.7-5.4,1.7-6.5,4.3c-0.6,1.5-0.5,3.2,0.5,5.1c0.4,0.9,6.6,14.8,20.5,17.1c0,0.1,0,0.1-0.1,0.2
	c-0.2,0.6-1.7,2.5-11,3.9c-1.5,0.2-1.8,1.9-2.2,3.8c-0.1,0.7-0.3,1.4-0.5,2.1c-0.1,0.2-0.1,0.2-0.3,0.2c0,0-0.1,0-0.1,0l0,0
	c-0.4,0-1-0.1-1.8-0.2c-1.3-0.3-3.1-0.6-5.4-0.6c-1.3,0-2.6,0.1-4,0.3c-2.8,0.5-5.2,2.1-7.6,3.8c-3.3,2.3-6.7,4.7-11.9,4.7
	c-0.2,0-0.4,0-0.7,0l-0.1,0l-0.1,0c-0.1,0-0.3,0-0.4,0c-5.2,0-8.6-2.4-11.9-4.7c-2.5-1.7-4.8-3.4-7.6-3.8c-1.3-0.2-2.7-0.3-4-0.3
	c-2.3,0-4.1,0.4-5.4,0.6c-0.7,0.1-1.4,0.3-1.8,0.3c-0.3,0-0.3,0-0.4-0.3c-0.2-0.7-0.4-1.4-0.5-2.1c-0.4-1.9-0.8-3.5-2.2-3.8
	c-9.3-1.4-10.8-3.4-11-3.9c0-0.1-0.1-0.2-0.1-0.2c13.9-2.3,20.1-16.2,20.5-17.1c1-1.9,1.1-3.7,0.5-5.1c-1.1-2.6-4.4-3.6-6.5-4.3
	c-0.5-0.2-0.9-0.3-1.2-0.4c-2.8-1.1-3.7-2.2-3.5-2.9c0.1-0.8,1.5-1.6,2.7-1.6c0.3,0,0.5,0,0.7,0.1c1.9,0.9,3.7,1.4,5.2,1.4
	c2.4,0,3.5-1.1,3.6-1.3l0.3-0.3l0-0.4c0-0.9-0.1-1.9-0.2-2.9c-0.4-6.2-0.9-14,1-18.3c5.8-13,18-14,21.7-14c0.1,0,1.7,0,1.7,0
	C50.8,7.3,50.8,7.3,50.9,7.3 M50.9,5.4L50.9,5.4c-0.1,0-0.2,0-0.2,0l0,0c0,0-1.5,0-1.6,0c-3.9,0-17.2,1.1-23.5,15.1
	c-2.1,4.7-1.6,12.8-1.2,19.2c0,0.8,0.1,1.6,0.1,2.3c-0.3,0.2-0.9,0.4-1.8,0.4c-1.2,0-2.7-0.4-4.4-1.2c-0.4-0.2-0.9-0.3-1.5-0.3
	c-1.9,0-4.3,1.3-4.6,3.2c-0.3,1.4,0.4,3.4,4.8,5.1c0.4,0.2,0.9,0.3,1.4,0.5c1.8,0.6,4.6,1.4,5.3,3.2c0.4,0.9,0.2,2.1-0.5,3.5
	c0,0,0,0.1,0,0.1c-0.2,0.6-6.1,13.8-19,15.9c-1,0.2-1.7,1-1.6,2.1c0,0.3,0.1,0.6,0.2,0.9c1,2.3,5.1,3.9,12.5,5.1
	c0.2,0.3,0.5,1.5,0.7,2.2c0.2,0.7,0.3,1.5,0.5,2.2c0.2,0.8,0.8,1.7,2.3,1.7c0.6,0,1.3-0.1,2.1-0.3c1.2-0.2,2.9-0.6,5.1-0.6
	c1.2,0,2.4,0.1,3.6,0.3c2.4,0.4,4.4,1.8,6.8,3.5c3.4,2.4,7.2,5.1,13,5.1c0.2,0,0.3,0,0.5,0c0.2,0,0.4,0,0.7,0c5.8,0,9.7-2.7,13-5.1
	c2.4-1.7,4.4-3.1,6.8-3.5c1.2-0.2,2.5-0.3,3.6-0.3c2,0,3.6,0.3,5.1,0.5c0.9,0.2,1.6,0.3,2.1,0.3l0.1,0h0.1c1.1,0,1.9-0.6,2.2-1.6
	c0.2-0.8,0.4-1.5,0.5-2.2c0.2-0.7,0.4-1.9,0.7-2.2c7.4-1.2,11.5-2.8,12.5-5.1c0.1-0.3,0.2-0.6,0.2-0.9c0.1-1-0.7-1.9-1.6-2.1
	c-12.9-2.1-18.7-15.4-19-15.9c0,0,0-0.1,0-0.1c-0.7-1.4-0.8-2.6-0.5-3.5c0.7-1.8,3.5-2.6,5.3-3.2c0.5-0.2,1-0.3,1.4-0.5
	c3.2-1.3,4.8-2.8,4.8-4.6c0-1.4-1.1-2.7-2.9-3.3l0,0c-0.6-0.2-1.3-0.4-2-0.4c-0.5,0-1.2,0.1-1.8,0.4c-1.5,0.7-2.9,1.1-4.1,1.2
	c-0.8,0-1.3-0.2-1.6-0.4c0-0.7,0.1-1.3,0.1-2l0-0.3c0.4-6.5,0.9-14.5-1.2-19.2C68.2,6.4,54.8,5.4,50.9,5.4L50.9,5.4z"/>
</svg>
