<?xml version="1.0" encoding="utf-8"?>
<!-- Generator: Adobe Illustrator 22.0.1, SVG Export Plug-In . SVG Version: 6.00 Build 0)  -->
<svg version="1.1" id="Layer_1" xmlns="http://www.w3.org/2000/svg" xmlns:xlink="http://www.w3.org/1999/xlink" x="0px" y="0px"
	 viewBox="0 0 100 100" style="enable-background:new 0 0 100 100;" xml:space="preserve">
<g>
	<path d="M92.3,28.1L83.4,6.8c-0.3-0.5-0.6-0.8-1.1-0.8h-4.8c-0.5,0-1,0.3-1.1,0.8l-9.2,21.3c-0.4,0.9,0.3,1.8,1.1,1.8h3.7
		c0.5,0,1-0.4,1.1-0.8l1.4-3.4h10.3l1.3,3.4c0.1,0.5,0.6,0.8,1.1,0.8H91C92.1,29.7,92.7,28.8,92.3,28.1z M76.4,20.8l3.3-8.6l3.3,8.6
		H76.4z"/>
	<path d="M89,89H77.5l12.3-14.4c0.3-0.3,0.3-0.5,0.3-0.8v-2.4c0-0.8-0.5-1.3-1.3-1.3H70.9c-0.8,0-1.3,0.5-1.3,1.3V74
		c0,0.8,0.5,1.3,1.3,1.3h10.8L69.4,89.8c-0.3,0.3-0.3,0.5-0.3,0.8v2.3c0,0.8,0.5,1.3,1.3,1.3H89c0.8,0,1.3-0.5,1.3-1.3v-2.5
		C90.3,89.7,89.8,89,89,89z"/>
	<path d="M35.1,75l-8.7,8.7V8.6c0-1.5-1.2-2.8-2.8-2.8s-2.8,1.2-2.8,2.8v75.1L12.3,75c-1.1-1.1-2.8-1.1-3.9,0
		c-1.1,1.1-1.1,2.8,0,3.9l13.3,13.3c0,0,0,0,0,0l1.9,1.9l1.9-1.9c0,0,0,0,0,0L39,78.9c1.1-1.1,1.1-2.8,0-3.9
		C37.9,73.9,36.2,73.9,35.1,75z"/>
</g>
</svg>
