<?xml version="1.0" encoding="utf-8"?>
<!-- Generator: Adobe Illustrator 22.0.1, SVG Export Plug-In . SVG Version: 6.00 Build 0)  -->
<svg version="1.1" id="Layer_2_1_" xmlns="http://www.w3.org/2000/svg" xmlns:xlink="http://www.w3.org/1999/xlink" x="0px" y="0px"
	 viewBox="0 0 100 100" style="enable-background:new 0 0 100 100;" xml:space="preserve">
<g>
	<path d="M33.3,68.2L22.9,78.7V13.6c0-1.5-1.2-2.8-2.8-2.8s-2.8,1.2-2.8,2.8v65.1L6.9,68.2c-1.1-1.1-2.8-1.1-3.9,0
		C2,69.3,2,71,3.1,72.1l17.1,17.1l17.1-17.1c1.1-1.1,1.1-2.8,0-3.9C36.1,67.2,34.4,67.2,33.3,68.2z"/>
	<path d="M47,20.9h16.8c1.5,0,2.8-1.2,2.8-2.8s-1.2-2.8-2.8-2.8H47c-1.5,0-2.8,1.2-2.8,2.8S45.4,20.9,47,20.9z"/>
	<path d="M47,41.8h27.2c1.5,0,2.8-1.2,2.8-2.8s-1.2-2.8-2.8-2.8H47c-1.5,0-2.8,1.2-2.8,2.8S45.4,41.8,47,41.8z"/>
	<path d="M47,62.6h37.6c1.5,0,2.8-1.2,2.8-2.8s-1.2-2.8-2.8-2.8H47c-1.5,0-2.8,1.2-2.8,2.8S45.4,62.6,47,62.6z"/>
	<path d="M95,77.9H47c-1.5,0-2.8,1.2-2.8,2.8s1.2,2.8,2.8,2.8h48c1.5,0,2.8-1.2,2.8-2.8S96.5,77.9,95,77.9z"/>
</g>
</svg>
