<?xml version="1.0" encoding="utf-8"?>
<!-- Generator: Adobe Illustrator 21.0.2, SVG Export Plug-In . SVG Version: 6.00 Build 0)  -->
<svg version="1.1" id="Layer_1" xmlns="http://www.w3.org/2000/svg" xmlns:xlink="http://www.w3.org/1999/xlink" x="0px" y="0px"
	 viewBox="0 0 100 100" style="enable-background:new 0 0 100 100;" xml:space="preserve">
<style type="text/css">
	.st0{fill:url(#SVGID_1_);}
</style>
<linearGradient id="SVGID_1_" gradientUnits="userSpaceOnUse" x1="420.9451" y1="239.9976" x2="420.9451" y2="355.2832">
	<stop  offset="0" style="stop-color:#F79810"/>
	<stop  offset="1" style="stop-color:#F8310E"/>
</linearGradient>
<path class="st0" d="M322.1,292.5c-0.4,0-0.8,0.3-0.8,0.8l-1.5,11.2l1.5,11c0.1,0.5,0.4,0.8,0.8,0.8c0.4,0,0.7-0.3,0.8-0.8l0,0v0
	c0,0,0,0,0,0l1.8-11l-1.8-11.2C322.9,292.9,322.5,292.5,322.1,292.5z M330.4,286.4c-0.1-0.5-0.4-0.8-0.8-0.8c-0.4,0-0.8,0.3-0.8,0.8
	c0,0-2,18.2-2,18.2l2,17.8c0.1,0.5,0.4,0.8,0.8,0.8c0.4,0,0.8-0.3,0.8-0.8l2.3-17.8L330.4,286.4z M361.8,269.6
	c-0.8,0-1.5,0.7-1.5,1.5l-1.6,33.4l1.6,21.6c0,0.8,0.7,1.5,1.5,1.5c0.8,0,1.5-0.7,1.5-1.5v0l1.8-21.6l-1.8-33.4
	C363.2,270.3,362.6,269.6,361.8,269.6z M345.5,281.2c-0.6,0-1.1,0.5-1.2,1.2l-1.8,22.1l1.8,21.4c0,0.7,0.6,1.2,1.2,1.2
	c0.6,0,1.1-0.5,1.2-1.2l2-21.4l-2-22.1C346.7,281.8,346.2,281.2,345.5,281.2z M378.2,327.7c1,0,1.8-0.8,1.9-1.9l1.6-21.2l-1.6-44.5
	c0-1-0.9-1.9-1.9-1.9c-1,0-1.8,0.8-1.9,1.9c0,0-1.4,44.5-1.4,44.5l1.4,21.2C376.4,326.9,377.2,327.7,378.2,327.7z M412,327.8
	c1.4,0,2.5-1.1,2.6-2.6v0v0l1.1-20.6l-1.1-51.4c0-1.4-1.2-2.6-2.6-2.6c-1.4,0-2.5,1.1-2.6,2.6l-1,51.4c0,0,1,20.7,1,20.7
	C409.4,326.6,410.6,327.8,412,327.8z M395,327.7c1.2,0,2.2-1,2.2-2.2v0l1.3-20.9l-1.3-44.8c0-1.2-1-2.2-2.2-2.2
	c-1.2,0-2.2,1-2.2,2.2l-1.2,44.8l1.2,20.9C392.8,326.7,393.8,327.7,395,327.7z M353.6,327.5c0.7,0,1.3-0.6,1.4-1.3l1.9-21.6L355,284
	c-0.1-0.8-0.6-1.3-1.4-1.3c-0.7,0-1.3,0.6-1.4,1.3l-1.7,20.5l1.7,21.6C352.3,326.9,352.9,327.5,353.6,327.5z M337.5,326.3
	c0.5,0,1-0.4,1-1l2.1-20.8l-2.1-21.6c-0.1-0.6-0.5-1-1-1c-0.5,0-1,0.4-1,1c0,0-1.9,21.6-1.9,21.6l1.9,20.8
	C336.6,325.9,337,326.3,337.5,326.3z M403.4,259c-1.3,0-2.4,1-2.4,2.4l-1.1,43.2l1.1,20.8c0,1.3,1.1,2.4,2.4,2.4
	c1.3,0,2.4-1,2.4-2.4v0l1.2-20.8l-1.2-43.2C405.8,260.1,404.8,259,403.4,259z M370,327.7c0.9,0,1.7-0.7,1.7-1.7l1.7-21.5l-1.7-41.1
	c0-0.9-0.8-1.7-1.7-1.7c-0.9,0-1.7,0.7-1.7,1.7c0,0-1.5,41.1-1.5,41.1l1.5,21.5C368.3,327,369.1,327.7,370,327.7z M388.6,325.7
	L388.6,325.7l1.4-21.1l-1.4-46c0-1.1-0.9-2-2-2c-1.1,0-2,0.9-2,2l-1.3,46l1.3,21.1c0,1.1,0.9,2,2,2
	C387.7,327.7,388.6,326.8,388.6,325.7L388.6,325.7z M497.2,278.1c-3.4,0-6.7,0.7-9.6,1.9c-2-22.4-20.8-40-43.7-40
	c-5.6,0-11.1,1.1-15.9,3c-1.9,0.7-2.4,1.5-2.4,2.9v78.9c0,1.5,1.2,2.8,2.7,2.9c0.1,0,68.5,0,69,0c13.7,0,24.9-11.1,24.9-24.9
	C522.1,289.2,510.9,278.1,497.2,278.1z M420.5,245.8c-1.5,0-2.7,1.2-2.7,2.7l-1.1,56l1.1,20.3c0,1.5,1.2,2.7,2.7,2.7
	c1.5,0,2.7-1.2,2.7-2.7v0l1.2-20.3l-1.2-56C423.2,247.1,422,245.8,420.5,245.8z M339.9,343.6c-2.9-0.7-3.7-1.1-3.7-2.2
	c0-0.8,0.7-1.7,2.7-1.7c1.7,0,3,0.7,4.2,1.9l2.7-2.6c-1.8-1.8-3.9-2.9-6.8-2.9c-3.7,0-6.6,2.1-6.6,5.4c0,3.7,2.4,4.7,5.8,5.5
	c3.5,0.8,4.1,1.3,4.1,2.5c0,1.4-1,2-3.2,2c-1.8,0-3.4-0.6-4.7-2.1l-2.7,2.4c1.4,2.1,4.1,3.4,7.2,3.4c5.1,0,7.3-2.4,7.3-5.9
	C346.1,345.3,342.9,344.3,339.9,343.6z M357,336.1c-5.1,0-8.1,3.9-8.1,9.6c0,5.7,3,9.6,8.1,9.6c5.1,0,8.1-3.9,8.1-9.6
	C365.1,340.1,362.1,336.1,357,336.1z M357,351.6c-3,0-4.2-2.6-4.2-5.9c0-3.3,1.2-5.9,4.2-5.9c3,0,4.2,2.6,4.2,5.9
	C361.2,349,360,351.6,357,351.6z M380,346.9c0,3-1.5,4.8-3.8,4.8c-2.4,0-3.8-1.9-3.8-4.9v-10.4h-3.7v10.4c0,5.4,3,8.4,7.5,8.4
	c4.7,0,7.5-3.1,7.5-8.5v-10.4H380V346.9z M399.8,344.3c0,1,0.1,3.4,0.1,4.1c-0.2-0.5-0.8-1.4-1.3-2.1l-6.6-9.8h-3.6V355h3.7v-8.2
	c0-1-0.1-3.4-0.1-4.1c0.2,0.5,0.8,1.4,1.3,2.1l6.8,10.1h3.3v-18.6h-3.7V344.3z M414,336.4h-5.8V355h5.5c4.8,0,9.5-2.8,9.5-9.3
	C423.2,338.9,419.3,336.4,414,336.4z M413.7,351.4h-1.8V340h2c3.9,0,5.5,1.9,5.5,5.7C419.4,349.1,417.6,351.4,413.7,351.4z
	 M434.7,339.8c1.7,0,2.7,0.7,3.4,2l3.4-1.6c-1.2-2.4-3.3-4.1-6.8-4.1c-4.8,0-8.2,3.9-8.2,9.6c0,5.9,3.3,9.6,8.1,9.6
	c3.4,0,5.6-1.6,6.9-4.2l-3.1-1.9c-1,1.6-2,2.4-3.6,2.4c-2.8,0-4.4-2.5-4.4-5.9C430.3,342.3,431.9,339.8,434.7,339.8z M448.5,336.4
	h-3.7V355h11.2v-3.7h-7.4V336.4z M465.7,336.1c-5.1,0-8.1,3.9-8.1,9.6c0,5.7,3,9.6,8.1,9.6c5.1,0,8.1-3.9,8.1-9.6
	C473.8,340.1,470.8,336.1,465.7,336.1z M465.7,351.6c-3,0-4.2-2.6-4.2-5.9c0-3.3,1.2-5.9,4.2-5.9c3,0,4.2,2.6,4.2,5.9
	C470,349,468.7,351.6,465.7,351.6z M488.8,346.9c0,3-1.5,4.8-3.8,4.8c-2.4,0-3.8-1.9-3.8-4.9v-10.4h-3.7v10.4c0,5.4,3,8.4,7.5,8.4
	c4.7,0,7.5-3.1,7.5-8.5v-10.4h-3.7V346.9z M502.9,336.4h-5.8V355h5.5c4.8,0,9.5-2.8,9.5-9.3C512.1,338.9,508.2,336.4,502.9,336.4z
	 M502.6,351.4h-1.8V340h2c3.9,0,5.5,1.9,5.5,5.7C508.3,349.1,506.5,351.4,502.6,351.4z"/>
<path d="M3.6,47.6c-0.2,0-0.4,0.2-0.4,0.4l-0.7,5.3l0.7,5.2c0,0.2,0.2,0.4,0.4,0.4c0.2,0,0.3-0.2,0.4-0.4l0,0v0c0,0,0,0,0,0l0.8-5.2
	L4,48C3.9,47.8,3.8,47.6,3.6,47.6z M7.5,44.7c0-0.2-0.2-0.4-0.4-0.4c-0.2,0-0.4,0.2-0.4,0.4c0,0-0.9,8.5-0.9,8.5l0.9,8.3
	c0,0.2,0.2,0.4,0.4,0.4c0.2,0,0.4-0.2,0.4-0.4l1.1-8.3L7.5,44.7z M22.2,36.8c-0.4,0-0.7,0.3-0.7,0.7l-0.7,15.7l0.7,10.1
	c0,0.4,0.3,0.7,0.7,0.7c0.4,0,0.7-0.3,0.7-0.7v0l0.8-10.1l-0.8-15.7C22.9,37.2,22.6,36.8,22.2,36.8z M14.6,42.3
	c-0.3,0-0.5,0.2-0.6,0.5l-0.8,10.4L14,63.3c0,0.3,0.3,0.5,0.6,0.5c0.3,0,0.5-0.2,0.6-0.5l1-10.1l-1-10.4
	C15.1,42.5,14.9,42.3,14.6,42.3z M29.9,64.1c0.5,0,0.9-0.4,0.9-0.9l0.7-10l-0.7-20.9c0-0.5-0.4-0.9-0.9-0.9c-0.5,0-0.9,0.4-0.9,0.9
	c0,0-0.6,20.9-0.6,20.9l0.6,10C29.1,63.7,29.5,64.1,29.9,64.1z M45.8,64.2c0.7,0,1.2-0.5,1.2-1.2v0v0l0.5-9.7L47,29.1
	c0-0.7-0.6-1.2-1.2-1.2c-0.7,0-1.2,0.5-1.2,1.2l-0.5,24.1c0,0,0.5,9.7,0.5,9.7C44.6,63.6,45.1,64.2,45.8,64.2z M37.8,64.1
	c0.6,0,1-0.5,1-1v0l0.6-9.8l-0.6-21.1c0-0.6-0.5-1-1-1c-0.6,0-1,0.5-1,1l-0.6,21.1l0.6,9.8C36.8,63.7,37.2,64.1,37.8,64.1z M18.4,64
	c0.3,0,0.6-0.3,0.6-0.6l0.9-10.1L19,43.6c0-0.4-0.3-0.6-0.6-0.6c-0.3,0-0.6,0.3-0.6,0.6l-0.8,9.6l0.8,10.1C17.8,63.8,18,64,18.4,64z
	 M10.8,63.5c0.2,0,0.4-0.2,0.5-0.5l1-9.8l-1-10.1c0-0.3-0.2-0.5-0.5-0.5c-0.3,0-0.5,0.2-0.5,0.5c0,0-0.9,10.1-0.9,10.1l0.9,9.8
	C10.4,63.3,10.6,63.5,10.8,63.5z M41.8,31.9c-0.6,0-1.1,0.5-1.1,1.1l-0.5,20.3l0.5,9.8c0,0.6,0.5,1.1,1.1,1.1c0.6,0,1.1-0.5,1.1-1.1
	v0l0.6-9.8L42.9,33C42.9,32.4,42.4,31.9,41.8,31.9z M26.1,64.1c0.4,0,0.8-0.3,0.8-0.8l0.8-10.1L26.9,34c0-0.4-0.4-0.8-0.8-0.8
	c-0.4,0-0.8,0.3-0.8,0.8c0,0-0.7,19.3-0.7,19.3l0.7,10.1C25.3,63.8,25.6,64.1,26.1,64.1z M34.8,63.2L34.8,63.2l0.7-9.9l-0.7-21.6
	c0-0.5-0.4-1-1-1c-0.5,0-0.9,0.4-1,1l-0.6,21.6l0.6,9.9c0,0.5,0.4,1,1,1C34.4,64.1,34.8,63.7,34.8,63.2L34.8,63.2z M85.8,40.8
	c-1.6,0-3.1,0.3-4.5,0.9c-0.9-10.5-9.8-18.8-20.5-18.8c-2.6,0-5.2,0.5-7.5,1.4c-0.9,0.3-1.1,0.7-1.1,1.4v37.1c0,0.7,0.6,1.3,1.3,1.4
	c0,0,32.2,0,32.4,0c6.5,0,11.7-5.2,11.7-11.7C97.5,46,92.3,40.8,85.8,40.8z M49.8,25.7c-0.7,0-1.3,0.6-1.3,1.3L48,53.3l0.5,9.6
	c0,0.7,0.6,1.3,1.3,1.3c0.7,0,1.3-0.6,1.3-1.3v0l0.6-9.6l-0.6-26.3C51.1,26.2,50.5,25.7,49.8,25.7z M11.9,71.6
	c-1.4-0.3-1.8-0.5-1.8-1c0-0.4,0.3-0.8,1.2-0.8c0.8,0,1.4,0.3,2,0.9l1.3-1.2c-0.8-0.9-1.8-1.4-3.2-1.4c-1.7,0-3.1,1-3.1,2.6
	c0,1.7,1.1,2.2,2.7,2.6c1.6,0.4,1.9,0.6,1.9,1.2c0,0.7-0.5,0.9-1.5,0.9c-0.8,0-1.6-0.3-2.2-1L8,75.5c0.7,1,1.9,1.6,3.4,1.6
	c2.4,0,3.4-1.1,3.4-2.8C14.9,72.4,13.3,71.9,11.9,71.6z M20,68.1c-2.4,0-3.8,1.8-3.8,4.5s1.4,4.5,3.8,4.5c2.4,0,3.8-1.8,3.8-4.5
	S22.3,68.1,20,68.1z M20,75.3c-1.4,0-2-1.2-2-2.8c0-1.6,0.6-2.8,2-2.8c1.4,0,2,1.2,2,2.8C22,74.1,21.4,75.3,20,75.3z M30.8,73.1
	c0,1.4-0.7,2.3-1.8,2.3c-1.1,0-1.8-0.9-1.8-2.3v-4.9h-1.7v4.9c0,2.5,1.4,4,3.5,4c2.2,0,3.5-1.5,3.5-4v-4.9h-1.7V73.1z M40.1,71.9
	c0,0.5,0,1.6,0,1.9c-0.1-0.2-0.4-0.7-0.6-1l-3.1-4.6h-1.7v8.7h1.7v-3.8c0-0.5,0-1.6,0-1.9c0.1,0.2,0.4,0.7,0.6,1l3.2,4.8h1.6v-8.7
	h-1.7V71.9z M46.7,68.2H44v8.7h2.6c2.2,0,4.5-1.3,4.5-4.4C51.1,69.4,49.2,68.2,46.7,68.2z M46.6,75.2h-0.9v-5.3h0.9
	c1.8,0,2.6,0.9,2.6,2.7C49.3,74.2,48.4,75.2,46.6,75.2z M56.5,69.8c0.8,0,1.3,0.3,1.6,0.9l1.6-0.7c-0.5-1.1-1.5-1.9-3.2-1.9
	c-2.3,0-3.9,1.8-3.9,4.5c0,2.8,1.5,4.5,3.8,4.5c1.6,0,2.6-0.7,3.2-2l-1.5-0.9c-0.5,0.8-0.9,1.1-1.7,1.1c-1.3,0-2.1-1.2-2.1-2.8
	C54.4,71,55.2,69.8,56.5,69.8z M62.9,68.2h-1.7v8.7h5.2v-1.7h-3.5V68.2z M71,68.1c-2.4,0-3.8,1.8-3.8,4.5s1.4,4.5,3.8,4.5
	c2.4,0,3.8-1.8,3.8-4.5S73.4,68.1,71,68.1z M71,75.3c-1.4,0-2-1.2-2-2.8c0-1.6,0.6-2.8,2-2.8c1.4,0,2,1.2,2,2.8
	C73,74.1,72.4,75.3,71,75.3z M81.9,73.1c0,1.4-0.7,2.3-1.8,2.3c-1.1,0-1.8-0.9-1.8-2.3v-4.9h-1.7v4.9c0,2.5,1.4,4,3.5,4
	c2.2,0,3.5-1.5,3.5-4v-4.9h-1.7V73.1z M88.5,68.2h-2.7v8.7h2.6c2.2,0,4.5-1.3,4.5-4.4C92.8,69.4,91,68.2,88.5,68.2z M88.4,75.2h-0.9
	v-5.3h0.9c1.8,0,2.6,0.9,2.6,2.7C91,74.2,90.2,75.2,88.4,75.2z"/>
</svg>
