<?xml version="1.0" encoding="utf-8"?>
<!-- Generator: Adobe Illustrator 22.0.1, SVG Export Plug-In . SVG Version: 6.00 Build 0)  -->
<svg version="1.1" id="Layer_1" xmlns="http://www.w3.org/2000/svg" xmlns:xlink="http://www.w3.org/1999/xlink" x="0px" y="0px"
	 viewBox="0 0 100 100" style="enable-background:new 0 0 100 100;" xml:space="preserve">
<g>
	<path d="M94.9,54.3c0-5.2-1.9-10.1-5.4-13.8c0,0,0,0,0,0c0,0,0,0,0,0c0,0,0,0,0,0c0,0,0,0,0,0c-2.9-3.2-6.8-5.4-11.2-6.2
		c-2.5-3.7-6.1-6.5-10.2-7.9c0,0,0,0-0.1,0c0,0,0,0-0.1,0c-2.7-0.8-5-1.1-7.3-0.9c-2,0.1-3.5,1.8-3.5,3.7v42c0,2.1,1.7,3.8,3.8,3.8
		h14.6c0.4,0,0.8-0.1,1.1-0.2C86.8,73.5,94.9,64.8,94.9,54.3z M74.6,69.1c-0.3,0-0.5,0.1-0.8,0.1H62.6V30.8c1.1,0.1,2.3,0.3,3.7,0.7
		c3.3,1.1,6.1,3.5,7.9,6.6l0.7,1.2l1.4,0.2c3.6,0.4,6.9,2.1,9.1,4.7c0,0,0,0,0,0c0,0,0,0,0,0.1c2.5,2.6,3.9,6.2,3.9,10.1
		C89.4,62.5,82.8,69.1,74.6,69.1z"/>
	<path d="M41.6,28.7c-1.5,0-2.8,1.2-2.8,2.8v39.6c0,1.5,1.2,2.8,2.8,2.8s2.8-1.2,2.8-2.8V31.5C44.4,30,43.2,28.7,41.6,28.7z"/>
	<path d="M24.2,30.5c-1.5,0-2.8,1.2-2.8,2.8v36.2c0,1.5,1.2,2.8,2.8,2.8s2.8-1.2,2.8-2.8V33.2C26.9,31.7,25.7,30.5,24.2,30.5z"/>
	<path d="M7.8,36.3c-1.5,0-2.8,1.2-2.8,2.8v24.5c0,1.5,1.2,2.8,2.8,2.8s2.8-1.2,2.8-2.8V39C10.6,37.5,9.3,36.3,7.8,36.3z"/>
</g>
</svg>
