<?xml version="1.0" encoding="utf-8"?>
<!-- Generator: Adobe Illustrator 22.0.1, SVG Export Plug-In . SVG Version: 6.00 Build 0)  -->
<svg version="1.1" id="Layer_2_1_" xmlns="http://www.w3.org/2000/svg" xmlns:xlink="http://www.w3.org/1999/xlink" x="0px" y="0px"
	 viewBox="0 0 100 100" style="enable-background:new 0 0 100 100;" xml:space="preserve">
<g>
	<path d="M36.3,46.8c-0.5-1-1.2-1.4-2.1-1.4h-9.1c-1,0-1.9,0.5-2.1,1.4L5.6,87.1c-0.7,1.7,0.5,3.3,2.1,3.3h6.9c1,0,1.9-0.7,2.1-1.4
		l2.6-6.4H39l2.4,6.4c0.2,1,1.2,1.4,2.1,1.4h7.4c1.9-0.2,3.1-1.9,2.4-3.3L36.3,46.8z M23.2,73.2L29.4,57l6.2,16.2H23.2z"/>
	<path d="M93.8,10.4c-1.1-1.1-2.8-1.1-3.9,0L58.8,41.5l-8.1-8.1c-1.1-1.1-2.8-1.1-3.9,0c-1.1,1.1-1.1,2.8,0,3.9l9.2,9.2
		c0.7,0.7,1.7,1.1,2.7,1.1s2-0.4,2.7-1.1l32.3-32.3C94.9,13.2,94.9,11.5,93.8,10.4z"/>
</g>
</svg>
