<?xml version="1.0" encoding="utf-8"?>
<!-- Generator: Adobe Illustrator 22.0.1, SVG Export Plug-In . SVG Version: 6.00 Build 0)  -->
<svg version="1.1" id="Layer_1" xmlns="http://www.w3.org/2000/svg" xmlns:xlink="http://www.w3.org/1999/xlink" x="0px" y="0px"
	 viewBox="0 0 100 100" style="enable-background:new 0 0 100 100;" xml:space="preserve">
<g>
	<circle cx="50" cy="13.9" r="11"/>
	<circle cx="50" cy="90.9" r="6.1"/>
	<path d="M88.4,48.4c-2.2,0-4,1.8-4,4c0,2.2,1.8,4,4,4c2.2,0,4-1.8,4-4C92.4,50.2,90.6,48.4,88.4,48.4z"/>
	<path d="M19.4,52.4c0-4.4-3.6-8-8-8c-4.4,0-8,3.6-8,8s3.6,8,8,8C15.8,60.4,19.4,56.8,19.4,52.4z"/>
	<circle cx="77.2" cy="79.5" r="5"/>
	<path d="M16.4,18.7c-3.5,3.5-3.5,9.2,0,12.7c3.5,3.5,9.2,3.5,12.7,0c3.5-3.5,3.5-9.2,0-12.7C25.6,15.2,19.9,15.2,16.4,18.7z"/>
	<path d="M79.3,27.3c1.2-1.2,1.2-3.1,0-4.2c-1.2-1.2-3.1-1.2-4.2,0c-1.2,1.2-1.2,3.1,0,4.2C76.2,28.5,78.1,28.5,79.3,27.3z"/>
	<circle cx="22.7" cy="79.6" r="7"/>
</g>
</svg>
