<?xml version="1.0" encoding="utf-8"?>
<!-- Generator: Adobe Illustrator 22.0.1, SVG Export Plug-In . SVG Version: 6.00 Build 0)  -->
<svg version="1.1" id="Layer_1" xmlns="http://www.w3.org/2000/svg" xmlns:xlink="http://www.w3.org/1999/xlink" x="0px" y="0px"
	 viewBox="0 0 100 100" style="enable-background:new 0 0 100 100;" xml:space="preserve">
<path d="M71.6,31c0.3,1.3,1.5,2.2,2.8,2.2l16.6,0c0.6,0,1-0.4,1-1V15.6c0-1.3-0.9-2.5-2.2-2.8c-1.8-0.3-3.3,1-3.3,2.7v7.9
	c-8.2-10.7-21-17.2-34.8-17.2C27.6,6.3,8,25.9,8,50s19.6,43.8,43.8,43.8c16.7,0,32.2-9.7,39.4-24.8c0.6-1.2,0.3-2.7-0.8-3.5
	c-1.4-1.1-3.4-0.5-4.1,1c-6.3,13.2-19.9,21.7-34.5,21.7c-21.1,0-38.2-17.1-38.2-38.2c0-18.8,13.9-35,32.4-37.8
	c14.6-2.2,28.7,4.1,36.9,15.6h-8.6C72.6,27.8,71.2,29.3,71.6,31z"/>
</svg>
