<?xml version="1.0" encoding="utf-8"?>
<!-- Generator: Adobe Illustrator 22.0.1, SVG Export Plug-In . SVG Version: 6.00 Build 0)  -->
<svg version="1.1" id="Layer_1" xmlns="http://www.w3.org/2000/svg" xmlns:xlink="http://www.w3.org/1999/xlink" x="0px" y="0px"
	 viewBox="0 0 100 100" style="enable-background:new 0 0 100 100;" xml:space="preserve">
<path d="M90.9,58.2c-3.8,18.9-20.1,32.7-39.7,33c-22,0.4-40.7-17-41.9-39C8,28.5,26.9,8.8,50.4,8.8c19,0,35.5,13.1,40,31.2
	c0.3,1.2,1.4,2.1,2.7,2.1h0c1.8,0,3.1-1.7,2.7-3.5C90.6,18.1,72,3.3,50.4,3.3c-27.2,0-49,23.4-46.6,51.1c2.1,23,21,41.2,44,42.4
	c23.8,1.2,43.9-14.9,48.4-37.4c0.3-1.7-1-3.3-2.7-3.3h0C92.2,56,91.1,56.9,90.9,58.2z"/>
</svg>
