<?xml version="1.0" encoding="utf-8"?>
<!-- Generator: Adobe Illustrator 21.0.2, SVG Export Plug-In . SVG Version: 6.00 Build 0)  -->
<svg version="1.1" id="Layer_1" xmlns="http://www.w3.org/2000/svg" xmlns:xlink="http://www.w3.org/1999/xlink" x="0px" y="0px"
	 viewBox="0 0 100 100" style="enable-background:new 0 0 100 100;" xml:space="preserve">
<g>
	<g>
		<path d="M50,2.5C23.8,2.5,2.5,23.8,2.5,50c0,26.2,21.3,47.5,47.5,47.5c26.2,0,47.5-21.3,47.5-47.5C97.5,23.8,76.2,2.5,50,2.5z
			 M71.8,71c-0.9,1.4-2.7,1.8-4.1,1c-11.2-6.8-25.2-8.4-41.7-4.6c-1.6,0.4-3.2-0.6-3.5-2.2c-0.4-1.6,0.6-3.2,2.2-3.5
			c18.1-4.1,33.6-2.4,46.1,5.3C72.2,67.8,72.6,69.6,71.8,71z M77.6,58.1c-1.1,1.7-3.4,2.3-5.1,1.2c-12.8-7.8-32.2-10.1-47.3-5.5
			c-2,0.6-4-0.5-4.6-2.5c-0.6-2,0.5-4,2.5-4.6C40.3,41.4,61.7,44,76.4,53C78.1,54.1,78.7,56.3,77.6,58.1z M78.1,44.6
			c-15.3-9.1-40.6-9.9-55.2-5.5c-2.3,0.7-4.8-0.6-5.5-3c-0.7-2.3,0.6-4.8,3-5.5C37.1,25.5,65,26.5,82.6,37c2.1,1.3,2.8,4,1.6,6.1
			C82.9,45.2,80.2,45.9,78.1,44.6z"/>
	</g>
</g>
</svg>
