<?xml version="1.0" encoding="utf-8"?>
<!-- Generator: Adobe Illustrator 22.0.1, SVG Export Plug-In . SVG Version: 6.00 Build 0)  -->
<svg version="1.1" id="Layer_1" xmlns="http://www.w3.org/2000/svg" xmlns:xlink="http://www.w3.org/1999/xlink" x="0px" y="0px"
	 viewBox="0 0 100 100" style="enable-background:new 0 0 100 100;" xml:space="preserve">
<g>
	<path d="M68,71.5c-12.3-5.9-26.2-7.3-39.2-3.9c-1.5,0.4-2.3,1.9-2,3.4c0.4,1.5,1.9,2.3,3.4,2c11.7-3.1,24.2-1.9,35.4,3.5
		c0.4,0.2,0.8,0.3,1.2,0.3c1,0,2-0.6,2.5-1.6C70,73.8,69.4,72.2,68,71.5z"/>
	<path d="M73.2,53.8c-9.4-4.4-19.7-6.7-30-6.7c-5.8,0-11.1,0.6-16.1,1.9c-1.5,0.4-2.4,1.9-2,3.3c0.4,1.5,1.9,2.4,3.3,2
		c4.6-1.2,9.5-1.8,14.8-1.8c9.4,0,19,2.1,27.6,6.2c0.4,0.2,0.8,0.3,1.2,0.3c1,0,2-0.6,2.5-1.6C75.1,56.1,74.5,54.4,73.2,53.8z"/>
	<path d="M78.6,35.2c-11-5.2-22.9-7.8-35.4-7.8c-5.8,0-11.8,0.6-18,1.9c-1.5,0.3-2.4,1.8-2.1,3.2c0.3,1.5,1.8,2.4,3.2,2.1
		c5.8-1.2,11.5-1.8,16.9-1.8c11.6,0,22.8,2.4,33.1,7.3c0.4,0.2,0.8,0.3,1.2,0.3c1,0,2-0.6,2.5-1.6C80.6,37.4,80,35.8,78.6,35.2z"/>
	<path d="M49.9,0.8c-27.1,0-49.1,22-49.1,49.1c0,27.2,22,49.3,49.1,49.3c27.2,0,49.3-22.1,49.3-49.3C99.2,22.8,77.1,0.8,49.9,0.8z
		 M49.9,93.7c-24.1,0-43.6-19.6-43.6-43.8c0-24.1,19.6-43.6,43.6-43.6c24.1,0,43.8,19.6,43.8,43.6C93.7,74.1,74.1,93.7,49.9,93.7z"
		/>
</g>
</svg>
