<?xml version="1.0" encoding="utf-8"?>
<!-- Generator: Adobe Illustrator 22.0.1, SVG Export Plug-In . SVG Version: 6.00 Build 0)  -->
<svg version="1.1" id="Layer_1" xmlns="http://www.w3.org/2000/svg" xmlns:xlink="http://www.w3.org/1999/xlink" x="0px" y="0px"
	 viewBox="0 0 100 100" style="enable-background:new 0 0 100 100;" xml:space="preserve">
<g>
	<path d="M59.8,50.8c-1.3-11.4-10.4-20.2-21.6-21.5v-4.7h2.9c0.6,0,1-0.4,1-1v-8.4c0-0.6-0.4-1-1-1H29.9c-0.6,0-1,0.4-1,1v8.4
		c0,0.6,0.4,1,1,1h2.9v4.7c-11.2,1.3-20.3,10.1-21.6,21.4c-0.1,0.9-0.2,1.9-0.2,2.9c0,0.3,0,0.7,0,1c0,0.2,0,0.4,0,0.6v36.7
		c0,3.2,2.6,5.8,5.8,5.8h37.5c3.2,0,5.8-2.6,5.8-5.8V55.3c0-0.2,0-0.4,0-0.6c0-0.3,0-0.7,0-1C60,52.7,59.9,51.8,59.8,50.8z
		 M35.5,34.7c8.6,0,15.9,5.7,18.2,13.7H17.2C19.5,40.4,26.9,34.7,35.5,34.7z M54.2,92.3H16.7c-0.1,0-0.3-0.1-0.3-0.3l0-38.1h38
		l0,38.1C54.5,92.2,54.4,92.3,54.2,92.3z"/>
	<path d="M55.6,20.3h1.6c0.6,0,1-0.4,1-1v-1.6c0-0.6-0.4-1-1-1h-1.6c-0.6,0-1,0.4-1,1v1.6C54.6,19.9,55.1,20.3,55.6,20.3z"/>
	<path d="M67.8,21.7h-1.6c-0.6,0-1,0.4-1,1v1.6c0,0.6,0.4,1,1,1h1.6c0.6,0,1-0.4,1-1v-1.6C68.8,22.1,68.4,21.7,67.8,21.7z"/>
	<path d="M67.8,11.7h-1.6c-0.6,0-1,0.4-1,1v1.6c0,0.6,0.4,1,1,1h1.6c0.6,0,1-0.4,1-1v-1.6C68.8,12.1,68.4,11.7,67.8,11.7z"/>
	<path d="M78.1,26.2h-1.6c-0.6,0-1,0.4-1,1v1.6c0,0.6,0.4,1,1,1h1.6c0.6,0,1-0.4,1-1v-1.6C79.1,26.6,78.6,26.2,78.1,26.2z"/>
	<path d="M78.1,7.2h-1.6c-0.6,0-1,0.4-1,1v1.6c0,0.6,0.4,1,1,1h1.6c0.6,0,1-0.4,1-1V8.2C79.1,7.6,78.6,7.2,78.1,7.2z"/>
	<path d="M78.1,16.7h-1.6c-0.6,0-1,0.4-1,1v1.6c0,0.6,0.4,1,1,1h1.6c0.6,0,1-0.4,1-1v-1.6C79.1,17.1,78.6,16.7,78.1,16.7z"/>
	<path d="M88.1,31.2h-1.6c-0.6,0-1,0.4-1,1v1.6c0,0.6,0.4,1,1,1h1.6c0.6,0,1-0.4,1-1v-1.6C89.1,31.6,88.6,31.2,88.1,31.2z"/>
	<path d="M88.1,2.2h-1.6c-0.6,0-1,0.4-1,1v1.6c0,0.6,0.4,1,1,1h1.6c0.6,0,1-0.4,1-1V3.2C89.1,2.6,88.6,2.2,88.1,2.2z"/>
	<path d="M88.1,21.5h-1.6c-0.6,0-1,0.4-1,1v1.6c0,0.6,0.4,1,1,1h1.6c0.6,0,1-0.4,1-1v-1.6C89.1,22,88.6,21.5,88.1,21.5z"/>
	<path d="M88.1,11.9h-1.6c-0.6,0-1,0.4-1,1v1.6c0,0.6,0.4,1,1,1h1.6c0.6,0,1-0.4,1-1v-1.6C89.1,12.3,88.6,11.9,88.1,11.9z"/>
</g>
</svg>
