<?xml version="1.0" encoding="utf-8"?>
<!-- Generator: Adobe Illustrator 22.0.1, SVG Export Plug-In . SVG Version: 6.00 Build 0)  -->
<svg version="1.1" id="Layer_1" xmlns="http://www.w3.org/2000/svg" xmlns:xlink="http://www.w3.org/1999/xlink" x="0px" y="0px"
	 viewBox="0 0 100 100" style="enable-background:new 0 0 100 100;" xml:space="preserve">
<path d="M97.1,20.2l-0.3-1.9l-1.9-0.3c-1-0.2-24.9-4.1-37.7,8.7c-2.1,2.1-3.8,4.6-5.1,7.2c-0.8-7.3-3.1-15.7-9.1-21.6v0
	C30.1-0.6,6.2,3.3,5.2,3.5L3.3,3.8L2.9,5.8c-0.2,1-4.1,24.9,8.7,37.7c7.9,7.9,19.9,9.4,28.3,9.4c3.2,0,5.8-0.2,7.5-0.4v41.9
	c0,1.5,1.2,2.8,2.8,2.8c1.5,0,2.7-1.2,2.7-2.8V66.9c1.7,0.2,4.2,0.4,7.1,0.4c8.4,0,20.4-1.6,28.3-9.4
	C101.1,45.1,97.2,21.2,97.1,20.2z M46.5,47.1c-5.7,0.6-22,1.4-30.9-7.5C6.7,30.7,7.5,14.4,8.1,8.7c5.7-0.6,22-1.4,30.9,7.5v0
	C47.9,25,47.1,41.4,46.5,47.1z M84.4,54c-8.9,8.9-25.2,8.1-30.9,7.5c-0.6-5.7-1.4-22,7.5-30.9c8.9-8.9,25.2-8.1,30.9-7.5
	C92.5,28.8,93.3,45.1,84.4,54z"/>
</svg>
