<?xml version="1.0" encoding="utf-8"?>
<!-- Generator: Adobe Illustrator 22.0.1, SVG Export Plug-In . SVG Version: 6.00 Build 0)  -->
<svg version="1.1" id="Layer_2_1_" xmlns="http://www.w3.org/2000/svg" xmlns:xlink="http://www.w3.org/1999/xlink" x="0px" y="0px"
	 viewBox="0 0 100 100" style="enable-background:new 0 0 100 100;" xml:space="preserve">
<path d="M74.7,56.5h-14L62.9,15c0.2-3.6-1.1-7-3.5-9.6s-5.8-4-9.4-4c-3.6,0-6.9,1.4-9.4,4s-3.7,6-3.5,9.6l2.2,41.5h-14
	C15,56.5,6.7,64.9,6.7,75.1v7.5c0,2.1,1.7,3.8,3.8,3.8h2.3v3.9c0,4.1,3.4,7.5,7.5,7.5h59.4c4.1,0,7.5-3.4,7.5-7.5v-3.9h2.3
	c2.1,0,3.8-1.7,3.8-3.8v-7.5C93.3,64.9,85,56.5,74.7,56.5z M42.6,14.7c-0.1-2.1,0.6-4,2-5.5C46,7.7,47.9,6.9,50,6.9
	c2.1,0,4,0.8,5.4,2.3s2.1,3.5,2,5.5l-2.2,41.8H44.8L42.6,14.7z M81.7,90.2c0,1.1-0.9,2-2,2H20.3c-1.1,0-2-0.9-2-2v-3.9h63.4V90.2z
	 M87.8,80.8H12.2v-5.7c0-7.2,5.9-13.1,13.1-13.1h14.3h20.8h14.3c7.2,0,13.1,5.9,13.1,13.1V80.8z"/>
</svg>
