<?xml version="1.0" encoding="utf-8"?>
<!-- Generator: Adobe Illustrator 22.0.1, SVG Export Plug-In . SVG Version: 6.00 Build 0)  -->
<svg version="1.1" id="Layer_1" xmlns="http://www.w3.org/2000/svg" xmlns:xlink="http://www.w3.org/1999/xlink" x="0px" y="0px"
	 viewBox="0 0 100 100" style="enable-background:new 0 0 100 100;" xml:space="preserve">
<g>
	<g>
		<path d="M50,15"/>
		<path d="M45.5,12.8l3.6-7.2c0.4-0.7,1.4-0.7,1.8,0l3.6,7.2L50,15L45.5,12.8z"/>
	</g>
	<g>
		<rect x="53.8" y="19.8" transform="matrix(0.8968 -0.4425 0.4425 0.8968 -4.4535 27.4342)" width="5.5" height="6.9"/>
	</g>
	<g>
		<polygon points="67.2,39.9 61.3,39.1 58.7,33.7 63.6,31.3 65,34.1 68,34.5 		"/>
	</g>
	<g>
		<rect x="75.1" y="35.3" transform="matrix(0.1438 -0.9896 0.9896 0.1438 28.3273 110.1428)" width="5.5" height="6.9"/>
	</g>
	<g>
		<path d="M91.2,45.9L88.3,43l-0.6-0.6l0.1-0.9l0.6-4.1l8,1.2c0.8,0.1,1.1,1.1,0.6,1.7L91.2,45.9z"/>
	</g>
	<g>
		<rect x="78.4" y="48.4" transform="matrix(0.7159 -0.6982 0.6982 0.7159 -12.4816 71.705)" width="6.9" height="5.5"/>
	</g>
	<g>
		<polygon points="69.3,66.4 68.3,60.6 72.6,56.4 76.4,60.4 74.2,62.5 74.7,65.5 		"/>
	</g>
	<g>
		<rect x="71" y="72.7" transform="matrix(0.9856 -0.169 0.169 0.9856 -11.8146 13.5641)" width="5.5" height="6.9"/>
	</g>
	<g>
		<path d="M78.1,94.9L71,91.1l1.9-3.6l0.4-0.8l0.9-0.1l4-0.7l1.4,7.9C79.7,94.6,78.9,95.3,78.1,94.9z"/>
	</g>
	<g>
		<rect x="60.4" y="80.4" transform="matrix(0.4653 -0.8851 0.8851 0.4653 -40.4993 100.7374)" width="5.5" height="6.9"/>
	</g>
	<g>
		<polygon points="47.3,81.5 44.7,76.6 50,73.9 55.3,76.6 52.7,81.5 50,80.1 		"/>
	</g>
	<g>
		<rect x="33.4" y="81.1" transform="matrix(0.8852 -0.4653 0.4653 0.8852 -34.8004 26.7888)" width="6.9" height="5.5"/>
	</g>
	<g>
		<path d="M20.4,93.8l1.4-7.9l4,0.7l0.9,0.1l0.4,0.8l1.9,3.6l-7.1,3.7C21.1,95.3,20.3,94.6,20.4,93.8z"/>
	</g>
	<g>
		<rect x="22.8" y="73.4" transform="matrix(0.169 -0.9856 0.9856 0.169 -53.2689 89.1603)" width="6.9" height="5.5"/>
	</g>
	<g>
		<polygon points="30.7,66.4 25.3,65.5 25.8,62.5 23.6,60.4 27.4,56.4 31.7,60.6 		"/>
	</g>
	<g>
		<rect x="15.4" y="47.7" transform="matrix(0.698 -0.7161 0.7161 0.698 -31.1845 28.4404)" width="5.5" height="6.9"/>
	</g>
	<g>
		<path d="M8.8,45.9L3,40.3c-0.6-0.6-0.3-1.6,0.6-1.7l8-1.2l0.6,4.1l0.1,0.9L11.7,43L8.8,45.9z"/>
	</g>
	<g>
		<rect x="18.7" y="36" transform="matrix(0.9896 -0.1438 0.1438 0.9896 -5.3357 3.5931)" width="6.9" height="5.5"/>
	</g>
	<g>
		<polygon points="32.8,39.9 32,34.5 35,34.1 36.4,31.3 41.3,33.7 38.7,39.1 		"/>
	</g>
	<g>
		<rect x="40" y="20.5" transform="matrix(0.4427 -0.8967 0.8967 0.4427 3.3491 51.9109)" width="6.9" height="5.5"/>
	</g>
</g>
</svg>
