<?xml version="1.0" encoding="utf-8"?>
<!-- Generator: Adobe Illustrator 22.0.1, SVG Export Plug-In . SVG Version: 6.00 Build 0)  -->
<svg version="1.1" id="Layer_1" xmlns="http://www.w3.org/2000/svg" xmlns:xlink="http://www.w3.org/1999/xlink" x="0px" y="0px"
	 viewBox="0 0 100 100" style="enable-background:new 0 0 100 100;" xml:space="preserve">
<g>
	<path d="M50,74.3L50,74.3L27.4,86.2L31.7,61L13.4,43.2l25.3-3.7L50,16.6l0,0v0l0.8-1.6l3.7-1.8l-4.5-9l0,0L35,34.5L2.6,39.2
		C2.2,39.3,2,39.8,2.3,40l23.5,22.9l-5.5,32.3c-0.1,0.4,0.4,0.7,0.7,0.5l29-15.3l2.7,1.4l2.6-4.9L50,74.3L50,74.3z"/>
	<rect x="53.8" y="20.2" transform="matrix(0.8968 -0.4425 0.4425 0.8968 -4.6413 27.4772)" width="5.5" height="6.9"/>
	<polygon points="63.6,31.7 58.7,34.2 61.3,39.5 67.2,40.4 68,34.9 65,34.5 	"/>
	<rect x="75.1" y="35.7" transform="matrix(0.1438 -0.9896 0.9896 0.1438 27.9071 110.5045)" width="5.5" height="6.9"/>
	<path d="M88.4,37.9l-0.6,4.1l-0.1,0.9l0.6,0.6l2.9,2.9l6.5-6.3c0.3-0.3,0.1-0.8-0.3-0.9L88.4,37.9z"/>
	<rect x="78.4" y="48.9" transform="matrix(0.7162 -0.6979 0.6979 0.7162 -12.7854 71.7892)" width="6.9" height="5.5"/>
	<polygon points="74.2,62.9 76.4,60.8 72.6,56.9 68.3,61 69.3,66.9 74.7,65.9 	"/>
	<rect x="71" y="73.1" transform="matrix(0.9856 -0.169 0.169 0.9856 -11.8861 13.5702)" width="5.5" height="6.9"/>
	<path d="M74.2,87l-0.9,0.1l-0.4,0.8L71,91.6l8,4.2c0.4,0.2,0.8-0.1,0.7-0.5l-1.5-8.9L74.2,87z"/>
	<rect x="60.4" y="80.9" transform="matrix(0.4653 -0.8851 0.8851 0.4653 -40.8748 100.9641)" width="5.5" height="6.9"/>
</g>
</svg>
