<?xml version="1.0" encoding="utf-8"?>
<!-- Generator: Adobe Illustrator 22.0.1, SVG Export Plug-In . SVG Version: 6.00 Build 0)  -->
<svg version="1.1" id="Layer_1" xmlns="http://www.w3.org/2000/svg" xmlns:xlink="http://www.w3.org/1999/xlink" x="0px" y="0px"
	 viewBox="0 0 100 100" style="enable-background:new 0 0 100 100;" xml:space="preserve">
<style type="text/css">
	.st0{fill:#1D1D1B;}
</style>
<g>
	<path class="st0" d="M94.1,91.3H8.7V5.9c0-1.5-1.2-2.8-2.8-2.8S3.2,4.4,3.2,5.9v90.9h90.9c1.5,0,2.8-1.2,2.8-2.8
		S95.6,91.3,94.1,91.3z"/>
	<path class="st0" d="M21.4,42.2h19.1L53,54.7h22.4l11.4,11.4H73c-1.5,0-2.8,1.2-2.8,2.8s1.2,2.8,2.8,2.8h17.6
		c2.7,0,4.8-2.1,4.8-4.8V49.1c0-1.5-1.2-2.8-2.8-2.8s-2.8,1.2-2.8,2.8v12.4L77.6,49.2H55.2L42.8,36.7H21.4c-1.5,0-2.8,1.2-2.8,2.8
		S19.9,42.2,21.4,42.2z"/>
</g>
</svg>
