<?xml version="1.0" encoding="utf-8"?>
<!-- Generator: Adobe Illustrator 22.0.1, SVG Export Plug-In . SVG Version: 6.00 Build 0)  -->
<svg version="1.1" id="Layer_1" xmlns="http://www.w3.org/2000/svg" xmlns:xlink="http://www.w3.org/1999/xlink" x="0px" y="0px"
	 viewBox="0 0 100 100" style="enable-background:new 0 0 100 100;" xml:space="preserve">
<g>
	<path d="M94.1,91.4H8.6V5.9c0-1.5-1.2-2.8-2.8-2.8S3.1,4.4,3.1,5.9v91h91c1.5,0,2.8-1.2,2.8-2.8S95.6,91.4,94.1,91.4z"/>
	<path d="M21.4,71.6h21.3l12.5-12.5h22.4l12.2-12.2v12.4c0,1.5,1.2,2.8,2.8,2.8s2.8-1.2,2.8-2.8V41.4c0-2.6-2.1-4.8-4.8-4.8H73
		c-1.5,0-2.8,1.2-2.8,2.8s1.2,2.8,2.8,2.8h13.8L75.4,53.6H53L40.5,66.1H21.4c-1.5,0-2.8,1.2-2.8,2.8S19.9,71.6,21.4,71.6z"/>
</g>
</svg>
