<?xml version="1.0" encoding="utf-8"?>
<!-- Generator: Adobe Illustrator 21.0.2, SVG Export Plug-In . SVG Version: 6.00 Build 0)  -->
<svg version="1.1" id="Layer_1" xmlns="http://www.w3.org/2000/svg" xmlns:xlink="http://www.w3.org/1999/xlink" x="0px" y="0px"
	 viewBox="0 0 100 100" style="enable-background:new 0 0 100 100;" xml:space="preserve">
<g>
	<path d="M49.9,4.4C26,4.4,6.3,22.9,4.5,46.3l24.4,10.1c2.1-1.4,4.6-2.2,7.3-2.2c0.2,0,0.5,0,0.7,0l10.9-15.8c0-0.1,0-0.1,0-0.2
		C47.8,28.8,55.5,21,65,21c9.5,0,17.2,7.7,17.2,17.2c0,9.5-7.7,17.2-17.2,17.2c-0.1,0-0.3,0-0.4,0L49.1,66.5c0,0.2,0,0.4,0,0.6
		c0,7.1-5.8,12.9-12.9,12.9c-6.2,0-11.5-4.5-12.7-10.4L6,62.4c5.4,19.1,23,33.2,43.9,33.2c25.2,0,45.6-20.4,45.6-45.6
		C95.5,24.8,75.1,4.4,49.9,4.4z"/>
	<path d="M33.1,73.6l-5.6-2.3c1,2.1,2.7,3.8,5,4.7c4.9,2.1,10.6-0.3,12.7-5.2c1-2.4,1-5,0-7.4c-1-2.4-2.8-4.3-5.2-5.3
		c-2.4-1-4.9-0.9-7.1-0.1l5.8,2.4c3.6,1.5,5.4,5.7,3.8,9.3C40.9,73.4,36.7,75.1,33.1,73.6z"/>
	<path d="M76.4,38.2c0-6.3-5.1-11.5-11.5-11.5c-6.3,0-11.5,5.1-11.5,11.5S58.7,49.7,65,49.7C71.3,49.7,76.4,44.6,76.4,38.2z
		 M56.4,38.2c0-4.8,3.9-8.6,8.6-8.6c4.8,0,8.6,3.9,8.6,8.6c0,4.8-3.9,8.6-8.6,8.6C60.2,46.8,56.4,43,56.4,38.2z"/>
</g>
</svg>
