<?xml version="1.0" encoding="utf-8"?>
<!-- Generator: Adobe Illustrator 22.0.1, SVG Export Plug-In . SVG Version: 6.00 Build 0)  -->
<svg version="1.1" id="Layer_1" xmlns="http://www.w3.org/2000/svg" xmlns:xlink="http://www.w3.org/1999/xlink" x="0px" y="0px"
	 viewBox="0 0 100 100" style="enable-background:new 0 0 100 100;" xml:space="preserve">
<path d="M88.8,4.2h-9.6c-0.6-1.1-1.7-1.9-3.1-1.9c-1.9,0-3.5,1.6-3.5,3.5v4.3c0,1.9,1.6,3.5,3.5,3.5s3.5-1.6,3.5-3.5V9.7h8.5v28.1
	c0,10.3-8.4,18.7-18.7,18.7h-1.8c-10.3,0-18.7-8.4-18.7-18.7V9.7h8.6v0.4c0,1.9,1.6,3.5,3.5,3.5s3.5-1.6,3.5-3.5V5.8
	c0-1.9-1.6-3.5-3.5-3.5c-1.3,0-2.5,0.8-3.1,1.9h-9.8c-2.6,0-4.8,2.1-4.8,4.8v28.9c0,12.7,9.9,23.2,22.3,24.1v20.2
	c0,5.6-4.5,10.1-10.1,10.1H30.4c-5.6,0-10.1-4.5-10.1-10.1V67c4.8-1.2,8.4-5.6,8.4-10.8c0-6.1-5-11.1-11.1-11.1s-11.1,5-11.1,11.1
	c0,5.2,3.6,9.6,8.4,10.8v15.1c0,8.6,7,15.6,15.6,15.6h25.3c8.6,0,15.6-7,15.6-15.6V61.9C83.7,61,93.6,50.5,93.6,37.8V8.9
	C93.6,6.3,91.4,4.2,88.8,4.2z M11.9,56.2c0-3.1,2.5-5.6,5.6-5.6s5.6,2.5,5.6,5.6s-2.5,5.6-5.6,5.6S11.9,59.3,11.9,56.2z"/>
</svg>
