<?xml version="1.0" encoding="utf-8"?>
<!-- Generator: Adobe Illustrator 22.0.1, SVG Export Plug-In . SVG Version: 6.00 Build 0)  -->
<svg version="1.1" id="Layer_2_1_" xmlns="http://www.w3.org/2000/svg" xmlns:xlink="http://www.w3.org/1999/xlink" x="0px" y="0px"
	 viewBox="0 0 100 100" style="enable-background:new 0 0 100 100;" xml:space="preserve">
<path d="M91.3,29.3H52.8V6.8h23.9c1.5,0,2.8-1.2,2.8-2.8s-1.2-2.8-2.8-2.8H23.4c-1.5,0-2.8,1.2-2.8,2.8s1.2,2.8,2.8,2.8h23.9v22.5
	H8.7C7.2,29.3,6,30.5,6,32s1.2,2.8,2.8,2.8h38.5V96c0,1.5,1.2,2.8,2.8,2.8s2.8-1.2,2.8-2.8V34.8h38.5c1.5,0,2.8-1.2,2.8-2.8
	S92.8,29.3,91.3,29.3z"/>
</svg>
