<?xml version="1.0" encoding="utf-8"?>
<!-- Generator: Adobe Illustrator 21.0.0, SVG Export Plug-In . SVG Version: 6.00 Build 0)  -->
<svg version="1.1" id="Layer_1" xmlns="http://www.w3.org/2000/svg" xmlns:xlink="http://www.w3.org/1999/xlink" x="0px" y="0px"
	 viewBox="0 0 100 100" style="enable-background:new 0 0 100 100;" xml:space="preserve">
<g id="XMLID_11_">
	<rect id="XMLID_12_" x="48.5" y="40.5" width="7.7" height="21.7"/>
	<path id="XMLID_13_" d="M46,40.2c-2.5-0.7-4-0.1-5.4,2.2c-0.3-0.4-0.5-0.9-0.8-1.5c-0.3-0.4-0.4-0.5-0.8-0.4c-1.7,0-3.3,0-4.9,0
		c-0.1,0-0.4,0-0.4,0v21.7h7.7V48.6c0-1.5,0.3-1.9,1.8-2.1c0.4,0,0.8-0.1,1.3,0c0.8,0.1,1.5,0.3,2.3,0.3c0-2.1,0-4,0-5.8
		C46.5,40.5,46.4,40.3,46,40.2z"/>
	<path id="XMLID_14_" d="M27.5,45.4h3.2c0.4-1.7,0.7-3.3,1.1-4.9h-4.1v-6.6c-2.2,0.4-4.1,1.1-6.2,1.4c-0.4,0.1-0.7,0.4-0.7,0.8
		c-0.3,1.4-0.5,2.8-0.8,4.3H17v4.9h2.7v0.8c0,3.6,0,7,0,10.6c0,3,1.4,4.9,3.9,5.7c2.7,0.7,5.5,0.1,8.1-0.4v-5.7
		c-0.9,0.1-1.8,0.3-2.6,0.3c-0.9,0.1-1.4-0.3-1.4-1.3c0-0.3,0-0.4,0-0.7c0-2.8,0-5.8,0-8.6C27.5,45.9,27.5,45.6,27.5,45.4z"/>
	<path id="XMLID_15_" d="M13.7,50.1c-0.7-0.5-1.7-0.9-2.5-1.4c-0.5-0.4-1.4-0.5-1.9-1.1c-0.4-0.3-0.5-0.8-0.4-1.3
		c0-0.4,0.5-0.7,0.9-0.8c0.4-0.1,1.1-0.1,1.7,0c1.4,0.3,2.6,0.4,4,0.7c0-1.5,0-3.2,0-4.8c0-0.4-0.1-0.7-0.5-0.8
		c-2.6-0.8-5.4-1.1-8.1-0.5c-2.6,0.7-4.5,2.1-5.4,4.6C1.4,45.3,1.2,46,1,46.4v1.4c0,0.1,0.1,0.4,0.1,0.4c0.3,1.7,1.1,3.2,2.3,4
		c0.7,0.4,1.5,0.8,2.2,1.4C6.4,54,7,54.3,7.8,54.6C8.2,55,8.5,55.5,8.2,56c-0.3,0.4-0.5,0.7-1.1,0.8c-0.7,0.1-1.5,0.1-2.2,0
		c-1.3-0.3-2.3-0.4-3.7-0.7c0,1.8,0,3.6,0,5.3c0,0.1,0.4,0.4,0.4,0.4c2.5,0.7,4.8,1.1,7.6,0.8c4-0.4,6.2-2.3,6.6-6.3
		C16.2,53.9,15.7,51.7,13.7,50.1z"/>
	<path id="XMLID_18_" d="M90.3,56.6c-1.4-0.3-2.1-1.3-1.9-2.7H99c-0.1-2.3-0.3-4.6-0.4-6.7c-0.3-1.9-1.1-3.7-2.5-5
		c-1.8-1.7-4-2.1-6.4-1.9c-4.5,0.3-7.2,2.2-8.4,6.3c-0.9,3.3-0.9,6.6,0,10c0.8,3.2,2.8,5.3,6.2,5.9c3,0.5,5.8,0.4,8.8-0.3
		c1.7-0.4,1.7-0.4,1.7-2.2v-4c-0.7,0.1-1.4,0.3-2.1,0.4C94.2,56.6,92.3,56.8,90.3,56.6z M88.8,46c0-0.4,0.3-0.7,0.4-0.9
		c0.7-0.8,2.1-0.5,2.2,0.4c0.3,1.4,0.4,2.6,0.4,4c-1.4,0-2.2,0-3.5,0C88.4,48.5,88.5,47.3,88.8,46z"/>
	<path id="XMLID_21_" d="M77.3,43.3c-0.7-1.4-1.7-2.3-3.2-2.8c-2.3-0.5-4.5-0.4-6.6,0.9c-0.3,0.1-0.4,0.3-0.7,0.4
		c-0.5-1.5-1.8-1.4-3.2-1.4c-0.3,0-0.4,0-0.5,0h-3.7v29c0,0.3,0,0.4,0,0.7h7.9v-7.7c1.3,0.1,2.2,0.4,3.3,0.4c3.9,0,6.1-1.8,7.1-5.4
		c0-0.1,0.1-0.4,0.1-0.4c0.7-2.8,0.7-5.8,0.4-8.8C78.5,46.3,78,44.6,77.3,43.3z M70.5,55.4c-0.4,1.7-1.4,2.2-3.2,1.5v-1.4
		c0-2.8,0-5.7,0-8.4c0-0.4,0.1-0.7,0.5-0.8c0.3-0.1,0.4-0.3,0.7-0.3c1.1-0.4,1.8,0,1.9,1.3C70.9,49.7,71,52.6,70.5,55.4z"/>
	<path id="XMLID_22_" d="M52.8,29.9C52.8,29.9,52.7,29.9,52.8,29.9h-0.9h-0.1c-1.9,0.3-3.3,1.9-3.3,4c0,1.1,0.4,2.2,1.3,2.8
		c0.4,0.4,1.1,0.8,1.8,0.9c0.4,0.1,0.5,0.1,0.9,0.1l0,0c2.2,0,4-1.8,4-4C56.3,31.8,54.8,30,52.8,29.9z"/>
</g>
</svg>
