<?xml version="1.0" encoding="utf-8"?>
<!-- Generator: Adobe Illustrator 22.0.1, SVG Export Plug-In . SVG Version: 6.00 Build 0)  -->
<svg version="1.1" id="Layer_1" xmlns="http://www.w3.org/2000/svg" xmlns:xlink="http://www.w3.org/1999/xlink" x="0px" y="0px"
	 viewBox="0 0 100 100" style="enable-background:new 0 0 100 100;" xml:space="preserve">
<g>
	<path d="M50,28.7c-11.8,0-21.3,9.6-21.3,21.3c0,11.8,9.6,21.3,21.3,21.3c11.8,0,21.3-9.6,21.3-21.3C71.3,38.2,61.8,28.7,50,28.7z
		 M50,65.8c-8.7,0-15.8-7.1-15.8-15.8S41.3,34.2,50,34.2S65.8,41.3,65.8,50S58.7,65.8,50,65.8z"/>
	<path d="M50,15.1c1.5,0,2.8-1.2,2.8-2.8V5c0-1.5-1.2-2.8-2.8-2.8S47.3,3.5,47.3,5v7.4C47.3,13.9,48.5,15.1,50,15.1z"/>
	<path d="M50,84.9c-1.5,0-2.8,1.2-2.8,2.8V95c0,1.5,1.2,2.8,2.8,2.8s2.8-1.2,2.8-2.8v-7.4C52.8,86.1,51.5,84.9,50,84.9z"/>
	<path d="M79.9,16.2l-5.2,5.2c-1.1,1.1-1.1,2.8,0,3.9c0.5,0.5,1.2,0.8,1.9,0.8s1.4-0.3,1.9-0.8l5.2-5.2c1.1-1.1,1.1-2.8,0-3.9
		C82.7,15.2,80.9,15.2,79.9,16.2z"/>
	<path d="M21.5,74.7l-5.2,5.2c-1.1,1.1-1.1,2.8,0,3.9c0.5,0.5,1.2,0.8,1.9,0.8c0.7,0,1.4-0.3,1.9-0.8l5.2-5.2c1.1-1.1,1.1-2.8,0-3.9
		C24.3,73.6,22.5,73.6,21.5,74.7z"/>
	<path d="M95,47.3h-7.4c-1.5,0-2.8,1.2-2.8,2.8s1.2,2.8,2.8,2.8H95c1.5,0,2.8-1.2,2.8-2.8S96.5,47.3,95,47.3z"/>
	<path d="M12.4,47.3H5c-1.5,0-2.8,1.2-2.8,2.8s1.2,2.8,2.8,2.8h7.4c1.5,0,2.8-1.2,2.8-2.8S13.9,47.3,12.4,47.3z"/>
	<path d="M78.5,74.7c-1.1-1.1-2.8-1.1-3.9,0s-1.1,2.8,0,3.9l5.2,5.2c0.5,0.5,1.2,0.8,1.9,0.8s1.4-0.3,1.9-0.8c1.1-1.1,1.1-2.8,0-3.9
		L78.5,74.7z"/>
	<path d="M21.5,25.3c0.5,0.5,1.2,0.8,1.9,0.8s1.4-0.3,1.9-0.8c1.1-1.1,1.1-2.8,0-3.9l-5.2-5.2c-1.1-1.1-2.8-1.1-3.9,0
		c-1.1,1.1-1.1,2.8,0,3.9L21.5,25.3z"/>
</g>
</svg>
