<?xml version="1.0" encoding="utf-8"?>
<!-- Generator: Adobe Illustrator 22.0.1, SVG Export Plug-In . SVG Version: 6.00 Build 0)  -->
<svg version="1.1" id="Layer_1" xmlns="http://www.w3.org/2000/svg" xmlns:xlink="http://www.w3.org/1999/xlink" x="0px" y="0px"
	 viewBox="0 0 100 100" style="enable-background:new 0 0 100 100;" xml:space="preserve">
<g>
	<path d="M98.4,15.6c-0.3-2.5-2.1-4.4-4.4-4.4H6.3c-2.6,0-4.8,2.2-4.8,4.8v50.5c0,2.5,2.2,4.8,4.6,4.8h9.4v13.8
		c0,1.5,0.9,2.9,2.3,3.4c0.5,0.2,1,0.3,1.5,0.3c1,0,1.9-0.4,2.6-1.1l0.2-0.2l10.9-16.3h60.9c2.4,0,4.5-2.2,4.5-4.8V15.9L98.4,15.6z
		 M92.9,65.7H32.1c-1.3,0-2.4,0.6-3.1,1.6l-8,11.9v-9.8c0-2.1-1.6-3.8-3.8-3.8H7.1v-49h85.8V65.7z"/>
	<path d="M18.2,31.1h30.3c1.5,0,2.8-1.2,2.8-2.8s-1.2-2.8-2.8-2.8H18.2c-1.5,0-2.8,1.2-2.8,2.8S16.7,31.1,18.2,31.1z"/>
	<path d="M18.2,43.6h17.4c1.5,0,2.8-1.2,2.8-2.8s-1.2-2.8-2.8-2.8H18.2c-1.5,0-2.8,1.2-2.8,2.8S16.7,43.6,18.2,43.6z"/>
	<path d="M18.2,56.2h23c1.5,0,2.8-1.2,2.8-2.8s-1.2-2.8-2.8-2.8h-23c-1.5,0-2.8,1.2-2.8,2.8S16.7,56.2,18.2,56.2z"/>
	<path d="M70.2,31.7c1.3,0.7,3,0.2,3.7-1.2c0.6-1.2,1.8-1.8,3-1.7c1.4,0.2,2.5,1.3,2.7,2.7c0.1,1.3-0.5,2.6-1.7,3.1
		c-2.5,1.2-4.1,3.8-4.1,6.6v6c0,1.5,1.2,2.7,2.8,2.7s2.8-1.2,2.8-2.7v-6c0-0.7,0.4-1.4,1-1.7c3.3-1.6,5.2-5,4.8-8.7
		c-0.4-3.9-3.5-7-7.5-7.6C74,23,70.6,24.8,69,28C68.3,29.4,68.8,31.1,70.2,31.7z"/>
	<path d="M76.6,53.7c-1.6,0-2.9,1.3-2.9,2.9s1.3,2.9,2.9,2.9s2.9-1.3,2.9-2.9S78.2,53.7,76.6,53.7z"/>
</g>
</svg>
