<?xml version="1.0" encoding="utf-8"?>
<!-- Generator: Adobe Illustrator 22.0.1, SVG Export Plug-In . SVG Version: 6.00 Build 0)  -->
<svg version="1.1" id="Layer_1" xmlns="http://www.w3.org/2000/svg" xmlns:xlink="http://www.w3.org/1999/xlink" x="0px" y="0px"
	 viewBox="0 0 100 100" style="enable-background:new 0 0 100 100;" xml:space="preserve">
<path d="M66.3,4.7l-1.2-0.6l-1.2,0.6c-5.2,2.6-9.9,7-13.8,12.7c-3.9-5.8-8.6-10.1-13.9-12.7l-1.2-0.6l-1.2,0.6
	C19,12,9.1,32.7,9.1,56.1c0,14.2,3.6,27.5,10.1,37.7c0.9,1.4,2.4,2.2,4,2.2h53.6c1.6,0,3.1-0.8,4-2.2c6.5-10.1,10.1-23.5,10.1-37.7
	C90.9,32.7,81,12,66.3,4.7z M34.9,10.3c4.9,2.8,9.2,7.5,12.7,13.7c1.5,2.7,2.8,5.7,3.9,8.8L15.3,46.1C17.5,29.9,24.9,16,34.9,10.3z
	 M14.6,56.1c0-1.3,0-2.6,0.1-3.9l38.4-14c1,4,1.7,8.2,2,12.5L15.1,65.3C14.8,62.3,14.6,59.2,14.6,56.1z M46.2,90.4H23.6
	c-3.5-5.6-6.1-12.3-7.6-19.6l39.2-14.3c-0.1,11.6-2.8,22.9-7.6,31.6C47.1,88.9,46.7,89.7,46.2,90.4z M76.4,90.4H52.6
	c5.2-9.6,8.1-21.8,8.1-34.3c0-12.1-2.7-23.9-7.6-33.3c3.3-5.6,7.4-9.9,11.9-12.5c12,6.9,20.3,25.4,20.3,45.8
	C85.4,69,82.2,81.2,76.4,90.4z"/>
</svg>
