<?xml version="1.0" encoding="utf-8"?>
<!-- Generator: Adobe Illustrator 21.0.2, SVG Export Plug-In . SVG Version: 6.00 Build 0)  -->
<svg version="1.1" id="Layer_1" xmlns="http://www.w3.org/2000/svg" xmlns:xlink="http://www.w3.org/1999/xlink" x="0px" y="0px"
	 viewBox="0 0 100 100" style="enable-background:new 0 0 100 100;" xml:space="preserve">
<path d="M94.6,21.9l-19-19c-1.1-1.1-2.8-1.1-3.9,0c-1.1,1.1-1.1,2.8,0,3.9l7.5,7.5l-8.9,8.9l-6.1-6.1c-1.9-1.9-4.9-1.9-6.7,0
	L21.7,53c-0.9,0.9-1.4,2.1-1.4,3.4s0.5,2.5,1.4,3.4L23,61l-6.4,6.4c-0.7,0.7-1.1,1.6-1.1,2.7s0.4,1.9,1.1,2.7l2.6,2.6L7.8,86.7
	L4.6,97.9l18.6-18.6l2.6,2.6c0.7,0.7,1.7,1.1,2.7,1.1s1.9-0.4,2.7-1.1l6.4-6.4l1.3,1.3c0.9,0.9,2.1,1.4,3.4,1.4
	c1.2,0,2.4-0.5,3.4-1.4L81.4,41c1.9-1.9,1.9-4.9,0-6.7l-7.1-7.1l8.9-8.9l7.5,7.5c0.5,0.5,1.2,0.8,1.9,0.8s1.4-0.3,1.9-0.8
	C95.7,24.7,95.7,23,94.6,21.9z M28.5,76.8l-6.7-6.7l5.2-5.2l6.7,6.7L28.5,76.8z M42.2,72.4L26.1,56.3l34.8-34.8L77,37.6L42.2,72.4z"
	/>
</svg>
