<?xml version="1.0" encoding="utf-8"?>
<!-- Generator: Adobe Illustrator 22.0.1, SVG Export Plug-In . SVG Version: 6.00 Build 0)  -->
<svg version="1.1" id="Layer_1" xmlns="http://www.w3.org/2000/svg" xmlns:xlink="http://www.w3.org/1999/xlink" x="0px" y="0px"
	 viewBox="0 0 100 100" style="enable-background:new 0 0 100 100;" xml:space="preserve">
<g>
	<path d="M76.6,91.9H23.4c-2.2,0-4.1-1.8-4.2-4l-2.7-50.2H6.8c-2.2,0-4.1-1.8-4.2-3.9L1.3,12.5c0-2.4,1.8-4.3,4.2-4.3h30.3
		c2,0,3.7,1.5,4.1,3.5l0,0.3c0.5,5,4.9,9,10,9c5.1,0,9.4-3.8,10-8.9c0.1-2.1,2-3.8,4.2-3.8h30.2c2.4,0,4.2,1.9,4.2,4.3l0,0.2
		l-1.3,21.1c-0.1,2.1-2,3.9-4.2,3.9h-9.7l-2.7,50.2C80.8,90.1,78.9,91.9,76.6,91.9z M24.6,86.4h50.8l2.7-50.2c0.1-2.2,2-4,4.2-4H92
		l1.1-18.6H65.4C64,21,57.6,26.4,50.1,26.4c-7.6,0-14.1-5.5-15.4-12.8H6.9L8,32.2h9.7c2,0,3.7,1.5,4.1,3.5l0,0.4L24.6,86.4z"/>
</g>
</svg>
