<?xml version="1.0" encoding="utf-8"?>
<!-- Generator: Adobe Illustrator 22.0.1, SVG Export Plug-In . SVG Version: 6.00 Build 0)  -->
<svg version="1.1" id="Layer_1" xmlns="http://www.w3.org/2000/svg" xmlns:xlink="http://www.w3.org/1999/xlink" x="0px" y="0px"
	 viewBox="0 0 100 100" style="enable-background:new 0 0 100 100;" xml:space="preserve">
<g>
	<path d="M80.8,2.6H19.3c-2.6,0-4.8,2.1-4.8,4.8v85.3c0,2.6,2.1,4.8,4.8,4.8h61.5c2.6,0,4.8-2.1,4.8-4.8V7.4
		C85.5,4.8,83.4,2.6,80.8,2.6z M80,91.9H20V8.1h60V91.9z"/>
	<path d="M35.8,17.8h14.8c1.5,0,2.8-1.2,2.8-2.8s-1.2-2.8-2.8-2.8H35.8c-1.5,0-2.8,1.2-2.8,2.8S34.2,17.8,35.8,17.8z"/>
	<circle cx="61" cy="15.1" r="3.3"/>
	<circle cx="50" cy="82.4" r="5"/>
</g>
</svg>
