<?xml version="1.0" encoding="utf-8"?>
<!-- Generator: Adobe Illustrator 22.0.1, SVG Export Plug-In . SVG Version: 6.00 Build 0)  -->
<svg version="1.1" id="Layer_1" xmlns="http://www.w3.org/2000/svg" xmlns:xlink="http://www.w3.org/1999/xlink" x="0px" y="0px"
	 viewBox="0 0 100 100" style="enable-background:new 0 0 100 100;" xml:space="preserve">
<path d="M89.3,19c-0.7-0.7-1.8-1.1-2.8-1.1l-10.9,0.4c-0.9-2.5-2.2-4.7-4-6.5c-3.7-3.9-8.6-5.4-13.4-7c-2.9-0.9-5.7-1.8-8.1-3.2
	c-1.3-0.7-3-0.3-3.7,1s-0.3,3,1,3.7c2.9,1.6,6.1,2.7,9.1,3.7c4.3,1.4,8.4,2.7,11.1,5.6c0.8,0.8,1.5,1.8,2,2.9l-15,0.5
	c-1,0-1.9,0.4-2.6,1.1L10.7,61.6c-1.5,1.5-1.5,3.9,0,5.4l30.7,30.7c0.7,0.7,1.7,1.1,2.7,1.1s1.9-0.4,2.7-1.1l41.5-41.5
	c0.7-0.7,1.1-1.6,1.1-2.6l1.1-31.8C90.4,20.8,90,19.8,89.3,19z M83.9,52.7L44.1,92.5L15.8,64.3l39.8-39.8l15.6-0.5
	c0,0.5,0,0.9,0,1.4c-0.1,3.5-1.3,7.1-3.6,10.5c-1.9,2.8-0.5,4.7,0,5.2c0.5,0.6,1.3,0.9,2,0.9c0.7,0,1.3-0.2,1.9-0.7
	c0.7-0.7,1-1.6,0.8-2.5c2.8-4.2,4.3-8.7,4.4-13.2c0-0.6,0-1.1,0-1.7l8.2-0.3L83.9,52.7z"/>
</svg>
