<?xml version="1.0" encoding="utf-8"?>
<!-- Generator: Adobe Illustrator 22.0.1, SVG Export Plug-In . SVG Version: 6.00 Build 0)  -->
<svg version="1.1" id="Layer_1" xmlns="http://www.w3.org/2000/svg" xmlns:xlink="http://www.w3.org/1999/xlink" x="0px" y="0px"
	 viewBox="0 0 100 100" style="enable-background:new 0 0 100 100;" xml:space="preserve">
<g>
	<path d="M97.3,47.3h-10C86,28.8,71.2,14,52.8,12.7V4.3c0-1.5-1.2-2.8-2.8-2.8s-2.8,1.2-2.8,2.8v8.4C28.8,14,14,28.8,12.7,47.3h-10
		C1.2,47.3,0,48.5,0,50s1.2,2.8,2.8,2.8h10C14,71.2,28.8,86,47.3,87.3v8.4c0,1.5,1.2,2.8,2.8,2.8s2.8-1.2,2.8-2.8v-8.4
		C71.2,86,86,71.2,87.3,52.8h10c1.5,0,2.8-1.2,2.8-2.8S98.8,47.3,97.3,47.3z M52.8,81.8v-3.1c0-1.5-1.2-2.8-2.8-2.8
		s-2.8,1.2-2.8,2.8v3.1c-15.4-1.3-27.8-13.6-29.1-29.1h3.1c1.5,0,2.8-1.2,2.8-2.8s-1.2-2.8-2.8-2.8h-3.1
		c1.3-15.4,13.6-27.8,29.1-29.1v3.1c0,1.5,1.2,2.8,2.8,2.8s2.8-1.2,2.8-2.8v-3.1c15.4,1.3,27.8,13.6,29.1,29.1h-2.5
		c-1.5,0-2.8,1.2-2.8,2.8s1.2,2.8,2.8,2.8h2.5C80.5,68.2,68.2,80.5,52.8,81.8z"/>
	<path d="M53.3,53.2c4.9-1.4,8.5-5.9,8.5-11.3c0-6.5-5.3-11.7-11.7-11.7s-11.7,5.3-11.7,11.7c0,5.3,3.6,9.8,8.5,11.3
		c-6.6,0.7-12.9,3.4-18,7.9c-1.1,1-1.2,2.7-0.2,3.9c1,1.1,2.7,1.2,3.9,0.2c4.9-4.3,11.1-6.7,17.6-6.7s12.8,2.4,17.6,6.7
		c0.5,0.5,1.2,0.7,1.8,0.7c0.8,0,1.5-0.3,2.1-0.9c1-1.1,0.9-2.9-0.2-3.9C66.2,56.6,59.9,53.9,53.3,53.2z M43.8,41.9
		c0-3.4,2.8-6.2,6.2-6.2c3.4,0,6.2,2.8,6.2,6.2s-2.8,6.2-6.2,6.2C46.6,48.2,43.8,45.4,43.8,41.9z"/>
</g>
</svg>
