<?xml version="1.0" encoding="utf-8"?>
<!-- Generator: Adobe Illustrator 22.0.1, SVG Export Plug-In . SVG Version: 6.00 Build 0)  -->
<svg version="1.1" id="Layer_2_1_" xmlns="http://www.w3.org/2000/svg" xmlns:xlink="http://www.w3.org/1999/xlink" x="0px" y="0px"
	 viewBox="0 0 100 100" style="enable-background:new 0 0 100 100;" xml:space="preserve">
<path d="M97.3,47.3h-10C86,28.8,71.2,14,52.8,12.7V4.3c0-1.5-1.2-2.8-2.8-2.8s-2.8,1.2-2.8,2.8v8.4C28.8,14,14,28.8,12.7,47.3h-10
	c-1.5,0-2.8,1.2-2.8,2.8s1.2,2.8,2.8,2.8h10C14,71.2,28.8,86,47.3,87.3v8.4c0,1.5,1.2,2.8,2.8,2.8s2.8-1.2,2.8-2.8v-8.4
	C71.2,86,86,71.2,87.3,52.8h10c1.5,0,2.8-1.2,2.8-2.8S98.8,47.3,97.3,47.3z M81.8,47.3H68.9c-1.2-8.3-7.8-14.9-16.1-16.1V18.2
	C68.2,19.5,80.5,31.8,81.8,47.3z M50,58.6c-1.5,0-2.8,1.2-2.8,2.8v2C42,62.2,37.8,58,36.7,52.8h2c1.5,0,2.8-1.2,2.8-2.8
	s-1.2-2.8-2.8-2.8h-2c1.1-5.3,5.3-9.5,10.5-10.5v2c0,1.5,1.2,2.8,2.8,2.8s2.8-1.2,2.8-2.8v-2c5.3,1.1,9.5,5.3,10.5,10.5h-2
	c-1.5,0-2.8,1.2-2.8,2.8s1.2,2.8,2.8,2.8h2C62.2,58,58,62.2,52.8,63.3v-2C52.8,59.8,51.5,58.6,50,58.6z M47.3,18.2v12.9
	c-8.3,1.2-14.9,7.8-16.1,16.1H18.2C19.5,31.8,31.8,19.5,47.3,18.2z M18.2,52.8h12.9c1.2,8.3,7.8,14.9,16.1,16.1v12.9
	C31.8,80.5,19.5,68.2,18.2,52.8z M52.8,81.8V68.9c8.3-1.2,14.9-7.8,16.1-16.1h12.9C80.5,68.2,68.2,80.5,52.8,81.8z"/>
</svg>
