<?xml version="1.0" encoding="utf-8"?>
<!-- Generator: Adobe Illustrator 21.0.2, SVG Export Plug-In . SVG Version: 6.00 Build 0)  -->
<svg version="1.1" id="Layer_1" xmlns="http://www.w3.org/2000/svg" xmlns:xlink="http://www.w3.org/1999/xlink" x="0px" y="0px"
	 viewBox="0 0 100 100" style="enable-background:new 0 0 100 100;" xml:space="preserve">
<g>
	<path d="M97.3,47.3h-10C86,28.8,71.2,14,52.8,12.7V4.3c0-1.5-1.2-2.8-2.8-2.8s-2.8,1.2-2.8,2.8v8.4C28.8,14,14,28.8,12.7,47.3h-10
		C1.2,47.3,0,48.5,0,50s1.2,2.8,2.8,2.8h10C14,71.2,28.8,86,47.3,87.3v8.4c0,1.5,1.2,2.8,2.8,2.8c1.6,0,2.8-1.2,2.8-2.8v-8.4
		C71.2,86,86,71.2,87.3,52.8h10c1.5,0,2.8-1.2,2.8-2.8S98.8,47.3,97.3,47.3z M79.4,52.7h2.5c-1.4,15.5-13.7,27.8-29.1,29.1v-3.1
		c0-1.5-1.2-2.8-2.8-2.8s-2.8,1.2-2.8,2.8v3.1c-15.4-1.3-27.8-13.6-29.1-29.1h3.1c1.5,0,2.8-1.2,2.8-2.8c0-1.6-1.2-2.8-2.8-2.8h-3.1
		C19.4,31.7,31.7,19.3,47.2,18v3.1c0,1.5,1.2,2.8,2.8,2.8s2.8-1.2,2.8-2.8V18c15.4,1.3,27.8,13.6,29.1,29.1h-2.5
		c-1.5,0-2.8,1.2-2.8,2.8C76.6,51.5,77.8,52.7,79.4,52.7z"/>
	<path d="M53.5,46.3h-9.1c-1.9,0-3.4-1.5-3.4-3.4c0-0.9,0.4-1.8,1-2.4c0.6-0.6,1.5-1,2.4-1h13.1c1.5,0,2.8-1.2,2.8-2.8
		s-1.2-2.8-2.8-2.8h-5.2V32c0-1.5-1.2-2.8-2.8-2.8s-2.8,1.2-2.8,2.8v1.9h-2.4c-2.4,0-4.6,0.9-6.3,2.6c-1.7,1.7-2.6,3.9-2.6,6.3
		c0,4.9,4,8.9,8.9,8.9h9.1c1.9,0,3.4,1.5,3.4,3.4s-1.5,3.4-3.4,3.4h-3.8c0,0-0.1,0-0.1,0s-0.1,0-0.1,0h-9.1c-1.5,0-2.8,1.2-2.8,2.8
		s1.2,2.8,2.8,2.8h6.5V66c0,1.5,1.2,2.8,2.8,2.8s2.8-1.2,2.8-2.8v-1.9h1.2c4.9,0,8.9-4,8.9-8.9C62.4,50.3,58.4,46.3,53.5,46.3z"/>
</g>
</svg>
