<?xml version="1.0" encoding="utf-8"?>
<!-- Generator: Adobe Illustrator 22.0.1, SVG Export Plug-In . SVG Version: 6.00 Build 0)  -->
<svg version="1.1" id="Layer_1" xmlns="http://www.w3.org/2000/svg" xmlns:xlink="http://www.w3.org/1999/xlink" x="0px" y="0px"
	 viewBox="0 0 100 100" style="enable-background:new 0 0 100 100;" xml:space="preserve">
<g>
	<path d="M91.5,38.7l-8.8-21.1c-1.5-3.6-4.9-5.9-8.8-5.9H60.2l-2.3-5.5c-0.3-0.7-1-1.2-1.8-1.2H43.9c-0.8,0-1.5,0.5-1.8,1.2
		l-2.3,5.5H26c-3.9,0-7.3,2.3-8.8,5.9L8.5,38.7c-2.3,0-4,1.7-4,4v31.9c0,2.3,1.7,4,4,4h2.2v7.9c0,3.1,2.5,5.7,5.6,5.7h7.5
		c3.1,0,5.6-2.5,5.6-5.7v-7.9h41.2v7.9c0,3.1,2.5,5.7,5.7,5.7h7.5c3.1,0,5.6-2.5,5.6-5.7v-7.9h1.9c2.2,0,4-1.8,4-4V42.8
		C95.5,40.5,93.8,38.7,91.5,38.7z M24,86.6c0,0.1-0.1,0.2-0.1,0.2h-7.5c-0.1,0-0.1-0.1-0.1-0.2V79H24V86.6z M84,86.6
		c0,0.1-0.1,0.2-0.1,0.2h-7.5c-0.1,0-0.2-0.1-0.2-0.2V79H84V86.6z M22.3,19.7c0.6-1.5,2.1-2.5,3.7-2.5H74c1.6,0,3.1,1,3.7,2.5
		l7.9,19H14.5L22.3,19.7z M90,73.2H10v-29h80V73.2z"/>
	<path d="M22.6,61.5h11.8c1.5,0,2.8-1.2,2.8-2.8S35.9,56,34.4,56H22.6c-1.5,0-2.8,1.2-2.8,2.8S21.1,61.5,22.6,61.5z"/>
	<path d="M65.6,61.5h11.8c1.5,0,2.8-1.2,2.8-2.8S78.9,56,77.4,56H65.6c-1.5,0-2.8,1.2-2.8,2.8S64.1,61.5,65.6,61.5z"/>
</g>
</svg>
