<?xml version="1.0" encoding="utf-8"?>
<!-- Generator: Adobe Illustrator 22.0.1, SVG Export Plug-In . SVG Version: 6.00 Build 0)  -->
<svg version="1.1" id="Layer_2_1_" xmlns="http://www.w3.org/2000/svg" xmlns:xlink="http://www.w3.org/1999/xlink" x="0px" y="0px"
	 viewBox="0 0 100 100" style="enable-background:new 0 0 100 100;" xml:space="preserve">
<g>
	<path d="M21.4,49h12.9c1.5,0,2.7-1.2,2.7-2.7v-2.5c0-1.5-1.2-2.7-2.7-2.7H21.4c-1.5,0-2.7,1.2-2.7,2.7v2.5
		C18.7,47.8,19.9,49,21.4,49z"/>
	<path d="M96.6,70.2L88.9,63V34.4C88.9,16.8,74.6,2.5,57,2.5c-16,0-29.3,11-31.5,26.3H9.6c-2.3,0-4.2,1.5-4.8,3.7L2,43.7
		c-0.1,0.4-0.1,0.8-0.1,1.2v47.6c0,2.7,2.2,4.9,4.9,4.9h42.1c2.7,0,4.9-2.2,4.9-4.9V44.9c0-0.4,0-0.8-0.1-1.2l-2.8-11.2
		c-0.6-2.2-2.5-3.7-4.8-3.7H31C33.2,16.6,44,8,57,8c14.5,0,26.4,11.8,26.4,26.4v28.4l-8,7.4c-1,0.9-1.6,2.3-1.6,3.6v18.7
		c0,2.7,2.2,4.9,4.9,4.9h14.5c2.7,0,4.9-2.2,4.9-4.9V73.8C98.2,72.4,97.6,71.1,96.6,70.2z M48.3,45v47h-41V45L10,34.3h35.7L48.3,45z
		 M92.7,92H79.3V74l6.7-6.2l6.7,6.2V92z"/>
</g>
</svg>
