<?xml version="1.0" encoding="utf-8"?>
<!-- Generator: Adobe Illustrator 21.0.2, SVG Export Plug-In . SVG Version: 6.00 Build 0)  -->
<svg version="1.1" id="Layer_1" xmlns="http://www.w3.org/2000/svg" xmlns:xlink="http://www.w3.org/1999/xlink" x="0px" y="0px"
	 viewBox="0 0 100 100" style="enable-background:new 0 0 100 100;" xml:space="preserve">
<g>
	<path d="M83.6,16.4c-9-9-20.9-13.9-33.6-13.9c-12.7,0-24.6,4.9-33.6,13.9c-9,9-13.9,20.9-13.9,33.6c0,12.7,4.9,24.6,13.9,33.6
		c9,9,20.9,13.9,33.6,13.9c12.7,0,24.6-4.9,33.6-13.9c9-9,13.9-20.9,13.9-33.6C97.5,37.3,92.6,25.4,83.6,16.4z M50,92.9
		C26.3,92.9,7.1,73.7,7.1,50S26.3,7.1,50,7.1c23.7,0,42.9,19.3,42.9,42.9S73.7,92.9,50,92.9z"/>
	<path d="M72.4,28c-1.7-1.1-4.1-0.2-4.8,0.1L22.3,45.8c-1.6,0.6-3.4,1.9-3.1,4c0.3,2.4,2.8,3.3,3.1,3.4c0,0,0,0,0,0l10.5,3.5
		c0.8,2.7,3.3,10.8,3.9,12.6c0.5,1.5,1.1,3.2,2.7,3.3c0.2,0.1,0.5,0.1,0.9,0.1c1,0,1.6-0.3,2-0.8l6.1-5.6l10.3,7.9
		c0.1,0.1,0.2,0.2,0.4,0.2c0.9,0.4,1.6,0.5,2.3,0.5c0.7,0,1.3-0.2,1.7-0.3c1.8-0.7,2.5-2.4,2.6-2.6c0-0.1,0.1-0.2,0.1-0.3l8.1-40.7
		c0-0.1,0-0.2,0-0.3C73.8,29.1,72.9,28.3,72.4,28z M41.8,67.6l0.6-5.6l3,2.3L41.8,67.6z M62.2,70.9c-0.1,0.1-0.3,0.4-0.6,0.6
		c-0.3,0.1-0.6,0.1-1-0.1l-11.3-8.7l-5.6-4.4c4.7-4.2,19.4-17.4,20.1-18.1c0.6-0.6,1.3-1.3,1.2-2.4c0-0.1,0-0.2-0.1-0.3
		c-0.1-0.6-0.4-1.2-1-1.5c-1.1-0.6-2.3-0.2-3.2,0.4c0,0,0,0,0,0L34,53.5l-10.6-3.6c-0.2-0.1-0.5-0.2-0.6-0.4
		c0.2-0.1,0.4-0.3,0.6-0.3c0,0,0,0,0.1,0l45.3-17.8c0,0,0,0,0.1,0c0.3-0.1,0.8-0.3,1.2-0.3L62.2,70.9z"/>
</g>
</svg>
