<?xml version="1.0" encoding="utf-8"?>
<!-- Generator: Adobe Illustrator 22.0.1, SVG Export Plug-In . SVG Version: 6.00 Build 0)  -->
<svg version="1.1" id="Layer_1" xmlns="http://www.w3.org/2000/svg" xmlns:xlink="http://www.w3.org/1999/xlink" x="0px" y="0px"
	 viewBox="0 0 100 100" style="enable-background:new 0 0 100 100;" xml:space="preserve">
<path d="M12.7,70.4h8.9c1.2,0,2.5-0.9,2.8-1.8l3.3-8.2h24.9l3,8.2c0.3,1.2,1.6,1.8,2.8,1.8h9.4c2.5-0.3,4-2.5,3-4.3L49,15
	c-0.5-1.3-1.5-1.8-2.8-1.8H34.8c-1.2,0-2.5,0.5-2.8,1.8L10,66.3C9.1,68.3,10.5,70.4,12.7,70.4z M40.2,28l7.9,20.6H32.3L40.2,28z"/>
<path d="M78.5,84.7h-68c-1.5,0-2.8,1.2-2.8,2.8c0,1.6,1.2,2.8,2.8,2.8h68c1.5,0,2.8-1.2,2.8-2.8C81.3,85.9,80,84.7,78.5,84.7z"/>
<path d="M89.5,11.7c-1.6,0-2.8,1.2-2.8,2.8v54c0,1.5,1.2,2.8,2.8,2.8c1.6,0,2.8-1.3,2.8-2.8v-54C92.3,13,91.1,11.7,89.5,11.7z"/>
</svg>
