<?xml version="1.0" encoding="utf-8"?>
<!-- Generator: Adobe Illustrator 22.0.1, SVG Export Plug-In . SVG Version: 6.00 Build 0)  -->
<svg version="1.1" id="Layer_1" xmlns="http://www.w3.org/2000/svg" xmlns:xlink="http://www.w3.org/1999/xlink" x="0px" y="0px"
	 viewBox="0 0 100 100" style="enable-background:new 0 0 100 100;" xml:space="preserve">
<g>
	<path d="M67.8,15.4H5c-1.5,0-2.8-1.2-2.8-2.8S3.5,9.9,5,9.9h62.8c1.5,0,2.8,1.2,2.8,2.8S69.3,15.4,67.8,15.4z"/>
	<path d="M5,34.8h76.4c1.5,0,2.8,1.2,2.8,2.8s-1.2,2.8-2.8,2.8H5c-1.5,0-2.8-1.2-2.8-2.8S3.5,34.8,5,34.8z"/>
	<path d="M5,59.7h53.6c1.5,0,2.8,1.2,2.8,2.8s-1.2,2.8-2.8,2.8H5c-1.5,0-2.8-1.2-2.8-2.8S3.5,59.7,5,59.7z"/>
	<path d="M5,84.6h90c1.5,0,2.8,1.2,2.8,2.8s-1.2,2.8-2.8,2.8H5c-1.5,0-2.8-1.2-2.8-2.8S3.5,84.6,5,84.6z"/>
</g>
</svg>
