<?xml version="1.0" encoding="utf-8"?>
<!-- Generator: Adobe Illustrator 22.0.1, SVG Export Plug-In . SVG Version: 6.00 Build 0)  -->
<svg version="1.1" id="Layer_1" xmlns="http://www.w3.org/2000/svg" xmlns:xlink="http://www.w3.org/1999/xlink" x="0px" y="0px"
	 viewBox="0 0 100 100" style="enable-background:new 0 0 100 100;" xml:space="preserve">
<path d="M8.7,68.7h8.9c1.2,0,2.5-0.9,2.8-1.8l3.3-8.2h24.9l3,8.2c0.3,1.2,1.6,1.8,2.8,1.8h9.4c2.5-0.3,4-2.5,3-4.3L45,13.3
	c-0.5-1.3-1.5-1.8-2.8-1.8H30.8c-1.2,0-2.5,0.5-2.8,1.8L6,64.5C5.1,66.6,6.5,68.7,8.7,68.7z M36.2,26.2l7.9,20.6H28.3L36.2,26.2z"/>
<path d="M95.5,63.9l-5.8-5.8l5.8-5.8c1.1-1.2,1.1-2.9,0-4s-2.8-1.1-4,0l-5.8,5.8l-5.8-5.8c-1.2-1.1-2.9-1.1-4,0s-1.1,2.8,0,4
	l5.8,5.8l-5.8,5.8c-1.1,1.1-1.1,2.8,0,4c1.1,1.1,2.8,1.1,4,0l5.8-5.8l5.8,5.8c1.1,1.1,2.8,1.1,4,0C96.6,66.8,96.6,65.1,95.5,63.9z"
	/>
<path d="M74.5,83h-68c-1.5,0-2.8,1.2-2.8,2.8c0,1.6,1.2,2.8,2.8,2.8h68c1.5,0,2.8-1.2,2.8-2.8S76,83,74.5,83z"/>
</svg>
