<?xml version="1.0" encoding="utf-8"?>
<!-- Generator: Adobe Illustrator 22.0.1, SVG Export Plug-In . SVG Version: 6.00 Build 0)  -->
<svg version="1.1" id="Layer_1" xmlns="http://www.w3.org/2000/svg" xmlns:xlink="http://www.w3.org/1999/xlink" x="0px" y="0px"
	 viewBox="0 0 100 100" style="enable-background:new 0 0 100 100;" xml:space="preserve">
<g>
	<path d="M96.8,70.5l-18.1-43c-0.5-1.1-1.3-1.5-2.2-1.5h-9.7c-1.1,0-2,0.5-2.2,1.5l-18.6,43c-0.7,1.8,0.5,3.5,2.2,3.5h7.4
		c1.1,0,2-0.7,2.2-1.5l2.8-6.8h20.9l2.6,6.8c0.2,1.1,1.3,1.5,2.2,1.5h7.9C96.3,73.8,97.5,72.1,96.8,70.5z M64.7,55.8l6.6-17.3
		l6.6,17.3H64.7z"/>
	<path d="M31.6,72L21.5,48c-0.3-0.6-0.7-0.8-1.3-0.8h-5.4c-0.6,0-1.1,0.3-1.3,0.8L3.1,72c-0.4,1,0.3,2,1.3,2h4.1
		c0.6,0,1.1-0.4,1.3-0.8l1.6-3.8H23l1.4,3.8c0.1,0.6,0.7,0.8,1.3,0.8h4.4C31.3,73.9,32,72.9,31.6,72z M13.6,63.8l3.7-9.7l3.7,9.7
		H13.6z"/>
</g>
</svg>
