<?xml version="1.0" encoding="utf-8"?>
<!-- Generator: Adobe Illustrator 22.0.1, SVG Export Plug-In . SVG Version: 6.00 Build 0)  -->
<svg version="1.1" id="Layer_2_1_" xmlns="http://www.w3.org/2000/svg" xmlns:xlink="http://www.w3.org/1999/xlink" x="0px" y="0px"
	 viewBox="0 0 100 100" style="enable-background:new 0 0 100 100;" xml:space="preserve">
<g>
	<path d="M69.7,64.5c13,0,23.6-10.6,23.6-23.6c0-9.8-6-18.5-15-22C75.6,8.7,66.3,1.5,55.6,1.5c-9.3,0-17.6,5.5-21.4,13.8
		c-1.3-0.2-2.6-0.3-3.9-0.3c-13,0-23.6,10.6-23.6,23.6c0,8.9,5.1,17.1,13.1,21.1c4.3,6.5,11.7,10.5,19.5,10.5
		c7.3,0,14.1-3.3,18.5-8.9C61.5,63.4,65.6,64.5,69.7,64.5z M54.8,56.1c-3.3,5.4-9.1,8.6-15.5,8.6c-6.2,0-12-3.3-15.3-8.6l-0.4-0.7
		L22.8,55c-6.5-2.9-10.7-9.4-10.7-16.5c0-10,8.1-18.1,18.1-18.1c1.6,0,3.2,0.2,4.9,0.7l2.5,0.7l0.8-2.4C41,12,47.8,7,55.6,7
		c8.6,0,16,6.1,17.7,14.6l0.3,1.6l1.6,0.5C82.7,26,87.8,33,87.8,40.9c0,10-8.1,18.1-18.1,18.1c-3.9,0-7.6-1.3-10.9-3.7l-2.4-1.8
		L54.8,56.1z"/>
	<ellipse transform="matrix(0.9732 -0.2298 0.2298 0.9732 -16.7294 17.1818)" cx="65.4" cy="80.4" rx="7.7" ry="7.7"/>
	<path d="M82.7,87.4c-3.1,0-5.5,2.5-5.5,5.5s2.5,5.5,5.5,5.5c3,0,5.4-2.4,5.5-5.5V93C88.3,89.9,85.8,87.4,82.7,87.4z"/>
</g>
</svg>
