<?xml version="1.0" encoding="utf-8"?>
<!-- Generator: Adobe Illustrator 22.0.1, SVG Export Plug-In . SVG Version: 6.00 Build 0)  -->
<svg version="1.1" id="Layer_2_1_" xmlns="http://www.w3.org/2000/svg" xmlns:xlink="http://www.w3.org/1999/xlink" x="0px" y="0px"
	 viewBox="0 0 100 100" style="enable-background:new 0 0 100 100;" xml:space="preserve">
<path d="M84.1,11.5L84.1,11.5c-7-4.8-17-7.6-27.5-7.6c-1.7,0-3.4,0-5.4,0.2C38,5.4,29.8,7.5,25.6,10.7c-0.4,0-0.8-0.1-1.2-0.1H12.6
	c-5.8,0-10.5,4.7-10.5,10.5v32.3c0,5.9,4.7,10.7,10.5,10.7h11.8c0.6,0,1.3-0.1,2-0.2c0.3,0.2,0.6,0.3,1,0.4
	c2.5,1,11.3,8.8,21.7,25.8c2.2,3.8,6.1,6,10.3,6c0.3,0,0.7,0,1,0c4.5-0.4,8.4-3,10.3-6.9c1.9-3.9,1-13.4,0-20.3
	c8.8,0.1,20.4-0.4,24.3-9.7C101.1,45.3,97.6,20.9,84.1,11.5z M7.6,53.4V21.1c0-2.8,2.2-5,5-5h11.1v42.5H12.6
	C9.8,58.6,7.6,56.3,7.6,53.4z M90,57.1c-2.8,6.7-14.1,6.5-21.5,6.3l-4.2,0l0.5,3.2c1.6,9.7,2.1,18,1,20.2c-1.1,2.2-3.2,3.6-5.8,3.9
	c-2.5,0.2-4.8-1-6.2-3.3c-10.4-16.9-20-26.4-24.6-28.1l-0.1,0V14.9c2.2-1.6,7.9-3.9,22.5-5.3c1.8-0.2,3.2-0.2,4.8-0.2
	c9.4,0,18.3,2.4,24.4,6.6C91.9,23.6,95.1,45.3,90,57.1z"/>
</svg>
