<?xml version="1.0" encoding="utf-8"?>
<!-- Generator: Adobe Illustrator 22.0.1, SVG Export Plug-In . SVG Version: 6.00 Build 0)  -->
<svg version="1.1" id="Layer_2_1_" xmlns="http://www.w3.org/2000/svg" xmlns:xlink="http://www.w3.org/1999/xlink" x="0px" y="0px"
	 viewBox="0 0 100 100" style="enable-background:new 0 0 100 100;" xml:space="preserve">
<path d="M95,40.8c-3.9-9.3-15.5-9.8-24.3-9.7c1-6.9,1.9-16.3,0-20.3c-1.9-4-5.8-6.6-10.3-6.9c-0.3,0-0.7,0-1,0
	c-4.3,0-8.1,2.2-10.3,6c-10.4,17-19.2,24.8-21.7,25.8c-0.4,0.1-0.7,0.3-1,0.4c-0.7-0.1-1.3-0.2-2-0.2H12.6
	c-5.8,0-10.5,4.8-10.5,10.7v32.3c0,5.8,4.7,10.5,10.5,10.5h11.8c0.4,0,0.8,0,1.2-0.1c4.2,3.2,12.4,5.3,25.5,6.6
	c2,0.2,3.7,0.2,5.4,0.2c10.5,0,20.5-2.8,27.5-7.6l0,0C97.6,79.1,101.1,54.7,95,40.8z M12.6,41.4h11.1v42.5H12.6c-2.8,0-5-2.2-5-5
	V46.6C7.6,43.7,9.8,41.4,12.6,41.4z M80.9,84c-6.1,4.2-15,6.6-24.4,6.6c-1.7,0-3.1,0-4.8-0.2c-14.6-1.4-20.3-3.8-22.5-5.3V40.9
	l0.1,0c4.6-1.7,14.2-11.2,24.6-28.1c1.4-2.3,3.6-3.5,6.2-3.3c2.6,0.2,4.7,1.6,5.8,3.9c1.1,2.2,0.7,10.5-1,20.2l-0.5,3.2l4.2,0
	c7.4-0.2,18.6-0.4,21.5,6.3C95.1,54.7,91.9,76.4,80.9,84z"/>
</svg>
