<?xml version="1.0" encoding="utf-8"?>
<!-- Generator: Adobe Illustrator 21.0.2, SVG Export Plug-In . SVG Version: 6.00 Build 0)  -->
<svg version="1.1" id="Layer_1" xmlns="http://www.w3.org/2000/svg" xmlns:xlink="http://www.w3.org/1999/xlink" x="0px" y="0px"
	 viewBox="0 0 100 100" style="enable-background:new 0 0 100 100;" xml:space="preserve">
<g>
	<path d="M84.3,29.3c-1.2-1-2.6-1.9-4-2.6c-2.6-1.4-5.3-2.3-8.2-2.8C69,18.8,64.1,15,58.4,13l-0.1,0c-0.5-0.2-5.3-1.5-8.1-1.5
		c-14,0-25.5,11.1-26.1,25c-10.5,1-18.8,9.8-18.8,20.6c0,11.4,9.3,20.7,20.7,20.7c1.5,0,2.8-1.2,2.8-2.8s-1.2-2.8-2.8-2.8
		c-8.4,0-15.2-6.8-15.2-15.2s6.8-15.2,15.2-15.2h3.6v-4.3c0-11.4,9.2-20.6,20.6-20.6c1.6,0,4.8,0.8,6.6,1.2c4.8,1.7,9,5.2,11.4,9.5
		l0.7,1.3l1.4,0.2c2.6,0.3,5.2,1.1,7.6,2.3c1.1,0.6,2.2,1.3,3.1,2.1c5.4,4.3,8.5,10.5,8.5,17c0,12-9.7,21.7-21.7,21.7
		c-1.5,0-2.8,1.2-2.8,2.8s1.2,2.8,2.8,2.8c15,0,27.2-12.2,27.2-27.2C94.8,42.4,90.9,34.6,84.3,29.3z"/>
	<path d="M59.1,64.7L49,64.6c-0.1,0-0.2-0.1-0.2-0.3l3.2-13.9c0-0.1-0.1-0.3-0.2-0.3c0,0-0.1,0.1-0.2,0.2L37.6,70.7
		c0,0.1,0,0.3,0.2,0.3h9.3c0.1,0,0.2,0.1,0.2,0.3l-4,17c0,0.1,0.1,0.3,0.2,0.3c0.1,0,0.1,0,0.2-0.1L59.4,65
		C59.4,64.9,59.4,64.7,59.1,64.7z"/>
</g>
</svg>
