<?xml version="1.0" encoding="utf-8"?>
<!-- Generator: Adobe Illustrator 22.0.1, SVG Export Plug-In . SVG Version: 6.00 Build 0)  -->
<svg version="1.1" id="Layer_1" xmlns="http://www.w3.org/2000/svg" xmlns:xlink="http://www.w3.org/1999/xlink" x="0px" y="0px"
	 viewBox="0 0 100 100" style="enable-background:new 0 0 100 100;" xml:space="preserve">
<g>
	<path d="M57.5,38.7h-9.9c-0.4,0-0.8,0.3-0.9,0.7l-5.1,14c-0.1,0.3,0.1,0.7,0.5,0.7h3.5l-3.3,16c-0.2,1.1,1.2,1.7,1.8,0.8l12.8-19.1
		c0.2-0.3,0-0.8-0.4-0.8h-3l4.9-10.9C58.7,39.5,58.2,38.7,57.5,38.7z"/>
	<path d="M97.8,56.4c0-7.2-2.7-14.2-7.6-19.6c-0.2-0.2-0.3-0.3-0.5-0.4c-4.3-4.5-9.9-7.5-16-8.4c-3.3-5.5-8.4-9.6-14.5-11.8
		c0,0,0,0,0,0c0,0,0,0,0,0c0,0,0,0-0.1,0l0,0c-2.7-1-5.6-1.6-8.9-1.6c-15,0-27.3,12-27.8,26.9c-11.2,1-20,10.5-20,22
		c0,11.9,9.6,21.7,21.4,21.9c0,0,0.1,0,0.1,0h46c0.1,0,0.2,0,0.3,0C85.5,84.7,97.8,72,97.8,56.4z M68.8,79.9H24.2
		c-9.1,0-16.5-7.4-16.5-16.5c0-9.1,7.4-16.5,16.5-16.5h3.5v-4.5c0-12.3,10-22.3,22.3-22.3c2.7,0,5,0.4,7,1.2c0,0,0.1,0,0.1,0l0,0
		c5.3,1.8,9.6,5.6,12.3,10.5l0.7,1.3l1.4,0.2c5.5,0.6,10.6,3.2,14.4,7.3l0.1-0.1c0,0,0,0,0,0.1c4,4.4,6.2,10,6.2,15.8
		C92.3,69.4,81.7,79.9,68.8,79.9z"/>
</g>
</svg>
