<?xml version="1.0" encoding="utf-8"?>
<!-- Generator: Adobe Illustrator 22.0.1, SVG Export Plug-In . SVG Version: 6.00 Build 0)  -->
<svg version="1.1" id="Layer_2_1_" xmlns="http://www.w3.org/2000/svg" xmlns:xlink="http://www.w3.org/1999/xlink" x="0px" y="0px"
	 viewBox="0 0 100 100" style="enable-background:new 0 0 100 100;" xml:space="preserve">
<g>
	<path d="M86.7,1.7H13.3c-2.4,0-4.2,1.8-4.2,4.2v87.9c0,1.8,1.1,3.4,2.8,4c1.7,0.6,3.6,0,4.7-1.5l6.9-10.6L32,96.7
		c0.8,1,2,1.6,3.2,1.6c1.2,0,2.4-0.5,3.1-1.5l10.2-11.5l10.6,11.5c0.8,1,2,1.5,3.3,1.4c1.3-0.1,2.4-0.7,3.1-1.7l8.8-11.1l9.1,11.1
		c1.1,1.4,3,2,4.6,1.4c1.7-0.6,2.8-2.1,2.8-3.8V5.9C90.9,3.5,89.1,1.7,86.7,1.7z M85.4,90.1l-7.8-9.5l-0.2-0.2
		c-0.9-0.9-2.1-1.4-3.3-1.3c-1.2,0.1-2.3,0.6-3,1.6l-8.9,11.3L51.6,80.5l-0.1-0.1c-0.8-0.8-1.9-1.2-3-1.2c-1.1,0-2.2,0.4-3,1.2
		L35.2,92l-8.5-11.2c-0.8-1-2-1.6-3.3-1.6c-1.3,0-2.5,0.6-3.3,1.6l-5.5,8.4v-82h70.7V90.1z"/>
	<path d="M45.3,37.3l2.3,0v2c0,0.6,0.4,1,1,1h3.5c0.6,0,1-0.4,1-1v-2.7c2-1,3.4-3.1,3.4-5.4c0-1.9-0.7-3.4-2.1-4.7c0,0,0,0,0,0
		L50.6,23c-0.1-0.3-0.3-0.5-0.5-0.7L50,22.2c0,0-0.2-0.2-0.2-0.4c0-0.3,0.3-0.6,0.6-0.6l4.7,0c1.3,0,2.5-0.9,2.8-2.2
		c0.3-1.8-1-3.3-2.7-3.3h-2V14c0-0.6-0.4-1-1-1h-3.5c-0.6,0-1,0.4-1,1v2.3c-2,1-3.4,3.1-3.4,5.4c0,1.2,0.3,2.3,1,3.3
		c0.1,0.5,0.4,0.9,0.8,1.3l4.6,4.2c0,0,0,0,0,0c0,0,0,0,0,0c0.3,0.2,0.3,0.3,0.3,0.6c0,0.3-0.3,0.6-0.6,0.6h-5.2
		c-1.7,0-3,1.5-2.7,3.3C42.8,36.4,44,37.3,45.3,37.3z"/>
	<path d="M33.3,54.2h30.9c1.5,0,2.8-1.2,2.8-2.8s-1.2-2.8-2.8-2.8H33.3c-1.5,0-2.8,1.2-2.8,2.8S31.8,54.2,33.3,54.2z"/>
	<path d="M61,63H36.5c-1.5,0-2.8,1.2-2.8,2.8s1.2,2.8,2.8,2.8H61c1.5,0,2.8-1.2,2.8-2.8S62.5,63,61,63z"/>
</g>
</svg>
