<?xml version="1.0" encoding="utf-8"?>
<!-- Generator: Adobe Illustrator 22.0.1, SVG Export Plug-In . SVG Version: 6.00 Build 0)  -->
<svg version="1.1" id="Layer_2_1_" xmlns="http://www.w3.org/2000/svg" xmlns:xlink="http://www.w3.org/1999/xlink" x="0px" y="0px"
	 viewBox="0 0 100 100" style="enable-background:new 0 0 100 100;" xml:space="preserve">
<g>
	<path d="M94.3,40.6c1.9-0.1,3.5-1.8,3.5-3.7V23.3c0-2.1-1.7-3.8-3.8-3.8H6c-2.1,0-3.8,1.7-3.8,3.8V37c0,2,1.5,3.6,3.4,3.7
		c4.9,0.4,8.7,4.5,8.7,9.4c0,4.9-3.8,8.9-8.7,9.3c-1.9,0.1-3.5,1.8-3.5,3.7v13.5c0,2.1,1.7,3.8,3.8,3.8h88c2.1,0,3.8-1.7,3.8-3.8
		V63.1c0-2-1.5-3.6-3.4-3.7c-4.9-0.4-8.7-4.5-8.7-9.4C85.6,45,89.3,40.9,94.3,40.6z M92.3,64.7v10.3H7.8V64.7
		c7-1.3,12.2-7.4,12.2-14.5c0-7.2-5.2-13.4-12.2-14.7V25.1h84.5v10.3c-7.1,1.3-12.2,7.3-12.2,14.7C80.1,57.2,85.3,63.4,92.3,64.7z"
		/>
	<path d="M48.6,59.9c-2.2,0-3.9,1.8-3.9,3.9v3.7c0,2.2,1.8,3.9,3.9,3.9c2.2,0,3.9-1.7,3.9-3.9v-3.7C52.5,61.6,50.8,59.9,48.6,59.9z"
		/>
	<path d="M48.6,44.2c-2.2,0-3.9,1.8-3.9,3.9v3.7c0,2.2,1.8,3.9,3.9,3.9c2.2,0,3.9-1.7,3.9-3.9v-3.7C52.5,45.8,50.8,44.2,48.6,44.2z"
		/>
	<path d="M48.6,28.5c-2.2,0-3.9,1.8-3.9,3.9v3.7c0,2.2,1.8,3.9,3.9,3.9c2.2,0,3.9-1.8,3.9-3.9v-3.7C52.5,30.1,50.8,28.5,48.6,28.5z"
		/>
</g>
</svg>
