<?xml version="1.0" encoding="utf-8"?>
<!-- Generator: Adobe Illustrator 22.0.1, SVG Export Plug-In . SVG Version: 6.00 Build 0)  -->
<svg version="1.1" id="Layer_2_1_" xmlns="http://www.w3.org/2000/svg" xmlns:xlink="http://www.w3.org/1999/xlink" x="0px" y="0px"
	 viewBox="0 0 100 100" style="enable-background:new 0 0 100 100;" xml:space="preserve">
<g>
	<path d="M52.8,15.8v-7H58c1.5,0,2.8-1.2,2.8-2.8S59.6,3.2,58,3.2H42.1c-1.5,0-2.8,1.2-2.8,2.8s1.2,2.8,2.8,2.8h5.1v7
		c-21.1,1.4-37.8,19-37.8,40.4c0,22.4,18.2,40.6,40.5,40.6s40.5-18.2,40.5-40.6C90.5,34.8,73.8,17.2,52.8,15.8z M50,91.3
		c-19.3,0-35-15.7-35-35.1c0-4.7,1-9.5,2.9-13.8c1.8-4.2,4.5-8.1,7.8-11.3c3.3-3.2,7.3-5.8,11.5-7.5c2-0.8,4.1-1.4,6.2-1.8
		c5.3-1,10.9-0.8,16.1,0.7c4.4,1.3,8.6,3.4,12.2,6.3c3.6,2.9,6.6,6.4,8.8,10.4c2.3,4.1,3.7,8.7,4.2,13.3c0.1,1.2,0.2,2.4,0.2,3.6
		C85,75.5,69.3,91.3,50,91.3z"/>
	<path d="M70.6,55.8H52.8V34.9c0-1.5-1.2-2.8-2.8-2.8s-2.8,1.2-2.8,2.8v20.9h-4.1c-1.5,0-2.8,1.2-2.8,2.8s1.2,2.8,2.8,2.8h4.1v4.1
		c0,1.5,1.2,2.8,2.8,2.8s2.8-1.2,2.8-2.8v-4.1h17.8c1.5,0,2.8-1.2,2.8-2.8S72.1,55.8,70.6,55.8z"/>
</g>
</svg>
