<?xml version="1.0" encoding="utf-8"?>
<!-- Generator: Adobe Illustrator 22.0.1, SVG Export Plug-In . SVG Version: 6.00 Build 0)  -->
<svg version="1.1" id="Layer_2_1_" xmlns="http://www.w3.org/2000/svg" xmlns:xlink="http://www.w3.org/1999/xlink" x="0px" y="0px"
	 viewBox="0 0 100 100" style="enable-background:new 0 0 100 100;" xml:space="preserve">
<g>
	<path d="M70.3,6.5H54.5V5.6c0-2-1.6-3.6-3.6-3.6h-1.9c-2,0-3.6,1.6-3.6,3.6v0.9H29.7c-7.7,0-14,6.3-14,14v54.3c0,2.8,2.2,5,5,5H26
		l-9.3,13.8c-0.8,1.3-0.6,3,0.6,3.9c0.5,0.4,1.1,0.5,1.6,0.5c0.9,0,1.8-0.4,2.3-1.2l11.4-17H64l11.4,17c0.5,0.8,1.4,1.2,2.3,1.2
		c0.6,0,1.1-0.2,1.6-0.5c1.2-0.9,1.4-2.6,0.6-3.9l-9.3-13.8h8.7c2.8,0,5-2.2,5-5V20.5C84.3,12.8,78.1,6.5,70.3,6.5z M21.2,28.5h26.1
		v19.2H21.2V28.5z M78.8,74.3H21.2v-21h57.7V74.3z M78.8,47.7H52.8V28.5h26.1V47.7z M78.8,23H21.2v-2.5c0-4.7,3.8-8.5,8.5-8.5h40.7
		c4.7,0,8.5,3.8,8.5,8.5V23z"/>
	<circle cx="35.5" cy="64" r="6.2"/>
	<circle cx="64.6" cy="64" r="6.2"/>
</g>
</svg>
