<?xml version="1.0" encoding="utf-8"?>
<!-- Generator: Adobe Illustrator 22.0.1, SVG Export Plug-In . SVG Version: 6.00 Build 0)  -->
<svg version="1.1" id="Layer_2_1_" xmlns="http://www.w3.org/2000/svg" xmlns:xlink="http://www.w3.org/1999/xlink" x="0px" y="0px"
	 viewBox="0 0 100 100" style="enable-background:new 0 0 100 100;" xml:space="preserve">
<g>
	<path d="M70.3,6.7H54.5c0-0.1,0-0.2,0-0.3V6.3c0-2.5-2-4.5-4.5-4.5s-4.5,2-4.5,4.5v0.2c0,0.1,0,0.2,0,0.3H29.6
		c-3.7,0-7.2,1.5-9.9,4.1c-2.6,2.7-4,6.2-4,9.9V75c0,2.7,2.2,5,4.9,5h7.1l-9.3,14c-0.8,1.3-0.5,3,0.8,3.8c0.5,0.3,1,0.5,1.5,0.5
		c0.9,0,1.8-0.4,2.3-1.2l11.4-17.1h31.3L77,97c0.5,0.8,1.4,1.2,2.3,1.2c0.5,0,1.1-0.1,1.5-0.5c1.3-0.8,1.6-2.5,0.8-3.8l-9.3-14h7.1
		c2.7,0,5-2.2,5-5V20.7C84.3,13,78,6.7,70.3,6.7z M23.7,14.7c1.6-1.6,3.7-2.5,5.9-2.5h40.7c4.7,0,8.5,3.8,8.5,8.5v2.6H21.3v-2.6
		C21.2,18.5,22.1,16.3,23.7,14.7z M21.3,48l0-19.2h26V48H21.3z M52.7,28.8h26V48h-26V28.8z M21.3,74.4l0-20.9h57.5v20.9H21.3z"/>
	<path d="M39.5,62H28c-1.5,0-2.8,1.2-2.8,2.8s1.2,2.8,2.8,2.8h11.6c1.5,0,2.8-1.2,2.8-2.8S41.1,62,39.5,62z"/>
	<path d="M72,62H60.5c-1.5,0-2.8,1.2-2.8,2.8s1.2,2.8,2.8,2.8H72c1.5,0,2.8-1.2,2.8-2.8S73.6,62,72,62z"/>
</g>
</svg>
