<?xml version="1.0" encoding="utf-8"?>
<!-- Generator: Adobe Illustrator 22.0.1, SVG Export Plug-In . SVG Version: 6.00 Build 0)  -->
<svg version="1.1" id="Layer_2_1_" xmlns="http://www.w3.org/2000/svg" xmlns:xlink="http://www.w3.org/1999/xlink" x="0px" y="0px"
	 viewBox="0 0 100 100" style="enable-background:new 0 0 100 100;" xml:space="preserve">
<g>
	<path d="M82,14.8H65.8C65.3,8,59.5,2.6,52.5,2.6H47c-6.9,0-12.6,5.4-13.1,12.2H18c-2.4,0-4.2,1.8-4.2,4.2l3.7,64.4
		c0.4,7.8,6.8,13.9,14.7,13.9h35.5c7.9,0,14.3-6,14.8-13.9l3.9-64.2l0-0.2C86.3,16.7,84.4,14.8,82,14.8z M47,8.1h5.5
		c3.9,0,7.2,3,7.7,6.7H39.4C39.9,11,43.1,8.1,47,8.1z M76.9,83.1c-0.3,5-4.4,8.8-9.3,8.8H32.1c-4.9,0-8.9-3.8-9.2-8.7l-3.6-62.8
		h17.3c0,0,0,0,0,0s0,0,0,0h26.5c0,0,0,0,0,0s0,0,0,0h17.6L76.9,83.1z"/>
	<path d="M60.5,41.4v20.9c0,1.5,1.2,2.8,2.8,2.8s2.8-1.2,2.8-2.8V41.4c0-1.5-1.2-2.8-2.8-2.8S60.5,39.9,60.5,41.4z"/>
	<path d="M36.4,38.6c-1.5,0-2.8,1.2-2.8,2.8v20.9c0,1.5,1.2,2.8,2.8,2.8s2.8-1.2,2.8-2.8V41.4C39.2,39.9,38,38.6,36.4,38.6z"/>
	<path d="M50.4,34.6c-1.5,0-2.8,1.2-2.8,2.8v28.9c0,1.5,1.2,2.8,2.8,2.8s2.8-1.2,2.8-2.8V37.4C53.2,35.9,52,34.6,50.4,34.6z"/>
</g>
</svg>
