<?xml version="1.0" encoding="utf-8"?>
<!-- Generator: Adobe Illustrator 22.0.1, SVG Export Plug-In . SVG Version: 6.00 Build 0)  -->
<svg version="1.1" id="Layer_1" xmlns="http://www.w3.org/2000/svg" xmlns:xlink="http://www.w3.org/1999/xlink" x="0px" y="0px"
	 viewBox="0 0 100 100" style="enable-background:new 0 0 100 100;" xml:space="preserve">
<g>
	<path d="M20.1,20c0-1.4-1.1-2.5-2.5-2.5c-1.4,0-2.5,1.1-2.5,2.5s1.1,2.5,2.5,2.5C19,22.4,20.1,21.3,20.1,20z"/>
	<path d="M82.3,53.5c-7.5,0-13.6,6.1-13.6,13.6c0,4.7,4.9,13.1,8.3,18.4H29.4c-2.4,0-4.7-0.9-6.4-2.7c-1.7-1.7-2.6-4-2.6-6.4
		c0-5,4.1-9,9.1-9h15.6c3.8,0,7.4-1.5,10.1-4.2c2.7-2.7,4.2-6.3,4.2-10.1c0-7.9-6.4-14.2-14.2-14.2H22.7c3.4-5.3,8.4-13.6,8.4-18.4
		c0-7.6-5.9-13.6-13.5-13.6C10.1,6.9,4.1,13,4.1,20.5c0,6.5,9.3,20.1,11.2,22.7l2.2,3.1l1.4-2h26.1c4.8,0,8.7,3.9,8.7,8.7
		c0,2.3-0.9,4.5-2.6,6.2c-1.7,1.7-3.8,2.6-6.2,2.6H29.4c-8,0-14.6,6.5-14.6,14.5c0,3.9,1.5,7.5,4.3,10.3c2.7,2.8,6.4,4.3,10.3,4.3
		h51.3l1.4,2l2.2-3.1c1.9-2.6,11.3-16.2,11.3-22.7C95.7,59.5,89.8,53.5,82.3,53.5z M9.6,20.5c0-4.5,3.6-8.1,8.1-8.1
		c4.5,0,8,3.5,8,8.1c0,2.9-4.2,10.4-8.1,16.2C13.7,30.9,9.6,23.4,9.6,20.5z M82.2,83.3c-3.8-5.9-8-13.3-8-16.2
		c0-4.5,3.6-8.1,8.1-8.1c4.5,0,8,3.5,8,8.1C90.2,70,86.1,77.5,82.2,83.3z"/>
	<path d="M82.3,64.1c-1.4,0-2.5,1.1-2.5,2.5s1.1,2.5,2.5,2.5s2.5-1.1,2.5-2.5S83.6,64.1,82.3,64.1z"/>
</g>
</svg>
