<?xml version="1.0" encoding="utf-8"?>
<!-- Generator: Adobe Illustrator 22.0.1, SVG Export Plug-In . SVG Version: 6.00 Build 0)  -->
<svg version="1.1" id="Layer_1" xmlns="http://www.w3.org/2000/svg" xmlns:xlink="http://www.w3.org/1999/xlink" x="0px" y="0px"
	 viewBox="0 0 100 100" style="enable-background:new 0 0 100 100;" xml:space="preserve">
<g>
	<path d="M20.4,21.8c-11,0-18.4,15.5-18.4,30c0,14.1,6.7,25.4,15.6,27.3v15.5c0,1.5,1.2,2.8,2.8,2.8s2.8-1.2,2.8-2.8V79
		c9-1.9,15.6-13.2,15.6-27.3C38.8,37.3,31.4,21.8,20.4,21.8z M23.2,73.3v-7.7c0-1.5-1.2-2.8-2.8-2.8s-2.8,1.2-2.8,2.8v7.7
		C12,71,7.6,62.1,7.6,51.7c0-12.6,6.3-24.5,12.9-24.5s12.9,11.9,12.9,24.5C33.3,62.1,28.9,71,23.2,73.3z"/>
	<path d="M97.9,40.1c0-17.7-9.3-37.4-22.6-37.4C62,2.8,52.7,22.4,52.7,40.1c0,17.8,8.5,32.1,19.9,34.1v20.3c0,1.5,1.2,2.8,2.8,2.8
		s2.8-1.2,2.8-2.8V74.2C89.4,72.2,97.9,57.9,97.9,40.1z M78.1,68.5V57.8c0-1.5-1.2-2.8-2.8-2.8s-2.8,1.2-2.8,2.8v10.8
		c-8-2.3-14.4-14.4-14.4-28.4c0-16.4,8.3-31.9,17.1-31.9s17.1,15.5,17.1,31.9C92.4,54.2,86.1,66.3,78.1,68.5z"/>
</g>
</svg>
