<?xml version="1.0" encoding="utf-8"?>
<!-- Generator: Adobe Illustrator 22.0.1, SVG Export Plug-In . SVG Version: 6.00 Build 0)  -->
<svg version="1.1" id="Layer_1" xmlns="http://www.w3.org/2000/svg" xmlns:xlink="http://www.w3.org/1999/xlink" x="0px" y="0px"
	 viewBox="0 0 100 100" style="enable-background:new 0 0 100 100;" xml:space="preserve">
<path d="M70.8,65.9l-0.5,0.5L59.7,55.8l18.9-18.9c0.9-0.9,1.3-2.2,1-3.4s-1.1-2.3-2.3-2.7L8.2,3.4C6.6,2.7,4.7,3.3,3.7,4.8
	C3,5.8,2.9,7.2,3.4,8.4l27.3,68.9c0.5,1.2,1.5,2,2.7,2.3c0.3,0.1,0.5,0.1,0.8,0.1c1,0,1.9-0.4,2.7-1.1l18.9-18.9l10.6,10.6l-0.5,0.5
	c-0.8,0.8-0.8,2,0,2.8l22.7,22.7c0.8,0.8,2,0.8,2.8,0l4.9-4.9c0.8-0.8,0.8-2,0-2.8L73.6,65.9C72.9,65.1,71.6,65.1,70.8,65.9z
	 M34.9,72.8L9.9,10l62.9,25L34.9,72.8z"/>
</svg>
