<?xml version="1.0" encoding="utf-8"?>
<!-- Generator: Adobe Illustrator 22.0.1, SVG Export Plug-In . SVG Version: 6.00 Build 0)  -->
<svg version="1.1" id="Layer_1" xmlns="http://www.w3.org/2000/svg" xmlns:xlink="http://www.w3.org/1999/xlink" x="0px" y="0px"
	 viewBox="0 0 100 100" style="enable-background:new 0 0 100 100;" xml:space="preserve">
<g>
	<path d="M33.9,90c-8.3,0-20.2-1.6-30.2-9.1c-1.8-1.3-2.4-3.7-1.5-5.8C3,73,5.2,71.9,7.4,72.3c0,0,7.3,1.2,13.9-1.1
		C17.7,69,14,65.3,12,59c-0.3-1-0.3-2,0-3c-3.3-3.3-6.5-8.5-6.4-16.4c0-1.4,0.7-2.7,1.7-3.6C5.3,31.1,4.1,23.9,8.7,16
		c0.8-1.3,2.2-2.2,3.7-2.4c1.6-0.1,3.1,0.5,4.1,1.7c0.1,0.1,12.4,14.3,27.7,16.4C44.6,19.7,54.4,10,66.5,10c5.2,0,10.3,1.8,14.2,5.1
		c1.8-0.2,4.6-0.9,7.3-2.8c1.4-1,3.3-1.2,4.8-0.4c1.6,0.7,2.6,2.3,2.8,4c0,0.5,0,1.5-0.4,2.8c0.3,0.1,0.6,0.3,0.8,0.5l0,0
		c1.7,1.2,2.5,3.3,1.9,5.3c-0.6,2.3-3.6,5.9-8.9,10.8c-0.2,9.7-3.7,44.3-43.9,53.7C45.1,89,40.5,90,33.9,90z M9.2,78
		c8.3,5.3,17.9,6.5,24.7,6.5c6,0,10.1-0.9,10.2-0.9c38.1-8.9,39.7-42.8,39.6-49.5l0-1.2l0.9-0.8c3.7-3.4,5.8-5.7,6.9-7.1
		C91.3,25,91.2,25,91,25.1L85.4,27c-0.9,0.3-1.7-0.8-1.1-1.6l3.7-4.6c1-1.2,1.5-2.2,1.8-3c-3.8,2.3-7.4,2.9-9.9,3l-1.1,0L77.9,20
		c-3.1-2.9-7.2-4.5-11.4-4.5c-9.3,0-16.8,7.5-16.8,16.8c0,0.7,0,1.3,0.1,2l0.2,2c0.1,0.6-0.4,1.1-1,1.1l-2-0.1
		C30,37,16.1,23,12.9,19.6c-3.5,6.8-1.5,12.8,0.9,16.8l3.3,5.5c0.5,0.9-0.4,1.9-1.3,1.4l-4.6-2.5c0.2,5.4,2.3,9.6,6.3,12.6l2.4,1.9
		c0.6,0.5,0.5,1.4-0.2,1.7l-2.2,0.9c2.3,6.7,7.3,9.4,11.1,10.4l3.6,1c0.8,0.2,1,1.3,0.3,1.8l-3,2.1C22.5,78.1,13.7,78.3,9.2,78z
		 M12.3,18.9C12.3,18.9,12.3,18.9,12.3,18.9C12.3,18.9,12.3,18.9,12.3,18.9z M91.3,16.8C91.3,16.8,91.3,16.8,91.3,16.8
		C91.3,16.8,91.3,16.8,91.3,16.8z"/>
</g>
</svg>
