<?xml version="1.0" encoding="utf-8"?>
<!-- Generator: Adobe Illustrator 21.0.2, SVG Export Plug-In . SVG Version: 6.00 Build 0)  -->
<svg version="1.1" id="Layer_1" xmlns="http://www.w3.org/2000/svg" xmlns:xlink="http://www.w3.org/1999/xlink" x="0px" y="0px"
	 viewBox="0 0 100 100" style="enable-background:new 0 0 100 100;" xml:space="preserve">
<path d="M32.4,88.6c35.9,0,55.5-29.7,55.5-55.5c0-0.8,0-1.7-0.1-2.5c3.8-2.8,7.1-6.2,9.7-10.1c-3.5,1.6-7.3,2.6-11.2,3.1
	c4-2.4,7.1-6.2,8.6-10.8c-3.8,2.2-7.9,3.9-12.4,4.7c-3.6-3.8-8.6-6.2-14.2-6.2c-10.8,0-19.5,8.7-19.5,19.5c0,1.5,0.2,3,0.5,4.4
	C33.1,34.5,18.7,26.8,9.1,15c-1.7,2.9-2.6,6.2-2.6,9.8c0,6.8,3.4,12.7,8.7,16.2c-3.2-0.1-6.2-1-8.8-2.4c0,0.1,0,0.2,0,0.2
	c0,9.4,6.7,17.3,15.6,19.1c-1.6,0.4-3.4,0.7-5.1,0.7c-1.3,0-2.5-0.1-3.7-0.4c2.5,7.7,9.7,13.4,18.2,13.5c-6.7,5.2-15.1,8.3-24.2,8.3
	c-1.6,0-3.1-0.1-4.6-0.3C11.1,85.4,21.4,88.6,32.4,88.6"/>
</svg>
