<?xml version="1.0" encoding="utf-8"?>
<!-- Generator: Adobe Illustrator 22.0.1, SVG Export Plug-In . SVG Version: 6.00 Build 0)  -->
<svg version="1.1" id="Layer_1" xmlns="http://www.w3.org/2000/svg" xmlns:xlink="http://www.w3.org/1999/xlink" x="0px" y="0px"
	 viewBox="0 0 100 100" style="enable-background:new 0 0 100 100;" xml:space="preserve">
<path d="M86.4,24.9l5.7-7.2c1.7-1.9,2.2-3.3,2.4-4.2c-4.4,2.8-8.6,3.6-11.6,3.7h-1.2L81,16.4c-3.6-3.2-8.1-5-13-5
	c-10.5,0-19,8.6-19,19c0,0.8,0,1.5,0.1,2.2l0.5,3.1l-3.2-0.1c-19.5-0.5-35.2-17-37.9-20C4.3,23.4,6.6,30.5,9.3,35l5.1,8.5l-8.1-4.4
	c0.1,6.3,2.6,11.3,7.2,14.9l3.9,3l-4.1,1.7c2.6,7.8,8.2,10.9,12.6,12.1l5.5,1.5l-4.8,3.3c-8.4,5.9-19.1,5.5-23.5,5.1
	c9.6,6.6,20.8,8,28.8,8c5.9,0,10.2-0.8,11.3-1c42.4-10,44.3-47.8,44.2-55.4v-1.2l0.9-0.8c5.1-4.8,7.3-7.5,8.5-8.9
	c-0.5,0.3-1,0.4-1.7,0.6L86.4,24.9z"/>
</svg>
