<?xml version="1.0" encoding="utf-8"?>
<!-- Generator: Adobe Illustrator 22.0.1, SVG Export Plug-In . SVG Version: 6.00 Build 0)  -->
<svg version="1.1" id="Layer_1" xmlns="http://www.w3.org/2000/svg" xmlns:xlink="http://www.w3.org/1999/xlink" x="0px" y="0px"
	 viewBox="0 0 100 100" style="enable-background:new 0 0 100 100;" xml:space="preserve">
<g>
	<path d="M50,80.6c19.3,0,35.1-15.7,35.1-35.1v-40c0-1.5-1.2-2.8-2.8-2.8s-2.8,1.2-2.8,2.8v40c0,16.3-13.3,29.6-29.6,29.6
		c-16.3,0-29.6-13.3-29.6-29.6v-40c0-1.5-1.2-2.8-2.8-2.8s-2.8,1.2-2.8,2.8v40C14.9,64.9,30.7,80.6,50,80.6z"/>
	<path d="M90.6,91.6H9.4c-1.5,0-2.8,1.2-2.8,2.8s1.2,2.8,2.8,2.8h81.1c1.5,0,2.8-1.2,2.8-2.8S92.1,91.6,90.6,91.6z"/>
</g>
</svg>
