<?xml version="1.0" encoding="utf-8"?>
<!-- Generator: Adobe Illustrator 22.0.1, SVG Export Plug-In . SVG Version: 6.00 Build 0)  -->
<svg version="1.1" id="Layer_2_1_" xmlns="http://www.w3.org/2000/svg" xmlns:xlink="http://www.w3.org/1999/xlink" x="0px" y="0px"
	 viewBox="0 0 100 100" style="enable-background:new 0 0 100 100;" xml:space="preserve">
<g>
	<path d="M45.8,20.5L32.9,7.6c-6.9-6.9-18.2-6.9-25.2,0c-6.9,6.9-6.9,18.2,0,25.2l12.8,12.9c3.5,3.5,8,5.2,12.6,5.2
		c4.6,0,9.1-1.7,12.6-5.2C52.6,38.9,52.7,27.6,45.8,20.5z M24.4,41.9L11.6,28.9c-4.8-4.8-4.8-12.6,0-17.4c2.4-2.4,5.6-3.6,8.7-3.6
		s6.3,1.2,8.7,3.6l12.9,12.9c4.3,4.3,4.7,11,1.3,15.7l-4.7-4.7c-1.1-1.1-2.8-1.1-3.9,0c-1.1,1.1-1.1,2.8,0,3.9l4.5,4.5
		C34.4,46.5,28.4,45.8,24.4,41.9z"/>
	<path d="M92.4,67.1L79.5,54.2c-6.9-6.9-18.2-6.9-25.2,0c-6.9,6.9-6.9,18.2,0,25.2l12.8,12.9c3.4,3.4,7.8,5.2,12.6,5.2
		c4.7,0,9.2-1.9,12.6-5.2C99.2,85.5,99.3,74.2,92.4,67.1z M88.4,88.4L88.4,88.4c-2.4,2.4-5.4,3.6-8.7,3.6c-3.3,0-6.4-1.3-8.7-3.6
		L58.2,75.5c-4-4-4.6-10-2-14.7l4.4,4.4c0.5,0.5,1.2,0.8,1.9,0.8c0.7,0,1.4-0.3,1.9-0.8c1.1-1.1,1.1-2.8,0-3.9l-4.6-4.6
		c2.1-1.5,4.6-2.2,7-2.2c3.2,0,6.3,1.2,8.7,3.6L88.5,71C93.2,75.9,93.2,83.7,88.4,88.4z"/>
	<path d="M59.8,23.6c1.5,0,2.8-1.2,2.8-2.8V6.1c0-1.5-1.2-2.8-2.8-2.8S57,4.6,57,6.1v14.8C57,22.4,58.3,23.6,59.8,23.6z"/>
	<path d="M73.7,37.5c0,1.5,1.2,2.8,2.8,2.8h14.8c1.5,0,2.8-1.2,2.8-2.8s-1.2-2.8-2.8-2.8H76.4C74.9,34.8,73.7,36,73.7,37.5z"/>
	<path d="M68.1,32c0.7,0,1.4-0.3,1.9-0.8l10.4-10.4c1.1-1.1,1.1-2.8,0-3.9c-1.1-1.1-2.8-1.1-3.9,0L66.2,27.3c-1.1,1.1-1.1,2.8,0,3.9
		C66.7,31.7,67.4,32,68.1,32z"/>
	<path d="M36.7,74.6c-1.5,0-2.8,1.2-2.8,2.8v14.8c0,1.5,1.2,2.8,2.8,2.8s2.8-1.2,2.8-2.8V77.3C39.4,75.8,38.2,74.6,36.7,74.6z"/>
	<path d="M22.8,60.6c0-1.5-1.2-2.8-2.8-2.8H5.2c-1.5,0-2.8,1.2-2.8,2.8s1.2,2.8,2.8,2.8H20C21.5,63.4,22.8,62.2,22.8,60.6z"/>
	<path d="M26.4,67L16,77.5c-1.1,1.1-1.1,2.8,0,3.9c0.5,0.5,1.2,0.8,1.9,0.8s1.4-0.3,1.9-0.8l10.4-10.4c1.1-1.1,1.1-2.8,0-3.9
		C29.2,66,27.5,66,26.4,67z"/>
</g>
</svg>
