<?xml version="1.0" encoding="utf-8"?>
<!-- Generator: Adobe Illustrator 22.0.1, SVG Export Plug-In . SVG Version: 6.00 Build 0)  -->
<svg version="1.1" id="Layer_2_1_" xmlns="http://www.w3.org/2000/svg" xmlns:xlink="http://www.w3.org/1999/xlink" x="0px" y="0px"
	 viewBox="0 0 100 100" style="enable-background:new 0 0 100 100;" xml:space="preserve">
<g>
	<path d="M93.4,65c-1.5,0-2.8,1.2-2.8,2.8v23l-81.2,0v-23c0-1.5-1.2-2.8-2.8-2.8s-2.8,1.2-2.8,2.8v24.4c0,2.3,2.1,4.1,4.8,4.1h82.7
		c2.7,0,4.8-1.8,4.8-4.1V67.8C96.1,66.3,94.9,65,93.4,65z"/>
	<path d="M35.3,25.1c0.7,0,1.4-0.3,1.9-0.8l10-10v55.9c0,1.5,1.2,2.8,2.8,2.8s2.8-1.2,2.8-2.8V14.3l9.9,10c1.1,1.1,2.8,1.1,3.9,0
		c1.1-1.1,1.1-2.8,0-3.9L50.1,3.7L33.4,20.4c-1.1,1.1-1.1,2.8,0,3.9C33.9,24.8,34.6,25.1,35.3,25.1z"/>
</g>
</svg>
