<?xml version="1.0" encoding="utf-8"?>
<!-- Generator: Adobe Illustrator 22.0.1, SVG Export Plug-In . SVG Version: 6.00 Build 0)  -->
<svg version="1.1" id="Layer_1" xmlns="http://www.w3.org/2000/svg" xmlns:xlink="http://www.w3.org/1999/xlink" x="0px" y="0px"
	 viewBox="0 0 100 100" style="enable-background:new 0 0 100 100;" xml:space="preserve">
<g>
	<path d="M34.5,54.9c10.4,0,18.8-8.4,18.8-18.8s-8.4-18.8-18.8-18.8s-18.8,8.4-18.8,18.8S24.1,54.9,34.5,54.9z M34.5,22.8
		c7.3,0,13.3,6,13.3,13.3s-6,13.3-13.3,13.3s-13.3-6-13.3-13.3S27.1,22.8,34.5,22.8z"/>
	<path d="M34.5,65.3c-12.2,0-23.9,4.5-33,12.5c-1.1,1-1.2,2.7-0.2,3.9c1,1.1,2.7,1.2,3.9,0.2c8.1-7.2,18.5-11.2,29.4-11.2
		c10.8,0,21.3,4,29.4,11.2c0.5,0.5,1.2,0.7,1.8,0.7c0.8,0,1.5-0.3,2.1-0.9c1-1.1,0.9-2.9-0.2-3.9C58.4,69.8,46.7,65.3,34.5,65.3z"/>
	<path d="M74.4,55.9c6.5,0,11.7-5.3,11.7-11.7s-5.3-11.7-11.7-11.7s-11.7,5.3-11.7,11.7S67.9,55.9,74.4,55.9z M74.4,37.9
		c3.4,0,6.2,2.8,6.2,6.2s-2.8,6.2-6.2,6.2s-6.2-2.8-6.2-6.2S71,37.9,74.4,37.9z"/>
	<path d="M98.6,72.9c-6.7-5.9-15.2-9.2-24.2-9.2c-3.2,0-6.4,0.4-9.4,1.2c-1.5,0.4-2.3,1.9-1.9,3.4c0.4,1.5,1.9,2.3,3.4,1.9
		c2.6-0.7,5.3-1,8-1c7.6,0,14.9,2.8,20.5,7.8c0.5,0.5,1.2,0.7,1.8,0.7c0.8,0,1.5-0.3,2.1-0.9C99.8,75.6,99.7,73.9,98.6,72.9z"/>
</g>
</svg>
