<?xml version="1.0" encoding="utf-8"?>
<!-- Generator: Adobe Illustrator 22.0.1, SVG Export Plug-In . SVG Version: 6.00 Build 0)  -->
<svg version="1.1" id="Layer_1" xmlns="http://www.w3.org/2000/svg" xmlns:xlink="http://www.w3.org/1999/xlink" x="0px" y="0px"
	 viewBox="0 0 100 100" style="enable-background:new 0 0 100 100;" xml:space="preserve">
<path d="M77.9,62.3c2.1,0,3.8-1.7,3.8-3.8V42.4c0-2.1-1.7-3.8-3.8-3.8H60.3c-2.1,0-3.8,1.7-3.8,3.8v5.3H43.4v-5.3
	c0-2.1-1.7-3.8-3.8-3.8h-6.1V25h6.1c2.1,0,3.8-1.7,3.8-3.8V5c0-2.1-1.7-3.8-3.8-3.8H22.1C20,1.3,18.3,3,18.3,5v16.2
	c0,2.1,1.7,3.8,3.8,3.8h6.1v13.7h-6.1c-2.1,0-3.8,1.7-3.8,3.8v16.2c0,2.1,1.7,3.8,3.8,3.8h17.6c2.1,0,3.8-1.7,3.8-3.8v-5.3h13.1v5.3
	c0,2.1,1.7,3.8,3.8,3.8h6.1V75h-6.1c-2.1,0-3.8,1.7-3.8,3.8V95c0,2.1,1.7,3.8,3.8,3.8h17.6c2.1,0,3.8-1.7,3.8-3.8V78.8
	c0-2.1-1.7-3.8-3.8-3.8h-6.1V62.3H77.9z M23.8,6.8h14.1v12.7H23.8V6.8z M37.9,56.8H23.8V44.1h14.1V56.8z M76.2,93.2H62.1V80.5h14.1
	V93.2z M62.1,44.1h14.1v12.7H62.1V44.1z"/>
</svg>
