<?xml version="1.0" encoding="utf-8"?>
<!-- Generator: Adobe Illustrator 22.0.1, SVG Export Plug-In . SVG Version: 6.00 Build 0)  -->
<svg version="1.1" id="Layer_2_1_" xmlns="http://www.w3.org/2000/svg" xmlns:xlink="http://www.w3.org/1999/xlink" x="0px" y="0px"
	 viewBox="0 0 100 100" style="enable-background:new 0 0 100 100;" xml:space="preserve">
<style type="text/css">
	.st0{fill:none;}
</style>
<rect x="177.1" y="48.5" class="st0" width="5.9" height="3"/>
<rect x="177.1" y="48.5" class="st0" width="5.9" height="3"/>
<path d="M179.7,50.2h0.5c-0.2-0.1-0.4-0.2-0.5-0.3V50.2z"/>
<path d="M90.5,26.9c-3.9-0.5-7.2,1.9-8.5,5.2H58c-1.1-3.1-4.1-5.3-7.5-5.3s-6.4,2.2-7.5,5.3H18c-1.2-3.3-4.6-5.6-8.5-5.2
	c-3.6,0.4-6.6,3.4-7,7c-0.5,4.8,3.2,8.9,7.9,8.9c3.5,0,6.4-2.2,7.5-5.3h13.6C22.9,43.3,17,52.8,16.3,63.7h-2.7c-1.1,0-2,0.9-2,2v5.4
	c0,1.1,0.9,2,2,2h10.8c1.1,0,2-0.9,2-2v-5.4c0-1.1-0.9-2-2-2h-2.6c0.9-12.3,9.8-22.5,21.5-25.3c1.3,2.6,4,4.4,7.2,4.4
	c3,0,5.7-1.7,7-4.2c11.3,3.1,19.7,13.1,20.6,25.1h-2.6c-1.1,0-2,0.9-2,2v5.4c0,1.1,0.9,2,2,2h10.8c1.1,0,2-0.9,2-2v-5.4
	c0-1.1-0.9-2-2-2h-2.7C83,52.8,77.1,43.3,68.4,37.6H82c1.1,3.1,4.1,5.3,7.5,5.3c4.7,0,8.5-4.1,7.9-8.9C97,30.3,94.1,27.4,90.5,26.9z
	"/>
</svg>
