<?xml version="1.0" encoding="utf-8"?>
<!-- Generator: Adobe Illustrator 22.0.1, SVG Export Plug-In . SVG Version: 6.00 Build 0)  -->
<svg version="1.1" id="Layer_2_1_" xmlns="http://www.w3.org/2000/svg" xmlns:xlink="http://www.w3.org/1999/xlink" x="0px" y="0px"
	 viewBox="0 0 100 100" style="enable-background:new 0 0 100 100;" xml:space="preserve">
<path d="M94.3,46.7c-1.2-0.7-2.6-0.8-3.8-0.2l-18.1,8.9v-5.3c0-2.1-1.7-3.8-3.8-3.8h-9.5c6.6-2.4,11.3-8.7,11.3-16
	c0-9.4-7.7-17.1-17.1-17.1s-17.1,7.7-17.1,17.1c0,7.4,4.7,13.6,11.3,16H22.9c4.3-1.9,7.3-6.2,7.3-11.1c0-6.7-5.5-12.2-12.2-12.2
	S5.9,28.5,5.9,35.2c0,5,3,9.2,7.3,11.1H7.7c-2.1,0-3.8,1.7-3.8,3.8v32.7c0,2.1,1.7,3.8,3.8,3.8h61c2.1,0,3.8-1.7,3.8-3.8v-5.3
	l18.1,8.9h0c0.5,0.3,1.1,0.4,1.7,0.4c0.7,0,1.4-0.2,2.1-0.6c1.1-0.7,1.8-2,1.8-3.3V50C96.1,48.6,95.4,47.4,94.3,46.7z M41.7,30.3
	c0-6.4,5.2-11.6,11.6-11.6c6.4,0,11.6,5.2,11.6,11.6s-5.2,11.6-11.6,11.6C46.9,41.9,41.7,36.7,41.7,30.3z M18.1,28.5
	c3.7,0,6.7,3,6.7,6.7s-3,6.7-6.7,6.7s-6.7-3-6.7-6.7S14.4,28.5,18.1,28.5z M66.9,81H9.4V51.8h57.5v8.7v11.8V81z M90.6,80.3l-18.2-9
	v-9.8l18.2-9V80.3z"/>
</svg>
