<?xml version="1.0" encoding="utf-8"?>
<!-- Generator: Adobe Illustrator 21.0.2, SVG Export Plug-In . SVG Version: 6.00 Build 0)  -->
<svg version="1.1" id="Layer_1" xmlns="http://www.w3.org/2000/svg" xmlns:xlink="http://www.w3.org/1999/xlink" x="0px" y="0px"
	 viewBox="0 0 100 100" style="enable-background:new 0 0 100 100;" xml:space="preserve">
<path d="M97.5,27.9c-0.4,9.3-6.9,22-19.4,38.1C65.2,82.8,54.2,91.2,45.3,91.2c-5.5,0-10.2-5.1-14.1-15.4c-2.6-9.4-5.1-18.8-7.7-28.2
	c-2.8-10.2-5.9-15.4-9.2-15.4c-0.7,0-3.2,1.5-7.5,4.5L2.5,31c4.7-4.1,9.3-8.3,13.9-12.4c6.3-5.4,10.9-8.3,14.1-8.5
	c7.4-0.7,11.9,4.4,13.7,15.2c1.8,11.7,3.1,19,3.8,21.8c2.1,9.7,4.5,14.5,7,14.5c2,0,5-3.1,9-9.4c4-6.3,6.1-11.1,6.4-14.4
	c0.6-5.4-1.6-8.2-6.4-8.2c-2.3,0-4.6,0.5-7,1.6C61.6,15.9,70.5,8.4,83.7,8.9C93.4,9.1,98,15.5,97.5,27.9z"/>
</svg>
