<?xml version="1.0" encoding="utf-8"?>
<!-- Generator: Adobe Illustrator 22.0.1, SVG Export Plug-In . SVG Version: 6.00 Build 0)  -->
<svg version="1.1" id="Layer_1" xmlns="http://www.w3.org/2000/svg" xmlns:xlink="http://www.w3.org/1999/xlink" x="0px" y="0px"
	 viewBox="0 0 100 100" style="enable-background:new 0 0 100 100;" xml:space="preserve">
<g>
	<polygon points="45.6,60.6 49,39.1 43.5,39.1 40,60.6 	"/>
	<path d="M64.8,53.6c0-2.4-1.4-4.3-4.6-5.9c-2-1-3.1-1.7-3.1-2.7c0-0.8,1-1.8,3.2-1.8c1.8,0,3.1,0.4,4.2,0.8l0.6,0.1l0.7-4.6
		c-1.1-0.4-2.8-0.8-4.9-0.8c-5.5,0-9.4,2.9-9.4,7.1c0,3.1,2.7,4.9,4.9,5.9c2.1,1,2.9,1.7,2.9,2.7c0,1.4-1.7,2.1-3.4,2.1
		c-2.2,0-3.5-0.3-5.3-1.1l-0.7-0.3l-0.8,4.9c1.3,0.4,3.6,1,6,1C61,61.1,64.8,58.1,64.8,53.6z"/>
	<path d="M70.1,60.6c0,0,0.8-2.7,1.3-3.2c0.6,0,6.3,0,7.1,0c0.1,0.7,0.7,3.2,0.7,3.2h5.2l-4.5-21.6h-4.2c-1.3,0-2.4,0.4-2.9,1.8
		l-8.3,19.7H70.1z M75.1,47.1c0,0.1,0.6-1.3,0.7-2l0.4,1.8c0,0,1.1,5.2,1.3,6.2c-0.8,0-3.5,0-4.6,0C73.3,51.8,75.1,47.1,75.1,47.1z"
		/>
	<polygon points="26.6,60.6 32.4,60.6 41.3,39.1 35.4,39.1 29.9,53.9 27,39.1 15.8,39.1 22.1,43.8 	"/>
	<path d="M91.9,22.2H8.1c-2.6,0-4.8,2.1-4.8,4.8v46.1c0,2.6,2.1,4.8,4.8,4.8h83.8c2.6,0,4.8-2.1,4.8-4.8V26.9
		C96.6,24.3,94.5,22.2,91.9,22.2z M91.1,72.3H8.9V27.7h82.3V72.3z"/>
</g>
</svg>
