<?xml version="1.0" encoding="utf-8"?>
<!-- Generator: Adobe Illustrator 21.0.2, SVG Export Plug-In . SVG Version: 6.00 Build 0)  -->
<svg version="1.1" id="Layer_1" xmlns="http://www.w3.org/2000/svg" xmlns:xlink="http://www.w3.org/1999/xlink" x="0px" y="0px"
	 viewBox="0 0 100 100" style="enable-background:new 0 0 100 100;" xml:space="preserve">
<path d="M64.6,2.5H35.4C8.8,2.5,2.5,8.8,2.5,35.4v29.2c0,26.6,6.3,32.9,32.9,32.9h29.2c26.6,0,32.9-6.3,32.9-32.9V35.4
	C97.5,8.8,91.2,2.5,64.6,2.5z M79.2,70.3h-6.9c-2.6,0-3.4-2.1-8.1-6.8c-4.1-4-5.9-4.5-6.9-4.5c-1.4,0-1.8,0.3-1.8,2.3v6.2
	c0,1.7-0.5,2.7-5,2.7c-7.3,0-15.4-4.4-21.1-12.7c-8.6-12.1-10.9-21.2-10.9-23c0-1,0.3-1.9,2.3-1.9h7c1.7,0,2.4,0.7,3.1,2.7
	c3.4,9.9,9.1,18.5,11.5,18.5c0.9,0,1.3-0.4,1.3-2.6V41c-0.3-4.7-2.7-5.1-2.7-6.8c0-0.8,0.7-1.6,1.7-1.6h10.9c1.5,0,2,0.8,2,2.5v13.7
	c0,1.5,0.6,2,1.1,2c0.9,0,1.6-0.5,3.2-2.1c5-5.6,8.5-14.1,8.5-14.1c0.5-1,1.3-1.9,3-1.9h6.9c2.1,0,2.5,1.1,2.1,2.5
	c-0.9,4-9.3,16-9.3,16c-0.7,1.2-1,1.7,0,3.1c0.7,1,3.2,3.1,4.8,5c2.9,3.4,5.2,6.2,5.8,8.1C82.1,69.3,81.2,70.3,79.2,70.3z"/>
</svg>
