<?xml version="1.0" encoding="utf-8"?>
<!-- Generator: Adobe Illustrator 22.0.1, SVG Export Plug-In . SVG Version: 6.00 Build 0)  -->
<svg version="1.1" id="Layer_1" xmlns="http://www.w3.org/2000/svg" xmlns:xlink="http://www.w3.org/1999/xlink" x="0px" y="0px"
	 viewBox="0 0 100 100" style="enable-background:new 0 0 100 100;" xml:space="preserve">
<path d="M73.4,7.6c-1.2-0.6-2.7-0.6-3.9,0.2L47.7,22.9H29.4c-2.6,0-4.8,2.1-4.8,4.8v44.8c0,2.6,2.1,4.8,4.8,4.8h18.3l21.8,15.1h0
	c0.6,0.4,1.4,0.7,2.1,0.7c0.6,0,1.2-0.1,1.7-0.4c1.2-0.6,2-1.9,2-3.3V10.9C75.4,9.5,74.6,8.2,73.4,7.6z M30.1,28.4h15.7v43.3H30.1
	V28.4z M69.9,85.8L51.3,72.9V27.1l18.5-12.8V85.8z"/>
</svg>
