<?xml version="1.0" encoding="utf-8"?>
<!-- Generator: Adobe Illustrator 22.0.1, SVG Export Plug-In . SVG Version: 6.00 Build 0)  -->
<svg version="1.1" id="Layer_1" xmlns="http://www.w3.org/2000/svg" xmlns:xlink="http://www.w3.org/1999/xlink" x="0px" y="0px"
	 viewBox="0 0 100 100" style="enable-background:new 0 0 100 100;" xml:space="preserve">
<g>
	<path d="M21.1,22.9c-2.6,0-4.8,2.1-4.8,4.8v44.8c0,2.6,2.1,4.8,4.8,4.8h18.3l24.5,17c1.3,0.9,3.1,0,3.1-1.6V7.5
		c0-1.6-1.8-2.6-3.1-1.6l-24.5,17H21.1z M21.8,28.4h15.7v43.3H21.8V28.4z M61.6,85.8L43,72.9V27.1l18.5-12.8V85.8z"/>
	<path d="M75.4,39.4c-1.1,1.1-1.1,2.8,0,3.9c3.7,3.7,3.7,9.6,0.1,13.3c-0.6,0.5-0.9,1.2-0.9,2c0,1.5,1.2,2.8,2.8,2.8h1.1l0.8-0.8
		c5.8-5.8,5.8-15.3,0-21.2C78.2,38.3,76.5,38.3,75.4,39.4z"/>
</g>
</svg>
