<?xml version="1.0" encoding="utf-8"?>
<!-- Generator: Adobe Illustrator 22.0.1, SVG Export Plug-In . SVG Version: 6.00 Build 0)  -->
<svg version="1.1" id="Layer_2_1_" xmlns="http://www.w3.org/2000/svg" xmlns:xlink="http://www.w3.org/1999/xlink" x="0px" y="0px"
	 viewBox="0 0 100 100" style="enable-background:new 0 0 100 100;" xml:space="preserve">
<g>
	<path d="M51.1,7.6c-1.2-0.6-2.7-0.6-3.9,0.2L25.5,22.9H7.1c-2.6,0-4.8,2.1-4.8,4.8v44.8c0,2.6,2.1,4.8,4.8,4.8h18.3l21.8,15.1h0
		c0.6,0.4,1.4,0.7,2.1,0.7c0.6,0,1.2-0.1,1.7-0.4c1.2-0.6,2-1.9,2-3.3V10.9C53.1,9.5,52.4,8.2,51.1,7.6z M7.9,28.4h15.7v43.3H7.9
		V28.4z M47.6,85.8L29.1,72.9V27.1l18.5-12.8V85.8z"/>
	<path d="M61.4,39.4c-1.1,1.1-1.1,2.8,0,3.9c3.7,3.7,3.7,9.6,0.1,13.3c-0.6,0.5-0.9,1.2-0.9,2c0,1.5,1.2,2.8,2.8,2.8h1.1l0.8-0.8
		c5.8-5.8,5.8-15.3,0-21.2C64.2,38.3,62.5,38.3,61.4,39.4z"/>
	<path d="M85.1,19.7c-1.1-1.1-2.8-1.1-3.9,0c-1.1,1.1-1.1,2.8,0,3.9c14.6,14.6,14.6,38.3,0,52.9c-1.1,1.1-1.1,2.8,0,3.9
		c0.5,0.5,1.2,0.8,1.9,0.8s1.4-0.3,1.9-0.8C101.8,63.6,101.8,36.4,85.1,19.7z"/>
	<path d="M75.3,30.2c-1.1-1.1-2.8-1.1-3.9,0c-1.1,1.1-1.1,2.8,0,3.9c8.7,8.7,8.8,22.9,0.1,31.7c-0.6,0.5-0.9,1.2-0.9,2.1
		c0,1.5,1.2,2.8,2.8,2.8h1.1l0.8-0.8C86.2,58.9,86.2,41.1,75.3,30.2z"/>
</g>
</svg>
