<?xml version="1.0" encoding="utf-8"?>
<!-- Generator: Adobe Illustrator 22.0.1, SVG Export Plug-In . SVG Version: 6.00 Build 0)  -->
<svg version="1.1" id="Layer_2_1_" xmlns="http://www.w3.org/2000/svg" xmlns:xlink="http://www.w3.org/1999/xlink" x="0px" y="0px"
	 viewBox="0 0 100 100" style="enable-background:new 0 0 100 100;" xml:space="preserve">
<g>
	<path d="M97.2,77.1L53.1,18.3c-0.7-1-1.9-1.5-3.1-1.5c-1.2,0-2.3,0.6-3.1,1.5L2.8,77.1c-0.9,1.2-1,2.7-0.4,4c0.7,1.3,2,2.1,3.4,2.1
		h88.2c1.5,0,2.8-0.8,3.4-2.1C98.2,79.9,98,78.3,97.2,77.1z M9.3,77.8L50,23.3l40.7,54.4H9.3z"/>
	<path d="M47.3,41.7v14.2c0,1.5,1.2,2.8,2.8,2.8s2.8-1.2,2.8-2.8V41.7c0-1.5-1.2-2.8-2.8-2.8S47.3,40.1,47.3,41.7z"/>
	<path d="M50,65.2c-1.7,0-3.2,1.4-3.2,3.2s1.4,3.2,3.2,3.2s3.2-1.4,3.2-3.2S51.7,65.2,50,65.2z"/>
</g>
</svg>
