<?xml version="1.0" encoding="utf-8"?>
<!-- Generator: Adobe Illustrator 21.0.2, SVG Export Plug-In . SVG Version: 6.00 Build 0)  -->
<svg version="1.1" id="Layer_1" xmlns="http://www.w3.org/2000/svg" xmlns:xlink="http://www.w3.org/1999/xlink" x="0px" y="0px"
	 viewBox="0 0 100 100" style="enable-background:new 0 0 100 100;" xml:space="preserve">
<g>
	<path d="M86.4,78.9c5.8-4.2,9.6-10.5,9.6-17.5c0-12.8-12.4-23.1-27.7-23.1c-15.3,0-27.7,10.3-27.7,23.1c0,12.8,12.4,23.1,27.7,23.1
		c3.2,0,6.2-0.5,9-1.3c0.3-0.1,0.5-0.1,0.8-0.1c0.5,0,1,0.2,1.5,0.4l6.1,3.5c0.2,0.1,0.3,0.2,0.5,0.2c0.5,0,0.9-0.4,0.9-0.9
		c0-0.2-0.1-0.5-0.1-0.7c0-0.1-0.8-2.9-1.2-4.7c-0.1-0.2-0.1-0.4-0.1-0.6C85.7,79.7,86,79.2,86.4,78.9z M59.1,57.7
		c-2,0-3.7-1.7-3.7-3.7c0-2,1.7-3.7,3.7-3.7c2,0,3.7,1.7,3.7,3.7C62.8,56,61.1,57.7,59.1,57.7z M77.5,57.7c-2,0-3.7-1.7-3.7-3.7
		c0-2,1.7-3.7,3.7-3.7c2,0,3.7,1.7,3.7,3.7C81.2,56,79.6,57.7,77.5,57.7z"/>
	<path d="M68.3,36.1c0.6,0,1.2,0,1.8,0c-2.5-13.2-16.3-23.4-32.9-23.4C18.9,12.8,4,25.2,4,40.5c0,8.4,4.5,15.9,11.5,21
		c0.6,0.4,0.9,1.1,0.9,1.8c0,0.2-0.1,0.5-0.1,0.7c-0.6,2.1-1.5,5.4-1.5,5.6c-0.1,0.3-0.2,0.5-0.2,0.8c0,0.6,0.5,1.1,1.1,1.1
		c0.2,0,0.4-0.1,0.6-0.2l7.3-4.2c0.5-0.3,1.1-0.5,1.8-0.5c0.3,0,0.7,0.1,1,0.1c3.4,1,7.1,1.5,10.9,1.5c0.6,0,1.2,0,1.8,0
		C38.4,66,38,63.7,38,61.4C38,47.4,51.5,36.1,68.3,36.1z M48.3,27.2c2.5,0,4.4,2,4.4,4.4s-2,4.4-4.4,4.4s-4.4-2-4.4-4.4
		S45.9,27.2,48.3,27.2z M26.2,36.1c-2.4,0-4.4-2-4.4-4.4s2-4.4,4.4-4.4c2.5,0,4.4,2,4.4,4.4S28.6,36.1,26.2,36.1z"/>
</g>
</svg>
