<?xml version="1.0" encoding="utf-8"?>
<!-- Generator: Adobe Illustrator 22.0.1, SVG Export Plug-In . SVG Version: 6.00 Build 0)  -->
<svg version="1.1" id="Layer_1" xmlns="http://www.w3.org/2000/svg" xmlns:xlink="http://www.w3.org/1999/xlink" x="0px" y="0px"
	 viewBox="0 0 100 100" style="enable-background:new 0 0 100 100;" xml:space="preserve">
<g>
	<path d="M81.4,7.4H18.6c-8.5,0-15.5,6.9-15.5,15.5v54.2c0,8.5,6.9,15.5,15.5,15.5h62.8c8.5,0,15.5-6.9,15.5-15.5V22.9
		C96.9,14.4,89.9,7.4,81.4,7.4z M91.4,77.1c0,5.5-4.5,10-10,10H18.6c-5.5,0-10-4.5-10-10V22.9c0-5.5,4.5-10,10-10h62.8
		c5.5,0,10,4.5,10,10V77.1z"/>
	<path d="M50,22.2c-11.1,0-20.3,8.6-21,19.7c-0.1,1.1,0.3,2.1,1,2.9c0.7,0.8,1.7,1.2,2.8,1.2h34.3c1,0,2.1-0.4,2.8-1.2
		c0.7-0.8,1.1-1.8,1-2.9C70.3,30.9,61.1,22.2,50,22.2z M51.3,40.5L47,35.6c-1-1.1-2.7-1.3-3.9-0.3c-1.1,1-1.3,2.7-0.3,3.9l1.1,1.3
		h-9.3C36,33.2,42.4,27.7,50,27.7c7.6,0,14,5.5,15.3,12.8H51.3z"/>
</g>
</svg>
