<?xml version="1.0" encoding="utf-8"?>
<!-- Generator: Adobe Illustrator 21.0.2, SVG Export Plug-In . SVG Version: 6.00 Build 0)  -->
<svg version="1.1" id="Layer_1" xmlns="http://www.w3.org/2000/svg" xmlns:xlink="http://www.w3.org/1999/xlink" x="0px" y="0px"
	 viewBox="0 0 100 100" style="enable-background:new 0 0 100 100;" xml:space="preserve">
<style type="text/css">
	.st0{fill-rule:evenodd;clip-rule:evenodd;}
</style>
<g id="WA_Logo">
	<g>
		<path class="st0" d="M81.9,17.9C73.4,9.5,62.2,4.8,50.2,4.8C25.5,4.8,5.4,24.9,5.4,49.6c0,7.9,2.1,15.6,6,22.4L5,95.2L28.8,89
			c6.5,3.6,13.9,5.5,21.4,5.5h0c0,0,0,0,0,0C74.9,94.4,95,74.3,95,49.6C95,37.7,90.3,26.4,81.9,17.9z M50.2,86.9L50.2,86.9
			c-6.7,0-13.3-1.8-19-5.2l-1.4-0.8l-14.1,3.7l3.8-13.7l-0.9-1.4c-3.7-5.9-5.7-12.8-5.7-19.8c0-20.5,16.7-37.2,37.3-37.2
			c9.9,0,19.3,3.9,26.3,10.9c7,7,10.9,16.4,10.9,26.4C87.4,70.2,70.7,86.9,50.2,86.9z M70.6,59c-1.1-0.6-6.6-3.3-7.7-3.6
			c-1-0.4-1.8-0.6-2.5,0.6c-0.7,1.1-2.9,3.6-3.5,4.4c-0.7,0.7-1.3,0.8-2.4,0.3c-1.1-0.6-4.7-1.7-9-5.6c-3.3-3-5.6-6.6-6.2-7.8
			c-0.7-1.1-0.1-1.7,0.5-2.3c0.5-0.5,1.1-1.3,1.7-2c0.6-0.7,0.7-1.1,1.1-1.9c0.4-0.7,0.2-1.4-0.1-2c-0.3-0.6-2.5-6.1-3.5-8.3
			c-0.9-2.2-1.8-1.9-2.5-1.9c-0.7,0-1.4,0-2.1,0c-0.7,0-2,0.3-3,1.4c-1,1.1-3.9,3.8-3.9,9.3c0,5.5,4,10.8,4.6,11.6
			c0.6,0.7,7.9,12.1,19.1,16.9c2.7,1.2,4.8,1.8,6.4,2.4c2.7,0.9,5.1,0.7,7.1,0.4c2.2-0.3,6.6-2.7,7.6-5.3c0.9-2.6,0.9-4.9,0.7-5.3
			C72.5,59.8,71.7,59.5,70.6,59z"/>
	</g>
</g>
</svg>
