<svg enable-background="new 0 0 100 100" viewBox="0 0 100 100" xmlns="http://www.w3.org/2000/svg"><path d="m89.9 67.7c-1.9-.3-3.8 0-5.3.8l-5.6-5.4c4.9-3.1 8.8-7.9 10.8-13.7l4.1-11.9c.4-1.1.2-2.4-.5-3.4s-1.8-1.6-3.1-1.6h-61l-5.2-16c-.1-.4-.5-.7-1-.7h-17.1c-1.5 0-2.8 1.1-2.9 2.6.1 1.6 1.3 2.9 2.9 2.9h13.2c.4 0 .8.3 1 .7l4.4 13.7v28.8 2.8 12.2c0 1.5.8 2.9 2.1 3.5.6.3 1.1.4 1.7.4 1 0 2.1-.4 2.8-1.3l13.2-14.9h20.4c3.1 0 6.1-.6 9-1.6l7 6.9c-.7 1.6-.9 3.3-.5 5.2.7 3.2 3.3 5.7 6.5 6.3 5.6 1 10.4-3.6 9.8-9.1-.3-3.5-3.1-6.5-6.7-7.2zm-59.8 7.3v-7.8h6.9zm0-13.3v-23.7h57.8l-3.3 9.6c-2.9 8.4-10.8 14.1-19.8 14.1zm58.3 17c-1.5 0-2.8-1.3-2.8-2.8s1.3-2.8 2.8-2.8 2.8 1.3 2.8 2.8-1.2 2.8-2.8 2.8z"/></svg>