<?xml version="1.0" encoding="utf-8"?>
<!-- Generator: Adobe Illustrator 22.0.1, SVG Export Plug-In . SVG Version: 6.00 Build 0)  -->
<svg version="1.1" id="Layer_2_1_" xmlns="http://www.w3.org/2000/svg" xmlns:xlink="http://www.w3.org/1999/xlink" x="0px" y="0px"
	 viewBox="0 0 100 100" style="enable-background:new 0 0 100 100;" xml:space="preserve">
<g>
	<path d="M62.8,82c-5.1,5.6-12.4,8.8-19.9,8.8C28.1,90.8,16,78.7,16,63.9c0-8.5,4.1-16.6,10.9-21.7c1.2-0.9,1.5-2.6,0.6-3.8
		c-0.9-1.2-2.6-1.5-3.8-0.6c-8.3,6.1-13.2,15.9-13.2,26.1c0,17.9,14.6,32.4,32.4,32.4c9.1,0,17.9-3.9,24-10.6c1-1.1,0.9-2.9-0.2-3.9
		C65.6,80.8,63.9,80.9,62.8,82z"/>
	<path d="M85.2,75.7l-5.9,0.5l-1.8-22c-0.2-2.6-2.4-4.6-5-4.6c0,0,0,0,0,0l-30.8,0l-0.8-13.4h21.2c2.2,0,4-1.8,4-4s-1.8-4-4-4H40.4
		L40.2,24c4.6-1,8-5.1,8-10c0-5.7-4.6-10.3-10.3-10.3S27.6,8.3,27.6,14c0,3.5,1.8,6.6,4.4,8.5l1.9,30.5c0.2,2.6,2.4,4.7,5,4.7
		c0,0,0,0,0,0l30.9,0l1.8,22.2c0.2,2.6,2.4,4.6,5,4.6c0.1,0,0.3,0,0.4,0l8.8-0.7c2.2-0.2,3.8-2.1,3.7-4.3
		C89.3,77.1,87.4,75.5,85.2,75.7z"/>
</g>
</svg>
