<?xml version="1.0" encoding="utf-8"?>
<!-- Generator: Adobe Illustrator 21.0.0, SVG Export Plug-In . SVG Version: 6.00 Build 0)  -->
<svg version="1.1" id="Layer_1" xmlns="http://www.w3.org/2000/svg" xmlns:xlink="http://www.w3.org/1999/xlink" x="0px" y="0px"
	 viewBox="0 0 100 100" style="enable-background:new 0 0 100 100;" xml:space="preserve">
<title>Layer 1</title>
<g>
	<path d="M97.5,47.5c0-15,0-30.1,0-45.1C80.3,4.8,63.2,7.2,46,9.9v0c0,12.7,0,25.3,0,38C63.2,47.8,80.3,47.6,97.5,47.5z"/>
	<path d="M2.5,15.9v32.2c12.9,0,25.9-0.2,38.8-0.2c0-12.5,0-24.9,0-37.4C28.4,12.2,15.4,13.9,2.5,15.9z"/>
	<path d="M2.5,52.1v32.3c12.9,1.8,25.9,3.4,38.8,5.3c0-12.5,0-25,0-37.5C28.4,52.3,15.4,52.1,2.5,52.1z"/>
	<path d="M45.9,52.6C46,65.2,46,77.8,46,90.3c17.2,2.3,34.3,4.7,51.5,7.3c0-15,0-30,0-45C80.3,52.6,63.1,52.6,45.9,52.6z"/>
</g>
</svg>
