<?xml version="1.0" encoding="utf-8"?>
<!-- Generator: Adobe Illustrator 22.0.1, SVG Export Plug-In . SVG Version: 6.00 Build 0)  -->
<svg version="1.1" id="Layer_1" xmlns="http://www.w3.org/2000/svg" xmlns:xlink="http://www.w3.org/1999/xlink" x="0px" y="0px"
	 viewBox="0 0 100 100" style="enable-background:new 0 0 100 100;" xml:space="preserve">
<path d="M50.2,2.4C24,2.4,2.7,23.8,2.7,50S24,97.6,50.2,97.6S97.8,76.2,97.8,50S76.4,2.4,50.2,2.4z M92.4,50
	c0,15.9-8.8,29.8-21.8,36.9L83,55.3c0.7-1.6,4.9-12,6.5-20.9C91.4,39.2,92.4,44.6,92.4,50z M59.9,29.1h-4.8H37.3
	c-0.9,0-1.6,0.8-1.6,1.6s0.8,1.6,1.6,1.6h3.2l5.8,14.9l-7,17.9L26.8,32.3h4c0.9,0,1.6-0.8,1.6-1.6s-0.8-1.6-1.6-1.6h-6.4L13.7,29
	C21,16.3,34.7,7.8,50.3,7.8c11.3,0,21.6,4.5,29.2,11.7c-4.1,0.7-7.3,3.7-8.1,7.8c-0.9,4.5,0.8,8,2.5,11.4c1.7,3.6,3.6,6.9,2.3,11
	l-6,15.3L57.6,32.2h2.5c0.9,0,1.6-0.8,1.6-1.6S60.7,29.1,59.9,29.1z M8,50c0-5.4,1.1-10.6,2.9-15.3L31.6,88C17.7,81.1,8,66.6,8,50z
	 M50.7,59L63,90.2c-4,1.3-8.2,2-12.8,2c-4,0-8-0.5-11.7-1.6L50.7,59z"/>
</svg>
