<?xml version="1.0" encoding="utf-8"?>
<!-- Generator: Adobe Illustrator 22.0.1, SVG Export Plug-In . SVG Version: 6.00 Build 0)  -->
<svg version="1.1" id="Layer_1" xmlns="http://www.w3.org/2000/svg" xmlns:xlink="http://www.w3.org/1999/xlink" x="0px" y="0px"
	 viewBox="0 0 100 100" style="enable-background:new 0 0 100 100;" xml:space="preserve">
<path d="M90.9,25.7c-1.3-2.2-2.9-4.4-4.5-6.3C77.3,8.6,64,2.4,50,2.4c-18.6,0-35.6,10.9-43.3,27.8c-0.2,0.4-0.4,0.9-0.6,1.3
	c-0.3,0.8-0.7,1.8-1.1,2.8C5,34.5,4.9,34.8,4.9,35c-1.6,4.8-2.4,9.9-2.4,15c0,16.8,8.6,32,23,40.7l0.7,0.4h0c0.9,0.5,1.8,1,2.6,1.4
	c0.4,0.2,0.8,0.4,1.2,0.6l0.1,0c0.8,0.4,1.7,0.8,2.6,1.1l0.3,0.1c5.5,2.1,11.3,3.2,17.2,3.2c3.3,0,6.5-0.3,9.7-1
	c1-0.2,1.9-0.4,3-0.7c1.3-0.3,2.6-0.8,3.9-1.3c2.1-0.8,4.1-1.7,6.1-2.8C88,83.5,97.6,67.5,97.6,50C97.6,41.4,95.3,33,90.9,25.7z
	 M50,7.9c10.3,0,20.1,3.8,27.8,10.5C70.6,21.6,75.9,31.2,78,37c0.6,1.7,1,3.2,1.1,4.6l-8.6,25.8L60.5,37.8c1.4-0.1,2.6-1.3,2.6-2.7
	c0-1.5-1.2-2.8-2.8-2.8h-1.7h-5.8h-7.5h-7.5h-0.4l0,0c-1.3,0.2-2.4,1.3-2.4,2.7c0,1.5,1.2,2.8,2.8,2.8h1.5l5.8,16.9l-4.2,12.7
	L30.8,37.8c1.3-0.2,2.3-1.3,2.3-2.7c0-1.5-1.2-2.8-2.8-2.8h-1.4h-6.1h-11C18.7,17.5,33.6,7.9,50,7.9z M45.1,37.9h0.2h7.5h1.8
	l13,38.2L63,90c0,0-0.1,0-0.1,0l-5.1-14.9l0,0L45.1,37.9z M32.6,88.3L15.4,37.9h7.4H25l13,38.3l-4.2,12.7
	C33.4,88.7,33,88.5,32.6,88.3z M7.9,50c0-4.1,0.6-8.1,1.7-12l15.7,46.1C14.4,76.2,7.9,63.7,7.9,50z M39,90.6L48,63.4l9.5,28
	c-2.5,0.4-5,0.7-7.5,0.7C46.2,92.1,42.5,91.6,39,90.6z M70,87c-0.1,0-0.2,0.1-0.3,0.1l16-47.9c0.9-2.2,1.7-4.6,2.4-6.9
	c2.6,5.5,3.9,11.5,3.9,17.7C92.1,65.5,83.6,79.6,70,87z"/>
</svg>
