<?xml version="1.0" encoding="utf-8"?>
<!-- Generator: Adobe Illustrator 22.0.1, SVG Export Plug-In . SVG Version: 6.00 Build 0)  -->
<svg version="1.1" id="Layer_2_1_" xmlns="http://www.w3.org/2000/svg" xmlns:xlink="http://www.w3.org/1999/xlink" x="0px" y="0px"
	 viewBox="0 0 100 100" style="enable-background:new 0 0 100 100;" xml:space="preserve">
<path d="M50,3.8C24.5,3.8,3.8,24.5,3.8,50s20.7,46.3,46.3,46.3c25.5,0,46.3-20.7,46.3-46.3C96.3,24.5,75.5,3.8,50,3.8z M90.6,47.3
	H73c-0.6-14-6.2-27.1-15.7-37.3C75.5,13.2,89.4,28.5,90.6,47.3z M50,89.6c-10.5-9.5-16.8-22.7-17.5-36.9h35.1
	C66.8,66.9,60.5,80.1,50,89.6z M32.5,47.3c0.7-14.2,7-27.4,17.5-36.9c10.5,9.5,16.8,22.7,17.5,36.9H32.5z M42.6,9.9
	c-9.5,10.2-15,23.3-15.7,37.3H9.4C10.6,28.5,24.5,13.2,42.6,9.9z M9.4,52.8H27c0.6,14,6.2,27.1,15.7,37.3
	C24.5,86.8,10.6,71.5,9.4,52.8z M57.4,90.1c9.5-10.2,15-23.3,15.7-37.3h17.6C89.4,71.5,75.5,86.8,57.4,90.1z"/>
</svg>
