<?xml version="1.0" encoding="utf-8"?>
<!-- Generator: Adobe Illustrator 22.0.1, SVG Export Plug-In . SVG Version: 6.00 Build 0)  -->
<svg version="1.1" id="Layer_1" xmlns="http://www.w3.org/2000/svg" xmlns:xlink="http://www.w3.org/1999/xlink" x="0px" y="0px"
	 viewBox="0 0 100 100" style="enable-background:new 0 0 100 100;" xml:space="preserve">
<path d="M90.4,70.7l0.1-54.2c0-2.2-1.7-3.9-3.8-3.9l-0.2,0c-1.6,0-3.2-0.1-4.8-0.1V6.4c0-2.4-1.9-4.3-4.3-4.3H13.8
	c-2.4,0-4.3,1.9-4.3,4.3v59.3c0,0.3,0.1,0.5,0.3,0.7L41,97l0.6,0.6c0.2,0.2,0.4,0.3,0.7,0.3h35c2.4,0,4.3-1.9,4.3-4.3v-4.7l8.7-17.5
	L90.4,70.7L90.4,70.7L90.4,70.7z M83.9,68c-1.5,0-2.8,1.2-2.8,2.8c0,1.3,0.9,2.3,2.1,2.6l-4.1,8.2L75,73.4c1.1-0.3,2-1.4,2-2.6
	c0-1.5-1.2-2.8-2.8-2.8h-0.9l0.1-36.6h11.5L84.9,68H83.9z M84.9,25.9H73.5l0-7.8c3.8,0,7.6,0,11.5,0.1L84.9,25.9z M40.2,88.5
	L19,67.7h21.2V88.5z M45.7,92.4V66c0-2.1-1.7-3.8-3.8-3.8H15V7.6h61.1v5c-1.3,0-2.6,0-4,0c-1.1-0.1-2.2,0.3-3,1
	c-0.8,0.7-1.2,1.7-1.2,2.8l-0.1,55l8.3,16.5v4.6H45.7z"/>
</svg>
