<?xml version="1.0" encoding="utf-8"?>
<!-- Generator: Adobe Illustrator 21.0.2, SVG Export Plug-In . SVG Version: 6.00 Build 0)  -->
<svg version="1.1" id="Layer_1" xmlns="http://www.w3.org/2000/svg" xmlns:xlink="http://www.w3.org/1999/xlink" x="0px" y="0px"
	 viewBox="0 0 100 100" style="enable-background:new 0 0 100 100;" xml:space="preserve">
<g>
	<path d="M91.5,10.4L91.5,10.4L91.5,10.4c0,0-0.7-0.1-1.1-0.1c-2.6,0-5.1,1.5-5.1,5.3c-1.5,19.3-3.1,38.6-5.7,57l0,0c0,0,0,0,0,0
		c0,0,0,0,0,0l0,0c1.6-0.3,2.8,0.1,4,0.6l0,0c3-18.7,10-46.6,11.8-54.5c0.3-1.1,0.6-2.4,0.6-3.4C96,12.5,94.2,10.8,91.5,10.4z"/>
	<path d="M68.1,9.5L68.1,9.5c-3.8,0.9-7.3,0.9-10.7,0c-3,5.6-14.2,23.9-21.3,35.6c-7.2-12-15.8-25.8-21.3-35.6
		c-4.4,0.9-6.3,1-10.7,0C12.8,22.6,26.8,47.7,31.5,56l-0.6,34.3c0,0,3.1-0.5,5.1-0.5c2.3,0,5.1,0.5,5.1,0.5L40.5,56
		C49.4,40.4,64.1,14.9,68.1,9.5C68.1,9.4,68.1,9.5,68.1,9.5z"/>
	<path d="M79.3,80.3c-3.4,0-5,2.6-5,5.3c0,3.2,2.6,4.9,5.8,4.9c2.3,0,4.8-1.4,4.8-5.2C84.9,82.3,82.5,80.3,79.3,80.3z"/>
</g>
</svg>
