<?xml version="1.0" encoding="utf-8"?>
<!-- Generator: Adobe Illustrator 22.0.1, SVG Export Plug-In . SVG Version: 6.00 Build 0)  -->
<svg version="1.1" id="Layer_1" xmlns="http://www.w3.org/2000/svg" xmlns:xlink="http://www.w3.org/1999/xlink" x="0px" y="0px"
	 viewBox="0 0 100 100" style="enable-background:new 0 0 100 100;" xml:space="preserve">
<path d="M52.8,50.4l24.5-38.2c0.8-1.3,0.4-3-0.8-3.8c-1.3-0.8-3-0.4-3.8,0.8L50,44.7L27.3,9.3c-0.8-1.3-2.5-1.7-3.8-0.8
	c-1.3,0.8-1.7,2.5-0.8,3.8l24.5,38.2c0,0.1,0.1,0.3,0.1,0.4v3.3H28.1c-1.5,0-2.8,1.2-2.8,2.8s1.2,2.8,2.8,2.8h19.2v8.7H28.1
	c-1.5,0-2.8,1.2-2.8,2.8s1.2,2.8,2.8,2.8h19.2v15.4c0,1.5,1.2,2.8,2.8,2.8s2.7-1.2,2.7-2.8V73.9h18c1.5,0,2.8-1.2,2.8-2.8
	s-1.2-2.8-2.8-2.8h-18v-8.7h18c1.5,0,2.8-1.2,2.8-2.8s-1.2-2.8-2.8-2.8h-18v-3.4C52.8,50.7,52.8,50.5,52.8,50.4z"/>
</svg>
