<?xml version="1.0" encoding="utf-8"?>
<!-- Generator: Adobe Illustrator 21.0.2, SVG Export Plug-In . SVG Version: 6.00 Build 0)  -->
<svg version="1.1" id="Layer_1" xmlns="http://www.w3.org/2000/svg" xmlns:xlink="http://www.w3.org/1999/xlink" x="0px" y="0px"
	 viewBox="0 0 100 100" style="enable-background:new 0 0 100 100;" xml:space="preserve">
<path d="M95.5,27.1c-1.1-4.1-4.3-7.3-8.4-8.4c-7.4-2-37.1-2-37.1-2s-29.7,0-37.1,2c-4.1,1.1-7.3,4.3-8.4,8.4c-2,7.4-2,22.9-2,22.9
	s0,15.5,2,22.9c1.1,4.1,4.3,7.3,8.4,8.4c7.4,2,37.1,2,37.1,2s29.7,0,37.1-2c4.1-1.1,7.3-4.3,8.4-8.4c2-7.4,2-22.9,2-22.9
	S97.5,34.5,95.5,27.1z M40.5,64.2V35.7L65.2,50L40.5,64.2z"/>
</svg>
