<?xml version="1.0" encoding="utf-8"?>
<!-- Generator: Adobe Illustrator 22.0.1, SVG Export Plug-In . SVG Version: 6.00 Build 0)  -->
<svg version="1.1" id="Layer_1" xmlns="http://www.w3.org/2000/svg" xmlns:xlink="http://www.w3.org/1999/xlink" x="0px" y="0px"
	 viewBox="0 0 100 100" style="enable-background:new 0 0 100 100;" xml:space="preserve">
<g>
	<path d="M82.3,20.9V7.8c0-2.3-1.9-4.3-4.3-4.3H16.6c-2.3,0-4.3,1.9-4.3,4.3v57c0,0.5,0.2,1.1,0.6,1.4l30.2,29.7
		c0.4,0.4,0.9,0.6,1.4,0.6h33.5c2.3,0,4.3-1.9,4.3-4.3V48.7c3-0.2,5.4-2.7,5.4-5.7V26.6C87.7,23.6,85.3,21.1,82.3,20.9z M42,87.1
		L21.8,67.2H42V87.1z M76.8,91H47.5V65.5c0-2.1-1.6-3.8-3.8-3.8H17.8V9h59v11.9H53.1c-3.2,0-5.7,2.6-5.7,5.7V43
		c0,3.2,2.6,5.7,5.7,5.7h23.7V91z M70.6,30.4v9c0,0.2-0.2,0.4-0.4,0.4h-1.7c-0.2,0-0.4-0.2-0.4-0.4v-9c0-0.2,0.2-0.4,0.4-0.4h1.7
		C70.4,30,70.6,30.2,70.6,30.4z M57.4,32.1c-0.2,0-0.4-0.2-0.4-0.4v-1.2c0-0.2,0.2-0.4,0.4-0.4h7.5c0.2,0,0.4,0.2,0.4,0.4v1.1
		c0,0.1,0,0.2-0.1,0.3l-5.1,5.9H65c0.2,0,0.4,0.2,0.4,0.4v1.2c0,0.2-0.2,0.4-0.4,0.4h-7.8c-0.2,0-0.4-0.2-0.4-0.4v-1.1
		c0-0.1,0-0.2,0.1-0.3l5.1-6H57.4z M80.4,36.1c-0.7,0.6-1.7,1-2.9,1h-0.7h-1v2.3c0,0.2-0.2,0.4-0.4,0.4h-1.7c-0.2,0-0.4-0.2-0.4-0.4
		v-8.9c0-0.2,0.2-0.4,0.4-0.4h3.1h0.7c1.2,0,2.2,0.3,2.9,0.9c0.7,0.6,1,1.4,1,2.5C81.5,34.6,81.1,35.5,80.4,36.1z"/>
	<path d="M77.4,32.1h-0.6h-1v3h1h0.6c0.5,0,0.9-0.1,1.2-0.4S79,34,79,33.5c0-0.5-0.1-0.8-0.4-1.1C78.3,32.2,77.9,32.1,77.4,32.1z"/>
</g>
</svg>
