<?xml version="1.0" encoding="utf-8"?>
<!-- Generator: Adobe Illustrator 22.0.1, SVG Export Plug-In . SVG Version: 6.00 Build 0)  -->
<svg version="1.1" id="Layer_1" xmlns="http://www.w3.org/2000/svg" xmlns:xlink="http://www.w3.org/1999/xlink" x="0px" y="0px"
	 viewBox="0 0 100 100" style="enable-background:new 0 0 100 100;" xml:space="preserve">
<g>
	<path d="M94.3,83.8L73.1,62.6c-1.8-1.8-4.9-1.9-6.8-0.2l-9.2-9.1c4.3-5.2,7-11.9,7-19.2c0-16.5-13.4-30-30-30s-30,13.4-30,30
		s13.4,30,30,30c7.2,0,13.9-2.6,19.1-6.9l9.2,9.1l-0.1,0.1c-1.9,1.9-1.9,5.1,0,7l21.2,21.1c1.9,1.9,5.1,1.9,7,0l3.8-3.8
		C96.3,88.8,96.3,85.7,94.3,83.8z M9.7,34.1c0-13.5,11-24.5,24.5-24.5s24.5,11,24.5,24.5s-11,24.5-24.5,24.5S9.7,47.5,9.7,34.1z"/>
	<path d="M42.9,30.4H25.4c-1.5,0-2.8,1.2-2.8,2.8s1.2,2.8,2.8,2.8h17.5c1.5,0,2.8-1.2,2.8-2.8S44.4,30.4,42.9,30.4z"/>
</g>
</svg>
