<?xml version="1.0" encoding="utf-8"?>
<!-- Generator: Adobe Illustrator 21.0.2, SVG Export Plug-In . SVG Version: 6.00 Build 0)  -->
<svg version="1.1" id="Layer_2_1_" xmlns="http://www.w3.org/2000/svg" xmlns:xlink="http://www.w3.org/1999/xlink" x="0px" y="0px"
	 viewBox="0 0 64 64" style="enable-background:new 0 0 64 64;" xml:space="preserve">
<path d="M11.4,6.1l-5-5.3c-1.1-1.1-2.7-1.1-3.7,0s-1.1,2.7,0,3.7L5.9,8l-4.8,5c-1.1,1.1-1.1,2.7,0,3.7c0.5,0.5,1.1,0.8,1.9,0.8
	s1.3-0.3,1.9-0.8L9.3,12l5.3,5.6L7.4,25c-1.1,1.1-1.1,2.7,0,3.7c0.5,0.5,1.1,0.8,1.9,0.8s1.3-0.3,1.9-0.8l6.9-7.2l14.6,15.4
	l-1.3,1.3c-3.2,3.2-3.2,8.2,0,11.4l12,12c1.5,1.6,3.6,2.4,5.5,2.4c2.1,0,4-0.8,5.6-2.4l6.4-6.4c1.6-1.6,2.8-3.7,2.8-5.8
	c0-3.2-0.5-4.5-2.1-5.8l-12-12c-3.2-3.2-8.2-3.2-11.4,0l-1.3,1.3L11.4,6.1 M57.9,51.3l-6.4,6.4c-1.1,1.1-2.7,1.1-3.7,0l-12-12
	c-1.1-1.1-1.1-2.7,0-3.7l3.2-3.2l0,0l0,0l3.2-3.2c0.5-0.5,1.3-0.8,1.9-0.8c0.8,0,1.3,0.3,1.9,0.8l12,12c0.1,0.1,0.2,0.2,0.2,0.3
	c0.6,0.8,0.6,2,0,2.9C58.2,51,58,51.1,57.9,51.3z"/>
</svg>
